<?xml version="1.0" encoding="UTF-8"?><svg id="Layer_2" xmlns="http://www.w3.org/2000/svg" viewBox="0 0 1016.8 791.97"><defs><style>.cls-1{font-family:MyriadPro-Regular, 'Myriad Pro';font-size:1.2px;}.cls-2{fill:#f57e20;}.cls-3{letter-spacing:0em;}.cls-4{fill:#040303;}.cls-5{fill:#a71e31;}.cls-6{fill:#701828;}.cls-7{fill:#feffff;}.cls-8{letter-spacing:0em;}</style></defs><g id="Layer_1-2"><g id="DNhe7a"><path class="cls-7" d="M757.27,525.24c21.4-2.51,39.76-13.94,35.53-36.77-1.23-6.63-2.7-13.14-1.68-19.86.11-.71,1.09-1.36,1-1.7-.39-1.39-14.22,7.02-12.46,22.53,2.01,17.76-11.82,25.59-22.39,35.79ZM258.46,525.15c-6.49-5.52-12.28-9.8-17.07-15.86-13.09-16.56,3.82-29.39-16.83-41.81,3.1,15.4-9.92,34.2,9.67,48.88,6.83,5.12,15.04,8.66,24.22,8.8Z"/><path d="M635.41,335.45c45.44-17.89,93.91-61.81,93.59-114.65,27.78-15.15,60.43-45.27,58.63-79.99-21.05,29.7-47.03,51.55-78.96,71.05-1.54,43.07-24.08,83.68-60.61,106.46-2.55,1.59-4.86,2.53-7.52,2.28,2.84-9.6,1.62-19.71.21-30.1,33.44-21.7,48.49-50.74,52.71-89.5,45.82-21.76,92.77-66.85,101.84-118.85,5.67,6.3,8.32,13.61,11.17,21.16,4.37,11.58,4.21,22.78,2.51,35.93,47.14-31.81,91.2-81.5,94.69-139.17,11.32,12.55,17.43,26.6,22.04,41.74,6.85,22.47,4.85,44.7-4.95,67.13,24.51-20.61,53.66-50.45,62.95-80.65,16.72,50.32-2.63,105.63-39.92,143.34,12.2-3.21,21.97-9.35,32.26-15.29,15.54-8.96,28.65-20.46,40.75-33.92-.29,34.52-13.85,65.89-37.9,89.72-10.8,10.69-22.88,18.4-36.06,26.15,22.96-1.44,43.76-7.11,65.54-14.34-10.38,34.06-34.31,55.29-64.27,70.47-12.43,6.3-25.21,9.81-38.28,14.84,19.07.62,36.33-3.75,54.95-9.11-28.53,45.96-70.82,63.4-122.05,68.86,20.72,6.97,40.46,6.8,62.48,5.47-30.99,29.77-76.99,43.13-120.43,42.92,12.63,7.33,25.61,10.95,40.19,15.31-26.27,16.9-54.04,25.65-84.78,19.75-9.16-1.76-17.07-5.01-26.36-8.17,5.36,8.31,12.72,13.1,19.58,20.43-25.94,7.15-57.74,15.92-83.95,16.14-7.32-1.76-13.21-6.57-21.21-6.95-10.88-.51-20.44,4.33-25.65,14.13-4.78,8.99-7.15,18.92-7.12,29.37l.06,27.07c.03,14.32-9.01,18.48-21.11,22.26l-13.32-21.64c-10,20.1-7.22,41.27,8.91,56.58,3.93,3.73-5.18-25.73,16.91-33.58,28.03-9.96,5.97-42.48,20.16-67.86,4.98-8.91,13.94-14.3,24-12.36,9.22,1.78,16.12,8.87,18.81,19.46,5.61-7.41,12.05-11.62,19.89-11.67,7.84-.05,15.22,3.55,19.93,10.24,5.7,8.08,6.25,17.82,3.41,27.85,8.91.53,17.82,4.41,20.59,13.08,5.41,16.88-3.43,33.67-19.23,41.14-15.16,7.17-32.2,6.8-48.44.12,4.35-5.26,9.84-9.04,12.35-16.06-16,1.82-29.46,11.55-38.14,24.51s-1.14,26.43,8.47,37c-17.3,6.3-29.21,6.39-44.61-4.65,3.13,10.1,11.12,17,20.27,20.36,9.03,3.32,17.65,1.5,26.85-.91,7.44-1.95,12.77-6.71,19.68-13.22-.61,8.88-6.04,15.77-12.02,21.96-13.77,14.24-33.15,11.2-50.88,7.03,2.54,6.77,7.82,10.41,12.92,15.6-4.68,2.29-9.75.53-14.49,2.19-3.33,6.03-5.88,13.14-13.78,14.93,18.01-69.46-50.6-58.84-52.51-113.68-11.39,11.66-16.02,28.03-11.18,43.37,1.88,5.98,4.54,11.42,4.29,17.99-.56,14.87-14.03,34.6-25.26,28.66-13.48-7.13,10.84-33.67-22.68-54.88,10.32,30.49-29.88,40.44-15.89,85.67-6.82-4.98-8.8-12.4-12.83-18.91-2.43-3.93-7.32-3.3-12.16-4.55,5.13-5.24,10.72-9.25,12.97-16.43-13.41,3.49-26.33,6-39.13,1.08-11.93-4.58-20.61-15.79-23.85-27.95,7.47,4.98,12.48,10.69,20.79,12.36,19.31,5.2,37.22-.55,45.31-21.35-14.53,12.31-28.61,11.5-45.4,5.1,4.39-4.61,7.88-9.19,10.31-14.88,9.67-22.7-19.11-44.61-39.5-46.18,2.7,6.71,7.91,9.88,12.5,15.65-15.49,6.95-33.56,7.18-48.81.04-13.72-6.42-22.32-19.85-20.67-34.58,1.33-11.93,10.12-19.62,22.29-19.17-3.68-11.18-2.03-23.27,6.15-31.37s20.81-10.54,29.4-2.85l7.89,7.07c1.97-10.17,8.89-16.92,17.84-18.97,10.03-2.3,19.06,2.77,24.29,11.82,9.63,16.68,2.79,33.35,5.88,50.95,1.37,7.79,5.82,14.19,13.38,16.87,9.1,3.23,14.99,10.9,16.51,20.44.72,4.53-.44,8.63.78,14.09,16.26-14.72,19.31-36.32,9.89-56.89l-13.93,21.4c-4.85-1.66-9.13-3.74-13.34-6.13-15.93-9.08-.01-38.02-12.74-69.06-4.9-11.95-16.14-19.18-29.07-17.39-7.18.99-13.29,3.88-19.36,7.86-28.1-3.39-55.72-8.62-83.16-17.13,6.19-7.36,14.19-11.49,18.06-20.17-41.05,17.35-73.52,10.5-109.9-11.58,14.22-4.56,27.82-8.52,40.83-15.7-43.44.48-89.67-12.13-121.04-42.54,22.1,1.51,42.48.55,63.17-5.36-53.41-5.4-93.41-23.11-123.15-69.01,18.7,4.87,35.86,9.71,55.17,8.57-45.96-13.89-86.84-35.88-102.69-85.22,21.61,7.58,42.38,12.9,65.51,14.49-9.6-6.07-18.46-11.17-27.16-18.41C17.56,196.38.18,161.16,0,122.83c20.41,22.13,43.98,39.38,72.99,49.06-24.83-26.02-40.79-55.9-45.46-90.44-1.5-17.98-.97-35.21,5.6-52.15,10.9,31.2,38.72,58.94,63.38,80.42C79.19,73.22,87.68,30.06,113.14,0c1.99,32.45,15.45,58.82,34.06,83.53,17,22.01,37.44,40.22,61.1,56.08-4.81-21.18,1.06-40.31,12.89-57.5,9.4,51.56,56.59,98.66,102.13,119.01,3.67,37.77,18.55,65.72,49.15,87.13,11.44,7.38,22.97,14.73,36.16,18.4-5.74-14.53-7.03-27.27-5.81-41.28-.03-.96.78-.9,1.17.1,6.22,8.17,12.67,16.42,23.12,19.67-13.53-23.98-14.42-41.78-6.97-66.99,5.21,8.21,8.99,16.29,17.02,21.64-10.13-34.02,7.13-65.03,33.98-84.79-.92,15.61-2.26,32.71,5.45,45.54,4.71-9.23,10.49-17.02,18.83-23.65,8.19,27.42,18.34,38.43,45.95,46.95,3.96-4.87,8.81-7.85,13.65-11.54l19.43-14.79c1.41,10.39,2.16,35.27,12.16,41.37,16.69,10.19,24.92,15.28,29.04,35.04,8.34,5.45,14.24,12.19,15.67,22.51,2.86,20.58-4.39,40.09-21.44,52.97-1.03-5.65-1.94-11.14-6.24-16.04-.88,10.06-.97,19.83,1.7,30.57,12.98-6.29,22.05-16.65,30.09-28.51ZM223.78,207.08c-3.46-7.82-8.7-12.07-10.69-19.84,9.9,5.91,18.33,12.56,29.44,16.2-10.91-12.11-20.49-23.75-28.83-37.48-42.12-30.62-81.7-64.96-104.97-112.82-8.76,44.45,18.23,88.32,53.44,112.45-6.46-11.51-14.53-21.26-17.88-35.02,16.5,17.23,31.86,34.33,49.14,50.61,10.03,9.45,19.51,18.62,30.35,25.9ZM791.34,208.19c30.47-23.14,54.15-48.52,80.59-77.66-1.85,13.01-11.3,22.1-16.8,34.5,35.87-24.88,61-67.55,53.04-112.18-23.82,49.06-63.53,82.31-105.92,113.68-8.58,14.2-18.33,26.3-30.09,37.93,11.66-4.29,20.74-10.62,31.1-17.43-2.18,8.73-7.98,14.23-11.92,21.16ZM844.96,206.19c49.17-7.35,90.22-34.97,112.82-78.94,7.52-14.64,12.7-29.37,14.13-45.98-27.54,27.73-55.56,54.09-84.73,80.01-6.13,5.44-11.72,10.1-17.08,15.99,19.58-6.89,37.42-15.54,54.22-26.66-18.36,24.81-53.21,42.3-79.36,55.59ZM92.07,150.33c18.07,10.29,34.9,21.42,55.47,26.99-35.63-31.18-68.87-62.05-102.16-95.34.31,11.54,3.3,21.18,7.23,31.28,19.74,50.74,65.43,85.71,119.7,93.14-27.85-13.86-60.17-30.94-80.23-56.07ZM387.34,339c2.43-3.22,3.98-4.74,5.48-8.06-17.56-7.59-33.34-16.85-46.78-30.41-23.5-23.71-36.42-55.19-38.25-88.44-30.03-18.27-59.25-42.14-79.09-71.67-1.2,34.55,29.53,64.42,59.08,80.83-.4,37.5,25.26,71.43,54.72,92.97,14.04,10.05,28.58,18.04,44.85,24.79ZM829.14,255.27c61.13-.89,127.99-27.42,157.44-85.11-31.15,16.79-74.25,31.8-107.48,39.2l-43.04,9.58c22.65,2.86,43.8-.23,65.85-3.73-19.11,19.24-49.97,31.27-72.77,40.06ZM114.84,215.09c23.17,4.31,43.51,6.47,65.54,3.89l-41.36-9.26c-29.43-6.59-57.39-15.8-84.98-27.81-8.01-3-14.16-8.09-23.35-10.42,29.87,56.61,94.54,82.55,155.73,83.9-22.05-9.22-54.69-21.99-71.57-40.3ZM476.17,290.44c1.62.04,4.33.79,5.85.1-1.09,2.06-3.58,2.79-5.93,3.74l-14.84,6c-6.17-.38-12.79.95-19.03.89.1-.88-.99-.66-1.51-.7-.65-.05-1.73-.26-1.51.75-.28-.07-.63.07-.9-.04-4.36-1.7-8.99-2.75-14.54-3.52,8.52,12.79,21.74,18.38,37.07,20.71-10.29,4.26-19.38,7.31-27.03,14.77-15.38,14.97-23.55,36.63-20.62,58.8,8.41-13.17,17.19-25.05,31.3-31.67-2.48,7.31-6.37,12.7-6.37,19.3-6.65,13.7-3.02,44.43,8.69,54.91,2.14,5.33,6.69,9.62,11.44,13.68-4.74-18.01-5.13-35.93,5.05-51.48,2.46,36.73,17.94,60.84,50.5,75.37,11.76-7.33,21.03-16.3,26.79-28.52-10.7-12.07-19.92-9.42-21.05-30.89-9.09,9.43-9.29,21.36-9.34,34.18-13.69-17.69-18.02-40.05-8.79-60.75-9.11,2.16-14.96,9.02-21.27,16.56.06-21.61,16.1-38.36,37.08-40.05,3.04-.24,5.69-.1,8.43-.72-10.22-12.13-21.65-17.79-37.31-12.17-7.51,2.7-13.32,7.49-20.34,11.42,9.28-23.94,23.96-36.11,44.6-48.73-3.01-2.54-6.49-3-10.02-5.03,4.97-3.54,9.97-1.58,16.22-2.12-10.52-13.04-7.45-14.65-21.8-25.55,4.2-1.36,7.79.85,11.58.26-1.55-6.09-6.66-8.42-10.62-13.27l25.15.93c-4.56-7.99-12.18-12.9-18.34-20.19,10.94,2.76,19.38,8.48,27.68,14.79l20.58,15.61c4.41,3.35,9.56,5.51,15.14,5.66,9.1.25,9.46-7.39,10.49-13.93,2.94,1.98,3.97,5.12,5.19,8.83,4.48-1.58,8.85-3.33,14.01-4.56-1.18-21.82-28.27-15.67-35.42-46.47-5.82,10.35-.92,19.11,2.09,29.95-9.77-8.08-18.74-14.1-29.57-18.54-19.53-8-34-11.86-43.65-33.09-3.25,8.81-1.96,16.59,1.99,25.89-17.52-5.47-29.34-20.52-35.01-38.43-10.6,26.22-7.57,50.96,16.18,68.83-15.39,2.52-30.45-1.18-43.74-10.58.94,12.82,7.65,24.99,18.54,32.11,8.2,5.37,17.75,6.79,26.92,6.99ZM220.8,225.64l23.24,3.6c-3.79-3.22-8.24-5.02-12.99-6.69-11.99-4.2-23.38-8.28-36.37-12.08,8.95,23.29,38.36,40.45,63,42.99-13.7-8.23-27.04-15.54-36.87-27.82ZM758.46,253.27c25.87-2.32,53.79-19.2,63.56-43.01-14.59,4.18-28.02,9.02-41.82,14.33-3.05,1.17-5.4,3.15-8.06,4.63,9.07.13,16.15-3.55,24.66-4.38-10.83,13.2-24.74,21.01-38.33,28.44ZM246.21,229.95c0-.28-.22-.5-.5-.5s-.5.22-.5.5.22.5.5.5.5-.22.5-.5ZM131.91,281.15c20.85-3.77,40.88-6.69,60.57-13.64-24.14.44-46.6.27-70.26-3.04-26.04-3.65-51.03-8.66-76.01-13.58,49.98,48.84,111.19,62.06,176.13,47.76-32.61-3.23-60.47-4.32-90.43-17.5ZM743.61,279.12c21.93.33,51.69-7.68,65.76-28.41l-33.37,6.5,6.41,1.93c-11.7,8.85-24.29,14.58-38.81,19.98ZM869.46,286.94c-25.04,7.31-50.62,9.86-76.65,11.3,64.79,15.44,130.83-.17,177.51-47.57-31.82,6.83-62.73,12.86-95.07,15.86-16.79,1.56-32.17.54-49.94,1.07,19.1,6.82,39.29,9.71,59.75,13.53-5.15,2.97-10.15,4.21-15.61,5.8ZM234.39,259.01c2.9-1.63,4.95-.04,6.8-1.68-5.51-1.84-10.99-2.31-16.82-2.98s-10.34-2.7-16.37-2.73c15.32,20.27,41.27,27.38,64.22,27.34-13.88-5.27-26.6-11.26-37.82-19.96ZM259.85,253.95c0-.35-.28-.63-.63-.63s-.63.28-.63.63.28.63.63.63.63-.28.63-.63ZM536.11,292.96c-2.8-3.23-2.17-7.48.5-11.64-5.92-3.27-12.1-4.48-18.26-5.36.25,6.69,1.3,12.49,5.07,17.37,7.66,9.9,22.72,9.89,30.92,1.44-1.67-6.27-10.28,7.36-18.23-1.8ZM255.09,290.01c3.86-2.82,6.3-.67,9.15-3.27l-33.53-2.62c14.1,15.95,34.91,22,55.65,19.19-10.88-3.63-22.09-6.5-31.27-13.3ZM729.38,303.14c14.95,2.62,28.48-.71,41.03-6.51,6.03-3.44,11.27-7.35,15.61-12.89l-35.91,3.01c3.42,1.91,7.21,1.44,11.38,3.08-9.66,7.35-21.19,10.07-32.11,13.32ZM539.87,286.19c-1.31.92-1.37,2.87-.74,3.98.57,1.02,2.25,1.05,2.94.54,1.11-.8,1.04-2.5.75-3.61-.23-.85-1.66-1.82-2.95-.92ZM560.29,306.22c-1.29-.04-2.69.28-4.12,1.04-9.96,5.37-20.65,7.04-31.75,8.42-3.63.45-6.23,4.04-9.26,5.56,1.89,2.34,4.45,2.06,6.21,3.01l10.53,9.56c12.31,11.18,16.88,41.3,36.21,57.57,2.31,1.94,5.66,3.91,8.35,2.44,4.01-2.19,2.31-6.19,1.63-9.34-.51-2.37-.04-5.19-.88-7.99-3.83-12.78-2.18-25.4,2.97-37.99-10.4,5.21-10.96,18.44-14.53,27-4.5-6.53-1.45-18.27-9.91-24.55l-1.37,14.5-10.08-17.19c-4.55-7.77-11.49-14.04-19.97-15.99.31-1.7,1.7-2.66,3.88-2.88,31.25-3.04,67.81-21.02,85.62,6.28,1.02-.87,1.15-1.67,1.31-2.23,2.06-6.98,3.93-14.3,2.08-21.96-1.32-5.44-3.73-12.31-9.5-14.3-8.11-2.8-17.59-.36-24.75,4.05-8.05,4.96-15.49,9.73-22.68,15ZM274.93,316.27l9.42-4.77-33,.11c16.13,15.02,32.38,15.15,52.08,9.17-10.08-1.12-19.48.16-28.5-4.51ZM724.35,323.65c15.32,2.72,29.92-1.43,40.8-12.06l-31.82.1,9.09,4.64c-9.49,4.55-19.05,3.55-29.44,4.35,3.43,1.64,7.17,1.89,11.38,2.97ZM266.16,347.66l-44.18-3.75c-15.26-1.3-29.85-3.74-45.35-8.78,15.65-5.97,30.77-10.85,44.84-19.55-19.85,3.2-38.38,5.67-58.23,6.79l-57.41,4.7c48.22,31.8,107.44,35.49,160.33,20.6ZM910.51,326.66l-55.24-4.06c-20.48-1.51-39.75-3.74-60.31-7.21,13.83,8.83,28.66,13.36,44.75,19.51-28.62,9.43-57.89,9.79-88.78,12.66,50.32,15.44,114.54,9.97,159.58-20.89ZM636.32,347.12c11.44,1.29,21.12-1,31.06-3.58,8.54-3.47,16.43-7.47,22.98-13.8-7.35,1.55-13.83,3.74-20.78,6.09l-33.26,11.29ZM374.74,345.64c-15.27-5.17-30.99-12.05-47.61-15.01,13.71,10.83,29.46,16.17,47.61,15.01ZM692.14,345.73c16.85,7.66,36.37,3.37,50.19-9.26l-35.69-1.41c4.7,3.14,9.24,3.75,13.92,6.14-9.1,4.54-18.52,4.63-28.42,4.53ZM297.13,341.23c4.54-2.31,8.7-2.72,12.3-5.73l-34.52,1.02c13.16,13.49,33.09,16.55,48.99,9.63-10.15-.78-18.5-.58-26.77-4.93ZM273.21,358.95c0-.28-.22-.5-.5-.5s-.5.22-.5.5.22.5.5.5.5-.22.5-.5ZM845.1,388.49l-44.77-13.1-57.32-17.07c12.06,9.76,24.82,17.16,38.35,23.78-23.05,5.4-50.04,3.77-72.38,3.91,40.45,17.02,96.39,20.18,136.12,2.48ZM264.71,385.86c-10.2-.2-19.51-.85-29.17-3.36,12.6-7.75,25.42-13.29,36.28-23.4l-100.68,29.8c41.37,17.58,92.62,14.34,134.61-2.22l-41.04-.81ZM676.21,361.95c0-.28-.22-.5-.5-.5s-.5.22-.5.5.22.5.5.5.5-.22.5-.5ZM326.81,369.01c4.96-2.7,9.42-3.56,13.61-6.52-11.68.01-21.85,1.57-33.35,3.1,12.52,11.14,29.23,13.64,43.98,8.14-9.19-.8-16.72-.22-24.24-4.71ZM664.98,373.79c15.1,5.5,32.29,3.06,44.52-8.13-11.25-1.74-21.27-2.99-32.41-3.21,3.91,3.99,8.94,4.03,13.53,6.63-8.46,4.26-16.66,4.08-25.65,4.72ZM325.33,417.65c-14.37,2.36-27.28,5.46-41.86,4.93,10.38-9.56,20.92-16.95,29.89-27.31-27.37,12.23-53.24,25.31-78.46,40.9,31.54,11.59,64.43-2.81,90.43-18.52ZM355.34,397.27c-3.03-2.57-7.67-1.54-11.13-1.41.84,2.76,2.97,4.25,4.71,4.55,2.41.42,7.35-.19,6.43-3.14ZM672.39,396.07c-4.14-1-7.85-.98-11.46,1.04,1.69,2.92,4.26,3.7,6.68,3.37,1.97-.27,3.94-1.54,4.77-4.41ZM781.61,435.95c-13.74-9.44-27.66-15.94-41.73-23.37-12.21-6.05-23.36-12.52-36.82-17.33,9.45,10.32,19.77,18.28,30.46,27.28-14.57.26-27.45-2.4-41.64-4.82,24.91,15.48,60.63,29.9,89.72,18.25ZM564.19,462.83c14.11-12.31,26.72-30.76,26.38-49.47l-9.21,11.27c-4.22,5.16-8.02,10.19-11.34,15.51l-2.64-8.66c-14.16,5.36-2.29,11.48-3.19,31.35ZM417.13,429.55c-.14.34.04.97-.19,1.9-1.28,1.51-.57,3.36-.55,6,.08,12.33,2.74,24.59,8.57,36.01,5.07,9.93,11.14,19.08,19.19,26.95,2.81,2.75,4.52,6.84,8.92,9.58-2.24-12.66-2.5-25.37.85-38.61l-13.94-13.09c-1.4,2.55-.62,4.88-3.07,6.74-6.09-19.13-13.92-25.37-17.95-46.76-1.96,3.35-1.5,7-1.83,11.27ZM353.15,445.83c-8.45.16-14.56,3.38-22.21,4.59,4.11-6.31,9.5-10.77,12.49-18-12.79,6.92-23.01,16.03-32.42,26.46,16,1.69,30.15-4.35,42.14-13.05ZM705.42,458.66c-9.55-10.75-19.57-19.42-32.15-26.6,3.07,6.86,8.03,11.31,12.22,17.65l-23.27-4.83c13.21,9.5,27.58,15.9,43.2,13.78ZM307.21,444.95c0-.28-.22-.5-.5-.5s-.5.22-.5.5.22.5.5.5.5-.22.5-.5ZM568.02,478.88l-1.64,27.83c11.37-11.06,25.71-36.52,25.55-52.08-6.66,8.27-12.38,16.39-16.24,25.89l-1.97-8.71c-1.65,1.92-5.51,3.74-5.7,7.07ZM511.45,514.21c-.75-14.88-6.22-18.36-16.5-26.34-.74,3.16,1.06,6.24-.26,9.85-4.89-5.72-8.14-11.64-13.14-16.59-4.5-4.45-8.56-8.65-12.21-13.72,2.62,27.28,20.49,43.57,43.01,55.75,18.41-12.4,31.37-28.1,30.44-50.87-8.42,18.23-18.1,28.36-31.34,41.92ZM383.1,525.53c1.82,10.02,6.03,19.67,14.18,27.43,1.89-6.84,2.16-13.18,3.01-19.46,1.53-.35,2.69-1.66,3.4-3.55,3.88-10.35.37-26.73-10.92-26.64-2.87.02-5.86,2.12-7.65,4.87-3.6,5.51-3.02,11.76-2.01,17.34ZM615.81,533.29c.46,6.28,1.59,12.54,3.07,19.54,9.01-8.54,13.79-19.72,14.28-31.4.24-5.65,1.27-11.91-4.8-16.41-3.81-2.83-10.09-1.94-13.18,2.32-5.65,7.78-6.48,21.94.63,25.95ZM342.2,533.54c1.75,4.12,2.72,8.64,6.97,12.02,5.64,4.48,12.06,8.47,19.45,9.69-1.84-6.79-4.33-11.62-6.52-16.75-.7-2.89-.2-6.05.82-9.29,2.25-7.17-.47-14.87-7.47-17.73-4.71-1.92-9.56-.2-12.23,3.79-3.96,5.92-3.46,12.53-1.02,18.27ZM653.09,541.24l-5.93,14.03c3.53.59,5.64-1.41,8.3-2.46,9.43-3.73,16.37-10.99,18.68-20.25,1.31-5.26,2.73-10.91-.77-16.46-1.69-2.68-4.33-4.91-6.97-5.26-3.46-.46-6.41.46-8.99,2.86-8.76,8.14-1.55,17.72-4.32,27.54ZM325.28,566.46c2.91,8.13,17.69,14.3,27.24,14.12l-9.42-13.22c1.47-8.46-1.92-17.22-10.67-19.97-4.85-1.52-10.31.17-11.61,5.34s.95,10.47,4.45,13.72ZM673.34,568.23c-3.76,3.55-7.01,7.54-10.72,12.34,9.51.42,17.25-3.43,24.22-8.51,2.18-1.58,2.64-4.12,4.08-5.62,3.66-3.82,6.74-10.32,3.96-15.78-2.46-4.83-9.43-4.57-13.75-2.14-7.2,4.06-8.91,12.18-7.8,19.7ZM416.59,598.66c.76,11.7-4.74,22.02-14.42,30.99,14.5,2.21,28.61-6.34,30.82-21.4-.22,1.51,7.77-24.73-8.37-25.81-3.4-.23-7.23.87-8.79,4.44s-.19,7.67.75,11.78ZM583.21,609.54c2.33,13.73,16.19,21.96,30.05,20.29-2.27-3.7-4.91-5.47-7.09-8.56-4.61-6.56-7.98-14.83-7.1-23.53.41-4.1,4.39-8.69-.37-13.26-2.1-2.01-6.11-2.8-9.56-1.65-10.4,3.45-9.16,18.67-5.93,26.71Z"/><path class="cls-5" d="M391.21,649.58c-8.31-1.67-13.32-7.38-20.79-12.36,3.24,12.16,11.92,23.37,23.85,27.95,12.81,4.92,25.73,2.41,39.13-1.08-2.25,7.17-7.84,11.19-12.97,16.43,4.83,1.25,9.73.62,12.16,4.55,4.03,6.52,6,13.94,12.83,18.91-13.99-45.23,26.21-55.18,15.89-85.67,33.52,21.21,9.2,47.74,22.68,54.88,11.23,5.94,24.7-13.79,25.26-28.66.25-6.57-2.41-12.01-4.29-17.99-4.83-15.34-.21-31.71,11.18-43.37,1.91,54.83,70.52,44.22,52.51,113.68,7.9-1.79,10.45-8.89,13.78-14.93,4.74-1.66,9.82.1,14.49-2.19-5.1-5.19-10.38-8.83-12.92-15.6,17.73,4.17,37.11,7.21,50.88-7.03,5.98-6.19,11.41-13.08,12.02-21.96-6.92,6.52-12.24,11.27-19.68,13.22,2.95-2.45,6.6-4.48,8.6-8.28,5.24-9.95-4.42-20.07-4.47-24.7-.08-6.5,6.78-9.75,12.45-8.58,24.72,5.1,50.1,5.5,73.02-5.51,16.42-7.89,27.83-25.44,22.4-44.84s-17.11-31.73,1.01-55.04c1.63,24.09,13.68,38.39,18.55,60.38,3.21,14.49-.38,29.1-11.75,38.51l-9.71,8.03c23.4.84,35.02-15.06,36.44-36.46l1.01-15.21c6.9,15.48,10.98,32.84,9.22,50.67-2,20.37-11.4,46.67-34.71,49.29-7.98.9-15.57,6.14-18.21,13.52-1.37,3.82-.25,7.73,1.66,10.27,4.88,6.45,15.05,1.18,21.71-.92-13.8,30.79-48.77,35.42-78.08,39.97-13.54,2.1-26.43,4.47-39.2,7.74,2.46-15.97,20.84-18.25,31.52-33.35,12.51-17.69,5.37-47.42-8.36-63.78,2.26,31.01-19.58,55.72-50.09,57.32-13.12.69-24.04,7.19-31.68,17.35-6.26,8.32-18.88,15.59-27.2,9.16-5.44-4.2-3.41-12.77-1.46-19.12,7.97-25.9-5.1-48.96-25.61-64.47,6.43,14.98,5.4,30.56-2.54,44.51-5.97,10.49-13.2,19.86-22.28,27.72-4.32,3.74-10.2,4.13-14.5.14-10.78-10-18.38-23-20.51-37.96-8.49,10.22-10.62,24.37-5.42,36.94l7.59,18.35c1.52,3.66,1.04,7.75-1.59,10.68-1.91,2.13-5.12,3.62-9,3.41-10.03-.55-18.74-8.32-20.87-18.51-3.15-15.09-13.85-25.27-29.25-27.93-7.4-1.28-14.99-2.77-21.74-6.42-17.84-9.66-27.81-28.27-27.45-49.48-15.61,16.99-21.63,52.7.25,70.06l16.05,12.73c3.86,3.06,6.45,7.39,6.1,11.94l-49.51-8.65c-25.95-4.54-54.63-11.33-66.71-38.35,7.64,3.19,19.38,7.6,23.13-1.8s-7.26-19.64-18.07-20.94c-7.42-.89-13.91-3.59-19.33-8.89-23-22.5-22.6-64.23-9.93-91.45,1.03,9.09,1.72,17.44,4.44,25.95,4.91,15.36,18.34,26.34,34.33,25.76-17.47-9.84-25.55-27.73-21.21-46.64,5.13-22.33,16.74-36.55,18.08-59.96,9.29,10.56,12.58,23.5,8.01,36.27l-6.02,16.84c-4.99,13.94-.54,28.31,10.46,38.35,21.51,19.63,57.55,19.75,84.76,13.8,6.24-1.36,13.13,1.57,13.34,8.7.19,6.45-13.65,20.81,2.36,31.17,1.41.91,3.14,1.65,3.95,2.96ZM680.26,647.37c2.24-9.93,7.68-16.41,15.18-21.88,6.53-4.75,14.17-5.43,21.67-10.29-11.82.21-22.26,2.8-33.09,5.36-3.85.91-7.71,4.72-7.07,8.69,1.04,6.5,1.31,12.09,3.31,18.11ZM336.63,623.16c-9.85-4.37-20.43-7.53-32.04-7.19,14.35,9.13,26.83,8.09,33.27,30.13,1.6-9,5.99-19.74-1.23-22.94ZM332.91,701.39c-3.26-6.49-6.66-11.29-6.64-17.93-.07-5.74,1.16-11.28,2.01-16.91,2.69-17.87-9.06-33.37-26.98-35.4-11.4-1.29-22.43-.06-33.21,2.77,21.89,13.68,41.96,20.52,46.91,47.98,1.67,9.26,9.36,16.31,17.91,19.49ZM705.99,668.03c10.1-17.63,25.65-23.72,43.27-34.23-11.24-2.64-23.06-4.14-34.9-2.38-14.29,2.13-24.73,12.8-25.79,27.11-.14,18.31,7.97,25.48-4.55,42.9,21.09-8.31,15.49-19,21.97-33.4Z"/><path class="cls-2" d="M637.15,727.18c-4.42,1.13-8.53,3.61-13.61,4.48,5.65-19.32,13.27-19.18,24.76-32.3l-15.95,4.4c-12.68,3.5-24.27,9.16-34.22,17.44-10.3,8.57-15.28,19.21-18.76,31.91-4.78,17.47-18.61,31.04-35.18,38.86,20.09-29.95-2.32-36.86,12.42-60.57-12.24,2.38-16.95,19.9-30.3,20.55-2.9.14-6.16-.65-7.52-2.55-4.66-6.48,4.53-18.22,8.22-24.29,9.75-16.01,14.77-33.95,10.73-52.91-2.08,7.94-4.74,15.37-10.03,21.83l-13.54,16.57c-9.7,11.88-16.81,24.82-21.39,39.52-2.73,8.75-14.7-7.47-13.84-15.87-6.34,11.94-4.96,25.42,3.43,36.09,4.89,6.22,11.69,9.32,18.15,14.45-38.83-4.87-71.64-29.1-90.75-61.87-5.76-9.87-14.13-15.87-25.01-19.28l-12.82-4.02c8.81,12.8,18.26,13.54,22.11,31.69-5.62-.2-10.16-4.01-14.94-4.85.36-4.55-2.23-8.88-6.1-11.94l-16.05-12.73c-21.88-17.36-15.87-53.07-.25-70.06-.37,21.21,9.6,39.81,27.45,49.48,6.74,3.65,14.34,5.15,21.74,6.42,15.39,2.66,26.09,12.85,29.25,27.93,2.13,10.19,10.84,17.96,20.87,18.51,3.89.21,7.1-1.28,9-3.41,2.63-2.94,3.11-7.02,1.59-10.68l-7.59-18.35c-5.2-12.56-3.08-26.72,5.42-36.94,2.13,14.96,9.73,27.96,20.51,37.96,4.3,3.99,10.17,3.6,14.5-.14,9.08-7.86,16.31-17.23,22.28-27.72,7.94-13.94,8.96-29.53,2.54-44.51,20.51,15.5,33.58,38.57,25.61,64.47-1.95,6.34-3.98,14.92,1.46,19.12,8.32,6.43,20.94-.84,27.2-9.16,7.64-10.16,18.56-16.67,31.68-17.35,30.51-1.6,52.35-26.31,50.09-57.32,13.73,16.36,20.88,46.09,8.36,63.78-10.68,15.1-29.06,17.37-31.52,33.35ZM353.54,658.36c-8.11,13.16-4.06,30.77,8.46,40.13-10.08-21.2-3.61-18.23-8.46-40.13ZM656.99,698.66c13.69-9.5,13.92-26.14,7.67-38.72l-1.16,12.48c-.91,9.75-2.13,17.7-6.5,26.24Z"/><path class="cls-5" d="M635.41,335.45c2.72-4.01,3.76-10.26,5.12-14.85,2.66.25,4.97-.69,7.52-2.28,36.53-22.78,59.08-63.39,60.61-106.46,31.93-19.51,57.91-41.36,78.96-71.05,1.8,34.72-30.85,64.84-58.63,79.99.33,52.84-48.15,96.76-93.59,114.65Z"/><path class="cls-5" d="M757.27,525.24c10.57-10.2,24.4-18.04,22.39-35.79-1.76-15.51,12.07-23.92,12.46-22.53.1.34-.89.98-1,1.7-1.02,6.72.45,13.22,1.68,19.86,4.22,22.83-14.13,34.25-35.53,36.77Z"/><path class="cls-5" d="M258.46,525.15c-9.19-.13-17.39-3.68-24.22-8.8-19.59-14.68-6.57-33.48-9.67-48.88,20.64,12.42,3.74,25.25,16.83,41.81,4.79,6.06,10.58,10.34,17.07,15.86Z"/><path class="cls-5" d="M446.79,434.48c.02-13-5.54-23.73-3.18-39.56,1.24-9.93,3.78-18.79,6.53-28.73-3.51,2.99-4.51,6.89-7.06,10.23-.72,2.46-2.89,3.48-4.98,3.15,0-6.6,3.9-11.99,6.37-19.3-14.11,6.62-22.89,18.5-31.3,31.67-2.93-22.17,5.25-43.83,20.62-58.8,7.65-7.45,16.74-10.51,27.03-14.77-15.33-2.33-28.55-7.92-37.07-20.71,5.55.78,10.18,1.82,14.54,3.52,1.34,11.59,34.77,5.59,40.92.62-5.23-1.2-17.12,1.38-17.98-1.53l14.84-6c2.35-.95,4.84-1.68,5.93-3.74,1.77-.81,3.63-1.36,5.83-3.44-6.86-2.61-12.71-5.15-19.29-6.86-8.95-2.32-15.79-7.54-24.57-11.93,6.19,10.86,17.74,16.29,29.06,19.28,1.86.49,3.09,1.19,3.12,2.85-9.17-.2-18.72-1.62-26.92-6.99-10.88-7.12-17.6-19.29-18.54-32.11,13.29,9.4,28.35,13.11,43.74,10.58-23.76-17.88-26.78-42.62-16.18-68.83,5.67,17.91,17.49,32.96,35.01,38.43-3.95-9.3-5.24-17.08-1.99-25.89,9.64,21.23,24.12,25.09,43.65,33.09,10.83,4.44,19.8,10.46,29.57,18.54-3.01-10.85-7.91-19.6-2.09-29.95,7.15,30.8,34.24,24.65,35.42,46.47-5.17,1.23-9.53,2.98-14.01,4.56-1.22-3.71-2.25-6.85-5.19-8.83-1.03,6.54-1.39,14.18-10.49,13.93-5.58-.15-10.73-2.32-15.14-5.66l-20.58-15.61c-8.31-6.3-16.74-12.02-27.68-14.79,6.15,7.29,13.78,12.2,18.34,20.19l-25.15-.93c3.96,4.85,9.08,7.18,10.62,13.27-3.79.59-7.38-1.62-11.58-.26,14.35,10.91,11.27,12.51,21.8,25.55-6.24.54-11.24-1.42-16.22,2.12,3.53,2.04,7.01,2.49,10.02,5.03-20.64,12.63-35.32,24.8-44.6,48.73,7.01-3.93,12.83-8.72,20.34-11.42,15.66-5.63,27.09.04,37.31,12.17-2.74.62-5.39.48-8.43.72-20.98,1.69-37.02,18.44-37.08,40.05,6.31-7.54,12.16-14.4,21.27-16.56-9.23,20.7-4.9,43.06,8.79,60.75.05-12.81.25-24.75,9.34-34.18,1.13,21.47,10.36,18.82,21.05,30.89-5.76,12.22-15.03,21.19-26.79,28.52-32.56-14.53-48.04-38.64-50.5-75.37-10.18,15.55-9.78,33.47-5.05,51.48-4.75-4.06-9.3-8.35-11.44-13.68ZM480.98,248.73c-9.7-7.88-15.91-18.87-21.34-31.42-2.14,8.26,7.18,36.41,21.34,31.42ZM504.21,246.95c0-.28-.22-.5-.5-.5s-.5.22-.5.5.22.5.5.5.5-.22.5-.5ZM530.06,249.88l31.34,19.76c-2.52-9.93-22.55-19.8-31.34-19.76ZM565.21,257.95c0-.28-.22-.5-.5-.5s-.5.22-.5.5.22.5.5.5.5-.22.5-.5ZM465.21,328.95c0-.28-.22-.5-.5-.5s-.5.22-.5.5.22.5.5.5.5-.22.5-.5ZM445.3,345.86c7.6-3.97,13.91-8.96,18.06-16.41-7.54,1.26-13.74,4.55-19.81,8.43-6.08,5.6-10.97,11.82-14.28,19.73,4.94-4.65,9.67-8.46,16.04-11.75Z"/><path class="cls-5" d="M791.34,208.19c3.94-6.93,9.74-12.43,11.92-21.16-10.36,6.81-19.44,13.14-31.1,17.43,11.77-11.63,21.52-23.73,30.09-37.93,42.39-31.36,82.09-64.62,105.92-113.68,7.96,44.63-17.18,87.3-53.04,112.18,5.49-12.41,14.95-21.49,16.8-34.5-26.44,29.14-50.12,54.52-80.59,77.66ZM873.21,129.95c0-.28-.22-.5-.5-.5s-.5.22-.5.5.22.5.5.5.5-.22.5-.5Z"/><path class="cls-5" d="M387.34,339c-16.27-6.75-30.81-14.74-44.85-24.79-29.46-21.54-55.12-55.47-54.72-92.97-29.55-16.41-60.28-46.28-59.08-80.83,19.84,29.53,49.07,53.4,79.09,71.67,1.83,33.25,14.75,64.73,38.25,88.44,13.44,13.56,29.22,22.82,46.78,30.41-1.5,3.33-3.05,4.85-5.48,8.06Z"/><path class="cls-5" d="M114.84,215.09c16.88,18.31,49.52,31.07,71.57,40.3-61.19-1.35-125.86-27.29-155.73-83.9,9.19,2.33,15.34,7.42,23.35,10.42,27.59,12.02,55.55,21.23,84.98,27.81l41.36,9.26c-22.02,2.58-42.37.42-65.54-3.89Z"/><path class="cls-5" d="M829.14,255.27c22.81-8.79,53.66-20.82,72.77-40.06-22.05,3.5-43.2,6.59-65.85,3.73l43.04-9.58c33.23-7.4,76.33-22.4,107.48-39.2-29.45,57.69-96.31,84.22-157.44,85.11ZM903.21,214.95c0-.28-.22-.5-.5-.5s-.5.22-.5.5.22.5.5.5.5-.22.5-.5Z"/><path class="cls-5" d="M131.91,281.15c29.96,13.18,57.82,14.27,90.43,17.5-64.94,14.3-126.15,1.08-176.13-47.76,24.98,4.92,49.98,9.94,76.01,13.58,23.66,3.32,46.12,3.48,70.26,3.04-19.69,6.95-39.72,9.87-60.57,13.64Z"/><path class="cls-5" d="M869.46,286.94c5.46-1.59,10.46-2.83,15.61-5.8-20.46-3.82-40.65-6.71-59.75-13.53,17.77-.53,33.15.49,49.94-1.07,32.33-3,63.25-9.03,95.07-15.86-46.67,47.4-112.71,63-177.51,47.57,26.03-1.43,51.61-3.98,76.65-11.3Z"/><path class="cls-5" d="M92.07,150.33c20.06,25.13,52.39,42.2,80.23,56.07-54.27-7.43-99.95-42.39-119.7-93.14-3.93-10.1-6.92-19.74-7.23-31.28,33.29,33.28,66.52,64.16,102.16,95.34-20.57-5.57-37.4-16.71-55.47-26.99Z"/><path class="cls-5" d="M266.16,347.66c-52.89,14.9-112.11,11.2-160.33-20.6l57.41-4.7c19.85-1.12,38.38-3.58,58.23-6.79-14.07,8.71-29.19,13.58-44.84,19.55,15.5,5.05,30.09,7.49,45.35,8.78l44.18,3.75Z"/><path class="cls-5" d="M910.51,326.66c-45.04,30.86-109.26,36.33-159.58,20.89,30.89-2.87,60.16-3.23,88.78-12.66-16.09-6.15-30.92-10.68-44.75-19.51,20.56,3.47,39.83,5.71,60.31,7.21l55.24,4.06Z"/><path class="cls-5" d="M845.1,388.49c-39.74,17.7-95.68,14.54-136.12-2.48,22.35-.14,49.34,1.49,72.38-3.91-13.54-6.62-26.29-14.02-38.35-23.78l57.32,17.07,44.77,13.1Z"/><path class="cls-5" d="M264.71,385.86l41.04.81c-41.99,16.56-93.25,19.8-134.61,2.22l100.68-29.8c-10.86,10.11-23.68,15.65-36.28,23.4,9.67,2.51,18.98,3.16,29.17,3.36Z"/><path class="cls-5" d="M781.61,435.95c-29.09,11.66-64.81-2.76-89.72-18.25,14.18,2.42,27.07,5.07,41.64,4.82-10.7-9-21.01-16.96-30.46-27.28,13.46,4.82,24.6,11.29,36.82,17.33,14.07,7.43,27.99,13.93,41.73,23.37Z"/><path class="cls-5" d="M325.33,417.65c-26,15.7-58.89,30.11-90.43,18.52,25.22-15.58,51.09-28.67,78.46-40.9-8.97,10.36-19.51,17.75-29.89,27.31,14.58.53,27.49-2.57,41.86-4.93Z"/><path class="cls-5" d="M511.45,514.21c13.24-13.55,22.92-23.69,31.34-41.92.93,22.77-12.03,38.47-30.44,50.87-22.52-12.18-40.4-28.47-43.01-55.75,3.65,5.07,7.72,9.27,12.21,13.72,5,4.95,8.25,10.87,13.14,16.59,1.32-3.61-.48-6.69.26-9.85,10.28,7.98,15.75,11.46,16.5,26.34Z"/><path class="cls-5" d="M444.14,500.41c3.88-2.6-5.94-17.9-8.18-22.02-7.57-13.93-12.14-28.98-15.12-44.54-.43-2.23-2.32-3.3-3.72-4.3.33-4.27-.13-7.92,1.83-11.27,4.04,21.39,11.86,27.63,17.95,46.76,2.45-1.86,1.67-4.19,3.07-6.74l13.94,13.09c-3.35,13.24-3.09,25.95-.85,38.61-4.4-2.74-6.12-6.83-8.92-9.58Z"/><path class="cls-5" d="M220.8,225.64c9.83,12.28,23.17,19.59,36.87,27.82-24.63-2.54-54.05-19.7-63-42.99,12.99,3.8,24.38,7.88,36.37,12.08,4.76,1.67,9.21,3.47,12.99,6.69l-23.24-3.6Z"/><path class="cls-5" d="M758.46,253.27c13.6-7.43,27.51-15.23,38.33-28.44-8.51.83-15.59,4.51-24.66,4.38,2.67-1.48,5.01-3.45,8.06-4.63,13.79-5.3,27.23-10.14,41.82-14.33-9.77,23.82-37.69,40.7-63.56,43.01Z"/><path class="cls-7" d="M615.14,323.42c-2.51-7.02-5.09-14.39-10.73-20.15-1.62-1.66-4.41-1.82-6.24-1.92-.23-3.83-3.6-7.24-7.94-7-1.67.09-2.86,1.22-3.28,2.16-.3.66-.71,2.46.15,2.95,3.56,2.02,7.44,1.69,11.07,1.89.04.66.05,1.2-.99,1.25-11.57.53-22.6,1.8-33.92,3.82-1.19.21-2.2-.18-2.96-.2,7.19-5.27,14.63-10.05,22.68-15,7.16-4.41,16.63-6.85,24.75-4.05,5.77,1.99,8.18,8.86,9.5,14.3,1.85,7.66-.02,14.98-2.08,21.96Z"/><path class="cls-7" d="M615.14,323.42c-.16.56-.29,1.36-1.31,2.23-17.8-27.29-54.36-9.31-85.62-6.28-2.19.21-3.57,1.17-3.88,2.88-.83.57-2.72.65-2.96,1.99-1.76-.95-4.32-.66-6.21-3.01,3.03-1.52,5.64-5.11,9.26-5.56,11.1-1.37,21.79-3.04,31.75-8.42,1.43-.77,2.83-1.08,4.12-1.04.76.02,1.78.42,2.96.2,11.32-2.02,22.35-3.29,33.92-3.82,1.04-.05,1.03-.59.99-1.25,1.83.1,4.62.26,6.24,1.92,5.64,5.77,8.22,13.13,10.73,20.15Z"/><path class="cls-7" d="M524.33,322.25c8.47,1.95,15.41,8.22,19.97,15.99l10.08,17.19c3.04,12.09,10.6,26.16,23.72,29.04.68,3.16,2.38,7.16-1.63,9.34-2.7,1.47-6.04-.49-8.35-2.44-19.33-16.27-23.9-46.39-36.21-57.57l-10.53-9.56c.25-1.34,2.13-1.42,2.96-1.99Z"/><path class="cls-5" d="M564.19,462.83c.9-19.87-10.97-25.99,3.19-31.35l2.64,8.66c3.32-5.32,7.13-10.35,11.34-15.51l9.21-11.27c.34,18.72-12.27,37.17-26.38,49.47Z"/><path class="cls-5" d="M578.1,384.47c-13.12-2.88-20.67-16.94-23.72-29.04l1.37-14.5c8.46,6.28,5.41,18.02,9.91,24.55,3.58-8.56,4.14-21.8,14.53-27-5.15,12.59-6.8,25.21-2.97,37.99.84,2.8.37,5.63.88,7.99Z"/><path class="cls-5" d="M743.61,279.12c14.51-5.4,27.1-11.13,38.81-19.98l-6.41-1.93,33.37-6.5c-14.07,20.72-43.83,28.74-65.76,28.41Z"/><path class="cls-5" d="M234.39,259.01c11.22,8.69,23.95,14.69,37.82,19.96-22.95.04-48.9-7.07-64.22-27.34,6.03.02,10.82,2.09,16.37,2.73,5.84.67,11.31,1.14,16.82,2.98-1.85,1.64-3.9.04-6.8,1.68Z"/><path class="cls-7" d="M432.99,608.24c-2.21,15.07-16.32,23.62-30.82,21.4,9.68-8.97,15.17-19.29,14.42-30.99,4.16-2.24,9.06-2.3,12.61,1.65,2.08,2.31,3.28,5.18,3.79,7.94Z"/><path class="cls-7" d="M599.07,597.74c-.87,8.7,2.5,16.97,7.1,23.53,2.17,3.1,4.82,4.86,7.09,8.56-13.85,1.67-27.72-6.57-30.05-20.29.37-4.66,2.44-9.74,7.31-11.74,2.91-1.19,5.91-.01,8.55-.06Z"/><path class="cls-6" d="M444.14,500.41c-8.04-7.88-14.12-17.02-19.19-26.95-5.82-11.42-8.48-23.68-8.57-36.01,1.65-1.46.67-4.04.55-6,.23-.94.05-1.57.19-1.9,1.4,1,3.29,2.07,3.72,4.3,2.98,15.56,7.55,30.61,15.12,44.54,2.24,4.13,12.06,19.43,8.18,22.02Z"/><path class="cls-5" d="M568.02,478.88c.2-3.34,4.05-5.15,5.7-7.07l1.97,8.71c3.85-9.49,9.58-17.62,16.24-25.89.16,15.56-14.18,41.02-25.55,52.08l1.64-27.83Z"/><path class="cls-7" d="M362.1,538.49c2.19,5.13,4.68,9.96,6.52,16.75-7.4-1.22-13.82-5.21-19.45-9.69-4.25-3.38-5.22-7.9-6.97-12.02.18-2.82,1.06-5.57,3.08-8.07,1.77-2.19,5.56-2.98,7.94-2.05,1.72.67,4.01,2.8,4.4,5.36.62,4.11,3.18,6.66,4.48,9.71Z"/><path class="cls-6" d="M446.79,434.48c-11.71-10.48-15.34-41.21-8.69-54.91,2.08.33,4.26-.69,4.98-3.15,2.55-3.34,3.56-7.24,7.06-10.23-2.75,9.93-5.29,18.8-6.53,28.73-2.36,15.83,3.2,26.56,3.18,39.56Z"/><path class="cls-7" d="M633.16,521.43c-.49,11.68-5.27,22.85-14.28,31.4-1.47-7.01-2.6-13.26-3.07-19.54-.23-3.19,1.08-7.11,1.57-10.56.63-4.45,3.95-7.64,8.25-7.58,3.39.04,5.62,3.23,7.52,6.29Z"/><path class="cls-7" d="M400.28,533.51c-.85,6.27-1.12,12.62-3.01,19.46-8.15-7.76-12.35-17.41-14.18-27.43.21-1.81.3-3.79,1.29-5.72,1.65-3.23,4.69-5.05,8.17-4.52,2.55.39,5.71,2.67,6.12,5.86l1.6,12.35Z"/><path class="cls-5" d="M729.38,303.14c10.92-3.25,22.45-5.97,32.11-13.32-4.17-1.64-7.96-1.17-11.38-3.08l35.91-3.01c-4.34,5.54-9.59,9.46-15.61,12.89-12.55,5.81-26.07,9.13-41.03,6.51Z"/><path class="cls-7" d="M674.14,532.57c-2.31,9.26-9.25,16.52-18.68,20.25-2.66,1.05-4.77,3.05-8.3,2.46l5.93-14.03c5.36-2.29,4.52-15.45,9.96-17.59,2.9-1.14,6.24-.69,8.19,1.65,1.84,2.2,2.58,4.81,2.9,7.27Z"/><path class="cls-5" d="M255.09,290.01c9.18,6.8,20.39,9.68,31.27,13.3-20.75,2.81-41.55-3.24-55.65-19.19l33.53,2.62c-2.84,2.6-5.29.45-9.15,3.27Z"/><path class="cls-7" d="M536.11,292.96c7.96,9.16,16.57-4.47,18.23,1.8-8.19,8.45-23.26,8.46-30.92-1.44-3.78-4.88-4.82-10.68-5.07-17.37,6.16.88,12.34,2.09,18.26,5.36-2.67,4.16-3.31,8.42-.5,11.64Z"/><path class="cls-5" d="M353.15,445.83c-11.99,8.7-26.14,14.74-42.14,13.05,9.41-10.44,19.63-19.55,32.42-26.46-3,7.23-8.38,11.69-12.49,18,7.65-1.21,13.76-4.43,22.21-4.59Z"/><path class="cls-5" d="M297.13,341.23c8.28,4.34,16.63,4.14,26.77,4.93-15.89,6.92-35.82,3.86-48.99-9.63l34.52-1.02c-3.6,3.01-7.77,3.42-12.3,5.73Z"/><path class="cls-5" d="M362.1,538.49c-1.3-3.05-3.87-5.6-4.48-9.71-.39-2.57-2.68-4.69-4.4-5.36-2.38-.93-6.17-.15-7.94,2.05-2.02,2.5-2.89,5.25-3.08,8.07-2.44-5.74-2.95-12.35,1.02-18.27,2.67-3.99,7.52-5.71,12.23-3.79,7,2.86,9.72,10.56,7.47,17.73-1.02,3.24-1.52,6.4-.82,9.29Z"/><path class="cls-5" d="M400.28,533.51l-1.6-12.35c-.41-3.19-3.57-5.47-6.12-5.86-3.48-.53-6.52,1.29-8.17,4.52-.99,1.93-1.08,3.92-1.29,5.72-1.01-5.58-1.59-11.83,2.01-17.34,1.79-2.74,4.78-4.84,7.65-4.87,11.29-.09,14.8,16.29,10.92,26.64-.71,1.88-1.87,3.2-3.4,3.55Z"/><path class="cls-5" d="M633.16,521.43c-1.91-3.06-4.13-6.24-7.52-6.29-4.3-.06-7.63,3.14-8.25,7.58-.49,3.45-1.8,7.37-1.57,10.56-7.11-4.01-6.28-18.17-.63-25.95,3.09-4.26,9.37-5.14,13.18-2.32,6.07,4.51,5.04,10.76,4.8,16.41Z"/><path class="cls-5" d="M674.14,532.57c-.32-2.46-1.06-5.06-2.9-7.27-1.95-2.34-5.29-2.78-8.19-1.65-5.44,2.13-4.6,15.3-9.96,17.59,2.77-9.82-4.44-19.4,4.32-27.54,2.58-2.4,5.54-3.32,8.99-2.86,2.64.35,5.28,2.58,6.97,5.26,3.49,5.55,2.08,11.2.77,16.46Z"/><path class="cls-5" d="M274.93,316.27c9.02,4.66,18.42,3.39,28.5,4.51-19.71,5.99-35.96,5.85-52.08-9.17l33-.11-9.42,4.77Z"/><path class="cls-5" d="M692.14,345.73c9.9.09,19.31,0,28.42-4.53-4.67-2.39-9.22-2.99-13.92-6.14l35.69,1.41c-13.83,12.63-33.34,16.92-50.19,9.26Z"/><path class="cls-5" d="M724.35,323.65c-4.21-1.08-7.94-1.33-11.38-2.97,10.39-.8,19.95.2,29.44-4.35l-9.09-4.64,31.82-.1c-10.87,10.63-25.48,14.78-40.8,12.06Z"/><path class="cls-5" d="M599.07,597.74c-2.64.05-5.64-1.13-8.55.06-4.87,1.99-6.94,7.08-7.31,11.74-3.23-8.04-4.48-23.26,5.93-26.71,3.44-1.14,7.46-.35,9.56,1.65,4.77,4.56.78,9.15.37,13.26Z"/><path class="cls-5" d="M432.99,608.24c-.51-2.76-1.71-5.63-3.79-7.94-3.55-3.94-8.45-3.89-12.61-1.65-.94-4.11-2.34-8.14-.75-11.78s5.38-4.66,8.79-4.44c16.14,1.08,8.15,27.32,8.37,25.81Z"/><path class="cls-5" d="M343.1,567.37c-4.39-1.76-6.03-10.23-13.1-7.79-2.41.83-3.86,4.02-4.72,6.88-3.51-3.26-5.82-8.32-4.45-13.72s6.76-6.86,11.61-5.34c8.75,2.75,12.14,11.5,10.67,19.97Z"/><path class="cls-5" d="M690.93,566.45c-.15-2.65-1.88-5.39-3.87-6.27-6.41-2.83-8.7,3.32-13.72,8.06-1.12-7.52.6-15.64,7.8-19.7,4.31-2.44,11.28-2.7,13.75,2.14,2.78,5.46-.3,11.96-3.96,15.78Z"/><path class="cls-7" d="M690.93,566.45c-1.44,1.5-1.9,4.04-4.08,5.62-6.97,5.07-14.71,8.92-24.22,8.51,3.71-4.8,6.95-8.79,10.72-12.34,5.02-4.73,7.31-10.88,13.72-8.06,1.99.88,3.72,3.62,3.87,6.27Z"/><path class="cls-5" d="M664.98,373.79c8.98-.64,17.19-.46,25.65-4.72-4.6-2.6-9.62-2.63-13.53-6.63,11.14.23,21.16,1.48,32.41,3.21-12.23,11.2-29.42,13.64-44.52,8.13Z"/><path class="cls-7" d="M343.1,567.37l9.42,13.22c-9.55.17-24.33-5.99-27.24-14.12.86-2.86,2.31-6.05,4.72-6.88,7.07-2.44,8.71,6.03,13.1,7.79Z"/><path class="cls-5" d="M326.81,369.01c7.52,4.5,15.05,3.91,24.24,4.71-14.75,5.5-31.46,3-43.98-8.14,11.49-1.52,21.67-3.09,33.35-3.1-4.18,2.96-8.64,3.82-13.61,6.52Z"/><path class="cls-5" d="M636.32,347.12l33.26-11.29c6.94-2.36,13.43-4.55,20.78-6.09-6.55,6.33-14.44,10.33-22.98,13.8-9.94,2.57-19.63,4.86-31.06,3.58Z"/><path class="cls-6" d="M482.02,290.54c-1.51.69-4.22-.06-5.85-.1-.03-1.67-1.26-2.36-3.12-2.85-11.33-2.99-22.87-8.42-29.06-19.28,8.78,4.39,15.62,9.61,24.57,11.93,6.59,1.71,12.43,4.25,19.29,6.86-2.2,2.08-4.06,2.63-5.83,3.44Z"/><path class="cls-6" d="M461.24,300.27c.86,2.9,12.75.32,17.98,1.53-6.15,4.97-39.59,10.97-40.92-.62.27.1.62-.03.9.04,1,.24,2.02-.06,3.02-.05,6.25.06,12.86-1.27,19.03-.89Z"/><path class="cls-5" d="M374.74,345.64c-18.15,1.17-33.9-4.17-47.61-15.01,16.61,2.95,32.33,9.84,47.61,15.01Z"/><path class="cls-5" d="M672.39,396.07c-.83,2.87-2.8,4.14-4.77,4.41-2.43.33-4.99-.45-6.68-3.37,3.6-2.02,7.32-2.04,11.46-1.04Z"/><path class="cls-6" d="M355.34,397.27c.92,2.95-4.02,3.57-6.43,3.14-1.73-.3-3.87-1.8-4.71-4.55,3.47-.13,8.1-1.16,11.13,1.41Z"/><path class="cls-7" d="M539.87,286.19c1.29-.9,2.72.07,2.95.92.29,1.11.36,2.81-.75,3.61-.7.5-2.38.47-2.94-.54-.62-1.12-.57-3.06.74-3.98Z"/><path class="cls-5" d="M416.39,437.45c-.02-2.64-.72-4.49.55-6,.12,1.96,1.1,4.54-.55,6Z"/><path class="cls-5" d="M442.21,301.16c-1,0-2.01.29-3.02.05-.22-1.01.86-.8,1.51-.75.51.04,1.61-.18,1.51.7Z"/><path class="cls-5" d="M844.96,206.19c26.14-13.29,60.99-30.77,79.36-55.59-16.8,11.12-34.64,19.77-54.22,26.66,5.37-5.89,10.96-10.55,17.08-15.99,29.17-25.91,57.19-52.27,84.73-80.01-1.43,16.61-6.61,31.34-14.13,45.98-22.6,43.97-63.65,71.59-112.82,78.94Z"/><circle class="cls-5" cx="259.21" cy="253.95" r=".63"/><circle class="cls-5" cx="272.71" cy="358.95" r=".5"/><circle class="cls-5" cx="245.71" cy="229.95" r=".5"/><circle class="cls-5" cx="675.71" cy="361.95" r=".5"/><path class="cls-5" d="M705.42,458.66c-15.62,2.12-29.99-4.28-43.2-13.78l23.27,4.83c-4.18-6.34-9.14-10.78-12.22-17.65,12.57,7.18,22.59,15.85,32.15,26.6Z"/><circle class="cls-7" cx="306.71" cy="444.95" r=".5"/><path class="cls-5" d="M223.78,207.08c-10.84-7.28-20.32-16.44-30.35-25.9-17.28-16.28-32.64-33.39-49.14-50.61,3.35,13.76,11.42,23.5,17.88,35.02-35.21-24.13-62.2-68-53.44-112.45,23.28,47.87,62.85,82.2,104.97,112.82,8.34,13.73,17.92,25.37,28.83,37.48-11.11-3.63-19.54-10.29-29.44-16.2,1.98,7.77,7.22,12.02,10.69,19.84Z"/><path class="cls-2" d="M332.91,701.39c-8.55-3.18-16.25-10.23-17.91-19.49-4.94-27.46-25.01-34.3-46.91-47.98,10.77-2.84,21.8-4.06,33.21-2.77,17.92,2.03,29.67,17.53,26.98,35.4-.85,5.63-2.08,11.16-2.01,16.91-.02,6.65,3.38,11.45,6.64,17.93Z"/><path class="cls-4" d="M680.26,647.37c-2-6.02-2.26-11.61-3.31-18.11-.64-3.98,3.22-7.78,7.07-8.69,10.83-2.55,21.26-5.14,33.09-5.36-7.5,4.85-15.14,5.54-21.67,10.29-7.51,5.46-12.94,11.94-15.18,21.88Z"/><path class="cls-4" d="M336.63,623.16c7.22,3.2,2.83,13.94,1.23,22.94-6.44-22.04-18.92-21-33.27-30.13,11.61-.35,22.18,2.82,32.04,7.19Z"/><path class="cls-2" d="M705.99,668.03c-6.48,14.4-.88,25.09-21.97,33.4,12.52-17.43,4.41-24.6,4.55-42.9,1.06-14.31,11.49-24.97,25.79-27.11,11.85-1.77,23.66-.26,34.9,2.38-17.62,10.51-33.17,16.6-43.27,34.23Z"/><path class="cls-7" d="M656.99,698.66c4.38-8.54,5.6-16.49,6.5-26.24l1.16-12.48c6.25,12.58,6.03,29.22-7.67,38.72Z"/><path class="cls-7" d="M353.54,658.36c4.86,21.9-1.62,18.92,8.46,40.13-12.52-9.36-16.57-26.97-8.46-40.13Z"/><path class="cls-6" d="M445.3,345.86c-6.37,3.28-11.1,7.09-16.04,11.75,3.31-7.9,8.2-14.13,14.28-19.73,6.07-3.88,12.27-7.17,19.81-8.43-4.15,7.45-10.45,12.44-18.06,16.41Z"/><path class="cls-6" d="M480.98,248.73c-14.16,4.99-23.48-23.16-21.34-31.42,5.43,12.55,11.64,23.54,21.34,31.42Z"/><path class="cls-6" d="M530.06,249.88c8.78-.03,28.81,9.83,31.34,19.76l-31.34-19.76Z"/><circle class="cls-6" cx="464.71" cy="328.95" r=".5"/><circle class="cls-4" cx="564.71" cy="257.95" r=".5"/><circle class="cls-4" cx="503.71" cy="246.95" r=".5"/><circle class="cls-4" cx="872.71" cy="129.95" r=".5"/><circle class="cls-4" cx="902.71" cy="214.95" r=".5"/><path class="cls-4" d="M598.17,301.35c-3.63-.2-7.51.13-11.07-1.89-.86-.49-.45-2.29-.15-2.95.43-.94,1.61-2.06,3.28-2.16,4.34-.24,7.71,3.17,7.94,7Z"/></g><text class="cls-1" transform="translate(69.25 52.96)"><tspan class="cls-8" x="0" y="0">H</tspan><tspan class="cls-3" x=".79" y="0">i. </tspan></text></g></svg>