<?xml version="1.0" encoding="UTF-8"?><svg id="Layer_2" xmlns="http://www.w3.org/2000/svg" viewBox="0 0 835.47 777.5"><defs><style>.cls-1{fill:#fefefe;}.cls-2{fill:#2b296f;}</style></defs><g id="Layer_1-2"><g id="JTyU4j"><path d="M605.2,662.14c-61.67,40.39-123.44,77.94-187.34,115.36-63.67-37.27-125.95-75.16-187.45-115.22-42.39-14.05-84.67-25.87-127.75-37.25l-98.98-26.14,30.78-18.21c5.24-5.91,7.02-15.27,11.61-21.91,2.42-3.51,6.58-1.88,7.11-5.66.18-1.3-.31-2.24-2.04-2.59-16.86-3.45-33.22-4.2-51.13-4.52,13.01-35.13,18.69-66.18,34.19-99.59,37.93-20.76,78.94-33.79,121.64-43.81,11.09-21.52,23.44-41.4,40.42-59.31,22.47,8.32,41.81,22.56,60.64,37.71,2.56-5.8,2.16-11.52-.54-16.76-14.3-27.76-16.81-67.68-8.34-97.7l15.42-12.96c3.93-28.61,11.83-56.01,22.54-82.93,24.81-27.02,54.47-43.86,88.63-56.81-.99-5.92.13-10.32,2.27-15.52L417.01.7c.27-.66,1.22-.99,1.47-.39l28.05,67.57c5.37,12.95,10.66,25.11,14.62,38.6.58,1.96-1.35,6.09.48,7.58,34.06,13.02,62.56,29.13,87.93,56.06,10.76,26.77,18.8,54.17,22.77,82.72l15.34,13.3c8.6,29.84,5.69,70.86-8.63,98.55-2.71,5.23-2.94,11.15-.16,16.59,18.56-15.77,37.87-28.53,60.42-38.27,15.31,15.69,28.67,35.65,38.04,55.23,1.25,3.25,3.51,4.61,6.92,5.4,39.41,9.14,82.45,23.16,117.81,42.9,9.98,22.61,16.19,45.72,23.67,69.09l9.73,30.39c-17.23.47-33.9.59-50.61,4.29-1.71.38-2.16,1.44-2.1,2.82.17,4.08,4.41,1.82,7.09,5.68,4.47,6.43,6.22,15.47,11.35,21.5l31.03,18.5-105.4,27.68c-40.87,10.73-80.77,22.29-121.62,35.66ZM418,190.13l36.23-47.1c.92-4.18,1.04-8.16-.6-12.52l-27.55,25.83,13.58-49.07-21.11-51.82-21.98,51.29,12.56,48.38-27.48-24.38c-1.7,3.99-2.4,9.91.6,13.75l35.75,45.63ZM471.2,349.73c-6.76,4.3-15.14,6.47-22.63,10.09.14,2.48,2.71,1.84,4.37,2.13l22.06,3.92c10.48,1.86,21.46-2.89,27.23-12.02,4.15-6.57,6.42-13.41,7.99-21.52l-7.85,2.51c-.05-1.33-.54-2.64-2.01-3.04-.94-.26-1.93.59-4.02.32,1.39-1.99,4.01-3.15,6.6-4.4,16.26-7.85,31.32-16.56,47.14-26.03-.55,11.17-2.39,21.52-6.86,31.27-4.18,9.11-10.84,16.11-16.95,23.82-12.48,15.73-30.2,23.24-48.56,30.55-15.1,6.02-29.21,12.6-43.38,20.68-6.56,3.74-11.66,9.71-11.68,18.22l-.27,109.85c8.59-3.28,14.4-8.2,21.07-13.24,21.96-16.58,40.97-35.89,59.16-56.49l15.09-17.08,5.98-73.4c8.73-6.99,14.97-14.62,20.85-23.61l26.11-39.88c2.58-3.94,1.86-8.12,1.14-12.48-1.95-11.74-3.28-23.07-7.71-35.17-20.39,8.95-39.76,17.56-61.25,22.86l26.01-17c7.66-5.01,13.78-11.29,19.52-18.46,2-2.5,3.12-5.09,2.45-8.47-4.26-21.78-10.68-42.14-18.99-62.88-15.3-15.62-32.12-29.03-51.98-37.96-.54,4.52.72,7.6-.66,11.01-3.03-1.03-13.16-22.93-14.59-16.87l-2.58,10.91-42.95,56.15-.23,25.8c14.23,13.47,27.5,27.01,38.91,42.92,13.12-1.28,24.71-4.3,36.37-8.85,7.84-3.06,13.61-7.88,19.59-13.5,9.12-8.55,16.47-17.88,20-29.99.49,6.66,3.37,13.07,1.67,19.34-1.8,6.63-6.73,14.38-11.7,19.52-8.56,8.84-19.49,14.8-30.65,19.48-9.63,4.04-19.43,5.76-29.04,8.17-5.44,1.37-11.91.41-17.65,1.15l-28.18-38.45c-1.84.07-2.75,1.69-3.92,3.32-7.5,10.53-14.58,21.1-22.96,30.85-3.31,3.85-6.43,4.81-11.4,3.95-12.91-2.22-25.75-3.71-37.8-9.35-11.01-5.15-21.76-10.86-30.78-19.21-5.14-4.76-9.45-12.3-11.48-18.84-1.89-6.09.78-12.45.46-18.62,7.46,16.89,21.23,29.92,38.61,38.16-6.33-6.8-13.34-12.32-17.09-20.85-1.63-3.71-3.57-6.89-7.13-9.58,10.24-31.27,38.13-55.67,63.33-75.32-8.15-7.32-4.8-17.65-7.48-17.48-.7.05-1.97.99-2.49,1.97l-10.61,19.79c-.47-5.8.24-9.67-1.94-15.46-18.35,10.37-38.96,20.57-50.37,38.4-11.16,17.43-13.04,39.04-19.5,58.11-1.81,5.35-.78,9.64,3.13,13.54,26.26,26.16,64.22,40.44,100.88,42.62l20.36-15.14,3.05,89.92c1.12,3.09,3.32,5.63,5.17,8.79l15.49-23.91,42.14-15.06c1.35,3.61-5.96,4.38-4.68,9.54ZM317.4,365.66c-20.04-22.49-30.03-31.96-31.92-63.55,12.63,6.01,22.45,13.79,35.04,17.31-12.96-9.39-25.51-16.42-37.29-26.58-2.85,4.61-3.06,8.72-4.88,13.01-2.33-9.37-1.1-13.99-6-21.17,1.15-5.08,4.06-9.16,6.28-13.72-2.01-1.67-3.9-3.04-7.05-3.76-4.38,14.33-7.29,28.84-7.29,43.75l15,23.36c9.92,15.45,22,33.37,36.02,45.35l2.79,69.1,23.84,27.01c20.14,22.81,42.41,42.59,68.11,60.32l.1-112.36c0-7.31-3.3-12.64-9.65-15.77-27.52-17.16-57.19-22.71-83.11-42.29ZM331.05,325.37c-2.71-2.91-6.28-5.49-10.61-5.37,3.19,3.51,6.88,4.03,10.61,5.37ZM333,326.12c0-.28-.22-.5-.5-.5s-.5.22-.5.5.22.5.5.5.5-.22.5-.5ZM366.94,350.67c2.12-3.12-10.17-11.53-13.56-12.4-5.24-1.35-10.35-1.63-15.5-3.52-.72-.27-1.06,1.65-.84,1.91-3.59-2.27-8.61-1.45-11.76-4.22,1.91,7.02,3.49,12.95,6.7,19.17,5.49,10.62,17.06,15.59,29.08,14.28,9.17-1,17.59-3.34,27.14-5.49-7.17-3.79-14.88-5.31-21.26-9.72ZM336.17,493.52c-12.91-18.5-26.99-33.77-41.36-49.56l-8.53-6.59c2.93-25.64,2.16-50.79-.65-76.4l-10.65-14.44c2.6,18.18,3.52,35.17,3.73,53.08.77,13.48-.73,26.28-4.96,39.03-.5,2.78.3,5.1,2.62,6.73,17.8,18.51,37.28,35.07,59.8,48.14ZM547.16,382.62l-5.37,47.96.97,10.87-21.91,25.39-23.47,28.04c25.75-14.26,46.85-32.99,65.88-53.88-2.68-7.78-5.36-14.46-5.71-22.22-1.1-24.51.32-48.41,2.92-72.26-16.2,23.09-8.83,8.23-13.3,36.1ZM191.2,617.42c34.22-18.56,56.89-44.98,80.48-75.01-32.3-28.57-58.4-65.24-66.9-107.68-3.92-20.65.05-40.79,12.19-58.34-5-2.76-9.74-5.84-15.75-6.61-9.19,14.34-12.77,30.79-12.49,47.87.1,45.35,37.97,94.43,68.54,125.63-20.54,25.78-42.13,47.44-70.26,64.36,1.35,3.54,1.98,6.85,4.2,9.79ZM648.13,607.14c-28.94-17.33-48.47-37.79-69.51-63.86,22.84-22.83,45.02-51.38,58.04-80.98,13.3-28.08,15.75-65.49-2.14-92.3-5.81.55-10.41,3.08-15.9,6.29,11.71,16.82,15.89,36.73,12.43,57.33-8.15,42.91-33.54,79.08-66.76,108.41,21.15,28.25,48.45,59.15,80.48,75.2,1.78-3.34,3.4-6.04,3.36-10.1ZM606.26,445.16c.47-19.12,2.18-13.66-12.23-25.87l6.71-25.79c-7.28,8.51-11.3,18.48-18.55,25.26,11.48,5.46,18.84,14.86,24.06,26.41ZM235.06,435.29c4.76-7.7,10.93-12.99,19.22-16.65-8.37-5.34-12.13-17.53-19.12-24.34l6.62,25.08c-13.31,11.29-12.66,6.08-12.31,24.95l5.58-9.04ZM651.13,584.44c1.02,1.87,2.44,3.54,5.12,4.55,40.45-35.07,99.54-58.88,153.08-63.06-3.69-2.95-5.44-5.32-6.36-9.3-4.54-19.68-10.2-38.43-17.73-57.2-29.88-15.73-62.72-26.16-96.29-32.15,1.33,11,2.86,21.14.15,31.72-5.02-13.96-7.96-27.69-15.28-40.45-1.72-3.01-2-7.27-6.18-8.44.34,12.18-1.65,23.66-4.57,35.56-6.7,27.26-18.91,51.75-35.9,73.99-5.91,7.74-11.64,14.64-19.25,21.34l32.63,34.05c3.32,3.46,6.53,6.54,10.6,9.39ZM161.99,419.56c-7.3,11.1-9.32,24.76-14.8,38.63-2.82-9.75-1.83-20.08-.28-30.9-33.73,6.25-65.79,16.29-95.85,32.32-7.4,17.66-15.53,41.68-16.56,60.49-2.05,2.28-4.56,3.09-6.7,6.09,52.75,4.69,111.81,28.01,152.15,62.74,2.26.84,3.59-3.6,4.86-4.57,1.88-1.22,3.75-2.44,5.65-4.38l37.88-38.75c-33.97-31.37-60.07-83.66-60.21-130.9-3.76,1.77-5.54,5.11-6.13,9.23ZM523.99,587.62c-17.63,13.03-80.47,41.04-103.95,46.31.17-1.78,1.01-1.69,2.77-2.43,38.83-16.31,77.11-33.52,110.34-59.98-13.86,3.17-26.47,4.15-40.15,3.78l-23.04-.63c-1.01-.18-1.75-.5-1.78-1.18l14.77-7.14c46.56-22.51,86.2-43.42,108.44-94.58-.6-7.16-16.51-21.99-18.8-13.12-1.04,4.04,6.71,7.53,7.93,13.04-22.18,41.1-57.3,62.34-98.71,82.03-3.74-6.99,9.65-21.47,11.27-30.7-16.38,13.43-32.12,25.13-49.54,36.4,12.32,1.19,22.94-1.57,34.42-4.83l-18.05,8.78-40.71,13.74c-38.5-9.8-75.61-25.53-109.34-47.27-23.25-14.99-42.14-34.45-54.82-58.63l8.3-10.18c1.36-1.67-1.9-6.09-4.15-5.18-4.94,2-8.77,6.05-12.19,9.66-3.11,3.29-2.49,6.62-.83,10.21,18.13,39.13,49.62,62.88,87.96,81,25.61,12.24,51.98,20.71,80.17,28.34l2.57,49.16c-34.56-10.88-66.51-25.31-97.04-43.42-13.72-8.23-26.09-16.56-38.84-26.46l-10.27,13.25c35.42,26.28,74.02,45.9,115.55,59.67l29.29,9.02,2.98,77.37c51.56-22.53,99.92-58.36,135.26-100.12-1.69,10.26-4.32,19.62-7.88,29.14-2.18,5.81-6.36,9.88-9.96,15.06,21.25-9.42,40.46-20.62,59.24-34.01,3.86-21.97,3.86-21.22-11.63-36.68-10.18-10.16-19.91-20.86-28.51-32.37l-31.08,22.97ZM507.01,524.64c6.6-3.79,12.06-8.39,17.9-13.09,4.31-3.85,7.51-8.57,7.56-14.49-4.02,1.28-7.12,3.91-9.96,6.97l-15.49,20.6ZM327.93,524.32l-14.23-18.41c-2.67-3.46-6.14-6.2-10.55-7.41,2.58,7.97,7.98,13.78,14.35,18.57,3.73,2.43,6.57,5.34,10.43,7.26ZM105.04,592.89c-7.52-3.65-13.86-7.82-19.22-14.84,12.28,1.13,23.22,5.48,35.17,9.81-4.25-6.87-9.64-11.92-16.35-15.87-9-5.1-17.98-9.58-28.48-11.77-4.55,13.69-13.7,23.22-24.64,32.12l84.79,20.84,19.09,4.14-50.36-24.43ZM729.89,593.19l-47.78,23.51,102.63-24.48c-11.99-9.14-20.44-18.91-25.17-32.12-7.65,1.15-13.15,3.95-19.22,6.71-10.22,4.7-19.65,10.86-25.53,20.85,12.15-4.23,23.34-8.55,35.43-10.74-5.24,7.76-12.13,12.22-20.35,16.27ZM285.41,654.69c-12.55-8.72-27.25-15.6-34.4-28.15l-7.25-12.71c-1.28-2.24-5.22,1.5-5.06,3.74.4,5.77,1.25,10.77,3.14,16.31,21.26,14.51,43.03,27.29,67.29,36.77l-23.72-15.97ZM370.67,659.99l-36.08-21.33c12.03,19.54,28.03,34.87,45.11,47.86-5.12-9-7.48-17.04-9.03-26.53ZM311,671.12c0-.28-.22-.5-.5-.5s-.5.22-.5.5.22.5.5.5.5-.22.5-.5Z"/><path class="cls-2" d="M418.17,249.59l.13,19.91,23.74,27.3c10.93-.45,20.98-2.15,31.07-4.52l-7.36-2.37c-1.32-.74-2.02-1.87-1.75-3.03,9.6-2.41,19.41-4.12,29.04-8.17,11.16-4.68,22.09-10.65,30.65-19.48,4.97-5.14,9.9-12.88,11.7-19.52,1.7-6.27-1.18-12.69-1.67-19.34-3.53,12.11-10.88,21.44-20,29.99-5.99,5.62-11.76,10.43-19.59,13.5-11.65,4.55-23.24,7.57-36.37,8.85-11.41-15.91-24.68-29.46-38.91-42.92l.23-25.8,42.95-56.15,2.58-10.91c1.43-6.06,11.57,15.84,14.59,16.87,1.37-3.41.12-6.49.66-11.01,19.86,8.93,36.68,22.34,51.98,37.96,8.31,20.74,14.73,41.1,18.99,62.88.66,3.39-.46,5.97-2.45,8.47-5.74,7.17-11.86,13.45-19.52,18.46l-26.01,17c21.48-5.29,40.85-13.91,61.25-22.86,4.43,12.11,5.76,23.43,7.71,35.17.72,4.35,1.44,8.54-1.14,12.48l-26.11,39.88c-5.89,8.99-12.12,16.63-20.85,23.61l-5.98,73.4-15.09,17.08c-18.19,20.6-37.2,39.91-59.16,56.49-6.67,5.04-12.48,9.96-21.07,13.24l.27-109.85c.02-8.5,5.11-14.47,11.68-18.22,14.17-8.08,28.28-14.67,43.38-20.68,18.36-7.31,36.08-14.82,48.56-30.55,6.11-7.7,12.77-14.7,16.95-23.82,4.47-9.76,6.31-20.1,6.86-31.27-15.82,9.47-30.88,18.19-47.14,26.03-2.59,1.25-5.2,2.41-6.6,4.4,2.09.28,3.08-.58,4.02-.32,1.46.4,1.96,1.71,2.01,3.04-10.38,3.32-20.33,9.84-31.17,14.89-1.28-5.16,6.03-5.93,4.68-9.54l-42.14,15.06-15.49,23.91c-1.85-3.17-4.05-5.7-5.17-8.79l-3.05-89.92-20.36,15.14c-36.66-2.17-74.62-16.46-100.88-42.62-3.91-3.89-4.94-8.19-3.13-13.54,6.46-19.07,8.34-40.67,19.5-58.11,11.41-17.83,32.02-28.03,50.37-38.4,2.19,5.79,1.47,9.66,1.94,15.46l10.61-19.79c.52-.97,1.79-1.92,2.49-1.97,2.67-.17-.68,10.16,7.48,17.48-25.2,19.65-53.1,44.04-63.33,75.32,3.56,2.7,5.5,5.88,7.13,9.58,3.75,8.53,10.76,14.05,17.09,20.85-17.38-8.25-31.14-21.28-38.61-38.16.31,6.17-2.36,12.53-.46,18.62,2.03,6.54,6.34,14.09,11.48,18.84,9.02,8.35,19.77,14.06,30.78,19.21,12.05,5.64,24.9,7.13,37.8,9.35,4.96.85,8.09-.1,11.4-3.95,8.38-9.75,15.46-20.32,22.96-30.85,1.16-1.63,2.07-3.25,3.92-3.32ZM520.49,214.33c-.71-7.89,1.25-17.57-2.97-24.63-10.37-17.34-28.69-27.76-46.97-34.45-4.1,3.02-7.17,4.05-10.46,5.75,25.27,11.78,45.08,30.69,60.4,53.33ZM557.49,305.72c.43-6.45.31-12.64-1.25-19.14-7.62,4.5-1.86,11.2,1.25,19.14ZM505.8,450.25l2.18-59.79c-6.36,2.41-11.88,5.07-17.63,8.6l-.59,68.88c6.09-5.86,11.31-11.07,16.04-17.69ZM477.93,468.7c.52-21.74.37-42.68-.46-64.23l-16.21,8.28,1.23,79.24c12.53-9.35,15.11-9.33,15.44-23.29ZM449.89,503.34l-.82-84.87c-5.31,1.89-9.75,3.91-15.07,6.45l.1,89.87c6.07-4,10.93-7.11,15.79-11.46Z"/><path class="cls-2" d="M651.13,584.44c.55-1.17,2.35-1.32,3.44-2.52.73-.8.08-3.54-.69-4.3,7.82-7.32,17.04-12.66,26.53-18.64,29.65-18.7,67.56-36.11,101.78-42.02-16.26-1.36-31.25,1.53-47.19,3.75-23.64,3.29-47.23,4.61-70.5-.2,2.4-11.59,4.63-21.22,5.15-31.88l-22.3,38.31c-4.83,8.31-12.73,14.23-22.24,15.48-2.48.32-4.26-1.41-4.11-3.29,31.82-33.94,49.91-73.89,52.82-120.58,7.32,12.75,10.26,26.49,15.28,40.45,2.71-10.58,1.17-20.71-.15-31.72,33.56,5.99,66.41,16.41,96.29,32.15,7.53,18.77,13.19,37.53,17.73,57.2.92,3.98,2.68,6.35,6.36,9.3-53.54,4.18-112.63,27.99-153.08,63.06-2.67-1.01-4.1-2.68-5.12-4.55Z"/><path class="cls-2" d="M317.4,365.66c25.92,19.58,55.59,25.14,83.11,42.29,6.35,3.13,9.66,8.46,9.65,15.77l-.1,112.36c-25.7-17.73-47.98-37.51-68.11-60.32l-23.84-27.01-2.79-69.1c-14.02-11.98-26.1-29.9-36.02-45.35l-15-23.36c0-14.91,2.92-29.42,7.29-43.75,3.15.72,5.04,2.09,7.05,3.76-2.22,4.56-5.12,8.64-6.28,13.72,4.9,7.18,3.66,11.79,6,21.17,1.82-4.29,2.03-8.4,4.88-13.01,11.78,10.16,24.33,17.2,37.29,26.58-12.6-3.52-22.42-11.3-35.04-17.31,1.89,31.59,11.89,41.07,31.92,63.55ZM345.84,467.06l-.36-68.73c-5.52-3.76-11.28-6.19-17.57-8.76l1.61,60.58c5.84,5.79,10.18,12.29,16.32,16.92ZM372.73,491.4l1.45-79.48c-5.49-2.93-10.2-5.71-16.06-7.6l-.57,58.29c-.18,18.91,1.1,17.16,15.18,28.79ZM401.26,514.14l.21-89.6c-5.08-2.71-9.92-4.6-15.14-6.41l-1.05,84.97c5.86,3.6,10.15,8.45,15.97,11.05Z"/><path class="cls-2" d="M214.18,539.33c-.34,1.71-1.75,3.57-4.03,3.11-10.02-2.03-17.55-8.05-22.3-16.77-9.92-18.19-18.15-36.42-26.46-55.29-.87,13.97,1.78,26.05,4.58,39.29-16.74-10.77-26.52-22.82-39.94-35.62-12.8-.64-25.23.32-37.37-3.15-4.79-1.78-7.02-7.7-11.68-10.17-5.81,2.54-11.49,5.51-16.84,8.81l-13.05,31.2c-1.91,4.57-3.51,8.99-4.84,13.66,48.58,7.62,101.57,33.49,139.71,63.27-.83.8-1.83,2.9-.98,4.05,1.06,1.43,2.85,1.66,3.82,2.66-1.27.97-2.6,5.41-4.86,4.57-40.34-34.74-99.4-58.05-152.15-62.74,2.14-3,4.65-3.81,6.7-6.09,1.03-18.81,9.16-42.83,16.56-60.49,30.06-16.04,62.12-26.08,95.85-32.32-1.56,10.82-2.54,21.15.28,30.9,5.48-13.87,7.5-27.53,14.8-38.63,3.74,48.71,20.51,83.34,52.19,119.77Z"/><path class="cls-2" d="M418,190.13l-35.75-45.63c-3.01-3.84-2.31-9.76-.6-13.75l27.48,24.38-12.56-48.38,21.98-51.29,21.11,51.82-13.58,49.07,27.55-25.83c1.64,4.36,1.52,8.34.6,12.52l-36.23,47.1Z"/><path class="cls-1" d="M648.13,607.14c.04,4.06-1.58,6.76-3.36,10.1-32.03-16.06-59.33-46.95-80.48-75.2,33.22-29.33,58.61-65.5,66.76-108.41,3.47-20.6-.71-40.52-12.43-57.33,5.49-3.21,10.09-5.74,15.9-6.29,17.89,26.8,15.45,64.22,2.14,92.3-13.02,29.6-35.2,58.15-58.04,80.98,21.04,26.07,40.57,46.52,69.51,63.86Z"/><path class="cls-1" d="M191.2,617.42c-2.22-2.93-2.85-6.24-4.2-9.79,28.12-16.92,49.72-38.57,70.26-64.36-30.57-31.2-68.44-80.28-68.54-125.63-.27-17.08,3.3-33.53,12.49-47.87,6.01.77,10.75,3.86,15.75,6.61-12.14,17.55-16.11,37.69-12.19,58.34,8.5,42.44,34.6,79.12,66.9,107.68-23.59,30.03-46.26,56.45-80.48,75.01Z"/><path class="cls-2" d="M482.95,566.33c-2.46-2.47-22.13-.61-23.03-2.98l18.05-8.78c-11.49,3.26-22.1,6.01-34.42,4.83,17.42-11.27,33.17-22.97,49.54-36.4-1.62,9.23-15.01,23.71-11.27,30.7,41.41-19.7,76.53-40.93,98.71-82.03-1.22-5.51-8.97-9-7.93-13.04,2.29-8.87,18.2,5.96,18.8,13.12-22.24,51.16-61.89,72.07-108.44,94.58Z"/><path class="cls-1" d="M523.99,587.62l16.03,7.65c-34.44,23.89-67.87,38.63-106.88,52.65-2.71,10.76-3.84,21.21-4.55,31.64-8.25-10.48-9.66-34.21-8.55-45.63,23.48-5.27,86.32-33.28,103.95-46.31Z"/><path class="cls-2" d="M105.04,592.89l50.36,24.43-19.09-4.14-84.79-20.84c10.94-8.91,20.08-18.44,24.64-32.12,10.5,2.19,19.48,6.68,28.48,11.77,6.71,3.95,12.1,8.99,16.35,15.87-11.96-4.34-22.9-8.68-35.17-9.81,5.36,7.02,11.7,11.19,19.22,14.84Z"/><path class="cls-1" d="M184.8,584.36c-.97-1-2.77-1.23-3.82-2.66-.85-1.15.15-3.25.98-4.05,11.97-11.57,22.44-24.69,34.02-37.18.32-.35-1.78-1.52-1.79-1.15-31.69-36.44-48.45-71.06-52.19-119.77.59-4.12,2.37-7.46,6.13-9.23.14,47.25,26.24,99.54,60.21,130.9l-37.88,38.75c-1.9,1.95-3.77,3.16-5.65,4.38Z"/><path class="cls-1" d="M673.82,418.54c-2.91,46.7-21,86.64-52.82,120.58-.17-.08-1.99.52-.8,1.82,8.49,9.33,24.74,27.81,33.69,36.67.77.76,1.42,3.5.69,4.3-1.1,1.21-2.9,1.35-3.44,2.52-4.07-2.85-7.28-5.93-10.6-9.39l-32.63-34.05c7.61-6.7,13.35-13.6,19.25-21.34,16.99-22.25,29.2-46.73,35.9-73.99,2.92-11.9,4.91-23.38,4.57-35.56,4.18,1.17,4.46,5.43,6.18,8.44Z"/><path class="cls-2" d="M520.85,466.83c-.2,1.15,1.06.96,1.3-.09l30.8-24.02c-5.15-17.3-5.19-39.24-4.9-57.16.02-1.27.07-2.72-.89-2.95,4.47-27.86-2.9-13.01,13.3-36.1-2.6,23.85-4.02,47.75-2.92,72.26.35,7.76,3.03,14.44,5.71,22.22-19.02,20.89-40.13,39.62-65.88,53.88l23.47-28.04Z"/><path class="cls-1" d="M471.2,349.73c10.84-5.05,20.79-11.57,31.17-14.89l7.85-2.51c-1.57,8.11-3.83,14.95-7.99,21.52-5.77,9.13-16.75,13.88-27.23,12.02l-22.06-3.92c-1.66-.29-4.23.35-4.37-2.13,7.49-3.62,15.86-5.79,22.63-10.09Z"/><path class="cls-1" d="M337.04,336.66c9.06,5.73,19.34,9.43,29.91,14.01,6.37,4.41,14.08,5.93,21.26,9.72-9.55,2.15-17.97,4.49-27.14,5.49-12.02,1.32-23.6-3.66-29.08-14.28-3.21-6.22-4.79-12.15-6.7-19.17,3.15,2.78,8.17,1.96,11.76,4.22Z"/><path class="cls-1" d="M459.92,563.35c.91,2.37,20.57.51,23.03,2.98l-14.77,7.14-40.65,12.31-2.29,30.33c-6.87-16.06-5.17-23.4-6.02-39.02l40.71-13.74Z"/><path class="cls-1" d="M464,286.88c-.27,1.16.43,2.29,1.75,3.03l7.36,2.37c-10.09,2.37-20.14,4.07-31.07,4.52l-23.74-27.3-.13-19.91,28.18,38.45c5.74-.75,12.2.21,17.65-1.15Z"/><path class="cls-2" d="M285.41,654.69l23.72,15.97c-24.26-9.48-46.03-22.27-67.29-36.77-1.89-5.55-2.74-10.54-3.14-16.31-.16-2.24,3.78-5.98,5.06-3.74l7.25,12.71c7.15,12.54,21.85,19.43,34.4,28.15Z"/><path class="cls-1" d="M520.85,466.83l21.91-25.39-.97-10.87,5.37-47.96c.96.23.91,1.68.89,2.95-.28,17.92-.25,39.86,4.9,57.16l-30.8,24.02c-.24,1.05-1.51,1.24-1.3.09Z"/><path class="cls-2" d="M606.26,445.16c-5.22-11.55-12.58-20.95-24.06-26.41,7.25-6.78,11.27-16.75,18.55-25.26l-6.71,25.79c14.41,12.22,12.7,6.75,12.23,25.87Z"/><path class="cls-2" d="M235.06,435.29l-5.58,9.04c-.35-18.87-1-13.66,12.31-24.95l-6.62-25.08c6.99,6.81,10.75,19,19.12,24.34-8.29,3.66-14.46,8.96-19.22,16.65Z"/><path class="cls-2" d="M507.01,524.64l15.49-20.6c2.85-3.06,5.94-5.69,9.96-6.97-.05,5.92-3.25,10.64-7.56,14.49-5.83,4.7-11.29,9.3-17.9,13.09Z"/><path class="cls-2" d="M366.94,350.67c-10.56-4.58-20.84-8.29-29.91-14.01-.22-.27.12-2.18.84-1.91,5.15,1.89,10.27,2.17,15.5,3.52,3.39.87,15.68,9.28,13.56,12.4Z"/><path class="cls-2" d="M327.93,524.32c-3.86-1.92-6.7-4.82-10.43-7.26-6.37-4.79-11.77-10.6-14.35-18.57,4.41,1.21,7.88,3.95,10.55,7.41l14.23,18.41Z"/><path class="cls-2" d="M331.05,325.37c-3.73-1.34-7.42-1.86-10.61-5.37,4.33-.12,7.9,2.46,10.61,5.37Z"/><path class="cls-2" d="M336.17,493.52c-22.52-13.07-42-29.64-59.8-48.14-2.32-1.63-3.12-3.95-2.62-6.73,4.23-12.75,5.73-25.55,4.96-39.03-.21-17.91-1.13-34.91-3.73-53.08l10.65,14.44c2.81,25.61,3.58,50.76.65,76.4l8.53,6.59c14.37,15.8,28.45,31.06,41.36,49.56Z"/><path class="cls-2" d="M729.89,593.19c8.23-4.05,15.11-8.51,20.35-16.27-12.09,2.19-23.28,6.51-35.43,10.74,5.88-9.99,15.31-16.15,25.53-20.85,6.07-2.76,11.57-5.55,19.22-6.71,4.73,13.21,13.18,22.98,25.17,32.12l-102.63,24.48,47.78-23.51Z"/><circle class="cls-2" cx="332.5" cy="326.12" r=".5"/><path class="cls-2" d="M419.21,577.09c.85,15.63-.85,22.96,6.02,39.02l2.29-30.33,40.65-12.31c.03.69.78,1.01,1.78,1.18l23.04.63c13.67.37,26.28-.61,40.15-3.78-33.22,26.46-71.51,43.68-110.34,59.98-1.76.74-2.6.65-2.77,2.43-1.11,11.42.3,35.15,8.55,45.63.71-10.42,1.84-20.88,4.55-31.64,39.01-14.02,72.44-28.75,106.88-52.65l-16.03-7.65,31.08-22.97c8.6,11.51,18.33,22.21,28.51,32.37,15.49,15.46,15.49,14.71,11.63,36.68-18.77,13.39-37.99,24.59-59.24,34.01,3.6-5.17,7.78-9.24,9.96-15.06,3.56-9.52,6.2-18.88,7.88-29.14-35.33,41.76-83.7,77.59-135.26,100.12l-2.98-77.37-29.29-9.02c-41.53-13.77-80.13-33.39-115.55-59.67l10.27-13.25c12.75,9.9,25.11,18.23,38.84,26.46,30.53,18.11,62.48,32.54,97.04,43.42l-2.57-49.16c-28.18-7.64-54.56-16.11-80.17-28.34-38.34-18.12-69.83-41.86-87.96-81-1.66-3.59-2.28-6.92.83-10.21,3.42-3.61,7.25-7.66,12.19-9.66,2.25-.91,5.51,3.51,4.15,5.18l-8.3,10.18c12.68,24.17,31.57,43.64,54.82,58.63,33.72,21.74,70.84,37.47,109.34,47.27Z"/><circle class="cls-2" cx="310.5" cy="671.12" r=".5"/><path class="cls-2" d="M370.67,659.99c1.55,9.49,3.91,17.53,9.03,26.53-17.07-12.99-33.08-28.32-45.11-47.86l36.08,21.33Z"/><path d="M449.89,503.34c-4.86,4.35-9.72,7.46-15.79,11.46l-.1-89.87c5.32-2.54,9.75-4.56,15.07-6.45l.82,84.87Z"/><path d="M477.93,468.7c-.33,13.96-2.91,13.94-15.44,23.29l-1.23-79.24,16.21-8.28c.83,21.55.98,42.48.46,64.23Z"/><path d="M505.8,450.25c-4.73,6.62-9.95,11.83-16.04,17.69l.59-68.88c5.75-3.53,11.27-6.19,17.63-8.6l-2.18,59.79Z"/><path class="cls-1" d="M520.49,214.33c-15.32-22.64-35.12-41.55-60.4-53.33,3.29-1.7,6.36-2.73,10.46-5.75,18.29,6.69,36.6,17.11,46.97,34.45,4.22,7.06,2.26,16.74,2.97,24.63Z"/><path d="M557.49,305.72c-3.11-7.94-8.87-14.64-1.25-19.14,1.56,6.5,1.68,12.69,1.25,19.14Z"/><path d="M653.88,577.62c-8.94-8.87-25.19-27.34-33.69-36.67-1.19-1.3.64-1.9.8-1.82-.15,1.88,1.64,3.61,4.11,3.29,9.51-1.25,17.4-7.18,22.24-15.48l22.3-38.31c-.51,10.65-2.75,20.29-5.15,31.88,23.26,4.82,46.85,3.49,70.5.2,15.93-2.22,30.92-5.12,47.19-3.75-34.22,5.91-72.13,23.32-101.78,42.02-9.48,5.98-18.71,11.32-26.53,18.64Z"/><path d="M401.26,514.14c-5.82-2.6-10.11-7.45-15.97-11.05l1.05-84.97c5.22,1.81,10.06,3.7,15.14,6.41l-.21,89.6Z"/><path d="M372.73,491.4c-14.07-11.63-15.36-9.88-15.18-28.79l.57-58.29c5.87,1.89,10.57,4.67,16.06,7.6l-1.45,79.48Z"/><path d="M345.84,467.06c-6.14-4.63-10.49-11.13-16.32-16.92l-1.61-60.58c6.29,2.58,12.06,5.01,17.57,8.76l.36,68.73Z"/><path d="M214.18,539.33c.01-.38,2.11.8,1.79,1.15-11.59,12.49-22.05,25.61-34.02,37.18-38.14-29.78-91.13-55.65-139.71-63.27,1.33-4.67,2.93-9.09,4.84-13.66l13.05-31.2c5.35-3.3,11.03-6.27,16.84-8.81,4.66,2.47,6.89,8.39,11.68,10.17,12.14,3.48,24.57,2.52,37.37,3.15,13.42,12.8,23.2,24.85,39.94,35.62-2.8-13.23-5.45-25.32-4.58-39.29,8.31,18.87,16.54,37.1,26.46,55.29,4.76,8.72,12.29,14.75,22.3,16.77,2.28.46,3.69-1.4,4.03-3.11Z"/></g></g></svg>