<?xml version="1.0" encoding="UTF-8"?><svg id="Layer_2" xmlns="http://www.w3.org/2000/svg" viewBox="0 0 833.41 704.87"><defs><style>.cls-1{fill:#253d86;}.cls-2{fill:#b6cfe4;}.cls-3{fill:#cb2227;}.cls-4{fill:#fff;}</style></defs><g id="Layer_1-2"><g id="wKR4QY.tif"><path class="cls-1" d="M831.77,460.86c-1.31-.07-1.83-2.93-1.04-4,.26,1.2.71,2.77,1.04,4Z"/><path class="cls-1" d="M599.82,94.23c0-.25.14-.7.19-.95.77-.13,1.41-.16,1.6.11,13.51,19.56,20.87,48.69,12.63,71.51.29-1.15.46-.84.51.93l3.12.32c10.2-1.71,19.9-5.75,29.08-12.14,4.1,17.73,2.81,38.71-10.59,52.27-.02.14.93,1.92,1.21,2.26,1.62,1.98,22.49,7.65,26.85,8.51,8.49,1.69,17.13,2.34,25.8,2.2.11.02.05.88-.14,1.97-2.27,13.26-16.58,21.52-26.86,27.44-.55.32-1.97,1.2-1.55,1.68,3.9,4.48,25.89,14.29,32.35,16.96,9.19,3.79,18.81,6.04,28.5,8.21.77.35,1.32.72,1.28.81-6.21,11.95-20.98,19.12-32.51,24.57-.09,1.01.23,1.78.97,2.3,31.53,19.05,60.14,42.84,86.59,67.71l.97.99c24.89,27.62,47.14,58.17,52.54,96.27l-38.91-10.85-3.09.78c5.56,23.84-5.41,43.88-22.9,59.37-4.75,4.2-27.5,20.8-32.34,21.09-.31.02-.64-.39-.94-.95-.41-.76,1.46-15.43,1.94-17.03.05-.16-.06,2.79-1.43.39l-.91-.14c-13.07,12.84-26.84,25.03-41.56,35.97-37.71,28.05-79.45,51.54-120.83,74.25-1.87-2-1.6-4.86.81-8.59l.56-2.63c-1.13.13-2.51.54-3.8.93-50.91,29.7-102.16,57.42-153.77,83.16-52.99-26.56-106.07-53.48-157.55-83.2,1.05,1.18.76,1.38-.89.59.81,3.26,1.23,6.39,1.27,9.39-52.15-28.41-103.99-59.11-149.92-96.81-.26-.24-.68-.81-.97-1-6.36-7.05-13.21-13.54-20.55-19.47-1.45-.94-1.45,2.7-1.08,5.05.34,2.18.81,3.98,2.3,5.7.05.18-.03.6.03.77.54,2.69.07,4.42-1.39,5.19-29.78-15.35-50.42-37.5-43.07-72.91-.85-.9-.59-1.48.67-1.77-14.29,3.54-28.43,7.68-42.43,12.43.61-15.87,6.66-31.91,13.99-46,26.19-50.4,76.44-88.02,123.34-117.83,3.27-1.93,3.57-3.48.89-4.67-11.55-5.42-22.52-13.07-29.2-24.28,10.53.89,65.85-20.16,65.32-24.93-.03-.27.26-.58.65-.9-13.28-6.75-25.9-15.68-30.59-30.76,17.19-.44,34.2-3.89,50.02-10.59.34-2.17.88-2.57,1.66-.8-10.49-16.43-14.09-35.98-9.04-55.57,11.07,6.08,22.79,12.51,35.56,13.43.45-.19,1.31-.57,1.74-.79-7.89-18.45-6.6-37.97.7-57.18,3.31-8.7,14.01-28.75,21.05-34.01.22-.16.69.08,1.15.52,1.66,10.92,5.94,20.05,12.83,27.38,12.11-26.56,33.46-49.37,60.32-61.52,2.76-1.25,14.57-6.39,15.22-4.77l-1.28,15.37,1.19,2.27.03.91c.22.31.45.58.73.66,1.21.37,19.46-12.22,20.35-14.82-1.7-9.4-3.2-18.86-4.49-28.39,23.64-.78,47.82,7.6,69.22,17.57.22.09.64.03,1,.03,2.02-2.95,2.72-6.73,2.09-11.35l-.23-13.34c.31-.8.7-1.37.88-1.3,25.87,10.9,48.52,28.51,67.92,48.37l.85-.16c2.04-8.32,4.38-16.54,7.01-24.66,32.06,18.88,64.05,56.61,76.37,91.68.54.22,1.05.48,1.4.87,1.86,2.07,19.31-18.77,19.54-24.06Z"/><path class="cls-1" d="M568.97,620.72c-21.75,14.93-44.85,27.63-68.78,40.09l-84.69,44.06-79.48-40.16c-27-13.64-52.31-27.94-78.98-43.6,1.34,5.99,4.99,8.77,6.98,14.68l-89.48-52.78c-18.29-10.79-51.09-35.04-66.43-49.16,2.5,1.16,5.06,2.57,7.58,4.63,29.08,23.86,60.04,44.03,92.5,63.13,16.62,9.78,32.26,19.44,49.88,28.25-2.51-1.84-2.53-11.12-.21-9.86l84.78,46.19,72.5,36.81,82.34-42.7c21.38-11.09,41.46-22.59,61.86-35.11,3.32-2.04,6.32-3.47,9.63-4.47Z"/><path class="cls-1" d="M224.23,164.96c-6.69,2.79-26.6-7.17-34.75-12.29-3.92,14.98-2.41,33.91,4.99,46.67,1.17,2.01,5.83,7.04,3.45,8.26-15.64,8.02-33.13,10.96-50.83,11.79,4.66,12.62,15.31,22.36,27.38,27.26,1.13.46,3.14,2.98,2.77,3.99s-2.22,1.96-3.6,2.74c-19.43,10.87-39.12,18.72-61.94,22.36,7.51,10.74,16.95,17.58,28.16,22.62.84.38,2.44,2,2.29,2.88s-1.48,2.83-2.92,3.7C85.64,337.28,9.24,398.23,2.11,467.17c14.37-4.98,27.48-9.58,42.77-12.83-9.57,36.59,12.17,59.28,41.38,74.69l1.58-4.11c.68,1.77,1.79,5.31,2.39,8.01-30.68-14.52-56.92-38.79-47.47-76.47-15.57,2.52-30.66,10.97-42.76,12.21,8.11-72.63,83.38-131.44,141.75-167.47-13.7-6.33-25.09-14.21-32.49-26.73,24.35-3.94,46.57-12.11,67.28-25.03-15.45-5.85-26.49-17.02-32.18-31.86,18.64-.03,36.13-4.52,53.02-10.79-12.66-14.49-13.9-40.04-9.44-57.08,11.44,8.2,23.84,11.8,36.29,15.25Z"/><path class="cls-1" d="M733.78,520.78c-15.23,17.17-32.98,31.27-52.31,44.72-37.58,26.16-76.57,48.6-117.57,70.6l8.86-16.32c1.43,3.04-1.97,6.33-1.29,10.12,35.12-18.54,67.52-38.17,99.94-59.38,22.91-14.99,42.41-32.38,62.37-49.74Z"/><path class="cls-1" d="M337.16,52.23c-5.03,2.7-.37-14.34-.88-17.27-32.78,9.84-59.25,34.29-72.84,64.62-4.17,9.31-15.55-21.63-15.4-25.65-14.11,15.68-22.66,33.75-26.02,54.42-3.9,23.97,7.35,34.14,3.96,35.81-4.53-6.66-5.85-14.52-6.03-22.96-.62-29.19,10.6-49.11,29.15-71.31,2.31,11.39,4.73,21.68,12.42,30.85,7.84-20,21.45-36.07,38.4-48.65,11.35-9.51,24.51-15.63,38.51-19.65-1,6.95-1.51,13.31-1.26,19.78Z"/><path class="cls-1" d="M423.01,28.15c-16.29-6.67-49.52-18.3-67.32-17.03-4.79,5.93,8.67,26.91,1.54,31.13-4.44,2.63-25.9,18.63-20.04,10.89,2.76-.74,21.08-12.76,20.53-15.41l-6.01-29.1c25.04,1.91,50.23,6.93,71.3,19.53Z"/><path class="cls-1" d="M830.73,456.86l1.04,4,1.64,8.54-42.07-11.92c9.04,41.74-26.92,67.48-59.42,83.87,1.38-7.81,2.82-13.92,2.77-20.42l2.12-1.02-1.48,17.43c31.49-15.4,64.32-42.85,53.25-81.82,15.27,2.94,28.75,7.09,42.9,11.6-4.9-27.87-17.38-52.33-34.76-73.99-5.94-7.41-12.3-13.68-16.91-21.25,23.43,23.93,43.83,51.6,50.91,85Z"/><path class="cls-1" d="M778.85,370.87c-3.6-1.51-5.8-4.07-9.03-7.25-23.1-22.64-51.1-43.08-78.2-59.66-.93-.57-1.51-2.4-1.08-2.88,3.84-4.27,23.11-8.85,31.89-24.4l-22.34-6.07c-6-1.63-35.97-15.92-39.01-20.19-.48-.67,1.5-2.52,2.53-2.91,11.81-4.52,21.99-14.59,25.57-27.27-19.52-.18-37.88-3.39-54.96-13.24,14.12-11.26,15.79-34.9,12.21-51.92-13.24,6.53-16.6,12.28-28.55,11.06,10.46-2.41,20.06-7.41,29.3-14.3,5.07,17.23,4.27,41.48-11.16,55.93l11.73,3.46c14.27,5.3,28.9,7.8,44.54,6.88-4.39,14.93-15.32,26.02-30.26,31.85,20.47,12.14,40.68,21.86,63.85,24.88-8.21,12.91-19.96,21.44-34.65,26.39l21.24,14.29c24.22,16.3,46.25,34.77,66.39,55.34Z"/><path class="cls-1" d="M599.82,94.23c-.26,7.17-13.24,22.79-21.01,26.17-8.45-34.01-46.07-75.07-76.19-93.35-5.59,10.47-2.71,30.64-10.75,22.09-18.15-19.3-39.8-35.04-64.84-45.69l-.03,22.72c0,.5-.45,2.78-.9,2.64l-2.09-.64c1.91-8.69,1.06-17.99.54-28.18,26.64,12.13,50,28.12,70.53,50.32l6.65-26.33c30.5,20.01,68.39,58.9,78.31,94.35,8.83-6.58,14.54-15.15,19.79-24.11Z"/><path class="cls-1" d="M614.76,165.83c-.43-.04-1.67-.16-1.53-.57l.72-2.06c7.36-21.11-.64-53.87-13.93-69.91.14-.68,1.14-2.87,1.85-1.71,12.28,19.79,23.2,50.55,12.89,74.26Z"/><path class="cls-1" d="M107.14,532.86c-10.91-7.25-10.41-12.58-21.03-19.22.3,3.53,1.1,8.12,1.69,10.5-4.04-1.21-4.05-7.54-2.77-11.69,2.31-1.31,22.73,19.25,22.1,20.41Z"/><path class="cls-4" d="M463.9,47.3l.97,1.03c3.23,2.06,6.12,4.66,8.08,7.99.22.27.74.76,1.02.97,11.59,10.74,19.09,24.7,26.23,38.57,2.31,1.41,1.99,3.65,1.16,6.16,1.04.81,1.66.84,1.84.1-3-2.36-1.41-5.76,1.64-7.25l5.15,5.26,1.97-1.03c-1.21-14.1-1.63-28.18-1.26-42.23,22.6,16.76,49.58,49.42,52.84,78.4.49,4.34,1.07,12.13-2.4,14.86-.17.14,2.15-3.86,2.95-1.26.44-.19,1.4-.39,1.82-.61,8.3-4.87,16.35-10.19,24.14-15.94l5.29-5.36c2.8,2.76,3.32,9.02,3.41,13.25.31,14.21-5.3,28.47-16.17,37.79-.65,1.09-.44,2.05.78,2.58,11.09,4.82,32.69,1.68,44.29-2.04l.85.85c0,.29-.02.62.06.83-3.9,15.54-18.66,26.13-33.81,29.52-1.37.52-1.72,1.32-.56,1.9,19.08,9.51,42.16,14.85,62.99,19.1-7.1,8.68-18.12,12.34-28.77,14.22-.42.3-.39,1.53-.26,2.24.53,2.83,42.8,25.23,49.95,28.55,4.03,2.27,2.37,2.55-2.11,3.25-16.81-.55-33.54-2.24-50.2-5.09-2.26-.15-2.87.52-1.58,2.15,17.71,14.75,34.25,33.4,40.61,55.93v1l-1.43.21c-6.28-4.41-12.89-7.16-19.84-8.28-1.64-1.19-2.88-2.6-3.72-4.24l3.31-1.19,15.14,5.94c-5.68-11.97-18.46-18.05-29.95-23.29l11.27,16.35-.78,2.35c3.64,1.7,5.04,3.64,4.19,5.8,5.38,12.36,10.86,28.08,11.34,41.63.02.5-.29,1.01-.69,1.52l-.89.04c-1.64-5.19-34.87-36.97-36.67-34-.32.53-.14,1.35.17,2.27,12.49,24.65,16.34,54.93,5.56,80.79h-1c-4.36-6.5-9.02-12.75-13.98-18.76-3.38-1.97-4.69-1.87-3.95.3,1.21,25.53-6.18,53.01-22.79,72.53-2.5-9.98-4.85-20.01-7.05-30.09-2.14-8.18-4.16-10.24-6.06-6.16-1.76,6.53-3.6,13.06-5.89,19.42-1.83,5.09-12.08,32.95-15.86,35.78-.29.22-.83.11-1.44-.1-.82-.3-1.56-.84-1.61-1.69-.13-2.31-1.54-24.6-3.16-24.34-1.65,13.56-4.34,27.19-10.28,39.61-4.96,7.05-8.26,14.41-9.91,22.08,7.86-11.6,15.41-23.28,22.64-35.04l2.4.37c.02,1.11-.06,2.17-.51,3.04-7.78,15.07-17.26,29.47-28.03,42.6l-.87-2.35c.53-4.57.37-27.37-2.48-28.03-.36-.08-.83.48-1.22,1.28-7.58,24.12-20.54,49.31-38.61,67.27-.56.56-1.36.87-2.23,1.12l-1.15-2.04c5.71-7.06,11.23-14.26,16.55-21.59,2.64-7.26,2.12-15-1.57-23.24-4.82,12.05-11.65,25.62-24.01,30.96-2.72-2.47-4.77-5.75-6.17-9.82-4.33,10.43-27.4,51.72-34.08,53.17-.76.16-1.79-.97-2.91-2.47-14.75-19.1-30.52-37.4-47.09-54.9-2.75,10.39-8.64,6.76-14.34.64-6.56-7.06-10.89-15.16-14.85-23.86l-4,20.78,8.62,13.12-.93,2.27c-.82-.16-1.56-.4-2.05-.89-4.7-4.72-9.71-13.86-13.02-19.92-5.85-10.68-10.41-22.03-14.3-33.55-.92-1.89-2.06-1.23-2.21,1.14-.53,8.31-.48,16.66.47,24.94l-.9.09c-3.74-2.26-7.5-6.67-8.95-10.77,1.43-1.39,3.02-1.19,4.76.61-8-18.21-15.25-37.29-18.74-57.31-5.15,10.67-5.7,20.39-1.66,29.15,4.57,6.37,8.7,12.97,12.4,19.8l-1.53,1.76c-19.2-22.59-30.85-51.13-38.36-79.55-3.92-.32-9.54,30.53-9.53,35.6l-1.31,1h-1c-17.93-21.53-24.19-50.24-23.26-77.79-2.05.46-3.73,1.8-5.03,4.04l-12.74,18.86c-4.38-6.2-5.44-15.89-5.92-23.63-1.16-18.89,1.25-37.09,10.21-54.12.3-1.51-.41-1.92-1.98-1.37-4.82,3.52-9.53,7.19-14.13,11.02-1.83,1.96-3.84,3.77-5.31,6.01-1.24,2.26-2.84,3.96-4.81,5.08-.62.65-1.58,2.2-2,3l-5,5.99c-.48.14-1.47.02-2,0-.47-14.72,2.42-29.79,8.19-43.35-.92-1.6.08-2.77,2.99-3.52l-1.06-1.91,14.14-18.91c-8.3,4.22-16.58,9.18-23.53,15.47-4.57,4.14-11.19,12.1-.13,5.21,3.91-2.2,6.57-2.14,7.97.2l-1.03,1.49c-7.26,3.1-14.24,6.68-20.92,10.73,3.75-22.2,19.94-38.58,36.01-53.09.41-1.49-.3-2.19-1.95-2.21-15.33,3.29-30.47,4.16-45.44,2.59,8.77-5.41,17.78-10.58,27.03-15.51,11.87-6.72,23.23-13.9,34.08-21.55l-1.21-1.37c-11.06-2.07-22.86-6.34-30.91-14.1l.09-.89c19.98-4,39.9-10.92,58.08-18.6-9.76-4.95-19.11-9.94-25.79-19.24-2.63-3.66-5.01-7.66-5.4-12.25l.1-1.02c16.99,4.75,33.22,4.55,50.66,2.11.26-.06.79-.11,1.07-.11.25-2.13,1.8-1.41,2.92.02.56-.92.24-1.54-.83-1.92-1.33.8-1.9.32-2.74-.55-17.36-17.83-23.56-43.59-11.79-65.99,3.33,7.3,33.64,38.64,39.39,34.82.37-.25.59-.71.77-1.24-.3-.46-.61-1.53-.74-2.07-5.86-14.06-2.61-31.54,3.26-45.22,4.73-11,19.22-30.54,29.9-35.85.44-.22,1.07-.05,1.76.22.01.21.01.64-.03.84-.96,11.72.65,22.84,4.83,33.34,2,4.79,4.13,6.58,6.41,5.36.98-11.09,5.97-21.8,13.84-29.67.27-.19.71-.71.96-.92,1.26-2.05,14.78-14.04,15.74-13.63,1.79.76,7.83,24.4,8.65,28.62,2.83,4.92,6.89-7.05,8-10.57,4.85-15.42,2-30.87-2.81-45.94,25.88,2.68,49.66,15.86,68.79,33.09,3.02,1.92,3.88.31,2.57-4.84-1.98-8.34-3.67-16.74-5.05-25.17.05-.35.35-.62.74-.66,2.48-.25,18.22,11.65,20.16,15.07Z"/><path class="cls-4" d="M746.77,363.9c.28.23.74.79,1.02,1.05,6.07,4.88,12.06,9.9,16.96,16.02.26.25.77.76,1.06.98,8.64,9.21,17.56,19.15,23.62,30.26,2.07,3.79,7.81,14.59,7.58,18.17-.06.95-14.92-7.63-15.25-9.49-.74-3.49,1.81-3.3,7.65.58,2.85-2.19-20.33-18.37-22.33-19.65-2.84-1.83-37.49-20.81-36.54-17.57s17.57,18.33,22.54,19.58c9.43,2.81,18.01,6.92,25.74,12.32l-.06,2.75-1.02.49-17.39-8.52c-2.56-1.5-5.02-2.22-7.37-2.19,18.69,28.6,24.06,63.27-1.39,90.06-.24.22-.69.71-.83,1.01-.84,1.8-1.82,2.75-2.94,2.85l-.9-.09c1.49-19.08-5.11-37.37-16.49-52.51l.36-1.13,2.3-.88c5.68,5.59,9.63,12.51,11.83,20.78l2.67,2.67,4.02,20.55c13.44-14.99,15.35-31.02,1.14-46.22,1.24,9.36-.65,17.32-5.65,23.88l-2.18-.87-3.44-8.95c-2.27-33.82-22.5-61.42-52.71-76.16,10.22,13.13,21.19,28.08,23.18,45.07.34,2.92.91,10.73-.24,12.95-1.04,2.01-2.05,2.2-4.19,1.67l-10.39-7.56c9.5,43.72-20.47,77.13-50.9,104.25,2-.75,3.11-.58,3.62,1.75-2.46,2.77-13.79,9.71-16.65,8.84,8.08-13.27,15.08-27.17,16.9-43,1.99-8.29.91-11.89-3.25-10.81l-.9.97-10.42,13.83c-12.71,21.64-28.59,40.35-47.64,56.13-.69.59-2.21,1.54-3,2,2.05-5.83,4.71-11.51,7.98-17.05,2.33-2.19,12.15-28.48,9.55-27.61-1.14.38-2.19.81-2.98,1.76-4.72,6.46-9.57,12.76-14.55,18.92l-1.81,2c-2.07,3.79-4.81,7.13-8.22,10.03-3.31,2.57-6.31,5.67-8.98,8.91-12.84,12.28-26.83,24.36-42.95,32.01-.26-.05-.67-.02-1,0l-.85-.79c12.54-23.14,24.69-46.5,36.45-70.08l1.38-.06.56,2.27c-3.23,9.08-7.02,17.99-11.39,26.76,12.86-5.16,27.23-13.37,38.52-21.39,2.62-1.86,5.01-4.08,6.82-6.77,11.3-16.82,18.39-36.49,23.2-56.09,1.13-1.74,2.6-1.43,4.35-.56l6.91,16.84c2.44-3.94,3.77-8.47,3.99-13.58l1.57-2.05c15.07,1.43,30.32,1.86,34.37-16.64-3.27,5.49-21.33,13.58-25.11,7.14-.28-.47-.01-1.27.41-2.15,12.53-14.74,13.98-31.87,15.04-50.19,1.37-1.71,1.58-3.78.63-6.2l1.06-1.26c5.49,4.18,10.36,9.01,14.6,14.49,4.37-20.43-1.25-42.26-8.23-61.74-.55-2.73-.39-2.93,2.29-2.32l17.79,7.14c.58-.07,1.35-.87,1.34-1-.88-7.28-4.97-16.85-8.03-23.63-4.73-10.49-10.85-20.27-17.13-29.86-.36-1.03-.5-1.88-.34-1.93,3.52-1.11,35.15,20.47,40.35,24.09,15.39,10.7,30.66,22,44.27,34.76Z"/><path class="cls-4" d="M161.18,354.96c.32.15.75.72,1,1-2.92,9.92-5.61,20-7.99,29.97l-1,4c1.5.5.9,4.7,0,5.99-.75,6.98-.75,13.97,0,20.98.66,1.23,1.45,1.86,2.36,1.92,2.85-3.97,6.02-7.66,9.51-11.07l1.12.05.07,3.48c-1.88,3.3-8.81,13.27-11.48,14.64s-5.01-4.07-5.12-6.55c-.97-12.86-.75-25.74.66-38.64-19.74,11.65-38.97,32.71-37.41,57.09.01.18.17.3.18.28,2.69-4.6,19.52-32.22,24.12-29.44,1.96,3.98,3.18,8.39,3.64,13.23,2.86,9.2,7.06,17.86,12.63,25.96,1.19-5.83,8.23-26.85,15.11-26,.49.06.88.86,1.25,1.87,2.18,22.73,9.68,46.18,29.85,58.99-.75-12.04,7.3-17.36,13.03-4.97,2.73,12.52,7.17,24.78,14.98,35.1.76,2.78-.47,5.94-3.31,3.96-1.68.43-1.44,3.99-1.09,5.58,1.8,8.23,9.64,20.53,14.44,27.79,5.53,7.43,10.87,14.88,16.03,22.38l-1.66.2c-8.9-4.53-16.56-11.34-23.96-18.01-.4-.58-1.47-1.45-2.02-1.97-17.73-14.75-28.59-35.39-38.24-55.8-.57-2.13-9.58-11.13-10.38-7.76-.98,4.16,3.22,22.82,4.71,28.1,3.14,11.12,8.2,20.51,13.93,30.47.07.48.48,1.35.68,1.83-4.34-.97-10.91-4.84-12.49-8.87,2.16-1.01,1.92-2.5-.7-4.47-13.81-11.21-26.68-23.53-38.61-36.97l6.1,10.26-1.13,2.07c-.76-.22-1.46-.51-1.91-1.01-13.46-15.07-20.82-38.12-25.15-57.54-.27-.7-.7-1.34-1.18-1.95-1.38-1.72-4.39,11.45-4.76,13.71-2.19,13.52-.48,26.88,1.46,40.31-2.98-1.22-7-4.25-7.25-7.39,2.33-3.04,1.39-10.89.33-14.8-4.85-11.48-8.69-23.28-11.52-35.38-1.59,15.74,2.96,32.05,10.1,45.99l-.98,2.28c-1.14.11-1.68-.44-2.22-1.29-12.98-20.42-12.79-39.73-8.2-62.99-.06-.63-1.04-.77-1.87-.77-4.12,0-24.26,33.96-23.2,41.61-.24,3.56-1.05,6.7-2.42,9.41v5c1.5,1.23,0,4.25-1.79.99-12.92-23.52-4.97-53.92,8.36-75.54.07-2.93-2.83-2.7-8.71.68l-23.46,12.4-1.57-.59c.12-2.14,1.6-3.98,4.45-5.53-3.1,1.71-4.58,3.56-4.45,5.53-.42,2.2-2.32,3.88-5.71,5.02-.21,0-.59.01-.79-.04-.34-1.31-.03-2.46.51-3.64,9.62-20.87,24.73-39.98,42.14-54.15.49-.51,1.45-1.45,2-2,1.3-2.46,3.31-4.45,6.03-5.98.27-.26.73-.76,1-.98,22.72-20.51,47.6-39.06,73.9-54.78,2.01-.55,2.55.14,1.64,2.05-9.94,14.87-19.15,30.61-23.27,48.2.82,2.79,3.14,3.18,6.96,1.17,4.07-2.23,8.31-3.79,12.7-4.67Z"/><path class="cls-2" d="M166.19,407.8c.51-2.83,5.14-7.61,7.99-7.88,2.46-2.54,5.1-4.24,7.93-5.1-.27,24.73,2.82,51.45,19.49,70.88,2.15-4.35,4.15-9.72,5.98-16.1.83-1.64,1.85-1.99,3.52-1.25,7.87,29.25,19.45,59.78,43.14,79.97-1.1-.93-.89-1.25.59-1.02,1.38-6.98,2.81-13.95,4.28-20.9l1.39.11c11.73,25.62,25.33,51.67,43.61,74.24,1.26-.76,2.28.7,2,2-.47,2.44-2.65,2.28-6.53-.47-12.71-9.19-25.2-18.69-37.45-28.5-1.42-.3-2.75-1.3-4-3l-4-4c-1.31-.39-1.98-1.05-2-2-1.6-2.32-3.6-4.32-6-5.99-.55-.29-1.48-.78-2-1-1.12-.71-1.45-1.37-1-2l-5-5c-.85,1.38-2.7-.65-2-2-1.73-2.15-3.73-4.03-6-5.63-.26-.05-.67-.01-1,0-4.37-2.34-5.95-4.45-4.74-6.35.71-.1,2.13-2.39,1.56-3.13-7.87-10.22-12.14-22.02-14.92-34.59-.67-3.04-4.97-8.97-7.71-5.37-1.93,2.52-1.16,8.75-2.12,12.4-22.68-13.29-31.43-37.81-33.22-63.23-8.46,8.25-10.55,18.37-13.85,30.12-10.16-17.95-15.43-22.99-17.16-43.14-11.2,10.48-20.18,22.35-25.35,36.92-4.76-32.27,14.19-54.27,41.46-70.06-.97,7.33-4.99,44.9,1.08,47.77,4.57-6.03,8.32-11.16,12.01-16.7Z"/><path class="cls-2" d="M469.98,577.75c.81,1.02.29,1.41-1,1-.69.59-1.02,1.26-1,2-.13,1.25-1.76,2.57-3,3-2.09,2.5-4.43,4.3-6.99,5.39.16-4.21-.17-8.34-1-12.38-.28.87-.62.86-1,0l-.28-1.48c-5,6.71-9.9,13.53-14.71,20.46.86,1.08.35,1.51-1,1l-7,8.13c-.34,1.79-1.67,3.48-3.99,5.07-1.13.73-3.14,2.63-3.8,3.79-1.32,2.01-2.72,3.01-4.19,3-.99.09-1.66.76-2,2,.39.54.05.87-1,1-.53.55-1.43,1.57-2,2-1.11,2.21-2.44,3.21-4,3l-1.68.17c-6.06-14.5-13.79-27.75-25.3-39.13-.82,1.01-1.87.19-2-1l-4.9-5.19c-.97.46-2.09-.9-1.1-1.8l-1-1c-1.39,1-1.95.47-1-1-.86-1.36-1.86-2.02-3-2,2.11,2.13,2.26,3.48.45,4.05l1.47,10.99-.92.94c-.87-.56-2.21-1.4-3-2-3.07-.99-6.84-4.07-7.99-6.99-.35-.72-1.02-1.39-2-2-1.08-1-2.99-2.85-4-4-2.48-2.96-5.14-5.63-7.99-7.99-1.9-.33-4.88-4.21-4-5.99l-9.58-15.07,5.15-28.21c5.33,12.64,10.43,24.45,20.77,33.08,1.17.98,3.76,2.53,4.75,1.77s2.11-3.52,2.35-4.82l.59-3.23c.11-.6,1.43-.67,1.78-.19s.87,2.2,1.59,2.96c16.34,17.16,33.57,36.83,48.2,56.69,10.21-14.04,19.96-27.21,27.08-42.03l6.94-14.43,6.17,13.08c13.61-8.81,19.33-22.09,24.79-37.55.94,9.51,5.35,18.17,4.41,26.68-1,9.09-15.18,20.57-19.08,28.25Z"/><path class="cls-4" d="M519.83,559.87c2.14,13.5-5.6,27.9-14.01,38.41-6.11,7.64-14.5,16-22.85,20.43-1.46-1.39-1.23-2.91.68-4.57l9.29-6.43q2.77-1.41,0,0c-7.92,5.7-16.85,11.57-26.97,11.47l-.99-2.15c-.32-.46-.55-.89-.44-1.21.42-1.21,3.84-4.46,5.04-5.51,1.07-.94,2.19-1.84,3.41-2.6.58-.4,1.48-1.51,2.02-1.97,15.43-14.59,29.93-30.03,43.49-46.33l1.29-.34c.02.24.05.59.05.78Z"/><path class="cls-2" d="M268.11,599.72c7.39,5.01,14.64,10.32,21.75,15.94l-.87.93c-13.06-3.51-27.39-10.47-36.97-19.98-3.06-2.95-6.36-5.63-9.9-8.03-.89,1.11-1.36.6-1-.85-3.48-2.49-6.24-5.42-8.27-8.77l1.27-.82c11.94,6.4,23.26,13.6,33.98,21.58Z"/><path class="cls-1" d="M71.24,486.84v-5c1.63-18.51,10.11-35.12,22.79-49.11l7.34-8.1c-5.8,22.69-8.19,53.78,7.78,71.24,2.32-1.49,2.9-.69,2.07,1.9,2.06,2.4,4.27,4.74,6.92,7.12-4.98-20.98-4.41-42.21,4.54-62.42,2.56,25.89,11.8,50.47,27.33,69.16,1.6-1.02,2.18-.44,1.18,1.18,1.84,1.41,3.17,3.07,4,5,2.38-1.75,4.49.52,3,3,1.67.4,2.34,1.07,2,2,2.58-1.64,4.93,1.43,4,4,6.64,4.22,13.05,8.81,18.99,13.99.33-.95.72-.96,1.18-.04,3.59,3.69,7.81,6.78,12.49,8.87l.93,2.31c-43.61-26.5-64.45-47.95-76.31-100.26-6.67,16.84-4.7,35.98-2.24,51.96.13.82-.44,2.33-.96,2.28-.38-.03-1.49-.35-2.02-.76-23.36-18.26-23.74-46.16-18.42-74.14-13.57,13.25-22.25,30-24.22,48.07-.5,4.61-.24,8.84-2.69,13.12-15.89-25.98-8.59-56.08,6.89-81.7-10.25,2.04-35.37,19.4-39.43,19.28,2.09-1.48,3.87-3.22,5.71-5.02,13.13-5.27,22.22-13.34,37.83-17.07-16.89,24.53-24.8,55.27-11.03,80.96l.36-1.82Z"/><path class="cls-1" d="M463.9,47.3c-4.11-4.37-13.93-11.88-20.64-14.28,2.71,11.85,5.91,22.95,6.55,35.18-20.34-20.43-44.5-33.48-72.67-37.88,8.81,20.74,8.06,44.12-5.22,62.99-2.21-12.14-4.63-23.18-9.65-34.54l-15.16,12.54c3.43-6.4,10.17-10.27,16.25-14.92,4.14,10.52,7.11,20.29,9.31,31.15,9.54-13.6,9.94-30.69,6.22-46.3-1.03-4.33-2.52-8.11-2.71-12.94,27.61,4.09,50.35,16.22,71.49,35.44,1.07-8.53-7.7-27.11-4.33-32.71,7.92,4.57,15.86,9.07,20.57,16.26Z"/><path class="cls-1" d="M746.77,363.9c-19.91-16.31-60.05-47.32-83.81-58.17,9.21,15.68,23.33,36.42,25.73,57.51l-22.17-8.65c8.03,22.36,12.93,44.24,9.24,67.84-5.25-7.15-9.87-13.41-15.91-18.51-2.47,2-7.87-3.33-7.18-6.11-1.29-.8-1.56-1.43-.82-1.88,6.6,4.02,17.53,14.3,22.29,22.04,2.75-20.76-1.21-41.97-9.02-61.45-.27-.67.03-2.76.7-2.93.5-.12,2.43-.4,3.07-.14l18.2,7.5c-4.85-19.49-14.15-38.06-25.42-53.27-.71-.95-1.11-3.81-.31-3.72.59.07,2.54.17,3.43.68,25.94,14.68,53.07,33.24,76.23,52.9,2.63,2.23,4.19,4.05,5.75,6.36Z"/><path class="cls-1" d="M751.6,498.74c24.93-34.02,20.51-58.2-2.05-92.99,8.81,2.58,22.28,9.62,29.23,13.15,2.12-2.04,3.98-.73,3,2l14.77,9.35c-7.88-22.39-16.72-30.99-30.72-48.29,10.53,8.39,31.43,35.06,31.84,50.46-14.63-9.27-27.77-17.19-44.13-23.33,19.75,28.17,24.15,65.72-1.93,89.66Z"/><path class="cls-1" d="M248.12,472.85c-1.56,0-2.5-1.24-3.68-2.94-15.1-21.87-21.68-46.92-20.24-74.3-7.93,4.87-16.42,30.95-19.86,20.09-8.06-25.42-5.54-53.13,6.69-76.68-6.77,2.8-10.04,9.05-15.76,10.84,5.69-6.11,12.32-11.48,20.47-15.81-10.03,16.98-14.23,33.4-13.74,51.89.28,10.77.35,21.34,5.07,31.81,5.74-10.43,11.62-19.22,19.79-27.51-3.96,30.58,4.42,58.62,21.26,82.6Z"/><path class="cls-1" d="M298.32,515.81c2.6-.86,5.83,3.51,4.76,5.99,2.72,3.82,5.63,7.53,8.95,10.77-.56,1.52-.89,1.35-1.93-.06-24.51-27.56-42.52-59.73-50.39-95.6-5.07,11.25-7.38,22.79-8.07,34.4-.03.54-.52,2.64-.95,2.41l-1.58-.87c2.52-13.45,3.15-27.72,11.33-40.89,5.85,31.39,19.85,59.04,37.87,83.84Z"/><path class="cls-2" d="M589.9,582.74c-.16,1.34-1.19,2.64-3.07,3.92l-.96,1.04c-7.81,7.25-15.81,14.55-24.83,20.31-4.6,2.93-11.13,6.93-16.34,8.18-.52.13-1.13-.12-1.77-.48-.06-.23-.01-.68,0-1l32.08-24c2.79-2.41,5.75-4.06,8.89-4.97,1.5-.9,4.47-2.3,6-3Z"/><path class="cls-1" d="M620.87,418.9c-3.24-.19-14.98-24.61-17.32-17.56,1.79-5.39,3.1,39.31-21.09,70.83-6.36,8.29-6.9-30.24-13.77-37.42-10.12,37.45-26.91,70.4-49.34,100.4-1.67,2.24-3.03,4.89-6,4.38.65-10.6,1.11-19.97-1.46-30.61-7.46,27.23-27.75,59.81-48.05,76.71-.93-.79-.03-1.81,1.13-1.9l3-3c-.33-.52,0-1.19,1-2,.29-.19.84-.68,1-1,20.92-21.09,35.3-48.21,42.45-77.95,2.75,12.59,3.96,25.32,2.94,37.8,11.18-14.42,20.74-29.01,28.56-44.77-.89-.22-.91-.55-.08-1,3.4-3.53,5.16-8.01,7.35-12.84,7.25-16.04,12.76-32,16.52-50.18,8.04,14.1,9.87,28.88,12.45,44.03,16.72-23.04,25.04-50.88,20.74-80.06,8.44,7.99,14.97,16.7,19.97,26.12Z"/><path class="cls-1" d="M664.85,331.99c-9.88-24.75-25.73-46.36-49.51-60.77,22.29,3.08,42.58,7.81,64.96,6.63-17.8-8.54-33.47-18.15-49.88-28.19l-8.28-5.06c13.02-.78,24.14-4.09,34.12-13.19-23.46-3.82-44.96-11.36-67.58-21.23,19.83-3.18,33.17-12.81,39.89-29.95.64,1.61-.29,4.9-1.42,6.8-7.45,12.53-18.19,20.63-33.08,23.67,21.41,9.14,41.41,15.48,64.44,19.46-7.51,10.01-18.33,13.22-30.43,15.87,17.43,12.4,34.96,22.4,54.04,30.45-3.45,3.89-8.32,4.24-13.07,3.68l-44.82-5.3c14.41,11.99,40.62,40.54,40.62,57.15Z"/><path class="cls-1" d="M180.48,229.24c1.5-3.04,5.62-1.95,8.95-2.76,16.87-4.1,32.47-10.09,48.77-16.15-11.5-1.86-33.25-20.99-30.83-31.18,5.73,16.13,17.92,26.34,36.01,31.19l-39.88,14.13c-7.7,2.73-15.35,4.36-23.02,4.77Z"/><path class="cls-4" d="M649.86,394.93c.45.34,1.52.71,2,1l.82,1.88-3.56,1.94c1.87,21.35-1.72,49.75-14.47,67.53-3.34,4.66-6.24,1.86-8.49-1.87-1.99-5.73-4.41-11.16-7.28-16.3-7.64,30.55-19.65,61.15-44.33,81.94-2.8,2.02-3.64.35-4.59-2.72l-1.04-15.21c-1.85,4.97-4.31,9.57-7.39,13.82l-2.61-.14-.61-1,10.6-23.98,1,2c.52-.02.96,0,1.06.2,1.64,3.15,2.24,7.97,2.62,11.55.08,10.67,1.43,10.24,8.9,2.03,18.58-20.41,27.34-49.58,33.25-75.99l1.1-1.51.89.09c5.54,6.86,9.39,14.84,12.81,22.92.85,1.4,1.88-.25,2.64-1.67,11.89-22.05,12.91-45.9,10.82-70.21l.9-.09c1.68-.08,4.35,2.1,4.96,3.78Z"/><path class="cls-1" d="M346.14,72.24c-8.07,9.36-13.23,22.22-13.09,34.55-12.49-8.04-14.38-32.1-11.99-43.58,2.48,11.23-1.5,26.62,10.29,39.04-.13-10.26,7.9-25.13,14.79-30Z"/><path class="cls-1" d="M725.8,443.88c1.52.53,2.85,1.86,4,4,1.51-1.28,2.08-.69,1,1,8.19,11.8,21.77,37.52,16.13,53.64-1.28-3.39-1.11-7.29-1.33-11.54-.98-19.29-10-36.85-25.46-50.13,6.43,23.7,9.23,50.75-8.62,69.82-4.06-8.92,5.13-27.73-3.52-41.61-10.68,41.42-34.31,60.78-68.42,80.63-2.26,1.32-5.2,1.76-8.23.5,12.04-13.93,17.42-33.34,18.72-51.08.09-1.24-2.84-2.64-3.22-2.27l5.13-5.28c.41,21.59-5.37,40.86-18.66,58.99,6.04-2.86,11.42-5.62,16.53-8.76l3.1-4.32c12.06-8.03,24.11-16.13,31.99-28.19l2.88-.45c8.7-13.63,15.46-28.62,18.67-44.52l1.32-1.43,2.6.77c5.34,7.37,5.23,27.73,4.37,36.82,11.51-20.18,6.73-44.94-1.35-65.51-.11-1.85.65-2.14,2.3-2.14,2.58,0,11.55,7.78,10.06,11.09Z"/><path class="cls-1" d="M652.81,369.84c-10.97-10.98-20.28-24.63-36.36-33.09,13.13,24.99,16.06,51.83,8.31,78.16-.45,1.52-1.87,3.24-2.89,3.99,9.48-29.15,6.39-59.94-10.26-87.79,16.24,10.4,31.22,22.98,41.2,38.73Z"/><path class="cls-1" d="M344.06,560.76c1.36,2.15,2.23,4.16,4,5.99,1.88.94,4.15,2.78,3.83,4.88.23.38-1.46.1-1.76-.22-16.86-18.84-28.81-41.59-36.62-65.8l-.58,26.87c-2.82-10.86-2.38-22.4-.08-34.24,7.52,23.17,16.08,44.98,31.2,62.52Z"/><path class="cls-1" d="M564.09,148.86l-2.95,1.26c10.33-28.01-27.51-76.61-50.32-92.9l2.14,49.21-8-11.16c-1.23,2.61-2.14,5.15-1.78,6.85-.45,2.8-.76,2.33-1.84-.1-5.95-16.78-15.71-31.39-27.38-44.73,19.64,14.6,27.59,48.12,29.49,36.21l7.84,6.14-2.02-32.86c-.24-3.85.36-7.84,1.7-11.48,24.36,19.65,59.16,61,53.11,93.56Z"/><path class="cls-1" d="M184.73,323.14c.25-2.86,1.44-2.54,2.62-.06-9.59,12.83-9.11,31.21-11.18,46.86-3.68-8.36,3.99-34.15,7.96-44.39-6.26,2.32-12.44,5-17.32,8.98-11.41,9.31.12-21.66,14.67-36.28l17.21-17.29c-10.74.43-42.1,7.38-47.73,1.38-.51-.54,1.36-2.19,2.33-2.67,19.92-9.81,39.85-21.82,59.09-34.45-12.8-2.01-23.1-6.63-33.13-14.21l1.15-.89c11.39,7.56,23.22,13.42,37.94,13.95-24.33,13.83-41.02,26.03-66.81,38.59,18.79,1.64,35.43-2.51,54.03-4.84-21.13,17.86-34.64,30.18-42.55,57.23,7.19-5.23,14.13-9,21.72-11.91Z"/><path class="cls-1" d="M286.91,145.27l3.87,5.84c-18.31-8.55-33.43-21.39-44.03-39.39-9.71,22.1-4.96,52.52,14.53,66.52,2.64-.29,2.92.35.83,1.92-.73.03-2.16-.02-2.92-.02-17.67-17.79-24.38-41.41-15.27-65.78,3.94-10.56,7.87,11.2,34.71,28.53,2.76,1.78,5.44,2.77,8.28,2.4Z"/><path class="cls-1" d="M258.5,501.26c1.05,1.28,1.79,5.25.19,5.72-1.07,7.18-2.51,14.33-4.32,21.45-22.86-19.58-35.13-49.03-42.33-77.66l-1.62-1.36c.56-2.14-.46-1.92-3.06.67-1.54,5.24-3.33,10.39-5.36,15.45-16.84-18.08-19.96-44.83-19.8-68.68-1.71-1.96-4.38-.94-8.01,3.05-3,1.83-6.05,4.96-7.99,7.88-5.16,3.62-7.62,8.75-12.24,14.7l-.75-5.59c-.75-7-.75-13.99,0-20.98v-5.99l1-4c.97-10.31,3.75-20.52,7.99-29.97.17.96.26,3.36-.14,4.48-6.69,18.77-9.32,38.02-7.4,58.07,9.64-11.4,18.13-20.45,29.24-29.2,1.14,4.76,1.39,8.27,1.31,12.57-.45,20.54,2.99,41.03,15.09,59.09,3.59-3.45,5.49-19.48,10.15-19.08.9.08,2.39,2.03,2.61,3.01,5.75,25.6,19.4,61.86,40.01,79.52,3.11-6.64,1.9-24.72,5.44-23.17Z"/><path class="cls-1" d="M161.18,354.96l-21.63,9.19c2.56-20.3,15.59-39.57,24.69-55.29-21.48,10.57-56.91,39.5-74.98,54.13,21.34-21.96,49.82-40.44,75.53-57.04,1.57-1.01,1.81,4.49.77,5.76-10.78,13.09-19.2,30.37-23.31,47.87,6.86,1.89,13.79-7.09,18.93-4.61Z"/><path class="cls-1" d="M584.9,569.75c-.47.27-1.18-.94-1.1-1.47.18-1.25,18.32-32.47,18.28-41.95-6.2,1.53-12.9,19.86-17.18,19.44,6.71-9.46,12.74-19.21,21.69-28.21-4.15,19.01-12.46,35.67-21.69,52.19Z"/><path class="cls-1" d="M226.14,552.77c-16.54-12.29-27.64-31.49-36.36-50.55-2.44-5.33-5.34-10-11.36-13.29,1.33,19.05,5.34,36.68,15.32,52.58,1.14,1.81,2.18,4.66,2.42,6.26-14.16-19.01-17.88-38.49-20.04-63.66,5.6,4.68,11.35,9.31,14.13,15.56,8.92,20.03,20.18,38.33,35.89,53.09Z"/><path class="cls-1" d="M617.72,440.2c6.32,5.87,10.13,14.51,13.78,22.74,12.07-20.95,13.95-46.57,11.43-68.76-.09-.82-.06-2.3-.03-2.67s.51-.22,1.1-.28c4.54,25.31,1.16,52.57-13.05,75.55-3.84-10.11-8.22-18.39-13.22-26.59Z"/><path class="cls-1" d="M568.91,501.82c-1.71,7.08-7.16,18.87-9.99,24.98.82.22.79.56,0,1l-36.98,70.93c-.8.15-1.8-.31-2.44-.84,1.82,1.52,47.02-90.8,49.4-96.06Z"/><path class="cls-1" d="M321.1,62.35c-26.44,15.93-42.89,49.61-34.92,80.85-9.23-11.61-1.36-40.01,6.11-52.91,6.56-11.32,28.46-33.26,28.71-29.51l.1,1.57Z"/><path class="cls-1" d="M628.5,179.39l-11.42,2.81c-13.23,3.26-26.92.9-40.85-1.97,18.62-7.16,26-37.24,19.06-52.93-5.44,8.84-21.4,16.87-29.38,20.96.61-1.18,2.47-3.57,3.78-4.11,10.55-4.33,18.52-10.67,27-18.77,7.11,19.31,1.15,40-13.96,53.99,14.64,3.63,29.46,3.3,43.06-1.28l2.57-.87c.55-.18.15,1.97.14,2.17Z"/><path class="cls-1" d="M258.13,180.24c-16.06,3.71-35.09,4.34-50.66-2.11.35-3.71,15.68,6.03,37.56,2.33,5.05-.85,9.01-.66,13.1-.22Z"/><path class="cls-1" d="M616.83,440.11c-6.05,31-18.68,67.39-43.96,87.44.76-7.66-.32-18.44-2.96-23.73,3.34-5.39,5.31,17.76,5.07,20.04,22.51-18.13,34.58-56.59,40.21-83.44.09-.41.91-1.67,1.06-1.39l.58,1.08Z"/><path class="cls-1" d="M311.06,586.78c-2.27,1.18-5.82-1.37-4.97-4.04-.55-.52-1.59-1.42-2-2-18.01-22.15-31.47-47.87-43.37-73.74-2.06-.84-1.88-3.26-.81-5.12l.75-1.21c10.09,22.81,19.87,45.67,34.9,65.57l15.5,20.54Z"/><path class="cls-1" d="M664.85,332.99c0,5.29-11.15-7.73-21.58-7.14,6.48,14.49,10.5,28.09,12.12,43.38.08.79-1.57,1.99-1.68.58-2.17-16.87-4.93-34.98-14.85-48.95.14-.91.47-.95,1-.17,8.39,5.02,15.14,5.73,24.98,12.31Z"/><path class="cls-4" d="M258.5,501.26l1.41.62c7.36,23.64,31.01,60.42,44.18,78.86-12.92-13.5-22.23-30.06-30.86-47.08l-13.47-26.57c-1.83,8.54-2.48,15.09-5.26,22.43-21.6-16.48-38.76-55.78-43.23-78.67-.2-1.01-3.04-1.1-3.22-.52l-1.06,3.36c-1.47,4.66-2.08,9.42-5.53,12.76-16.74-18.11-20.64-47.02-20.28-70.79l-7,4.26c2.74-2.94,5.34-5.79,9.32-8.99-1.65,25.01,1.9,54.98,18.47,74.29,2.13-8.44,3.9-16.04,8.91-22.75,6.25,29.19,19.81,65.72,43.46,84.97l4.17-26.18Z"/><path class="cls-1" d="M428,649.68c10.68-5.79,21.67-11.12,32.98-15.98,5.07-6.51,14.04-12.78,21.99-14.99,18.56-14.25,37-32.47,36.86-58.84l1.64-.95c1.16,44.21-56.35,76.77-91.95,92.34-.34.15-1.51.41-1.88.48s-.92-1.22-.61-1.42l.98-.64Z"/><path class="cls-1" d="M455.98,576.75h1l.72,3.91c-.72,7.65,1.01,9.63,5.2,5.96-.45,1.94-3.34,6.38-5.4,5.54-3.75-1.53-1.08-8.13-3.34-11.23-6.12,8.6-16.37,23.38-25.16,28.99,1.27-1.52,2.97-3.43,3.99-5.07l7-8.13c.29-.2.78-.73,1-1l12.07-16.61c.82-1.51,1.79-2.3,2.92-2.37Z"/><path class="cls-4" d="M268.11,599.72c-.47.57-.58.83-1.02.66-3.61-1.38-22.35-18.81-33.28-20.96l7.31,8.31c-.4.38-.75.65-.9.57-4.32-2.34-9.04-7.71-12.01-11.64-.24-.26-.86-.64-1.09-.91l-.9-1.1-1.6-1.95c-.25-.31.13-1.07.5-.95,15.32,7.43,30.87,16.06,42.97,27.97Z"/><path class="cls-1" d="M224.4,516.81l4.74,6.35c-1.49-1.02-2.96-1.84-5.39-2.2,5.78,18.68,17.98,34.45,29.96,49.22.35.43,1,1.71,1.26,2.12.17.28-.86.21-1.17.25-14.61-17.88-27.85-36.5-34.51-59.44,1.66,1,4.25,2.52,5.13,3.69Z"/><path class="cls-4" d="M460.98,633.69c-10.56,6.1-21.6,11.52-32.98,15.98v-1l11.01-8.48,1.1.49c4.43-1.25,8.81-3.45,13.13-6.59,3.67-2.48,6.25-2.62,7.73-.4Z"/><path class="cls-1" d="M80.24,371.95l-18.2,18.78c-10.95,11.3-18.31,25.02-24.45,39.01-7.71-2.16,34.98-58.36,42.66-57.8Z"/><path class="cls-4" d="M306.09,582.74c1.42.99,3.85,2.89,4.97,4.04l.98,1c2.58.53,3.16,5.95,1.7,5.14-18.18-10.19-36.85-24.64-51.62-39.14,1.77.54,4.38,2.54,6.6,4.24l30.22,23.19c2.19,1.68,4.82,2.28,7.15,1.54Z"/><path class="cls-1" d="M375.04,575.75c.29.2.74.74,1,1l1,1,1.1,1.8c-1.04,1.84-2.8-1.57-4.99-1.88l1.83,10.98c.09.52-1.49,1.38-1.93,1.09-.4-5.35-1.8-10.98-1-15.98,1.09-.11,2.09.56,3,2Z"/><path class="cls-1" d="M385.03,585.74c10.4,10.99,19.26,22.8,24.02,37.33l2.96,1.63,4-3c-.3,3.07-4.41,6.13-8.44,6.67-4.53-18.5-13.16-30.26-25.45-43.17.05.06.69-.34.91-.46.38.41,1.57.64,2,1Z"/><path class="cls-1" d="M542.93,615.71c16.55-4.96,29.87-16.84,42.94-28.01-8.36,9.07-27.16,25.08-39.06,28.51-1.57.45-3.2,2.14-3.34,1.58l-.54-2.09Z"/><path class="cls-1" d="M583.9,585.74c-17.79,10.71-25.36,20.4-40.97,28.97,3.44-3.77,37.75-29.66,39.9-29.91.5-.06.66.32,1.07.94Z"/><path class="cls-1" d="M519.78,559.09c-10.86,13.81-32.44,36.2-44.78,46.66,1.72-2.66,3.83-5.12,6.43-7.61,13.06-12.48,25.72-24.92,36.53-39.35l1.17-1.57c.23-.3.57-.23.58.13l.07,1.73Z"/><path class="cls-1" d="M587.9,567.76c35.71-30.41,35.54-45.53,58.06-69.96l-17.21,24.98c-11.75,17.06-24.22,34.85-40.86,44.98Z"/><path class="cls-1" d="M236.13,528.79l2,2,5,5,1,2c-4.3-1.83-11.16-8.69-12.99-12.99,1.93.38,3.59,1.71,5,4Z"/><path class="cls-1" d="M252.12,572.75c-4.46.54-20.64-13.22-23.96-18.01l23.96,18.01Z"/><path class="cls-1" d="M289.86,615.66c-7.52-4.79-14.93-10.1-21.75-15.94-13.13-11.23-28.02-19.43-42.97-27.97,21.54,7.09,48.21,30.34,64.72,43.91Z"/><path class="cls-1" d="M241.13,587.74c.22.25.82.58,1,.85,3.56,2.37,6.86,5.05,9.9,8.03,10.72,9.08,23.84,15,36.97,19.98l.91,1.68c-20.13-6.51-37.32-17.97-53.34-31.93-3.5-3.05-6.7-5.77-8.34-9.69,2.9,3.13,8.76,9.05,12.9,11.08Z"/><path class="cls-1" d="M522.94,598.73c15.72-8.88,29.22-20.43,42.95-32.01-9.71,11.8-22.75,20.6-35.79,29.41-2.05,1.39-5.32,2.94-7.16,2.59Z"/><path class="cls-1" d="M458.98,621.7c.79,1.56-1.32,3.55-3,4,.74,2.89-3.18,6.39-6,5.99-1.12,1.87-2.45,2.87-4,3,1.4,2.47.59,2.96-2,2,.41.86-.26,1.52-2,2,1.59,1.71-.03,2.98-1.88,2l-12.11,7.99c5.42-6.06,13.13-10.87,19.64-17.27,3.78-3.72,7.11-7.42,11.33-9.7Z"/><path class="cls-4" d="M252.12,544.78c-2.29.1-4.59-2.98-6-5-.02-.24,0-.7,0-1,2.43,1.29,6.83,3.41,6,5.99Z"/><path class="cls-1" d="M262.11,553.77c15.54,14.61,33.22,26.6,51.55,38.39.15-2.17-.57-3.31-1.63-4.38l3.51,2.04c.91.53-.72,4.66-2.16,3.71-18.28-12.13-41.28-26.45-55.27-42.75.89.89,2.78,2.63,4,3Z"/><path class="cls-1" d="M574.87,557.81c2.56-3.45,5.32-6.82,8.22-10.03-.1,4.3-4.8,7.38-8.22,10.03Z"/><path class="cls-1" d="M178.17,369.95c1.17-2.35,2.89-4.43,5-5.99-.99,1.86-3.09,5.42-5,5.99Z"/><path class="cls-4" d="M464.98,583.74c-.39.39-.79,1.47-1.13,1.9-.21.27-.69.73-.95.98-1.78,1.69-3.25,2.89-5.87,4.7l-.05-14.57c1.92,2.87,1.64,6.72,1.95,11.3,3.73.03,3.21-5.8,6.04-4.31Z"/><path class="cls-4" d="M455.98,625.7c.98-.77,2.23-2.96,3-4,.21-.28.69-.82,1-1,.68-1.01,1.35-1.34,2-1,3.41,2.48-4.39,11.17-6,5.99Z"/><path class="cls-1" d="M586.83,586.66l3.07-3.92c.39-.18.98-.32,2.1-.62-1.54,1.99-3.16,3.42-5.17,4.54Z"/><path class="cls-1" d="M764.75,380.98l-16.96-16.02c6.36,4.31,13.16,9.46,16.96,16.02Z"/><path class="cls-1" d="M362.05,580.74c1.93,1.83,5.71,5.26,7.99,6.99,1.2,3.1-9.33-4.66-9.99-7.99.78-.47,1.93.04,2,1Z"/><path class="cls-4" d="M362.05,580.74c-.4-.39-1.46-.76-2-1-.05-.25-.02-.67,0-1,.31.29,1.38.58,2.09.86.53.21.47.46-.09,1.13Z"/><path class="cls-1" d="M252.12,544.78c.54.45,1.46,1.46,2,2-3-.13-7.82-4.34-7.99-6.99l6,5Z"/><path class="cls-1" d="M418.01,619.71c.16-.02.94-.67,1-1,.36-1.3,1.02-1.97,2-2l4.19-3c-1.35,2.38-3.75,6.24-7.19,5.99Z"/><path class="cls-4" d="M356.05,574.75c-1.1-.82-3.34-2.11-4.16-3.12-1.11-1.36-2.59-3.59-3.83-4.88,3.7-.15,5.53,5.18,7.99,7.99Z"/><path class="cls-1" d="M472.97,607.72c-2.55,1.77-6.62,6.54-8,9.32,2.04,2.47-.48,4.48-2.99,2.67-.46.31-1.51.72-2,1,2.96-5.38,7.61-10.02,12.99-12.99Z"/><path class="cls-1" d="M747.83,502.6l2.94-2.85-1.55,3.39c-.24.51-.52.13-1.39-.54Z"/><path class="cls-1" d="M649.86,394.93l-4.96-3.78c.03-1.73,2.21.02,3.3.85.99.76,3.25,2.52,1.66,2.93Z"/><path class="cls-4" d="M236.13,528.79l-5-4c-.19-.44-.72-1.2-1-1.64,2.11.38,5.41,3.27,6,5.63Z"/><path class="cls-1" d="M88.26,363.97l-6.03,5.98c-.87-2.65,3.58-4.68,6.03-5.98Z"/><path class="cls-1" d="M185.17,360.96l4.81-5.08c-1.17,1.78-2.54,6-4.81,5.08Z"/><path class="cls-1" d="M472.94,56.31c-1.78-2.22-6.15-5.94-8.08-7.99,3.77,1.36,6.66,4.24,8.08,7.99Z"/><path class="cls-1" d="M227.14,575.75l-.9-1.1.9,1.1Z"/><path class="cls-1" d="M544.02,291.86l-1.09.17c21.94,5.69,34.41,27.44,42.5,47.33,0,0-6.17-1.79-18.52-5.37,1.32,1.4.77,1.92-1,1,2.12,6.98,8.74,39.87,3.72,43.79-.69.54-1.69-.17-2-1.08-3.57-10-7.95-19.57-13.14-28.72l-1.38-.43c-1.75,17.9-5.5,35.69-16.88,50.27l-1.39-.23c-1.73-6.14-3.41-12.32-5.04-18.51l-.9-.04c-2.79,5.56-4.39,11.69-4.79,18.39-.59,20.56-2.78,40.85-6.57,60.87-.69,4.17-2.31,7.39-4.88,9.66-.26-19.45-2.53-38.63-6.8-57.54,1.28,1.25.59,1.72-.9.49l-1-1-2.94,28.67c-2.29,16.08-6.8,32.36-17.01,45.29-.26.24-.81.69-1.03.97-7.64,6.45-17.92,7.2-27.53,6.19-28.01-6.02-54.6-6.88-82.6-.22-10.41,1.11-20.79.65-28.78-6.96-.21-.29-.72-.78-1-1-6.92-7.63-10.56-17.43-13.37-27.18-4.11-14.28-5.57-29.2-7-43.92-.23-1.72-.73-2.42-1.5-2.12-5.84,18.3-7.55,38.4-6.55,57.73-.09,2.49-.26,3.04-2.07,1.32-4.42-4.2-7.23-29.2-7.98-36.29-.1-19.43-2.6-38.24-7.51-56.43h-1c-2.65,6.85-4.84,13.93-6.56,21.22-.55.58-1.11.97-1.56.86-2.37-.58-8.56-15.81-9.74-19.22-3.33-9.58-4.38-19.75-5.2-29.75-.27-.42-.92-.68-1.31-.57-2.03.54-12.68,29.22-13.77,33.54-.09,1.07-1.78,1.81-1.87,1.49-4.66-16.29-1.6-34.03,3.78-49.72l-1.22-.92-18.18,6.55c4.25-18.61,23.61-46.69,44.05-48.9,9.11-.98,9.07-.64,2.95,4.64-7.35,6.34-16.9,18.63-14.26,28.73,0,.27-.02.61.04.79,3.29-2.46,6.62-5.08,9.99-7.88.29,9.14.93,17.82,6.87,25.36,1.04.73,2.72,1.44,3.87,1.71-2.08-15.25.31-31.53,10.12-43.85l2.97-3.02c2.24-1.84,9.43-5.87,12.07-4.64,1.16.54,1.46,1.05.53,1.95-6.55,2.27-15.57,12.89-12.59,17.7.36.03.76.1,1,0,6.98-4.35,15.78-8.05,23.97-5.02,52.48,29.5,109.71,28.37,162.51.72,9.18-3.51,15.62-1.09,23.37,4.31.25.08.65.02,1,0,1.23-.22,1.42-1.59.57-4.1-2.01-5.5-5.62-10.1-10.84-13.8-.34-1.71.25-1.81,1.85-1.73,4.77.24,11.9,7.06,14.6,10.89,8.87,12.56,9.89,26.01,7.98,40.63.2.22,1.4.78,1.48.78,3.93-.28,10.81-22.16,7.71-26.69,1.96-.99,4.19-.31,6.67,2.04,6.49,7.59,7.31,3.93,5.18-3.55-2.98-10.47-10.69-18.8-19.31-25.11,1.59-1.8,5.89-1.27,8.08-.34-.87-.28-.86-.62,0-1l1.09.83Z"/><path class="cls-1" d="M355.79,252.08l2.04,1.03c10.33,12.53,39.66,24.71,31.26-3.65l.4-1.37c6.17,4.08,10.67,9.92,13.5,17.52,4.67-4.9,7.97-11.03,9.88-18.37l1.43.32c2.53,8.36,5.74,13.49,9.65,15.39l.88-.05c.46-3.31,7.79-17.54,11.17-14.17.31.31.41.83.46,1.41-4.94,22.98,11.34,19.2,25.01,10.14l17.66-14.19c3.62-3.9,8.49-6.77,12.82-9.99l19.7-12.26c7.09-4.53,23.46-7.95,30.88-3.76.19.11.03.73-.42,1.38l-10.77,2.92-1.32,1.83-.88.94c.99,1.79.95,2.04-.1.74,4.26,4.53,7.8,10.57,7.62,16.97-2.13-1.17-4.33-2.26-6.61-3.27-.85,6.78-2.42,13.37-4.7,19.75-6,8.78-5.09,11.32,2.73,7.61,9.42-5.19,9.64-1.15,2.41,4.93-14.93,8.34-31.4,12.77-49.43,13.29-.3.13-.64.65-.86.93l6.03,8.49c-4.59-.7-8.78-.65-12.57.15-3.58,5.31-11.22,10.49-6.29.55,1.71-3.46,1.91-6.21.59-8.25-.18-2.26-2.38-5.46-3.87-6.8-8.11-3.16-16.63-2.49-25.57,2-.12-2.11.67-4.34,2.35-6.71-1.75-.96-1.64-1.23.33-.81,1.33-.45-25.46-7.78-25.96.9-1.03,2.62-2.16,3.99-3.39,4.11-1.34-3.75-3.42-6.52-6.23-8.32-7.29-.14-14.44,1.13-21.45,3.8l-.23,1.85c1.91,1.63,2.74,3.22,2.5,4.78-8.98-4.45-17.18-4.71-24.6-.8-.58.82-2.01,2.18-2.81,2.82-2.26,4.21-1.3,9.73,2.88,16.54-1.19,1-2.47.49-3.71-.29-6.07-6.29-9.67-6.31-17.77-5.39l4.74-8.08-1.14-1.75c-10.12-.24-50.6-6.24-51.84-18.26-.21-2.03-.05-1.99,1.66-1.53,1.22,1.64,14.18,6.09,13.98,4.96-.1-.56-.2-1.11-.3-1.67-6.2-7.52-10.04-16.46-10.86-26.21-1.06-2.21-3.07-1.64-6.03,1.72-.78.18-1.43.2-1.53-.03-1.44-3.24,5.85-15.49,8.47-18.3l.06-2.38c-1.24-.31-12.8-3.99-10.82-5.1,19.58-11,55.04,19.44,68.96,31.99Z"/><path class="cls-2" d="M439.61,187.19c-2.5,2.19-8.37-.41-10.31,2.25l-9.42,12.92c-5.71-20.6-19.05-28.42-38.37-37.26,11.58-5.31,21.18-12.27,25.09-24.05s-.06-23.14-7.09-34.52c20.85,8.99,26.73,33.12,17.27,52.62-.46.95-.63,3.37-.3,4.3.4,1.12,3.64.23,4.99.05,9.11-1.24,6.72-13.5,10-18.21,6.48-9.32,16.21-15.41,19.24-27.35,3.54-13.94-.13-27.29-10.27-38.9,19.9,6.19,35.68,28.25,30.76,48.27,10.34-8.12,8.68-21.06,3.84-32.56,10.43,8.55,16.75,22.47,11.62,35.38-5.01,12.62-16.25,22.32-28.39,28.6,1.43-8.15,2.7-14.49,2.42-21.29-13.77,16.75-12.07,12.41-15.7,33.57-7.93,3.43-14.24,8.71-16.62,16.79l11.24-.6Z"/><path class="cls-1" d="M343.09,155.99c.26-.03.76-.06.97.03l17.03,11.1c.24.25.73.75.99.99l7.02,6.99c.23.26.72.76.97.99l14.06,20.03c0,.31-.01.76.02,1,3.56,6.57,5.53,13.27,5.91,20.11l-1.41.21c-5.84-6.98-43.76-32.68-50.44-26.57,1.25,4.43,1.69,8.8,1.32,13.1-11.94-9.75-24.73-14.13-38.37-13.15l-3.9,1.46.07.85c1.43,1.08,2.25,2.23,2.45,3.45-14.48,2.76-25.65,9.81-33.36,22.48-2.54,4.18-5.69,9.66-5.06,13.79,3.67-.7,6.95-.59,9.84.32-10.13,11.87-20.46,24.54-23.39,39.87-.73.79-14.49,6.67-14.41,5.89,1.24-12.54,12.46-27.7,20.72-36.86l-.17-1.83c-4.05-1.01-7.83-2.39-11.36-4.14l.52-2.04c.27-.23.74-.77,1.02-.98,7.16-6.28,12.54-14.27,16.15-23.98.91-1.19,1.98-2.75,2.81-4.02,15.53-21.01,40.43-26.91,65.36-23.15l1.1-1.61c-3.12-5.48-6.92-10.54-11.4-15.18,4.46-.63,9,.35,13.63,2.91l20.42,11.32.99-1.79c-4.93-7.28-10.19-14.34-15.8-21.18,1.16-1.4,3.06-1.54,5.7-.41Z"/><path class="cls-1" d="M528.94,182.13c-1.06.91-2.76.41-3-1l3,1Z"/><path class="cls-1" d="M488.2,179.92c-.02.26-.01.76-.01,1.03l1.67,1.06c23.06-5.07,48.06-.76,66.13,15.05.44.55,1.44,1.54,1.96,2,6.94,10.16,13.6,20.5,19.96,31.02.52.93,2.08,2.46,2.96,3.06l2.46,2.86c-3.91,1.51-7.59,2.96-11.02,4.37.12.43.32,1.34.6,1.69,9.64,10.11,19.04,22.23,21.17,36.43,0,0-4.38-1.52-13.15-4.56-3.86-15.64-13.5-28.87-24.72-40.15l.25-1.15,7.36-.66c.2.01.54-.02.79-.04.4-2.97-2.38-7.96-4.24-11.24-8.12-14.23-19.38-21.97-35.66-24.43.47-1.29,1.74-2.06,3.81-2.29.31-.41.52-1.05.34-1.53-1.53-4.07-27.07-1.52-29.96,3.03-4.91,3.04-9.84,5.95-14.77,8.73.11-3.75.66-7.47,1.66-11.17-.46-.44-1.95-1.28-2.43-1.31-9.76-.5-33.98,18.03-41.33,25.4-.28.22-.72.72-.98,1-1.58,1.32-3.26,2.31-5.06,2.95.38-14.43,9.74-36.76,21.98-44.8.95-.63,8.43-4.69,6.97-1.43-3.44,4.34-5.7,8.74-6.79,13.2.7,0,2.15.25,2.77-.05,5.58-5.34,29.4-24.8,35.83-23.45.88.18,1.05,1.65.85,2.69-3.5,4-6.62,8.23-9.38,12.69Z"/><path class="cls-2" d="M263.86,300.96c.29.4.5.73.42.82-2.34,2.78-6.38,6.85-9.16,8.23-5.12,5.64-16.69,23.36-17.19,30.07-.07.95,0,1.9.13,2.85,6.55-2.27,13.07-4.43,19.57-6.48-5.74,17.18-8.44,35.38-1.59,52.6.37.94.97,1.11,1.08-.12-.62-3.07.44-7.69,3-8.99.45-.03,1.03-.05,1.4-.09s.51,1.5.37,2.08c-2.18,8.89-1.91,19-.76,29.72-14.96-15.32-22.32-37.21-16.6-58.38-7.1,4.6-12.1,11.54-16.73,19.92-1.1-22.35,3.29-43.79,15.94-63.17-11.28,0-19.39,5.3-29.01,10.01,14.55-23.54,41.99-34.93,68.37-30.52-7.81,2.39-15.2,5.46-19.24,11.46Z"/><path class="cls-1" d="M386.09,296.98c.31.16.76.72.98.99,10.89,15.18,34.72,21.92,47.94,6.04.41-.57,1.4-1.63,2-2,1.39-.86,2.12-1.86,2.21-3,1.03-1.4,3.21-3.64,4.79-4.26,9.63-6.86,19.82-2.07,10.68,9.02-14.96,18.15-64.25,17.02-81.67,1.26-.29-.2-.85-.67-.99-.99-9.2-15.71,4.59-15.54,14.07-7.07Z"/><path class="cls-1" d="M403.02,516.9c-.06.11-.78.02-1,.02l-3.88,6.66c-1.74.84-19.22-13.07-18.44-13.94,2.88-3.2,33.46-4.91,39.86-4.55,8.12.47,19.91,1.91,27.41,4.69,1.66.62-13.06,11.97-16.38,9.64-3.99-.66-6.17-.7-6.54-.11l-2.52,10.36c-5.78-3.31-11.02-7.49-15.73-12.51l-2.78-.25Z"/><path class="cls-2" d="M303.09,521.8c-1.74-1.62-4.3-4.29-4.76-5.99-2.13-7.77-15.04-20.28-15.66-28.6-.85-11.44,5.61-22.3,7.19-33.49,2.52,20.99,7.54,40.84,16.48,59.85,2.22,4.72,4.82,9.1,3.41,14.37-2.44-2.91-4.16-5.2-6.66-6.14Z"/><path class="cls-2" d="M543.85,491.83l.08,1c-1.56,1.62-3.07,3.31-3.96,4.93-6.79,12.39-13.79,23.92-22.49,35.07-2.05-8.07,1.53-14.53,5.53-20.98,10.69-17.22,13.14-36.64,15.39-57.22,2.08,8.18,7.92,30.66,5.46,37.21Z"/><path class="cls-2" d="M286.1,398.92c2.28-1.26,3.57.07,3.86,4l-1.14,25.17c-13.12-14.88-18-33.15-19.97-51.94-.75-7.14-1.89-14.12,1.98-20.31,2.33,15.71,5.37,31.59,15.25,43.09Z"/><path class="cls-2" d="M532,274.04c-1.05-1.36,1.45-3.79,2.94-3,1.48-1.8,2.48-3.8,3-5.99-4.21,1.74-8.63,3.43-13.25,5.06-4.8,2.14-4.76-.39.1-7.59,2.7-6.7,4.45-13.7,5.24-20.98,3.25,2.05,5.92,2.9,8.03,2.52.87-4.01-1.8-11.69-5.23-15.67,5.86-1.37,7.44,4.18,9.75,7.93,9.73,15.78,3.27,36.28-10.1,40.19-.63.18-.41-2.22-.46-2.48Z"/><path class="cls-2" d="M287.26,249.75c.28-.86.58-.8.89.09,1.95-.99,3.94-2.68,5.96-5.07l1.13.12c1.02,8.32,3.79,16.2,8.33,23.64-.47,2.36-11.79-4.04-13.47-5.47,1.3,1.43.73,1.93-1.02.98-.72,3.7,1.78,6.55,3.67,10.02-3.17,1.49-6.29-.21-8.73-3.25-10.39-12.95-7.52-34.76,8.59-43.58,1.16,3.83-9.8,17.35-5.36,22.52Z"/><path class="cls-2" d="M406.9,205.22c3.95,6.97,6.13,14.49,4.6,22.85l-21.81-22.85,2.58-20.24,13.78,1.62-8.56,1.98,9.41,16.64Z"/><path class="cls-1" d="M343.06,483.84c-15.34-12.03-19.71-53.32-21.43-73.15-6,22.9-8.17,45.88-4.79,69.48-4.5-7.24-6.84-14.25-9.44-21.77-3.86-18.99-4.78-37.69-5.87-57.08-.47-8.46-3.36-16.46-4.43-24.37,11.63,21.56,2.97,66.21,16.73,92.94-1.6-18.68,1.29-41.16,5.83-58.41.3-1.15,2.55-2.24,2.84-1.68.27.53,1.03,2.06,1.09,2.79,2.13,24.48,5.28,51.05,19.48,71.25Z"/><path class="cls-2" d="M639.86,320.68l-1,.17-16.75-23.59c13.5,5.85,35.65,14.49,39.59,31.93-7.63-3.52-14.43-6.73-21.84-8.51Z"/><path class="cls-1" d="M517.94,313.01c-12.42-3.84-10.52-9.49-30.34-.44-56.03,25.55-99.67,24.98-154.67-3.51-7.21-3.74-18.99,1.5-24.84,3.96,6.09-5.49,16.23-9.43,24.48-5.48,60.35,28.92,99.52,29.16,160.69.77,8.64-4.01,18.76-2.27,24.69,4.71Z"/><path class="cls-2" d="M187.35,323.08c-.75.02-1.96.07-2.62.06-5.44-.14-10.08,3.2-15.94,6.2-5.18-10.25,32.07-30.85,37.72-31.88l-19.17,25.63Z"/><path class="cls-1" d="M528.9,380.04c-10.22,32.06.49,66.75-18.77,98.82,2.18-22.95.46-45.31-5.18-66.95l1.74-1.25c4.41,18.78,6.3,37.63,6.6,57.73,12.48-28.89,4.45-59.5,14.05-89.32l1.55.98Z"/><path class="cls-1" d="M482.97,485.84c-8.36,10.41-29.02,7.3-41.78,4.81-18.7-3.65-36.83-3.77-55.57-.17-13.36,2.57-33.04,6.05-41.55-5.64,9.15,6.1,18.66,8.03,29.91,6.03,37.99-6.77,40.98-6.39,79.03.04,11.05,1.87,20.71.5,29.96-5.06Z"/><path class="cls-1" d="M273.2,324.89c-7.97-4.06,10.5-29.46,18.09-32.56-23.61-2.25-44.96,27.69-50.14,47.04,7.59-2.81,12.93-5.53,20.5-6.61-7.2,17-8.25,34.1-5.06,51.33.19-2.79,14.88-42.35,16.54-35.67,3.09,12.47,1.71,31.89,15.05,49.15,4.1-3.85,2.58-16.48,7.91-20.64-1.54,8.65-5.73,17.2-6.13,25.97-1.2-1.24-2.77-2.72-3.86-4-8.2-15.13-14.2-31.38-13.49-49.26-5.9,10.08-9.13,20.21-12.49,30.28l-3,8.99c-.69-.19-1.27-.44-1.47-.87-6.84-14.3-3.2-35.56,1.55-50.11l-1.68-1.41c-5.84,2.67-11.86,4.81-18.07,6.41-.08-8.06,11.98-26.35,17.67-32.94l8.74-9.05c8.13-8.42,20.78-12.99,33.46-9.59-13.97,6.17-23.65,18.87-24.11,33.53Z"/><path class="cls-2" d="M552.04,176.35c-13.59,2.12-26.42-.63-38.93-5.1,13.82-2.02,26.09,1.92,38.93,5.1Z"/><path class="cls-1" d="M403.02,516.9l.99-1.88c.82-1.56,10.47,11.3,16.9,13.22l3.07-10.68c8.56,2.56,15.81-.38,21.89-7.1-21.82-6.28-42.99-5.9-65.03-.28,4.91,4.8,9.96,8.7,16,12.27l5.18-5.55-3.26,8.9c-7.59-5.21-14.46-10.32-20.91-16.82,31.96-6.84,39.5-6.73,71.36.09-7.3,7.19-13.4,13.96-24.61,10.23l-2.41,11.8c-10.76-4.67-11.87-11.78-19.16-14.22Z"/><path class="cls-1" d="M373,305.04c20.23,14.09,58.26,15.22,77.92,1.61,3.66-2.54,9.18-10.22,4.42-14-2.38-1.89-8.63,1.04-11.35,2.11,3.48-2.65,8.53-5.39,13.29-2.76,5.59,3.08-1.04,15.76-16.1,21.33-20.06,7.41-52.82,7.13-68.18-8.28Z"/><path class="cls-2" d="M262.11,180.15l-.83-1.92c11.39-1.59,22.66-4.49,34.62-3.65,1.3.09-1.12,4.07-3.2,4.17l-30.59,1.4Z"/><path class="cls-1" d="M355.79,252.08c-9.78-4.91-39.81-40.18-67.99-31.56l12.12,5.25c-5.1,6.79-8.94,11.39-9.99,19.25,2.79-1.84,4.6-3.1,7.33-3.42,1.03,12.2,4.41,21.34,12.31,30.26-6.32,2.43-10.17-1.65-16.25-4.19.25,13.35,42.28,18.08,53.12,18.41-1,3.9-2.87,6.42-5.55,10.39,12.33-2.83,11.4.8,18.01,5.45.44.31,1.94-.39,1.68-.84-3.8-6.59-4.3-15.3-2.74-15.31.33,0,.94.29,1.19.08-2.73,6.92,1.72,12.69,6.22,19.36-6.16-.84-10.41-4.52-14.84-8.57l-10.62,1.46c.5-4.24,2.48-6.95,5.5-10.12-18.25-2.54-50.48-3.82-56.23-23.95l1.02-.98c1.67,1.52,13.54,8.18,13.33,4.61-4.05-6.73-7.44-13.96-8.1-21.87-2.11-.51-4.18.87-6.2,4.14l-.98-.1-.89-.09c1.06-8.91,4.21-15.98,10.83-24.06l-17.55-4.45c11.24-5.24,24.32-5.04,35.66,1,14.6,7.77,28.38,18.18,39.59,29.84Z"/><path class="cls-1" d="M484,484.87c8.46-13.58,13.78-27.7,15.99-44.11,1.39-10.29.98-20.72,3.96-29.85.16,20.49-4.07,59.39-19.96,73.96Z"/><path class="cls-1" d="M343.09,155.99l-4.43.54,17.08,22.74c-7.97,3.81-19.67-13.27-36.49-13.67,5.18,6.19,10.18,10.52,12.31,17.53-33.39-3.41-48.09.58-68.45,21.95,14.31-21.74,39.93-27.96,65.87-23.99-3.15-7.93-9.45-13.1-16.15-18.86,15.65,1.02,26.83,9.2,40.17,17.21-3.51-7.89-15.98-22.33-22.77-29.11,4.49,1.42,8.94,3.25,12.88,5.64Z"/><path class="cls-1" d="M564.6,231.95c-7.61-21.56-21.28-34.94-46.58-34.43l10.72-4.73c-16.61-5.26-32.19,2.73-45.01,13.98-2.31-4.28,1.29-10.9,1.43-14.08-13.5.25-33.22,16.65-43.14,24.45,10.79-13.16,27.1-21.6,43.9-27.51,1.41,4.81-.45,7.5-1.12,13.55l15.23-9.11c17.05-10.19,36.14-.37,29.21.85l-4.15.73c20.63,2.75,33.64,16.05,40.85,35.8-.37,1.34-.56,1.66-1.35.51Z"/><path class="cls-1" d="M423.95,262.94l-1.49.84c-.5.28-1.83-.98-2.12-1.54l-7.11-13.91c-1.15,3.28-7.08,20.06-10.53,17.39-2.88-2.23-5.2-12.68-12.55-16.73,1.27,5.71,2.99,10.46.07,14.55-8.63,12.04-28.47-4.56-32.39-10.43,3.57,1.79,22.69,20.14,30.31,10.21,4.12-5.36,1.17-11.98-2.07-17.25,8.78,2.94,14.53,10.13,16.83,19.5,7.91-8.8,8.13-18.97,10.08-29.96,2.5,10.94,3.66,20.54,10.97,27.33Z"/><path class="cls-1" d="M464.1,282.23c-10.68-3.39-19.85.09-30.61,5.93l6.88-10.91c-6.44-1.38-12.5-3.1-18.46-3.5-5.4-.36-7.64,7.14-9.31,10.98-2.22-2.35-3.52-10.3-7.82-10.66-6.98-.59-13.94,2.7-20.6,3.12,5.96-3.43,13.91-5.07,21.57-4.62,2.84.17,5.19,6.54,6.78,8.31,2.11-3.08,4.46-8.55,8.7-8.55,7.12,0,13.84,1.78,20.88,3.73l-2.99,7.16c8.24-3.1,18.66-6.64,24.98-1Z"/><path class="cls-2" d="M521.16,150.13c3.32-6.51,10.39-3.95,19.11-15.44,1.01,10.26-8.6,14.3-19.11,15.44Z"/><path class="cls-1" d="M542.93,291.03v1c.27-.01.76-.11,1.09-.17l6.76,1.83c.38-1.91,1.13-1.68,1.14.34,3.67,1.76,7.05,4.18,9.99,6.99,2.81-.97,6.1,2.14,5,5,9.08,10.05,16.84,21.63,19.99,34.97-1.51,1.75-3.61,1.87-6.31.39-4.27-1.26-11.82-3.73-13.67-7.38,5.81-1.64,10.62,3.14,17.47,5.01-5.37-13.71-12.72-26.24-23.13-36.3-5.22-5.04-12.47-7.22-18.32-10.67l-7,.36c9.76,6.68,24.6,24.61,18.37,35.13-4.13-3.56-5.09-7.84-10.92-7.7,3.33,13.37-10.59,32.81-11.05,26.22-.61-8.8,4.01-20.66-5.47-37.67-3.85-6.91-9.23-12.5-17.15-14.13,4.69,6.14,10.84,9.52,11.14,16.99l.08,2.1c.01.37-.85.92-1.1.64l-.88-.95c.04-9.7-7.19-16.16-17.68-19.39,8.06-4.4,15.76.7,21.57,6.84,11.03,11.67,13.92,28.21,11.04,44.86,8.08-8.42,9.22-18.92,6.73-30.58,5.65,2.72,9.17,6.09,14.24,10.79-1.95-15.16-10.66-28.7-25.35-34.26,4.75-1.89,9.19-1,13.43-.26Z"/><path class="cls-1" d="M538.04,244.07c-.28,1.28,1.21,4.4.14,5.27-2.9-3.35-4.64-5.71-8.06-7.7.02,11.26-2.97,19.83-9.08,28.55,11.22-1.45,15.22-8.92,16.89-5.15-.52,2.19-1.52,4.19-3,5.99l-2.94,3c-8.88,9.07-36.25,14.35-50.92,13.11,8.17-3.55,45.5-4.32,53.79-20l-13.14,4.66c-1.28.46-1.17-4.23-.35-5.29,11.4-14.78,1.54-31.73,14.56-22.67-.34-5.9-3.73-11.64-7.91-16.08.31-.16.93-.43,1.13-.65,5.01,4.17,7.45,10.6,8.89,16.94Z"/><path class="cls-1" d="M479.15,246.07c-6.93,7.47-31.21,29.65-41.8,19.31-6.58-6.43-.12-15.63-2.74-15.39-5.55.53-7.17,9.63-8.9,13.96l-.87-1.07c.57-8.27,6.02-15.54,14.55-17.56-2.46,6.38-5.22,11.87-2,17.41,8.33,14.37,34.09-12.57,41.77-16.67Z"/><path class="cls-1" d="M563.81,231.98l-6.9,1.71c11.46,11.33,19.91,23.45,24.58,38.43l11.57,5.63c-.67-11.66-13.59-27.71-20.17-35.68,11.66,9.88,20.17,24.03,23.35,40.19-5.92-4.29-10.32-8.85-16.52-5.82-.57-16.22-16.43-35.1-26.96-45.24l11.03.78Z"/><path class="cls-1" d="M384.15,197.12c4.57,6.95,7.74,14.99,7.79,24.43-16.13-14.13-30.9-27.68-53.19-30.79,1.43,5.72,2.5,9.14,2.31,14.94l-15.26-9.22c-8.94-5.4-18.86-6.23-28.53-4.21,8.45-8.07,28.75,1.23,41.86,10.63l-1.6-13.06c15.61-1.65,37.61,14.95,48.18,24.45,8.47,7.61-.82-11.41-1.55-17.17Z"/><path class="cls-1" d="M383.96,279.05c4.09,2.67,7.81,6.51,9.99,11.53-10.45-7.84-21.06-12.32-32.08-7.54,4.32-6.14,16.3-3.7,23.83-.04l-1.73-3.95Z"/><path class="cls-1" d="M530.04,226.19l-1.2-2.4,13.09-3.18c-24.27-6.15-34.04,8.96-49.97,15.46,16.93-12.59,33.71-25.34,56.29-14.49-6.99,1.15-12.87,1.84-18.21,4.6Z"/><path class="cls-1" d="M293.97,344.87c-3.6-14.98-.76-32.8,10.12-43.85-8.79,13.61-10.63,28.11-10.12,43.85Z"/><path class="cls-1" d="M488.2,179.92c.43-6.07,8.46-9.1,7.9-14.11-14.83,3.07-28.72,19.06-35.2,22.19,12.04-13.26,27.04-23.41,45.35-27.08-7.29,6.09-12.73,12.23-18.04,19Z"/><path class="cls-2" d="M288.25,337.92c-1.79-7.02-2.53-12.63-1.93-18.95,4.41,6.33,5.88,13.22,4.57,20.94l-2.64-1.99Z"/><path class="cls-1" d="M254.12,242.07c-8.2,10.92-16.49,21.78-19.72,36.1,19.61-7.57,11.29-8.68,16.62-18.12,5.5-9.74,11.92-18.27,19.07-26.82-3.72.2-6.76.39-10.6.19,5.05-19.83,20.71-34.04,39.42-37.46l-2.25-1.32c-.38-.22-.71-.19-.45-.44l1.12-1.08c3.32,1.01,6.75,2.09,10.31,4.43-25.04.12-37.83,11.6-46.57,34.68l13.53-1.85c-11.18,13.68-24.21,26.39-25.67,44.47-6.82.95-11.94,3.26-17.13,7.6,2.9-15.57,10.57-30.36,22.32-40.38Z"/><path class="cls-1" d="M458.13,188.05c-4.49-.98,8.7-13.41,4.48-12.79-12.07,1.79-26.01,31.33-25.85,44.66l4.28-1.79-6.95,7.19c1.83-22.81,13.59-49.85,36.75-56.52-5.47,6.38-9.82,12.24-12.7,19.25Z"/><path class="cls-1" d="M525.94,181.13c.79.29,2.21.93,3,1,7.82.73,22.13,8.81,27.05,14.93-18.83-14.11-42.29-19.6-65.38-14.17-.63.15-1.78.23-2.17.22-.58-.02-.25-1.58-.25-2.16l3.77.18,3-1c7.69-1.25,22.76-1.74,30.98,1Z"/><path class="cls-1" d="M288.25,337.92c.72,1.19,1.35,3.85,1.85,5.24-7.08-5-7.53-15.01-7.22-24.41-2.59,1.87-4.99,4.35-7.16,6.91l-1.2,1.42c-.34.41-1.11-.88-1.27-1.39,3.64-3.47,6.49-7.93,12.19-9.46-2.67,6.63,0,17.03,2.82,21.7Z"/><path class="cls-1" d="M435,304.01c-4.09,5.7-17.05,12.2-25.63,9.8s-18.08-7-22.31-15.84c8.47,10.62,35.57,22.92,47.94,6.04Z"/><path class="cls-1" d="M534.23,402.92l-4.44-22.84c4.85,3.8,1.29,11.86,6.17,17.61,10.63-13.22,14.38-30.51,16.01-46.5.1-.99,1.04-2.78,1.59-3.35.69-.71,2.71,1.3,3.17,2.35l12.25,27.91c4.2-16.47-2.57-30.82-3.07-43.11l2.83,2.03c4.13,9.96,8.94,41.18,2.31,49.23-1.55,1.87-2.25,2.15-3.53-.14-3.48-10.52-7.65-20.72-12.53-30.61.26,10.01-10.31,43.35-18.63,46.85-.67.28-1.39.44-2.12.57Z"/><path class="cls-1" d="M307.08,313.01c-6.19,3.22,2.77-15.55,12.24-18.47-4.71-.8-8.6,1.81-12.26,3.46,4.51-4.58,11.35-8.32,18.03-3.61-10.44,2.77-17.49,8.89-18.01,18.62Z"/><path class="cls-1" d="M480.21,288.08c3.26,2.44,6.13,5.42,7.14,10.13l-12.44-2.03c-3.68,4.57-6.2,9.02-12.48,8.67,3.86-5.33,6.01-10.17,5.55-15.83,5.31-4.15-1.07,11.01-1.7,13.09,10.38-4.63,1.1-8.28,19.08-6.28l-5.15-7.75Z"/><path class="cls-2" d="M536.87,338.84c-1.18-4.51-2.62-10.36,2.88-12.87-.09,4.11-.85,8.26-2.88,12.87Z"/><path class="cls-1" d="M577.9,230.09c-4.51-2.81-6.06-8.2-9-13.03l-10.95-17.99c6.9,6.15,15.46,22.94,19.96,31.02Z"/><path class="cls-2" d="M507.56,125.36c-1.1-3.54-1.59-6.85-1.45-9.82,5.25,1.83,4.18,6.68,1.45,9.82Z"/><path class="cls-1" d="M244.13,233.08c8.56-6.33,7.97-13.33,16.15-23.98,2.45-.04-11.58,25.18-16.15,23.98Z"/><path class="cls-1" d="M572.3,240.39c-.1-.38-.18-1.63.21-1.71l9.42-1.99-1.08-3.53,4.7,3.21c-5.16,1.89-8.76,2.96-13.25,4.03Z"/><path class="cls-2" d="M503.19,102.12c.77,3.63,1.96,7.33,1.1,11.24-2.06-3.79-1.75-7.99-2.95-11.35l1.84.1Z"/><path class="cls-1" d="M253.95,240.24c-3.53-.23-9.69-1.75-12.41-3.37-.79-.47.95-2.29,1.57-2.81,1.24,4.95,7.31,2.34,10.85,6.18Z"/><path class="cls-1" d="M386.09,296.98c-3.71-1.89-11.08-6.21-16.03-5.03-.56,3.48.72,9.4,1.96,12.1-2.86-2.65-6.24-9.06-2.1-12.06,5.36-3.88,12.68.53,16.17,4.98Z"/><path class="cls-1" d="M361.09,167.12l-11.12-6c-2.34-1.26-4.48-3.15-5.9-5.1,4.74,1.9,13.22,7.06,17.03,11.1Z"/><path class="cls-1" d="M384.13,196.12c-5.56-5.59-9.84-13.13-14.06-20.03,4.5,4.17,10.82,14.1,14.06,20.03Z"/><path class="cls-1" d="M369.1,175.1c-2.75-1.86-5.12-4.26-7.02-6.99,1.86,1.64,5.37,5.13,7.02,6.99Z"/><path class="cls-1" d="M494.96,180.14l-3,1c.8-.29,2.22-.87,3-1Z"/><path class="cls-1" d="M437,302.02l2.21-3c.51.73.75,1.17.25,1.48l-2.46,1.52Z"/><circle class="cls-2" cx="443.49" cy="186.63" r="1.01"/><circle class="cls-2" cx="505.45" cy="114.7" r=".17"/><circle class="cls-2" cx="262.61" cy="378.44" r=".17"/><path class="cls-2" d="M534.23,402.92c12.12-15.35,18.89-33.52,18.92-54.38,7.71,11.89,11.88,24.49,16.33,38.22,5.23-17.88,2.22-35.85-3.58-51.77l1-1c6.86,2.05,13.36,5.91,19.99,6.99-3.13-13.31-10.93-24.93-19.99-34.97-1.72-1.59-3.57-3.16-5-5-2.96-2.82-6.3-5.22-9.99-6.99l-1.14-.34c-1.85-2.52-5.07-3.09-8.81-4.45,9.08-.18,18.82-1.53,28.18.72,15.67,3.77,29.72,14.07,38.31,27.95-2.8-.54-30.3-15.81-24.12-5.46,10.78,18.02,17.75,39.2,14.6,60.73-5.26-7.57-10.57-14.02-17.95-18.83,3.27,21.96-1.82,43.84-17.62,59.09,1.56-14.13,1.36-26.87-7.95-37.18l-3.25,14.05c-2.95,14.11-7.75,27.5-16.84,39.2-.83-9.61.49-18.33-1.11-26.59Z"/><path class="cls-2" d="M652.67,397.81c2.15,1.35,5.12,4.38,7.18,6.11.33,2.6,3.29,5.02,4.78,7.63l-2.85-1.08c-.53-.2-1.47-.32-1.54.24-2.56,20.77.58,31-16.22,52.72,12.28,2.46,21.07-5.45,27.52-14.56-.99,5.94-2.35,12.63-5.86,17.72-9.8,14.21-27.74,7.64-31.34,8.2-1.51.24-.03,12.83-7.23,17.4l-8.31-20.25c-3.75,17.97-13.91,44.21-23.75,57.87-3.97,5.51-7.59,7.66-13.36,10.88-12.23,6.82-22.97,16.65-37.88,19.12,5.48-11.22,11.15-21.34,15.1-32.03-.02-.37-.1-.78,0-1,5.23-5.08,6.69-12.68,10.67-20.09,2.16,7.5,2.01,14.71,2.48,24.03,26.64-22.67,37.5-52.39,45.87-86.07,7.93,6.56,9.78,30.56,15.56,20.72,12.28-20.91,16.29-44.95,13.19-69.4,2.26.51,4.85,1.12,5.99,1.83Z"/><path class="cls-2" d="M744.93,468.76c-4.35-4.46-7.17-15.92-14.13-19.89-.2-.29-.73-.73-1-1-1.04-2.04-2.37-3.37-4-4-3.44-3.44-6.5-7.33-11.04-10.15,10.39,22.3,14.5,57.2-4.04,74.92,4.68-13.43,2.93-34.8-2.9-45.79-.71,1.33-1.21,2.16-1.2.75-3.07,16.11-9.98,31.41-18.78,45.21-4.13,5.23-7.94,11.08-13.44,15.49-8.1,6.49-16.09,12.29-24.54,17.48-3.52-1.18-5.9,3.35-10.57,3.04,5.75-7.01,11.95-12.43,18.19-18.37,26.89-25.58,48.01-56.33,35.61-96.1l16.54,12.04c4.5-24.49-13.33-46.44-28.04-64.37,32.16,14.1,55.36,37.51,60.72,73.21.93,6.22,1.3,11.96,2.62,17.53Z"/><path class="cls-2" d="M744.93,468.76c7.72-4.86,5.66-22.06,5.61-30.3,4.78,8.53,13.02,16.38,14.21,26.06,1.42,11.57-6.8,23.75-14.47,32-1.71-10.35-3.25-18.95-5.35-27.76Z"/><path class="cls-2" d="M781.77,420.9c-.8-.51-2.2-1.59-3-2-7.9-8.49-21.3-9.68-31.55-15.84-9.31-5.59-15.04-16.37-24.7-23,24.36,5.16,44.04,17.86,62.67,32.48,4.41,3.46,6.58,8.68,8.33,14.2l-10.62-6.73c-.24-.15-1.44,1.07-1.13.89Z"/><path class="cls-2" d="M44.08,424.77c-.48.19-1.37-.23-1.84-.45-.32-.14.48-1.6.74-1.89l10.37-11.47c14.4-15.92,34.63-24.83,55.86-30.57-9.51,6.98-15.68,17.8-25.39,24.04-8.54,5.48-19.95,5.96-27.7,13.5-4.6,1.62-8.9,3.78-12.04,6.84Z"/><path class="cls-2" d="M111.23,497.77c-.9-.73-1.78-1.42-2.07-1.9-7.98-13.11-16.77-44.7-7.69-58.99-1.06,13.34,5.84,29.21,11.02,42.39,2.67,6.78,1.51,13.42,2.77,20.66l-4.03-2.15Z"/><path class="cls-2" d="M184.34,540.74c-.28-.12-.77,0-1.18.04-5.93-5.18-12.36-9.76-18.99-13.99-1.33-1.06-2.83-2.7-4-4-.48-.92-1.01-1.65-2-2l-3-3c-.82-1.92-2.15-3.58-4-5-.32-.27-.98-.81-1.18-1.18-3.21-5.79-10.51-16.59-12.5-23.51,11.91,12.79,23.33,26.83,37.3,37.87,6.59,5.21,12.8,9.98,16.2,17.53l-6.67-2.79Z"/><path class="cls-1" d="M153.19,416.9c-.94-6.94-2.08-14.4,0-20.98v20.98Z"/><path class="cls-1" d="M71.24,486.84c-.02-1.46-.12-3.63,0-5,.66.95.33,3.34,0,5Z"/><path class="cls-1" d="M153.19,389.93l1-4-1,4Z"/><circle class="cls-2" cx="136.7" cy="486.34" r=".17"/><path class="cls-4" d="M243.13,535.79l-5-5c2.21,1.05,3.9,2.81,5,5Z"/><path class="cls-4" d="M412.01,624.7c-.8.6-3.34,2.52-3.62,1.25-3.83-17.97-13.12-26.52-23.37-40.21,6.98,5.83,18.31,20.01,21.33,28.71,1.8,5.21,2.93,7.52,5.65,10.25Z"/><path class="cls-4" d="M433,604.85c1.58-2.52,4.74-6.63,7-8.13-1.84,3.11-4.17,5.92-7,8.13Z"/><path class="cls-4" d="M455.98,576.75l-14.99,18.98c-2.17,1.49,19.14-29.51,14.99-18.98Z"/><path class="cls-4" d="M421.01,616.71l-2,2,.35-1.85c.1-.55,1.68-.7,1.65-.15Z"/><path class="cls-4" d="M375.04,575.75l-3-2c.5-.5,1.28-.87,1.58-.38l1.42,2.38Z"/><path class="cls-4" d="M377.04,577.75l-1-1,1,1Z"/><path class="cls-4" d="M467.98,580.74c-.54-.41-1-.68-.68-.89l1.67-1.11c-.24.53-.6,1.6-1,2Z"/><path class="cls-2" d="M492.93,607.71c-3.46,3.58-8.05,7.04-9.96,11-7.08,5.44-14.21,10.49-21.99,14.99-6.49.31-11.79,6.34-18.74,8.36l-1.8.52c-.51.15-.35-1.72-.33-1.88.57-.38,1.4-1.45,1.88-2,.92-.41,1.7-.92,2-2,.53-.55,1.43-1.57,2-2,1.57-.15,2.91-1.15,4-3,1.2-2.13,4.2-4.59,6-5.99,2.63.86,4.68-3.57,6-5.99.83-.56,2.55-1.77,2.99-2.67,3.55.7,8.17-.52,12.02-2.24l15.94-7.09Z"/><path class="cls-2" d="M492.93,607.71c1.26-.56,2.47-1.33,2.89-1.49l-2.89,1.49Z"/><path class="cls-4" d="M252.03,596.62c-3.31-1.41-8.1-5.36-9.9-8.03,4.03,1.71,8.49,3.9,9.9,8.03Z"/><circle class="cls-1" cx="603.39" cy="398.42" r=".17"/><path class="cls-4" d="M707.82,462.86c-3.81,16.62-9.37,32.51-19.99,45.96,7.03-13.57,16.48-32.6,17.82-45.51.15-1.45,1.98-.78,2.16-.44Z"/><path class="cls-4" d="M155.19,517.8l-4-5c1.39,1.16,4.95,3.2,4,5Z"/><path class="cls-4" d="M729.8,447.87l-4-4c.33-1.4,2.01.2,2.41.98l1.59,3.02Z"/><path class="cls-4" d="M445.99,634.69l4-3-1.72,3.05c-.38.68-1.85.76-2.28-.05Z"/><path class="cls-4" d="M441.99,638.69l2-2,.79,1.01c.3.38.47.45.15.51l-2.93.48Z"/><path class="cls-4" d="M183.17,540.78c-6.48-4.41-12.84-9.1-18.99-13.99,6.65,3.27,13.89,8.22,18.99,13.99Z"/><path class="cls-4" d="M160.18,522.8l-2-2,2.52.31c.67.08-.17.96-.52,1.68Z"/><path class="cls-4" d="M352.87,411.03l1.08.6c3.35,18.4,10.39,34.81,21.11,49.25l2.69-.16c1.08-5.22,3.18-8.78,6.29-10.67l.58,1.79c.1.31,1.11-.23,1.42-.14,3.46,3.56,6.56,7.46,9.3,11.7l1.66-.08c3.08-4.96,7.26-9.97,12.02-3.45.27.28.72.78,1,1,1.5,2.37,3.09,3.2,4.75,2.48,4.41-9.01,10.98-8.63,13.84.89l1.92.06c1.91-2.44,4.4-5.25,7.47-8.42,1.87-2.45,4.32-4.67,7-5.99l1.22,1.23c1.93,11.06,4.88,12.72,8.87,4.97,8.31-14.06,14.27-29.11,17.88-45.17h1c7.93,14.67,12.1,35.35,7.06,51.57-1,3.21-2.89,9.11-6.08,9.31l-.74-3.24c3.04-7.19,4.71-14.9,4.68-22.7-1.48,8.6-3.24,17.1-5.29,25.48l1.34.46c1.53,2.03-1.87,5.47-3.63,7.23-4.34,4.35-9.69,4.25-15.42,3.39-27.41-7.59-55.44-8.93-83.12-.17-7.91,3.91-23.62-5.46-24.45-13.26-.04-.34.29-.73.73-1.12,1.82-.49,3.69.64,5.63,3.4-.94-6.37-4.68-21.06-6.83-27.14-.33-.94.69,18.25,2.23,19.86l-1.03,3.88c-.64.05-1.16.03-1.26-.18-7.82-16.39-5.18-40.82,3.39-56.73.21-.39.85-.56,1.6-.66.02.24.04.57.09.75Z"/><path class="cls-3" d="M448.77,399.34c18.18,6.45-1.67,32.59-8.63,39.71-12.57,12.88-32.89,15.06-47.53,4.24-10.71-7.91-28.53-30.5-21.14-41.19,1.27-1.83,4.94-3.25,7.61-4.01,15.58-4.41,28.85,3.27,32.95,20,4.36-17.82,20.89-24.39,36.75-18.76Z"/><path class="cls-4" d="M458.98,363.82l-1,.03c-1.47.27-2.53-.75-3.16-3.05l-3.37-13.17-1.95-.27c-6.2,9.79-11.43,10.84-15.69,3.16l-2.13-.6-9.69,6.04c-.5.07-1.47-.16-2-.25-.32.68-.65.65-1-.04-1.26-1.66-3.74-5.31-5.73-5.58-1.4-.19-3.43,2.71-4.26,3.87-1.05,3.82-5.99,3.12-8.18,0-1.64-2.17-4.24-4.3-6.56-6.12l-3.4,7.82c-.41.95-3.22.56-4.13.17l-8.5-8.16h-1.97c-.94,5.88-2.35,11.64-4.23,17.27-.35-.02-.77-.08-1,0-10.01-4.63-15.26-18.43-15.99-28.97l2-4c-1.05-1.44,1.6-2.9,3.31-2.83,33.35,13.57,71.35,10.76,105.17,1.03,2.48-1.71,7.23,5.81,7.39,6.83s-5.24,14.86-6.36,16.95c-1.97,3.69-4.3,7.17-7.58,9.85Z"/><path class="cls-4" d="M349.96,385.95l-1.01-.09c-3.56-3.29-6.84-6.86-9.82-10.69l.1-1.28c1.1-1.32,1.86-1.39,2.96-.3-8.73-21.16-13.1-31.73-13.1-31.73.67,10.45,5.4,20.01,10.62,28.93l-.48,3.1c-.61.05-1.14.03-1.38-.24-8.61-9.85-22.79-46.6-6.71-53.78,6.68-2.98,22.76,6.88,20.21,15.6-1,16.83-1.47,33.66-1.39,50.48Z"/><path class="cls-1" d="M489.8,370.81c6.08-11.93,12.23-24.39,10.64-38.39l-1.36-.57c-1.6-8.63-2.24-10.84-11.05-8.5-9.57,2.54-9.98,6.13-10.33,15.99.47,13.96,1.02,27.73,1.66,41.32,1.59-2.13,3.03-4.36,4.32-6.69,1.15.3,2.21-.12,3.17-1.25.51-.68.85-.66,1.17.15-1.25,5.99-6.31,11.81-13,13.46l-.25-25.26-1.23-23.49c-3.48,9.94-5.82,21.42-14.54,26.25,5.03-5.94,18.04-27.12,8.63-32.91-.73-.45-59.11,18.44-102.27,1l-5.1-2.06c-1.02-.41-2.65,1.04-3.19,2.13-.37-.24-1.41-1-1.06-1.38,4.3-4.52,7.83-.71,12.04.53,29.74,8.8,61.8,8.3,91.51-.34,2.73-.79,5.85-2.49,8.43-1.41,1.98.83,3.19,4.09,5.5,7.39l.53-8.71c5.29-4.03,11.36-8.59,18.2-9.62,18.35-2.76,10.22,47.03-2.4,52.35Z"/><path class="cls-1" d="M352.79,410.28c-8.04,13.16-9.85,30.03-8.08,45.72.51,4.52,3.25,8.23,4.35,11.85,3.4,11.12,14.15,16.67,26.06,13.06,63.17-19.18,90.22,17.59,99.83-9.13,12.87-13.77,6.13-44.97-.98-60.88,11.69,15.23,16.74,54.34-4.55,70.38-4.75,3.58-11.52,2.88-17.12,1.31-55.82-15.69-80.07,6.87-92.45-.29-33.67-19.48-8.73-80.39-7.35-73.47l.29,1.44Z"/><path class="cls-1" d="M349.96,385.95c-2.83-18.34,1.58-37.21.02-57.6-4.58-4.1-9.92-7.68-15.98-8.19-12.21-1.03-13.39,32.81,5.22,53.73,3.25,3.65,5.99,8.43,9.72,11.97-16.89-13.07-27.87-34.36-25.33-55.82.6-5.09,4.39-9.64,7.89-11.13,4.69-2,8.98,1.24,12.89,3.61,5.44,3.3,8.31,6.73,7.98,13.4l-2.42,50.03Z"/><path class="cls-1" d="M472.97,410.91c-3.82,19.83-9.91,38.97-24.72,54.41-.78-6.05-1.07-11.16-3.26-15.44.09-.16.5-.87.54-.9.05-.04,1.03,1.25,1.12,1.53l3.44,10.26c13.6-11.66,21.02-49.74,22.1-51.32.19-.27.43-.39.49-.07l.28,1.54Z"/><path class="cls-1" d="M384.03,450.05c-4.37,2.94-4.39,11.36-6.31,14.59-12.65-9.8-21.32-38.9-24.85-53.6-.11-.28,2.07-.12,2.26.77,3.16,14.89,8.81,36.51,20.99,48.83,4.41-2.39.49-9.74,8.29-11.89.46-.13-.52.85-.37,1.3Z"/><path class="cls-1" d="M371.04,364.95c-6.75,2.27-19.25-22.46-15.99-28.97,2.53,10.85,6.63,22.76,15.99,28.97Z"/><path class="cls-1" d="M457.98,363.85c-3.99,5.91-6.24-14.2-7.54-16.22-3.65,4.18-6.42,8.01-11.19,9.54l-6.82-6.48c-2.91,1.54-7.59,4.9-10.43,5.29l11.81-8.93c.78,2.53,3.07,8.78,5.63,8.25,5.96-1.23,8.13-7.83,12.05-11.78,2.03,7.62,1.93,15.23,6.49,20.33Z"/><path class="cls-1" d="M386.75,355.84c-2.77-1.16-7.06-5.22-9.52-8-1.66,6.29-1.9,12.59-5.19,17.11l3.97-21.05,10.74,11.94Z"/><path class="cls-1" d="M409.02,459.86c-1.04-1.12-4.59-3.22-6.11-2.29-2.72,1.66-4.45,4.99-6.49,8.46l-10.38-14.34c5.28,1.47,8.82,13.09,10.28,11.13l2.05-2.75c1.31-1.76,4.03-4.04,6.16-4.21,1.64-.13,3.79,2.33,4.49,4Z"/><path class="cls-1" d="M438,455.87l-8.3,10.9c-2.73-4.76-3.34-10.1-8.56-9.19-3.02.52-5.15,5.27-7.62,8.42l-3.51-5.12,3.87,3.06c2.24-4.41,4.15-7.43,7.56-7.88,3.64-.48,6.43,4.61,6.97,7.16,1.43,6.77,8.87-12.52,9.58-7.33Z"/><path class="cls-1" d="M409.02,353.97c1.68,1.79-2.11,3.88-4.37,3.64-1.6-.17-2.76-2.25-3.8-3.64,2.29,2.23,6.75,2,8.18,0Z"/><path class="cls-4" d="M489.8,370.81c-.39.56-1.3,1.51-1.79,2.05l-1.17-.15c-.06-3.58,1.42-7.25,4.44-11,2.47-.79,7.05-21.19,6.58-20.23-4.19,8.61-9.05,20.37-12.24,29.42-.22.61.57,1.34,1.22,1.82-2.95,4.31-4.68,9.11-9.78,12.92l-.13-16.84c-.1-13.3-2.89-26.99.07-40.14,1.05-4.68,10.19-7.22,14.15-8.29,13.15-3.53,14.29,27.9-1.35,50.45Z"/><path class="cls-1" d="M419.01,355.67l1,.04c-.54,1.68-.59,1.67-1-.04Z"/><circle class="cls-1" cx="353.55" cy="334.48" r=".17"/><path class="cls-3" d="M338.91,251.09l.68,1.17c-3.19,9.99,7.39,14.52,15.8,12.35l3.44,1.31c.42-.44.79-.37,1.11.17.4.86,2.14,2.86,1.31,3.41-6.77,4.47-18.59,8.45-27.12,5.58-13.68-4.6-20.75-19.39-17.03-33.02,2.7-9.89,19.41,6.35,21.82,9.03Z"/><path class="cls-3" d="M467.98,265.15c.29-.56.64-.56,1.03-.03l2.54-1.07c9.68,3.45,16.85-2.5,16.62-12.49l1.71-1.34c5.57-4.86,10.45-10.13,18.57-11.43,4.26,11.49.64,26.79-10.45,33.3-14.22,8.35-34.78-2.31-32-5.02.51-.5,1.73-1.31,1.97-1.92Z"/><path class="cls-4" d="M340.06,251.07c7.12,3.08,13.93,8.71,18.76,14.85-6.03,1.49-13.26,2.22-18.13-2.25-3.89-3.58-5.49-9.34-1.79-12.57l1.16-.02Z"/><path class="cls-4" d="M489.88,250.22c.43,5.33-.67,11.04-4.99,14.22-4.65,3.43-10.89,3.19-15.88.67,4.73-5.8,10.73-10.48,18.02-14.04l2.85-.86Z"/><path class="cls-1" d="M359.94,266.08l-1.11-.17c-5.69-5.46-12.19-10.41-18.76-14.85-.34-3.84,17.96,10.92,19.87,15.01Z"/><path class="cls-1" d="M487.03,251.08c-5.83,5-12.93,8.45-18.02,14.04l-1.03.03c2.1-5.2,14.62-12.73,19.05-14.06Z"/><path class="cls-4" d="M586.9,340.98c-4.25-13.17-11.67-24.05-19.99-34.97,9.74,9,18.29,22.09,19.99,34.97Z"/><path class="cls-4" d="M561.91,301.02l-9.99-6.99c4.05,1.2,7.42,3.69,9.99,6.99Z"/><path class="cls-4" d="M255.12,310.01c-7.07,9.97-12.94,20.79-17.36,32.85l21.72-8.73c-6.72,18.68-9.72,37.99-2.36,54.8-.16.49,1.42,1.29.91,1.49l-1.28.51c-.33.13-1.5-1.04-1.65-1.43-6.47-16.42-4.5-35.03,1.48-52.56l-14.87,5.9c-1.28.51-3.75.39-5.82.02,4.22-10.46,8.29-19.63,14.48-28.86,1.16-1.73,3.64-2.86,4.74-4Z"/><path class="cls-4" d="M534.93,271.05l3-5.99c.74,1.67-1.57,4.54-3,5.99Z"/><path class="cls-4" d="M290.1,263.05l12.49,5.31c-4.13-8.48-7.35-14.25-7.95-22.82-3.73.64-4.1,7.27-6.49,4.29l7.56-7.58c.63,11.93,4.36,19.84,12.17,29.51-7.1-1.56-13.47-4.02-17.78-8.71Z"/><circle class="cls-1" cx="512.45" cy="469.35" r=".17"/><circle class="cls-1" cx="389.53" cy="216.6" r=".17"/><path class="cls-2" d="M349.06,467.85c-3.92-13.67-4.36-26.48-1.54-39,.91,6.75,1.68,12.92,3.29,19.21l7.22,28.22c-4.57-2-6.46-5.3-8.98-8.42Z"/><path class="cls-2" d="M474.95,471.79c-1.85,2.29-3.23,3.24-5.35,3.93,5.11-15.35,8.16-29.68,8.75-45.92,4.54,14.08,2.76,28.96-3.4,41.99Z"/><path class="cls-2" d="M339.22,373.89c-8.17-13.57-14.56-27.24-11.35-41.94,4.44,13.96,9.43,26.62,15.69,39.67.84,1.75,1.01,3.5,1.1,6.4l-5.44-4.13Z"/><path class="cls-2" d="M486.84,372.71l-2.71,1.19c-.49.21-1.45-.93-1.26-1.43s.71-1.85.98-2.5l15.84-38.04c2.01,15.48-4.56,28.72-12.84,40.79Z"/><path class="cls-2" d="M498.59,327.17l-.16,3.71.16-3.71Z"/></g></g></svg>