<?xml version="1.0" encoding="UTF-8"?><svg id="Layer_2" xmlns="http://www.w3.org/2000/svg" viewBox="0 0 829.97 724.48"><defs><style>.cls-1{fill:#fdfeff;}.cls-2{fill:#030404;}.cls-3{fill:#0b85c8;}</style></defs><g id="Layer_1-2"><g id="J8dXOU"><path d="M696.7,542.44c-19.23,32.11-52.25,55.42-86.88,68.09l.72-19.42c.3-8.18-1.07-16.18-5.88-23.64-7.2,15.85-13.77,31.64-17.19,48.53,10.89,19.12,7.76,36.2-5.45,53.46-9.61,12.55-21.41,23.08-34.53,31.34l-.07-10.67-11.13,8.38c-13.18,9.92-26.86,18.57-42.15,24.67-4.18,1.67-7.65,1.76-11.91.13-20.11-7.68-37.67-19.12-54.08-33.82l-1.49,12.6c-27.18-16.04-47.01-37.42-56.3-67.68-2.23-7.28-.14-15.15-.08-21.92-1.75-6.83-25.88-32.92-32.5-30-5.83,2.57-4.02,19.13-5.01,25.87-61.66-22.43-115.44-63.01-148.78-120.15-4.78,11.05-5.36,21.46-7.4,32.81-9.66-8.11-17.32-17.49-23.68-28.31-17.19-29.23-23.48-59.09-22.05-94.03l-43.8,18.89c3.17-23.37,9.45-45.56,18.58-67.75-31.11-23.69-66.17-37.97-105.63-45.2,38.75-33.41,81.44-59.66,128.09-80.48-19.38-30.53-21.24-60.1-22.16-95.77-3.8,5.4-4.52,10.81-7.55,16.61-23.1-39.24-31.06-91.97-17.57-136.16,1.03-3.36,2.61-6.26,5.37-8.82,14.58,26.42,44.03,44.53,71.29,56.42,22.74,9.92,45.38,17.84,69.44,24.7,38.3,10.92,75.71,21.6,114.82,29.81,72.17-5.54,92.28-4.2,160.51,13.81,18.84,4.97,40.14.45,58.7,11.55,1.57-7.05,3.91-8.59,9-10,12.37-3.42,24.75-4.97,37.56-7.34,53.12-9.52,104.5-27.61,138.39-73.49,17.93,43.16,14.18,92.13-10.83,131l-4.92-8.66-4.31,28.54c-1.89,12.55-7.29,24.48-10.09,36.7l19.21,35.68c-5.16,2.91-11.49,3.85-15.38,8.36-11.15,12.94,6.45,40.65,13.46,53.33l5.87,10.61c30.48.98,63.65,9.73,91.08,23.01-28.66-4.4-55.2-8.64-84.22-7.68.3,5.37,2.57,9.98,4.2,15.13,25.17,7.3,49.7,15.75,72.47,31.53-23.3-5.33-44.82-14.44-68.82-16.86l3.42,25.8c16.03,10.31,29.78,22.91,41.55,38.13.61.79.3,1.52-.3,1.54-.48.01-.88-.32-1.52-.78-12.1-8.79-24.2-16.8-38.57-23.4-1.15,16.78-1.28,32.87-4.71,49.8l-11.84-8.26c-4.44,30.67-17.16,67.21-42.55,86.18-.88-4.66-.45-8.53-2.38-12.73ZM133.58,166.06c3.58,28.77,19.81,49.6,41.06,68.93,6.31,5.74,11.82,11.63,16.59,18.73,1.62-14.91-4.07-28.45-13.67-38.66-4.38-4.66-8.23-9.84-11.68-15.21,15.67,7.25,33.16,10.04,50.34,3.2-22.74-8.4-39.88-23.62-49.65-45.2,16.86,5.82,33.61,9.92,51.07,8.39-14.71-8.71-27.99-16.99-41.22-26.94-17.04-13.43-32.66-27.85-45.02-47.05,20.32,12.36,39.51,22.99,61.43,30.72,22.92,8.09,45.26,14.78,68.74,21.04,15.01,4,29.27,7.98,43.72,13.22,6.56,2.38,12.91,4.34,18.78,8.73-20.18.03-43.32-.49-60.55,10,10.16,4.68,20.01,8.19,29.48,14.16-21.4-4.51-48.34-8.31-68.52-.21,11.99,11.35,25.77,18.34,41.24,23.53-19.61.45-42.43,3.11-59.31,18.01,10.4,3.96,20.77,5.52,31.63,8.32-44.5,26.81-78.8,58.68-102.21,104.5-.76,1.49-1.15,2.59-.92,3.8-5.03,6.59-8.33,14.68-11.23,23.38,19.8-18.01,39.7-34.25,63.38-47.63-6.82,14.2-13.99,26.17-17.85,40.86-8.63,32.89-9.09,67.5.25,100.94,6.49-15.55,12.96-29.63,24.31-41.77,7.56,41.97,34.03,85.73,63.89,115.6-3.55-15.21-6.36-29.23-3.74-44.7,14.04,31.61,33.7,59.83,61.52,83.1,2.56-13.65,5.04-26.28,12.09-37.82,8.41-13.76,22.54-19.81,38.01-17.46,1.33.2,2.39,1.13,4.24,1.28-9.36-23.01-21.7-49.22-39.67-67.81l2.75,38.82c-32.32-13.14-54.41-52.63-50.87-85.95,9.34,6.06,17.29,10.83,26.71,14.91,21.65-27.82,54.38-48.25,91.11-43.71l-1.26-17.16c-41.99.37-80.89,11.04-120.07,27.46,34.19-28.83,77.02-40.85,120-42.87,1.32-.06,1.91-4.48.73-4.82-45.97-10.83-90.16-10.87-137.9-5.98,48.25-17.1,95.8-20.26,145.93-9.94-16.33-10.34-33.11-15.03-50.73-19.68-29.2-7.7-58.38-10.62-89.06-12.55,19.36-4.24,39.06-6.03,59.23-5.91,38.21.23,64.11,9.58,98.16,25.48,5.62-7.45,11.7-13.49,18.4-19.45-12.52-.21-40.95,1.91-49.99-7.05l-13.1-12.99c-3.23-3.2-25.33-3.18-38.64-23.73,8.74,2.71,16.18,5.44,25.22,5.01-13.71-22.53-51.56-23.29-75.25-23.27,31.13-11.19,63.64-16.12,96.29-17.67,16.25,4.46,35.54,19.91,49.99,29.97,9.42,6.56,18.19,13.27,29.44,16.58-6.68-7.56-11.18-14.89-16.7-22.84-5.01-12.62-10.6-25.31-10.17-40.45,14.76,18.72,24.52,39.22,42.8,55.21,5.44,4.76,11.54,9.42,18.56,11.67,5.14,1.64,10.8-1.65,15.17-3.92,14.9-7.73,4.24-24.36,1.04-36.56,6.89,8.07,16.48,12.33,23.79,19.67,6.61,6.63,2.61,19.01-2.31,26.59,11.33,5.45,21.73,11.7,27.9,23.61-3.54.43-6.48-2.04-9.57-3.62-11.48-5.86-24.28-8.9-37.15-4.79,16.67,4.32,32.32,12.63,40.87,28.33-10.86-5.11-19.26-12.1-30.96-11.77-1.69.47-.72,4.66-1.51,6.48-21.82-20.09-47.91-19.19-72.17-7.57,18.68-.65,36.83,5.01,52.24,16.15-7.83.11-14.28-1.37-20.38,1.57-12.22-1.62-30.71-4.2-38.78,7.51,17.45,6.99,33.07,16.31,46.79,29.24-17.29-2.8-34.35-14.21-50.97-17.91-7.44-1.66-9.71,3.23-15.87,6.37,25.15,6.04,49.08,15.97,68.8,34.42-18.51-6.56-35.47-15.44-54.96-18.72-5.89-.99-11.26-2.56-16.92-1.54.45,4.48.8,8.3,2.16,12.35,14.54.87,28.31,4.26,39.97,12.85-15.84-.88-34.51-7.14-42.32,8.85-3.79,7.76-5.21,16.34-4.85,25.36,34.14-39.07,78.9-10.8,113.05-10.61,11.67.06,23-4.4,32.37-11.19-4.03-11.58-10.63-20.81-17.88-29.62-1.36,1.41-.34,4.83-1.96,5.18-15.24,1.29-28.39-10.99-30.3-26.05-.56-4.39-2.05-7.5-3.3-10.99l-4.46-12.47c7.14,1.66,13.61,15.16,22.7,4.91,4.03-4.55,9.49-5.8,15.01-3.47l21.57,9.12c13.31,5.63,27.13,3.31,39.69-3.4,10.23-5.47,13.31,5.1,19.46,11.02,4.39-4.24,9.13-5.91,14.56-8.16-1.87-2.56-4.39-1.18-6.76-2.97,24.23-10.41,41.74-4.02,57.28,16.38,3.38-.25,6.16-1.27,8.93-1.73,3.98-.65,8.09-.76,11.92-2.06.71-.24,1.68.38,2.42.02,1.08-.52.64-1.9-.06-3.08l-19.82-33.23c-5.31-8.89-8.4-18-8.48-29.09-6.96,3.95-11.29,9.73-15.36,16.26,3.74.92,6.89.19,9.13,3.11-4.19,4.96-9.82,6.41-14.81,10.56,10.11,2.65,19.11,8.24,23.3,18.39-15.27-8.12-32.43-8.44-49.03-5.92-10.92,1.66-17.46-11.46-28.02-11.07-2.37.12-2.11,5.14-2.65,6.8-2.02-.67-3.44-2.54-5.23-4.08-7.31-6.28-14.39,2.53-17.58,6.71-1.6-9.34,2.1-18.24,10.44-22.77-8.02-6.38-17.9-3.21-25.7,2.02.06-9.3,4.57-16.2,12.15-20.29-3.06-6.47-17.86-25.39-8.91-28.96,6.67-2.66,11.25-7.11,16.13-12.48.2,4.3-1.35,7.14-1.85,11.09-1.38,10.77,3.23,22.98,14.22,26.89,17.29-2.28,33.56-30.45,42.27-43.58,2.2,10.99-.84,15.56-2.31,24.67-4.96,8.33-11.22,15.56-18.21,23.03l37.68-18.42c5.52-3.25,10.92-4.05,16.45-4.59,5.75,4.02,12.17,6.83,17.4,11.99.92-1.79.38-2.88.42-4.02.21-5.77-.14-12.74-4.2-17.68-1.51-1.84-4.56-2.29-4.34-6.05,3.5.38,7.85,1.89,11.59.73.48-.15,1.16.35,2.03-.28-8.95-12.51-26.97-19.1-36.76-29.78-6.86-7.48-11.45-16.24-17.62-24.8,23.01-5.83,42.71-16.08,60.04-32.07-.87,13.01-4.34,25.88-10.11,38.26-1.36,2.93-2.76,5.38-3.3,9.45,7.91-4.08,15.93-9.67,19.14-18.89l-8.89,4.97c15.77-32.65,27.05-58,29.08-95.25-15.66,15.53-24.55,19.44-41.39,29.41-19.94,7.36-39.7,14.04-61.25,17.85-13.01,2.3-25.35,5.01-37.85,10.36,2.26,2.62,6.49,2.13,8.92,3.87,15.48,11.1,30.41,23.17,40.47,40.78-5.69-1.72-9.23-5.66-14.01-8.37-35.61-20.28-86.82-36.68-128.28-31.59-53.54-19.89-110.4-25.25-166.8-18.29l-27.72-7c-4.04-1.02-7.92-2.11-11.59-2.64-.37-.84-1.17-1.24-2.49-1.61l-90.13-24.73c-21.17-5.81-40.81-13.25-60.58-22.44-16.35-7.6-30.34-17.37-44.03-28.16-.72-.54-.42-2.28-2.09-1.85,3.27,21.32,8.58,41.53,16.96,60.99l-1.52-24.42c12.47,17.66,12.48,33.39,23.67,53.57-3.95-.26-4.51-4.02-8.1-5.41,3.44,11.69,5.24,22.39,6.27,33.98.07.75.27,1.59.91,1.14ZM440.5,261.54c-2.91,5.86-6.54,13.41-12.04,12.25-8.39-1.76-8.88-16.12-7.6-23.73-7.64-4.37-14.88-8.34-23.87-11.14-2.82,11.31-.57,24.29,7.81,32.94,12.88,13.29,42.35,12.1,58.96,5.7l-23.27-16.01ZM97.52,308.04c16.27-18.56,31.57-35.49,44.63-56.21l-80,48.35c12.3,2.46,23.43,4.77,35.37,7.86ZM614.09,293.38c12.8,9.8,32.73,14.56,41.95.12,3.8-5.95,6.16-13.02,5.26-19.82l-14.96,5.07c.1,4.62-3.3,20.26-9.07,18.41-3.56-1.14-4.11-8.93-5.32-12.39l-17.86,8.61ZM593.1,354.12c7.71-2.22,15.14-4.68,23.01-2.92-1.22-16.68-17.09,1.43-51-8.47-7.27-2.12-21-5.66-23.69,5.72,7.85-2.25,14.86-1.41,21.92,1.7,17.36,7.64,13.45,4.53,18.99,21.96,3.71-10.11.42-15.01,10.77-17.99ZM656.34,398.73c8.56-4.4,17.46-6.1,27.15-5.69,1.5-3.21,2.19-6.45,2.08-9.9-14.8-2.23-29.45,5.51-44.11,7.82,13.55-9.85,27.88-17.52,44.2-20.76-.54-3.05-2.27-5.1-3.79-6.16-2.32-1.62-5.31-1.14-7.81-.4l-32.71,9.7c10.01-8.19,19.92-14.78,30.96-21.48-4.69-9.24-14.66-13.18-24.6-11.61-22.78,3.6-10.65,27.48-37.29,37.08l-2.92-7.69c-4.72,9.52-9.27,18.3-14.96,26.9-1.87,2.83-1.06,5.4,1.22,7.46,13.68,12.38,28.44,4.23,43.96,4.2,13.44-.02,25.43,7.79,31.11,19.97,4.22-5.4,6.57-11.56,8.01-18.14,2.23-10.21-13.77-9.78-20.49-11.3ZM713.8,359.94c-3.45.12-7.16.12-10.84,1.68-1.14.49-.62,3.02-.14,4.28,5.09.42,9.54.44,14.02.08,3.37,1,6.89,1.2,10.79,1.32.35-3.11-.56-6.07-2.48-8.78-3.92-.44-7.54.13-11.35,1.42ZM726.52,396c2.68,2.37,6.15,3.68,10.01,4.92-.62-5.9-1.71-11.14-2.95-16.76-2.72-1.63-5.56-.41-9.06-.78-6.99-.73-13.95-1.14-21.36-1.36-.82,2.3-1.6,5.13-.5,7.08,7.89,1.72,16.08,3.43,23.86,6.9ZM623.71,525.79c-3.03,2.72-5.33,6.13-7.85,10.4,14.1,12.19,13.82,27.41,13.83,45.65,15.31-12.58,28.3-25.79,39.46-41.24,13.92-19.33,24.32-39.63,30.1-63.08,6.33,9.99,7.94,20.43,9.24,31.22,14.93-29.59,19.74-63.07,19.14-95.48-3.5-2.99-7.73-2.66-11.89-4.33-5.6-2.24-11.31-4.15-17.92-4.9-2.15,20.74-9.4,40.02-21.03,56.96-2.38,3.47-5.66,4.18-9.71,4.51-5.98,12.19-13.99,23.63-22.65,34.16l-20.72,26.11ZM407.56,618.08c-4.63,25.11,4.56,39.98,24.13,55.93-.19-8.15.04-15.49,3.86-22.55,6.18,9.92,24.74,30.99,34.63,32.76,6.6,1.18,12.49-4.74,18.55-7.58,1.83,9.67-5.35,16.82-13.35,21.27,29.71,1.55,57.47-19.03,72.82-42.07,3.49,5.99,2.12,11.58,2.76,18.72,12.24-9.02,29.72-39.5,14.4-49.37-21.83,12.53-39.04.56-60.73.35-21.54-.21-46.13,10.39-63.87-.58-32.73-20.24-32.34-60.22-37.23-74.87-.81-9.03-2.56-17.83-4.79-27.18-3.53-21.07-8.48-41.09-14.22-61.66-4.58-16.41-9.76-31.66-17.2-47.44-4.1,34.67,1.85,66.82,9.07,101.5l16.4,84.5c1.7,8.75,6.82,16.46,14.77,18.29ZM484.01,487.35c-.91-20.65,1.58-38.24,8.09-55.96.88-3.92,3.05-7.17,3.05-11.51-6.35-5.12-32.9-10.57-33.73.92-1.09,15.01.71,30.03,6.75,43.83,3.75,8.57,7.93,17.01,15.84,22.72ZM564.77,436.82l4.75,11.14c4.59-2.87,7.27-6.72,10.91-10.04,2.68,6.26,2.68,12.37,3.7,18.83,6.22-4.53,16.13-23.26,10.5-28.27-6.17-5.5-17.94,5.85-32.67.46-5.13-1.88-9.98-1.83-15.3-2.87-8.36-1.63-37.91-7.63-43.27.41-4,6,5.67,21.48,11.18,26.74,4.86-6.43,8.28-12.69,12.04-20.01l10.84,13.46,8.49-10.73c2.95,3.07,4.92,6.9,8.59,9.32,4.22-2.07,6.76-5.44,10.26-8.44ZM609.94,480.13c10.15-13.51,17.26-29.16,20.1-45.93.82-4.86-1.68-8.26-5.98-9.46-6.54-1.83-13.36-.79-19.59,2.1,2.37,22.85-1.02,44.53-8.89,66.16,5.76-3.74,9.63-8.35,14.35-12.88ZM416.84,543.85c.66,11.13,2.48,22.76,11.76,31.54,3.15-19.26.53-38.95-6.08-57.28-3.21-8.91-6.86-17.59-11.95-26.86l4.14,36.69c.6,5.36,1.14,10.52,2.13,15.91ZM572.54,525.23c-7.48,8.4-8.78,20.71-8.59,31.27,4.77-8.6,8.04-15.69,10.62-24.35s8.71-14.75,12.03-23.59c-5.93,4.72-10.72,10-14.07,16.68ZM577.27,553.87c-6.97,17.42-19.37,31.98-36.63,40.95-1.36-6.07-1.65-10.69-4.73-14.74l-17.83,14.43c-2.15-3.67-1.96-7-4.22-9.77l-16.45,10.78c-2.95-2.13-8.54-17.18-11.04-16.45-4.4,1.29-9.3,12.19-12.4,16.4-14.7-13.01-15.97-32.51-15.61-50.62-13.93,14.67-21.88,35.95-13.66,55.11,8.57,19.99,30.41,4.34,39.93,4.99l28.06,1.92c5.07.35,9.9-1.14,14.95-.73,11.8.97,21.76,12.43,34.31,2.87,15.18-11.58,19.46-36.15,15.33-55.15Z"/><path class="cls-1" d="M403.53,550.07c4.89,14.65,4.49,54.63,37.23,74.87,17.74,10.97,42.33.37,63.87.58,21.68.21,38.9,12.18,60.73-.35,15.32,9.88-2.16,40.35-14.4,49.37-.64-7.14.74-12.74-2.76-18.72-15.35,23.04-43.11,43.63-72.82,42.07,8.01-4.45,15.18-11.59,13.35-21.27-6.06,2.84-11.95,8.76-18.55,7.58-9.89-1.77-28.45-22.83-34.63-32.76-3.81,7.07-4.05,14.4-3.86,22.55-19.58-15.95-28.77-30.82-24.13-55.93,1.58-1.97,3.53-2.81,5.61-4.37-3.07-4.08-6.75-6.91-8.84-11.41-5.04-10.83-7.66-22.21-8.83-34.26-1.83-18.83-2.97-37-2.56-56.27,2.58,8.68,3.68,17.57,6.57,26.24l4.02,12.06ZM462.78,643.38c-13.63-3.59-25.51-10.51-37.11-19.64-1.24,8.42,3.61,15.74,11.01,19.19,8.02,3.74,17.04,3.98,26.1.45ZM551.71,646.5c6.65-2.25,10.46-8.39,9.18-15.13-8.98,6.89-18.23,10.53-29.08,12.59,5.76,3.82,12.9,4.9,19.9,2.54Z"/><path class="cls-1" d="M488.65,319.29l15.62,8.13c3.84,2,6.14,5.36,9.41,7.39,1.25,3.49,2.74,6.6,3.3,10.99,1.91,15.06,15.07,27.33,30.3,26.05,1.63-.35.6-3.77,1.96-5.18,7.25,8.81,13.85,18.04,17.88,29.62-9.37,6.79-20.7,11.25-32.37,11.19-34.15-.19-78.91-28.46-113.05,10.61-.37-9.02,1.05-17.6,4.85-25.36,7.81-15.99,26.48-9.73,42.32-8.85-11.66-8.59-25.43-11.98-39.97-12.85-1.36-4.06-1.71-7.88-2.16-12.35,5.66-1.02,11.03.55,16.92,1.54,19.49,3.28,36.45,12.17,54.96,18.72-19.72-18.45-43.65-28.38-68.8-34.42,6.16-3.14,8.43-8.03,15.87-6.37,16.62,3.7,33.68,15.11,50.97,17.91-13.71-12.92-29.33-22.24-46.79-29.24,8.07-11.71,26.56-9.13,38.78-7.51ZM499.69,379.48c0-.28-.22-.5-.5-.5s-.5.22-.5.5.22.5.5.5.5-.22.5-.5Z"/><path class="cls-1" d="M656.34,398.73c6.72,1.52,22.72,1.09,20.49,11.3-1.44,6.58-3.78,12.74-8.01,18.14-5.69-12.18-17.67-20-31.11-19.97-15.52.03-30.27,8.18-43.96-4.2-2.28-2.06-3.09-4.64-1.22-7.46,5.68-8.6,10.24-17.38,14.96-26.9l2.92,7.69c26.64-9.61,14.51-33.49,37.29-37.08,9.94-1.57,19.92,2.37,24.6,11.61-11.04,6.7-20.95,13.29-30.96,21.48l32.71-9.7c2.51-.74,5.49-1.22,7.81.4,1.52,1.06,3.25,3.11,3.79,6.16-16.32,3.24-30.65,10.91-44.2,20.76,14.66-2.31,29.31-10.05,44.11-7.82.11,3.46-.58,6.69-2.08,9.9-9.69-.41-18.59,1.29-27.15,5.69Z"/><path class="cls-1" d="M623.71,525.79c11.34.86,16.34,9.84,19.36,21.26,16.45-15.17,21.21-30.58,23.27-52.68,3.89,4.9,4.47,11.13,6.54,17.82,17.39-21.44,23.21-44.97,25.26-71.89,7.77,6,10.94,14.68,14.53,24.59,5.57-18.92,5.35-37.74,3.07-55.95,4.17,1.67,8.39,1.34,11.89,4.33.6,32.41-4.21,65.89-19.14,95.48-1.3-10.79-2.91-21.23-9.24-31.22-5.77,23.45-16.18,43.75-30.1,63.08-11.17,15.45-24.15,28.66-39.46,41.24-.01-18.24.27-33.47-13.83-45.65,2.52-4.27,4.82-7.68,7.85-10.4Z"/><path class="cls-3" d="M715.75,408.95c2.28,18.2,2.5,37.03-3.07,55.95-3.59-9.91-6.76-18.59-14.53-24.59-2.05,26.93-7.87,50.46-25.26,71.89-2.07-6.69-2.65-12.92-6.54-17.82-2.06,22.1-6.82,37.51-23.27,52.68-3.03-11.42-8.02-20.4-19.36-21.26l20.72-26.11c8.66-10.53,16.67-21.97,22.65-34.16,4.06-.34,7.33-1.04,9.71-4.51,11.63-16.94,18.88-36.22,21.03-56.96,6.61.74,12.32,2.65,17.92,4.9Z"/><path class="cls-1" d="M577.27,553.87c4.13,19-.15,43.57-15.33,55.15-12.54,9.57-22.51-1.9-34.31-2.87-5.05-.41-9.88,1.07-14.95.73l-28.06-1.92c-9.52-.65-31.37,15-39.93-4.99-8.21-19.16-.27-40.44,13.66-55.11-.36,18.11.91,37.6,15.61,50.62,3.11-4.22,8.01-15.12,12.4-16.4,2.5-.73,8.09,14.32,11.04,16.45l16.45-10.78c2.26,2.77,2.08,6.1,4.22,9.77l17.83-14.43c3.09,4.05,3.37,8.67,4.73,14.74,17.26-8.97,29.66-23.53,36.63-40.95Z"/><path class="cls-1" d="M450.48,238.69c5.52,7.95,10.02,15.28,16.7,22.84-11.25-3.31-20.02-10.03-29.44-16.58-14.45-10.05-33.74-25.5-49.99-29.97-19.05-8.77-41.02-10.89-62.11-11.41,16.6-7.57,34.05-12.16,53.48-13.52-11.1-9.39-23.69-14.15-37.63-18.63,33.06-.31,68.21,7.65,88.61,37.35-5.95-.62-8.7-6.11-15.15-5.58l26.8,27.73c2.79,2.89,5.95,5.65,8.74,7.76Z"/><path class="cls-3" d="M403.53,550.07l-4.02-12.06c-2.89-8.66-4-17.55-6.57-26.24-.41,19.27.73,37.44,2.56,56.27,1.17,12.05,3.79,23.43,8.83,34.26,2.09,4.5,5.77,7.33,8.84,11.41-2.07,1.56-4.02,2.4-5.61,4.37-7.95-1.83-13.08-9.54-14.77-18.29l-16.4-84.5c-7.21-34.69-13.16-66.84-9.07-101.5,7.44,15.78,12.62,31.03,17.2,47.44,5.74,20.57,10.69,40.59,14.22,61.66,2.23,9.35,3.98,18.16,4.79,27.18Z"/><path class="cls-1" d="M294.69,124.98l-41.14-5.95c-20.93-3.02-41.16-5.29-61.62-10.4-23.57-5.88-44.76-15.46-64.34-29.65-11.97-8.68-22.68-18.7-30.12-30.94,13.68,10.79,27.68,20.56,44.03,28.16,19.76,9.19,39.41,16.63,60.58,22.44l90.13,24.73c1.32.36,2.12.77,2.49,1.61Z"/><path class="cls-1" d="M564.77,436.82c-3.5,3-6.04,6.37-10.26,8.44-3.67-2.42-5.64-6.25-8.59-9.32l-8.49,10.73-10.84-13.46c-3.76,7.32-7.18,13.58-12.04,20.01-5.5-5.26-15.17-20.74-11.18-26.74,5.36-8.04,34.91-2.05,43.27-.41,5.32,1.04,10.17.99,15.3,2.87,14.73,5.39,26.5-5.95,32.67-.46,5.62,5.01-4.29,23.74-10.5,28.27-1.02-6.46-1.01-12.57-3.7-18.83-3.64,3.33-6.31,7.17-10.91,10.04l-4.75-11.14Z"/><path class="cls-1" d="M484.01,487.35c-7.92-5.71-12.1-14.15-15.84-22.72-6.03-13.8-7.83-28.82-6.75-43.83.83-11.49,27.38-6.04,33.73-.92,0,4.34-2.17,7.59-3.05,11.51-6.52,17.72-9.01,35.3-8.09,55.96Z"/><path class="cls-1" d="M165.88,199.86c3.45,5.37,7.3,10.56,11.68,15.21,9.6,10.21,15.3,23.75,13.67,38.66-4.77-7.11-10.28-13-16.59-18.73-21.25-19.34-37.48-40.17-41.06-68.93l-.41-9.22c.94-.19,1.68.72,1.99,1.53,6.44,16.83,17.59,30.07,30.72,41.49Z"/><path class="cls-3" d="M97.52,308.04c-11.94-3.09-23.06-5.4-35.37-7.86l80-48.35c-13.06,20.72-28.36,37.65-44.63,56.21Z"/><path class="cls-1" d="M440.5,261.54l23.27,16.01c-16.62,6.4-46.09,7.59-58.96-5.7-8.38-8.65-10.63-21.62-7.81-32.94,8.99,2.79,16.23,6.76,23.87,11.14-1.29,7.61-.79,21.97,7.6,23.73,5.5,1.15,9.13-6.39,12.04-12.25Z"/><path class="cls-1" d="M609.94,480.13c-4.72,4.53-8.59,9.14-14.35,12.88,7.87-21.63,11.26-43.32,8.89-66.16,6.23-2.9,13.05-3.93,19.59-2.1,4.3,1.2,6.8,4.6,5.98,9.46-2.85,16.77-9.95,32.42-20.1,45.93Z"/><path class="cls-1" d="M593.1,354.12c-10.35,2.98-7.06,7.88-10.77,17.99-5.54-17.42-1.63-14.32-18.99-21.96-7.07-3.11-14.07-3.95-21.92-1.7,2.68-11.38,16.41-7.84,23.69-5.72,33.92,9.9,49.79-8.21,51,8.47-7.87-1.77-15.29.69-23.01,2.92Z"/><path class="cls-1" d="M614.09,293.38l17.86-8.61c1.21,3.47,1.76,11.26,5.32,12.39,5.77,1.84,9.17-13.79,9.07-18.41l14.96-5.07c.9,6.8-1.45,13.87-5.26,19.82-9.23,14.44-29.16,9.67-41.95-.12Z"/><path class="cls-1" d="M692.81,120.02c-.23.88-.93,1.36-2.01,1.98-20.29,11.61-42.24,18.46-65.33,22.53-4.86.86-21.35,3.83-22.85,7.56-2.43-1.74-6.66-1.25-8.92-3.87,12.5-5.35,24.85-8.06,37.85-10.36,21.55-3.81,41.32-10.49,61.25-17.85Z"/><path class="cls-1" d="M416.84,543.85c5.4,2.82,3.71-24.52,5.68-25.75,6.61,18.34,9.22,38.02,6.08,57.28-9.28-8.78-11.1-20.41-11.76-31.54Z"/><path class="cls-3" d="M422.52,518.1c-1.97,1.23-.28,28.56-5.68,25.75-.99-5.4-1.53-10.56-2.13-15.91l-4.14-36.69c5.09,9.27,8.74,17.94,11.95,26.86Z"/><path class="cls-3" d="M724.52,383.39l2,12.62c-7.78-3.47-15.98-5.18-23.86-6.9-1.11-1.94-.33-4.77.5-7.08,7.42.22,14.37.63,21.36,1.36Z"/><path class="cls-1" d="M726.52,396l-2-12.62c3.5.36,6.34-.86,9.06.78,1.25,5.62,2.34,10.86,2.95,16.76-3.86-1.24-7.33-2.55-10.01-4.92Z"/><path class="cls-1" d="M574.57,532.15c-2.58,8.66-5.85,15.75-10.62,24.35-.2-10.56,1.1-22.87,8.59-31.27.52,2.16-.68,4.27-.7,6.88,0,1.39,2.13.47,2.73.03Z"/><path class="cls-1" d="M716.85,365.98c.07-2.41-1.91-4.04-3.04-6.04,3.82-1.3,7.43-1.86,11.35-1.42,1.92,2.71,2.83,5.68,2.48,8.78-3.9-.12-7.42-.32-10.79-1.32Z"/><path class="cls-3" d="M574.57,532.15c-.6.44-2.74,1.36-2.73-.03.01-2.61,1.22-4.73.7-6.88,3.34-6.68,8.14-11.95,14.07-16.68-3.32,8.84-9.58,15.35-12.03,23.59Z"/><path class="cls-1" d="M713.56,342c-3.83,1.29-7.94,1.4-11.92,2.06,1.11-3.72-4.82-6.74-6.84-11.07l18.75,9.01Z"/><path class="cls-3" d="M713.8,359.94c1.13,1.99,3.11,3.63,3.04,6.04-4.48.35-8.93.34-14.02-.08-.48-1.27-1-3.8.14-4.28,3.67-1.56,7.39-1.56,10.84-1.68Z"/><path class="cls-3" d="M697.55,261.98c-.04,1.14.5,2.24-.42,4.02-5.23-5.16-11.65-7.97-17.4-11.99,11.45-1.13,9.48,3.05,17.82,7.96Z"/><path class="cls-3" d="M97.47,48.05c7.45,12.24,18.15,22.26,30.12,30.94,19.58,14.19,40.77,23.77,64.34,29.65,20.47,5.11,40.7,7.37,61.62,10.4l41.14,5.95c3.67.53,7.55,1.62,11.59,2.64l27.72,7c56.4-6.97,113.27-1.61,166.8,18.29,41.45-5.09,92.66,11.31,128.28,31.59,4.77,2.72,8.32,6.66,14.01,8.37-10.07-17.6-24.99-29.68-40.47-40.78,1.5-3.73,17.99-6.71,22.85-7.56,23.09-4.08,45.04-10.92,65.33-22.53,1.08-.62,1.77-1.09,2.01-1.98,16.84-9.97,25.72-13.88,41.39-29.41-2.03,37.25-13.31,62.6-29.08,95.25l8.89-4.97c-3.2,9.22-11.22,14.8-19.14,18.89.54-4.07,1.93-6.52,3.3-9.45,5.77-12.38,9.24-25.25,10.11-38.26-17.33,15.98-37.03,26.24-60.04,32.07,6.18,8.55,10.77,17.32,17.62,24.8,9.79,10.68,27.82,17.27,36.76,29.78-.87.63-1.56.13-2.03.28-.72-3.93-17.71-10.73-21.9-11.81-8.66-2.23-17.38-2.22-25.26,1.65,2.86,6.35,5.07,1.8,12.15,4.66l-21.78,20.51c1.46-9.11,4.51-13.68,2.31-24.67-8.71,13.13-24.98,41.3-42.27,43.58-10.99-3.92-15.6-16.12-14.22-26.89.51-3.95,2.06-6.79,1.85-11.09-4.88,5.37-9.46,9.81-16.13,12.48-8.96,3.57,5.85,22.49,8.91,28.96-7.58,4.1-12.09,10.99-12.15,20.29,7.81-5.24,17.69-8.4,25.7-2.02-8.33,4.53-12.03,13.43-10.44,22.77,3.2-4.17,10.27-12.98,17.58-6.71,1.79,1.54,3.22,3.41,5.23,4.08.55-1.66.28-6.68,2.65-6.8,10.57-.39,17.1,12.73,28.02,11.07,16.6-2.52,33.76-2.21,49.03,5.92-4.18-10.15-13.18-15.73-23.3-18.39,4.99-4.14,10.62-5.6,14.81-10.56-2.25-2.92-5.4-2.2-9.13-3.11,4.07-6.53,8.4-12.31,15.36-16.26.08,11.09,3.17,20.2,8.48,29.09l19.82,33.23c.7,1.18,1.14,2.55.06,3.08-.74.36-1.71-.26-2.42-.02l-18.75-9.01c2.02,4.32,7.95,7.35,6.84,11.07-2.77.46-5.55,1.48-8.93,1.73-15.54-20.41-33.05-26.79-57.28-16.38,2.38,1.79,4.89.41,6.76,2.97-5.43,2.25-10.17,3.92-14.56,8.16-6.16-5.93-9.23-16.49-19.46-11.02-12.56,6.71-26.38,9.02-39.69,3.4l-21.57-9.12c-5.52-2.33-10.97-1.08-15.01,3.47-9.09,10.24-15.56-3.25-22.7-4.91l4.46,12.47c-3.27-2.03-5.57-5.39-9.41-7.39l-15.62-8.13c6.09-2.95,12.55-1.47,20.38-1.57-15.41-11.14-33.57-16.8-52.24-16.15,24.26-11.63,50.35-12.52,72.17,7.57.79-1.82-.17-6.01,1.51-6.48,11.7-.33,20.09,6.66,30.96,11.77-8.55-15.7-24.2-24.01-40.87-28.33,12.87-4.11,25.67-1.07,37.15,4.79,3.09,1.58,6.03,4.05,9.57,3.62-6.17-11.92-16.56-18.16-27.9-23.61,4.92-7.58,8.92-19.96,2.31-26.59-7.32-7.34-16.91-11.6-23.79-19.67,3.19,12.2,13.86,28.83-1.04,36.56-4.37,2.27-10.03,5.56-15.17,3.92-7.02-2.25-13.13-6.91-18.56-11.67-18.29-15.99-28.05-36.49-42.8-55.21-.44,15.14,5.16,27.83,10.17,40.45-2.78-2.11-5.95-4.87-8.74-7.76l-26.8-27.73c6.45-.54,9.21,4.95,15.15,5.58-20.4-29.69-55.55-37.66-88.61-37.35,13.94,4.48,26.53,9.24,37.63,18.63-19.43,1.35-36.87,5.95-53.48,13.52,21.09.52,43.06,2.64,62.11,11.41-32.65,1.55-65.16,6.48-96.29,17.67,23.7-.03,61.54.73,75.25,23.27-9.05.43-16.48-2.31-25.22-5.01,13.3,20.55,35.4,20.53,38.64,23.73l13.1,12.99c9.04,8.97,37.48,6.85,49.99,7.05-6.7,5.96-12.78,12-18.4,19.45-34.05-15.9-59.94-25.25-98.16-25.48-20.17-.12-39.87,1.67-59.23,5.91,30.68,1.92,59.87,4.84,89.06,12.55,17.62,4.65,34.4,9.34,50.73,19.68-50.13-10.32-97.67-7.16-145.93,9.94,47.74-4.88,91.94-4.84,137.9,5.98,1.18.34.59,4.75-.73,4.82-42.98,2.02-85.81,14.04-120,42.87,39.19-16.42,78.08-27.08,120.07-27.46l1.26,17.16c-36.74-4.53-69.46,15.9-91.11,43.71-9.42-4.08-17.38-8.85-26.71-14.91-3.54,33.31,18.55,72.81,50.87,85.95l-2.75-38.82c17.96,18.59,30.31,44.8,39.67,67.81-1.85-.15-2.91-1.08-4.24-1.28-9.4-6.48-21.74-9.65-33.8-9.73-13.83-.09-24.11,9.82-27.45,23.21-27.84-25.07-43.9-61.56-47.42-99.81-10.05,8.06-15.67,19.24-21.27,31.52-5.15-13.02-6.62-26.19-6.98-39.78-.61-14.01,1.16-27.19,5.4-40.7-13.04,3.86-23.22,10.98-34.03,19.81,1.75-29.56,15.82-54.64,34.98-77.06-14.01,3.79-25.59,10.46-37.68,18.96,7.52-28.34,24.04-53.11,47.65-68.73l20.05-13.27c-29-1.54-57.7,6.17-80.58,23.8,11.75-2.57,21.64-6.17,33.59-4.47-36.32,14.39-59.73,31.13-83.09,61.74-.23-1.21.16-2.31.92-3.8,23.42-45.82,57.71-77.69,102.21-104.5-10.85-2.8-21.23-4.35-31.63-8.32,16.89-14.9,39.71-17.56,59.31-18.01-15.47-5.19-29.25-12.17-41.24-23.53,20.18-8.11,47.12-4.3,68.52.21-9.47-5.97-19.32-9.48-29.48-14.16,17.23-10.49,40.37-9.97,60.55-10-5.87-4.38-12.22-6.34-18.78-8.73-14.45-5.25-28.71-9.23-43.72-13.22-23.48-6.25-45.82-12.95-68.74-21.04-21.92-7.73-41.12-18.36-61.43-30.72,12.35,19.2,27.97,33.62,45.02,47.05,13.23,9.95,26.51,18.23,41.22,26.94-17.47,1.53-34.21-2.58-51.07-8.39,9.77,21.58,26.91,36.8,49.65,45.2-17.18,6.84-34.67,4.05-50.34-3.2-13.13-11.41-24.29-24.66-30.72-41.49-.31-.81-1.04-1.72-1.99-1.53l.41,9.22c-.64.45-.85-.4-.91-1.14-1.03-11.59-2.84-22.29-6.27-33.98,3.59,1.38,4.14,5.14,8.1,5.41-11.19-20.18-11.21-35.91-23.67-53.57l1.52,24.42c-8.39-19.46-13.7-39.67-16.96-60.99,1.67-.43,1.37,1.31,2.09,1.85ZM131.69,91.48c0-.28-.22-.5-.5-.5s-.5.22-.5.5.22.5.5.5.5-.22.5-.5ZM507.56,225.95c-9.07-18.09-21.96-31.58-36.57-43.26-15.71-11.05-33.78-16.97-52.41-14.48,16.12,5.93,29.85,13.71,43.13,23.6l45.85,34.13ZM615.04,225.69c7.31-5.85,13.92-10.92,22.71-15.18-5.22-2.41-11.32-5.36-17.48-3.63-10.48,2.94-15.92,21.74-20.5,31.02l15.26-12.21ZM183.69,291.48c0-.28-.22-.5-.5-.5s-.5.22-.5.5.22.5.5.5.5-.22.5-.5ZM568.69,295.48c0-.28-.22-.5-.5-.5s-.5.22-.5.5.22.5.5.5.5-.22.5-.5Z"/><path class="cls-1" d="M700.6,238.98c-3.74,1.16-8.1-.35-11.59-.73-.22,3.76,2.83,4.21,4.34,6.05,4.06,4.94,4.41,11.91,4.2,17.68-8.35-4.92-6.38-9.09-17.82-7.96-5.53.54-10.93,1.35-16.45,4.59l-37.68,18.42c7-7.47,13.26-14.7,18.21-23.03l21.78-20.51c-7.08-2.86-9.29,1.7-12.15-4.66,7.88-3.87,16.6-3.88,25.26-1.65,4.19,1.08,21.18,7.88,21.9,11.81Z"/><path class="cls-1" d="M365.52,522.56c-15.47-2.35-29.59,3.71-38.01,17.46-7.06,11.54-9.53,24.16-12.09,37.82-27.82-23.27-47.48-51.49-61.52-83.1-2.63,15.46.19,29.49,3.74,44.7-29.86-29.87-56.33-73.63-63.89-115.6-11.35,12.14-17.82,26.22-24.31,41.77-9.34-33.44-8.87-68.04-.25-100.94,3.85-14.69,11.02-26.66,17.85-40.86-23.68,13.38-43.58,29.62-63.38,47.63,2.9-8.7,6.2-16.79,11.23-23.38,23.37-30.61,46.77-47.36,83.09-61.74-11.95-1.71-21.84,1.9-33.59,4.47,22.88-17.63,51.58-25.34,80.58-23.8l-20.05,13.27c-23.62,15.62-40.14,40.39-47.65,68.73,12.09-8.51,23.67-15.17,37.68-18.96-19.15,22.43-33.22,47.5-34.98,77.06,10.8-8.83,20.98-15.94,34.03-19.81-4.24,13.51-6.01,26.69-5.4,40.7.36,13.58,1.83,26.76,6.98,39.78,5.6-12.28,11.22-23.46,21.27-31.52,3.52,38.25,19.58,74.73,47.42,99.81,3.34-13.39,13.62-23.3,27.45-23.21,12.06.08,24.4,3.25,33.8,9.73Z"/><path class="cls-2" d="M507.56,225.95l-45.85-34.13c-13.29-9.89-27.01-17.67-43.13-23.6,18.63-2.49,36.7,3.42,52.41,14.48,14.61,11.68,27.5,25.16,36.57,43.26Z"/><circle class="cls-2" cx="568.19" cy="295.48" r=".5"/><circle class="cls-1" cx="183.19" cy="291.48" r=".5"/><path class="cls-2" d="M615.04,225.69l-15.26,12.21c4.58-9.28,10.02-28.07,20.5-31.02,6.15-1.73,12.26,1.21,17.48,3.63-8.79,4.26-15.4,9.33-22.71,15.18Z"/><circle class="cls-2" cx="131.19" cy="91.48" r=".5"/><path class="cls-3" d="M462.78,643.38c-9.06,3.53-18.08,3.3-26.1-.45-7.4-3.45-12.25-10.78-11.01-19.19,11.6,9.13,23.48,16.04,37.11,19.64Z"/><path class="cls-3" d="M551.71,646.5c-7,2.36-14.13,1.28-19.9-2.54,10.85-2.06,20.1-5.71,29.08-12.59,1.27,6.74-2.53,12.88-9.18,15.13Z"/><circle class="cls-2" cx="499.19" cy="379.48" r=".5"/></g></g></svg>