<svg version="1.1" xmlns="http://www.w3.org/2000/svg" style="display: block;" viewBox="0 0 2048 2048" width="1024" height="1024" preserveAspectRatio="none"><defs><linearGradient id="Gradient1" gradientUnits="userSpaceOnUse" x1="1607.22" y1="1133.99" x2="1632.1" y2="1103.31"><stop class="stop0" offset="0" stop-opacity="1" stop-color="rgb(0,89,177)"/><stop class="stop1" offset="1" stop-opacity="1" stop-color="rgb(1,63,148)"/></linearGradient><linearGradient id="Gradient2" gradientUnits="userSpaceOnUse" x1="638.004" y1="732.561" x2="628.251" y2="718.974"><stop class="stop0" offset="0" stop-opacity="1" stop-color="rgb(0,25,73)"/><stop class="stop1" offset="1" stop-opacity="1" stop-color="rgb(0,48,125)"/></linearGradient></defs><path transform="translate(0,0)" fill="rgb(0,13,38)" d="M 577.261 190.16 C 615.627 179.309 669.817 180.19 709.081 186.155 C 822.171 204.34 927.136 256.246 1010.24 335.077 C 1024.25 348.345 1041.96 365.377 1053.31 380.786 C 1069.19 376.722 1085.19 370.089 1101.7 367.121 C 1108.83 364.9 1118.83 362.748 1126.26 360.92 C 1273.13 325.833 1458.94 311.887 1607.8 336.927 C 1629.95 340.653 1665.49 348.397 1684.83 359.338 C 1697.85 366.706 1704.97 380.879 1707.71 395.617 C 1716.46 442.57 1711.03 495.2 1700.77 541.702 C 1697.61 556.024 1692.61 570.424 1689.12 584.117 C 1687.55 590.262 1694.68 618.858 1695.7 627.164 C 1697.04 638.078 1698.8 648.696 1698.03 660.05 C 1693.87 721.566 1661.17 768.237 1631.94 819.767 C 1622.56 836.289 1614.96 856.794 1605.06 872.262 L 1616.4 868.38 C 1654.3 850.823 1671.6 842.282 1712.63 830.922 L 1707.44 841.131 C 1702.25 851.177 1690.9 869.685 1687.76 878.887 C 1692.25 875.275 1694.77 873.054 1699.95 870.335 C 1754.57 827.852 1856.6 758.466 1929.29 764.271 C 1940.62 765.176 1954.53 770.996 1961.34 780.38 C 1966.64 787.698 1968.94 796.077 1967.36 805.22 C 1961.89 836.965 1932.97 862.246 1909.04 881.137 C 1898.84 889.188 1882.92 899.279 1874.28 907.478 C 1850.55 929.998 1827.25 954.198 1805.03 978.175 C 1798.81 984.884 1783.55 999.091 1779.43 1004.81 L 1778.45 1009.33 L 1779.8 1009.87 C 1792.82 1014.98 1807.09 1016.13 1820.67 1019.18 C 1836.92 1022.83 1879.62 1033.87 1886.29 1050.17 C 1887.83 1053.93 1887.65 1057.73 1886.02 1061.43 C 1878.18 1079.18 1820.84 1102.11 1802.45 1114.88 C 1782.71 1128.26 1766.56 1143.68 1760.16 1168.04 C 1759.4 1170.93 1758.84 1176.02 1759.43 1178.85 C 1758.11 1180.61 1756.57 1182.71 1757.26 1184.97 C 1761.29 1198.24 1769.44 1213.05 1774.3 1226.09 C 1779.59 1240.27 1784.42 1253.59 1789.39 1267.42 C 1792.01 1280.87 1796.71 1296.44 1798.73 1309.45 C 1804.01 1343.44 1814.26 1388.31 1812.11 1422.69 C 1797.73 1408.69 1770.13 1390.4 1753.46 1377.44 C 1724.84 1355.17 1695.02 1328.84 1664.83 1309.31 C 1662.31 1310.02 1657.63 1311.49 1655.26 1311.96 C 1621.42 1322.67 1589.43 1339.19 1558.5 1348.83 C 1598.79 1347.15 1669.39 1338.62 1705.77 1350.57 C 1699.79 1362.06 1682.62 1377.66 1672.1 1385.12 C 1692.28 1393.86 1712.59 1404.13 1731.81 1412.34 C 1694.49 1420.29 1662.4 1431.08 1626.8 1443.2 C 1660.38 1449.88 1692.67 1456.84 1724.93 1468.39 C 1728.58 1469.7 1735.24 1472.16 1738.9 1472.98 C 1737.58 1476.43 1737.07 1477.84 1736.27 1481.42 L 1736.87 1482.77 C 1659.24 1490.88 1587.85 1511.39 1515.33 1539.2 C 1554.59 1545.11 1589.53 1564.77 1621.31 1587.43 C 1618.76 1593.21 1618.63 1593.12 1613.57 1597.08 C 1519.8 1579.78 1423.37 1583.32 1331.12 1607.45 C 1323.54 1610.01 1296.76 1618.5 1291.47 1622.52 C 1295.82 1623.29 1300.21 1621.55 1307.54 1622.91 C 1320.2 1625.25 1333.78 1629.7 1346.27 1631 C 1336.85 1634.18 1327.18 1636.34 1317.56 1638.82 C 1279.12 1648.74 1242.59 1665.9 1204.69 1677.3 C 1172.75 1691.12 1146.01 1705.2 1115.75 1722.49 C 1115.76 1721.47 1112.81 1712.36 1112.25 1711.05 C 1126.75 1689.73 1141.64 1669.46 1149.71 1644.73 C 1135.45 1658.84 1121.77 1673.54 1108.7 1688.77 C 1098.09 1700.95 1013.87 1803.4 1009.02 1805.45 C 1006.69 1804.16 1006.34 1803.22 1004.77 1801.04 C 956.487 1755.23 924.222 1713.73 883.499 1662.37 C 902.319 1659.17 917.992 1658.52 935.988 1655.88 C 919.149 1644.06 906.022 1624.2 885.612 1615.19 C 874.708 1610.38 869.94 1609.71 858.148 1609.29 C 856.648 1644 892.379 1686.52 911.164 1715.92 L 909.995 1716.73 C 904.24 1720.82 906.394 1719.01 901.17 1721.46 C 881.2 1709.26 862.83 1694.46 842.975 1681.97 C 813.417 1663.39 785.461 1637.47 751.11 1628.53 C 727.864 1622.49 703.453 1625.45 679.934 1623.27 C 662.817 1621.68 645.414 1615.49 628.403 1612.74 C 599.331 1608.11 526.301 1599.73 500.344 1605.58 C 520.307 1591.66 537.831 1576.73 560.19 1566.4 C 566.381 1563.54 583.053 1556.71 585.237 1551.05 C 581.669 1543.53 562.302 1527.33 554.101 1524.23 C 537.582 1522.92 517.749 1518.34 500.511 1516.19 C 452.084 1510.2 403.427 1506.25 354.669 1504.35 C 340.241 1503.72 320.594 1501.92 306.758 1502.53 C 335.663 1485.62 421.066 1450.92 453.807 1446.06 C 447.994 1443.01 442.735 1441.27 436.439 1439.59 C 400.689 1430.29 364.642 1422.8 329.211 1412.28 C 303.914 1404.76 266.172 1385.32 292.227 1354.89 C 310.169 1333.93 344.886 1330.63 370.452 1329.52 C 381.395 1329.04 392.649 1330.39 403.643 1329.67 L 404.626 1329.6 C 381.338 1309.95 337.089 1290.62 308.482 1281.04 C 320.52 1277.26 354.447 1261.07 365.55 1254.9 C 350.66 1246.17 340.898 1243.91 324.791 1231.97 C 304.164 1217.28 286.057 1197.69 264.428 1184.62 C 240.169 1169.97 201.082 1183.77 175.155 1188.85 C 144.25 1194.9 113.479 1203.13 83.1877 1211.12 C 93.8409 1196.65 104.905 1180.6 116.015 1166.72 C 138.465 1138.68 164.299 1113.4 190.41 1088.83 C 206.836 1073.37 227.135 1059.32 243.068 1043.51 C 239.506 1039.02 235.042 1034.61 230.986 1030.54 C 217.41 1016.91 204.433 1003.23 191.771 988.747 C 206.998 989.621 221.514 990.628 236.615 992.845 C 244.909 994.063 267.087 996.983 270.325 987.271 C 269.199 979.643 263.777 976.112 258.008 970.627 C 252.389 967.099 244.918 964.365 238.663 961.829 C 207.449 952.435 160.669 938.827 154.546 900.381 C 153.206 891.133 156.633 879.082 163.03 872.05 C 188.285 844.528 231.246 839.365 266.563 841.077 C 277.361 841.6 295.3 845.091 304.941 843.736 C 278.37 816.669 239.936 765.962 249.486 725.148 C 254.446 712.166 263.479 716.326 274.361 718.87 L 282.732 720.529 C 281.511 717.389 264.585 704.256 259.979 700.377 C 231.022 675.985 175.884 609.702 210.042 571.246 C 236.429 541.54 283.865 563.18 308.767 583.984 C 326.243 598.584 346.03 614.103 361.074 632.009 C 371.078 642.968 380.064 657.23 390.933 667.121 C 399.682 651.727 411.419 646.279 428.752 650.523 C 426.259 639.933 406.275 615.536 409.573 604.406 C 426.838 594.601 479.333 655.511 490.082 670.589 C 499.039 680.489 503.269 688.726 510.669 699.529 C 509.539 691.166 508.186 682.835 506.611 674.545 C 505.801 668.523 504.068 665.803 501.224 660.657 C 509.849 663.529 515.292 665.214 523.302 669.434 C 539.324 674.393 554.474 694.656 572.61 690.162 C 577.829 688.869 582.47 685.116 584.776 680.481 C 600.188 649.51 575.603 578.851 566.65 546.576 C 576.45 553.677 587.164 563.799 596.325 571.993 L 645.384 615.971 C 668.294 590.738 680.098 589.977 685.495 552.589 C 689.793 522.819 688.216 498.479 685.158 468.853 C 674.853 367.956 637.585 271.692 577.261 190.16 z M 468.38 1261.94 C 471.925 1266.21 474.929 1269.96 478.258 1274.44 C 472.339 1272.99 467.692 1271.81 461.642 1270.99 C 444.975 1268.49 416.979 1261.03 402.875 1271.26 C 386.702 1283 401.243 1293.9 413.668 1298.59 C 433.857 1306.2 453.779 1311.45 474.244 1317.99 C 491.916 1323.14 516.18 1333.04 532.998 1337.26 C 528.753 1348.49 538.576 1339.34 525.519 1356.69 C 508.882 1378.81 512.808 1362.35 492.636 1370.1 L 492.216 1371.37 C 495.161 1374.14 499.711 1375.92 500.043 1377.49 C 490.724 1379.57 477.117 1377.19 467.207 1376.75 L 455.68 1376.97 C 445.626 1376.71 434.051 1374.27 425.864 1378.57 C 417.13 1368.2 395.774 1357.58 382.099 1355.28 C 386.775 1354.3 391.568 1354.84 395.368 1352.57 C 395.877 1350.67 395.821 1349.23 395.745 1347.27 C 397.367 1344.16 397.537 1344.26 400.176 1342.15 C 402.663 1342.12 402.905 1342.19 405.161 1343.04 L 407.004 1343.75 C 409.931 1341.05 409.45 1332.95 407.106 1329.81 L 404.626 1329.6 L 403.643 1329.67 C 392.649 1330.39 381.395 1329.04 370.452 1329.52 C 344.886 1330.63 310.169 1333.93 292.227 1354.89 C 266.172 1385.32 303.914 1404.76 329.211 1412.28 C 364.642 1422.8 400.689 1430.29 436.439 1439.59 C 442.735 1441.27 447.994 1443.01 453.807 1446.06 C 421.066 1450.92 335.663 1485.62 306.758 1502.53 C 320.594 1501.92 340.241 1503.72 354.669 1504.35 C 403.427 1506.25 452.084 1510.2 500.511 1516.19 C 517.749 1518.34 537.582 1522.92 554.101 1524.23 C 562.302 1527.33 581.669 1543.53 585.237 1551.05 C 583.053 1556.71 566.381 1563.54 560.19 1566.4 C 537.831 1576.73 520.307 1591.66 500.344 1605.58 C 526.301 1599.73 599.331 1608.11 628.403 1612.74 C 645.414 1615.49 662.817 1621.68 679.934 1623.27 C 703.453 1625.45 727.864 1622.49 751.11 1628.53 C 785.461 1637.47 813.417 1663.39 842.975 1681.97 C 862.83 1694.46 881.2 1709.26 901.17 1721.46 C 906.394 1719.01 904.24 1720.82 909.995 1716.73 L 911.164 1715.92 C 892.379 1686.52 856.648 1644 858.148 1609.29 C 869.94 1609.71 874.708 1610.38 885.612 1615.19 C 906.022 1624.2 919.149 1644.06 935.988 1655.88 C 917.992 1658.52 902.319 1659.17 883.499 1662.37 C 924.222 1713.73 956.487 1755.23 1004.77 1801.04 C 1006.34 1803.22 1006.69 1804.16 1009.02 1805.45 C 1013.87 1803.4 1098.09 1700.95 1108.7 1688.77 C 1121.77 1673.54 1135.45 1658.84 1149.71 1644.73 C 1141.64 1669.46 1126.75 1689.73 1112.25 1711.05 C 1112.81 1712.36 1115.76 1721.47 1115.75 1722.49 C 1146.01 1705.2 1172.75 1691.12 1204.69 1677.3 C 1242.59 1665.9 1279.12 1648.74 1317.56 1638.82 C 1327.18 1636.34 1336.85 1634.18 1346.27 1631 C 1333.78 1629.7 1320.2 1625.25 1307.54 1622.91 C 1300.21 1621.55 1295.82 1623.29 1291.47 1622.52 C 1296.76 1618.5 1323.54 1610.01 1331.12 1607.45 C 1423.37 1583.32 1519.8 1579.78 1613.57 1597.08 C 1618.63 1593.12 1618.76 1593.21 1621.31 1587.43 C 1589.53 1564.77 1554.59 1545.11 1515.33 1539.2 C 1587.85 1511.39 1659.24 1490.88 1736.87 1482.77 L 1736.27 1481.42 C 1737.07 1477.84 1737.58 1476.43 1738.9 1472.98 C 1735.24 1472.16 1728.58 1469.7 1724.93 1468.39 C 1692.67 1456.84 1660.38 1449.88 1626.8 1443.2 C 1662.4 1431.08 1694.49 1420.29 1731.81 1412.34 C 1712.59 1404.13 1692.28 1393.86 1672.1 1385.12 C 1682.62 1377.66 1699.79 1362.06 1705.77 1350.57 C 1669.39 1338.62 1598.79 1347.15 1558.5 1348.83 C 1589.43 1339.19 1621.42 1322.67 1655.26 1311.96 C 1649.6 1304.42 1613.15 1287.98 1602.95 1281.24 C 1503.71 1232.71 1463.81 1331.77 1404.49 1389.45 C 1394.93 1398.75 1369.27 1410.47 1357.02 1417.4 C 1350.63 1421.2 1347.8 1423.12 1341.99 1427.74 C 1345.83 1420.7 1349.39 1414.91 1353.69 1408.11 C 1366.19 1383.08 1390.4 1350.17 1405.7 1322.13 C 1379.7 1324.79 1368.81 1327.53 1346.14 1340.71 C 1323.11 1319.55 1308.68 1320.77 1286.91 1342.15 C 1267.94 1360.79 1242.96 1420.23 1225.04 1433.39 C 1221.73 1429.38 1225.99 1421.53 1220.97 1421.43 C 1204.7 1421.13 1162.49 1441.7 1149.19 1448.85 C 1161.75 1423.41 1172.25 1388.87 1182.82 1361.67 C 1149.42 1383.88 1073.65 1462.2 1049.13 1494.6 C 1044.96 1483.56 1042.01 1460.14 1038.78 1447.26 L 1035.51 1432.01 L 1022.99 1377.28 C 1019.23 1360.8 1013.26 1316.69 986.777 1327.73 C 970.311 1334.59 963.442 1354.67 957.315 1370.28 C 945.505 1339.7 934.445 1310.88 918.327 1282.08 C 906.052 1260.15 887.936 1247.69 863.939 1262.98 C 844.769 1275.2 840.102 1302.62 835.57 1323.21 C 834.747 1327.08 833.303 1331.79 832.229 1335.69 C 830.332 1331.11 828.557 1326.49 826.907 1321.82 C 822.422 1313.58 815.212 1290.21 811.629 1280.62 C 798.43 1245.29 781.97 1191.23 761.29 1159.86 C 748.747 1173.95 736.742 1188.18 726.138 1203.83 C 729.179 1210.59 743.349 1226.25 748.421 1234.45 C 767.322 1265.02 776 1295.49 784.053 1329.85 C 786.256 1343.01 786.105 1345.91 792.03 1357.51 L 772.078 1334.49 C 768.245 1330.84 759.558 1319.66 755.645 1315.25 C 741.375 1299.17 726.826 1280.4 711.772 1265.25 C 711.908 1275.39 713.479 1290.2 714.223 1300.7 C 695.163 1284.55 658.851 1238.01 640.005 1218.64 C 636.456 1214.99 603.8 1228.16 596.257 1231.14 C 559.636 1187.13 528.507 1154.95 466.498 1156.35 C 462.242 1156.45 454.174 1157.44 451.419 1160.54 C 472.524 1175.87 479.777 1189.1 484.696 1214.5 C 468.165 1210.25 456.64 1207.89 440.163 1212.13 C 442.913 1222.02 456.822 1241.38 460.439 1251.95 C 462.888 1255.1 465.761 1259.03 468.38 1261.94 z M 490.546 906.926 C 484.455 894.276 480.375 881.079 473.583 868.014 C 485.115 871.798 513.448 884.019 524.88 889.13 C 495.681 849.245 450.788 810.299 442.789 759.635 C 440.799 747.027 441.639 735.032 442.279 722.371 C 447.506 731.267 454.151 739.564 459.746 748.564 C 465.334 757.551 470.598 768.072 476.628 776.478 C 475.47 754.887 470.381 727.515 460.751 707.461 C 452.271 689.801 412.425 653.057 404.608 689.886 C 404.178 694.264 404.081 705.562 402.538 707.874 C 399.608 706.986 398.785 704.96 396.732 702.027 C 376.885 679.459 281.947 569.412 234.68 588.582 C 232.567 589.439 230.513 594.397 230.653 596.589 C 230.121 602.316 234.4 611.209 238.38 615.15 C 248.478 625.15 262.616 632.512 274.165 640.557 C 282.684 646.491 293.971 654.086 301.872 660.331 C 344.941 694.372 406.761 755.446 435.557 802.084 C 419.183 795.38 349.327 766.096 334.733 770.682 C 332.663 778.627 350.794 796.541 353.318 803.935 C 360.479 810.88 366.132 818.356 374.514 825.104 C 410.495 854.071 451.726 881.993 490.546 906.926 z M 1642.32 1026.89 C 1645.78 1021.91 1649.24 1016.92 1652.5 1011.8 C 1671.78 981.572 1699.56 957.954 1730.29 939.867 C 1726.1 949.098 1722.71 958.33 1718.68 967.677 C 1713.88 978.806 1706.66 990.143 1703.41 1001.63 C 1725.97 982.74 1746.25 967.31 1770.06 949.952 C 1783.99 939.795 1808.71 921.224 1820.34 909.162 C 1814.36 907.833 1793.23 904.045 1790.28 899.535 C 1793.59 894.816 1812.77 886.484 1820.72 882.153 C 1856.5 862.667 1912.1 839.025 1933.05 803.227 C 1933.57 801.622 1933.84 798.448 1932.79 797.135 C 1924.1 786.249 1889.09 794.116 1879.28 798.083 C 1823.42 820.667 1774.29 855.888 1725.26 890.212 C 1714.42 897.8 1704.26 909.166 1693.46 916.377 L 1692.06 917.292 C 1672.16 935.599 1634.37 970.728 1633.07 998.795 C 1632.63 1008.35 1638.05 1018.26 1642.32 1026.89 z M 644.472 1176.79 C 643.561 1165.19 642.495 1158.18 643.731 1146.51 C 647.688 1156.01 649.558 1159.68 654.781 1168.92 C 671.734 1193.05 686.816 1221.23 704.508 1246.93 C 699.739 1228.86 696.126 1211.08 691.001 1192.97 C 684.013 1168.27 672.519 1140.9 667.237 1116.04 C 644.625 1116.13 637.239 1121.27 618.739 1122.52 C 626.639 1129.18 629.874 1132.11 633.509 1142.13 C 618.879 1142.33 608.56 1140.03 595.396 1139.8 C 608.964 1157.01 622.398 1173.98 634.272 1192.42 C 637.213 1196.99 640.12 1201.03 643.807 1205.05 C 645.969 1194.3 645.402 1187.76 644.472 1176.79 z M 302.541 900.241 C 339.042 898.818 364.878 911.904 397.423 923.248 C 385.589 899.996 367.583 890.13 343.441 882.294 C 308.142 870.837 274.889 866.961 238.277 873.599 C 226.342 875.763 213.816 878.851 202.94 884.377 C 198.885 886.438 193.712 889.303 192.032 893.851 C 191.099 896.379 191.603 898.826 192.999 901.044 C 202.749 916.544 295.054 935.774 320.609 956.329 L 333.083 964.489 C 336.077 965.41 339.581 966.979 341.828 965.939 C 338.144 953.004 326.34 935.209 318.91 923.24 C 311.645 915.165 308.426 909.227 302.541 900.241 z M 1723.46 1124.94 C 1730.65 1108.53 1766.56 1093.19 1782.79 1086.97 C 1806.36 1075.34 1829.15 1071.08 1849.62 1053.86 C 1832.25 1044.78 1827.94 1045.74 1808.85 1045.85 C 1798.94 1048.37 1789.82 1050.66 1780.07 1053.78 C 1772.79 1056.11 1762.63 1060.98 1755.61 1062.22 C 1753.76 1059.92 1755.88 1051.67 1746.28 1051.46 C 1729.64 1051.08 1699.83 1067.85 1685.41 1076.22 C 1698.31 1088.9 1714.27 1109.16 1723.46 1124.94 z M 941.052 1262.27 C 943.153 1266.24 941.646 1265.13 945.052 1266.53 C 954.483 1265.62 980.794 1241.7 979.897 1235.72 C 964.773 1235.99 945.897 1235.78 931.641 1241.06 L 941.052 1262.27 z M 1449.11 1276.39 C 1444.81 1276.85 1444.93 1276.86 1440.94 1278.62 C 1421.52 1287.44 1396.31 1292.15 1376.03 1299.81 C 1419.41 1300.29 1417.9 1308.55 1449.11 1276.39 z"/><path transform="translate(0,0)" fill="rgb(0,3,11)" d="M 772.078 1334.49 C 778.66 1334.81 779.181 1334.28 784.053 1329.85 C 786.256 1343.01 786.105 1345.91 792.03 1357.51 L 772.078 1334.49 z"/><path transform="translate(0,0)" fill="rgb(0,3,11)" d="M 395.293 690.832 C 398.063 689.401 401.583 689.417 404.608 689.886 C 404.178 694.264 404.081 705.562 402.538 707.874 C 399.608 706.986 398.785 704.96 396.732 702.027 C 396.735 698.747 395.829 694.171 395.293 690.832 z"/><path transform="translate(0,0)" fill="rgb(0,13,38)" d="M 540.952 1265.19 C 549.465 1269.01 559.591 1275.79 567.687 1280.84 L 613.36 1309.67 C 629.336 1319.79 650.78 1331.45 665.016 1342.38 C 654.711 1316.61 641.385 1294.03 630.574 1265.42 C 685.559 1302.41 726.545 1355.45 764.934 1408.46 C 747.8 1401.77 736.912 1400.84 718.47 1398.52 C 734.917 1419.77 749.058 1459.71 767.536 1480.5 C 769.783 1483.03 773.212 1484.23 776.418 1485.09 C 775.848 1477.7 776.091 1468.66 776.106 1461.11 C 782.222 1438.25 791.975 1419.98 817.743 1432.07 C 856.947 1450.47 891.117 1478.01 926.024 1503.1 C 908.492 1481.28 892.249 1463.1 872.043 1443.9 C 857.09 1429.68 822.891 1408.19 812.126 1392.95 C 817.611 1374.95 823.355 1361.57 831.16 1344.37 C 853.743 1368.73 874.253 1399.85 898.194 1423.63 C 890.414 1384.71 881.484 1368.15 878.495 1325.7 C 914.197 1367.39 959.063 1441.8 977.047 1493.85 C 977.201 1460.26 980.845 1426.78 987.92 1393.94 C 1001.39 1448.54 1008.98 1499.96 1013.03 1556 C 1013.93 1568.33 1014.41 1583.27 1016.2 1595.14 C 1043.9 1557.4 1068.28 1533.32 1102.13 1502.65 C 1097.9 1516.6 1085.51 1544.4 1083.55 1554.97 C 1107.86 1534.56 1124.8 1517.32 1151.16 1498.15 C 1159.92 1491.8 1168.92 1485.79 1178.13 1480.13 C 1184.9 1476.03 1194.9 1470.69 1200.72 1465.81 C 1192.97 1485.04 1185 1504.18 1176.81 1523.23 C 1174.32 1528.93 1162.48 1551.33 1164.11 1555.77 C 1173.92 1550.88 1219.22 1498.99 1227.87 1488.87 C 1264.69 1445.74 1298.82 1419.52 1346.01 1388.86 C 1340.03 1403.58 1333.69 1418.15 1326.99 1432.55 C 1323.03 1440.96 1317.03 1452.37 1314.04 1460.87 C 1338.38 1448.84 1365.28 1438.27 1390.55 1428.04 C 1404.84 1422.26 1424.53 1413.38 1438.71 1408.72 C 1432.16 1420.76 1425.29 1432.62 1418.11 1444.29 C 1410.73 1456.34 1400.4 1470.85 1396.15 1484.01 C 1405.14 1482.67 1506.45 1475.85 1511.38 1477.76 C 1507.81 1486.94 1475.41 1510.15 1466.16 1518.98 C 1472.14 1519.13 1478.12 1519.33 1484.09 1519.59 C 1511.19 1514.09 1649.72 1468.68 1553.38 1447.27 C 1535.11 1443.21 1520.76 1441.3 1502.2 1443.51 C 1494.77 1444.75 1487.37 1446.13 1480 1447.67 L 1493.66 1432.88 C 1494.13 1432.07 1499.55 1425.09 1500.45 1423.94 C 1508.33 1413.79 1511.61 1408.58 1516.57 1396.99 C 1511.46 1391.25 1509.98 1389.39 1502.78 1386.92 C 1470.26 1378.78 1448.64 1383.82 1418.4 1382.54 L 1417.08 1382.47 C 1473.66 1341.05 1539.56 1310.56 1602.95 1281.24 C 1613.15 1287.98 1649.6 1304.42 1655.26 1311.96 C 1621.42 1322.67 1589.43 1339.19 1558.5 1348.83 C 1598.79 1347.15 1669.39 1338.62 1705.77 1350.57 C 1699.79 1362.06 1682.62 1377.66 1672.1 1385.12 C 1692.28 1393.86 1712.59 1404.13 1731.81 1412.34 C 1694.49 1420.29 1662.4 1431.08 1626.8 1443.2 C 1660.38 1449.88 1692.67 1456.84 1724.93 1468.39 C 1728.58 1469.7 1735.24 1472.16 1738.9 1472.98 C 1737.58 1476.43 1737.07 1477.84 1736.27 1481.42 L 1736.87 1482.77 C 1659.24 1490.88 1587.85 1511.39 1515.33 1539.2 C 1554.59 1545.11 1589.53 1564.77 1621.31 1587.43 C 1618.76 1593.21 1618.63 1593.12 1613.57 1597.08 C 1519.8 1579.78 1423.37 1583.32 1331.12 1607.45 C 1323.54 1610.01 1296.76 1618.5 1291.47 1622.52 C 1295.82 1623.29 1300.21 1621.55 1307.54 1622.91 C 1320.2 1625.25 1333.78 1629.7 1346.27 1631 C 1336.85 1634.18 1327.18 1636.34 1317.56 1638.82 C 1279.12 1648.74 1242.59 1665.9 1204.69 1677.3 C 1172.75 1691.12 1146.01 1705.2 1115.75 1722.49 C 1115.76 1721.47 1112.81 1712.36 1112.25 1711.05 C 1126.75 1689.73 1141.64 1669.46 1149.71 1644.73 C 1135.45 1658.84 1121.77 1673.54 1108.7 1688.77 C 1098.09 1700.95 1013.87 1803.4 1009.02 1805.45 C 1006.69 1804.16 1006.34 1803.22 1004.77 1801.04 C 956.487 1755.23 924.222 1713.73 883.499 1662.37 C 902.319 1659.17 917.992 1658.52 935.988 1655.88 C 919.149 1644.06 906.022 1624.2 885.612 1615.19 C 874.708 1610.38 869.94 1609.71 858.148 1609.29 C 856.648 1644 892.379 1686.52 911.164 1715.92 L 909.995 1716.73 C 904.24 1720.82 906.394 1719.01 901.17 1721.46 C 881.2 1709.26 862.83 1694.46 842.975 1681.97 C 813.417 1663.39 785.461 1637.47 751.11 1628.53 C 727.864 1622.49 703.453 1625.45 679.934 1623.27 C 662.817 1621.68 645.414 1615.49 628.403 1612.74 C 599.331 1608.11 526.301 1599.73 500.344 1605.58 C 520.307 1591.66 537.831 1576.73 560.19 1566.4 C 566.381 1563.54 583.053 1556.71 585.237 1551.05 C 581.669 1543.53 562.302 1527.33 554.101 1524.23 C 537.582 1522.92 517.749 1518.34 500.511 1516.19 C 452.084 1510.2 403.427 1506.25 354.669 1504.35 C 340.241 1503.72 320.594 1501.92 306.758 1502.53 C 335.663 1485.62 421.066 1450.92 453.807 1446.06 C 447.994 1443.01 442.735 1441.27 436.439 1439.59 C 400.689 1430.29 364.642 1422.8 329.211 1412.28 C 303.914 1404.76 266.172 1385.32 292.227 1354.89 C 310.169 1333.93 344.886 1330.63 370.452 1329.52 C 381.395 1329.04 392.649 1330.39 403.643 1329.67 L 404.626 1329.6 L 407.106 1329.81 C 409.45 1332.95 409.931 1341.05 407.004 1343.75 L 405.161 1343.04 C 402.905 1342.19 402.663 1342.12 400.176 1342.15 C 397.537 1344.26 397.367 1344.16 395.745 1347.27 C 395.821 1349.23 395.877 1350.67 395.368 1352.57 C 391.568 1354.84 386.775 1354.3 382.099 1355.28 C 366.131 1352.53 328.166 1360.25 320.298 1374.5 C 319.775 1381.34 328.012 1384.64 333.503 1384.93 C 365.371 1386.67 402.091 1391.08 433.66 1390.16 C 431.137 1386.14 428.854 1382.24 425.864 1378.57 C 434.051 1374.27 445.626 1376.71 455.68 1376.97 L 467.207 1376.75 C 477.117 1377.19 490.724 1379.57 500.043 1377.49 C 499.711 1375.92 495.161 1374.14 492.216 1371.37 L 492.636 1370.1 C 512.808 1362.35 508.882 1378.81 525.519 1356.69 C 538.576 1339.34 528.753 1348.49 532.998 1337.26 C 553.783 1344.88 575.657 1353.23 596.681 1359.92 C 577.448 1341.91 556.61 1325.7 534.426 1311.49 C 525.892 1306.14 514.495 1300.68 506.892 1295.59 C 512.487 1290.36 535.247 1269.08 540.952 1265.19 z M 618.611 1497.23 L 622.214 1498.43 C 630.288 1497.63 635.642 1496.23 644.238 1495.96 C 671.195 1495.16 677.105 1494.09 703.013 1498.59 C 720.962 1501.72 773.181 1522.16 785.375 1521.68 C 784.212 1517.49 784.358 1514.99 784.219 1510.59 C 783.439 1509.41 782.724 1508.33 781.682 1507.36 C 766.969 1493.72 680.425 1467.95 657.412 1464.14 C 647.344 1462.47 637.258 1462.96 627.115 1463.39 C 619.856 1466.97 614.957 1473.02 610.71 1479.8 C 613.244 1488.08 614.163 1489.59 618.611 1497.23 z M 1217 1560.46 L 1220.38 1559.55 L 1222.26 1561.21 C 1223.43 1565.1 1222.22 1570.86 1221.67 1575.11 C 1233.38 1570.9 1255.92 1549.4 1267.25 1540.05 C 1254.1 1543.65 1238.21 1549.88 1225.13 1554.64 C 1222.51 1556.34 1219.16 1558.29 1217 1560.46 z"/><path transform="translate(0,0)" fill="rgb(0,84,175)" d="M 878.495 1325.7 C 914.197 1367.39 959.063 1441.8 977.047 1493.85 C 977.201 1460.26 980.845 1426.78 987.92 1393.94 C 1001.39 1448.54 1008.98 1499.96 1013.03 1556 C 1013.93 1568.33 1014.41 1583.27 1016.2 1595.14 C 1043.9 1557.4 1068.28 1533.32 1102.13 1502.65 C 1097.9 1516.6 1085.51 1544.4 1083.55 1554.97 C 1107.86 1534.56 1124.8 1517.32 1151.16 1498.15 C 1159.92 1491.8 1168.92 1485.79 1178.13 1480.13 C 1184.9 1476.03 1194.9 1470.69 1200.72 1465.81 C 1192.97 1485.04 1185 1504.18 1176.81 1523.23 C 1174.32 1528.93 1162.48 1551.33 1164.11 1555.77 C 1173.92 1550.88 1219.22 1498.99 1227.87 1488.87 C 1264.69 1445.74 1298.82 1419.52 1346.01 1388.86 C 1340.03 1403.58 1333.69 1418.15 1326.99 1432.55 C 1323.03 1440.96 1317.03 1452.37 1314.04 1460.87 C 1338.38 1448.84 1365.28 1438.27 1390.55 1428.04 C 1404.84 1422.26 1424.53 1413.38 1438.71 1408.72 C 1432.16 1420.76 1425.29 1432.62 1418.11 1444.29 C 1410.73 1456.34 1400.4 1470.85 1396.15 1484.01 C 1405.14 1482.67 1506.45 1475.85 1511.38 1477.76 C 1507.81 1486.94 1475.41 1510.15 1466.16 1518.98 C 1472.14 1519.13 1478.12 1519.33 1484.09 1519.59 C 1468.02 1533.09 1437.33 1535.28 1417.06 1536.4 C 1416.75 1528.86 1416.58 1520.59 1416.03 1513.13 C 1393.92 1512.81 1371.82 1514.32 1349.96 1517.67 C 1343.13 1518.7 1332.25 1523.86 1328.78 1523.23 L 1326.82 1519.44 C 1315.89 1516.81 1280.72 1540.44 1270.33 1545.9 C 1290.95 1546.29 1321.21 1549.78 1339.71 1559.21 C 1333.25 1564.29 1320.85 1574.56 1313.85 1577.93 C 1290.88 1588.97 1264.38 1598.4 1240.28 1606.97 C 1231.65 1610.03 1222.48 1614.09 1214.13 1616.73 C 1216.94 1607.17 1217.91 1601.18 1219.6 1591.35 C 1215.58 1594.72 1212 1598.69 1206.71 1598.22 C 1200.43 1591.81 1214.31 1568.61 1217 1560.46 L 1220.38 1559.55 L 1222.26 1561.21 C 1223.43 1565.1 1222.22 1570.86 1221.67 1575.11 C 1233.38 1570.9 1255.92 1549.4 1267.25 1540.05 C 1254.1 1543.65 1238.21 1549.88 1225.13 1554.64 C 1219.14 1554.19 1203.93 1562.23 1197.73 1564.92 C 1182.7 1571.56 1167.35 1577.49 1151.75 1582.68 C 1152.4 1574.85 1156.62 1536.93 1155.03 1532.14 L 1153.46 1532.16 C 1148.32 1535.98 1138.64 1553.4 1133.34 1559.54 C 1090.12 1609.7 1060.33 1669.21 1029.72 1727.45 C 1028.11 1730.52 1026.1 1734.82 1022.72 1735.84 C 1015.26 1729.97 1006.91 1694.61 1003.07 1683.71 C 989.27 1644.49 974.363 1608.12 948.183 1575.28 C 937.902 1562.39 939.764 1555.81 922.952 1547.46 C 926.647 1558.11 935.619 1570.87 941.098 1582.35 C 898.249 1559.93 853.147 1520.25 813.653 1491.37 C 802.081 1482.91 786.44 1470.97 776.106 1461.11 C 782.222 1438.25 791.975 1419.98 817.743 1432.07 C 856.947 1450.47 891.117 1478.01 926.024 1503.1 C 908.492 1481.28 892.249 1463.1 872.043 1443.9 C 857.09 1429.68 822.891 1408.19 812.126 1392.95 C 817.611 1374.95 823.355 1361.57 831.16 1344.37 C 853.743 1368.73 874.253 1399.85 898.194 1423.63 C 890.414 1384.71 881.484 1368.15 878.495 1325.7 z"/><path transform="translate(0,0)" fill="rgb(0,13,38)" d="M 951.705 1529.33 C 962.124 1531.82 976.02 1558.24 973.566 1568.77 C 960.422 1563.59 945.95 1544.04 951.705 1529.33 z"/><path transform="translate(0,0)" fill="rgb(0,84,175)" d="M 540.952 1265.19 C 549.465 1269.01 559.591 1275.79 567.687 1280.84 L 613.36 1309.67 C 629.336 1319.79 650.78 1331.45 665.016 1342.38 C 654.711 1316.61 641.385 1294.03 630.574 1265.42 C 685.559 1302.41 726.545 1355.45 764.934 1408.46 C 747.8 1401.77 736.912 1400.84 718.47 1398.52 C 734.917 1419.77 749.058 1459.71 767.536 1480.5 C 769.783 1483.03 773.212 1484.23 776.418 1485.09 C 783.178 1490.41 787.602 1502.13 784.219 1510.59 C 783.439 1509.41 782.724 1508.33 781.682 1507.36 C 766.969 1493.72 680.425 1467.95 657.412 1464.14 C 647.344 1462.47 637.258 1462.96 627.115 1463.39 L 626.894 1461.58 C 637.683 1449.34 668.937 1444.42 684.57 1442.37 C 649.89 1415.38 579.342 1384.91 535.983 1377.1 C 552.375 1392.66 572.37 1405.13 583.964 1423.58 C 541.436 1419.45 483.195 1408.68 441.343 1419.17 C 456.423 1425.24 466.111 1434.68 480.146 1441.89 C 495.144 1449.6 513.731 1454.89 528.187 1463.76 C 530.509 1465.18 534.786 1472.09 536.263 1474.67 C 520.51 1473.56 470.452 1480.3 455.956 1486.72 L 455.136 1488.24 C 461.881 1491.49 470.714 1490.15 476.732 1492.28 C 498.014 1499.78 540.84 1505.83 554.101 1524.23 C 537.582 1522.92 517.749 1518.34 500.511 1516.19 C 452.084 1510.2 403.427 1506.25 354.669 1504.35 C 340.241 1503.72 320.594 1501.92 306.758 1502.53 C 335.663 1485.62 421.066 1450.92 453.807 1446.06 C 447.994 1443.01 442.735 1441.27 436.439 1439.59 C 400.689 1430.29 364.642 1422.8 329.211 1412.28 C 303.914 1404.76 266.172 1385.32 292.227 1354.89 C 310.169 1333.93 344.886 1330.63 370.452 1329.52 C 381.395 1329.04 392.649 1330.39 403.643 1329.67 L 404.626 1329.6 L 407.106 1329.81 C 409.45 1332.95 409.931 1341.05 407.004 1343.75 L 405.161 1343.04 C 402.905 1342.19 402.663 1342.12 400.176 1342.15 C 397.537 1344.26 397.367 1344.16 395.745 1347.27 C 395.821 1349.23 395.877 1350.67 395.368 1352.57 C 391.568 1354.84 386.775 1354.3 382.099 1355.28 C 366.131 1352.53 328.166 1360.25 320.298 1374.5 C 319.775 1381.34 328.012 1384.64 333.503 1384.93 C 365.371 1386.67 402.091 1391.08 433.66 1390.16 C 431.137 1386.14 428.854 1382.24 425.864 1378.57 C 434.051 1374.27 445.626 1376.71 455.68 1376.97 L 467.207 1376.75 C 477.117 1377.19 490.724 1379.57 500.043 1377.49 C 499.711 1375.92 495.161 1374.14 492.216 1371.37 L 492.636 1370.1 C 512.808 1362.35 508.882 1378.81 525.519 1356.69 C 538.576 1339.34 528.753 1348.49 532.998 1337.26 C 553.783 1344.88 575.657 1353.23 596.681 1359.92 C 577.448 1341.91 556.61 1325.7 534.426 1311.49 C 525.892 1306.14 514.495 1300.68 506.892 1295.59 C 512.487 1290.36 535.247 1269.08 540.952 1265.19 z"/><path transform="translate(0,0)" fill="rgb(0,3,11)" d="M 456.358 1381.23 C 461.628 1383.42 461.958 1383.59 465.806 1387.63 C 456.337 1390.96 448.822 1392.2 438.82 1396.1 L 437.811 1395.58 C 443.55 1389.66 450.065 1387.75 456.358 1381.23 z"/><path transform="translate(0,0)" fill="rgb(0,43,109)" d="M 455.68 1376.97 L 467.207 1376.75 C 466.912 1381.38 466.782 1383.15 465.806 1387.63 C 461.958 1383.59 461.628 1383.42 456.358 1381.23 L 455.68 1376.97 z"/><path transform="translate(0,0)" fill="rgb(0,84,175)" d="M 1602.95 1281.24 C 1613.15 1287.98 1649.6 1304.42 1655.26 1311.96 C 1621.42 1322.67 1589.43 1339.19 1558.5 1348.83 C 1598.79 1347.15 1669.39 1338.62 1705.77 1350.57 C 1699.79 1362.06 1682.62 1377.66 1672.1 1385.12 C 1692.28 1393.86 1712.59 1404.13 1731.81 1412.34 C 1694.49 1420.29 1662.4 1431.08 1626.8 1443.2 C 1622.95 1444.06 1618.47 1444.66 1614.65 1443.48 C 1627.89 1429.04 1653.3 1424.6 1672.38 1418.86 C 1647.35 1407.25 1615.84 1409.71 1589.62 1404.3 C 1593.63 1401.81 1598.52 1399.32 1601.26 1395.69 L 1600.96 1393.87 C 1601.03 1393.93 1573.65 1381.66 1573.71 1381.67 C 1548.56 1376.37 1529.13 1389.11 1502.78 1386.92 C 1470.26 1378.78 1448.64 1383.82 1418.4 1382.54 L 1417.08 1382.47 C 1473.66 1341.05 1539.56 1310.56 1602.95 1281.24 z"/><path transform="translate(0,0)" fill="rgb(0,84,175)" d="M 644.238 1495.96 C 671.195 1495.16 677.105 1494.09 703.013 1498.59 C 720.962 1501.72 773.181 1522.16 785.375 1521.68 L 787.68 1521.62 L 787.965 1523.07 C 782.641 1526.5 782.539 1528.63 781.301 1534.9 C 786.053 1541.4 793.958 1556.82 798.169 1564.14 C 803.964 1574.21 812.073 1587.23 816.874 1597.54 C 796.714 1595.85 778.353 1590.74 757.505 1590.95 C 716.302 1591.36 675.321 1599.24 634.1 1594.45 C 628.018 1593.74 620.946 1589.86 615.506 1587.08 L 615.196 1585.33 L 612.168 1585.29 C 621.201 1584.77 622.689 1583.02 625.738 1574.69 C 638.748 1563.65 701.599 1559.29 706.601 1550.17 C 704.876 1546.43 682.574 1540.19 677.596 1537.96 C 666.386 1532.93 653.457 1529.05 642.468 1523.6 C 647.465 1522.3 649.089 1525.06 653.765 1522.72 C 648.328 1520.29 641.001 1517.61 640.483 1511.06 C 642.567 1507.99 642.337 1508.13 645.65 1506.49 L 645.465 1505.72 C 645.065 1504.65 645.401 1505.25 644.129 1504.15 C 641.095 1503.53 640.229 1503.35 637.206 1502.26 C 641.653 1499.82 642.678 1499.94 644.238 1495.96 z"/><path transform="translate(0,0)" fill="rgb(143,171,193)" d="M 645.65 1506.49 C 665.391 1506.03 678.54 1508.25 696.272 1517.2 C 680.537 1525.35 672.244 1528.55 654.684 1523.02 L 653.765 1522.72 C 648.328 1520.29 641.001 1517.61 640.483 1511.06 C 642.567 1507.99 642.337 1508.13 645.65 1506.49 z"/><path transform="translate(0,0)" fill="rgb(143,171,193)" d="M 689.025 1570.42 C 692.36 1570.11 696.887 1569.06 698.658 1572.32 C 691.267 1584.11 654.169 1588.45 640.749 1588.12 C 634.328 1586.17 632.623 1585.03 627.031 1581.72 C 644.558 1576.95 671.546 1571.31 689.025 1570.42 z"/><path transform="translate(0,0)" fill="rgb(0,84,175)" d="M 935.988 1655.88 C 943.176 1656.95 948.422 1664.17 952.801 1670.48 C 978.464 1707.44 1005.18 1751.88 1006.61 1797.97 C 1006.66 1799.61 1005.84 1799.92 1004.77 1801.04 C 956.487 1755.23 924.222 1713.73 883.499 1662.37 C 902.319 1659.17 917.992 1658.52 935.988 1655.88 z"/><path transform="translate(0,0)" fill="rgb(0,84,175)" d="M 1274.78 1626.26 C 1269.56 1624.98 1242.17 1621.34 1241.04 1620.69 C 1241.35 1620.52 1241.66 1620.34 1241.96 1620.17 C 1259.6 1618.82 1318.01 1599.25 1332.25 1603.57 C 1331.94 1605.95 1332.09 1605.22 1331.12 1607.45 C 1323.54 1610.01 1296.76 1618.5 1291.47 1622.52 C 1295.82 1623.29 1300.21 1621.55 1307.54 1622.91 C 1320.2 1625.25 1333.78 1629.7 1346.27 1631 C 1336.85 1634.18 1327.18 1636.34 1317.56 1638.82 C 1279.12 1648.74 1242.59 1665.9 1204.69 1677.3 C 1215.16 1652.46 1252.78 1658.13 1274.78 1626.26 z"/><path transform="translate(0,0)" fill="rgb(0,43,109)" d="M 622.214 1498.43 C 630.288 1497.63 635.642 1496.23 644.238 1495.96 C 642.678 1499.94 641.653 1499.82 637.206 1502.26 C 640.229 1503.35 641.095 1503.53 644.129 1504.15 C 645.401 1505.25 645.065 1504.65 645.465 1505.72 L 645.65 1506.49 C 642.337 1508.13 642.567 1507.99 640.483 1511.06 C 641.001 1517.61 648.328 1520.29 653.765 1522.72 C 649.089 1525.06 647.465 1522.3 642.468 1523.6 C 636.378 1523.16 625.643 1518.44 620.993 1513.67 C 619.627 1511.96 615.862 1505.2 614.469 1502.85 L 616.432 1499.74 C 616.842 1499.12 618.063 1497.84 618.611 1497.23 L 622.214 1498.43 z"/><path transform="translate(0,0)" fill="rgb(0,84,175)" d="M 620.993 1513.67 C 628.762 1509.55 636.612 1505.67 645.465 1505.72 L 645.65 1506.49 C 642.337 1508.13 642.567 1507.99 640.483 1511.06 C 641.001 1517.61 648.328 1520.29 653.765 1522.72 C 649.089 1525.06 647.465 1522.3 642.468 1523.6 C 636.378 1523.16 625.643 1518.44 620.993 1513.67 z"/><path transform="translate(0,0)" fill="rgb(0,70,147)" d="M 622.214 1498.43 C 630.288 1497.63 635.642 1496.23 644.238 1495.96 C 642.678 1499.94 641.653 1499.82 637.206 1502.26 C 640.229 1503.35 641.095 1503.53 644.129 1504.15 C 637.64 1504.27 629.031 1506 623.631 1503.6 C 621.444 1500.67 621.996 1502.31 622.214 1498.43 z"/><path transform="translate(0,0)" fill="rgb(0,3,11)" d="M 1493.66 1432.88 C 1497.46 1442.22 1497.69 1436.61 1502.2 1443.51 C 1494.77 1444.75 1487.37 1446.13 1480 1447.67 L 1493.66 1432.88 z"/><path transform="translate(0,0)" fill="rgb(0,70,147)" d="M 614.469 1502.85 C 612.458 1499.55 609.892 1495.7 610.746 1491.83 C 613.418 1493.15 614.908 1496.91 616.432 1499.74 L 614.469 1502.85 z"/><path transform="translate(0,0)" fill="rgb(0,70,147)" d="M 1606.87 1434.26 C 1611.02 1434.1 1614.07 1433.45 1617.05 1436.57 L 1616.84 1439.08 C 1613.25 1439.74 1613.44 1439.79 1609.85 1439.23 C 1607 1436.56 1608 1438.13 1606.87 1434.26 z"/><path transform="translate(0,0)" fill="rgb(0,84,175)" d="M 282.732 720.529 C 281.511 717.389 264.585 704.256 259.979 700.377 C 231.022 675.985 175.884 609.702 210.042 571.246 C 236.429 541.54 283.865 563.18 308.767 583.984 C 326.243 598.584 346.03 614.103 361.074 632.009 C 371.078 642.968 380.064 657.23 390.933 667.121 C 391.656 672.782 393.54 685.82 395.293 690.832 C 395.829 694.171 396.735 698.747 396.732 702.027 C 376.885 679.459 281.947 569.412 234.68 588.582 C 232.567 589.439 230.513 594.397 230.653 596.589 C 230.121 602.316 234.4 611.209 238.38 615.15 C 248.478 625.15 262.616 632.512 274.165 640.557 C 282.684 646.491 293.971 654.086 301.872 660.331 C 344.941 694.372 406.761 755.446 435.557 802.084 C 419.183 795.38 349.327 766.096 334.733 770.682 C 332.663 778.627 350.794 796.541 353.318 803.935 C 352.888 807.332 354.147 807.029 353.163 810.457 C 340.034 809.796 284.787 778.796 272.178 768.84 C 266.157 764.085 255.511 744.963 258.115 737.163 C 262.839 735.345 313.59 757.505 326.055 759.102 C 314.25 748.23 295.054 729.516 282.732 720.529 z"/><path transform="translate(0,0)" fill="rgb(0,84,175)" d="M 1699.95 870.335 C 1754.57 827.852 1856.6 758.466 1929.29 764.271 C 1940.62 765.176 1954.53 770.996 1961.34 780.38 C 1966.64 787.698 1968.94 796.077 1967.36 805.22 C 1961.89 836.965 1932.97 862.246 1909.04 881.137 C 1898.84 889.188 1882.92 899.279 1874.28 907.478 C 1850.55 929.998 1827.25 954.198 1805.03 978.175 C 1798.81 984.884 1783.55 999.091 1779.43 1004.81 C 1774.31 994.473 1780.49 983.442 1786.75 975.33 C 1769.58 983.447 1752.68 992.133 1736.09 1001.37 C 1729.77 1004.91 1697.28 1023.7 1693.53 1024.86 C 1690.25 1016.91 1697.6 1006.58 1703.41 1001.63 C 1725.97 982.74 1746.25 967.31 1770.06 949.952 C 1783.99 939.795 1808.71 921.224 1820.34 909.162 C 1814.36 907.833 1793.23 904.045 1790.28 899.535 C 1793.59 894.816 1812.77 886.484 1820.72 882.153 C 1856.5 862.667 1912.1 839.025 1933.05 803.227 C 1933.57 801.622 1933.84 798.448 1932.79 797.135 C 1924.1 786.249 1889.09 794.116 1879.28 798.083 C 1823.42 820.667 1774.29 855.888 1725.26 890.212 C 1714.42 897.8 1704.26 909.166 1693.46 916.377 L 1692.06 917.292 C 1687.57 916.695 1681.64 921.493 1677.67 924.069 C 1694.47 892.288 1694.8 898.111 1719.88 873.906 C 1714.42 875.902 1702.39 879.698 1696.63 878.502 C 1698.76 875.104 1699.19 874.255 1699.95 870.335 z"/><path transform="translate(0,0)" fill="rgb(0,84,175)" d="M 238.663 961.829 C 207.449 952.435 160.669 938.827 154.546 900.381 C 153.206 891.133 156.633 879.082 163.03 872.05 C 188.285 844.528 231.246 839.365 266.563 841.077 C 277.361 841.6 295.3 845.091 304.941 843.736 C 331.262 864.271 361.17 884.478 393.187 894.765 C 400.685 897.173 411.298 897.655 410.58 907.096 C 407.79 908.44 408.895 908.016 405.528 908.064 L 406.132 908.932 L 406.246 907.885 C 408.586 912.712 418.644 914.53 418.926 919.339 C 410.45 932.051 425.819 935.091 408.276 942.929 C 390.767 950.752 328.478 920.418 318.91 923.24 C 311.645 915.165 308.426 909.227 302.541 900.241 C 339.042 898.818 364.878 911.904 397.423 923.248 C 385.589 899.996 367.583 890.13 343.441 882.294 C 308.142 870.837 274.889 866.961 238.277 873.599 C 226.342 875.763 213.816 878.851 202.94 884.377 C 198.885 886.438 193.712 889.303 192.032 893.851 C 191.099 896.379 191.603 898.826 192.999 901.044 C 202.749 916.544 295.054 935.774 320.609 956.329 L 333.083 964.489 C 329.857 965.71 326.955 965.197 324.727 966.416 C 318.962 970.023 308.829 967.864 302.332 966.522 C 284.02 962.742 268.245 961.849 249.656 961.936 C 244.507 961.001 243.802 960.928 238.663 961.829 z"/><path transform="translate(0,0)" fill="rgb(0,3,11)" d="M 320.609 956.329 L 333.083 964.489 C 329.857 965.71 326.955 965.197 324.727 966.416 C 321.825 962.156 319.268 963.035 317.95 960.165 L 320.609 956.329 z"/><path transform="translate(0,0)" fill="rgb(0,84,175)" d="M 1778.45 1009.33 L 1779.8 1009.87 C 1792.82 1014.98 1807.09 1016.13 1820.67 1019.18 C 1836.92 1022.83 1879.62 1033.87 1886.29 1050.17 C 1887.83 1053.93 1887.65 1057.73 1886.02 1061.43 C 1878.18 1079.18 1820.84 1102.11 1802.45 1114.88 C 1787.44 1111.37 1787.27 1112 1771.91 1115.96 C 1775.01 1105.1 1778.11 1102.04 1784.89 1093.06 C 1785.55 1091.85 1785.37 1091.79 1785.57 1090.32 L 1782.79 1086.97 C 1806.36 1075.34 1829.15 1071.08 1849.62 1053.86 C 1832.25 1044.78 1827.94 1045.74 1808.85 1045.85 C 1810.02 1045 1810.16 1044.71 1811.14 1043.63 C 1796.55 1040.3 1790.53 1035.2 1776.47 1030.66 C 1779.72 1029.28 1782.17 1028.62 1784.54 1025.89 L 1785.1 1026.12 L 1785.2 1025.74 C 1779.24 1021.57 1782.67 1018.59 1778.45 1009.33 z"/><path transform="translate(0,0)" fill="rgb(0,84,175)" d="M 314.876 1162.63 C 353.328 1163.05 379.112 1168.37 415.302 1181.66 C 423.749 1184.76 435.489 1187.31 441.984 1193.35 C 437.726 1192.98 432.101 1192.18 428.64 1194.74 C 427.767 1202.09 438.305 1203.63 440.163 1212.13 C 442.913 1222.02 456.822 1241.38 460.439 1251.95 C 459.353 1253.9 459.124 1255.53 458.544 1257.72 C 453.579 1258.48 401.071 1220.53 392.355 1214.75 C 376.807 1204.45 358.549 1192.62 342.46 1182.16 C 333.931 1176.62 324.923 1168.95 315.995 1163.32 L 314.876 1162.63 z"/><path transform="translate(0,0)" fill="rgb(0,70,147)" d="M 754.532 1100.49 C 756.144 1122.67 758.457 1138.01 761.29 1159.86 C 748.747 1173.95 736.742 1188.18 726.138 1203.83 C 718.288 1202.35 712.123 1199.71 703.736 1198.8 C 715.686 1157.68 724.137 1132.12 754.532 1100.49 z"/><path transform="translate(0,0)" fill="rgb(0,84,175)" d="M 428.752 650.523 C 426.259 639.933 406.275 615.536 409.573 604.406 C 426.838 594.601 479.333 655.511 490.082 670.589 C 486.62 670.9 486.603 670.979 483.222 670.362 C 472.717 660.944 471.606 666.742 461.808 664.69 C 455.285 663.324 433.649 654.355 428.752 650.523 z"/><path transform="translate(0,0)" fill="rgb(0,3,11)" d="M 1712.63 830.922 L 1707.44 841.131 C 1688.7 831.112 1628.01 871.375 1617.31 869.023 L 1616.4 868.38 C 1654.3 850.823 1671.6 842.282 1712.63 830.922 z"/><path transform="translate(0,0)" fill="rgb(0,3,11)" d="M 1723.46 1124.94 C 1730.65 1108.53 1766.56 1093.19 1782.79 1086.97 L 1785.57 1090.32 C 1785.37 1091.79 1785.55 1091.85 1784.89 1093.06 C 1760.74 1096.14 1746.91 1106.56 1727.84 1121.38 C 1726.26 1122.6 1725.2 1123.79 1723.46 1124.94 z"/><path transform="translate(0,0)" fill="rgb(0,3,11)" d="M 501.224 660.657 C 509.849 663.529 515.292 665.214 523.302 669.434 C 518.838 671.314 517.486 670.469 512.456 669.331 C 507.47 671.384 511.004 672.96 506.611 674.545 C 505.801 668.523 504.068 665.803 501.224 660.657 z"/><path transform="translate(0,0)" fill="rgb(0,3,11)" d="M 1353.69 1408.11 C 1355.01 1411.42 1356.28 1413.87 1357.02 1417.4 C 1350.63 1421.2 1347.8 1423.12 1341.99 1427.74 C 1345.83 1420.7 1349.39 1414.91 1353.69 1408.11 z"/><path transform="translate(0,0)" fill="rgb(0,3,11)" d="M 249.486 725.148 C 254.446 712.166 263.479 716.326 274.361 718.87 C 271.513 720.257 264.779 719.718 260.587 720.553 C 254.567 721.753 254.205 723.222 249.486 725.148 z"/><path transform="translate(0,0)" fill="rgb(0,3,11)" d="M 468.38 1261.94 C 471.925 1266.21 474.929 1269.96 478.258 1274.44 C 472.339 1272.99 467.692 1271.81 461.642 1270.99 C 464.401 1267.27 464.561 1268.21 467.621 1263.17 L 468.38 1261.94 z"/><path transform="translate(0,0)" fill="rgb(0,3,11)" d="M 238.663 961.829 C 243.802 960.928 244.507 961.001 249.656 961.936 C 253.249 963.217 254.006 963.434 257.18 965.445 C 258.733 969.099 258.764 967.411 258.008 970.627 C 252.389 967.099 244.918 964.365 238.663 961.829 z"/><path transform="translate(0,0)" fill="rgb(0,3,11)" d="M 1101.7 367.121 C 1108.83 364.9 1118.83 362.748 1126.26 360.92 C 1125.85 369.03 1107.42 366.971 1101.7 367.121 z"/><path transform="translate(0,0)" fill="rgb(0,3,11)" d="M 826.907 1321.82 C 829.415 1320.58 833.518 1321.39 835.57 1323.21 C 834.747 1327.08 833.303 1331.79 832.229 1335.69 C 830.332 1331.11 828.557 1326.49 826.907 1321.82 z"/><path transform="translate(0,0)" fill="rgb(0,3,11)" d="M 1035.51 1432.01 C 1036.38 1430.07 1037.06 1428.29 1037.58 1426.23 C 1040.33 1433.69 1040.61 1439.63 1038.78 1447.26 L 1035.51 1432.01 z"/><path transform="translate(0,0)" fill="rgb(0,98,200)" d="M 539.435 826.623 C 549.033 803.291 573.486 765.663 588.24 745.35 C 668.926 636.395 772.767 546.686 892.286 482.682 C 1059.65 392.785 1265.71 360.678 1454.19 359.907 C 1518.69 359.643 1586.74 363.176 1648.93 381.718 C 1654.38 383.341 1663.69 385.467 1666.18 390.118 C 1668.72 395.998 1669.89 409.025 1670.47 415.839 C 1672.88 446.326 1671.37 476.996 1665.99 507.101 C 1664.03 518.551 1661.09 529.936 1659.02 541.431 C 1655.94 516.175 1659.42 499.299 1653.79 470.846 C 1648.86 488.991 1647.75 504.102 1640.71 521.467 L 1639.72 521.035 C 1639.84 516.859 1640.44 517.446 1638.7 514.318 L 1637.34 513.901 C 1633.69 535.837 1627.47 552.431 1618.71 572.935 C 1618.92 574.897 1619.07 576.476 1619.15 578.445 C 1621.53 580.519 1622.39 580.232 1625.75 581.017 C 1631.2 575.046 1636.47 568.91 1641.55 562.619 C 1648.52 583.078 1649.92 601.473 1646.11 622.745 C 1645.17 627.98 1643.02 639.182 1643.41 644.059 C 1647.36 634.717 1649.74 630.182 1657.48 623.014 C 1660.84 691.452 1650.35 730.362 1611.28 788.558 C 1612.76 777.04 1614.69 764.688 1614.92 753.142 C 1614.91 744.917 1615.23 734.581 1612.58 726.888 C 1601.3 694.149 1546.08 668.93 1517.19 653.738 C 1480.41 634.746 1422.04 622.857 1381.52 616.622 L 1380.7 616.599 C 1370.93 616.244 1358.09 614.169 1347.96 613.274 C 1332.04 612 1316.06 611.675 1300.1 612.299 C 1181.95 617.261 1096.44 680.327 1011.94 757.596 C 989.814 777.83 934.122 832.821 927.485 861.143 L 928.371 862.255 C 946.129 839.095 978.039 819.993 1004.3 807.578 C 984.704 887.908 992.708 942.58 1036.45 1013.04 C 1078.8 1081.99 1130.11 1146.9 1207.2 1178.38 C 1268.05 1203.22 1341.33 1209.31 1399.32 1173.6 C 1466.18 1132.42 1493.79 1063.73 1516.69 992.35 C 1518.68 986.124 1520.95 979.32 1523.39 973.254 C 1517.83 1048.42 1501.69 1107.94 1461.03 1171.52 C 1416.46 1242.53 1334.7 1283.87 1252.47 1255.32 C 1182.37 1230.99 1100.19 1187.73 1043.19 1139.93 C 1029.32 1128.31 1016.19 1115.84 1003.86 1102.6 C 997.716 1096 989.424 1085.79 983.254 1079.9 L 981.765 1078.5 C 979.83 1078.29 978.883 1077.94 977.115 1077.13 C 973.59 1078.3 974.448 1078.38 971.727 1082.05 C 977.895 1092.6 984.225 1101.27 991.576 1110.88 C 956.645 1093.98 911.237 1047.65 887.33 1016.23 C 880.365 1007.07 867.43 985.858 860.953 979.522 C 870.564 1003.43 879.059 1021.38 889.446 1044.59 L 888.139 1044.93 C 882.03 1036.66 880.046 1043.7 875.528 1040.53 C 864.729 1032.95 848.886 1016.24 834.16 1016.81 C 836.415 1014.59 836.093 1015.58 836.815 1012.94 C 832.291 1007.9 824.777 1002.66 819.209 998.184 C 817.491 996.697 816.425 995.567 814.857 993.915 L 816.066 992.87 C 816.136 987.759 803.485 973.776 799.857 966.837 C 795.585 961.205 789.428 954.864 786.332 949.021 C 778.288 937.428 768.937 925.662 761.329 914.016 C 752.495 900.495 744.046 884.355 736.237 870.073 C 727.252 858.625 706.571 818.432 699.282 803.924 C 698.554 811.52 699.545 818.142 698.29 825.356 C 695.031 818.797 694.541 813.575 693.241 806.382 C 692.119 756.471 688.514 733.067 702.544 682.848 C 693.439 695.555 688.901 706.984 682.667 721.009 C 663.313 764.555 668.848 806.044 676.987 851.324 C 675.815 850.256 674.662 849.167 673.528 848.058 C 639.836 815.3 637.473 784.317 636.964 740.646 C 636.245 737.17 636.369 737.218 634.415 734.014 L 634.26 731.006 L 632.658 730.662 C 628.949 733.251 627.742 734.589 624.51 737.855 C 622.529 733.256 623.391 732.965 620.068 731.596 C 613.823 733.964 613.224 741.811 604.262 745.874 C 596.474 753.702 555.628 806.049 552.648 813.971 C 548.365 818.931 545.154 823.426 539.435 826.623 z"/><path transform="translate(0,0)" fill="rgb(254,254,254)" d="M 1446.77 479.977 C 1471 458.522 1506.69 436.721 1537.9 429.322 C 1562.97 423.379 1601.01 418.76 1624.17 432.821 C 1645.56 452.678 1639.55 487.595 1637.34 513.901 C 1633.69 535.837 1627.47 552.431 1618.71 572.935 C 1618.92 574.897 1619.07 576.476 1619.15 578.445 C 1621.53 580.519 1622.39 580.232 1625.75 581.017 C 1631.2 575.046 1636.47 568.91 1641.55 562.619 C 1648.52 583.078 1649.92 601.473 1646.11 622.745 C 1645.17 627.98 1643.02 639.182 1643.41 644.059 C 1647.36 634.717 1649.74 630.182 1657.48 623.014 C 1660.84 691.452 1650.35 730.362 1611.28 788.558 C 1612.76 777.04 1614.69 764.688 1614.92 753.142 C 1614.91 744.917 1615.23 734.581 1612.58 726.888 C 1601.3 694.149 1546.08 668.93 1517.19 653.738 C 1480.41 634.746 1422.04 622.857 1381.52 616.622 L 1380.7 616.599 C 1370.93 616.244 1358.09 614.169 1347.96 613.274 C 1332.04 612 1316.06 611.675 1300.1 612.299 C 1181.95 617.261 1096.44 680.327 1011.94 757.596 C 989.814 777.83 934.122 832.821 927.485 861.143 L 928.371 862.255 C 946.129 839.095 978.039 819.993 1004.3 807.578 C 984.704 887.908 992.708 942.58 1036.45 1013.04 C 1078.8 1081.99 1130.11 1146.9 1207.2 1178.38 C 1268.05 1203.22 1341.33 1209.31 1399.32 1173.6 C 1466.18 1132.42 1493.79 1063.73 1516.69 992.35 C 1518.68 986.124 1520.95 979.32 1523.39 973.254 C 1517.83 1048.42 1501.69 1107.94 1461.03 1171.52 C 1416.46 1242.53 1334.7 1283.87 1252.47 1255.32 C 1182.37 1230.99 1100.19 1187.73 1043.19 1139.93 C 1029.32 1128.31 1016.19 1115.84 1003.86 1102.6 C 997.716 1096 989.424 1085.79 983.254 1079.9 L 981.765 1078.5 C 979.83 1078.29 978.883 1077.94 977.115 1077.13 C 973.59 1078.3 974.448 1078.38 971.727 1082.05 C 977.895 1092.6 984.225 1101.27 991.576 1110.88 C 956.645 1093.98 911.237 1047.65 887.33 1016.23 C 880.365 1007.07 867.43 985.858 860.953 979.522 C 870.564 1003.43 879.059 1021.38 889.446 1044.59 L 888.139 1044.93 C 882.03 1036.66 880.046 1043.7 875.528 1040.53 C 864.729 1032.95 848.886 1016.24 834.16 1016.81 C 836.415 1014.59 836.093 1015.58 836.815 1012.94 C 832.291 1007.9 824.777 1002.66 819.209 998.184 C 817.491 996.697 816.425 995.567 814.857 993.915 L 816.066 992.87 C 816.136 987.759 803.485 973.776 799.857 966.837 C 795.585 961.205 789.428 954.864 786.332 949.021 L 787.37 946.617 C 776.099 928.156 764.57 893.683 761.914 872.24 C 763.308 867.953 764.344 865.032 766.141 860.906 C 766.018 853.966 764.765 851.495 758.923 848.706 C 757.022 820.772 757.731 802.789 762.936 775.241 L 764.96 768.938 L 765.807 768.524 C 770.105 780.511 773.028 793.932 776.901 805.713 C 784.721 829.504 803.113 871.683 817.565 892.093 C 820.23 899.289 839.498 932.142 844.586 939.855 L 844.857 938.569 C 815.263 873.551 809.926 794.294 823.464 724.849 L 824.527 724.347 C 826.427 728.403 830.955 747.517 832.008 753.013 C 835.883 773.24 851.688 824.173 864.217 840.102 C 870.145 853.39 884.682 878.385 892.651 890.71 C 879.442 853.535 873 803.54 876.735 763.879 C 884.205 743.492 894.516 722.638 907.247 705.008 C 913.788 695.95 921.195 688.345 927.322 678.736 L 928.132 677.451 C 925.363 694.651 923.203 703.452 918.719 720.26 C 930.932 697.21 944.313 664.689 961.199 644.807 C 964.187 659.616 967.063 670.088 964.972 684.994 C 994.259 640.62 1043.82 600.329 1088.21 571.542 C 1093.61 569.309 1095.27 568.511 1101.14 567.569 C 1101.64 573.2 1096.38 575.494 1092.27 579.252 C 1057.75 610.819 1029.64 651.348 1003.7 689.836 C 1012.12 682.745 1019.9 674.832 1028.88 667.977 C 1102.76 611.581 1203.02 551.803 1297.58 547.125 C 1312.05 546.403 1326.55 547.069 1340.89 549.115 C 1356.03 551.398 1365.65 554.501 1381.16 554.084 C 1394.29 536.517 1362.32 517.679 1352.89 504.901 C 1359.18 503.42 1365.8 501.552 1372.08 499.893 C 1373.86 498.242 1375.53 498.73 1378.64 498.473 L 1376.86 496.695 L 1378.96 495.558 C 1388.52 498.304 1406.89 501.408 1414.57 507.134 C 1418.57 504.604 1420.29 501.39 1423.05 497.473 C 1425.42 493.796 1434.36 484.703 1437.66 481.235 C 1441.75 481.199 1442.71 480.909 1446.77 479.977 z"/><path transform="translate(0,0)" fill="rgb(186,208,220)" d="M 766.141 860.906 C 777.805 909.458 800.281 936.741 842.372 962.495 C 846.219 964.886 850.157 967.127 854.178 969.213 C 856.755 955.517 858.6 949.336 864.152 936.651 C 875.308 952.386 886.607 968.071 897.17 984.212 C 899.94 988.444 901.857 991.367 905.544 994.893 C 912.997 979.086 922.342 955.864 931.966 942.442 C 944.342 966.829 952.049 990.75 966.209 1013.22 C 1005.17 1075.03 1056.09 1125.08 1118.02 1163.8 C 1128.05 1170.07 1138.92 1179.12 1149.12 1185.18 C 1177.99 1202.33 1213.2 1216.9 1244.54 1228.03 C 1287.11 1243.14 1348.33 1243.65 1388.92 1222.66 C 1407.46 1213.07 1429.87 1196.01 1444.62 1180.6 C 1447.81 1177.27 1452.98 1170.89 1457.45 1170.05 L 1461.03 1171.52 C 1416.46 1242.53 1334.7 1283.87 1252.47 1255.32 C 1182.37 1230.99 1100.19 1187.73 1043.19 1139.93 C 1029.32 1128.31 1016.19 1115.84 1003.86 1102.6 C 997.716 1096 989.424 1085.79 983.254 1079.9 L 981.765 1078.5 C 979.83 1078.29 978.883 1077.94 977.115 1077.13 C 973.59 1078.3 974.448 1078.38 971.727 1082.05 C 977.895 1092.6 984.225 1101.27 991.576 1110.88 C 956.645 1093.98 911.237 1047.65 887.33 1016.23 C 880.365 1007.07 867.43 985.858 860.953 979.522 C 870.564 1003.43 879.059 1021.38 889.446 1044.59 L 888.139 1044.93 C 882.03 1036.66 880.046 1043.7 875.528 1040.53 C 864.729 1032.95 848.886 1016.24 834.16 1016.81 C 836.415 1014.59 836.093 1015.58 836.815 1012.94 C 832.291 1007.9 824.777 1002.66 819.209 998.184 C 817.491 996.697 816.425 995.567 814.857 993.915 L 816.066 992.87 C 816.136 987.759 803.485 973.776 799.857 966.837 C 795.585 961.205 789.428 954.864 786.332 949.021 L 787.37 946.617 C 776.099 928.156 764.57 893.683 761.914 872.24 C 763.308 867.953 764.344 865.032 766.141 860.906 z"/><path transform="translate(0,0)" fill="rgb(0,3,11)" d="M 937.178 1015.18 C 953.713 1042.44 964.366 1053.96 981.765 1078.5 C 979.83 1078.29 978.883 1077.94 977.115 1077.13 C 973.59 1078.3 974.448 1078.38 971.727 1082.05 C 963.424 1067.75 941.298 1029.69 937.178 1015.18 z"/><path transform="translate(0,0)" fill="rgb(52,115,207)" d="M 787.37 946.617 C 790.837 951.679 799.784 962.173 799.857 966.837 C 795.585 961.205 789.428 954.864 786.332 949.021 L 787.37 946.617 z"/><path transform="translate(0,0)" fill="rgb(186,208,220)" d="M 1624.17 432.821 C 1645.56 452.678 1639.55 487.595 1637.34 513.901 C 1633.69 535.837 1627.47 552.431 1618.71 572.935 C 1618.92 574.897 1619.07 576.476 1619.15 578.445 C 1621.53 580.519 1622.39 580.232 1625.75 581.017 C 1631.2 575.046 1636.47 568.91 1641.55 562.619 C 1648.52 583.078 1649.92 601.473 1646.11 622.745 C 1645.17 627.98 1643.02 639.182 1643.41 644.059 C 1647.36 634.717 1649.74 630.182 1657.48 623.014 C 1660.84 691.452 1650.35 730.362 1611.28 788.558 C 1612.76 777.04 1614.69 764.688 1614.92 753.142 C 1614.91 744.917 1615.23 734.581 1612.58 726.888 C 1601.3 694.149 1546.08 668.93 1517.19 653.738 C 1518.08 652.172 1518.59 650.377 1519.81 650.529 C 1543.12 653.404 1579.2 666.407 1599.24 675.2 C 1600.83 679.691 1612.34 696.52 1616.29 698.268 C 1617.61 695.773 1617.35 694.287 1617.36 691.467 C 1615.14 683.812 1613.98 681.243 1610.26 673.985 L 1612.28 672.801 C 1591.88 632.906 1561.5 624.759 1520.62 615.624 L 1520.46 612.782 C 1525.85 602.782 1583.01 627.111 1591.16 623.276 C 1588.71 602.799 1513.44 569.847 1493.13 562.447 C 1510.33 560.907 1533.51 549.967 1548.29 541.085 C 1581.27 521.276 1615.45 470.378 1624.17 432.821 z"/><path transform="translate(0,0)" fill="rgb(254,254,254)" d="M 1657.48 623.014 C 1660.84 691.452 1650.35 730.362 1611.28 788.558 C 1612.76 777.04 1614.69 764.688 1614.92 753.142 L 1616.12 753.425 L 1617.25 751.989 C 1617.88 753.175 1618.22 755.312 1618.53 756.645 C 1631.42 726.556 1625.84 714.677 1631.05 685.015 C 1632.52 676.614 1640.58 655.957 1643.41 644.059 C 1647.36 634.717 1649.74 630.182 1657.48 623.014 z"/><path transform="translate(0,0)" fill="rgb(0,3,11)" d="M 1618.71 572.935 C 1618.92 574.897 1619.07 576.476 1619.15 578.445 C 1621.53 580.519 1622.39 580.232 1625.75 581.017 C 1617.84 589.187 1610.29 595.129 1601.28 601.971 C 1608.4 591.826 1612.76 583.746 1618.71 572.935 z"/><path transform="translate(0,0)" fill="rgb(0,98,200)" d="M 1612.28 672.801 C 1615.42 678.639 1618.64 684.66 1617.36 691.467 C 1615.14 683.812 1613.98 681.243 1610.26 673.985 L 1612.28 672.801 z"/><path transform="translate(0,0)" fill="rgb(186,208,220)" d="M 923.578 855.255 C 922.999 841.517 933.043 826.55 938.836 814.706 C 951.653 788.502 966.716 772.179 987.451 752.68 C 1021.16 720.977 1058.43 696.369 1097.36 671.559 C 1120.62 654.559 1144.99 640.007 1169.16 624.547 C 1212.33 596.934 1268.72 591.845 1318.73 596.131 C 1340.56 598.003 1367.92 609.428 1390.35 612.518 C 1392.04 612.75 1394.16 614.138 1394.98 615.739 C 1390.05 616.98 1387.86 614.76 1381.52 616.622 L 1380.7 616.599 C 1370.93 616.244 1358.09 614.169 1347.96 613.274 C 1332.04 612 1316.06 611.675 1300.1 612.299 C 1181.95 617.261 1096.44 680.327 1011.94 757.596 C 989.814 777.83 934.122 832.821 927.485 861.143 L 925.335 863.245 L 924.335 862.491 C 924.415 859.666 924.581 857.983 923.578 855.255 z"/><path transform="translate(0,0)" fill="rgb(0,3,11)" d="M 1490.87 608.815 C 1500.85 610.801 1510.77 613.072 1520.62 615.624 C 1561.5 624.759 1591.88 632.906 1612.28 672.801 L 1610.26 673.985 C 1592.27 647.752 1562.72 632.61 1533.11 622.709 C 1519.16 618.041 1504.1 615.634 1490.87 608.815 z"/><path transform="translate(0,0)" fill="rgb(0,98,200)" d="M 1414.57 507.134 C 1418.57 504.604 1420.29 501.39 1423.05 497.473 L 1426.44 498.769 C 1435.96 508.848 1445.46 519.237 1455.62 528.66 C 1439.4 522.143 1432.72 516.318 1414.32 510.984 L 1414.57 507.134 z"/><path transform="translate(0,0)" fill="rgb(0,84,175)" d="M 1372.08 499.893 C 1373.86 498.242 1375.53 498.73 1378.64 498.473 L 1376.86 496.695 L 1378.96 495.558 C 1388.52 498.304 1406.89 501.408 1414.57 507.134 L 1414.32 510.984 C 1400.9 506.467 1386.12 501.026 1372.08 499.893 z"/><path transform="translate(0,0)" fill="rgb(52,115,207)" d="M 1437.66 481.235 C 1441.75 481.199 1442.71 480.909 1446.77 479.977 C 1442.02 484.624 1429.36 495.355 1426.44 498.769 L 1423.05 497.473 C 1425.42 493.796 1434.36 484.703 1437.66 481.235 z"/><path transform="translate(0,0)" fill="rgb(143,171,193)" d="M 923.578 855.255 C 924.581 857.983 924.415 859.666 924.335 862.491 L 925.335 863.245 L 927.485 861.143 L 928.371 862.255 C 925.07 868.068 920.917 870.772 915.718 874.818 C 918.293 868.136 921.065 862.146 923.578 855.255 z"/><path transform="translate(0,0)" fill="rgb(0,13,38)" d="M 1363.79 422.272 C 1357.89 449.677 1335.35 506.067 1311 524.465 C 1298.98 533.552 1257.85 534.969 1242.47 532.684 C 1240.32 537.796 1238.8 541.865 1235.83 546.591 C 1220.68 549.188 1215.61 546.659 1202.61 546.598 C 1197.01 546.571 1162.61 551.792 1157.28 553.541 C 1147.05 555.887 1139.88 559.045 1130.92 553.781 C 1123.86 557.63 1108.39 566.868 1101.14 567.569 C 1095.27 568.511 1093.61 569.309 1088.21 571.542 C 1089.58 569.27 1118.71 548.036 1123.08 544.709 C 1117.48 540.983 1111.02 537.688 1104.93 533.662 C 1100.29 520.489 1098.36 513.178 1096.36 499.401 C 1058.49 496.299 1021.08 504.631 984.803 514.485 C 1016.17 486.403 1046.42 469.841 1088.14 464.815 C 1086.52 463.499 1080.59 457.933 1080.13 457.603 C 1071.28 451.235 1050.53 458.462 1040 460.746 C 1039.94 458.26 1039.72 455.595 1039.57 453.097 C 1069.41 436.373 1099.62 433.042 1133.71 437.535 C 1137.67 438.057 1150.98 442.481 1155.87 443.684 C 1159.61 442.819 1164.09 444.586 1167.82 445.742 C 1165.6 443.429 1165.39 442.999 1162.13 442.144 L 1161.62 439.862 C 1190.05 445.996 1202.84 456.883 1224.01 476.503 C 1227.62 478.81 1232.27 481.974 1236.01 483.849 C 1236.71 486.005 1237.43 489.84 1239.9 489.807 C 1257.48 489.569 1280.07 489.703 1294.56 479.785 C 1319.71 462.581 1340.07 439.383 1363.79 422.272 z"/><path transform="translate(0,0)" fill="rgb(0,84,175)" d="M 1161.62 439.862 C 1190.05 445.996 1202.84 456.883 1224.01 476.503 C 1209.75 477.031 1194.94 460.491 1182.55 454.284 C 1174.25 450.129 1164.63 446.899 1155.87 443.684 C 1159.61 442.819 1164.09 444.586 1167.82 445.742 C 1165.6 443.429 1165.39 442.999 1162.13 442.144 L 1161.62 439.862 z"/><path transform="translate(0,0)" fill="rgb(0,70,147)" d="M 1130.92 553.781 C 1138.71 547.536 1147.91 552.83 1157.28 553.541 C 1147.05 555.887 1139.88 559.045 1130.92 553.781 z"/><path transform="translate(0,0)" fill="rgb(254,254,254)" d="M 1209.7 508.876 C 1206 519.364 1200.74 530.156 1192.14 537.221 C 1160.63 563.299 1128.31 538.749 1131.78 501.201 C 1133.26 485.284 1140.65 473.897 1157.79 475.821 C 1170.62 483.167 1163.51 495.23 1159.2 506.05 L 1160.01 507.036 C 1171.25 520.381 1191.07 515.206 1171.94 537.928 C 1183.67 546.158 1203.94 516.458 1209.7 508.876 z"/><path transform="translate(0,0)" fill="rgb(254,228,93)" d="M 1209.7 508.876 C 1206 519.364 1200.74 530.156 1192.14 537.221 C 1160.63 563.299 1128.31 538.749 1131.78 501.201 C 1133.26 485.284 1140.65 473.897 1157.79 475.821 C 1128.66 487.072 1137.26 545.182 1171.94 537.928 C 1183.67 546.158 1203.94 516.458 1209.7 508.876 z"/><path transform="translate(0,0)" fill="rgb(254,254,254)" d="M 539.435 826.623 C 549.033 803.291 573.486 765.663 588.24 745.35 C 668.926 636.395 772.767 546.686 892.286 482.682 C 1059.65 392.785 1265.71 360.678 1454.19 359.907 C 1518.69 359.643 1586.74 363.176 1648.93 381.718 C 1654.38 383.341 1663.69 385.467 1666.18 390.118 C 1664.69 391.54 1664.71 392.15 1663.19 391.849 C 1649.87 389.222 1636.12 386.385 1622.71 384.466 C 1591.99 380.166 1561.08 377.486 1530.08 376.438 C 1462.71 373.799 1393.7 379.612 1326.64 385.306 C 1243.64 392.353 1151.21 403.344 1071.15 426 C 957.715 458.104 839.475 525.664 748.92 600.516 C 712.304 630.728 677.76 663.366 645.521 698.209 L 633.804 711.408 L 638.649 712.282 C 638.864 714.865 638.87 714.003 638.313 716.568 L 639.357 719.078 C 638.385 725.499 636.727 734.38 636.964 740.646 C 636.245 737.17 636.369 737.218 634.415 734.014 L 634.26 731.006 L 632.658 730.662 C 628.949 733.251 627.742 734.589 624.51 737.855 C 622.529 733.256 623.391 732.965 620.068 731.596 C 613.823 733.964 613.224 741.811 604.262 745.874 C 596.474 753.702 555.628 806.049 552.648 813.971 C 548.365 818.931 545.154 823.426 539.435 826.623 z"/><path transform="translate(0,0)" fill="url(#Gradient2)" d="M 604.262 745.874 C 610.091 737.454 626.567 719.625 633.804 711.408 L 638.649 712.282 C 638.864 714.865 638.87 714.003 638.313 716.568 L 639.357 719.078 C 638.385 725.499 636.727 734.38 636.964 740.646 C 636.245 737.17 636.369 737.218 634.415 734.014 L 634.26 731.006 L 632.658 730.662 C 628.949 733.251 627.742 734.589 624.51 737.855 C 622.529 733.256 623.391 732.965 620.068 731.596 C 613.823 733.964 613.224 741.811 604.262 745.874 z"/><path transform="translate(0,0)" fill="rgb(0,13,38)" d="M 736.237 870.073 C 735.766 861.765 728.971 843.312 727.04 833.679 C 722.744 812.24 719.564 782.705 720.229 760.987 C 721.759 712.702 742.506 667.026 777.863 634.107 C 760.294 665.208 749.02 742.371 762.936 775.241 C 757.731 802.789 757.022 820.772 758.923 848.706 C 764.765 851.495 766.018 853.966 766.141 860.906 C 764.344 865.032 763.308 867.953 761.914 872.24 C 764.57 893.683 776.099 928.156 787.37 946.617 L 786.332 949.021 C 778.288 937.428 768.937 925.662 761.329 914.016 C 752.495 900.495 744.046 884.355 736.237 870.073 z"/><path transform="translate(0,0)" fill="rgb(242,242,248)" d="M 758.923 848.706 C 764.765 851.495 766.018 853.966 766.141 860.906 C 764.344 865.032 763.308 867.953 761.914 872.24 C 760.353 863.779 759.706 857.316 758.923 848.706 z"/><path transform="translate(0,0)" fill="rgb(0,13,38)" d="M 817.565 892.093 C 814.652 880.403 810.267 870.039 807.667 858.081 C 801.5 829.705 800.69 800.919 796.978 772.618 C 793.923 749.323 788.887 743.191 789.898 717.117 C 791.326 680.294 816.62 636.501 843.364 612.469 C 828.943 644.764 819.54 689.815 823.464 724.849 C 809.926 794.294 815.263 873.551 844.857 938.569 L 844.586 939.855 C 839.498 932.142 820.23 899.289 817.565 892.093 z"/><path transform="translate(0,0)" fill="rgb(0,13,38)" d="M 913.664 588.917 C 891.597 630.765 868.156 716.781 876.735 763.879 C 873 803.54 879.442 853.535 892.651 890.71 C 884.682 878.385 870.145 853.39 864.217 840.102 C 863.417 833.545 861.362 824.08 860.023 817.393 C 841.575 725.258 843.495 659.395 913.664 588.917 z"/><path transform="translate(0,0)" fill="rgb(0,13,38)" d="M 1378.96 495.558 C 1386.74 491.389 1407.85 486.095 1417.05 481.749 C 1428.37 476.407 1437.72 469.704 1448.94 464.475 L 1450.41 463.797 C 1445.54 469.02 1441.65 475.278 1437.66 481.235 C 1434.36 484.703 1425.42 493.796 1423.05 497.473 C 1420.29 501.39 1418.57 504.604 1414.57 507.134 C 1406.89 501.408 1388.52 498.304 1378.96 495.558 z"/><path transform="translate(0,0)" fill="rgb(254,254,254)" d="M 1161.62 439.862 L 1162.18 437.32 C 1178.31 434.783 1236.16 463.805 1236.01 483.849 C 1232.27 481.974 1227.62 478.81 1224.01 476.503 C 1202.84 456.883 1190.05 445.996 1161.62 439.862 z"/><path transform="translate(0,0)" fill="rgb(0,43,109)" d="M 645.521 698.209 C 649.86 709.781 647.035 710.171 639.357 719.078 L 638.313 716.568 C 638.87 714.003 638.864 714.865 638.649 712.282 L 633.804 711.408 L 645.521 698.209 z"/><path transform="translate(0,0)" fill="rgb(0,3,11)" d="M 1024.52 462.407 C 1029.44 459.003 1034.42 456.139 1039.57 453.097 C 1039.72 455.595 1039.94 458.26 1040 460.746 C 1035.11 461.862 1029.57 462.043 1024.52 462.407 z"/><path transform="translate(0,0)" fill="rgb(0,84,175)" d="M 699.282 803.924 C 706.571 818.432 727.252 858.625 736.237 870.073 C 744.046 884.355 752.495 900.495 761.329 914.016 C 768.937 925.662 778.288 937.428 786.332 949.021 C 789.428 954.864 795.585 961.205 799.857 966.837 C 803.485 973.776 816.136 987.759 816.066 992.87 L 814.857 993.915 C 816.425 995.567 817.491 996.697 819.209 998.184 C 819.676 1001.43 821.179 1006.16 820.926 1008.58 C 811.311 1003.81 807.41 1004.83 796.709 1005.35 C 783.202 995.576 769.492 985.621 756.084 975.768 C 750.645 971.771 730.782 954.919 726.496 953.329 C 715.807 955.62 724.784 976.321 728.066 982.805 C 715.973 983.291 710.289 982.626 698.332 981.189 C 708.862 985.94 714.6 986.972 725.303 990.434 C 701.482 994.789 678.488 996.297 654.737 999.389 C 624.156 1003.61 593.698 1008.68 563.4 1014.6 C 530.516 1021 503.86 1028.23 471.991 1036.99 C 410.07 1054.01 347.93 1070.63 289.438 1097.86 C 285.299 1099.73 281.173 1101.87 276.926 1103.46 C 275.841 1100.34 275.021 1097.2 273.12 1094.54 C 248.388 1108.46 229.461 1114.5 203.698 1130.75 C 209.365 1123.44 218.866 1114.81 225.869 1108.48 C 265.003 1073.08 315.111 1040.39 361.939 1015.8 C 381.542 1005.55 403.561 992.336 423.526 983.185 C 483.683 955.613 568.768 919.03 633.895 909.583 C 641.158 908.06 666.172 900.303 671.017 903.264 C 672.117 906.782 672.129 905.072 670.982 908.574 C 679.562 912.878 681.23 913.333 690.401 915.671 C 680.846 905.947 678.476 902.928 672.751 890.647 C 691.004 888.355 695.662 888.846 713.448 883.227 C 705.837 865.042 700.218 844.998 698.29 825.356 C 699.545 818.142 698.554 811.52 699.282 803.924 z"/><path transform="translate(0,0)" fill="rgb(254,169,11)" d="M 633.895 909.583 C 641.158 908.06 666.172 900.303 671.017 903.264 C 672.117 906.782 672.129 905.072 670.982 908.574 C 633.388 921.743 594.071 939.085 557.509 954.843 C 489.446 983.811 422.388 1015.09 356.451 1048.61 C 332.333 1060.9 308.93 1074.65 285.286 1087.81 C 281.242 1090.07 277.293 1092.54 273.12 1094.54 C 248.388 1108.46 229.461 1114.5 203.698 1130.75 C 209.365 1123.44 218.866 1114.81 225.869 1108.48 C 265.003 1073.08 315.111 1040.39 361.939 1015.8 C 381.542 1005.55 403.561 992.336 423.526 983.185 C 483.683 955.613 568.768 919.03 633.895 909.583 z"/><path transform="translate(0,0)" fill="rgb(254,254,254)" d="M 633.895 909.583 L 633.967 910.935 C 625.692 914.75 616.698 917.117 608.35 920.605 C 595.938 925.789 583.471 930.921 570.896 935.647 C 507.731 959.385 448.516 994.86 382.082 1009.76 C 374.712 1011.41 370.043 1015.69 361.939 1015.8 C 381.542 1005.55 403.561 992.336 423.526 983.185 C 483.683 955.613 568.768 919.03 633.895 909.583 z"/><path transform="translate(0,0)" fill="rgb(254,254,254)" d="M 699.282 803.924 C 706.571 818.432 727.252 858.625 736.237 870.073 C 744.046 884.355 752.495 900.495 761.329 914.016 C 768.937 925.662 778.288 937.428 786.332 949.021 C 789.428 954.864 795.585 961.205 799.857 966.837 C 803.485 973.776 816.136 987.759 816.066 992.87 L 814.857 993.915 C 775.627 963.995 737.396 926.877 713.448 883.227 C 705.837 865.042 700.218 844.998 698.29 825.356 C 699.545 818.142 698.554 811.52 699.282 803.924 z"/><path transform="translate(0,0)" fill="rgb(0,70,147)" d="M 630.588 210.111 C 642.401 209.819 652.402 209.333 664.05 211.694 C 696.143 213.158 727.877 220.117 758.467 229.649 C 854.015 259.422 925.203 314.773 995.842 383.674 C 998.906 386.621 1001.66 389.105 1004.33 392.435 C 995.636 396.204 988.642 398.7 979.736 401.761 C 946.862 416.014 915.486 428.967 883.676 445.866 C 869.166 453.574 855.694 461.717 841.329 469.497 C 836.204 399.276 764.746 324.471 714.372 278.964 C 706.544 271.893 691.662 260.186 682.184 256.303 C 721.323 336.677 744.258 406.168 745.025 495.648 L 741.877 494.7 C 734.266 420.317 704.624 329.723 666.836 265.557 C 655.38 246.105 641.872 228.97 630.588 210.111 z"/><path transform="translate(0,0)" fill="rgb(254,169,11)" d="M 630.588 210.111 C 642.401 209.819 652.402 209.333 664.05 211.694 C 696.143 213.158 727.877 220.117 758.467 229.649 C 854.015 259.422 925.203 314.773 995.842 383.674 C 998.906 386.621 1001.66 389.105 1004.33 392.435 C 995.636 396.204 988.642 398.7 979.736 401.761 C 976.778 400.244 974.689 398.019 972.221 395.763 C 947.629 377.694 924.294 361.263 899.61 343.643 C 887.089 337.414 870.67 326.03 857.156 318.673 C 794.917 284.791 743.629 262.328 674.955 243.871 C 677.356 248.314 679.344 252.083 682.184 256.303 C 721.323 336.677 744.258 406.168 745.025 495.648 L 741.877 494.7 C 734.266 420.317 704.624 329.723 666.836 265.557 C 655.38 246.105 641.872 228.97 630.588 210.111 z"/><path transform="translate(0,0)" fill="rgb(254,254,254)" d="M 664.05 211.694 C 696.143 213.158 727.877 220.117 758.467 229.649 C 854.015 259.422 925.203 314.773 995.842 383.674 C 998.906 386.621 1001.66 389.105 1004.33 392.435 C 995.636 396.204 988.642 398.7 979.736 401.761 C 976.778 400.244 974.689 398.019 972.221 395.763 C 947.629 377.694 924.294 361.263 899.61 343.643 C 890.618 330.554 872.505 317.797 860.012 308.312 C 817.974 276.396 771.931 250.666 722.526 231.991 C 703.501 224.8 683.175 220.702 663.819 213.221 L 664.05 211.694 z"/><path transform="translate(0,0)" fill="rgb(186,208,220)" d="M 995.842 383.674 C 998.906 386.621 1001.66 389.105 1004.33 392.435 C 995.636 396.204 988.642 398.7 979.736 401.761 C 976.778 400.244 974.689 398.019 972.221 395.763 C 977.959 390.831 988.797 386.659 995.842 383.674 z"/><path transform="translate(0,0)" fill="rgb(172,13,28)" d="M 1223.79 879.504 C 1256.66 886.463 1275.99 930.092 1294.75 954.341 C 1304.39 966.793 1310.82 972.36 1322.87 982.048 C 1310.95 963.717 1286.35 934.037 1282.47 913.711 C 1287.91 917.335 1293.05 922.061 1298.4 925.726 C 1317.15 938.565 1330.8 947.468 1344.53 966.159 C 1356.94 983.057 1373.11 1001.11 1358.99 1023.42 C 1356.84 1026.83 1348.62 1026.03 1345.18 1025.9 C 1351.09 1031.45 1355.48 1035.41 1360.57 1041.68 C 1356.68 1043.92 1354.3 1044.77 1350.07 1046.42 C 1323.62 1032.25 1323.11 1031.34 1301.37 1010.18 C 1311.54 1027.03 1327.3 1042.59 1342.26 1055.27 C 1334.21 1056.37 1331.3 1056.81 1323.29 1056.21 L 1336.68 1065.88 C 1307.3 1065.2 1306.03 1071.57 1276.08 1053.71 C 1267.83 1047.92 1262.15 1043.73 1254.77 1037.49 C 1249.39 1032.95 1228.55 1012.49 1224.13 1010.2 C 1225.72 1014.47 1256.43 1050.16 1261.72 1057.2 C 1221.34 1052.37 1212.96 1026.87 1199.57 993.968 C 1195.12 983.112 1190.18 972.465 1184.76 962.06 C 1174.65 942.56 1163.14 934.696 1155.2 911.931 C 1171.3 923.086 1186.83 929.039 1202.77 942.043 C 1224.55 959.813 1258.07 992.685 1281.64 1006.78 C 1272.59 988.806 1266.12 962.529 1257.51 942.703 C 1247.76 920.276 1234.45 902.149 1224.63 881.323 L 1223.79 879.504 z"/><path transform="translate(0,0)" fill="rgb(143,171,193)" d="M 782.442 1062.22 C 791.401 1052.85 823.762 1022.55 834.16 1016.81 C 848.886 1016.24 864.729 1032.95 875.528 1040.53 C 880.046 1043.7 882.03 1036.66 888.139 1044.93 L 889.446 1044.59 L 890.262 1045.75 C 895.361 1053.11 901.532 1064.51 906.082 1072.6 C 933.057 1120.59 965.082 1160.4 1004.59 1198.92 C 937.668 1166.83 895.461 1127.91 847.675 1072.88 C 844.698 1074.02 843.178 1074.63 840.292 1076.16 C 854.553 1109.76 877.715 1139.49 900.608 1167.6 C 905.791 1171.27 910.431 1180.8 912.973 1186.61 C 887.007 1184.18 842.517 1165.45 821.16 1149.23 C 801.61 1134.39 785.294 1116.55 765.627 1103.02 C 763.987 1101.89 756.487 1100.87 754.132 1100.54 C 763.037 1083.88 770.17 1076.47 782.442 1062.22 z"/><path transform="translate(0,0)" fill="rgb(0,70,147)" d="M 782.442 1062.22 C 799.807 1081.42 811.714 1094.1 830.895 1111.08 C 850.999 1128.89 880.736 1149.81 899.031 1168.18 L 900.608 1167.6 C 905.791 1171.27 910.431 1180.8 912.973 1186.61 C 887.007 1184.18 842.517 1165.45 821.16 1149.23 C 801.61 1134.39 785.294 1116.55 765.627 1103.02 C 763.987 1101.89 756.487 1100.87 754.132 1100.54 C 763.037 1083.88 770.17 1076.47 782.442 1062.22 z"/><path transform="translate(0,0)" fill="rgb(0,3,11)" d="M 831.247 1053.29 L 847.675 1072.88 C 844.698 1074.02 843.178 1074.63 840.292 1076.16 C 836.822 1068.11 834.124 1061.55 831.247 1053.29 z"/><path transform="translate(0,0)" fill="rgb(254,169,11)" d="M 796.709 1005.35 C 807.41 1004.83 811.311 1003.81 820.926 1008.58 C 811.635 1012.72 786.968 1017 775.538 1019.62 C 737.496 1028.35 699.736 1037.62 663.378 1052.14 C 655.323 1055.36 646.618 1058.36 639.135 1062.7 C 673.09 1059.32 707.182 1057.5 741.304 1057.25 C 729.521 1061.44 704.58 1066.77 691.492 1069.53 C 674.383 1073.14 653.53 1079.89 637.408 1082.5 C 615.268 1086.08 589.297 1086.42 566.448 1088.6 C 524.446 1092.82 482.554 1098.07 440.809 1104.34 C 402.501 1110.11 363.91 1117.15 326.137 1125.81 C 316.702 1127.97 306.293 1130.76 296.753 1131.9 C 310.877 1124.76 334.013 1116.7 349.481 1110.5 C 433.316 1076.67 519.918 1050.15 608.321 1031.23 C 629.613 1026.63 649.797 1022.3 671.212 1018.5 C 713.161 1011.07 754.96 1009.97 796.709 1005.35 z"/><path transform="translate(0,0)" fill="rgb(172,13,28)" d="M 1012.27 925.764 L 1013.24 926.759 C 1034.4 948.585 1048.38 978.731 1065.54 1003.4 C 1108.24 1064.8 1154.74 1116.9 1225.48 1145.84 C 1278.97 1167.74 1342.44 1176.65 1396.68 1150.37 C 1410.5 1143.58 1420.12 1132.87 1430.56 1121.89 C 1436.05 1115.73 1441.4 1109.46 1446.61 1103.07 C 1461.02 1085.56 1463.34 1085.35 1472.83 1065.15 C 1472.04 1070.45 1470.75 1081.97 1468.87 1086.4 C 1435.78 1164.6 1355.2 1205.33 1272.82 1191.59 C 1185.08 1176.96 1125.61 1130.1 1074 1060.7 C 1052.87 1031.98 1026.13 991.478 1014.88 957.245 C 1012.36 949.588 1012.16 934.011 1012.27 925.764 z"/><path transform="translate(0,0)" fill="rgb(216,33,41)" d="M 1301.54 636.401 C 1306.63 635.663 1316.61 635.82 1322.11 635.656 C 1395.29 633.948 1471.45 653.574 1533 693.494 C 1571.2 718.268 1592.28 736.102 1592.19 784.115 C 1584.22 773.585 1576.24 763.034 1566.67 753.907 C 1531.13 720.038 1470.73 690.189 1422.91 679.049 C 1405.83 673.744 1389.6 672.332 1372 670.518 C 1292.15 662.288 1204.91 671.858 1130.34 702.008 C 1120.52 706.029 1111.09 710.951 1102.17 716.709 C 1095.39 721.105 1090.84 725.004 1083.43 728.553 C 1089.87 721.42 1104.05 706.895 1111.32 701.692 C 1165.91 662.619 1235.74 642.292 1301.54 636.401 z"/><path transform="translate(0,0)" fill="rgb(254,169,11)" d="M 1567.75 1002.28 C 1610.69 1043.27 1660.26 1100.65 1692.81 1150.14 C 1710.5 1177.03 1728.43 1219.5 1739.1 1249.84 C 1745.02 1266.66 1748.75 1286.54 1753.65 1303.73 L 1751.18 1307.34 C 1727.03 1262.14 1701.82 1208.22 1673.43 1165.85 C 1673.1 1168.92 1673.92 1177.48 1674.16 1180.96 C 1638.03 1169.23 1591.32 1120.78 1581.8 1083.59 C 1579.67 1075.29 1564.15 1060.52 1571.2 1051.08 C 1568.16 1048.48 1566.56 1047.19 1563.25 1044.96 C 1562.24 1024.7 1561.73 1021.7 1567.75 1002.28 z"/><path transform="translate(0,0)" fill="url(#Gradient1)" d="M 1571.2 1051.08 C 1604.13 1077.23 1639.18 1116.34 1663.34 1150.74 C 1664.95 1153.04 1672.41 1163.75 1673.43 1165.85 C 1673.1 1168.92 1673.92 1177.48 1674.16 1180.96 C 1638.03 1169.23 1591.32 1120.78 1581.8 1083.59 C 1579.67 1075.29 1564.15 1060.52 1571.2 1051.08 z"/><path transform="translate(0,0)" fill="rgb(0,70,147)" d="M 1203.84 1268.42 C 1208.34 1267.93 1216.12 1268.16 1220.88 1268.16 C 1208.83 1283.05 1198.32 1288.62 1183.84 1300.67 C 1152.47 1326.77 1124.04 1354.08 1085.5 1369.82 C 1076.41 1373.53 1065.12 1376.78 1055.63 1379.75 C 1059.09 1373.82 1065.87 1365.98 1070.36 1360.45 C 1082.89 1346.17 1103.16 1318.81 1110.97 1301.9 C 1092.08 1299.4 1075.24 1301.82 1057.59 1296.99 C 1069.83 1293.45 1081.27 1288.66 1093.81 1285.57 C 1129.24 1276.83 1167.55 1271.29 1203.84 1268.42 z"/><path transform="translate(0,0)" fill="rgb(254,254,254)" d="M 1389 678.255 C 1401.09 679.556 1423.44 682.993 1432.35 690.342 C 1448.75 703.869 1417.93 744.421 1409.11 757.696 C 1403.06 766.435 1396.75 774.99 1390.19 783.346 C 1382.72 753.758 1380.65 713.824 1382.25 682.956 C 1382.37 680.461 1386.85 679.216 1389 678.255 z"/><path transform="translate(0,0)" fill="rgb(254,254,254)" d="M 1479.59 875.182 C 1486.86 880.438 1495.24 888.649 1501.98 894.882 C 1502.23 918.133 1501.68 939.069 1498.29 962.218 C 1496.31 983.709 1492.03 1037.52 1476.84 1052.24 L 1474.94 1052.66 C 1469.39 1045.44 1471.05 1003.27 1471.45 992.026 C 1470.94 983.78 1471.7 972.162 1473 963.964 C 1472.83 959.652 1473.36 954.987 1473.84 950.676 C 1476.61 925.495 1478.13 900.458 1479.59 875.182 z"/><path transform="translate(0,0)" fill="rgb(254,169,11)" d="M 1479.59 875.182 C 1486.86 880.438 1495.24 888.649 1501.98 894.882 C 1502.23 918.133 1501.68 939.069 1498.29 962.218 C 1497.48 941.417 1500.55 904.659 1494.42 887.602 C 1487.81 903.478 1479.15 950.455 1477.75 968.542 C 1476.82 977.119 1475.69 983.482 1471.64 991.153 C 1471.58 991.444 1471.52 991.735 1471.45 992.026 C 1470.94 983.78 1471.7 972.162 1473 963.964 C 1472.83 959.652 1473.36 954.987 1473.84 950.676 C 1476.61 925.495 1478.13 900.458 1479.59 875.182 z"/><path transform="translate(0,0)" fill="rgb(0,84,175)" d="M 1659.43 863.81 C 1661.5 864.466 1660.56 863.928 1661.98 865.935 C 1662.09 869.794 1655.84 886.14 1653.87 889.885 C 1630.75 933.901 1585.74 936.537 1546.22 951.359 C 1544.83 952.04 1545.67 951.829 1543.66 951.599 C 1543.71 950.879 1543.72 950.178 1544.03 949.516 C 1562.63 910.427 1622.57 879.821 1659.43 863.81 z"/><path transform="translate(0,0)" fill="rgb(254,254,254)" d="M 1318.71 674.195 C 1327.5 673.217 1357.8 673.28 1364.1 676.142 C 1376.75 681.893 1345.58 737.771 1341.04 745.36 C 1337.94 750.531 1332.81 757.605 1329.31 762.756 C 1316.43 741.117 1308.31 709.571 1309.28 684.436 C 1312.37 679.193 1313.77 677.581 1318.71 674.195 z"/><path transform="translate(0,0)" fill="rgb(254,254,254)" d="M 1281.59 674.406 C 1286.8 673.898 1293.65 672.293 1295.9 677.909 C 1294.68 695.784 1273.14 748.905 1263.07 763.63 L 1261.75 763.679 L 1258.58 759.476 C 1250.33 745.448 1230.79 701.558 1238.36 683.653 C 1241.24 676.849 1273.17 675.226 1281.59 674.406 z"/><path transform="translate(0,0)" fill="rgb(254,254,254)" d="M 1215.43 684.352 C 1218.28 683.969 1221.66 683.339 1223.61 685.541 C 1224.72 703.843 1197.4 759.936 1188.29 778.151 L 1183.87 771.492 C 1173.85 757.388 1159.73 715.851 1170.23 698.869 C 1175.61 690.175 1204.78 685.793 1215.43 684.352 z"/><path transform="translate(0,0)" fill="rgb(254,254,254)" d="M 1457.8 698.991 C 1463.41 699.569 1467.81 700.823 1472.96 702.327 C 1496.7 709.268 1507.4 714.686 1495.76 740.445 C 1489.57 754.139 1482.63 764.308 1474.12 776.679 C 1468.74 783.719 1462.92 790.402 1456.68 796.686 C 1452.61 772.919 1443.6 719.104 1457.8 698.991 z"/><path transform="translate(0,0)" fill="rgb(254,169,11)" d="M 1517.69 1154.85 C 1540.52 1159.38 1604.24 1219.62 1627.55 1235.04 C 1632 1237.98 1652.79 1253.95 1655.54 1258.14 L 1654.69 1258.82 L 1651.69 1257.8 C 1644.69 1254.92 1634.95 1250.08 1628.4 1246.23 C 1590.57 1224 1547.44 1204.82 1510.14 1182.09 C 1513.75 1174.43 1515.85 1163.35 1517.69 1154.85 z"/><path transform="translate(0,0)" fill="rgb(254,254,254)" d="M 1203.6 1049.67 C 1208.22 1052.17 1218.32 1069.6 1220.48 1075.46 C 1225.25 1087.85 1228.81 1102.8 1222.8 1115.44 C 1217.27 1127.08 1210.03 1127.39 1199.6 1122.16 C 1187.04 1115.24 1181.59 1111.83 1172.81 1100.41 C 1177.47 1075.85 1185.59 1067 1203.6 1049.67 z"/><path transform="translate(0,0)" fill="rgb(254,254,254)" d="M 1267.06 1081.71 C 1273.47 1087.5 1283.21 1100.66 1287 1108.55 C 1297.03 1129.38 1294.84 1143.46 1274.57 1153.96 C 1270.07 1153.57 1267.01 1152.89 1262.61 1151.98 C 1252.5 1149.08 1242.83 1144.78 1233.9 1139.22 C 1236.38 1127.7 1259.36 1093.94 1267.06 1081.71 z"/><path transform="translate(0,0)" fill="rgb(254,254,254)" d="M 1152.15 701.043 C 1154.68 700.728 1153.52 700.501 1155.67 701.609 C 1159.36 715.074 1136.91 776.023 1133.27 794.991 C 1130.15 790.968 1128.24 787.874 1125.59 783.6 C 1120.58 772.37 1107.43 734.418 1111.21 721.851 C 1113.55 714.061 1143.88 703.657 1152.15 701.043 z"/><path transform="translate(0,0)" fill="rgb(254,254,254)" d="M 1517.73 725.441 C 1521.14 726.27 1532.23 733.348 1535.29 735.695 C 1556.82 752.248 1527.46 786.759 1515.34 801.114 C 1510.03 807.056 1505.7 811.039 1499.78 816.441 C 1500.15 794.929 1505.9 742.478 1517.73 725.441 z"/><path transform="translate(0,0)" fill="rgb(254,254,254)" d="M 1161.85 1015.58 L 1163.14 1016.1 C 1167.56 1021.81 1168.99 1024.92 1170.73 1031.94 C 1177.34 1058.67 1173.12 1072.69 1155.63 1093.72 L 1148.29 1088.26 C 1129.86 1072.41 1125.74 1068.93 1139.71 1046.15 C 1146.58 1034.93 1152.42 1025.06 1161.85 1015.58 z"/><path transform="translate(0,0)" fill="rgb(254,254,254)" d="M 1332.45 1099.73 C 1347.59 1114 1358.06 1132.74 1358.04 1153.69 C 1350.53 1157.15 1347.6 1157.82 1339.77 1159.19 C 1314.53 1162.09 1308.61 1160.6 1315.18 1132.74 C 1318.17 1120.07 1324.62 1109.95 1332.45 1099.73 z"/><path transform="translate(0,0)" fill="rgb(254,254,254)" d="M 1556.22 755.062 C 1569.27 764.19 1573.29 768.361 1576.1 783.399 C 1574.46 787.843 1572.02 792.237 1569.83 796.474 C 1562.66 811.16 1557.24 820.833 1547.92 834.679 C 1544.59 838.351 1541.57 843.927 1536.4 843.565 C 1532.45 832.603 1550.21 767.521 1556.22 755.062 z"/><path transform="translate(0,0)" fill="rgb(254,254,254)" d="M 1099.74 936.058 C 1104.18 943.668 1108.02 964.413 1108.32 974.043 C 1108.63 984.088 1099.84 1015.59 1093.86 1021.68 L 1091.64 1021.59 C 1073.55 994.617 1073.02 957.803 1099.74 936.058 z"/><path transform="translate(0,0)" fill="rgb(254,254,254)" d="M 1125.33 981.638 C 1130.75 987.38 1139.07 1011.71 1139.91 1020.22 C 1135.71 1030.62 1128.11 1051.61 1119.56 1058.1 C 1112.36 1050.63 1108.57 1045.88 1103.61 1036.8 C 1108.5 1013.21 1112.02 1001.04 1125.33 981.638 z"/><path transform="translate(0,0)" fill="rgb(0,98,200)" d="M 624.51 737.855 C 627.742 734.589 628.949 733.251 632.658 730.662 L 634.26 731.006 L 634.415 734.014 C 628.034 770.279 621.824 795.471 634.58 833.176 C 620.175 819.433 605.945 806.111 604.934 784.078 C 604.322 770.738 615.192 747.636 624.51 737.855 z"/><path transform="translate(0,0)" fill="rgb(254,254,254)" d="M 1102.61 726.015 L 1103.54 727.223 C 1104.5 734.715 1103.67 740.536 1102.78 747.771 C 1101.84 755.42 1091.5 798.088 1086.84 801.532 C 1084.86 800.126 1084.52 798.311 1083.29 795.766 C 1081.14 789.712 1079.66 783.297 1077.95 777.208 C 1068.92 744.931 1074.6 739.811 1102.61 726.015 z"/><path transform="translate(0,0)" fill="rgb(254,254,254)" d="M 1574.89 802.231 C 1579.54 811.877 1576.6 830.241 1572.84 840.054 C 1563.99 863.194 1550.39 882.476 1528.53 894.388 C 1536.53 867.267 1544.11 859.519 1555.63 836.276 C 1559.27 831.171 1571.17 808.794 1574.89 802.231 z"/><path transform="translate(0,0)" fill="rgb(0,70,147)" d="M 1438.09 1250.98 C 1441.83 1249.49 1448.19 1247.78 1449.88 1244.98 C 1448.47 1243.29 1447.7 1242.67 1446 1241.29 C 1452.22 1236.22 1499.97 1233.09 1505.69 1240.44 C 1501.04 1245.65 1455.03 1276.21 1449.11 1276.39 C 1444.81 1276.85 1444.93 1276.86 1440.94 1278.62 L 1440.63 1276.59 C 1444.44 1266.17 1457.13 1261.33 1457.02 1255.63 C 1453.95 1253.3 1442.78 1251.89 1438.09 1250.98 z"/><path transform="translate(0,0)" fill="rgb(254,254,254)" d="M 1392.13 1082.86 C 1405.98 1093.83 1409.33 1116.37 1409 1132.84 C 1404.6 1138.89 1401.89 1140.94 1395.46 1144.69 C 1392.68 1145.69 1388.31 1146.76 1385.34 1147.58 C 1374.71 1124.1 1380.85 1104.42 1392.13 1082.86 z"/><path transform="translate(0,0)" fill="rgb(254,254,254)" d="M 1430.59 1049.2 C 1439.48 1070.15 1439.13 1076.42 1441.96 1098.33 L 1442.96 1099.69 L 1441.74 1103.57 L 1443.4 1104.04 L 1442.15 1103.33 L 1442.42 1102.99 L 1444.27 1103.85 L 1446.61 1103.07 C 1441.4 1109.46 1436.05 1115.73 1430.56 1121.89 C 1428.57 1121.43 1425.77 1120.48 1423.73 1119.86 C 1421.61 1116.59 1418.55 1104.12 1417.88 1099.85 C 1414.65 1079.41 1419.22 1065.48 1430.59 1049.2 z"/><path transform="translate(0,0)" fill="rgb(0,3,11)" d="M 1441.96 1098.33 L 1442.96 1099.69 L 1441.74 1103.57 L 1443.4 1104.04 L 1442.15 1103.33 L 1442.42 1102.99 L 1444.27 1103.85 L 1446.61 1103.07 C 1441.4 1109.46 1436.05 1115.73 1430.56 1121.89 C 1428.57 1121.43 1425.77 1120.48 1423.73 1119.86 C 1431.08 1113.71 1436.36 1106.04 1441.96 1098.33 z"/><path transform="translate(0,0)" fill="rgb(254,254,254)" d="M 1068.4 886.724 C 1076.38 895.919 1069.67 975.669 1062.9 979.624 L 1061.14 976.38 C 1056.85 966.59 1053.82 956.299 1052.11 945.75 C 1048.88 924.513 1055.92 903.832 1068.4 886.724 z"/><path transform="translate(0,0)" fill="rgb(254,254,254)" d="M 1454.04 1001.67 C 1463.27 1009.84 1462.65 1044 1463.56 1056.2 C 1464.48 1068.5 1461.81 1073.27 1453.75 1081.76 C 1452.01 1082.12 1452.85 1082.01 1450.8 1081.22 C 1440.44 1063.66 1445.96 1019.77 1454.04 1001.67 z"/><path transform="translate(0,0)" fill="rgb(254,169,11)" d="M 1457.57 874.465 L 1459.97 875.568 C 1463.28 884.726 1449.67 939.589 1444.87 949.906 C 1442.76 954.431 1434.13 963.539 1430.3 967.331 L 1428.59 967.843 L 1428.22 966.567 C 1429.62 961.829 1432.68 950.852 1434.66 946.673 C 1442.47 930.155 1447.28 886.233 1457.57 874.465 z"/><path transform="translate(0,0)" fill="rgb(216,33,41)" d="M 1040.31 864.796 C 1048.12 874.346 1050.06 928.326 1042.56 936.878 C 1038.5 906.155 1030.38 896.724 1040.31 864.796 z"/><path transform="translate(0,0)" fill="rgb(0,3,11)" d="M 1569.83 796.474 C 1570.48 797.237 1574.77 802.042 1574.89 802.231 C 1571.17 808.794 1559.27 831.171 1555.63 836.276 C 1552.73 830.682 1570.09 811.647 1570 805.186 L 1568.76 804.501 C 1568.45 805.12 1567.95 806.184 1567.55 806.642 C 1561.42 813.65 1557.93 824.095 1552.62 831.955 C 1550.65 834.87 1551.6 833.954 1547.92 834.679 C 1557.24 820.833 1562.66 811.16 1569.83 796.474 z"/><path transform="translate(0,0)" fill="rgb(0,98,200)" d="M 539.435 826.623 C 545.154 823.426 548.365 818.931 552.648 813.971 C 549.026 822.731 539.928 841.05 533.393 847.472 L 531.806 847.599 C 530.598 840.702 535.718 832.205 539.435 826.623 z"/><path transform="translate(0,0)" fill="rgb(0,3,11)" d="M 643.731 1146.51 C 647.688 1156.01 649.558 1159.68 654.781 1168.92 C 652.56 1169.8 652.041 1169.84 649.655 1169.69 C 646.646 1171.55 645.883 1172.85 644.472 1176.79 C 643.561 1165.19 642.495 1158.18 643.731 1146.51 z"/><path transform="translate(0,0)" fill="rgb(254,169,11)" d="M 741.877 494.7 L 745.025 495.648 C 745.009 499.238 745.555 501.747 744.006 504.559 C 742.237 500.76 742.331 498.965 741.877 494.7 z"/><path transform="translate(0,0)" fill="rgb(254,228,93)" d="M 1751.18 1307.34 L 1753.65 1303.73 C 1754.65 1307.35 1755.78 1310.06 1755.26 1313.75 C 1752.7 1312.06 1752.74 1310.63 1751.18 1307.34 z"/><path transform="translate(0,0)" fill="rgb(0,84,175)" d="M 428.869 468.42 C 435.723 468.538 444.376 471.244 450.195 474.75 C 503.868 507.089 524.724 590.694 540.735 646.477 C 534.196 642.229 527.45 637.335 521.025 632.845 C 509.281 624.891 496.61 616.508 484.807 607.56 C 451.618 582.397 408.211 547.578 400.381 504.385 C 398.865 496.021 402.134 484.016 407.445 477.513 C 413.174 470.498 420.507 469.389 428.869 468.42 z"/><path transform="translate(0,0)" fill="rgb(254,254,254)" d="M 423.689 483.332 C 432.152 484.023 435.007 486.084 442.028 491.182 C 451.802 498.279 481.554 529.89 480.657 542.026 C 479.768 541.656 478.886 541.273 478.01 540.875 C 464.37 534.675 413.41 501.486 423.689 483.332 z"/><path transform="translate(0,0)" fill="rgb(0,84,175)" d="M 1868.1 560.339 C 1891.82 558.731 1902.27 581.103 1892.93 600.711 C 1872.83 642.941 1813.68 662.913 1773.68 680.227 C 1764.99 683.808 1758.22 684.256 1749.54 688.665 C 1756.67 670.785 1785.63 628.35 1798.06 612.491 C 1814.36 591.694 1840.13 563.883 1868.1 560.339 z"/><path transform="translate(0,0)" fill="rgb(254,254,254)" d="M 1859.78 576.998 C 1863.88 576.826 1862.41 576.136 1865.28 577.84 C 1866.78 592.834 1830.77 615.8 1817.56 620.883 C 1814.21 621.619 1815.6 621.926 1812.81 621.022 C 1813.4 608.781 1848.29 583.121 1859.78 576.998 z"/><path transform="translate(0,0)" fill="rgb(0,84,175)" d="M 1759.43 1178.85 C 1780.64 1170.27 1795.21 1165.81 1817.42 1161.12 C 1808.23 1173.86 1798.74 1187.83 1793.08 1202.46 C 1817.54 1200.38 1842.55 1191.73 1866.74 1186.67 C 1885.01 1182.85 1904.77 1181.37 1922.69 1177.71 C 1881.02 1210.14 1832.68 1237.64 1789.39 1267.42 C 1784.42 1253.59 1779.59 1240.27 1774.3 1226.09 C 1769.44 1213.05 1761.29 1198.24 1757.26 1184.97 C 1756.57 1182.71 1758.11 1180.61 1759.43 1178.85 z"/><path transform="translate(0,0)" fill="rgb(0,84,175)" d="M 256.908 426.213 C 264.063 425.858 269.902 425.623 276.653 428.47 C 321.336 447.316 345.768 517.871 357.715 559.466 C 354.142 556.454 350.258 553.488 346.574 550.584 C 313.525 529.533 264.36 501.218 245.994 465.81 C 238.339 451.05 239.693 433.245 256.908 426.213 z"/><path transform="translate(0,0)" fill="rgb(254,254,254)" d="M 260.282 439.839 C 268.486 440.709 272.283 441.192 279.857 445.087 C 294.979 452.862 311.501 475.555 316.535 491.363 C 305.583 489.23 287.374 474.316 278.815 467.279 C 269.003 459.211 262.988 452.536 260.282 439.839 z"/><path transform="translate(0,0)" fill="rgb(0,84,175)" d="M 198.331 1272.55 C 244.867 1271.67 275.802 1286.59 301.024 1325.85 C 288.331 1326.02 270.762 1328.52 257.781 1330.14 C 232.333 1334.17 193.347 1337.13 171.81 1321.45 C 137.129 1296.21 171.312 1275.25 198.331 1272.55 z"/><path transform="translate(0,0)" fill="rgb(254,254,254)" d="M 201.524 1285.27 C 223.307 1283.02 252.348 1294.19 271.012 1304.77 C 260.494 1304.62 253.779 1304.75 243.247 1305.56 C 233.194 1306.64 177.934 1306.67 177.748 1295.24 C 183.526 1288.4 193.03 1286.64 201.524 1285.27 z"/><path transform="translate(0,0)" fill="rgb(0,84,175)" d="M 1762.14 713.198 C 1784.51 711.508 1804.02 724.273 1792.57 746.476 C 1778.47 773.828 1722.54 784.645 1695.25 792.676 C 1686.8 795.638 1677.9 798.057 1669.29 800.917 C 1669.94 799.744 1670.63 798.587 1671.34 797.447 C 1676.12 789.793 1685.57 777.877 1691.48 770.746 C 1710.68 747.551 1731.5 720.148 1762.14 713.198 z"/><path transform="translate(0,0)" fill="rgb(254,254,254)" d="M 1763.61 726.127 C 1767.33 725.699 1769.55 724.9 1771.38 728.513 C 1766.88 741.115 1748.25 749.545 1736.33 752.956 L 1732.28 753.572 L 1731.53 752.527 C 1735.78 743.348 1753.87 730.475 1763.61 726.127 z"/><path transform="translate(0,0)" fill="rgb(0,84,175)" d="M 533.196 357.067 C 580.634 355.858 591.157 446.303 594.208 481.062 C 590.731 479.223 587.399 477.195 584.016 475.19 C 573.333 466.972 564.241 457.688 554.449 448.517 C 536.237 431.461 491.153 372.785 533.196 357.067 z"/><path transform="translate(0,0)" fill="rgb(254,254,254)" d="M 534.154 370.342 C 552.181 373.449 566.333 408.72 569.929 424.071 C 551.213 417.931 533.991 389.713 534.154 370.342 z"/><path transform="translate(0,0)" fill="rgb(0,84,175)" d="M 137.134 756.119 C 184.603 753.451 215.216 791.372 235.959 828.949 L 219.098 825.603 C 191.58 821.212 159.901 816.029 135.238 802.854 C 111.932 790.403 106.297 763.654 137.134 756.119 z"/><path transform="translate(0,0)" fill="rgb(254,254,254)" d="M 137.819 768.023 C 151.549 767.9 159.929 770.923 171.88 777.438 C 175.665 779.502 182.666 783.365 183.788 787.445 L 180.769 787.678 C 172.027 786.538 134.429 782.534 132.07 775.126 C 133.211 771.72 135.15 770.464 137.819 768.023 z"/><path transform="translate(0,0)" fill="rgb(0,84,175)" d="M 1303.07 1664.36 C 1321.38 1664.16 1347.15 1669.82 1357.66 1686.48 C 1363.8 1696.2 1359.71 1708.63 1349.41 1713.64 C 1331.6 1722.32 1312.55 1716.99 1294.76 1711.53 C 1280.02 1706.9 1243.95 1699.03 1228.98 1703.66 L 1228.21 1703 C 1230.59 1698.07 1238.89 1693.31 1243.4 1689.95 C 1262.62 1675.63 1279.3 1667.61 1303.07 1664.36 z"/><path transform="translate(0,0)" fill="rgb(0,84,175)" d="M 601.014 489.032 C 620.059 489.126 630.344 512.312 636.131 527.644 C 640.175 538.362 652.176 582.049 650.075 591.814 C 647.418 591.567 646.171 589.584 643.656 587.369 C 619.144 562.059 597.44 543.023 589.584 507.802 C 592.092 498.321 593.129 494.708 601.014 489.032 z"/><path transform="translate(0,0)" fill="rgb(242,242,248)" d="M 605.888 502.894 C 612.37 506.294 621.111 526.05 621.917 533.219 C 614.494 530.107 606.44 510.803 605.888 502.894 z"/><path transform="translate(0,0)" fill="rgb(0,84,175)" d="M 724.215 1644.19 C 739.145 1643.25 764.19 1647.57 766.77 1665.66 C 767.439 1670.31 766.196 1675.03 763.324 1678.75 C 757.655 1686 747.663 1688.9 738.949 1690.14 C 723.93 1690.43 698.272 1687.47 693.912 1669.67 C 692.945 1665.74 693.638 1661.58 695.828 1658.18 C 701.712 1648.84 714.333 1646.47 724.215 1644.19 z"/><path transform="translate(0,0)" fill="rgb(0,84,175)" d="M 241.075 1204.33 C 245.64 1203.95 256.348 1206.42 260.247 1208.94 C 270.457 1215.54 271.952 1219.62 274.685 1230.13 C 270.144 1241.92 266.262 1245.09 253.641 1246.33 C 215.142 1245.55 202.933 1209.81 241.075 1204.33 z"/><path transform="translate(0,0)" fill="rgb(0,84,175)" d="M 1846.82 1307.17 C 1858.63 1306.25 1873.42 1308.7 1877.89 1321.57 C 1879.31 1325.74 1878.96 1330.3 1876.93 1334.21 C 1872.48 1342.75 1864.53 1345.5 1856.05 1348.03 C 1817.09 1349.38 1812.5 1315.37 1846.82 1307.17 z"/><path transform="translate(0,0)" fill="rgb(0,84,175)" d="M 1888.44 938.013 C 1895.69 937.429 1903.3 937.738 1906.46 945.185 C 1905.71 964.358 1880.88 976.791 1864.23 979.901 C 1856.66 980.151 1853.94 979.671 1846.41 978.489 C 1858.27 959.583 1867.53 946.801 1888.44 938.013 z"/><path transform="translate(0,0)" fill="rgb(0,84,175)" d="M 1384.51 1628.13 C 1400.24 1627.1 1407.08 1631.86 1412.85 1645.97 C 1408 1657.99 1405.21 1659.51 1393.3 1662.75 C 1381.01 1663.31 1361.43 1657.55 1367.08 1640.58 C 1369.47 1633.4 1377.95 1630.67 1384.51 1628.13 z"/><path transform="translate(0,0)" fill="rgb(0,84,175)" d="M 1878.38 692.095 C 1913.32 690.227 1891.41 720.387 1867.51 727.814 C 1860.86 728.427 1854.94 730.139 1850.61 724.235 C 1846.83 711.015 1867.6 696.237 1878.38 692.095 z"/><path transform="translate(0,0)" fill="rgb(0,3,11)" d="M 1621.31 1587.43 C 1628.48 1592.51 1635.62 1597.63 1642.72 1602.81 C 1631.98 1599.68 1624.63 1598.64 1613.57 1597.08 C 1618.63 1593.12 1618.76 1593.21 1621.31 1587.43 z"/><path transform="translate(0,0)" fill="rgb(0,3,11)" d="M 1112.25 1711.05 C 1112.81 1712.36 1115.76 1721.47 1115.75 1722.49 C 1109.39 1726.91 1102.69 1730.77 1096.03 1734.73 C 1101.84 1727 1106.02 1719.03 1112.25 1711.05 z"/><path transform="translate(0,0)" fill="rgb(0,3,11)" d="M 901.17 1721.46 C 906.394 1719.01 904.24 1720.82 909.995 1716.73 L 911.164 1715.92 C 916.154 1723.11 918.815 1726.8 922.65 1734.49 L 923.447 1736.06 L 923.913 1737.01 C 915.855 1730.9 908.354 1726.78 901.17 1721.46 z"/><path transform="translate(0,0)" fill="rgb(0,3,11)" d="M 1738.9 1472.98 C 1747.08 1476.01 1754.59 1478.34 1762.67 1481.16 C 1755.51 1481.6 1743.41 1481.84 1736.87 1482.77 L 1736.27 1481.42 C 1737.07 1477.84 1737.58 1476.43 1738.9 1472.98 z"/></svg>