<svg version="1.1" xmlns="http://www.w3.org/2000/svg" style="display: block;" viewBox="0 0 2048 2048" width="1024" height="1024" preserveAspectRatio="none"><defs><linearGradient id="Gradient1" gradientUnits="userSpaceOnUse" x1="866.538" y1="1310.04" x2="859.435" y2="1353.12"><stop class="stop0" offset="0" stop-opacity="1" stop-color="rgb(101,137,204)"/><stop class="stop1" offset="1" stop-opacity="1" stop-color="rgb(62,94,145)"/></linearGradient><linearGradient id="Gradient2" gradientUnits="userSpaceOnUse" x1="1561.38" y1="1173.74" x2="1591.18" y2="1180.48"><stop class="stop0" offset="0" stop-opacity="1" stop-color="rgb(162,169,184)"/><stop class="stop1" offset="1" stop-opacity="1" stop-color="rgb(210,210,210)"/></linearGradient><linearGradient id="Gradient3" gradientUnits="userSpaceOnUse" x1="753.222" y1="1260.1" x2="791.585" y2="1239.1"><stop class="stop0" offset="0" stop-opacity="1" stop-color="rgb(135,146,168)"/><stop class="stop1" offset="1" stop-opacity="1" stop-color="rgb(214,214,211)"/></linearGradient><linearGradient id="Gradient4" gradientUnits="userSpaceOnUse" x1="1502.23" y1="1106.54" x2="1563.1" y2="1120.4"><stop class="stop0" offset="0" stop-opacity="1" stop-color="rgb(78,98,131)"/><stop class="stop1" offset="1" stop-opacity="1" stop-color="rgb(134,153,177)"/></linearGradient><linearGradient id="Gradient5" gradientUnits="userSpaceOnUse" x1="850.682" y1="1222.34" x2="846.6" y2="1203.31"><stop class="stop0" offset="0" stop-opacity="1" stop-color="rgb(172,175,179)"/><stop class="stop1" offset="1" stop-opacity="1" stop-color="rgb(233,233,233)"/></linearGradient><linearGradient id="Gradient6" gradientUnits="userSpaceOnUse" x1="1156.41" y1="682.799" x2="1158.57" y2="611.638"><stop class="stop0" offset="0" stop-opacity="1" stop-color="rgb(248,172,117)"/><stop class="stop1" offset="1" stop-opacity="1" stop-color="rgb(255,214,163)"/></linearGradient><linearGradient id="Gradient7" gradientUnits="userSpaceOnUse" x1="979.865" y1="606.291" x2="1060.92" y2="751.863"><stop class="stop0" offset="0" stop-opacity="1" stop-color="rgb(244,143,76)"/><stop class="stop1" offset="1" stop-opacity="1" stop-color="rgb(255,208,162)"/></linearGradient><linearGradient id="Gradient8" gradientUnits="userSpaceOnUse" x1="1044.28" y1="1353.96" x2="1101.89" y2="1255.46"><stop class="stop0" offset="0" stop-opacity="1" stop-color="rgb(240,135,72)"/><stop class="stop1" offset="1" stop-opacity="1" stop-color="rgb(251,168,107)"/></linearGradient></defs><path transform="translate(0,0)" fill="rgb(0,12,45)" d="M 598.09 468.816 C 698.812 443.481 750.45 392.749 829.202 330.112 C 890.063 281.706 964.401 240.29 1043.34 234.179 C 1064.32 232.556 1084.01 234.251 1104.84 236.793 C 1111.01 247.373 1119.9 279.785 1124.32 293.33 C 1132.93 293.865 1146.41 293.02 1156.03 293.282 C 1192.47 294.273 1214.82 299.557 1248.16 312.522 C 1247.97 287.101 1246.47 268.87 1243.74 243.55 C 1334.31 257.214 1396.4 289.3 1458.24 357.269 C 1500.63 403.858 1547.07 480.871 1613.13 491.137 C 1607.88 504.417 1601.87 517.377 1595.1 529.95 C 1551.75 611.551 1491.24 640.639 1408.24 666.062 C 1420.74 684.41 1447.42 709.224 1464.52 723.899 C 1463.6 728.925 1464.29 728.759 1459.56 732.298 C 1442.13 728.052 1430.64 727.063 1414.14 723.935 C 1420.17 737.32 1425.56 743.515 1440.51 749.143 C 1469.06 759.889 1504.9 767.261 1527.91 788.284 C 1535.92 795.595 1543.08 813.456 1551.42 818.531 C 1559.8 823.634 1573.79 828.334 1582.99 832.592 C 1597.51 839.316 1612.61 846.343 1626.47 854.312 C 1663.63 875.69 1697.45 903.866 1726.82 934.978 C 1738.46 947.31 1749.87 963.051 1760.82 974.112 C 1778.33 974.45 1804.98 968.62 1822.65 965.074 C 1857.7 958.316 1892.52 950.387 1927.05 941.301 C 1946.85 936.214 1970.4 929.133 1989.64 924.692 C 1982.48 932.761 1975.85 941.434 1969.12 949.879 C 1932.72 995.552 1891.43 1040.55 1844.92 1076.12 C 1852.84 1096.88 1855.93 1114.35 1858.34 1136.17 C 1859.69 1148.39 1860.27 1170.67 1865.08 1181.38 C 1875.07 1203.59 1885.11 1225.25 1894.38 1247.9 C 1912.22 1292.56 1929.08 1337.59 1944.96 1382.98 C 1951.4 1400.87 1962.76 1429.14 1964.75 1446.94 C 1968.11 1477.02 1951.92 1543.65 1940.67 1570.26 C 1920.12 1618.88 1855.78 1657.04 1807.48 1674.51 C 1787.07 1681.89 1743.66 1694.8 1722.43 1695.67 L 1721.02 1694.22 C 1716.89 1689.9 1717.79 1689.12 1717.87 1683.52 L 1717.51 1682.35 C 1692.28 1680.86 1668.3 1671.79 1643.45 1665.75 C 1606.46 1656.6 1569.17 1646.78 1531.48 1641.22 C 1505.65 1637.41 1494.48 1632.79 1471.92 1648.5 C 1455 1660.29 1433.09 1672.03 1413.83 1679.21 C 1409.85 1680.7 1398.98 1680.11 1394.31 1679.44 C 1392.43 1679.17 1390.55 1678.83 1388.69 1678.42 C 1367.74 1673.82 1336.77 1657.82 1317.37 1646.69 C 1249.24 1607.59 1182.71 1557.62 1133.24 1496.07 C 1123.4 1483.84 1115.28 1470.96 1106.86 1457.85 C 1061.41 1449.86 996.727 1430.8 961.678 1399.46 C 923.591 1410.83 885.419 1421.91 847.165 1432.71 C 845.411 1430.42 844.139 1430.52 842.183 1428.05 C 842.381 1425.41 842.476 1424.52 841.634 1422.02 C 845.915 1416.48 866.925 1400.65 873.655 1395.12 C 849.428 1397.71 805.753 1405.91 782.726 1412.53 C 771.76 1435.48 761.934 1453.38 744.838 1472.61 C 704.205 1518.33 618.432 1536.57 570.605 1491.52 C 547.803 1506.94 528.008 1517.39 501.877 1526.02 C 491.515 1529.45 477.427 1528.31 469.383 1534.27 C 460.398 1540.92 450.986 1548.75 442.275 1555.85 L 394.109 1595.28 L 273.483 1694.27 C 260.683 1704.86 213.498 1746.6 202.182 1749.18 C 155.756 1759.77 100.624 1656.64 91.1735 1624.57 C 73.1222 1563.33 61.5419 1501.97 86.2439 1442.32 C 94.613 1422.11 110.812 1417.81 128.703 1411.64 C 104.545 1382.33 75.4884 1338.44 71.0113 1299.34 C 68.9683 1281.5 75.1369 1251.68 80.516 1234.65 C 97.1962 1181.34 129.479 1134.25 173.194 1099.47 C 186.109 1089.21 203.174 1080.53 215.186 1070.62 C 245.103 1045.91 277.243 1031.02 309.468 1010.41 C 343.586 988.59 375.425 960.759 407.262 935.662 C 414.881 929.656 420.219 912.256 424.901 903.672 C 446.753 857.066 472.82 824.446 518.874 800.608 C 510.89 795.065 496.762 788.778 487.595 784.781 C 455.993 771.001 420.933 757.509 386.017 757.928 C 411.403 743.321 426.675 735.228 453.461 722.852 C 432.006 717.278 412.047 712.674 389.756 715.434 C 347.407 720.677 318.662 740.167 292.645 772.641 C 297.713 741.098 307.742 714.973 326.796 689.391 C 359.734 645.949 408.307 617.055 462.203 608.845 C 444.706 599.54 416.033 594.513 396.358 593.916 C 448.229 559.027 530.686 549.258 587.044 576.121 C 646.143 604.29 668.562 615.5 735.898 605.341 C 725.458 599.098 714.052 594.68 703.166 587.683 C 655.935 557.326 620.091 520.581 598.09 468.816 z M 772.542 930.543 C 778.337 926.768 789.987 918.426 797.277 921.575 C 838.576 939.412 856.349 985.514 897.595 1005.23 C 895.31 980.721 885.493 962.436 877.637 939.084 C 870.471 917.787 866.068 899.824 862.01 877.737 C 858.657 859.358 857.334 840.667 858.064 821.999 C 858.788 797.471 863.754 788.666 847.928 766.603 L 845.452 765.82 C 781.813 796.009 774.109 841.665 743.524 896.46 C 726.552 926.865 716.448 932.896 702.763 970.986 C 700.011 978.877 697.365 986.805 694.826 994.767 C 720.39 972.091 744.214 949.928 772.542 930.543 z M 921.063 1000.7 C 937.237 1035.01 930.392 1062.04 910.853 1092.52 C 907.273 1073.97 905.228 1057.29 890.404 1045.17 C 852.217 1060.68 820.654 1100.78 802.371 1136.74 C 816.406 1132.09 842.631 1124.65 855.067 1119.07 C 844.33 1137.91 826.404 1160.77 813.834 1181.8 C 821.455 1179.49 840.462 1175.14 846.625 1171.62 C 854.559 1167.08 867.598 1145.99 874.445 1138.04 C 882.95 1128.17 890.23 1118.41 899.577 1109.01 L 900.756 1107.83 C 898.032 1125.27 893.717 1143.49 890.79 1161.49 C 937.161 1152.69 944.138 1125.08 959.045 1084.94 C 962.557 1075.49 970.132 1062.22 975.371 1053.32 C 980.625 1044.11 983.871 1039.87 991.22 1032.06 C 989.488 1039.66 987.64 1047.23 985.677 1054.77 C 981.692 1070.6 977.884 1090.15 977.925 1106.29 C 994.437 1089.76 1001.98 1087.62 1020.04 1075.31 C 1027.47 1042.9 1028.39 1044.7 1047.94 1019.35 C 1018.89 1014.58 996.327 1009.79 972.733 990.088 C 954.939 994.538 938.847 996.934 921.063 1000.7 z M 545.631 835.792 C 555.3 829.009 563.037 824.698 573.511 819.413 C 583.559 814.341 598.527 810.053 603.156 799.379 C 596.839 800.671 590.489 801.851 584.095 802.682 C 547.189 807.48 514.828 829.625 494.487 860.605 C 481.086 880.956 471.943 903.808 467.609 927.786 C 486.852 922.668 566.221 893.144 574.721 878.28 C 582.276 865.071 586.522 846.09 592.189 831.564 C 576.504 835.816 566.906 839.443 551.778 846.1 C 550.063 846.836 543.602 849.774 542.211 850.176 C 533.619 854.697 526.023 858.591 517.146 862.643 C 524.279 854.571 530.054 847.6 538.827 841.304 C 539.206 840.843 544.816 836.441 545.631 835.792 z M 1377.72 1524.68 C 1400.76 1520.37 1408.1 1490.75 1375.53 1481.82 C 1364.64 1488.77 1358.49 1496.85 1353.46 1508.74 C 1362 1517.83 1366.4 1519.57 1377.72 1524.68 z M 1450.63 1537.67 C 1442.24 1543.34 1430.7 1556.9 1425.11 1565.51 C 1433.86 1574.73 1443.02 1584.48 1456.04 1586.89 C 1468.66 1585.33 1480.41 1572.74 1476.5 1559.36 C 1473.97 1550.66 1459.2 1538.96 1450.63 1537.67 z M 1500.24 1434.48 C 1495.62 1462.93 1486.25 1481.02 1472.97 1506.13 C 1481.67 1509.58 1507.56 1534.73 1516.11 1542.72 C 1531.3 1515.37 1544.92 1459.68 1547.15 1428.77 C 1549.74 1392.91 1540.88 1348.01 1516.58 1320.05 C 1500.24 1301.24 1483.6 1301.29 1460.87 1299.59 C 1468.2 1308.46 1475.8 1317.38 1481.75 1327.24 C 1500.13 1357.75 1507.16 1399.58 1500.24 1434.48 z M 931.896 970.775 C 938.145 967.535 944.626 964.279 950.798 960.937 L 960.018 955.557 C 937.144 917.977 919.517 875.677 905.998 833.933 C 904.376 828.927 896.938 803.206 894.376 800.724 C 891.581 811.065 891.719 823.803 891.993 834.491 C 892.761 879.579 904.798 923.757 927.008 963.003 C 928.551 965.647 930.181 968.239 931.896 970.775 z M 197.867 1358.82 C 193.742 1330.82 194.559 1306.49 206.468 1280.24 C 219.358 1252.22 238.05 1227.26 261.306 1207.01 C 302.862 1170.33 357.504 1146.1 413.176 1143.55 C 437.28 1142.44 451.813 1144.55 474.909 1146.04 C 429.088 1120.84 368.634 1119.16 319.05 1133.67 C 259.579 1151.08 210.927 1187.14 180.481 1241.49 C 162.797 1273.05 145.945 1344.53 186.261 1365.85 C 190.766 1368.2 195.542 1370 200.483 1371.21 C 199.36 1366.69 198.543 1363.47 197.867 1358.82 z M 1361.79 919.389 C 1327.6 949.083 1298.21 970.178 1260.29 994.845 C 1251.16 1000.79 1202.99 1029.85 1199.03 1034.22 C 1220.19 1026.12 1274.09 1007.85 1292.84 1011.01 C 1321.54 1015.85 1350.76 1089.08 1369 1011.04 C 1377.49 974.736 1379.52 938.546 1381.07 900.023 C 1374.79 907.27 1368.74 912.84 1361.79 919.389 z"/><path transform="translate(0,0)" fill="rgb(249,169,110)" d="M 952.759 608.711 C 960.34 607.823 967.632 607.573 975.255 607.227 C 966.018 616.254 961.986 716.381 980.034 723.691 C 982.245 724.586 977.638 724.643 979.818 727.856 L 980.369 728.115 C 985.255 731.607 988.72 733.642 993.897 736.621 C 1010.16 744.703 1032.28 759.281 1048.42 752.975 C 1058.49 749.04 1072.22 742.295 1081.7 739.777 C 1095.1 737.024 1102.63 731.794 1111.91 722.218 C 1117.16 719.681 1120.07 718.749 1122.58 713.639 C 1127.86 708.938 1132.91 704.22 1138.7 700.148 L 1152.76 699.111 L 1181.71 698.036 C 1184.04 698.465 1186.5 698.368 1187.38 700.715 C 1190.32 708.558 1189.71 720.91 1191.75 728.823 C 1196.16 745.905 1203.7 760.025 1207.46 777.376 C 1201.16 793.167 1189.64 795.954 1174.39 800.562 C 1165.15 797.099 1143.05 790.163 1134.22 789.333 C 1098.52 785.975 1115.9 763.684 1112.8 760.366 C 1108.39 760.955 1105.87 763.103 1102.07 765.534 C 1098.99 765.381 1093.04 764.912 1090.39 766.192 C 1070.26 775.888 1053.55 801.867 1048.91 822.935 C 1061.58 800.309 1072.57 784.017 1093.64 767.459 C 1106.46 777.971 1115.69 796.867 1131.55 807.692 C 1145.4 817.151 1158.26 839.066 1179.17 836.195 C 1212.9 831.562 1224.77 794.221 1223.48 764.766 C 1223.1 756.039 1216.64 748.519 1211.78 741.947 C 1214.92 731.746 1219.19 717.973 1225.51 709.111 C 1252.88 697.237 1266.7 704.128 1292.93 696.096 C 1295.33 695.364 1300.87 690.876 1303.09 689.096 C 1310.46 688.416 1312.68 688.906 1317.82 683.535 L 1318.19 681.4 C 1313.39 676.147 1307.83 678.271 1301.24 679.37 C 1305.51 671.853 1316.76 658.545 1316.58 652.926 C 1311.44 648.03 1297.56 654.981 1291.83 657.505 L 1292.94 656.515 C 1302.48 648.109 1316.14 644.289 1320.56 635.969 C 1320.53 629.485 1316.33 628.168 1310.9 625.735 C 1317.78 621.172 1323.09 618.227 1330.39 614.303 C 1331.88 645.35 1328.48 732.224 1308.22 755.013 C 1302.82 761.096 1296.03 765.822 1290.79 772.089 C 1289.53 780.592 1289.41 787.436 1289.17 795.973 C 1290.32 805.67 1290 828.454 1290.15 839.141 C 1297.11 825.64 1304.68 806.93 1310.68 792.7 C 1311.24 808.661 1312.96 826.554 1314.07 842.683 C 1302.87 859.318 1286.4 876.803 1274.53 894.496 C 1255.73 922.504 1236.44 958.353 1215.62 984.091 C 1193.8 982.781 1171.9 982.939 1150.1 984.565 C 1129.79 986.096 1111.41 988.656 1090.93 987.839 C 1079.08 980.085 1069.36 968.687 1058.69 959.162 C 1037.07 939.847 1011.6 923 992.231 901.303 C 974.353 881.27 953.414 852.135 946.441 825.775 C 944.619 818.887 946.686 803.878 945.872 796.319 C 945.721 783.836 944.737 773.377 943.621 761.073 C 946.67 766.879 949.844 772.618 953.141 778.286 C 956.095 777.506 957.076 776.229 959.334 774.178 C 957.803 768.229 955.756 759.873 953.28 754.341 C 945.847 737.731 937.873 726.219 934.337 708.021 C 939.658 704.989 940.778 704.163 945.303 700.032 C 947.321 689.478 947.746 677.039 949.06 666.173 C 951.583 645.308 953.682 629.858 952.759 608.711 z"/><path transform="translate(0,0)" fill="rgb(241,143,82)" d="M 952.759 608.711 C 960.34 607.823 967.632 607.573 975.255 607.227 C 966.018 616.254 961.986 716.381 980.034 723.691 C 982.245 724.586 977.638 724.643 979.818 727.856 L 980.369 728.115 C 985.255 731.607 988.72 733.642 993.897 736.621 C 993.653 763.548 996.863 769.111 1005.37 794.394 L 1027.06 857.553 C 1032.66 873.672 1038.49 901.653 1047.36 916.857 C 1057.8 934.771 1078.25 960.343 1092.84 975.156 C 1095.34 977.72 1098.1 980.027 1101.07 982.04 C 1121.15 979.63 1146.92 979.757 1165.51 976.123 C 1183.8 972.544 1208.01 934.434 1221.52 921.784 C 1249.92 895.177 1270.4 862.864 1288.52 828.827 C 1289.29 827.393 1288.55 800.635 1289.17 795.973 C 1290.32 805.67 1290 828.454 1290.15 839.141 C 1297.11 825.64 1304.68 806.93 1310.68 792.7 C 1311.24 808.661 1312.96 826.554 1314.07 842.683 C 1302.87 859.318 1286.4 876.803 1274.53 894.496 C 1255.73 922.504 1236.44 958.353 1215.62 984.091 C 1193.8 982.781 1171.9 982.939 1150.1 984.565 C 1129.79 986.096 1111.41 988.656 1090.93 987.839 C 1079.08 980.085 1069.36 968.687 1058.69 959.162 C 1037.07 939.847 1011.6 923 992.231 901.303 C 974.353 881.27 953.414 852.135 946.441 825.775 C 944.619 818.887 946.686 803.878 945.872 796.319 C 945.721 783.836 944.737 773.377 943.621 761.073 C 946.67 766.879 949.844 772.618 953.141 778.286 C 956.095 777.506 957.076 776.229 959.334 774.178 C 957.803 768.229 955.756 759.873 953.28 754.341 C 945.847 737.731 937.873 726.219 934.337 708.021 C 939.658 704.989 940.778 704.163 945.303 700.032 C 947.321 689.478 947.746 677.039 949.06 666.173 C 951.583 645.308 953.682 629.858 952.759 608.711 z"/><path transform="translate(0,0)" fill="rgb(1,0,0)" d="M 959.334 774.178 C 960.656 778.294 962.058 781.219 961.483 785.444 L 960.313 786.973 C 956.878 785.887 956.054 783.953 954.272 780.524 C 953.887 779.782 953.51 779.036 953.141 778.286 C 956.095 777.506 957.076 776.229 959.334 774.178 z"/><path transform="translate(0,0)" fill="rgb(253,194,143)" d="M 1152.76 699.111 L 1181.71 698.036 C 1187.57 704.214 1177.62 767.796 1175.37 779.623 C 1174.88 782.176 1168.91 787.735 1166.58 789.634 C 1153.18 762.57 1152.74 757.812 1152.63 726.319 C 1152.6 717.678 1151.72 708.018 1152.76 699.111 z"/><path transform="translate(0,0)" fill="rgb(246,246,246)" d="M 1049.37 887.171 C 1034.61 861.119 1044.75 850.479 1065.34 832.141 C 1067.8 829.952 1070.14 830.194 1073.11 830.777 C 1094.64 832.169 1116.12 834.21 1137.53 836.898 C 1181.88 842.673 1186.23 849.109 1232.75 833.583 L 1232.42 834.896 C 1229.2 848.069 1228.68 868.922 1226.17 883.086 C 1225.9 884.589 1228.35 888.483 1229.28 890.049 C 1225.36 894.462 1218.59 894.483 1212.93 895.027 C 1169.61 899.183 1131.05 899.549 1087.8 895.844 C 1072.27 894.381 1063.68 893.095 1049.37 887.171 z"/><path transform="translate(0,0)" fill="rgb(2,6,25)" d="M 1073.11 830.777 C 1094.64 832.169 1116.12 834.21 1137.53 836.898 C 1181.88 842.673 1186.23 849.109 1232.75 833.583 L 1232.42 834.896 C 1229.2 848.069 1228.68 868.922 1226.17 883.086 C 1225.9 884.589 1228.35 888.483 1229.28 890.049 C 1225.36 894.462 1218.59 894.483 1212.93 895.027 C 1169.61 899.183 1131.05 899.549 1087.8 895.844 C 1090.79 891.725 1090.81 894.951 1091.3 890.597 L 1088.5 887.63 C 1134.36 895.012 1158.59 891.949 1203.5 884.715 C 1205.54 875.604 1207.48 856.792 1208.92 846.685 C 1174.26 853.379 1114.47 837.329 1077.45 838.126 L 1074.11 835.167 C 1074.23 834.103 1074.35 833.038 1074.47 831.973 L 1075.04 832.995 L 1075.2 832.349 L 1073.11 830.777 z"/><path transform="translate(0,0)" fill="rgb(0,12,45)" d="M 1049.37 887.171 C 1034.61 861.119 1044.75 850.479 1065.34 832.141 C 1067.8 829.952 1070.14 830.194 1073.11 830.777 L 1075.2 832.349 L 1075.04 832.995 L 1074.47 831.973 C 1074.35 833.038 1074.23 834.103 1074.11 835.167 L 1077.45 838.126 C 1074.86 856.723 1074.76 865.246 1077.48 883.944 L 1088.5 887.63 L 1091.3 890.597 C 1090.81 894.951 1090.79 891.725 1087.8 895.844 C 1072.27 894.381 1063.68 893.095 1049.37 887.171 z"/><path transform="translate(0,0)" fill="rgb(2,6,25)" d="M 1135.23 913.181 C 1141.14 910.635 1149.75 906.868 1155.77 905.437 C 1169.2 902.248 1196.35 905.784 1209.06 910.369 L 1208.63 911.22 C 1202.33 912.45 1190.8 912.274 1184.34 912.022 C 1166.39 911.322 1159.07 912.575 1142.27 917.811 C 1139.16 915.146 1138.92 915.09 1135.23 913.181 z"/><path transform="translate(0,0)" fill="rgb(1,0,0)" d="M 1135.23 913.181 C 1138.92 915.09 1139.16 915.146 1142.27 917.811 C 1129.01 921.696 1108.51 929.567 1095.55 931.39 C 1107 925.187 1123 918.583 1135.23 913.181 z"/><path transform="translate(0,0)" fill="rgb(31,68,119)" d="M 947.838 331.36 C 968.616 319.155 1005.77 307.814 1029.21 304.131 C 1039.01 302.592 1048.88 302.369 1058.59 301.376 C 1068.35 328.511 1078.27 354.651 1090.75 380.65 C 1092.63 384.58 1094.85 389.35 1096.42 393.366 C 1099.28 398.888 1100.76 402.603 1103.01 408.367 C 1101.93 447.582 1151.53 522.464 1194.55 529.213 C 1198.99 528.691 1203.76 528.03 1208.17 527.628 C 1198.36 534.21 1195.83 536.849 1188.47 546.124 L 1182.69 558.291 C 1183.25 564.978 1178.79 583.931 1176.09 589.894 C 1158.17 584.088 1142.87 561.324 1134.43 545.411 C 1139.87 576.078 1147.37 581.2 1164.66 604.951 C 1158.94 602.679 1153.04 600.418 1147.41 597.993 C 1131.98 590.485 1081.94 569.118 1065.52 566.122 C 1019.44 557.715 956.138 562.898 909.425 566.391 C 934.657 557.67 956.717 549.407 983.068 544.32 C 1000.58 540.939 1029.6 541.963 1044.13 535.868 L 1047.78 521.761 C 1042.29 516.638 1032.16 510.39 1025.55 506.848 C 977.107 480.904 966.406 483.627 918.133 496.879 C 916.099 494.122 914.24 490.525 912.541 487.473 C 916.711 471.905 927.224 450.475 934.247 435.59 C 942.99 416.881 951.935 398.267 961.078 379.751 C 967.074 367.806 976.425 350.531 980.392 338.056 C 967.058 341.825 957.172 349.186 945.355 356.238 C 892.35 387.87 845.608 428.828 798.042 467.951 C 783.325 480.056 745.594 509.756 735.142 523.646 C 758.872 562.511 844.973 600.557 886.119 619.683 L 878.772 617.801 C 860.606 612.957 849.64 616.297 833.512 614.488 C 779.001 608.374 719.598 562.263 685.103 523.167 C 697.205 516.848 709.567 512.171 721.32 504.771 C 783.197 465.807 838.07 413.109 895.076 367.868 C 904.824 360.273 914.921 353.135 925.333 346.478 C 931.635 342.44 942.599 336.093 947.838 331.36 z"/><path transform="translate(0,0)" fill="rgb(67,102,160)" d="M 1058.64 361.423 C 1065.77 368.639 1087.62 387.328 1096.42 393.366 C 1099.28 398.888 1100.76 402.603 1103.01 408.367 C 1101.93 447.582 1151.53 522.464 1194.55 529.213 C 1198.99 528.691 1203.76 528.03 1208.17 527.628 C 1198.36 534.21 1195.83 536.849 1188.47 546.124 L 1182.69 558.291 C 1183.25 564.978 1178.79 583.931 1176.09 589.894 C 1158.17 584.088 1142.87 561.324 1134.43 545.411 C 1139.87 576.078 1147.37 581.2 1164.66 604.951 C 1158.94 602.679 1153.04 600.418 1147.41 597.993 C 1145.03 591.203 1144.62 592.675 1139.55 588.089 C 1128.35 577.979 1112.67 558.28 1106.75 544.88 C 1083.45 492.126 1062.13 418.739 1058.64 361.423 z"/><path transform="translate(0,0)" fill="rgb(31,68,119)" d="M 1176.09 589.894 C 1175.85 588.964 1175.63 588.025 1175.45 587.08 C 1173.63 577.472 1177.4 566.31 1182.69 558.291 C 1183.25 564.978 1178.79 583.931 1176.09 589.894 z"/><path transform="translate(0,0)" fill="rgb(51,86,132)" d="M 1194.55 529.213 C 1198.99 528.691 1203.76 528.03 1208.17 527.628 C 1198.36 534.21 1195.83 536.849 1188.47 546.124 C 1188.99 540.055 1191.09 534.226 1194.55 529.213 z"/><path transform="translate(0,0)" fill="rgb(241,143,82)" d="M 1122.54 1090.11 C 1128.93 1078.34 1136.36 1067.11 1150.03 1063.65 C 1168.26 1059.02 1183.71 1063.94 1192.01 1080.73 C 1190.1 1090.25 1186.46 1103.89 1186.01 1112.93 C 1188.95 1143.91 1217.75 1182.3 1237.94 1205.22 C 1262 1232.51 1297.32 1246.35 1306.46 1285.08 C 1301.43 1306.41 1292.03 1325.59 1282.73 1345.29 C 1237.61 1319 1194.74 1280.9 1149.41 1254.31 C 1144.77 1251.59 1137.65 1250.68 1132.23 1249.78 C 1143.26 1269.86 1156.45 1298.76 1159.7 1321.14 C 1140.01 1307.97 1120.43 1294.66 1100.94 1281.19 C 1096.38 1282.89 1097.11 1281.87 1094.51 1285.18 C 1099.07 1291.37 1104.62 1298.52 1108.57 1304.97 C 1088.96 1294.99 1066.48 1279.66 1047.01 1272.3 C 1054.14 1285.16 1063.56 1295.72 1072.84 1307.02 C 1077.7 1312.94 1084.26 1319.17 1087.77 1325.81 C 1073.44 1315.56 1057.34 1307.69 1041.51 1300.04 C 1036.63 1297.68 1019.94 1291.77 1017.1 1289.59 C 1013.77 1283.09 1011.62 1286.35 1008.99 1280.51 L 1006.94 1279.96 C 1002.65 1273.81 1000.53 1269.21 997.202 1262.43 C 1001.18 1262.57 998.258 1264.12 1003.07 1262.74 L 1004.93 1257.87 C 1002.88 1232.63 989.257 1199.34 996.172 1172.89 C 989.571 1155.2 1001.21 1128.76 1014.43 1116.39 C 1026.68 1104.92 1053.68 1104.03 1051.26 1126.59 C 1044.29 1138.17 1037.96 1163.73 1035.88 1177.08 C 1036.15 1202.6 1049.55 1228.57 1064.23 1249.06 C 1066.71 1248.44 1069.19 1247.84 1071.68 1247.25 C 1066.15 1225.67 1058.99 1192.61 1055.7 1170.79 C 1053.76 1152.7 1053.49 1143.93 1055.39 1125.99 C 1059.29 1109.59 1064.51 1086.57 1077.63 1074.82 C 1085.73 1067.56 1091.97 1067.68 1101.8 1068.09 C 1114.08 1075.16 1112.51 1078.17 1121 1089 L 1122.54 1090.11 z"/><path transform="translate(0,0)" fill="rgb(253,194,143)" d="M 1122.54 1090.11 C 1128.93 1078.34 1136.36 1067.11 1150.03 1063.65 C 1168.26 1059.02 1183.71 1063.94 1192.01 1080.73 C 1190.1 1090.25 1186.46 1103.89 1186.01 1112.93 C 1168.92 1110.27 1151.85 1139.4 1144.19 1151.88 C 1136.89 1155.48 1130.31 1160.33 1122.42 1155.86 C 1120.31 1141.07 1118.25 1126.25 1117.83 1111.3 C 1115.57 1108.93 1113.28 1108.4 1110.21 1107.21 C 1113.28 1098.11 1113.65 1095.46 1121 1089 L 1122.54 1090.11 z"/><path transform="translate(0,0)" fill="rgb(1,0,0)" d="M 1121 1089 L 1122.54 1090.11 C 1119.8 1097.63 1118.4 1103.15 1117.83 1111.3 C 1115.57 1108.93 1113.28 1108.4 1110.21 1107.21 C 1113.28 1098.11 1113.65 1095.46 1121 1089 z"/><path transform="translate(0,0)" fill="rgb(253,194,143)" d="M 1055.39 1125.99 C 1059.29 1109.59 1064.51 1086.57 1077.63 1074.82 C 1085.73 1067.56 1091.97 1067.68 1101.8 1068.09 C 1114.08 1075.16 1112.51 1078.17 1121 1089 C 1113.65 1095.46 1113.28 1098.11 1110.21 1107.21 C 1103.51 1124.25 1101.44 1129.43 1098.35 1147.69 C 1097.26 1154.38 1098.33 1155.01 1092.1 1158.86 C 1082.77 1164.62 1071.81 1168.67 1062.53 1174.47 C 1059.19 1173.97 1058.33 1172.89 1055.7 1170.79 C 1053.76 1152.7 1053.49 1143.93 1055.39 1125.99 z"/><path transform="translate(0,0)" fill="rgb(253,194,143)" d="M 996.172 1172.89 C 989.571 1155.2 1001.21 1128.76 1014.43 1116.39 C 1026.68 1104.92 1053.68 1104.03 1051.26 1126.59 C 1044.29 1138.17 1037.96 1163.73 1035.88 1177.08 C 1033.71 1170.01 1037.6 1164.18 1037.7 1155.82 L 1036.1 1154.86 C 1029.38 1154.91 998.896 1162.99 996.166 1168.11 L 996.823 1169.67 C 1009.74 1179.48 1019.58 1172.04 1025.81 1172.08 L 1026.44 1173.2 L 1025.17 1174.97 C 1019.4 1177.18 1000.65 1176.88 996.172 1172.89 z"/><path transform="translate(0,0)" fill="rgb(0,12,45)" d="M 1110.21 1107.21 C 1113.28 1108.4 1115.57 1108.93 1117.83 1111.3 C 1118.25 1126.25 1120.31 1141.07 1122.42 1155.86 C 1124.1 1175.84 1127.47 1186.55 1133.88 1205.7 C 1131.49 1208.58 1131.52 1208.97 1127.99 1210.4 C 1113.79 1193.77 1100.35 1169.83 1098.35 1147.69 C 1101.44 1129.43 1103.51 1124.25 1110.21 1107.21 z"/><path transform="translate(0,0)" fill="rgb(1,0,0)" d="M 1004.93 1257.87 C 1006.67 1265.52 1007.5 1274.19 1008.99 1280.51 L 1006.94 1279.96 C 1002.65 1273.81 1000.53 1269.21 997.202 1262.43 C 1001.18 1262.57 998.258 1264.12 1003.07 1262.74 L 1004.93 1257.87 z"/><path transform="translate(0,0)" fill="rgb(1,0,0)" d="M 1083.52 1268.06 C 1089.04 1271.74 1095.57 1277.05 1100.94 1281.19 C 1096.38 1282.89 1097.11 1281.87 1094.51 1285.18 C 1089.87 1279.33 1086.86 1274.66 1083.52 1268.06 z"/><path transform="translate(0,0)" fill="rgb(1,0,0)" d="M 1071.68 1247.25 C 1073.31 1253.42 1074.32 1256.75 1076.64 1262.69 C 1071.16 1258.5 1067.76 1255.08 1064.23 1249.06 C 1066.71 1248.44 1069.19 1247.84 1071.68 1247.25 z"/><path transform="translate(0,0)" fill="rgb(1,0,0)" d="M 1133.88 1205.7 L 1140.59 1223.11 C 1136.18 1218.9 1131.98 1215.03 1127.99 1210.4 C 1131.52 1208.97 1131.49 1208.58 1133.88 1205.7 z"/><path transform="translate(0,0)" fill="rgb(1,0,0)" d="M 1255.73 1250.74 C 1265.21 1252.01 1281.97 1265.22 1288.72 1272.24 C 1283.43 1270.84 1260.91 1254.9 1255.73 1250.74 z"/><path transform="translate(0,0)" fill="rgb(190,0,2)" d="M 1321.45 1244.34 C 1342.1 1260.09 1403.42 1282.61 1429.42 1291.04 C 1438.57 1294.01 1451.98 1295.53 1460.87 1299.59 C 1468.2 1308.46 1475.8 1317.38 1481.75 1327.24 C 1500.13 1357.75 1507.16 1399.58 1500.24 1434.48 C 1495.62 1462.93 1486.25 1481.02 1472.97 1506.13 C 1465.64 1505.92 1428.54 1465.98 1418.68 1458.45 C 1395.31 1440.62 1356.77 1416.64 1329.65 1405.79 C 1323.19 1417.46 1316.45 1426.33 1309.47 1437.04 C 1288.72 1468.87 1272.52 1484.39 1243.49 1507.7 C 1253.27 1515.05 1270.15 1523.78 1281.81 1532.24 C 1318.06 1558.55 1357.22 1586.23 1391.08 1615.59 C 1384.6 1615.82 1375.88 1615.76 1369.82 1617.42 L 1369.56 1618.16 L 1374.89 1619.97 L 1374.4 1620.58 L 1374.48 1619.77 C 1373.1 1620.96 1373.78 1620.75 1371.87 1620.81 C 1337.42 1621.81 1242.94 1550.4 1215.66 1526.34 C 1204.77 1516.74 1164.89 1481.07 1164.09 1468.24 L 1165.83 1466.55 C 1186.54 1461.71 1228.24 1493.24 1242.01 1482.98 C 1279.73 1454.85 1311.88 1397.31 1326.18 1352.89 C 1340.88 1301.24 1337.46 1295.73 1321.45 1244.34 z"/><path transform="translate(0,0)" fill="rgb(237,0,5)" d="M 1321.45 1244.34 C 1342.1 1260.09 1403.42 1282.61 1429.42 1291.04 C 1438.57 1294.01 1451.98 1295.53 1460.87 1299.59 C 1468.2 1308.46 1475.8 1317.38 1481.75 1327.24 C 1500.13 1357.75 1507.16 1399.58 1500.24 1434.48 C 1494.77 1429.27 1470.69 1424.17 1460.87 1418.97 C 1448.05 1412.18 1435.73 1404.45 1423.14 1397.69 C 1402.09 1386.4 1380.34 1376.37 1358.45 1366.86 C 1348.59 1362.57 1336.25 1355.71 1326.18 1352.89 C 1340.88 1301.24 1337.46 1295.73 1321.45 1244.34 z"/><path transform="translate(0,0)" fill="rgb(237,0,5)" d="M 639.413 489.945 C 673.634 481.15 706.033 463.593 735.182 443.795 C 847.569 367.464 929.142 261.755 1077.5 263.932 C 1095.7 320.728 1143.36 459.974 1195.66 487.727 C 1204.03 492.166 1214.3 494.174 1223.49 491.212 C 1237.22 486.791 1245.78 471.718 1251.7 459.48 C 1277.21 406.82 1278.03 334.818 1273.92 277.528 C 1368.96 302.951 1424.95 357.69 1482.35 433.542 C 1495.78 451.289 1515.84 468.457 1532.52 483.08 C 1543.42 492.647 1558.49 499.539 1570.75 507.241 C 1546.97 549.789 1525.02 576.727 1485.7 605.315 C 1507.37 576.668 1527.78 551.753 1542.11 518.145 C 1500.8 502.788 1464.03 452.088 1436.48 418.474 C 1398.01 371.542 1356.91 329.949 1298.28 308.82 C 1298.45 360.647 1286.14 510.791 1212.29 520.622 C 1159.79 527.611 1125 448.753 1103.01 408.367 C 1100.76 402.603 1099.28 398.888 1096.42 393.366 C 1094.85 389.35 1092.63 384.58 1090.75 380.65 C 1078.27 354.651 1068.35 328.511 1058.59 301.376 C 1048.88 302.369 1039.01 302.592 1029.21 304.131 C 1005.77 307.814 968.616 319.155 947.838 331.36 C 922.435 341.259 883.014 370.358 861.516 387.245 C 797.22 437.749 740.325 486.474 660.769 511.885 C 652.938 504.462 646.709 497.834 639.413 489.945 z"/><path transform="translate(0,0)" fill="rgb(67,102,160)" d="M 1698.66 1288.82 C 1764.56 1288.03 1790.51 1295.16 1838.79 1342.45 C 1852.31 1355.69 1869.75 1374.95 1881.77 1389.56 C 1893.47 1403.09 1894.67 1433.44 1897.95 1451.94 C 1845.47 1424.46 1764.5 1413.97 1718.29 1383.35 C 1715.19 1382.29 1713.12 1380.97 1710.36 1381.47 C 1717.12 1386.14 1724.15 1390.7 1731.05 1395.18 C 1746.85 1405.44 1760.97 1418.3 1776.24 1429.14 C 1800.66 1438.59 1830.24 1485.69 1840.07 1509.3 C 1846.2 1524.04 1848.56 1531.84 1851.45 1547.45 C 1797.84 1500.4 1746.56 1441.21 1678.09 1415.7 C 1672.24 1413.51 1656.27 1409.33 1650.61 1411.41 C 1647.81 1417.94 1666.87 1477.89 1670.13 1488.82 C 1665.67 1485.3 1652.92 1475.66 1649.61 1472.06 C 1645.05 1468.48 1644.12 1467.64 1640.51 1463.12 C 1614.16 1430.1 1590.98 1366.59 1571.72 1326.26 C 1630.74 1320.68 1694.4 1325.91 1749.9 1347.66 C 1756.4 1341.33 1760.09 1348.29 1768.41 1345.15 C 1766.98 1342.8 1739.84 1327.53 1734.45 1323.5 C 1726.56 1317.6 1719.88 1310.98 1713.87 1303.2 C 1709.19 1300.08 1702.39 1293.15 1698.66 1288.82 z"/><path transform="translate(0,0)" fill="rgb(31,68,119)" d="M 1698.66 1288.82 C 1764.56 1288.03 1790.51 1295.16 1838.79 1342.45 C 1852.31 1355.69 1869.75 1374.95 1881.77 1389.56 C 1893.47 1403.09 1894.67 1433.44 1897.95 1451.94 C 1845.47 1424.46 1764.5 1413.97 1718.29 1383.35 C 1726.03 1382.42 1737.3 1383.81 1745.26 1384.22 C 1781.06 1386.08 1798.97 1389.03 1831.73 1402.53 C 1815.89 1385.02 1795.96 1365.48 1773.95 1355.15 C 1767.02 1351.9 1758.04 1351.37 1749.9 1347.66 C 1756.4 1341.33 1760.09 1348.29 1768.41 1345.15 C 1766.98 1342.8 1739.84 1327.53 1734.45 1323.5 C 1726.56 1317.6 1719.88 1310.98 1713.87 1303.2 C 1709.19 1300.08 1702.39 1293.15 1698.66 1288.82 z"/><path transform="translate(0,0)" fill="rgb(67,102,160)" d="M 1698.66 1288.82 C 1764.56 1288.03 1790.51 1295.16 1838.79 1342.45 C 1852.31 1355.69 1869.75 1374.95 1881.77 1389.56 C 1860.5 1388.57 1811.87 1338.57 1787.46 1328.25 C 1766.92 1319.56 1735.25 1306.3 1713.87 1303.2 C 1709.19 1300.08 1702.39 1293.15 1698.66 1288.82 z"/><path transform="translate(0,0)" fill="rgb(31,68,119)" d="M 1620.05 1380.85 C 1642.99 1382.76 1672.64 1388.17 1694.43 1396.73 C 1701.54 1399.34 1709.37 1408.12 1715.76 1411 C 1738.89 1421.42 1760.85 1435.94 1784.17 1445.59 L 1785.21 1445.09 C 1785.4 1440.02 1779.4 1433.25 1776.24 1429.14 C 1800.66 1438.59 1830.24 1485.69 1840.07 1509.3 C 1846.2 1524.04 1848.56 1531.84 1851.45 1547.45 C 1797.84 1500.4 1746.56 1441.21 1678.09 1415.7 C 1672.24 1413.51 1656.27 1409.33 1650.61 1411.41 C 1647.81 1417.94 1666.87 1477.89 1670.13 1488.82 C 1665.67 1485.3 1652.92 1475.66 1649.61 1472.06 C 1645.05 1468.48 1644.12 1467.64 1640.51 1463.12 C 1642.47 1460.9 1643.24 1457.51 1644.21 1454.59 C 1635.59 1432.59 1624.01 1403.27 1620.05 1380.85 z"/><path transform="translate(0,0)" fill="rgb(51,86,132)" d="M 1644.21 1454.59 C 1646.39 1458.83 1649.78 1467.22 1649.61 1472.06 C 1645.05 1468.48 1644.12 1467.64 1640.51 1463.12 C 1642.47 1460.9 1643.24 1457.51 1644.21 1454.59 z"/><path transform="translate(0,0)" fill="rgb(253,194,143)" d="M 360.349 1427.97 C 352.118 1418.69 345.226 1410.44 340.09 1399.1 C 330.308 1377.5 337.378 1328.92 345.662 1308.22 C 360.241 1271.8 424.486 1231.99 459.341 1216.94 C 488.04 1204.55 517.777 1198.15 546.391 1212.17 C 561.363 1219.51 578.46 1226.19 585.124 1242.92 C 563.329 1248.77 554.84 1253.01 535.041 1263.03 L 542.733 1269.62 L 540.613 1270.24 L 537.925 1268.76 C 530.959 1276.01 520.674 1287.38 511.36 1291.45 C 504.336 1294.52 504.037 1291.24 496.096 1297.36 C 491.091 1292.1 486.607 1288.59 480.561 1284.73 C 477.606 1284.37 476.095 1284 473.342 1283.1 C 472.031 1285.63 472.462 1287.07 471.54 1288.54 C 476.369 1297.57 482.639 1306.16 486.167 1315.47 L 487.594 1319.13 C 481.62 1324.32 478.552 1331.84 469.285 1331.53 L 472.569 1328.22 L 472.216 1327.04 C 460.464 1333.64 461.115 1340.85 444.879 1342.11 C 436.18 1328.56 428.454 1319.81 415.768 1309.64 C 416.022 1317.75 416.591 1332.42 418.676 1339.92 C 433.883 1360.5 445.207 1379.87 457.284 1402.37 C 459.56 1406.61 469.528 1412.24 472.085 1417.04 C 476.747 1424.86 478.348 1433.23 482.547 1441.2 C 487.787 1451.14 503.9 1460.78 504.144 1472.97 L 502.948 1473.89 C 487.742 1470.91 440.379 1437.02 432.754 1423.59 C 417.628 1396.96 425.934 1394.3 391.081 1382.83 L 391.581 1384.08 C 396.746 1396.64 405.26 1401.79 412.382 1412.86 C 422.361 1428.37 424.353 1443.1 430.726 1459.2 C 434.283 1468.18 446.586 1480.97 453.19 1487.89 C 455.913 1490.75 457.388 1492.14 456.288 1495.53 C 446.991 1496.81 409.804 1472.39 401.676 1465.9 C 391.344 1457.66 367.831 1438.57 360.349 1427.97 z"/><path transform="translate(0,0)" fill="rgb(241,143,82)" d="M 360.349 1427.97 L 365.509 1430.45 C 367.396 1430.22 368.247 1429.92 369.81 1428.73 C 384.901 1417.21 365.451 1351.8 365.707 1333.24 C 365.9 1319.22 373.406 1311.66 373.557 1302.02 C 373.564 1301.57 373.549 1301.12 373.545 1300.67 C 375.686 1314.77 376.95 1349.44 391.97 1356.83 C 399.5 1360.53 408.745 1343.59 414.757 1341.3 C 416.057 1340.8 417.115 1340.62 418.676 1339.92 C 433.883 1360.5 445.207 1379.87 457.284 1402.37 C 459.56 1406.61 469.528 1412.24 472.085 1417.04 C 476.747 1424.86 478.348 1433.23 482.547 1441.2 C 487.787 1451.14 503.9 1460.78 504.144 1472.97 L 502.948 1473.89 C 487.742 1470.91 440.379 1437.02 432.754 1423.59 C 417.628 1396.96 425.934 1394.3 391.081 1382.83 L 391.581 1384.08 C 396.746 1396.64 405.26 1401.79 412.382 1412.86 C 422.361 1428.37 424.353 1443.1 430.726 1459.2 C 434.283 1468.18 446.586 1480.97 453.19 1487.89 C 455.913 1490.75 457.388 1492.14 456.288 1495.53 C 446.991 1496.81 409.804 1472.39 401.676 1465.9 C 391.344 1457.66 367.831 1438.57 360.349 1427.97 z"/><path transform="translate(0,0)" fill="rgb(1,0,0)" d="M 471.54 1288.54 C 468.97 1284.96 463.337 1278.53 464.303 1274.25 C 469.44 1274.17 476.601 1281.25 480.561 1284.73 C 477.606 1284.37 476.095 1284 473.342 1283.1 C 472.031 1285.63 472.462 1287.07 471.54 1288.54 z"/><path transform="translate(0,0)" fill="rgb(190,0,2)" d="M 289.06 1401.17 C 295.465 1399.71 302.391 1396.4 306.908 1402.06 C 318.259 1419.32 334.163 1445.04 346.471 1460.71 C 327.013 1481.51 290.335 1505.33 266.44 1522.29 C 260.016 1526.85 245.437 1537.12 239.223 1540.9 C 258.392 1511.54 289.839 1488.22 302.676 1463.33 L 303.352 1462.05 L 303.749 1461.27 C 292.384 1468.61 280.577 1478.66 269.911 1485.22 C 237.023 1505.44 193.951 1528.69 157.769 1541.79 C 159.856 1595.94 165.622 1616.65 188.375 1664.48 C 206.899 1652.96 226.911 1636.14 244.291 1622.45 C 284.852 1590.52 323.827 1555.81 366.347 1526.43 C 376.423 1519.46 383.323 1511.93 394.155 1505.98 C 403.017 1508.19 406.149 1509.66 415.401 1510.31 L 416.455 1511.68 C 410.921 1518.38 390.263 1534.33 382.811 1540.29 C 363.651 1555.43 344.684 1570.81 325.913 1586.43 C 297.178 1610.23 268.852 1634.53 240.949 1659.3 C 225.834 1672.86 208.611 1690.07 194.025 1702.68 C 156.069 1665.3 123.786 1588.2 124.755 1534.94 C 125.404 1499.19 128.755 1495.91 147.14 1469.99 C 141.151 1465.86 140.114 1464.56 132.901 1462.99 C 130.574 1463.03 128.906 1462.74 126.597 1462.45 C 123.258 1460.28 123.425 1460.41 121.311 1457.01 C 121.039 1448.27 137.922 1443.25 145.174 1440.22 C 178.476 1426.39 213.008 1415.72 248.311 1408.37 C 261.907 1405.53 275.411 1404.13 289.06 1401.17 z"/><path transform="translate(0,0)" fill="rgb(237,66,66)" d="M 289.06 1401.17 C 295.465 1399.71 302.391 1396.4 306.908 1402.06 C 304.252 1409.38 305.582 1418.13 302.775 1421.53 L 300.209 1421.93 C 253.884 1436.02 202.343 1444.71 155.746 1460.02 C 149.259 1462.15 137.989 1461.11 132.901 1462.99 C 130.574 1463.03 128.906 1462.74 126.597 1462.45 C 123.258 1460.28 123.425 1460.41 121.311 1457.01 C 121.039 1448.27 137.922 1443.25 145.174 1440.22 C 178.476 1426.39 213.008 1415.72 248.311 1408.37 C 261.907 1405.53 275.411 1404.13 289.06 1401.17 z"/><path transform="translate(0,0)" fill="rgb(237,0,5)" d="M 289.06 1401.17 C 295.465 1399.71 302.391 1396.4 306.908 1402.06 C 304.252 1409.38 305.582 1418.13 302.775 1421.53 L 300.209 1421.93 C 297.989 1415.06 288.762 1411.32 289.06 1401.17 z"/><path transform="translate(0,0)" fill="rgb(237,0,5)" d="M 206.468 1280.24 C 219.358 1252.22 238.05 1227.26 261.306 1207.01 C 302.862 1170.33 357.504 1146.1 413.176 1143.55 C 437.28 1142.44 451.813 1144.55 474.909 1146.04 C 493.532 1152.53 516.662 1165.6 533.419 1176.03 C 463.074 1175.78 401.944 1196.9 351.414 1247.4 C 336.31 1262.25 323.371 1279.16 312.978 1297.62 C 300.618 1321.33 293.715 1343.08 291.686 1369.99 C 278.143 1370.23 263.51 1370.74 250.076 1370.23 C 244.919 1362.61 242.389 1358.47 238.097 1350.63 C 233.836 1342.86 226.098 1325.17 220.873 1319.4 C 215.679 1331.63 208.218 1348.07 206.335 1361.33 C 206.101 1362.98 205.936 1363.91 205.438 1365.52 L 204.092 1366.03 C 201.016 1362.98 200.477 1361.11 197.867 1358.82 C 193.742 1330.82 194.559 1306.49 206.468 1280.24 z"/><path transform="translate(0,0)" fill="rgb(190,0,2)" d="M 197.867 1358.82 C 193.742 1330.82 194.559 1306.49 206.468 1280.24 C 213.787 1281.7 220.403 1284.71 227.571 1286.7 C 238.571 1289.75 249.793 1291.65 261.019 1293.63 C 273.892 1296.66 304.638 1293.62 312.978 1297.62 C 300.618 1321.33 293.715 1343.08 291.686 1369.99 C 278.143 1370.23 263.51 1370.74 250.076 1370.23 C 244.919 1362.61 242.389 1358.47 238.097 1350.63 C 233.836 1342.86 226.098 1325.17 220.873 1319.4 C 215.679 1331.63 208.218 1348.07 206.335 1361.33 C 206.101 1362.98 205.936 1363.91 205.438 1365.52 L 204.092 1366.03 C 201.016 1362.98 200.477 1361.11 197.867 1358.82 z"/><path transform="translate(0,0)" fill="rgb(190,0,2)" d="M 359.721 695.856 C 414.24 657.655 469.602 608.706 541.112 623.399 C 566.881 628.694 589.458 636.482 611.756 650.122 C 642.847 669.139 655.239 679.562 692.498 679.848 C 736.116 680.184 767.564 666.524 808.533 656.003 C 791.512 671.504 736.419 687.298 712.109 689.384 C 742.115 698.924 766.574 692.182 795.63 684.208 C 775.676 697.998 725.843 745.482 708.278 747.716 C 680.121 751.296 596.073 718.919 566.642 710.195 C 556.904 707.327 547.022 704.977 537.037 703.153 C 533.682 702.525 525.337 701.594 522.782 700.804 C 525.096 698.964 529.198 698.677 532.31 698.155 C 555.229 697.789 593.745 702.719 616.667 706.634 C 632.874 709.402 650.944 714.401 667.215 715.487 C 658.24 712.537 644.621 708.97 636.398 705.872 C 603.381 693.222 569.743 682.102 535.046 675.052 C 517.196 671.425 500.243 673.03 482.8 671.821 C 436.531 668.614 402.398 684.074 359.721 695.856 z"/><path transform="translate(0,0)" fill="rgb(203,204,206)" d="M 1667.26 1041.81 C 1673.06 1010.65 1685.89 1012.89 1713.07 1008.94 C 1722.35 1007.59 1732.06 1006.4 1741.38 1005.11 C 1761.98 1002.14 1782.48 998.463 1802.84 994.092 C 1854.28 983.503 1884.42 969.674 1932.09 955.071 C 1918.2 968.136 1884.8 990.571 1868.02 1000.6 C 1860.43 1005.68 1852.76 1010.66 1845.02 1015.52 C 1847.14 1015.4 1849.15 1015.14 1851.23 1014.72 C 1851.29 1017.36 1851.62 1016.16 1850.34 1018.34 C 1849.51 1025.05 1837.08 1040.14 1831.65 1044.15 C 1814.06 1062.32 1766.54 1096.71 1742.19 1099.78 C 1732.71 1104.05 1707.4 1109.26 1696.43 1107.14 C 1686.09 1105.14 1681.89 1101.43 1676.11 1093.3 C 1668.62 1083.17 1665.87 1066.06 1665.72 1053.74 C 1665.92 1048.48 1666.07 1046.92 1667.26 1041.81 z"/><path transform="translate(0,0)" fill="rgb(246,246,246)" d="M 1667.26 1041.81 C 1673.06 1010.65 1685.89 1012.89 1713.07 1008.94 C 1722.35 1007.59 1732.06 1006.4 1741.38 1005.11 C 1761.98 1002.14 1782.48 998.463 1802.84 994.092 C 1854.28 983.503 1884.42 969.674 1932.09 955.071 C 1918.2 968.136 1884.8 990.571 1868.02 1000.6 C 1860.43 1005.68 1852.76 1010.66 1845.02 1015.52 C 1831.41 1023.44 1826.49 1025.1 1811.16 1029.17 L 1752.99 1038.24 C 1735.06 1040.92 1710.12 1044.35 1692.82 1048.4 C 1689.18 1048.56 1681.54 1048.91 1678.39 1050.67 C 1674.5 1051.47 1669.42 1052.39 1665.72 1053.74 C 1665.92 1048.48 1666.07 1046.92 1667.26 1041.81 z"/><path transform="translate(0,0)" fill="rgb(203,204,206)" d="M 1694.7 1031.74 C 1713.9 1028.25 1735.2 1023.34 1754.25 1020.63 C 1774.59 1017.74 1796.3 1016.99 1817.02 1013.7 C 1829.83 1011.67 1847.16 1001.54 1857.23 1000.91 C 1854.2 1001.7 1853.17 1002.11 1850.36 1003.25 L 1849.78 1004.72 C 1856.19 1010.01 1858.06 1001.48 1868.02 1000.6 C 1860.43 1005.68 1852.76 1010.66 1845.02 1015.52 C 1831.41 1023.44 1826.49 1025.1 1811.16 1029.17 L 1752.99 1038.24 C 1735.06 1040.92 1710.12 1044.35 1692.82 1048.4 C 1689.18 1048.56 1681.54 1048.91 1678.39 1050.67 C 1674.5 1051.47 1669.42 1052.39 1665.72 1053.74 C 1665.92 1048.48 1666.07 1046.92 1667.26 1041.81 C 1668.28 1044.37 1668.33 1047.37 1668.58 1050.17 L 1669.7 1050.93 C 1676.48 1046.57 1685.1 1049.14 1690.8 1045.84 C 1692.97 1042.35 1693.83 1036 1694.7 1031.74 z"/><path transform="translate(0,0)" fill="rgb(0,12,45)" d="M 1692.82 1048.4 C 1710.12 1044.35 1735.06 1040.92 1752.99 1038.24 L 1811.16 1029.17 C 1814.03 1029.45 1814.47 1029.24 1816.94 1030.58 C 1817.56 1033.91 1817.64 1032.16 1815.45 1035.9 L 1813.88 1036.65 C 1802.46 1042.22 1790.93 1050.78 1780.78 1057.05 C 1765.33 1066.6 1713.98 1085.6 1696.52 1085.24 C 1689.85 1081.87 1691.88 1055.43 1692.82 1048.4 z"/><path transform="translate(0,0)" fill="rgb(246,246,246)" d="M 1742.19 1099.78 C 1738.71 1099.41 1739.64 1100.21 1737.96 1098.38 C 1751.28 1087.25 1774.37 1077.83 1789.47 1068.01 C 1799.31 1061.61 1821.36 1041.31 1831.65 1044.15 C 1814.06 1062.32 1766.54 1096.71 1742.19 1099.78 z"/><path transform="translate(0,0)" fill="rgb(121,135,158)" d="M 1678.39 1050.67 L 1680.43 1051.42 C 1681.88 1058.28 1681.85 1084.27 1679.66 1090.72 C 1678.46 1091.64 1677.4 1092.53 1676.11 1093.3 C 1668.62 1083.17 1665.87 1066.06 1665.72 1053.74 C 1669.42 1052.39 1674.5 1051.47 1678.39 1050.67 z"/><path transform="translate(0,0)" fill="rgb(1,0,0)" d="M 1845.02 1015.52 C 1847.14 1015.4 1849.15 1015.14 1851.23 1014.72 C 1851.29 1017.36 1851.62 1016.16 1850.34 1018.34 C 1838.83 1024.36 1827.29 1030.6 1815.45 1035.9 C 1817.64 1032.16 1817.56 1033.91 1816.94 1030.58 C 1814.47 1029.24 1814.03 1029.45 1811.16 1029.17 C 1826.49 1025.1 1831.41 1023.44 1845.02 1015.52 z"/><path transform="translate(0,0)" fill="rgb(67,102,160)" d="M 1625.94 1139.97 C 1644.89 1137.38 1674.01 1132.2 1692.87 1132.06 C 1708.17 1131.94 1736.73 1146.86 1745.38 1160.61 C 1732.55 1165.66 1718.32 1169.97 1706.05 1175.33 C 1718.3 1188.09 1730.53 1197.87 1742.03 1209.7 C 1741.95 1220.29 1741.94 1229.99 1742.35 1240.6 L 1731.99 1242 C 1722.11 1244.93 1712.03 1245.44 1701.84 1249.39 C 1664.68 1263.77 1628.99 1281.06 1590.44 1291.63 C 1581.56 1294.06 1573.36 1298.56 1564 1300.88 C 1581.59 1290.98 1613.17 1265.95 1629.27 1252.49 C 1606.98 1258 1588.63 1258.35 1565.99 1260.93 C 1553.69 1262.33 1541.43 1265.71 1529.59 1269.28 C 1540.18 1253.22 1557.9 1247.56 1575.18 1239.7 C 1590.52 1231.24 1606.94 1223.63 1622.93 1216.5 C 1635.22 1211.03 1648.01 1206.5 1659.9 1200.2 C 1651.58 1177.63 1639.67 1166.19 1622.08 1151.37 C 1620.21 1150.11 1613.95 1144.45 1611.91 1142.69 C 1616.39 1141.59 1621.37 1140.8 1625.94 1139.97 z"/><path transform="translate(0,0)" fill="rgb(31,68,119)" d="M 1575.18 1239.7 C 1578.14 1241.19 1714.71 1231.97 1730.44 1239.81 C 1731.91 1240.55 1731.16 1240.07 1731.99 1242 C 1722.11 1244.93 1712.03 1245.44 1701.84 1249.39 C 1664.68 1263.77 1628.99 1281.06 1590.44 1291.63 C 1581.56 1294.06 1573.36 1298.56 1564 1300.88 C 1581.59 1290.98 1613.17 1265.95 1629.27 1252.49 C 1606.98 1258 1588.63 1258.35 1565.99 1260.93 C 1553.69 1262.33 1541.43 1265.71 1529.59 1269.28 C 1540.18 1253.22 1557.9 1247.56 1575.18 1239.7 z"/><path transform="translate(0,0)" fill="rgb(31,68,119)" d="M 1611.91 1142.69 C 1616.39 1141.59 1621.37 1140.8 1625.94 1139.97 C 1629.33 1143.68 1630.88 1144.86 1632.07 1149.79 C 1628.82 1152.53 1628.12 1152.01 1623.81 1150.72 L 1622.08 1151.37 C 1620.21 1150.11 1613.95 1144.45 1611.91 1142.69 z"/><path transform="translate(0,0)" fill="rgb(67,102,160)" d="M 323.721 1051.46 C 341.397 1040.52 358.674 1028.94 375.519 1016.75 C 397.375 1000.64 428.919 973.332 452.409 961.223 C 457.909 958.387 517.047 945.178 521.87 947.494 C 522.363 950.874 522.662 949.26 520.43 952.383 C 525.185 960.509 519.194 992.84 522.148 1004.83 C 532.649 1047.47 546.028 1094.91 569.946 1131.98 C 563.174 1126.36 525.969 1096.47 522.633 1091.62 C 488.004 1064.35 462.28 1028.68 419.904 1012.76 C 415.201 1010.99 409.987 1007.95 404.883 1008.59 L 404.421 1009.99 C 407.812 1016.81 426.343 1040.72 432.781 1051.5 C 415.553 1043.61 402.174 1042.42 383.751 1039.54 L 412.849 1071.49 C 381.841 1059.7 357.496 1053.47 323.721 1051.46 z"/><path transform="translate(0,0)" fill="rgb(31,68,119)" d="M 522.633 1091.62 C 523.179 1090.63 523.335 1090.61 522.986 1089.06 C 521.825 1083.89 513.697 1072.07 510.813 1066.19 C 505.716 1055.79 479.091 996.498 479.906 988.604 C 480.09 986.82 482.128 985.215 483.404 984.06 C 489.882 978.194 497.438 973.333 504.092 967.596 C 509.751 962.718 514.567 957.025 520.43 952.383 C 525.185 960.509 519.194 992.84 522.148 1004.83 C 532.649 1047.47 546.028 1094.91 569.946 1131.98 C 563.174 1126.36 525.969 1096.47 522.633 1091.62 z"/><path transform="translate(0,0)" fill="rgb(31,68,119)" d="M 740.118 852.212 C 741.053 853.488 735.896 857.884 734.22 860.911 C 729.04 870.261 724.522 879.675 723.712 890.408 C 657.535 916.9 632.936 1016.3 628.794 1081.14 C 618.548 1042.83 614.672 1002.93 613.312 963.39 C 612.988 953.947 613.203 944.677 611.092 935.41 C 598.27 960.848 597.758 1025.37 598.089 1054.78 C 599.635 1079.57 603.878 1103.28 605.224 1126.12 C 583.952 1082.61 571.392 1009.32 574.379 961.398 C 574.814 954.404 575.149 939.589 577.613 933.571 C 591.12 900.58 629.94 876.421 660.186 862.157 C 653.241 871.527 645.325 880.431 637.716 889.293 C 677.844 884.139 704.783 870.947 740.118 852.212 z"/><path transform="translate(0,0)" fill="rgb(237,0,5)" d="M 1494.13 839.741 C 1506.13 841.871 1518.28 843.577 1530 846.785 C 1576.62 859.542 1636.86 890.909 1668.69 927.649 C 1652.24 938.218 1613.45 961.824 1596.94 968.075 C 1576.36 952.357 1555.48 936.116 1532.7 923.558 C 1520.09 916.609 1503.7 911.632 1491.32 905.478 C 1489.09 903.375 1476.54 899.743 1472.69 898.378 C 1467.65 888.714 1464.46 890.657 1454.25 890.44 C 1463.42 871.982 1478.08 852.618 1494.13 839.741 z"/><path transform="translate(0,0)" fill="rgb(241,143,82)" d="M 496.096 1297.36 C 504.037 1291.24 504.336 1294.52 511.36 1291.45 C 520.674 1287.38 530.959 1276.01 537.925 1268.76 L 540.613 1270.24 L 542.733 1269.62 C 571.344 1289.82 573.399 1335.59 591.631 1359.91 C 602.432 1374.31 636.021 1389.91 652.517 1403.65 C 634.895 1416.89 634.253 1419.33 611.8 1421.64 C 619.057 1416.18 621.093 1414.28 627.328 1407.76 C 622.601 1409.31 612.739 1412.7 608.087 1413.03 C 588.004 1414.45 558.678 1406.24 539.549 1400.9 C 533.694 1392.52 530.975 1382.23 527.395 1372.98 C 519.361 1352.23 508.367 1314.85 496.096 1297.36 z"/><path transform="translate(0,0)" fill="url(#Gradient8)" d="M 950.822 1182.62 C 951.416 1171.93 952.72 1142.27 967.357 1142.28 C 982.117 1147.95 980.154 1171.99 980.068 1185.01 C 980.277 1209.37 983.691 1241.51 997.202 1262.43 C 1000.53 1269.21 1002.65 1273.81 1006.94 1279.96 L 1008.99 1280.51 C 1011.62 1286.35 1013.77 1283.09 1017.1 1289.59 C 1013.78 1287.54 1012.99 1286.74 1009.06 1286.37 C 1007.54 1287.75 1007.46 1287.2 1007.49 1288.96 C 1008.34 1328.4 1140.57 1385.88 1172.64 1401.25 C 1181.38 1405.44 1200.12 1412.09 1206.51 1418.5 L 1205.49 1419.01 C 1202.77 1418.24 1202.63 1418.14 1199.84 1418.06 L 1198.97 1418.95 L 1201.72 1422.34 L 1200.41 1423.44 C 1186.25 1424.81 1166.15 1413.47 1152.63 1408.62 C 1096.31 1388.44 1041.95 1359.6 996.915 1319.89 C 986.994 1311.15 958.79 1286.18 956.802 1273.89 C 952.4 1246.67 947.016 1210.12 950.822 1182.62 z"/><path transform="translate(0,0)" fill="rgb(253,194,143)" d="M 950.822 1182.62 C 951.416 1171.93 952.72 1142.27 967.357 1142.28 C 982.117 1147.95 980.154 1171.99 980.068 1185.01 C 977.438 1182.46 968.731 1184.67 964.715 1185 C 959.018 1185.47 954.739 1184.49 951.544 1189.57 L 950.822 1182.62 z"/><path transform="translate(0,0)" fill="url(#Gradient7)" d="M 975.255 607.227 C 984.697 607.033 988.974 605.212 995.27 611.244 C 996.242 612.178 997.201 613.124 998.148 614.083 C 990.747 614.278 988.242 619.824 985.197 625.593 C 998.685 633.932 1010.92 638.375 1024.1 648.335 C 1013.5 646.197 1002.39 643.162 991.746 644.598 L 990.103 645.875 C 992.653 651.391 1013.25 655.843 1023.7 663.967 C 1019.58 663.983 1000.14 663.758 997.055 664.604 C 995.941 668.424 995.835 666.637 997.051 670.161 C 1002.67 675.984 1032.33 680.896 1034.94 693.296 L 1033.6 695.644 C 1041.82 697.164 1052.75 695.723 1061.42 695.945 C 1076.07 696.32 1092.26 699.516 1106.17 703.979 C 1115.05 707.151 1116.23 711.38 1122.58 713.639 C 1120.07 718.749 1117.16 719.681 1111.91 722.218 C 1102.63 731.794 1095.1 737.024 1081.7 739.777 C 1072.22 742.295 1058.49 749.04 1048.42 752.975 C 1032.28 759.281 1010.16 744.703 993.897 736.621 C 988.72 733.642 985.255 731.607 980.369 728.115 L 979.818 727.856 C 977.638 724.643 982.245 724.586 980.034 723.691 C 961.986 716.381 966.018 616.254 975.255 607.227 z"/><path transform="translate(0,0)" fill="rgb(253,194,143)" d="M 980.369 728.115 C 987.724 729.61 995.295 736.599 1001.16 737.67 C 1006.53 734.212 1013.7 726.152 1018.42 723.607 C 1029.5 717.628 1074.1 730.816 1080.82 738.713 L 1081.7 739.777 C 1072.22 742.295 1058.49 749.04 1048.42 752.975 C 1032.28 759.281 1010.16 744.703 993.897 736.621 C 988.72 733.642 985.255 731.607 980.369 728.115 z"/><path transform="translate(0,0)" fill="rgb(241,143,82)" d="M 1106.17 703.979 C 1115.05 707.151 1116.23 711.38 1122.58 713.639 C 1120.07 718.749 1117.16 719.681 1111.91 722.218 C 1103.5 721.447 1088.08 722.299 1082.26 721.261 C 1086.37 720.228 1101.3 708.349 1104.86 705.163 L 1106.17 703.979 z"/><path transform="translate(0,0)" fill="url(#Gradient6)" d="M 1026.95 605.648 C 1070.79 607.577 1113 631.009 1156.12 634.933 C 1196.25 638.585 1251.57 628.948 1289.91 615.438 C 1275.04 634.718 1239.94 665.193 1215.43 668.847 C 1202.69 660.324 1199.76 653.047 1183.58 652.749 L 1182.67 653.63 C 1181.31 654.927 1180.02 656.033 1178.6 657.256 C 1180.81 665.948 1193.52 670.079 1194.17 677.5 C 1191.49 678.945 1192.28 678.546 1189.2 679.224 C 1184.28 679.255 1183.87 681.082 1181.43 685.107 C 1170.69 695.201 1150.88 692.568 1152.46 679.233 C 1153.68 669.543 1156.34 661.112 1158.96 651.737 C 1145.91 655.012 1139.7 663.16 1129.54 672.314 C 1108.51 667.656 1043.43 621.646 1026.95 605.648 z"/><path transform="translate(0,0)" fill="rgb(249,169,110)" d="M 1178.11 681.593 C 1176.44 671.546 1171.35 657.096 1182.32 651.976 L 1183.58 652.749 L 1182.67 653.63 C 1181.31 654.927 1180.02 656.033 1178.6 657.256 C 1180.81 665.948 1193.52 670.079 1194.17 677.5 C 1191.49 678.945 1192.28 678.546 1189.2 679.224 C 1184.28 679.255 1183.87 681.082 1181.43 685.107 L 1179.07 676.793 L 1178.11 681.593 z"/><path transform="translate(0,0)" fill="rgb(2,6,25)" d="M 1179.07 676.793 C 1178.45 671.209 1177.72 665.639 1176.88 660.085 C 1179.48 664.812 1185.28 676.285 1189.2 679.224 C 1184.28 679.255 1183.87 681.082 1181.43 685.107 L 1179.07 676.793 z"/><path transform="translate(0,0)" fill="rgb(241,143,82)" d="M 1181.43 685.107 C 1170.69 695.201 1150.88 692.568 1152.46 679.233 L 1153.75 681.404 L 1155.19 681.686 C 1167.31 684.145 1162.62 686.426 1178.11 681.593 L 1179.07 676.793 L 1181.43 685.107 z"/><path transform="translate(0,0)" fill="rgb(31,68,119)" d="M 1438.57 447.199 C 1459.01 469.011 1478.31 490.552 1503.94 506.297 C 1490.9 519.749 1478.03 534.294 1461.71 543.876 C 1417.08 570.076 1309.06 575.227 1254.26 584.804 C 1303.85 555.632 1372.06 573.602 1411.82 541.596 C 1413.41 538.075 1416.52 532.567 1414.54 529.107 C 1407.53 516.849 1381.89 518.985 1370.9 514.253 C 1362.38 514.023 1353.85 513.835 1345.32 513.69 C 1351.27 512.472 1355.1 511.834 1361.15 511.188 C 1379.95 506.625 1399.3 506.529 1417.57 503.704 C 1433.51 489.248 1435.19 467.806 1438.57 447.199 z"/><path transform="translate(0,0)" fill="rgb(190,0,2)" d="M 1470.1 1107.33 L 1473.51 1106.97 C 1476.45 1108.64 1480.59 1122.62 1482.3 1126.97 C 1486.13 1136.73 1490.65 1144.65 1495.92 1153.59 C 1482.42 1154.27 1463.56 1158.49 1449.87 1161.25 C 1420.57 1167.34 1391.33 1173.74 1362.17 1180.45 C 1341.18 1185.32 1322.73 1190.67 1301.2 1193.11 C 1319.18 1184.14 1347.55 1175.4 1366.47 1169.38 C 1389.98 1161.89 1415.6 1153.72 1439.52 1147.83 L 1439.41 1146.49 C 1433.84 1146.03 1408.27 1149.8 1400.11 1150.53 C 1365.55 1153.63 1330.73 1157.13 1296.21 1160.74 C 1281.52 1162.28 1266.93 1165.19 1252.21 1167.01 C 1261.13 1162.53 1290.41 1152.77 1300.58 1149.18 C 1357.94 1128.91 1410.16 1117.05 1470.1 1107.33 z"/><path transform="translate(0,0)" fill="rgb(237,0,5)" d="M 789.487 958.64 C 805.128 967.971 808.915 1002.19 812.509 1018.47 C 814.859 1029.12 817.454 1040.31 819.635 1050.99 C 816.425 1054.79 810.633 1060 806.849 1063.61 C 793.751 1038.02 787.959 1018.53 762.75 1000.24 C 747.015 1030.59 742.382 1045.25 745.32 1080.24 C 746.733 1094.82 748.019 1112.35 750.509 1126.54 C 737.855 1119.31 734.768 1116.07 720.714 1111.99 C 716.65 1096.62 713.143 1082.1 706.264 1067.72 C 703.569 1062.08 701.209 1055.62 699.254 1049.71 C 707.144 1028.17 734.349 1007.53 751.198 992.102 C 763.191 981.122 776.812 968.698 789.487 958.64 z"/><path transform="translate(0,0)" fill="rgb(203,204,206)" d="M 1243.91 1107.27 C 1287.06 1103.58 1330.86 1091.7 1372.84 1081.71 C 1409.63 1072.96 1446.59 1066.34 1483.36 1058 C 1482.76 1062.12 1482.19 1066.25 1481.66 1070.38 C 1481.05 1077.37 1480.91 1081.54 1481.05 1088.56 C 1415.3 1094.99 1350.34 1107.79 1287.06 1126.76 C 1271.12 1131.46 1249.51 1137.66 1234.34 1144.04 C 1221.95 1133 1206.06 1118.9 1198.33 1104.43 C 1215.68 1108.51 1225.88 1108.43 1243.91 1107.27 z"/><path transform="translate(0,0)" fill="rgb(246,246,246)" d="M 1243.91 1107.27 C 1287.06 1103.58 1330.86 1091.7 1372.84 1081.71 C 1409.63 1072.96 1446.59 1066.34 1483.36 1058 C 1482.76 1062.12 1482.19 1066.25 1481.66 1070.38 C 1474.81 1071.9 1467.82 1074.72 1460.97 1075.5 C 1445.23 1077.3 1429.97 1078.97 1414.21 1081.2 C 1362.12 1088.56 1312.99 1112.98 1259.67 1112.97 C 1255.27 1112.96 1244.14 1113.96 1242.97 1108.86 L 1243.91 1107.27 z"/><path transform="translate(0,0)" fill="rgb(237,0,5)" d="M 802.801 736.23 L 803.731 736.916 L 803.418 738.432 C 781.128 764.571 743.098 808.122 715.57 826.003 C 725.092 809.224 741.513 786.642 752.67 769.774 C 736.301 783.54 717.694 803.842 700.402 815.477 C 692.915 820.514 669.981 826.829 660.782 829.788 C 635.608 838.236 624.423 847.638 603.518 863.103 C 611.777 829.828 627.955 796.87 662.072 784.796 C 674.292 780.471 686.345 776.499 698.715 772.605 C 713.181 768.073 727.559 763.262 741.841 758.175 C 758.364 752.351 787.798 739.927 802.801 736.23 z"/><path transform="translate(0,0)" fill="rgb(67,102,160)" d="M 373.813 1097.86 C 257.436 1090.91 161.254 1161.88 131.023 1273.83 C 126.9 1289.09 128.506 1303.96 125.54 1316.76 L 124.682 1317.15 C 118.917 1303.84 120.891 1259.42 123.096 1245.09 C 130.902 1197.26 157.092 1154.37 196.078 1125.57 C 244.823 1089.98 319.789 1086.21 377.802 1095.34 C 384.595 1096.2 391.376 1097.15 398.142 1098.19 C 389.917 1099.39 382.08 1098.47 373.813 1097.86 z"/><path transform="translate(0,0)" fill="rgb(31,68,119)" d="M 1410.87 937.451 C 1414.95 939.499 1429.63 954.922 1434.61 958.632 C 1460.79 978.112 1484.76 995.722 1509.06 1017.5 C 1504.54 1022.36 1498.21 1027.6 1493.11 1032.06 C 1479.14 1039.5 1433.8 1043.64 1414.84 1047.33 C 1415.36 1019.49 1415.55 965.083 1410.87 937.451 z"/><path transform="translate(0,0)" fill="rgb(241,143,82)" d="M 444.879 1342.11 C 461.115 1340.85 460.464 1333.64 472.216 1327.04 L 472.569 1328.22 L 469.285 1331.53 C 478.552 1331.84 481.62 1324.32 487.594 1319.13 C 487.773 1325.45 483.248 1326.1 484.949 1329.14 C 491.003 1339.96 497.775 1348.73 504.814 1359.32 C 520.39 1382.76 526.023 1413.51 545.361 1433.81 C 549.913 1438.59 555.768 1441.03 559.321 1446.55 L 558.557 1447.75 C 551.82 1448.37 495.488 1428.3 491.077 1424.17 C 470.984 1405.35 459.795 1367.2 444.879 1342.11 z"/><path transform="translate(0,0)" fill="rgb(237,0,5)" d="M 1409.45 771.375 C 1432.55 777.658 1478.46 798.324 1499.51 809.99 C 1477.92 822.857 1470.08 829.025 1453.98 847.634 C 1440.55 864.449 1431.29 877.408 1420.42 895.759 C 1418.31 848.378 1418.26 819.065 1409.45 771.375 z"/><path transform="translate(0,0)" fill="rgb(31,68,119)" d="M 707.576 1276.38 C 713.798 1275.8 715.756 1274.76 722.664 1275.01 C 724.41 1277.27 726.048 1279.62 728.066 1281.6 L 729.909 1282.02 L 730.168 1282.97 C 731.43 1287.43 731.761 1288.29 735.051 1291.76 C 738.312 1294.83 739.366 1297.81 741.345 1301.84 C 754.034 1297.41 778.151 1293.69 795.62 1288.07 L 798.658 1293 L 793.777 1296.64 C 794.302 1299.09 794.31 1298.95 795.223 1301.28 C 794.525 1307.08 790.723 1310.85 786.803 1315.35 C 779.518 1316.75 770.983 1318.4 763.62 1319.04 C 740.752 1321.03 719.262 1327.6 696.935 1332.39 C 682.476 1335.5 667.946 1336.31 653.351 1337.99 C 650.866 1336.12 650.49 1336.31 649.176 1333.71 L 651.334 1330.8 L 656.713 1322.38 C 658.009 1325.6 659.674 1330.36 661.966 1332.9 C 668.775 1331.11 670.259 1331.08 673.477 1324.63 C 672.871 1319.37 673.964 1317.86 676.158 1313.16 C 678.912 1303.68 682.012 1293.34 680.61 1283.71 C 684.294 1282.7 686.34 1281.29 688.809 1282.62 L 689.518 1283.37 C 691.309 1280.44 702.244 1278.18 707.108 1276.53 L 707.576 1276.38 z"/><path transform="translate(0,0)" fill="rgb(0,12,45)" d="M 707.576 1276.38 C 713.798 1275.8 715.756 1274.76 722.664 1275.01 C 724.41 1277.27 726.048 1279.62 728.066 1281.6 L 729.909 1282.02 L 730.168 1282.97 C 731.43 1287.43 731.761 1288.29 735.051 1291.76 C 738.312 1294.83 739.366 1297.81 741.345 1301.84 C 739.101 1313.59 726.083 1319.19 716.142 1314.74 C 706.467 1316.14 702.346 1323.31 690.25 1323.16 C 687.139 1321.16 687.059 1321.35 685.428 1317.85 C 684.914 1314.24 685.596 1315.34 683.606 1312.78 C 681.121 1312.86 678.638 1312.99 676.158 1313.16 C 678.912 1303.68 682.012 1293.34 680.61 1283.71 C 684.294 1282.7 686.34 1281.29 688.809 1282.62 L 689.518 1283.37 C 691.309 1280.44 702.244 1278.18 707.108 1276.53 L 707.576 1276.38 z"/><path transform="translate(0,0)" fill="rgb(121,135,158)" d="M 707.576 1276.38 C 713.798 1275.8 715.756 1274.76 722.664 1275.01 C 724.41 1277.27 726.048 1279.62 728.066 1281.6 L 729.909 1282.02 L 730.168 1282.97 C 731.43 1287.43 731.761 1288.29 735.051 1291.76 C 738.312 1294.83 739.366 1297.81 741.345 1301.84 C 739.101 1313.59 726.083 1319.19 716.142 1314.74 C 718.781 1311.62 723.588 1306.97 724.763 1303.46 L 723.404 1301.46 C 719.022 1299.56 718.002 1298.9 714.108 1296.05 L 713.102 1295.3 C 712.154 1293.05 712.068 1291.55 711.636 1289.14 C 710.82 1284.79 710.236 1279.39 707.108 1276.53 L 707.576 1276.38 z"/><path transform="translate(0,0)" fill="rgb(51,86,132)" d="M 707.576 1276.38 C 713.798 1275.8 715.756 1274.76 722.664 1275.01 C 724.41 1277.27 726.048 1279.62 728.066 1281.6 C 723.584 1281.55 720.366 1281.04 716.435 1283.04 L 711.636 1289.14 C 710.82 1284.79 710.236 1279.39 707.108 1276.53 L 707.576 1276.38 z"/><path transform="translate(0,0)" fill="rgb(203,204,206)" d="M 728.066 1281.6 L 729.909 1282.02 L 730.168 1282.97 C 731.43 1287.43 731.761 1288.29 735.051 1291.76 L 732.379 1291.84 C 724.195 1290.04 721.272 1289.86 716.435 1283.04 C 720.366 1281.04 723.584 1281.55 728.066 1281.6 z"/><path transform="translate(0,0)" fill="rgb(148,161,179)" d="M 711.636 1289.14 L 716.435 1283.04 C 721.272 1289.86 724.195 1290.04 732.379 1291.84 C 725.677 1292.44 718.761 1292.24 713.102 1295.3 C 712.154 1293.05 712.068 1291.55 711.636 1289.14 z"/><path transform="translate(0,0)" fill="rgb(203,204,206)" d="M 680.61 1283.71 C 684.294 1282.7 686.34 1281.29 688.809 1282.62 L 689.518 1283.37 C 690.921 1288.29 692.486 1293.16 694.213 1297.98 C 692.233 1307.58 691.482 1309.6 685.428 1317.85 C 684.914 1314.24 685.596 1315.34 683.606 1312.78 C 681.121 1312.86 678.638 1312.99 676.158 1313.16 C 678.912 1303.68 682.012 1293.34 680.61 1283.71 z"/><path transform="translate(0,0)" fill="rgb(10,37,83)" d="M 673.477 1324.63 C 672.871 1319.37 673.964 1317.86 676.158 1313.16 C 678.638 1312.99 681.121 1312.86 683.606 1312.78 C 685.596 1315.34 684.914 1314.24 685.428 1317.85 C 687.059 1321.35 687.139 1321.16 690.25 1323.16 C 684.078 1323.12 679.219 1322.53 673.477 1324.63 z"/><path transform="translate(0,0)" fill="rgb(10,37,83)" d="M 651.334 1330.8 L 656.713 1322.38 C 658.009 1325.6 659.674 1330.36 661.966 1332.9 C 657.86 1332.99 652.902 1333.81 649.176 1333.71 L 651.334 1330.8 z"/><path transform="translate(0,0)" fill="rgb(237,0,5)" d="M 513.554 598.243 C 552.147 593.438 598.437 617.032 632.889 631.398 C 646.328 637.002 667.83 642.321 682.329 644.928 C 705.275 649.053 730.481 646.911 753.615 645.036 C 763.915 644.201 779.139 641.442 788.97 642.603 L 788.762 643.632 C 783.376 646.606 776.755 648.019 770.757 649.64 C 731.283 662.317 677.443 675.737 638.788 656.967 C 625.359 650.446 611.3 640.312 597.274 633.656 C 563.901 617.821 535.387 609.804 500.09 600.904 L 513.554 598.243 z"/><path transform="translate(0,0)" fill="rgb(249,169,110)" d="M 881.864 731.801 C 888.746 740.894 903.277 740.62 912.59 753.21 C 919.064 761.963 925.766 781.329 915.486 789.132 C 909.728 789.259 892.456 773.052 887.771 768.592 C 863.966 745.935 850.791 713.971 850.714 681.174 C 850.682 668.237 852.583 646.549 862.935 637.463 C 887.2 616.167 913.852 663.844 912.275 683.562 L 911.016 684.103 C 899.497 678.678 889.844 651.474 875.221 650.844 C 871.642 652.507 871.417 651.941 869.427 654.696 C 871.06 658.431 877.991 661.197 877.5 662.908 C 873.068 678.351 870.158 691.944 874.226 707.243 C 874.121 715.455 875.702 725.769 881.864 731.801 z"/><path transform="translate(0,0)" fill="rgb(237,0,5)" d="M 833.589 1244.61 C 855.281 1239.61 877.595 1236.16 899.428 1231.72 C 904.891 1230.61 910.234 1229.83 915.802 1229.53 C 916.223 1242.88 917.677 1252.06 920.454 1265.16 C 895.721 1272.17 870.17 1276.17 845.097 1281.84 C 829.686 1285.33 813.596 1287.83 798.658 1293 L 795.62 1288.07 C 809.415 1279.33 818.017 1259.04 833.589 1244.61 z"/><path transform="translate(0,0)" fill="rgb(190,0,2)" d="M 1454.25 890.44 C 1464.46 890.657 1467.65 888.714 1472.69 898.378 C 1476.54 899.743 1489.09 903.375 1491.32 905.478 C 1499.61 917.083 1537.71 942.154 1549.93 953.122 C 1559.62 961.815 1568.27 970.76 1577.46 980.03 C 1569.56 981.915 1554.93 983.981 1547.63 980.321 C 1521.34 967.151 1498.27 946.809 1473.09 931.402 C 1464.09 925.892 1453.73 918.99 1445.56 912.571 C 1448.05 904.89 1450.46 897.582 1454.25 890.44 z"/><path transform="translate(0,0)" fill="url(#Gradient5)" d="M 911.692 1188.17 C 913.581 1188.04 913.164 1188.14 915.089 1188.62 C 916.859 1193.09 916.351 1204.74 916.364 1210.12 C 871.151 1216.84 830.037 1230.16 786.197 1238.16 L 783.767 1237.77 C 781.956 1233.88 781.473 1221.89 781.115 1216.99 C 822.913 1206.49 869.283 1197.69 911.692 1188.17 z"/><path transform="translate(0,0)" fill="url(#Gradient4)" d="M 1546.75 1079.2 L 1547.12 1090.82 C 1547.5 1091.6 1549.76 1101.89 1550.18 1103.46 C 1553.79 1117 1556.32 1122.87 1563.73 1134.32 C 1514.87 1174.31 1499.73 1118.24 1505.46 1079.52 L 1506.3 1083.38 C 1512.1 1086.34 1535.2 1081.42 1542.33 1079.49 C 1544.55 1078.8 1544.26 1079.08 1546.75 1079.2 z"/><path transform="translate(0,0)" fill="rgb(148,161,179)" d="M 1546.75 1079.2 L 1547.12 1090.82 C 1542.14 1086.81 1545.85 1083.83 1542.33 1079.49 C 1544.55 1078.8 1544.26 1079.08 1546.75 1079.2 z"/><path transform="translate(0,0)" fill="rgb(203,204,206)" d="M 737.359 1354.79 L 739.449 1355.53 C 749.641 1371.02 746.122 1395.26 737.368 1410.69 C 708.61 1461.38 654.15 1493.01 598.81 1462.92 L 588.59 1456.01 C 616.172 1467.38 640.849 1470.64 668.956 1459.17 C 708.733 1442.94 732.722 1409.84 715.45 1367.49 C 722.552 1361.81 729.312 1358.81 737.359 1354.79 z"/><path transform="translate(0,0)" fill="rgb(67,102,160)" d="M 1805.35 1109.24 C 1808.18 1109.1 1807.16 1108.87 1809.71 1109.87 C 1812.54 1116.7 1814.15 1138.08 1815.43 1146.56 C 1820.04 1177.29 1830.93 1202.96 1844.12 1230.77 C 1845.99 1234.7 1851.07 1251.55 1849.43 1255.31 L 1846.71 1253.36 C 1833.44 1240.56 1812.59 1214.11 1804.98 1197.56 C 1796.28 1178.62 1795.75 1151.8 1796.76 1131.43 C 1797.12 1124.3 1795.3 1118.59 1797.81 1112.02 C 1800.91 1109.25 1800.49 1110.09 1805.35 1109.24 z"/><path transform="translate(0,0)" fill="rgb(67,102,160)" d="M 1358.57 806.287 C 1360.96 816.725 1363.1 824.572 1366.72 834.582 C 1374.08 827.516 1381.23 820.244 1388.17 812.774 C 1387.47 834.018 1382.2 858.421 1381.95 878.968 C 1374.9 885.077 1340.97 876.311 1330.24 881.607 C 1340.08 858.031 1349.03 830.715 1358.57 806.287 z"/><path transform="translate(0,0)" fill="rgb(31,68,119)" d="M 1628.21 1065.37 C 1630.68 1064.96 1636.45 1064.93 1639.2 1064.84 C 1642.08 1074.86 1644.77 1084.93 1647.27 1095.06 C 1626.75 1099.75 1607.92 1103.85 1587.2 1107.52 L 1573.51 1109.65 C 1572.57 1099.61 1570.26 1086.7 1568.71 1076.5 C 1586.86 1070.23 1608.93 1068.07 1628.21 1065.37 z"/><path transform="translate(0,0)" fill="rgb(31,68,119)" d="M 1330.24 881.607 C 1340.97 876.311 1374.9 885.077 1381.95 878.968 C 1381.56 886.008 1381.09 892.97 1381.07 900.023 C 1374.79 907.27 1368.74 912.84 1361.79 919.389 L 1357.39 919.88 C 1345.42 929.388 1321.59 935.394 1306.82 938.33 C 1308.42 936.579 1311.63 932.748 1313.41 931.671 C 1322.98 915.258 1333.89 905.096 1342.81 887.448 C 1335.11 891.808 1324.86 898.926 1317.21 903.867 C 1321.29 896.52 1325.96 888.891 1330.24 881.607 z"/><path transform="translate(0,0)" fill="rgb(10,37,83)" d="M 1313.41 931.671 C 1325.99 930.84 1339.35 915.807 1357.39 919.88 C 1345.42 929.388 1321.59 935.394 1306.82 938.33 C 1308.42 936.579 1311.63 932.748 1313.41 931.671 z"/><path transform="translate(0,0)" fill="rgb(67,102,160)" d="M 1336.98 1225.47 C 1386.04 1209.56 1437.78 1192.08 1489.98 1189.54 C 1501.07 1189 1508.46 1190.63 1518.41 1195.73 C 1521.52 1197.33 1524.62 1198.98 1527.7 1200.66 C 1500.31 1201.9 1458.48 1209.26 1430.18 1213.76 C 1401.81 1218.27 1364.2 1222.75 1337.03 1228.82 L 1336.98 1225.47 z"/><path transform="translate(0,0)" fill="rgb(246,246,246)" d="M 1505.46 1079.52 C 1508.96 1054.7 1517.02 1031.63 1546.09 1026.04 C 1550.47 1025.19 1559.87 1024.01 1563.43 1026.56 C 1563.41 1029.52 1557.43 1037.75 1555.42 1042.94 C 1549.95 1057.1 1548.49 1064.29 1546.75 1079.2 C 1544.26 1079.08 1544.55 1078.8 1542.33 1079.49 C 1535.2 1081.42 1512.1 1086.34 1506.3 1083.38 L 1505.46 1079.52 z"/><path transform="translate(0,0)" fill="rgb(31,68,119)" d="M 688.227 1153.39 C 687.27 1142.66 690.046 1141.18 700.808 1139.97 C 706.887 1139.29 711.563 1138.6 717.55 1137.3 C 717.34 1141.33 717.756 1144.17 718.177 1148.2 C 718.301 1154.53 718.274 1159.3 717.915 1165.64 C 699.756 1169.94 681.774 1174.13 663.482 1177.86 C 652.945 1180.01 643.405 1183.34 632.581 1184.07 C 642.868 1179.55 658.166 1175.47 666.048 1171.49 C 653.488 1172.5 647.632 1173.02 635.968 1177.4 C 636.23 1173.52 637.208 1156.87 638.491 1154.19 C 642.47 1155.88 649.739 1152.07 656.761 1152.13 C 661.85 1156.53 669.335 1150.54 672.109 1151.85 C 675.484 1153.45 684.562 1159.32 688.227 1153.39 z"/><path transform="translate(0,0)" fill="rgb(246,246,246)" d="M 688.227 1153.39 C 687.27 1142.66 690.046 1141.18 700.808 1139.97 C 706.887 1139.29 711.563 1138.6 717.55 1137.3 C 717.34 1141.33 717.756 1144.17 718.177 1148.2 C 709.688 1149.74 692.922 1155.94 688.227 1153.39 z"/><path transform="translate(0,0)" fill="rgb(253,194,143)" d="M 1361.2 640.467 C 1366.74 644.975 1368.1 654.779 1370.31 661.304 C 1381.58 694.463 1374.41 740.582 1347.91 764.793 C 1345.65 766.854 1343.06 768.231 1339.95 767.916 C 1338.55 765.769 1339.02 762.181 1338.96 759.173 C 1340.04 750.134 1341.68 724.612 1347 717.923 L 1348.51 718.374 C 1350.61 723.274 1350.18 728.459 1350.28 733.912 C 1351.13 732.892 1351.96 731.847 1352.75 730.779 C 1363.96 715.523 1365.06 694.332 1362.57 676.256 C 1360.6 673.974 1357.73 671.138 1355.6 668.889 C 1355.93 656.634 1357.22 652.153 1361.2 640.467 z"/><path transform="translate(0,0)" fill="url(#Gradient3)" d="M 755.699 1221.56 C 758.474 1221.6 761.25 1221.59 764.024 1221.51 C 765.043 1230.88 766.199 1236.23 770.323 1244.93 C 777.726 1260.54 788.564 1242.38 798.25 1246.41 C 800.182 1249.73 799.313 1252.25 798.382 1255.88 C 791.999 1280.75 765.067 1282.3 751.073 1262.78 C 743.952 1253.28 738.978 1235.98 737.06 1224.41 C 743.265 1223.41 749.479 1222.46 755.699 1221.56 z"/><path transform="translate(0,0)" fill="rgb(121,135,158)" d="M 737.06 1224.41 C 743.265 1223.41 749.479 1222.46 755.699 1221.56 C 756.68 1236.85 758.194 1248.09 763.386 1262.52 C 759.943 1262.47 754.264 1262.18 751.073 1262.78 C 743.952 1253.28 738.978 1235.98 737.06 1224.41 z"/><path transform="translate(0,0)" fill="rgb(203,204,206)" d="M 710.525 1183.25 L 712.414 1183.28 L 713.387 1184.95 C 713.284 1190.68 712.756 1194.07 711.371 1199.69 C 710.688 1205.74 705.767 1204.24 700.998 1206.58 C 684.548 1214.67 658.548 1212.11 643.27 1219.74 C 641.409 1222.47 640.37 1222.93 637.668 1224.75 L 636.724 1225.38 C 632.319 1218.05 631.297 1209.41 629.955 1201.04 C 648.235 1194.61 690.004 1187.5 710.525 1183.25 z"/><path transform="translate(0,0)" fill="url(#Gradient2)" d="M 1558.79 1169.78 C 1572.3 1166.08 1584.34 1160.48 1597.43 1155.78 C 1596.97 1164.15 1596.69 1168.68 1593.72 1176.75 C 1586.55 1196.29 1566.16 1205.6 1548.19 1192.51 C 1538.75 1188.57 1528.83 1174.4 1523.7 1165.89 C 1537.03 1169.51 1545.21 1170.52 1558.79 1169.78 z"/><path transform="translate(0,0)" fill="rgb(121,135,158)" d="M 1523.7 1165.89 C 1537.03 1169.51 1545.21 1170.52 1558.79 1169.78 C 1564.78 1180.08 1562.84 1192.57 1548.19 1192.51 C 1538.75 1188.57 1528.83 1174.4 1523.7 1165.89 z"/><path transform="translate(0,0)" fill="rgb(203,204,206)" d="M 674.165 1264.61 C 675.138 1271.55 677.88 1270.56 677.362 1281.26 L 680.61 1283.71 C 673.793 1284.44 663.611 1287.76 657.207 1290.4 C 647.415 1293.73 637.157 1295.92 627.105 1298.48 C 618.122 1300.77 607.886 1304.47 598.892 1305.88 C 597.842 1303.63 598.174 1304.85 598.848 1301.84 C 599.216 1295.7 600.454 1290.28 601.63 1284.25 C 615.587 1278.39 636.325 1275.96 651.242 1271.87 C 660.031 1269.46 666.64 1270.91 674.165 1264.61 z"/><path transform="translate(0,0)" fill="rgb(148,161,179)" d="M 656.199 1284.27 L 657.207 1290.4 C 647.415 1293.73 637.157 1295.92 627.105 1298.48 C 618.122 1300.77 607.886 1304.47 598.892 1305.88 C 597.842 1303.63 598.174 1304.85 598.848 1301.84 C 601.936 1301.24 615.04 1292.17 621.937 1290.92 C 633.482 1288.82 645.214 1288.04 656.199 1284.27 z"/><path transform="translate(0,0)" fill="rgb(67,102,160)" d="M 656.199 1284.27 C 659.969 1281.42 672.718 1278.91 677.362 1281.26 L 680.61 1283.71 C 673.793 1284.44 663.611 1287.76 657.207 1290.4 L 656.199 1284.27 z"/><path transform="translate(0,0)" fill="url(#Gradient1)" d="M 780.844 1342.69 C 823.718 1332.02 867.44 1325.1 911.515 1322.02 C 921.508 1321.33 933.04 1320.18 942.939 1320.71 C 910.63 1328.15 877.17 1330.97 845.242 1341.36 C 842.207 1342.34 835.197 1344.29 832.106 1344.78 C 815.997 1351.84 787.85 1359.82 768.276 1367.55 C 782.061 1352.36 786.795 1355.14 794.601 1347.94 C 796.016 1346.36 799.202 1344.66 801.159 1343.45 C 796.13 1344.24 787.454 1345.05 782.375 1344.89 L 780.844 1342.69 z"/><path transform="translate(0,0)" fill="rgb(31,68,119)" d="M 801.159 1343.45 C 808.866 1340.47 824.206 1340.05 831.462 1343.77 L 829.877 1343.99 L 832.106 1344.78 C 815.997 1351.84 787.85 1359.82 768.276 1367.55 C 782.061 1352.36 786.795 1355.14 794.601 1347.94 C 796.016 1346.36 799.202 1344.66 801.159 1343.45 z"/><path transform="translate(0,0)" fill="rgb(203,204,206)" d="M 1652.46 1026.13 L 1653.55 1026.64 C 1653.74 1030.15 1649.02 1043.12 1647.64 1047.31 C 1624.9 1053.18 1595.03 1061.62 1572.24 1064.63 L 1571.26 1064.5 L 1570.51 1063.14 C 1572.22 1056.01 1573.64 1052.3 1576.31 1045.42 C 1585.75 1041.73 1597.29 1039.69 1607.33 1037.37 C 1622.46 1034 1637.51 1030.25 1652.46 1026.13 z"/><path transform="translate(0,0)" fill="rgb(31,68,119)" d="M 1176.74 332.271 C 1193.85 331.081 1233.3 337.761 1238.88 356.78 C 1237.36 362.819 1230.32 362.934 1224.77 362.74 C 1214.39 361.129 1158.51 351.21 1161.2 339.515 C 1165.07 335.345 1171.34 333.53 1176.74 332.271 z"/><path transform="translate(0,0)" fill="rgb(203,204,206)" d="M 738.553 1195.28 C 741.54 1179.43 746.729 1172.19 762.546 1167.85 L 772.868 1177.92 C 771.007 1184.24 768.992 1191.85 766.415 1197.79 C 764.715 1206.81 763.836 1212.22 764.024 1221.51 C 761.25 1221.59 758.474 1221.6 755.699 1221.56 C 749.479 1222.46 743.265 1223.41 737.06 1224.41 C 736.943 1214.7 736.672 1204.84 738.553 1195.28 z"/><path transform="translate(0,0)" fill="rgb(246,246,246)" d="M 738.553 1195.28 C 741.54 1179.43 746.729 1172.19 762.546 1167.85 L 772.868 1177.92 C 771.007 1184.24 768.992 1191.85 766.415 1197.79 L 765.79 1197.24 C 765.28 1194.72 766.592 1192.93 767.706 1190.03 C 766.33 1187.63 765.813 1188.02 762.821 1186.53 C 758.261 1186.77 754.463 1190.36 749.875 1193.04 C 751.392 1191.44 751.452 1191.3 752.72 1189.52 C 746.875 1186.74 741.631 1190.26 738.553 1195.28 z"/><path transform="translate(0,0)" fill="rgb(237,0,5)" d="M 1686.56 953.864 L 1688.03 954.242 C 1691.09 957.256 1692.55 961.297 1694.42 965.271 C 1673.35 980.767 1631.01 998.565 1606.38 1008.64 C 1605.32 1009.48 1604.9 1009.42 1603.51 1009.87 L 1601.9 1008.56 C 1601.55 1007.2 1601.06 1005.75 1601.41 1004.34 C 1603.6 995.637 1674.43 961.118 1686.56 953.864 z"/><path transform="translate(0,0)" fill="rgb(31,68,119)" d="M 1303.14 436.582 C 1306.14 444.687 1303.21 471.862 1303.53 482.362 C 1303.78 490.73 1304.28 498.658 1304.97 507.185 C 1293.34 509.441 1281.74 511.491 1270.32 514.665 L 1268.86 514.368 C 1270.84 509.849 1273.83 505.182 1276.07 500.616 C 1286.31 479.761 1294.61 458.191 1303.14 436.582 z"/><path transform="translate(0,0)" fill="rgb(203,204,206)" d="M 661.432 1232.63 C 667.352 1237.14 676.763 1243.85 681.655 1249.07 C 684.746 1255.36 685.495 1258.59 687.361 1265.35 C 688.281 1269.47 689.125 1278.44 688.809 1282.62 C 686.34 1281.29 684.294 1282.7 680.61 1283.71 L 677.362 1281.26 C 677.88 1270.56 675.138 1271.55 674.165 1264.61 C 669.556 1259.95 659.688 1250.46 654.09 1247.97 C 649.551 1248.06 642.4 1250.93 639.866 1249.37 L 641.293 1244.79 C 645.336 1240.43 655.581 1234.39 661.432 1232.63 z"/><path transform="translate(0,0)" fill="rgb(121,135,158)" d="M 639.908 1332.94 C 634.838 1328.14 633.605 1327.83 626.905 1326.08 C 622.643 1324.97 606.344 1321.81 605.159 1317.44 C 608.603 1311.99 620.002 1312.3 626.143 1309.82 C 631.506 1307.66 637.648 1305.02 643.326 1306.4 C 646.208 1309.42 645.356 1309.14 646.332 1314.03 C 650.416 1317.01 652.981 1318.98 656.713 1322.38 L 651.334 1330.8 L 649.176 1333.71 C 650.49 1336.31 650.866 1336.12 653.351 1337.99 C 644.178 1339.05 630.667 1340.3 621.686 1339.91 C 627.088 1338.1 635.22 1335.7 639.908 1332.94 z"/><path transform="translate(0,0)" fill="rgb(51,86,132)" d="M 639.908 1332.94 C 645.665 1332.61 638.9 1332.83 644.397 1328.16 C 647.835 1328.3 648.455 1328.99 651.334 1330.8 L 649.176 1333.71 C 650.49 1336.31 650.866 1336.12 653.351 1337.99 C 644.178 1339.05 630.667 1340.3 621.686 1339.91 C 627.088 1338.1 635.22 1335.7 639.908 1332.94 z"/><path transform="translate(0,0)" fill="rgb(241,143,82)" d="M 874.226 707.243 L 875.626 707.361 C 880.206 698.487 881.401 683.335 890.472 679.713 C 897.13 679.987 900.238 686.237 902.766 691.631 C 898.281 703.105 891.484 725.948 881.864 731.801 C 875.702 725.769 874.121 715.455 874.226 707.243 z"/><path transform="translate(0,0)" fill="rgb(31,68,119)" d="M 661.432 1232.63 C 683.112 1225.14 695.949 1227.21 712.797 1222.43 C 713.732 1227.96 714.819 1235.68 716.072 1241 C 701.933 1241.95 694.411 1241.65 681.655 1249.07 C 676.763 1243.85 667.352 1237.14 661.432 1232.63 z"/><path transform="translate(0,0)" fill="rgb(31,68,119)" d="M 608.322 1249.62 C 615.377 1247.7 635.787 1239.25 640.087 1241.09 L 641.293 1244.79 L 639.866 1249.37 C 642.4 1250.93 649.551 1248.06 654.09 1247.97 L 653.448 1252.96 C 646.931 1261.18 613.401 1267.04 600.854 1270.42 C 602.816 1263.47 605.711 1256.4 608.322 1249.62 z"/><path transform="translate(0,0)" fill="rgb(246,246,246)" d="M 640.149 1120.53 C 647.777 1118.39 657.264 1116.46 665.102 1114.64 C 660.178 1129.3 658.936 1136.81 656.761 1152.13 C 649.739 1152.07 642.47 1155.88 638.491 1154.19 C 640.045 1142.84 640.035 1131.92 640.149 1120.53 z"/><path transform="translate(0,0)" fill="rgb(148,161,179)" d="M 710.661 1260.1 C 716.323 1256.43 725.004 1252.98 731.636 1252.01 L 733.614 1252.66 C 734.181 1256.95 734.133 1258.72 734.039 1263.09 C 734.316 1266.83 735.045 1269.38 733.005 1272.36 C 729.915 1274.35 726.355 1274.48 722.664 1275.01 C 715.756 1274.76 713.798 1275.8 707.576 1276.38 C 709.299 1270.56 707.444 1267.47 709.644 1259.85 L 710.661 1260.1 z"/><path transform="translate(0,0)" fill="rgb(203,204,206)" d="M 710.661 1260.1 C 716.323 1256.43 725.004 1252.98 731.636 1252.01 L 733.614 1252.66 C 734.181 1256.95 734.133 1258.72 734.039 1263.09 C 728.335 1262.39 715.249 1261.83 710.661 1260.1 z"/><path transform="translate(0,0)" fill="rgb(31,68,119)" d="M 701.225 1367.15 L 702.516 1367.49 C 701.354 1369.43 668.846 1393.52 664.824 1395.95 C 662.902 1391.93 659.656 1386.53 662.46 1382.32 C 668.998 1372.5 690.414 1369.78 701.225 1367.15 z"/><path transform="translate(0,0)" fill="rgb(246,246,246)" d="M 1289.24 663.703 C 1292.38 664.488 1295.16 666.817 1297.08 669.369 C 1298.36 678.127 1287.41 682.9 1280.6 686.533 C 1280.67 688.836 1280.93 687.751 1279.37 689.705 L 1275.76 689.805 C 1271.81 689.3 1267.96 689.213 1264.59 687.199 L 1264.59 685.77 C 1269.65 679.755 1282.75 668.337 1289.24 663.703 z"/><path transform="translate(0,0)" fill="rgb(246,246,246)" d="M 1033.51 663.03 C 1042.5 666.731 1057.97 678.057 1065.18 684.821 C 1060.19 685.059 1055.2 685.231 1050.21 685.338 C 1031.78 685.637 1032.4 678.496 1033.51 663.03 z"/><path transform="translate(0,0)" fill="rgb(51,86,132)" d="M 687.361 1265.35 C 694.769 1263.43 702.197 1261.6 709.644 1259.85 C 707.444 1267.47 709.299 1270.56 707.576 1276.38 L 707.108 1276.53 C 702.244 1278.18 691.309 1280.44 689.518 1283.37 L 688.809 1282.62 C 689.125 1278.44 688.281 1269.47 687.361 1265.35 z"/><path transform="translate(0,0)" fill="rgb(1,0,0)" d="M 545.631 835.792 C 546.411 842.451 545.797 842.268 551.778 846.1 C 550.063 846.836 543.602 849.774 542.211 850.176 C 533.619 854.697 526.023 858.591 517.146 862.643 C 524.279 854.571 530.054 847.6 538.827 841.304 C 539.206 840.843 544.816 836.441 545.631 835.792 z"/><path transform="translate(0,0)" fill="rgb(2,6,25)" d="M 545.631 835.792 C 546.411 842.451 545.797 842.268 551.778 846.1 C 550.063 846.836 543.602 849.774 542.211 850.176 C 540.325 846.909 539.855 846.472 540.245 842.65 L 538.827 841.304 C 539.206 840.843 544.816 836.441 545.631 835.792 z"/><path transform="translate(0,0)" fill="rgb(51,86,132)" d="M 780.844 1342.69 L 782.375 1344.89 C 787.454 1345.05 796.13 1344.24 801.159 1343.45 C 799.202 1344.66 796.016 1346.36 794.601 1347.94 C 790.193 1348.98 765.177 1349.18 756.862 1349.82 C 765.815 1346.41 771.425 1345 780.844 1342.69 z"/><path transform="translate(0,0)" fill="rgb(1,0,0)" d="M 975.371 1053.32 C 980.625 1044.11 983.871 1039.87 991.22 1032.06 C 989.488 1039.66 987.64 1047.23 985.677 1054.77 C 984.34 1052.03 985.28 1053.17 982.563 1051.41 C 979.159 1051.25 978.411 1051.88 975.371 1053.32 z"/><path transform="translate(0,0)" fill="rgb(74,121,182)" d="M 1314.9 1233.29 C 1320.46 1230.16 1330.55 1227.45 1336.98 1225.47 L 1337.03 1228.82 C 1330.37 1230.57 1321.81 1231.97 1314.9 1233.29 z"/><path transform="translate(0,0)" fill="rgb(10,37,83)" d="M 1157.35 606.043 C 1163.89 607.749 1166.64 608.697 1169.13 615.023 C 1163.77 612.637 1160.64 610.89 1157.35 606.043 z"/><path transform="translate(0,0)" fill="rgb(237,0,5)" d="M 508.628 698.211 C 517.05 697.833 523.861 697.915 532.31 698.155 C 529.198 698.677 525.096 698.964 522.782 700.804 C 518.065 700.328 513.287 699.186 508.628 698.211 z"/><path transform="translate(0,0)" fill="rgb(2,6,25)" d="M 1692.39 1699.2 C 1701.14 1694.38 1709.08 1686.74 1717.87 1683.52 C 1717.79 1689.12 1716.89 1689.9 1721.02 1694.22 L 1722.43 1695.67 C 1712.92 1697.32 1702.07 1698.2 1692.39 1699.2 z"/><path transform="translate(0,0)" fill="rgb(1,0,0)" d="M 841.634 1422.02 C 842.476 1424.52 842.381 1425.41 842.183 1428.05 C 844.139 1430.52 845.411 1430.42 847.165 1432.71 C 837.63 1435.49 828.158 1438.49 818.757 1441.7 C 826.482 1435.25 834.108 1428.69 841.634 1422.02 z"/><path transform="translate(0,0)" fill="rgb(1,0,0)" d="M 1464.52 723.899 C 1469.72 728.327 1475.11 732.807 1480.23 737.297 C 1473.45 735.575 1466.38 733.657 1459.56 732.298 C 1464.29 728.759 1463.6 728.925 1464.52 723.899 z"/></svg>