<svg version="1.1" xmlns="http://www.w3.org/2000/svg" style="display: block;" viewBox="0 0 2048 2048" width="1024" height="1024" preserveAspectRatio="none"><defs><linearGradient id="Gradient1" gradientUnits="userSpaceOnUse" x1="794.498" y1="822.455" x2="779.388" y2="846.501"><stop class="stop0" offset="0" stop-opacity="1" stop-color="rgb(4,32,59)"/><stop class="stop1" offset="1" stop-opacity="1" stop-color="rgb(17,66,110)"/></linearGradient><linearGradient id="Gradient2" gradientUnits="userSpaceOnUse" x1="343.908" y1="970.457" x2="351.37" y2="951.026"><stop class="stop0" offset="0" stop-opacity="1" stop-color="rgb(28,151,225)"/><stop class="stop1" offset="1" stop-opacity="1" stop-color="rgb(0,98,187)"/></linearGradient><linearGradient id="Gradient3" gradientUnits="userSpaceOnUse" x1="1356.74" y1="1179.57" x2="1397.44" y2="1132.35"><stop class="stop0" offset="0" stop-opacity="1" stop-color="rgb(0,61,145)"/><stop class="stop1" offset="1" stop-opacity="1" stop-color="rgb(4,102,189)"/></linearGradient><linearGradient id="Gradient4" gradientUnits="userSpaceOnUse" x1="690.372" y1="1178.64" x2="645.633" y2="1134.85"><stop class="stop0" offset="0" stop-opacity="1" stop-color="rgb(0,63,149)"/><stop class="stop1" offset="1" stop-opacity="1" stop-color="rgb(1,101,187)"/></linearGradient><linearGradient id="Gradient5" gradientUnits="userSpaceOnUse" x1="1491.03" y1="1254.21" x2="1562.01" y2="1198.48"><stop class="stop0" offset="0" stop-opacity="1" stop-color="rgb(0,110,197)"/><stop class="stop1" offset="1" stop-opacity="1" stop-color="rgb(47,173,241)"/></linearGradient><linearGradient id="Gradient6" gradientUnits="userSpaceOnUse" x1="669.071" y1="809.887" x2="730.935" y2="847.327"><stop class="stop0" offset="0" stop-opacity="1" stop-color="rgb(115,162,201)"/><stop class="stop1" offset="1" stop-opacity="1" stop-color="rgb(168,204,229)"/></linearGradient><linearGradient id="Gradient7" gradientUnits="userSpaceOnUse" x1="1708.52" y1="970.901" x2="1697.36" y2="945.82"><stop class="stop0" offset="0" stop-opacity="1" stop-color="rgb(18,134,214)"/><stop class="stop1" offset="1" stop-opacity="1" stop-color="rgb(0,99,188)"/></linearGradient><linearGradient id="Gradient8" gradientUnits="userSpaceOnUse" x1="1564.09" y1="1000.36" x2="1556.12" y2="924.826"><stop class="stop0" offset="0" stop-opacity="1" stop-color="rgb(0,75,165)"/><stop class="stop1" offset="1" stop-opacity="1" stop-color="rgb(23,142,218)"/></linearGradient><linearGradient id="Gradient9" gradientUnits="userSpaceOnUse" x1="476.482" y1="908.817" x2="494.069" y2="929.632"><stop class="stop0" offset="0" stop-opacity="1" stop-color="rgb(43,176,235)"/><stop class="stop1" offset="1" stop-opacity="1" stop-color="rgb(37,151,226)"/></linearGradient><linearGradient id="Gradient10" gradientUnits="userSpaceOnUse" x1="528.337" y1="958.734" x2="483.362" y2="925.7"><stop class="stop0" offset="0" stop-opacity="1" stop-color="rgb(0,85,175)"/><stop class="stop1" offset="1" stop-opacity="1" stop-color="rgb(35,156,229)"/></linearGradient><linearGradient id="Gradient11" gradientUnits="userSpaceOnUse" x1="1271.88" y1="811.505" x2="1246.39" y2="832.641"><stop class="stop0" offset="0" stop-opacity="1" stop-color="rgb(0,7,17)"/><stop class="stop1" offset="1" stop-opacity="1" stop-color="rgb(6,33,58)"/></linearGradient><linearGradient id="Gradient12" gradientUnits="userSpaceOnUse" x1="1192.93" y1="844.152" x2="1188.85" y2="898.71"><stop class="stop0" offset="0" stop-opacity="1" stop-color="rgb(53,123,181)"/><stop class="stop1" offset="1" stop-opacity="1" stop-color="rgb(91,162,214)"/></linearGradient><linearGradient id="Gradient13" gradientUnits="userSpaceOnUse" x1="597.458" y1="1086.02" x2="708.875" y2="1032.92"><stop class="stop0" offset="0" stop-opacity="1" stop-color="rgb(0,103,193)"/><stop class="stop1" offset="1" stop-opacity="1" stop-color="rgb(47,169,238)"/></linearGradient><linearGradient id="Gradient14" gradientUnits="userSpaceOnUse" x1="857.443" y1="856.424" x2="852.694" y2="894.464"><stop class="stop0" offset="0" stop-opacity="1" stop-color="rgb(64,134,191)"/><stop class="stop1" offset="1" stop-opacity="1" stop-color="rgb(86,158,212)"/></linearGradient><linearGradient id="Gradient15" gradientUnits="userSpaceOnUse" x1="1481.81" y1="1141.1" x2="1399.56" y2="956.706"><stop class="stop0" offset="0" stop-opacity="1" stop-color="rgb(1,109,198)"/><stop class="stop1" offset="1" stop-opacity="1" stop-color="rgb(51,183,247)"/></linearGradient><linearGradient id="Gradient16" gradientUnits="userSpaceOnUse" x1="599.504" y1="1078.45" x2="605.44" y2="970.035"><stop class="stop0" offset="0" stop-opacity="1" stop-color="rgb(6,114,197)"/><stop class="stop1" offset="1" stop-opacity="1" stop-color="rgb(50,179,250)"/></linearGradient><linearGradient id="Gradient17" gradientUnits="userSpaceOnUse" x1="670.718" y1="786.434" x2="745.773" y2="650.164"><stop class="stop0" offset="0" stop-opacity="1" stop-color="rgb(17,131,219)"/><stop class="stop1" offset="1" stop-opacity="1" stop-color="rgb(50,177,245)"/></linearGradient><linearGradient id="Gradient18" gradientUnits="userSpaceOnUse" x1="1367.27" y1="793.98" x2="1289.01" y2="657.009"><stop class="stop0" offset="0" stop-opacity="1" stop-color="rgb(11,126,214)"/><stop class="stop1" offset="1" stop-opacity="1" stop-color="rgb(51,179,249)"/></linearGradient><linearGradient id="Gradient19" gradientUnits="userSpaceOnUse" x1="1121.69" y1="526.103" x2="927.819" y2="361.274"><stop class="stop0" offset="0" stop-opacity="1" stop-color="rgb(5,115,203)"/><stop class="stop1" offset="1" stop-opacity="1" stop-color="rgb(48,175,243)"/></linearGradient><linearGradient id="Gradient20" gradientUnits="userSpaceOnUse" x1="664.216" y1="1225.67" x2="818.212" y2="1496.31"><stop class="stop0" offset="0" stop-opacity="1" stop-color="rgb(178,0,10)"/><stop class="stop1" offset="1" stop-opacity="1" stop-color="rgb(226,1,10)"/></linearGradient><linearGradient id="Gradient21" gradientUnits="userSpaceOnUse" x1="1063.54" y1="1499.7" x2="1022.24" y2="905.414"><stop class="stop0" offset="0" stop-opacity="1" stop-color="rgb(163,1,9)"/><stop class="stop1" offset="1" stop-opacity="1" stop-color="rgb(252,0,10)"/></linearGradient></defs><path transform="translate(0,0)" fill="rgb(148,188,217)" d="M 1154.55 268.436 C 1248.69 273.02 1309.8 451.285 1326.74 527.088 C 1329.22 538.22 1338.85 550.229 1342.86 564.196 C 1372.69 554.369 1410.7 531.721 1438.57 516.215 C 1481.1 492.563 1532.42 446.463 1582.73 449.691 C 1604.81 451.279 1625.32 461.673 1639.66 478.538 C 1667.09 510.187 1674.32 557.879 1671.3 598.62 C 1665.64 675.02 1630.43 742.092 1579.04 797.532 C 1565.51 812.122 1550.44 824.935 1535.34 837.841 C 1543.09 837.932 1552.17 838.925 1559.81 837.646 C 1580.52 834.181 1756.55 757.514 1770.05 746.952 C 1779.1 739.861 1781.42 725.782 1788.18 716.621 C 1801.76 698.236 1837.33 683.264 1859.24 680.241 C 1879.27 677.477 1891.68 685.502 1906.9 696.924 C 1921.94 698.775 1936.57 697.399 1951.21 704.755 C 1975.17 716.801 1989.75 745.367 1998.47 769.414 C 2006.92 792.703 2017.59 835.253 2006.97 858.357 C 1997.04 879.955 1947.39 897.375 1925.33 905.065 C 1919.95 959.813 1900.96 960.351 1854.8 980.436 C 1823.88 994.159 1792.85 1007.62 1761.71 1020.81 C 1745.31 1027.69 1717.37 1037.65 1702.93 1046.46 C 1700.41 1062.4 1695.07 1077.05 1692.44 1092.71 C 1691.66 1097.34 1693.69 1109.71 1694.71 1114.29 C 1704.41 1157.56 1668.26 1169.56 1636.17 1182.87 C 1634.52 1183.56 1627.75 1186.48 1627.13 1188.3 C 1622.82 1200.99 1624.86 1215.64 1621.23 1228.79 C 1609.4 1280.19 1571.92 1320.67 1525.23 1343.46 C 1510.02 1350.88 1493.9 1355.32 1478.36 1361.8 C 1489.54 1385.33 1503.64 1410.79 1509.56 1436.16 C 1515.98 1463.63 1482.33 1487.43 1462.82 1501.12 C 1398.7 1546.08 1323.37 1575.15 1246.02 1587.12 C 1225.8 1590.25 1190.3 1595.02 1172.37 1582.64 C 1162.32 1574.64 1161.26 1555.39 1159.62 1543.02 C 1147.74 1557.9 1137.02 1573.83 1125.48 1588.99 C 1105.57 1615.15 1084.27 1640.97 1062.07 1665.2 C 1054.13 1673.86 1036.29 1697.02 1023.93 1696.2 C 1009.34 1695.23 945.348 1617.32 933.754 1602.99 C 916.636 1582.21 903.029 1562.71 887.537 1540.7 C 886.054 1549.95 885.057 1560.06 881.822 1568.88 C 878.91 1576.82 874.276 1582.72 866.458 1586.2 C 831.299 1601.88 743.643 1575.75 708.2 1562.08 C 667.375 1546.33 558.967 1494.12 542.156 1453.8 C 531.829 1429.03 559.259 1383.63 569.106 1359.6 C 538.691 1353.77 504.224 1336.11 480.884 1315.96 C 452.752 1291.87 433.656 1258.92 426.739 1222.54 C 424.652 1211.29 424.035 1198.57 423.199 1187.03 C 415.826 1182.84 396.067 1175.52 389.401 1172.48 C 348.385 1153.8 353.237 1134.58 357.009 1095.68 C 357.633 1089.24 347.544 1056.68 344.218 1047.05 C 333.91 1040.71 298.861 1026.95 285.807 1021.5 C 253.829 1008.22 222.023 994.515 190.399 980.405 C 146.866 961.33 127.71 958.324 124.613 906.043 C 100.79 894.479 64.9528 885.631 46.9208 866.372 C 36.9637 855.737 36.2487 837.204 37.4377 822.853 C 40.4207 786.847 56.6788 736.424 84.951 712.113 C 101.486 697.896 123.261 695.958 143.933 698.091 C 161.93 682.368 178.897 674.453 202.852 682.41 C 224.061 689.319 249.89 698.182 262.099 718.402 C 266.656 725.948 270.073 735.547 274.529 743.585 L 275.132 744.654 C 282.754 749.595 303.541 759.045 312.864 763.534 C 371.03 791.538 430.808 815.994 490.776 839.718 C 499.383 837.574 503.984 836.741 512.808 835.682 C 459.847 793.224 421.661 745.341 395.727 680.395 C 368.446 612.078 358.6 485.445 442.848 451.972 C 502.806 428.151 576.583 490.908 624.863 520.33 C 651.833 536.766 675.448 549.411 704.795 563.137 C 709.51 551.623 717.219 538.533 721.042 527.514 C 727.283 509.522 731.071 487.661 737.192 469.728 C 756.433 413.358 782.43 355.299 822.635 310.928 C 879.227 244.103 926.195 272.322 991.805 304.705 C 1022.42 319.814 1029.32 316.973 1058.85 302.492 C 1088.73 287.839 1120.7 270.357 1154.55 268.436 z"/><path transform="translate(0,0)" fill="rgb(0,0,0)" d="M 1149.74 298.364 C 1186.67 295.042 1220.08 344.441 1236.88 372.005 C 1268.15 423.294 1286.24 482.478 1298.48 540.902 C 1299.46 545.576 1306.38 552.199 1308.73 556.564 C 1317.05 570.96 1320.53 587.574 1322.44 603.992 C 1363.53 590.553 1420.52 559.427 1457.99 537.195 C 1480.69 522.607 1503.25 508.523 1526.29 494.474 C 1564.75 471.011 1606.64 470.474 1628.84 515.132 C 1649.05 555.794 1644.39 616.073 1630.15 658.288 C 1601.42 743.435 1533.31 812.027 1456.2 855.632 C 1431.01 870.021 1406.5 879.467 1381.12 892.26 L 1397.45 903.79 C 1392.36 912.829 1385.1 921.884 1378.73 930.192 C 1428.85 914.886 1479.25 883.876 1529.71 868.493 C 1535.7 866.666 1550.74 868.846 1557.3 869.657 C 1579.96 858.416 1616.3 844.493 1640.65 834.396 C 1676.78 819.411 1712.56 803.58 1747.94 786.917 C 1756.61 782.89 1780.09 772.41 1787.36 767.148 C 1794.71 761.824 1797.39 738.586 1808.18 728.144 C 1821.43 715.326 1849.98 704.521 1867.71 702.831 C 1880.18 701.643 1891.69 714.289 1899.45 722.365 C 1934.33 720.132 1953.09 723.119 1970 757.207 C 1980.43 778.237 2001.68 841.458 1975.95 856.586 C 1954.17 869.387 1923.59 879.128 1899.99 890.127 C 1900.23 942.216 1887.93 938.581 1844.06 957.359 C 1798.8 976.727 1753.62 997.364 1707.82 1015.62 C 1698.61 1019.29 1686.87 1023.49 1678.61 1028.67 C 1676.28 1052.05 1670.5 1069.15 1664.73 1091.4 C 1662.92 1098.35 1673 1123.4 1668.85 1131.52 C 1657.88 1153.04 1619.93 1161.24 1599.19 1171.1 C 1599.39 1199.37 1599.33 1219.39 1587.12 1245.77 C 1558.51 1307.61 1501.56 1327.93 1439.88 1340.62 C 1452.38 1367.81 1476.05 1416.66 1482.95 1443.6 C 1464.57 1481.59 1368.39 1523.89 1328.36 1538.15 C 1291.92 1551.13 1251.08 1560.56 1212.41 1562.06 C 1207.88 1562.24 1198.61 1563 1194.84 1560.3 C 1184.27 1552.71 1183.33 1467.37 1183.23 1451.79 C 1157.6 1502.72 1067.47 1620.9 1025.12 1661.66 C 996.546 1635.78 965.6 1597.8 942.138 1567.32 C 920.854 1539.16 879.642 1478.73 863.968 1447.9 C 865.534 1474.99 861.862 1506.72 859.835 1534.08 C 859.374 1540.3 856.12 1557.37 850.379 1560.63 C 847.114 1562.48 836.551 1562.09 832.078 1561.96 C 787.109 1560.61 743.806 1547.2 701.555 1529.58 C 668.358 1515.74 585.112 1473.19 567.764 1441.4 C 562.712 1432.14 600.45 1355.85 607.773 1340.56 C 537.136 1329.19 473.353 1298.31 454.38 1223.53 C 449.647 1204.88 449.67 1190.52 449.932 1171.59 C 431.403 1161.05 396.4 1153.41 382.798 1136.42 C 375.852 1127.74 383.387 1101.04 385.604 1089.8 C 377.554 1072.07 371.515 1049.5 369.268 1030.03 C 354.282 1022.04 326.469 1011.31 309.809 1004.33 L 218.338 965.167 C 201.527 957.922 170.939 946.505 157.87 934.565 C 147.209 924.825 148.842 904.149 149.554 890.658 C 126.67 879.211 101.573 870.934 78.0327 859.578 C 51.9817 847.01 59.6987 815.677 65.5009 791.79 C 76.4155 746.856 100.888 711.095 152.813 723.981 C 162.309 713.378 175.888 698.837 191.918 703.84 C 203.862 707.568 219.979 711.838 230.347 718.645 C 234.829 721.537 238.705 725.274 241.759 729.647 C 248.504 739.277 250.95 752.471 256.613 760.464 C 263.103 769.626 289.718 780.418 300.824 785.73 C 341.939 805.585 383.629 824.228 425.839 841.636 C 447.026 850.546 473.516 859.939 493.405 869.784 C 500.69 868.517 520.678 866.413 527.185 868.67 C 576.933 885.923 625.213 912.062 674.847 929.777 C 667.364 921.738 662.606 914.246 658.621 904.099 C 661.955 900.285 666.854 896.428 670.785 893.086 C 651.827 882.023 621.755 870.495 599.993 858.305 C 522.696 815.01 461.141 758.979 425.444 676.312 C 405.777 631.018 395.718 562.278 416.173 515.838 C 448.589 442.24 526.413 487.643 571.741 519.302 C 589.057 531.396 610.639 544.633 628.102 554.636 C 660.313 572.828 693.51 589.216 727.539 603.726 C 727.861 589.357 730 571.492 738.056 559.252 C 741.849 553.491 748.386 545.423 750.049 538.86 C 753.878 523.745 756.479 508.519 760.767 493.521 C 775.85 440.761 796.854 392.059 829.664 348.556 C 889.571 269.127 916.494 304.578 991.29 335.886 C 1001.58 340.194 1016.37 346.342 1027.97 345.362 C 1038.08 344.508 1048.74 338.557 1058.04 334.655 C 1085.86 322.981 1120.25 302.202 1149.74 298.364 z"/><path transform="translate(0,0)" fill="url(#Gradient21)" d="M 1161.97 966.546 C 1205.91 971.879 1262.03 976.854 1298.1 947.548 C 1316.07 932.94 1311.77 932.878 1322.64 917.318 C 1325.38 922.207 1323.88 933.053 1322.24 938.215 C 1314.72 961.834 1294.99 978.803 1273.86 989.96 C 1222.6 1017.03 1164.51 1012.79 1110.91 995.779 C 1093.95 990.396 1077.02 983.935 1060.1 978.437 C 1092.06 1007.04 1119.25 1030.66 1156.5 1052.14 C 1120.08 1042.76 1083.44 1031.36 1055.17 1004.92 C 1070.02 1074.76 1068.63 1151.89 1033.76 1215.82 C 1030.42 1221.95 1026.26 1228.6 1023.32 1234.86 C 1060 1223.04 1106.08 1205.91 1141.06 1189.7 C 1118.97 1219.27 1095.82 1248.04 1071.65 1275.94 C 1051.74 1298.55 1025.35 1325.73 1006.92 1348.47 C 1072.94 1342.44 1147.08 1277.46 1191.75 1231.86 C 1205.04 1218.29 1221.75 1201.86 1233.94 1187.29 C 1237.75 1182.7 1241.41 1177.97 1244.9 1173.13 C 1240.16 1183.3 1234.76 1193.12 1229.88 1203.14 C 1204.63 1254.87 1163.78 1297.98 1123.28 1338.15 C 1107.01 1354.29 1087.32 1368.47 1071.87 1385.59 C 1063.17 1395.2 1055.46 1410.76 1048.42 1422.03 C 1041.81 1432.59 1035.48 1441.27 1028.25 1451.34 L 1087.12 1404.13 C 1092.85 1399.5 1112.18 1382.98 1117.36 1380.51 L 1119.14 1381.31 L 1121.33 1380.56 C 1120.37 1382.04 1120.25 1382 1120.06 1383.8 L 1122.13 1385.79 C 1118.76 1392.09 1104.12 1407.7 1098.82 1414.27 C 1072.99 1446.27 1041.13 1475.34 1016.12 1507.55 C 1006.97 1498.97 990.512 1478.85 981.386 1468.66 C 937.831 1420.02 896.143 1369.24 865.112 1311.5 C 856.578 1295.62 849.412 1276.7 841.225 1260.11 C 877.788 1288.46 908.517 1314.15 946.996 1341.62 C 974.434 1361.2 1006.03 1380.67 1032.15 1400.01 C 1002.11 1359.22 952.381 1302.37 915.557 1266.76 C 841.415 1195.07 779.599 1159.15 750.954 1052.65 C 765.844 1064.1 787.047 1088.54 801.811 1102.43 C 830.269 1129.23 855.72 1147.98 888.769 1168.43 C 873.021 1150.82 857.547 1132.97 842.353 1114.88 C 832.999 1103.83 822.799 1091.25 813.106 1080.73 C 806.771 1073.86 794.379 1065.54 787.342 1058.35 C 752.608 1022.89 724.648 971.612 723.788 921.462 C 746.117 953.165 778.221 960.597 814.503 966.111 C 827.436 968.076 838.908 970.621 852.104 970.779 C 889.321 969.226 915.183 966.036 951.297 953.909 C 970.434 947.483 1006.04 923.476 1021.95 923.37 C 1032.57 923.299 1065.69 941.898 1080.34 946.747 C 1110.01 956.566 1131.18 961.706 1161.97 966.546 z"/><path transform="translate(0,0)" fill="rgb(254,254,254)" d="M 852.104 970.779 C 889.321 969.226 915.183 966.036 951.297 953.909 C 970.434 947.483 1006.04 923.476 1021.95 923.37 C 1032.57 923.299 1065.69 941.898 1080.34 946.747 C 1110.01 956.566 1131.18 961.706 1161.97 966.546 C 1153.23 969.533 1114.48 968.273 1104.7 965.905 C 1083.31 960.73 1058.53 947.596 1039.68 936.299 C 1041.45 949.561 1042.08 959.934 1033.15 971.473 C 1018.23 990.757 983.264 1003.4 959.984 1006.44 C 946.791 1008.17 928.122 1007.11 914.724 1006.7 C 951.94 993.927 989.768 985.511 1015.69 951.65 C 953.851 986.493 874.746 1006.33 805.699 985.223 C 791.694 980.942 780.329 977.88 768.17 969.307 C 805.388 976.453 815.112 972.379 852.104 970.779 z"/><path transform="translate(0,0)" fill="rgb(0,0,0)" d="M 753.029 993.695 C 758.798 996.853 768.662 1005.47 775.356 1009.58 C 805.16 1027.86 833.303 1050.08 862.088 1069.38 C 898.728 1093.94 934.1 1112.25 970.516 1137.99 C 959.616 1136.37 921.558 1122.49 909.787 1117.72 C 830.394 1085.55 803.782 1060.09 753.029 993.695 z"/><path transform="translate(0,0)" fill="rgb(254,254,254)" d="M 876.817 1186.34 C 914.143 1199.51 948.343 1264.7 959.077 1301.47 C 944.301 1295.97 888.15 1205.2 876.817 1186.34 z"/><path transform="translate(0,0)" fill="rgb(254,254,254)" d="M 907.711 1138.15 C 917.779 1142.43 932.46 1149.02 941.467 1154.55 C 955.774 1163.33 974.261 1184.47 978.142 1201.07 C 965.386 1197.92 911.811 1150.15 907.711 1138.15 z"/><path transform="translate(0,0)" fill="rgb(42,161,234)" d="M 783.989 582.253 C 813.027 590.917 843.187 600.124 872.829 606.387 C 954.835 623.715 1041.98 628.533 1124.68 612.861 C 1163.57 605.491 1195.54 595.466 1232.84 583.587 L 1227.95 587.693 C 1232.16 587.753 1231.59 587.077 1234.17 588.949 L 1234.11 589.313 C 1231.78 590.78 1229.27 592.145 1227.36 594.087 L 1227.08 595.609 C 1207.36 608.678 1155.05 630.394 1132.44 638.105 C 1144.37 640.847 1157.23 642.242 1168.55 645.058 C 1150.21 655.343 1144.02 658.954 1123.52 663.833 C 1136.84 669.737 1149.41 674.008 1163.6 677.24 C 1169.38 678.558 1179.27 681.072 1182.32 686.387 C 1178.13 689.928 1163.91 692.324 1158.3 693.285 C 1103.63 702.66 1040.71 702.842 985.601 698.699 C 962.894 696.991 901.069 689.441 880.749 682.255 C 854.232 678.506 785.592 662.193 764.085 647.765 C 763.976 644.941 763.94 642.113 763.978 639.287 C 764.165 618.301 768.609 597.403 783.989 582.253 z"/><path transform="translate(0,0)" fill="rgb(254,254,254)" d="M 783.989 582.253 C 813.027 590.917 843.187 600.124 872.829 606.387 C 954.835 623.715 1041.98 628.533 1124.68 612.861 C 1163.57 605.491 1195.54 595.466 1232.84 583.587 L 1227.95 587.693 L 1226.46 588.133 C 1217.02 591.011 1205.17 597.608 1195.61 601.217 C 1112 632.781 1026.1 645.587 937.009 636.238 C 920.577 634.514 902.949 634.224 886.474 631.834 C 858.623 628.495 831.525 622.132 804.117 617.572 C 803.694 633.614 804.679 643.532 815.933 656.76 C 827.441 670.288 870.979 674.46 880.749 682.255 C 854.232 678.506 785.592 662.193 764.085 647.765 C 763.976 644.941 763.94 642.113 763.978 639.287 C 764.165 618.301 768.609 597.403 783.989 582.253 z"/><path transform="translate(0,0)" fill="rgb(208,0,9)" d="M 1228.01 1500.92 C 1224.34 1420.88 1237.6 1360.02 1262.6 1283.57 C 1266.81 1270.68 1291.04 1188.88 1300.27 1185.45 L 1304.19 1187.25 C 1313.02 1191.53 1335.68 1203.57 1343.41 1209.55 C 1350.83 1213.64 1357.96 1218.79 1366.04 1223.18 C 1358.32 1250.11 1347.95 1267.56 1342.07 1298.82 C 1332.04 1352.04 1354.83 1387.51 1383.55 1430.19 C 1341.06 1445.58 1266.95 1477.42 1228.01 1500.92 z"/><path transform="translate(0,0)" fill="rgb(254,254,254)" d="M 1304.19 1187.25 C 1313.02 1191.53 1335.68 1203.57 1343.41 1209.55 C 1342.52 1216.5 1341.51 1236.62 1335.61 1239.43 C 1323.42 1235.75 1307.37 1200.16 1304.19 1187.25 z"/><path transform="translate(0,0)" fill="rgb(0,0,0)" d="M 1317.34 1318.7 C 1318.81 1322.83 1320.71 1336.38 1321.13 1341.42 C 1323.5 1370.11 1336.92 1404.12 1338.22 1431.84 C 1329 1436.24 1314.92 1441.38 1305.07 1445.52 C 1288.37 1452.6 1271.87 1460.15 1255.6 1468.16 C 1249.85 1470.91 1244.04 1473.55 1238.2 1476.1 C 1247.02 1468.03 1255.42 1459.87 1264.4 1451.9 C 1279.89 1438.15 1298.68 1423.18 1312.56 1408.09 C 1307.22 1387.21 1312.98 1340.16 1317.34 1318.7 z"/><path transform="translate(0,0)" fill="rgb(0,0,0)" d="M 1262.21 1390.95 C 1271.41 1390.15 1281.46 1393.89 1280.93 1404.82 C 1280.5 1413.91 1275.46 1417.67 1269.08 1423.16 C 1249.23 1431.59 1244.54 1404.56 1262.21 1390.95 z"/><path transform="translate(0,0)" fill="rgb(254,254,254)" d="M 1309.06 1249.88 C 1314.19 1249.65 1314.6 1249.57 1318.15 1252.88 C 1324.09 1266.94 1308.38 1285.99 1297.9 1294.16 L 1293.14 1296.33 L 1291.74 1295.56 C 1290.53 1290.32 1292.24 1281.73 1293.77 1276.52 C 1297.32 1264.43 1297.96 1256.63 1309.06 1249.88 z"/><path transform="translate(0,0)" fill="url(#Gradient20)" d="M 749.613 1175.8 C 750.614 1176.8 759.674 1206.3 760.709 1209.46 C 774.583 1250.55 786.987 1292.12 797.896 1334.09 C 805.879 1363.78 813.52 1394.64 818.161 1425.06 C 822.16 1451.27 821.026 1474.94 819.744 1501.17 C 801.016 1489.57 767.351 1473.2 747.252 1464.44 C 719.834 1452.14 692.213 1440.31 664.4 1428.94 C 718.778 1352.17 723.254 1312.97 685.733 1225.08 C 709.304 1211.84 730.822 1195.24 749.613 1175.8 z"/><path transform="translate(0,0)" fill="rgb(0,0,0)" d="M 731.446 1318.79 C 736.886 1323.84 739.677 1400.02 738.599 1410.86 C 746.913 1422.51 759.861 1431.48 769.824 1441.56 C 781.444 1453.32 796.118 1464.53 807.151 1476.5 L 791.48 1468.05 C 775.531 1459.52 759.217 1451.68 742.584 1444.57 C 733.144 1440.52 717.927 1434.78 709.438 1429.98 C 717.533 1390.92 727.045 1360.22 731.446 1318.79 z"/><path transform="translate(0,0)" fill="rgb(254,254,254)" d="M 733.664 1247.87 C 743.104 1250.3 744.64 1251.44 750.661 1259.3 C 756.094 1266.38 759.013 1288.67 757.288 1297.17 C 737.855 1289.26 728.368 1268.09 733.664 1247.87 z"/><path transform="translate(0,0)" fill="rgb(0,0,0)" d="M 775.006 1391.1 C 794.282 1388.6 802.312 1414.63 783.883 1425.5 C 777.84 1424.22 773.008 1421.35 769.133 1416.43 C 766.151 1412.67 764.828 1407.86 765.471 1403.11 C 766.306 1396.97 770.318 1394.43 775.006 1391.1 z"/><path transform="translate(0,0)" fill="url(#Gradient19)" d="M 1026.55 397.726 C 1054.05 385.358 1129.49 337.879 1156.95 347.628 C 1181.72 356.421 1210.94 399.918 1222.84 423.206 C 1218.12 417.668 1210.36 407.724 1205.18 402.942 C 1191.62 390.425 1156.2 363.724 1136.4 372.855 C 1121.17 379.874 1102.29 392.363 1087.62 401.467 C 1067.26 413.995 1046.76 426.304 1026.14 438.392 C 995.001 424.06 963.072 405.518 931.889 392.003 C 950.802 417.445 974.394 450.348 1002.01 466.462 C 1001.91 474.443 1001.87 482.425 1001.88 490.407 C 991.903 488.604 981.551 487.032 971.914 483.985 C 976.046 492.816 986.969 512.008 985.793 519.929 C 981.473 549.029 993.706 573.468 1005.17 600.739 C 962.551 591.932 899.353 570.987 889.018 522.167 C 903.274 528.173 910.718 527.55 925.073 530.342 C 898.528 496.863 890.637 468.473 895.143 425.291 C 896.915 408.31 904.669 388.86 914.321 374.768 L 913.989 373.496 C 922.499 370.008 938.969 366.23 948.155 365.435 C 976.116 377.857 997.752 387.679 1026.55 397.726 z"/><path transform="translate(0,0)" fill="url(#Gradient18)" d="M 1482.47 577.275 C 1490.11 568.812 1502.31 561.331 1511.11 554.358 C 1569.07 508.461 1600.94 497.768 1602.46 586.958 C 1603.15 627.637 1589.84 655.499 1560.05 684.509 C 1557.25 687.267 1554.4 689.985 1551.52 692.663 C 1557.45 682.764 1563 673.656 1569.35 663.106 C 1584.35 638.191 1596.01 572.347 1570.44 552.547 C 1552.83 538.916 1501.32 582.055 1485.89 594.351 C 1420.78 646.22 1352.82 696.37 1280.55 738.047 C 1207.28 778.583 1121.75 812.602 1038.32 822.54 C 1022.3 824.28 989.082 820.939 974.457 816.7 L 977.065 815.412 C 992.425 812.294 1014.31 807.932 1028.05 800.487 C 1044.94 794.903 1062.89 790.105 1080.01 784.585 C 1107.04 775.816 1133.76 766.144 1160.14 755.584 C 1181.8 747.06 1210.97 734.794 1229.67 720.785 C 1204.57 730.877 1176.93 732.011 1150.48 727.32 C 1239.54 711.6 1325.79 674.705 1404.33 630.123 C 1432.96 613.868 1455.87 596.273 1482.47 577.275 z"/><path transform="translate(0,0)" fill="rgb(254,254,254)" d="M 1150.48 727.32 C 1239.54 711.6 1325.79 674.705 1404.33 630.123 C 1432.96 613.868 1455.87 596.273 1482.47 577.275 C 1480.14 583.337 1445.54 607.105 1438.36 612.472 C 1340.89 685.279 1238.55 758.579 1120.13 792.559 C 1095.88 799.52 996.388 824.645 977.065 815.412 C 992.425 812.294 1014.31 807.932 1028.05 800.487 C 1044.94 794.903 1062.89 790.105 1080.01 784.585 C 1107.04 775.816 1133.76 766.144 1160.14 755.584 C 1181.8 747.06 1210.97 734.794 1229.67 720.785 C 1204.57 730.877 1176.93 732.011 1150.48 727.32 z"/><path transform="translate(0,0)" fill="url(#Gradient17)" d="M 463.33 519.725 C 472.106 516.013 481.99 516.859 490.351 521.121 C 545.716 549.346 594.93 593.87 646.214 628.899 C 674.53 648.574 703.635 667.091 733.455 684.403 C 764.301 702.167 801.767 721.193 833.681 737.689 C 883.293 761.051 933.692 776.481 986.369 791.234 C 999.555 794.927 1015.85 796.677 1028.05 800.487 C 1014.31 807.932 992.425 812.294 977.065 815.412 L 974.457 816.7 C 963.533 816.774 937.91 808.55 926.201 805.326 C 802.689 771.312 705.53 706.917 603.201 632.795 C 579.225 615.427 507.288 560.285 483.38 553.032 C 481.035 552.321 477.857 551.466 475.643 552.916 C 469.046 557.238 467.112 571.69 466.148 579.075 C 460.328 623.652 475.312 663.106 502.274 697.862 C 453.287 660.223 427.143 572.746 463.33 519.725 z"/><path transform="translate(0,0)" fill="rgb(254,254,254)" d="M 463.33 519.725 C 472.106 516.013 481.99 516.859 490.351 521.121 C 545.716 549.346 594.93 593.87 646.214 628.899 C 674.53 648.574 703.635 667.091 733.455 684.403 C 764.301 702.167 801.767 721.193 833.681 737.689 C 829.546 739.441 806.585 728.968 801.127 726.75 C 747.706 704.534 696.68 676.948 648.835 644.418 C 598.325 610.516 550.864 571.861 498.518 540.727 C 486.88 533.804 474.41 527.497 463.33 519.725 z"/><path transform="translate(0,0)" fill="rgb(42,161,234)" d="M 133.874 750.273 C 174.853 767.603 215.683 785.282 256.361 803.307 L 380.509 856.089 C 406.466 867.072 435.737 879.913 461.709 889.964 C 462.405 895.478 463.119 900.688 463.446 906.249 C 464.672 911.464 462.334 937.623 461.703 944.203 C 432.057 934.359 401.387 920.797 371.94 909.446 C 295.588 880.013 220.068 847.224 144.119 816.939 C 130.696 820.769 121.524 825.643 109.077 831.804 C 111.364 822.437 114.44 813.761 117.525 804.651 C 121.17 793.528 124.393 780.956 128.042 769.42 C 129.912 763.076 131.754 756.519 133.874 750.273 z"/><path transform="translate(0,0)" fill="rgb(254,254,254)" d="M 133.874 750.273 C 174.853 767.603 215.683 785.282 256.361 803.307 L 380.509 856.089 C 406.466 867.072 435.737 879.913 461.709 889.964 C 462.405 895.478 463.119 900.688 463.446 906.249 C 463.303 907.473 462.932 908.117 462.482 909.308 C 451.871 910.97 228.706 813.529 206.186 803.585 L 158.646 782.103 C 149.859 778.127 136.979 771.949 128.042 769.42 C 129.912 763.076 131.754 756.519 133.874 750.273 z"/><path transform="translate(0,0)" fill="rgb(3,78,163)" d="M 109.077 831.804 C 111.364 822.437 114.44 813.761 117.525 804.651 C 126.707 808.023 135.6 812.133 144.119 816.939 C 130.696 820.769 121.524 825.643 109.077 831.804 z"/><path transform="translate(0,0)" fill="rgb(42,161,234)" d="M 1585.66 890.419 C 1596.67 885.265 1612.29 879.334 1623.85 874.559 L 1707.07 840.145 C 1776.4 810.953 1845.81 780.135 1915.14 751.456 C 1917.25 756.334 1919.2 763.033 1920.87 768.198 C 1925.05 780.541 1928.17 793.28 1932.41 805.382 C 1935.51 813.793 1938.36 821.65 1941.98 829.871 C 1931.38 826.206 1916.81 820.871 1906.68 815.849 C 1840.55 844.254 1772.61 869.42 1705.89 896.494 C 1666.14 912.626 1625.34 927.259 1585.83 943.881 C 1584.64 933.099 1583.82 922.841 1584.09 911.968 C 1584.1 903.226 1584.44 899.107 1585.66 890.419 z"/><path transform="translate(0,0)" fill="rgb(254,254,254)" d="M 1585.66 890.419 C 1596.67 885.265 1612.29 879.334 1623.85 874.559 L 1707.07 840.145 C 1776.4 810.953 1845.81 780.135 1915.14 751.456 C 1917.25 756.334 1919.2 763.033 1920.87 768.198 C 1914.17 772.545 1878.39 787.803 1868.53 792.331 C 1804.24 821.113 1739.45 848.773 1674.2 875.298 C 1652.28 884.538 1630.26 893.53 1608.14 902.272 C 1603.99 903.942 1587.56 911.131 1584.09 911.968 C 1584.1 903.226 1584.44 899.107 1585.66 890.419 z"/><path transform="translate(0,0)" fill="rgb(3,78,163)" d="M 1932.41 805.382 C 1935.51 813.793 1938.36 821.65 1941.98 829.871 C 1931.38 826.206 1916.81 820.871 1906.68 815.849 C 1914.31 810.677 1923.4 807.173 1932.41 805.382 z"/><path transform="translate(0,0)" fill="rgb(42,161,234)" d="M 1378.81 998.579 C 1411.45 977.044 1462.85 952.675 1500.31 939.644 C 1499.7 947.627 1498.59 956.354 1497.75 964.384 C 1495.64 1002.56 1500.62 1005.82 1509.54 1039.13 L 1510.29 1040.99 C 1508 1043.25 1509.33 1042.43 1506.02 1043.29 C 1468.97 1056.53 1433.36 1071.27 1396.65 1084.75 C 1394.44 1080.93 1392.11 1077.05 1390.1 1073.14 C 1384.74 1062.85 1381.86 1053.45 1378.44 1042.51 C 1374.23 1030.4 1375.39 1010.99 1378.81 998.579 z"/><path transform="translate(0,0)" fill="rgb(7,109,193)" d="M 1488.63 1019.49 C 1493.96 1028.78 1497.74 1037.71 1509.54 1039.13 L 1510.29 1040.99 C 1508 1043.25 1509.33 1042.43 1506.02 1043.29 C 1468.97 1056.53 1433.36 1071.27 1396.65 1084.75 C 1394.44 1080.93 1392.11 1077.05 1390.1 1073.14 C 1384.74 1062.85 1381.86 1053.45 1378.44 1042.51 L 1385.39 1041.07 L 1386.28 1041.03 C 1397.32 1040.72 1407.32 1034.73 1417.93 1033.53 C 1421.18 1033.16 1418.72 1034.13 1422.84 1032.66 C 1448.21 1044.05 1469.51 1040.51 1488.63 1019.49 z"/><path transform="translate(0,0)" fill="rgb(42,161,234)" d="M 1390.1 1073.14 C 1394.8 1072.5 1402.62 1071.64 1406.97 1070.27 C 1428.87 1063.42 1483.85 1040.01 1504.83 1040.95 L 1506.02 1043.29 C 1468.97 1056.53 1433.36 1071.27 1396.65 1084.75 C 1394.44 1080.93 1392.11 1077.05 1390.1 1073.14 z"/><path transform="translate(0,0)" fill="rgb(254,254,254)" d="M 1378.81 998.579 C 1411.45 977.044 1462.85 952.675 1500.31 939.644 C 1499.7 947.627 1498.59 956.354 1497.75 964.384 C 1454.37 979.859 1402.4 994.529 1385.39 1041.07 L 1378.44 1042.51 C 1374.23 1030.4 1375.39 1010.99 1378.81 998.579 z"/><path transform="translate(0,0)" fill="rgb(0,0,0)" d="M 1422.84 1032.66 C 1418.5 1029.28 1415.22 1027.5 1414.43 1022.23 C 1419.27 1017.44 1468.49 1000.07 1479.63 995.856 C 1480.39 1001.6 1481.74 1007.61 1482.88 1013.31 L 1488.63 1019.49 C 1469.51 1040.51 1448.21 1044.05 1422.84 1032.66 z"/><path transform="translate(0,0)" fill="url(#Gradient16)" d="M 545.748 939.726 C 569.261 950.943 660.348 983.744 667.967 1005.27 C 671.378 1014.91 672.009 1034.33 667.96 1043.65 C 663.466 1059.04 658.478 1070.49 650.669 1084.39 C 627.434 1078.43 601.749 1067.15 579.083 1058.48 C 566.489 1053.66 546.378 1046.83 535.168 1041.23 C 545.831 1011.18 549.953 996.495 548.686 964.908 C 547.34 955.95 546.437 948.747 545.748 939.726 z"/><path transform="translate(0,0)" fill="rgb(254,254,254)" d="M 545.748 939.726 C 569.261 950.943 660.348 983.744 667.967 1005.27 C 671.378 1014.91 672.009 1034.33 667.96 1043.65 C 659.194 1037.22 654.649 1019.97 644.335 1010.75 C 621.268 990.115 578.257 977.275 548.686 964.908 C 547.34 955.95 546.437 948.747 545.748 939.726 z"/><path transform="translate(0,0)" fill="rgb(0,0,0)" d="M 566.667 996.862 C 578.812 1001.56 621.365 1015.86 629.013 1021.62 C 629.549 1023.17 630.187 1023.63 629.255 1025.03 C 617.557 1042.65 591.507 1039.74 574.316 1037.75 C 567.375 1036.11 566.31 1035.77 559.96 1032.32 C 559.221 1031.84 557.663 1030.16 556.961 1029.45 C 555.693 1024.3 557.606 1021.61 560.239 1017.08 C 563.972 1009.24 565.185 1005.72 566.667 996.862 z"/><path transform="translate(0,0)" fill="rgb(5,45,92)" d="M 560.239 1017.08 C 564.735 1020.26 573.901 1027.56 574.905 1033.07 L 574.316 1037.75 C 567.375 1036.11 566.31 1035.77 559.96 1032.32 C 559.221 1031.84 557.663 1030.16 556.961 1029.45 C 555.693 1024.3 557.606 1021.61 560.239 1017.08 z"/><path transform="translate(0,0)" fill="rgb(0,11,27)" d="M 559.96 1032.32 C 567.375 1030.82 570.23 1034.93 574.905 1033.07 L 574.316 1037.75 C 567.375 1036.11 566.31 1035.77 559.96 1032.32 z"/><path transform="translate(0,0)" fill="url(#Gradient15)" d="M 1376.9 964.368 C 1355.01 1042.97 1375.95 1084.81 1426.14 1144.89 C 1433.71 1141.88 1441.23 1138.75 1448.7 1135.49 C 1480.65 1121.67 1534.08 1096.66 1567.69 1081.58 C 1568 1080.79 1568.32 1080 1568.63 1079.21 C 1566.59 1066.49 1566.2 1052.93 1565.54 1040.03 C 1565.96 1037.3 1565.64 1035.92 1568.56 1034.23 C 1580.17 1027.52 1594.55 1022.22 1607.07 1017.34 C 1610.32 1022.03 1613.15 1025.85 1615.62 1031.05 C 1612.35 1034.29 1603.99 1042.96 1600.8 1045.4 C 1596.73 1048.74 1592.63 1052.2 1588.46 1055.4 C 1590.34 1069.41 1590.08 1094.78 1590.27 1109.26 C 1562.6 1121.32 1534.75 1132.96 1506.74 1144.2 C 1484.98 1152.9 1462.83 1160.74 1442.13 1171.75 C 1436.79 1160.49 1430.01 1160.68 1423.63 1152.06 L 1423.11 1152.17 C 1417.25 1146.57 1408.69 1141.61 1402.33 1136.67 C 1375.87 1116.14 1335.36 1089.82 1336.36 1052.24 C 1337.11 1024.45 1357.67 983.127 1376.9 964.368 z"/><path transform="translate(0,0)" fill="rgb(42,161,234)" d="M 1565.54 1040.03 C 1565.96 1037.3 1565.64 1035.92 1568.56 1034.23 C 1580.17 1027.52 1594.55 1022.22 1607.07 1017.34 C 1610.32 1022.03 1613.15 1025.85 1615.62 1031.05 C 1612.35 1034.29 1603.99 1042.96 1600.8 1045.4 C 1596.73 1048.74 1592.63 1052.2 1588.46 1055.4 C 1590.34 1069.41 1590.08 1094.78 1590.27 1109.26 C 1562.6 1121.32 1534.75 1132.96 1506.74 1144.2 C 1484.98 1152.9 1462.83 1160.74 1442.13 1171.75 C 1436.79 1160.49 1430.01 1160.68 1423.63 1152.06 C 1426.6 1150.63 1427.99 1151.52 1430.84 1151.02 C 1465.44 1145.01 1499.42 1131.33 1532 1118.74 C 1545.82 1113.4 1559.49 1109.04 1572.35 1102.89 C 1571.11 1095.63 1570.21 1085.86 1568.63 1079.21 C 1566.59 1066.49 1566.2 1052.93 1565.54 1040.03 z"/><path transform="translate(0,0)" fill="rgb(7,109,193)" d="M 1565.54 1040.03 C 1565.96 1037.3 1565.64 1035.92 1568.56 1034.23 C 1580.17 1027.52 1594.55 1022.22 1607.07 1017.34 C 1610.32 1022.03 1613.15 1025.85 1615.62 1031.05 C 1612.35 1034.29 1603.99 1042.96 1600.8 1045.4 C 1599.65 1044.58 1598.66 1044.14 1597.4 1043.49 C 1592.59 1043.69 1588.65 1046.28 1584.23 1048.52 C 1575.67 1044.75 1575.28 1040.05 1565.54 1040.03 z"/><path transform="translate(0,0)" fill="rgb(254,254,254)" d="M 816.407 849.003 C 852.214 885.419 886.948 895.969 936.345 882.72 C 926.961 888.04 907.389 896.302 896.936 898.399 C 896.967 898.859 896.998 899.32 897.029 899.78 C 926.192 900.558 938.196 899.858 965.711 891.346 C 957.366 907.323 940.729 919.352 925.249 927.804 C 897.398 943.01 860.178 943.91 830.319 934.311 C 805.88 926.454 789.873 913.638 778.213 890.776 C 801.729 910.598 822.515 920.303 853.562 919.997 C 829.566 911.869 809.827 903.325 793.223 883.199 C 788.876 877.924 787.826 876.04 784.541 870.145 C 785.108 869.939 787.537 869.849 788.253 869.8 C 794.888 868.365 796.537 858.023 800.951 855.769 C 805.289 854.251 807.495 853.323 811.606 851.27 L 812.039 849.948 L 816.407 849.003 z"/><path transform="translate(0,0)" fill="url(#Gradient14)" d="M 816.407 849.003 C 852.214 885.419 886.948 895.969 936.345 882.72 C 926.961 888.04 907.389 896.302 896.936 898.399 C 896.967 898.859 896.998 899.32 897.029 899.78 C 876.296 901.371 838.324 894.238 817.486 889.821 C 810.876 888.42 798.732 883.148 793.223 883.199 C 788.876 877.924 787.826 876.04 784.541 870.145 C 785.108 869.939 787.537 869.849 788.253 869.8 C 794.888 868.365 796.537 858.023 800.951 855.769 C 805.289 854.251 807.495 853.323 811.606 851.27 L 812.039 849.948 L 816.407 849.003 z"/><path transform="translate(0,0)" fill="rgb(42,161,234)" d="M 455.867 1053.17 C 459.336 1050.56 460.778 1051.8 463.672 1050.11 C 471.236 1045.68 472.351 1041.23 481.182 1038.77 C 480.727 1052.26 479.817 1068.1 479.974 1081.43 C 506.449 1092.53 532.717 1104.12 558.766 1116.18 C 567.502 1120.16 585.697 1127.85 593.437 1132.26 C 599.25 1134.98 617.781 1144.36 623.083 1144.09 L 625.457 1142.08 C 626.408 1145.15 626.179 1145.89 628.263 1147.97 L 629.471 1147.95 L 630.106 1148.57 L 627.7 1151.53 C 623.706 1155.68 610.68 1168.67 608.771 1173.02 C 595.663 1164.02 574.283 1157.54 559.54 1151.04 C 528.379 1137.32 487.345 1123.99 457.502 1108.78 C 457.25 1093.18 459.261 1077.17 459.407 1061.53 C 459.459 1055.95 459.099 1056.48 455.867 1053.17 z"/><path transform="translate(0,0)" fill="rgb(7,109,193)" d="M 479.974 1081.43 C 506.449 1092.53 532.717 1104.12 558.766 1116.18 C 567.502 1120.16 585.697 1127.85 593.437 1132.26 C 592.768 1133.94 592.735 1133.68 591.548 1135.15 C 578.442 1139.5 549.458 1127.26 536.079 1122.6 L 478.917 1103.3 C 479.324 1096.01 479.677 1088.72 479.974 1081.43 z"/><path transform="translate(0,0)" fill="rgb(254,254,254)" d="M 822.333 548.039 C 818.902 546.927 815.512 545.69 812.171 544.331 C 806.711 542.104 796.81 538.264 795.083 532.422 C 790.264 516.12 804.719 472.478 811.873 456.694 C 826.797 423.767 857.5 361.659 890.273 345.69 C 903.519 339.236 933.703 358.715 948.155 365.435 C 938.969 366.23 922.499 370.008 913.989 373.496 C 865.367 392.087 827.061 441.816 816.45 492.307 C 812.475 511.222 817.383 529.842 822.333 548.039 z"/><path transform="translate(0,0)" fill="rgb(254,254,254)" d="M 1154.32 899.982 C 1174.06 901.049 1230.05 892.865 1248.1 882.678 C 1250.48 881.33 1250.25 881.029 1253.6 880.418 C 1238.21 900.863 1215.03 912.53 1191.43 920.812 C 1224.59 919.038 1238.96 913.173 1267.59 893.346 C 1232.96 947.587 1166.81 952.693 1115.11 919.649 C 1103.23 912.169 1092.66 902.779 1083.84 891.857 C 1115.3 899.301 1121.51 900.233 1154.32 899.982 z"/><path transform="translate(0,0)" fill="url(#Gradient13)" d="M 668.662 962.428 C 739.244 1051.56 716.646 1089.47 630.106 1148.57 L 629.471 1147.95 L 628.263 1147.97 C 626.179 1145.89 626.408 1145.15 625.457 1142.08 C 629.361 1134.29 639.351 1121.7 644.719 1113.85 C 678.504 1064.48 687.235 1023.24 669.38 964.676 C 669.149 963.924 668.91 963.174 668.662 962.428 z"/><path transform="translate(0,0)" fill="url(#Gradient12)" d="M 1241.61 824.046 C 1242.65 820.916 1247.53 811.422 1250 808.823 C 1251.33 811.928 1252.89 815.597 1255.67 817.441 C 1259.82 813.504 1258.46 798.493 1267.97 799.125 C 1271.27 805.624 1270.48 810.546 1269.97 817.546 C 1270.46 822.153 1272.14 833.761 1270.59 837.82 C 1268.27 849.445 1267.06 857.568 1261.63 868.226 C 1259.87 871.468 1256.49 878.58 1253.6 880.418 C 1250.25 881.029 1250.48 881.33 1248.1 882.678 C 1230.05 892.865 1174.06 901.049 1154.32 899.982 L 1155.37 898.855 C 1151.55 896.337 1145.75 897.2 1141.12 895.491 C 1130.82 891.691 1120.17 886.855 1110.38 882.054 C 1165.63 895.237 1199.9 885.011 1233.51 837.992 C 1234.04 836.386 1240.35 826.147 1241.61 824.046 z"/><path transform="translate(0,0)" fill="url(#Gradient11)" d="M 1241.61 824.046 C 1242.65 820.916 1247.53 811.422 1250 808.823 C 1251.33 811.928 1252.89 815.597 1255.67 817.441 C 1259.82 813.504 1258.46 798.493 1267.97 799.125 C 1271.27 805.624 1270.48 810.546 1269.97 817.546 C 1270.46 822.153 1272.14 833.761 1270.59 837.82 C 1268.27 849.445 1267.06 857.568 1261.63 868.226 C 1261.13 862.144 1264.69 859.535 1262.89 854.147 C 1258.5 852.911 1259.19 853.228 1254.21 855.491 L 1251.78 854.641 C 1247.94 853.57 1249.36 854.617 1247.08 851.83 C 1244.44 846.468 1238.57 846.298 1233.51 837.992 C 1234.04 836.386 1240.35 826.147 1241.61 824.046 z"/><path transform="translate(0,0)" fill="rgb(3,78,163)" d="M 1241.61 824.046 C 1243.7 827.88 1243.91 827.947 1247.56 830.54 L 1247.97 832.481 C 1248.06 839.684 1247.72 844.622 1247.08 851.83 C 1244.44 846.468 1238.57 846.298 1233.51 837.992 C 1234.04 836.386 1240.35 826.147 1241.61 824.046 z"/><path transform="translate(0,0)" fill="rgb(7,109,193)" d="M 1264.21 837.401 C 1267.32 836.391 1267.59 835.676 1270.59 837.82 C 1268.27 849.445 1267.06 857.568 1261.63 868.226 C 1261.13 862.144 1264.69 859.535 1262.89 854.147 C 1258.5 852.911 1259.19 853.228 1254.21 855.491 L 1251.78 854.641 C 1253.52 852.161 1255.6 849.848 1256 846.968 L 1257.54 846.892 C 1259.86 844.985 1260.17 841.598 1260.96 838.454 L 1262.65 844.708 L 1264.21 837.401 z"/><path transform="translate(0,0)" fill="rgb(2,28,57)" d="M 1256 846.968 L 1257.54 846.892 C 1259.86 844.985 1260.17 841.598 1260.96 838.454 L 1262.65 844.708 C 1261.28 846.564 1254.7 854.626 1254.21 855.491 L 1251.78 854.641 C 1253.52 852.161 1255.6 849.848 1256 846.968 z"/><path transform="translate(0,0)" fill="rgb(5,45,92)" d="M 1247.97 832.481 L 1249.45 837.851 L 1251.17 838.548 C 1254.42 837.011 1255.61 835.155 1257.95 832.438 L 1259.69 832.718 C 1261.06 835.251 1260.81 835.499 1260.96 838.454 C 1260.17 841.598 1259.86 844.985 1257.54 846.892 L 1256 846.968 C 1255.6 849.848 1253.52 852.161 1251.78 854.641 C 1247.94 853.57 1249.36 854.617 1247.08 851.83 C 1247.72 844.622 1248.06 839.684 1247.97 832.481 z"/><path transform="translate(0,0)" fill="rgb(3,78,163)" d="M 1247.08 851.83 C 1251.8 850.821 1247.38 847.77 1251.32 842.277 C 1253.86 843.076 1254.49 844.694 1256 846.968 C 1255.6 849.848 1253.52 852.161 1251.78 854.641 C 1247.94 853.57 1249.36 854.617 1247.08 851.83 z"/><path transform="translate(0,0)" fill="rgb(2,28,57)" d="M 1264.21 837.401 C 1262.9 830.758 1265.18 810.958 1267.69 804.08 L 1268.34 804.01 C 1268.74 808.964 1269.17 812.644 1269.97 817.546 C 1270.46 822.153 1272.14 833.761 1270.59 837.82 C 1267.59 835.676 1267.32 836.391 1264.21 837.401 z"/><path transform="translate(0,0)" fill="url(#Gradient10)" d="M 476.405 932.544 C 477.993 921.078 478.703 909.507 478.529 897.933 L 479.515 899.391 C 484.5 906.623 492.011 914.818 501.005 916.54 L 502.569 915.274 L 501.343 903.185 C 506.414 905.532 511.819 907.858 516.615 910.669 L 521.127 918.546 C 529.714 930.78 529.606 947.318 527.026 961.623 C 526.589 964.165 525.961 966.67 525.147 969.118 C 516.709 969.129 503.549 968.634 495.668 965.518 C 490.494 971.72 496.997 975.415 489.266 985.017 C 489.707 990.068 493.435 989.224 498.195 989.792 L 498.374 991.457 C 496.286 996.598 493.049 1001.98 490.319 1006.88 C 478.675 1002.23 467.001 997.666 455.298 993.171 C 460.852 979.598 469.517 959.746 473.29 946.228 C 474.412 941.852 475.401 936.99 476.405 932.544 z"/><path transform="translate(0,0)" fill="rgb(3,78,163)" d="M 473.29 946.228 C 477.897 954.223 483.371 946.65 488.168 946.892 L 487.731 948.695 L 485.621 949.967 C 485.729 953.396 488.469 956.577 489.992 960.4 L 490.792 961.988 L 490.642 966.767 L 491.708 967.215 L 492.634 966.734 L 491.16 966.925 C 493.554 966.014 493.199 966.389 494.855 964.351 L 495.668 965.518 C 490.494 971.72 496.997 975.415 489.266 985.017 C 489.707 990.068 493.435 989.224 498.195 989.792 L 498.374 991.457 C 496.286 996.598 493.049 1001.98 490.319 1006.88 C 478.675 1002.23 467.001 997.666 455.298 993.171 C 460.852 979.598 469.517 959.746 473.29 946.228 z"/><path transform="translate(0,0)" fill="rgb(0,11,27)" d="M 489.992 960.4 L 490.792 961.988 L 490.642 966.767 L 491.708 967.215 L 492.634 966.734 L 491.16 966.925 C 493.554 966.014 493.199 966.389 494.855 964.351 L 495.668 965.518 C 490.494 971.72 496.997 975.415 489.266 985.017 C 489.707 990.068 493.435 989.224 498.195 989.792 L 498.374 991.457 C 490.014 997.416 481.286 988.958 474.119 983.701 C 475.362 981.329 476.615 979.89 478.249 977.81 L 486.582 965.013 C 487.66 962.471 487.989 962.572 489.992 960.4 z"/><path transform="translate(0,0)" fill="rgb(0,0,0)" d="M 486.582 965.013 L 486.69 966.029 C 487.66 974.661 494.11 987.701 479.405 979.633 L 478.249 977.81 L 486.582 965.013 z"/><path transform="translate(0,0)" fill="url(#Gradient9)" d="M 476.405 932.544 C 477.993 921.078 478.703 909.507 478.529 897.933 L 479.515 899.391 C 484.5 906.623 492.011 914.818 501.005 916.54 L 502.569 915.274 L 505.059 919.072 C 503.539 929.56 485.104 932.906 476.405 932.544 z"/><path transform="translate(0,0)" fill="rgb(254,254,254)" d="M 502.569 915.274 L 501.343 903.185 C 506.414 905.532 511.819 907.858 516.615 910.669 L 521.127 918.546 C 517.285 926.294 511.598 921.876 505.059 919.072 L 502.569 915.274 z"/><path transform="translate(0,0)" fill="rgb(5,45,92)" d="M 489.992 960.4 C 488.469 956.577 485.729 953.396 485.621 949.967 L 487.731 948.695 C 489.308 951.982 493.73 962.489 494.855 964.351 C 493.199 966.389 493.554 966.014 491.16 966.925 L 492.634 966.734 L 491.708 967.215 L 490.642 966.767 L 490.792 961.988 L 489.992 960.4 z"/><path transform="translate(0,0)" fill="rgb(115,0,9)" d="M 1372.57 1230.49 C 1376.5 1232.87 1379.93 1235.89 1383.5 1238.81 C 1370.39 1301.87 1384.32 1363.97 1413.98 1420.1 C 1410.52 1420.94 1406.24 1422.72 1402.84 1424.01 L 1390.01 1428.89 C 1358.18 1352.8 1349.73 1313.57 1372.57 1230.49 z"/><path transform="translate(0,0)" fill="url(#Gradient8)" d="M 1567.77 899.28 C 1568.93 909.927 1569.8 920.604 1570.37 931.3 C 1576.02 956.31 1579.33 968.643 1590.65 992.081 C 1580.42 996.129 1556.31 1004.94 1546.07 1007.25 C 1542.97 1002.5 1538.47 996.739 1538.95 991.056 L 1539.81 989.907 C 1551.46 986.873 1553.29 976.099 1562.96 985.562 C 1566.21 985.518 1564.6 985.77 1567.78 983.624 C 1563.28 979.249 1557.21 973.705 1553.53 968.855 C 1552.3 967.22 1551.17 965.809 1549.86 964.233 C 1545.2 963.419 1538.59 967.376 1533.94 968.188 C 1530.91 968.719 1525.73 968.775 1522.55 968.874 C 1519.8 956.698 1517.92 937.219 1523.47 925.76 L 1529.74 923.288 L 1542.53 917.598 C 1543.73 916.212 1544.6 914.8 1545.62 913.283 C 1553.11 914.777 1563.19 904.732 1567.77 899.28 z"/><path transform="translate(0,0)" fill="rgb(7,109,193)" d="M 1529.74 923.288 C 1532.94 922.925 1537.03 922.035 1539.79 923.256 C 1543.16 932.854 1542.14 942.408 1545.11 952.356 C 1547.43 960.105 1553.74 962.142 1553.53 968.855 C 1552.3 967.22 1551.17 965.809 1549.86 964.233 C 1545.2 963.419 1538.59 967.376 1533.94 968.188 C 1530.91 968.719 1525.73 968.775 1522.55 968.874 C 1519.8 956.698 1517.92 937.219 1523.47 925.76 L 1529.74 923.288 z"/><path transform="translate(0,0)" fill="rgb(42,161,234)" d="M 1567.77 899.28 C 1568.93 909.927 1569.8 920.604 1570.37 931.3 L 1569.86 932.362 C 1564.34 931.959 1552.69 931.728 1547.99 929.141 C 1543.57 926.71 1547.05 921.551 1542.53 917.598 C 1543.73 916.212 1544.6 914.8 1545.62 913.283 C 1553.11 914.777 1563.19 904.732 1567.77 899.28 z"/><path transform="translate(0,0)" fill="rgb(2,28,57)" d="M 1539.81 989.907 C 1551.46 986.873 1553.29 976.099 1562.96 985.562 C 1566.21 985.518 1564.6 985.77 1567.78 983.624 L 1570.29 986.041 L 1569.83 987.352 C 1564.21 988.183 1557.34 988.664 1552.5 991.21 C 1549.14 996.225 1553.83 995.221 1549.92 996.427 C 1545.19 994.296 1544.01 993.153 1539.81 989.907 z"/><path transform="translate(0,0)" fill="rgb(3,78,163)" d="M 1558.17 943.844 C 1561.22 947.616 1568.16 965.888 1566.81 970.565 L 1563.19 971.84 L 1561.88 970.254 C 1561.66 964.537 1557.59 961.314 1553.7 957.236 C 1554.82 951.863 1555.08 948.376 1558.17 943.844 z"/><path transform="translate(0,0)" fill="rgb(115,0,9)" d="M 672.524 1232.47 L 674.099 1232.98 C 676.022 1234.98 677.155 1238.02 678.056 1240.64 C 690.447 1276.13 694.347 1316.37 684.65 1352.95 C 681.486 1364.88 662.017 1424.67 653.44 1427.77 C 647.591 1425.61 641.819 1423.25 636.138 1420.68 C 662.022 1364.15 677.37 1305.3 667.808 1242.8 C 667.132 1238.38 669.601 1235.27 672.524 1232.47 z"/><path transform="translate(0,0)" fill="url(#Gradient7)" d="M 1768.12 922.827 L 1770.92 923.249 C 1777.17 928.039 1780.65 933.326 1785.05 939.689 C 1761.18 950.024 1734.68 959.662 1710.43 969.772 C 1688.76 978.804 1660.75 991.37 1638.78 997.767 C 1632.74 991.406 1627.24 984.548 1621.66 977.787 C 1643.84 970.714 1662.53 963.012 1684.1 954.859 C 1712.22 944.467 1740.23 933.789 1768.12 922.827 z"/><path transform="translate(0,0)" fill="url(#Gradient6)" d="M 703.662 889.741 C 693.276 878.506 684.348 864.479 681.112 849.371 C 676.177 826.331 679.476 788.893 692.43 768.983 C 703.798 774.692 727.388 791.848 739.151 799.625 C 739.933 813.793 740.913 827.95 742.091 842.09 C 727.432 823.562 716.776 807.924 697.545 793.723 C 697.282 821.013 701.34 844.502 713.729 868.927 C 717.965 875.254 722.819 882.523 728.186 887.92 C 721.2 890.795 716.08 892.838 708.884 895.018 C 707.103 893.362 705.016 891.674 703.662 889.741 z"/><path transform="translate(0,0)" fill="rgb(42,161,234)" d="M 713.729 868.927 C 717.965 875.254 722.819 882.523 728.186 887.92 C 721.2 890.795 716.08 892.838 708.884 895.018 C 707.103 893.362 705.016 891.674 703.662 889.741 C 707.511 882.587 706.369 875.818 713.729 868.927 z"/><path transform="translate(0,0)" fill="url(#Gradient5)" d="M 1527.08 1168.65 C 1534.17 1165.53 1541.79 1162 1548.93 1159.15 C 1553.04 1169.82 1558.15 1184.58 1555.08 1196.09 C 1550.67 1237.36 1515.83 1276.96 1477.25 1290.41 C 1463.59 1298.57 1443.63 1302.39 1427.67 1301.95 C 1415.32 1290.25 1409.65 1281.85 1402.88 1266.57 C 1432.37 1281.39 1443.1 1288.02 1475.45 1280.46 C 1510.1 1265.39 1542.73 1220.69 1533.64 1181.92 C 1531.21 1177.32 1529.23 1173.44 1527.08 1168.65 z"/><path transform="translate(0,0)" fill="rgb(3,78,163)" d="M 1475.45 1280.46 C 1485.68 1283.8 1507.34 1259.74 1514.82 1253.44 C 1513.41 1256.34 1506.13 1271.43 1504.93 1272.77 C 1501.26 1276.85 1482.91 1286.31 1477.74 1288.61 L 1477.25 1290.41 C 1463.59 1298.57 1443.63 1302.39 1427.67 1301.95 C 1415.32 1290.25 1409.65 1281.85 1402.88 1266.57 C 1432.37 1281.39 1443.1 1288.02 1475.45 1280.46 z"/><path transform="translate(0,0)" fill="rgb(7,109,193)" d="M 1527.08 1168.65 C 1534.17 1165.53 1541.79 1162 1548.93 1159.15 C 1553.04 1169.82 1558.15 1184.58 1555.08 1196.09 C 1555 1191.73 1554.92 1189.55 1554.32 1185.25 C 1549.04 1184.22 1545.62 1188.45 1539.92 1187.61 C 1537.88 1185.41 1537.09 1184.2 1535.44 1181.77 L 1533.64 1181.92 C 1531.21 1177.32 1529.23 1173.44 1527.08 1168.65 z"/><path transform="translate(0,0)" fill="url(#Gradient4)" d="M 627.7 1151.53 C 631.247 1159.13 640.324 1180.09 645.311 1185.44 C 650.504 1185.48 671.016 1170.11 675.449 1165.42 C 703.056 1136.23 686.796 1134.49 726.439 1119.63 C 719.149 1136.13 712.865 1153.6 702.28 1168.3 C 684.864 1192.49 663.076 1206.23 636.18 1217.74 C 629.979 1197.36 625.214 1187.52 608.771 1173.02 C 610.68 1168.67 623.706 1155.68 627.7 1151.53 z"/><path transform="translate(0,0)" fill="url(#Gradient3)" d="M 1321.92 1117.27 C 1339.15 1132.41 1348.1 1126.71 1360.6 1150.82 C 1367.41 1163.97 1392.23 1180.23 1405.66 1187.32 C 1411.17 1173.73 1415.84 1164.67 1423.11 1152.17 L 1423.63 1152.06 C 1430.01 1160.68 1436.79 1160.49 1442.13 1171.75 C 1425.82 1184.88 1417.76 1196.23 1413.34 1216.49 C 1360.92 1200.93 1340.09 1165 1321.92 1117.27 z"/><path transform="translate(0,0)" fill="url(#Gradient2)" d="M 284.144 923.618 C 330.193 941.057 380.077 962.12 426.264 977.98 L 411.724 994.971 L 409.459 996.468 C 401.069 996.883 287.713 947.161 271.481 940.859 C 276.011 933.947 278.894 929.974 284.144 923.618 z"/><path transform="translate(0,0)" fill="rgb(254,254,254)" d="M 1207.46 820.072 L 1208.5 820.366 L 1208.57 821.973 C 1186.94 854.631 1156.91 883.824 1115.23 866.134 C 1111.63 864.312 1107.85 861.977 1104.33 859.924 C 1142.48 842.108 1168.19 832.63 1207.46 820.072 z"/><path transform="translate(0,0)" fill="rgb(254,254,254)" d="M 833.962 819.642 C 864.344 825.427 908.663 845.378 935.795 859.752 L 928.445 864.534 C 885.901 888.042 856.782 849.877 833.962 819.642 z"/><path transform="translate(0,0)" fill="rgb(208,0,9)" d="M 1305.96 1019.11 L 1306.45 1020.79 C 1303.18 1028.18 1295.47 1038.13 1290.26 1044.42 C 1253.58 1088.69 1208.93 1124.14 1156.41 1147.11 L 1155.85 1146.76 L 1156.08 1145.66 C 1176.09 1134.65 1196.06 1113.75 1213.06 1098.55 C 1240.25 1074.26 1275.63 1039.42 1305.96 1019.11 z"/><path transform="translate(0,0)" fill="rgb(42,161,234)" d="M 499.787 1158.44 C 507.385 1161.66 514.702 1164.71 522.122 1168.35 C 519.63 1173.6 517.149 1178.48 515.422 1184.05 C 510.606 1200.29 515.83 1219.11 523.629 1233.63 C 529.696 1244.72 537.33 1254.88 546.295 1263.79 L 545.603 1264.98 C 542.899 1262.32 543.008 1261.39 540.245 1261.36 L 538.749 1263.35 C 539.698 1266.62 541.45 1270.82 541.491 1273.79 C 511.927 1254.15 487.59 1214.42 494.076 1178.12 C 495.704 1170.34 497.147 1166.01 499.787 1158.44 z"/><path transform="translate(0,0)" fill="rgb(7,109,193)" d="M 499.787 1158.44 C 507.385 1161.66 514.702 1164.71 522.122 1168.35 C 519.63 1173.6 517.149 1178.48 515.422 1184.05 C 511.039 1184.03 504.14 1183.57 499.861 1182.83 C 495.578 1182.09 496.102 1181.48 494.076 1178.12 C 495.704 1170.34 497.147 1166.01 499.787 1158.44 z"/><path transform="translate(0,0)" fill="rgb(254,254,254)" d="M 529.41 902.652 C 555.411 916.103 583.422 926.775 609.6 939.988 C 627.059 948.799 644.738 952.584 654.848 970.746 C 659.761 974.337 664.771 988.233 666.985 993.844 C 645.702 972.64 628.062 963.156 600.415 951.29 C 592.67 947.966 579.897 942.718 572.988 938.488 C 561.165 933.958 547.085 930.399 539.774 919.539 C 536.067 914.033 533.177 908.034 529.41 902.652 z"/><path transform="translate(0,0)" fill="rgb(42,161,234)" d="M 572.988 938.488 C 588.785 940.883 635.387 964.266 654.848 970.746 C 659.761 974.337 664.771 988.233 666.985 993.844 C 645.702 972.64 628.062 963.156 600.415 951.29 C 592.67 947.966 579.897 942.718 572.988 938.488 z"/><path transform="translate(0,0)" fill="rgb(254,254,254)" d="M 1389.26 970.833 C 1397.15 957.67 1402.31 954.825 1416.18 949.117 C 1449.19 935.539 1482 917.791 1515.39 905.421 C 1511.48 911.763 1508.11 918.871 1504.77 925.57 C 1500 928.072 1495.16 929.988 1490.12 931.863 C 1468.73 939.823 1447.96 948.289 1427.08 957.551 C 1410.88 967.149 1393.22 980.615 1379.04 993.034 C 1380.7 988.047 1385.14 973.957 1389.26 970.833 z"/><path transform="translate(0,0)" fill="rgb(42,161,234)" d="M 1389.26 970.833 C 1399.41 969.635 1414.06 960.404 1427.08 957.551 C 1410.88 967.149 1393.22 980.615 1379.04 993.034 C 1380.7 988.047 1385.14 973.957 1389.26 970.833 z"/><path transform="translate(0,0)" fill="rgb(148,188,217)" d="M 1348.88 817.382 C 1354.6 820.873 1359.6 820.071 1365.92 818.117 L 1366.96 818.803 C 1367.77 849.872 1365.07 865.937 1343.02 891.487 C 1341.74 892.961 1340.98 893.596 1339.1 893.979 C 1333.17 891.244 1325.64 889.494 1319.22 887.758 C 1322.14 883.665 1324.99 879.372 1328.4 875.706 C 1341.34 853.4 1344.71 843.32 1348.88 817.382 z"/><path transform="translate(0,0)" fill="rgb(42,161,234)" d="M 1328.4 875.706 C 1333.05 874.477 1333.97 874.243 1338.27 876.122 C 1342.5 881.778 1338.82 887.291 1339.1 893.979 C 1333.17 891.244 1325.64 889.494 1319.22 887.758 C 1322.14 883.665 1324.99 879.372 1328.4 875.706 z"/><path transform="translate(0,0)" fill="url(#Gradient1)" d="M 773.857 821.959 C 772.89 817.374 771.915 805.139 776.588 802.477 C 779.328 805.724 781.006 808.387 785.022 809.589 C 787.587 807.664 786.551 807.95 789.414 807.306 C 791.356 809.744 791.435 813.645 791.863 816.911 C 792.331 822.224 792.407 824.465 794.001 829.611 L 795.302 830.663 C 797.217 828.898 798.14 826.549 799.345 824.191 L 800.334 824.351 L 800.429 826.073 C 802.191 828.841 805.315 833.383 806.454 836.279 C 809.615 840.327 813.167 845.105 816.407 849.003 L 812.039 849.948 L 811.606 851.27 C 807.495 853.323 805.289 854.251 800.951 855.769 C 796.537 858.023 794.888 868.365 788.253 869.8 C 787.537 869.849 785.108 869.939 784.541 870.145 C 780.662 862.817 777.75 855.576 776.7 847.31 C 775.279 842.629 775.036 836.883 774.582 831.923 L 773.857 821.959 z"/><path transform="translate(0,0)" fill="rgb(7,109,193)" d="M 800.429 826.073 C 802.191 828.841 805.315 833.383 806.454 836.279 C 809.615 840.327 813.167 845.105 816.407 849.003 L 812.039 849.948 L 811.606 851.27 C 807.495 853.323 805.289 854.251 800.951 855.769 C 796.537 858.023 794.888 868.365 788.253 869.8 C 787.537 869.849 785.108 869.939 784.541 870.145 C 780.662 862.817 777.75 855.576 776.7 847.31 L 779.127 849.938 C 781.903 847.665 782.933 846.405 786.463 845.697 L 788.694 846.545 L 789.622 848.79 C 791.233 852.71 791.489 854.205 794.455 857.033 L 795.654 856.585 C 798.716 850.101 802.562 836.7 799.979 829.907 C 799.249 827.985 799.787 828.164 800.429 826.073 z"/><path transform="translate(0,0)" fill="rgb(3,78,163)" d="M 779.127 849.938 C 781.903 847.665 782.933 846.405 786.463 845.697 L 788.694 846.545 L 789.622 848.79 L 787.505 849.891 C 786.427 856.736 788.721 859.732 790.05 866.744 C 789.223 867.414 788.395 868.085 787.567 868.755 L 788.253 869.8 C 787.537 869.849 785.108 869.939 784.541 870.145 C 780.662 862.817 777.75 855.576 776.7 847.31 L 779.127 849.938 z"/><path transform="translate(0,0)" fill="rgb(42,161,234)" d="M 776.7 847.31 L 779.127 849.938 C 780.334 851.986 786.63 866.147 787.567 868.755 L 788.253 869.8 C 787.537 869.849 785.108 869.939 784.541 870.145 C 780.662 862.817 777.75 855.576 776.7 847.31 z"/><path transform="translate(0,0)" fill="rgb(42,161,234)" d="M 812.039 849.948 C 809.782 845.208 804.806 841.439 806.454 836.279 C 809.615 840.327 813.167 845.105 816.407 849.003 L 812.039 849.948 z"/><path transform="translate(0,0)" fill="rgb(3,78,163)" d="M 800.951 855.769 L 798.44 854.689 L 798.796 853.086 C 802.677 850.77 807.405 849.479 811.606 851.27 C 807.495 853.323 805.289 854.251 800.951 855.769 z"/><path transform="translate(0,0)" fill="rgb(0,11,27)" d="M 773.857 821.959 C 772.89 817.374 771.915 805.139 776.588 802.477 C 779.328 805.724 781.006 808.387 785.022 809.589 C 787.587 807.664 786.551 807.95 789.414 807.306 C 791.356 809.744 791.435 813.645 791.863 816.911 L 789.941 815.256 L 783.729 816.022 C 780.24 818.659 778.071 820.739 773.857 821.959 z"/><path transform="translate(0,0)" fill="rgb(2,28,57)" d="M 773.857 821.959 C 778.071 820.739 780.24 818.659 783.729 816.022 C 783.333 821.938 782.569 825.672 779.176 830.551 C 777.022 831.442 776.86 831.564 774.582 831.923 L 773.857 821.959 z"/><path transform="translate(0,0)" fill="rgb(3,78,163)" d="M 541.491 1273.79 C 541.45 1270.82 539.698 1266.62 538.749 1263.35 L 540.245 1261.36 C 543.008 1261.39 542.899 1262.32 545.603 1264.98 L 546.295 1263.79 C 566.151 1278.96 580.009 1286.46 606 1282.99 C 622.247 1280.83 635.696 1275.95 647.674 1264.41 C 642.722 1273.56 628.413 1299.43 618.428 1301.79 C 601.974 1305.67 551.427 1285.48 541.491 1273.79 z"/><path transform="translate(0,0)" fill="rgb(148,188,217)" d="M 1307.01 801.709 C 1320.33 793.324 1330.14 786.667 1342.77 777.421 C 1343.47 784.08 1343.83 789.172 1346.93 795.341 C 1331.57 809.937 1319.09 828.104 1304.68 843.907 C 1306.37 829.906 1307.15 815.81 1307.01 801.709 z"/><path transform="translate(0,0)" fill="rgb(208,0,9)" d="M 1860.23 886.127 C 1862.53 887.36 1865.76 897.199 1866.86 900.086 C 1844.7 907.577 1821.36 918.432 1798.37 926.657 C 1796.05 923.653 1793.56 917.742 1791.86 914.111 C 1814.77 905.092 1837.57 895.763 1860.23 886.127 z"/><path transform="translate(0,0)" fill="rgb(208,0,9)" d="M 195.727 887.501 C 199.115 888.235 216.773 895.241 220.729 896.863 C 234.75 902.609 251.349 908.102 264.865 914.549 C 263.377 918.258 261.622 922.15 260.038 925.847 C 251.075 928.118 206.029 905.006 191.536 901.171 L 195.727 887.501 z"/><path transform="translate(0,0)" fill="rgb(254,254,254)" d="M 1019.96 875.215 C 1032.73 874.134 1040.33 877.079 1047.52 888.255 C 1049.97 892.068 1053.72 899.432 1048.14 901.782 C 1042.91 900.752 1036.8 895.904 1030.49 893.223 L 1029.44 892.786 C 1017.01 890.64 1008.75 898.046 995.9 903.427 C 999.902 884.972 1000.59 879.129 1019.96 875.215 z"/><path transform="translate(0,0)" fill="rgb(7,109,193)" d="M 440.462 1016.5 C 448.679 1020.55 475.6 1033.09 481.182 1038.77 C 472.351 1041.23 471.236 1045.68 463.672 1050.11 C 460.778 1051.8 459.336 1050.56 455.867 1053.17 C 453.062 1052.64 434.867 1034.27 431.527 1031.04 C 434.643 1026.37 437.563 1021.32 440.462 1016.5 z"/><path transform="translate(0,0)" fill="rgb(42,161,234)" d="M 1342.77 777.421 L 1353.19 769.731 C 1362.12 782.334 1366.32 803.722 1366.96 818.803 L 1365.92 818.117 C 1359.6 820.071 1354.6 820.873 1348.88 817.382 C 1349.16 812.61 1350.42 799.615 1348.79 795.694 L 1346.93 795.341 C 1343.83 789.172 1343.47 784.08 1342.77 777.421 z"/><path transform="translate(0,0)" fill="rgb(3,78,163)" d="M 1453.66 1209.87 C 1454.26 1210.62 1458.74 1228.73 1461.07 1233.92 C 1467.16 1247.48 1468.87 1245.14 1475.77 1255.39 C 1473.04 1256.76 1469.03 1256.32 1465.8 1256.27 C 1458.81 1254.55 1455.43 1253.87 1450.25 1248.5 C 1445.44 1243.59 1442.84 1236.92 1443.05 1230.05 C 1443.4 1220.7 1447.27 1215.97 1453.66 1209.87 z"/><path transform="translate(0,0)" fill="rgb(3,78,163)" d="M 594.297 1208.47 C 598.465 1211.38 601.811 1215.94 604.928 1219.94 C 605.622 1236.96 603.145 1250.58 585.512 1256.28 C 581.354 1256.46 576.063 1256.11 571.817 1255.95 C 586.461 1239.51 592.18 1230.83 594.297 1208.47 z"/><path transform="translate(0,0)" fill="rgb(42,161,234)" d="M 1848.18 866.509 L 1849.21 868.222 C 1814.32 884.261 1778.86 899.017 1742.89 912.462 C 1728.62 917.886 1711.66 925.073 1697.33 929.439 C 1697.23 928.909 1697.33 927.58 1697.35 926.974 C 1715.03 921.334 1741.2 908.518 1759.29 901.15 C 1788.94 889.074 1818.45 878.237 1848.18 866.509 z"/><path transform="translate(0,0)" fill="rgb(42,161,234)" d="M 192.108 862.967 C 205.188 866.902 221.162 874.24 234.336 879.067 C 270.566 892.341 304.855 908.03 340.014 923.843 L 339.532 926.3 C 333.037 922.741 309.918 914.252 301.603 911.041 C 281.973 903.459 263.37 895.393 244.072 886.973 C 226.763 879.422 208.023 873.057 192.108 862.967 z"/><path transform="translate(0,0)" fill="rgb(254,254,254)" d="M 1272.09 574.811 C 1281.34 582.764 1297.07 640.078 1290.67 649.108 C 1288.09 650.847 1288.06 651.221 1285.07 651.564 C 1284.24 649.799 1282.77 632.305 1282.21 628.314 C 1279.69 610.261 1274.81 592.634 1272.09 574.811 z"/><path transform="translate(0,0)" fill="rgb(3,78,163)" d="M 187.29 737.262 C 199.591 736.053 209.238 739.745 217.025 749.72 C 219.711 753.162 229.448 767.259 229.135 770.497 L 227.227 769.18 C 214.79 757.052 194.135 748.815 180.299 740.785 C 181.864 738.753 184.425 738.371 187.29 737.262 z"/><path transform="translate(0,0)" fill="rgb(3,78,163)" d="M 1848.22 737.117 C 1854.14 736.794 1863.7 737.783 1869.93 738.249 C 1857.89 745.668 1847.17 752.466 1835.53 760.48 L 1821.26 770.993 C 1827.37 755.671 1832.93 744.573 1848.22 737.117 z"/><path transform="translate(0,0)" fill="rgb(3,78,163)" d="M 1935.04 760.823 C 1950.56 769.199 1961.8 795.548 1963.48 812.511 C 1958.05 807.679 1939.21 768.96 1935.04 760.823 z"/><path transform="translate(0,0)" fill="rgb(148,188,217)" d="M 1232.84 583.587 C 1242.79 579.138 1264.14 569.797 1273.86 566.922 C 1266.37 573.463 1235.3 593.16 1227.08 595.609 L 1227.36 594.087 C 1229.27 592.145 1231.78 590.78 1234.11 589.313 L 1234.17 588.949 C 1231.59 587.077 1232.16 587.753 1227.95 587.693 L 1232.84 583.587 z"/><path transform="translate(0,0)" fill="rgb(3,78,163)" d="M 110.823 762.946 L 111.465 764.522 C 103.971 780.077 94.287 793.286 86.8435 809.904 L 86.0085 809.038 C 86.3212 801.327 90.4995 790.775 93.4237 783.478 C 97.0324 774.473 103.656 769.038 110.823 762.946 z"/><path transform="translate(0,0)" fill="rgb(254,254,254)" d="M 1528.67 911.83 C 1533.16 909.266 1540.06 904.279 1544.74 905.205 C 1546.79 908.349 1545.93 908.528 1545.62 913.283 C 1544.6 914.8 1543.73 916.212 1542.53 917.598 L 1529.74 923.288 L 1523.47 925.76 C 1525.06 920.53 1526.6 916.818 1528.67 911.83 z"/><path transform="translate(0,0)" fill="rgb(208,0,9)" d="M 1143.82 1360.9 C 1136.53 1369.15 1129.3 1377.45 1122.13 1385.79 L 1120.06 1383.8 C 1120.25 1382 1120.37 1382.04 1121.33 1380.56 L 1119.14 1381.31 L 1117.36 1380.51 C 1125.52 1374.36 1135.45 1366.44 1143.82 1360.9 z"/><path transform="translate(0,0)" fill="rgb(3,78,163)" d="M 1848.18 866.509 C 1853.69 863.493 1860.24 860.708 1866.48 859.834 C 1863.93 862.817 1853.21 866.687 1849.21 868.222 L 1848.18 866.509 z"/><path transform="translate(0,0)" fill="rgb(2,28,57)" d="M 351.771 928.56 C 356.672 930.011 362.158 932.634 366.597 935.193 C 359.679 934.658 356.021 932.915 349.553 930.439 L 351.771 928.56 z"/><path transform="translate(0,0)" fill="rgb(5,45,92)" d="M 1697.33 929.439 C 1694.36 931.145 1688.87 932.757 1685.43 933.936 L 1684.74 931.575 L 1682.28 933.471 L 1682.22 933.928 C 1685.66 930.884 1692.78 928.714 1697.35 926.974 C 1697.33 927.58 1697.23 928.909 1697.33 929.439 z"/><path transform="translate(0,0)" fill="rgb(3,78,163)" d="M 340.014 923.843 L 351.771 928.56 L 349.553 930.439 L 339.532 926.3 L 340.014 923.843 z"/></svg>