<?xml version="1.0" encoding="UTF-8"?><svg id="Layer_2" xmlns="http://www.w3.org/2000/svg" viewBox="0 0 793.43 758.24"><defs><style>.cls-1{fill:#b72027;}.cls-2{fill:#030303;}.cls-3{fill:#fefefe;}</style></defs><g id="Layer_1-2"><g id="NLaIpZ"><path class="cls-3" d="M207.3,221.31l-.13,1.03c-.06.51-1.01.15-1.6-.27-10.17-7.17-17.3-17.18-20.76-28.89-2.91,26.03,10.06,52.61,31.61,65.92-4.17,15.67-15.48,26.98-28.88,35.46-12.26,7.76-25.44,11.32-40.9,15.43,28.49,13.12,59.65,18.05,92.92,14.58-5.88,21.77-11.68,42.29-14.05,64.22-6.35,1.4-9.75,5.31-10.69,10.91-3.78,18.3-3.3,36.54-1.07,54.61-17.13,5.47-34.36,13.38-47.59,26.88,1.67,4.51,5.06,7.04,6.02,10.99l-19.55-8.29c-3.62-1.54-1.2-6.95,1.02-9.36,12.42-13.45,27.13-23.2,43.29-33.11-28.51-26.23-67.77-22.78-99.7-6.85C40.37,462.97-3.09,519.32.17,585.43c1.07,21.63,8.3,41.14,20.42,58.91,26.22,38.47,75.46,76.68,125.24,72.98l-14.7-13.62c32.61-8.61,60.36-28.92,84.88-52.15l-12.29-2.12c13.25-13.13,22.06-27.93,27.34-45.53l11.73,6.42c3.02,12.98,8.98,24.19,16.19,35.64,29.98,47.64,82.84,91.41,135.1,112.28,45.99-21.38,89.97-59.74,121.95-98.16,11.11-13.35,20.55-26.64,30.54-40.61,3.49-4.88,10.77-6.63,15.69-9.86,5.5,16.19,14.37,28.4,25.44,40.33l-12.33,1.83c25.76,22.84,50.13,42.81,84.95,51.88l-14.91,13.58c41.9,3.68,83.4-23.65,109.48-53.38,25.41-28.96,39.55-65.81,38.47-104.5-.65-23.28-8.38-44.24-20.43-63.69-17.15-27.69-41.36-50.15-70.57-63.36-.34-3,5.63-3.74,7.01-7.07,17.55,8.21,32.19,19.41,46.86,32.87,7.33-16.27,9.39-34.06,3.87-51.84,10.35-5.35,21.01-6.65,21-19.01-.02-40.68-3.29-80.98-20.29-118.43-2.82-6.22,7.03-12.27,6.19-17.6-7.9-50.13-35.07-110.97-80.55-138.01-20.27-47.48-67.15-80.99-115.33-95.52-9.67-2.92-18.76.25-27.35-1.54-11.13-2.31-21.32-9.04-33.04-11.52-41.43-8.74-83.72-5.74-121.87,14.03-23.04-2.29-63.93,23.26-81.6,38.45-16.03,13.79-29.29,29.03-39.11,47.64-16.94,11.45-27.94,27.77-34.12,47.7-1.72-8.12.59-15.84,1.7-24.22-34.65,19.15-44.8,59.85-28.45,93.07Z"/><path class="cls-2" d="M709.39,425.23c-12.06-5.64-23.92-11.93-38.33-14.93l19.26-14.24,24.41,13.17c-19.02-32.36-56.03-50.98-93.24-45.95-13.78,1.86-25.07,9.58-36.46,16.66l19.14,4.42c13.77,3.18,25.4,11.57,34.13,22.66l-20.19,4.92c-13.97-12.87-37.98-18.69-56.93-17.41,1.53,6.61,1.18,14.59,5.73,19.37l11.89,12.49c-4.54,2.74-9.53,4.35-12.86,9.14,6.18,10.22,12.53,18.1,21.86,25.47-3.63,4.96-5.59,10.24-5.21,15.83,11.11-1.14,21.66-1.71,33.15.57l-10.37,20.86c11.21-5.95,22.37-10.63,34.09-14.78,2.28-2.84-.29-7.6-1.69-10.44-8.24-16.71-20.94-29.55-38.76-36.94,14.1-13.36,32.34-18.39,51.43-17.96,18.53.42,35.19,6.57,51.94,14.14,29.21,13.2,53.42,35.67,70.57,63.36,12.05,19.45,19.78,40.41,20.43,63.69,1.08,38.69-13.06,75.54-38.47,104.5-26.08,29.73-67.58,57.06-109.48,53.38l14.91-13.58c-34.83-9.07-59.19-29.03-84.95-51.88l12.33-1.83c-11.08-11.93-19.95-24.13-25.44-40.33-4.92,3.24-12.2,4.99-15.69,9.86-9.99,13.97-19.42,27.25-30.54,40.61-31.98,38.42-75.96,76.78-121.95,98.16-52.26-20.87-105.12-64.64-135.1-112.28-7.21-11.45-13.17-22.65-16.19-35.64l-11.73-6.42c-5.28,17.6-14.09,32.4-27.34,45.53l12.29,2.12c-24.52,23.23-52.27,43.53-84.88,52.15l14.7,13.62c-49.78,3.7-99.01-34.51-125.24-72.98-12.12-17.78-19.35-37.28-20.42-58.91-3.26-66.11,40.2-122.46,97.09-150.85,31.93-15.94,71.19-19.38,99.7,6.85-16.17,9.91-30.87,19.66-43.29,33.11-2.22,2.41-4.64,7.82-1.02,9.36l19.55,8.29c7.43,3.15,13.28,9.48,21.58,13.21-1.69-7.97-7.75-12.75-10.99-20.87,8.16-2.09,16.78-.93,25.48-.23.04-6-2.12-11.4-4.41-17.01,2.98-2.96,6.68-4.49,9.65-6.84,2.41-1.9.52-3.98.26-6.13-2.23-18.07-2.71-36.31,1.07-54.61.95-5.6,4.35-9.52,10.69-10.91,2.37-21.93,8.17-42.44,14.05-64.22-33.27,3.46-64.44-1.47-92.92-14.58,15.46-4.12,28.64-7.67,40.9-15.43,13.4-8.48,24.7-19.79,28.88-35.46,1.26-4.75,5.31-7.25,1.56-13.87-2.29-4.04-3.04-16.21-10.69-23.93-16.35-33.22-6.2-73.92,28.45-93.07-1.11,8.38-3.42,16.11-1.7,24.22,6.19-19.93,17.18-36.25,34.12-47.7,9.82-18.6,23.08-33.85,39.11-47.64,17.66-15.19,58.55-40.73,81.6-38.45,38.15-19.77,80.44-22.76,121.87-14.03,11.71,2.47,21.9,9.2,33.04,11.52,8.59,1.79,17.68-1.38,27.35,1.54,48.18,14.53,95.06,48.04,115.33,95.52,45.47,27.03,72.65,87.88,80.55,138.01.84,5.32-9.01,11.38-6.19,17.6,17,37.45,20.28,77.75,20.29,118.43,0,12.37-10.65,13.67-21,19.01,5.52,17.77,3.46,35.56-3.87,51.84-14.67-13.46-29.31-24.66-46.86-32.87ZM544.22,69.21c.69,5.67,3.08,12.09-.06,17.78-12.17,22.08-43.46,22.55-65.64,14.22l-19.48-7.32-.77,13.52c10.97,4.76,21.76,8.3,33.53,10.52,19.76,3.73,40.27-1.52,54.65-15.35,11.78-11.33,14-28.51,6.8-42.57-5.19-10.13-9.99-24.38-20.65-30.7-30.25-17.95-88.24-19.85-120.83-3.47,20.63,9,34.31,23.04,42.58,43.11.43-14.26-5.97-26.09-14.4-37.81,27.94-8.2,58.51-5.66,85.58,4.76,8.7,9.75,13.46,21.52,18.68,33.3ZM653.94,122.98c.87,5.99,1.42,12.17-3.56,17.65-5.38,5.93-13.15,14.01-21.87,14.42-16.69.8-49.3-30.02-60.9-42.25l-9.79,9.5c10.92,13.23,40.93,41.6,56.45,44.81,14.1,2.91,29.23-2.46,39.4-12.4,10.81-10.56,14.69-25.22,12.99-39.89-.56-4.84-3.88-8.15-5.98-11.64-20.17-33.53-55.1-58.47-92.55-70.29-2.32-.73-4.88-.05-5.75,1-.96,1.17-1.14,4.24-.17,5.85,5.09,8.41,9.79,16.51,12.88,25.91,8.64,26.27-5.38,38.2-1.49,40.87.91.62,2.11.16,3.11-.92,11.78-12.63,10.84-30.81,7.51-47.18,31.66,10.36,57.93,29.63,67.74,62.24.37,1.22,1.13,2.08,1.96,2.33ZM422.02,66.28c12.83,18.47,10.95,43-5.57,59.25-7.5,7.38-17.19,11.29-27.04,14.23l8.46,16.4c27.15-14.67,46.14-41.88,41.22-73.56-2.23-14.37-9.99-24.72-20.71-32.33s-22.88-13.94-37.06-16.85c-34.11,10.75-64.95,31.03-87.43,60.12,16.18-2.15,30.96-1.6,45.06,5.1,10.23,3.5,17.9,10.32,27.99,15.73-8.88-13.36-21.59-22.47-34.82-31.02,14.75-15.08,31.44-26.39,50.48-35.75,14.56,4.06,25.84,14.77,31.7,28.63,1.57,2.68,1.8,5.72,4.26,8.37,2.38-7.86-.77-14.84-3.57-23.03,3.16.49,4.34,3.79,7.03,4.72ZM327.4,246.45c-8.23,5.5-16.58,9.01-26.03,9.76-1.03.08-1.05-1.88-.96-2.42.1-.57,1.65-.5,2.26-1.15,25.79-26.94,42.56-61.98,28.65-99.27-1.48-3.98-3.03-7.55-4.07-12.11,13.57,6.1,24.78,14.89,33.42,26.5,15.44,20.77,15.34,48.52-1.3,68.35,2.19,4.97,2.04,9.48,2.85,14.57,22.13-21.06,28.77-52.56,19.52-80.77-7.77-23.69-23.22-44.11-45.44-55.23-23.13-11.57-48.76-7.24-67.83,9.87s-25.52,47.54-20.7,73.47c-12.94-4.94-21.51-15.63-26.57-28.77-11.71,36.33,10.46,56.14,13.21,75.04s-5.87,36.83-19.91,49.12c-6.27,5.49-13.02,8.69-19.83,13.35,47.21,9.55,99.15-10.84,130.05-44.8,8.67-9.53,14.93-20.26,17.75-32.74-5.38,5.6-8.46,12.82-15.06,17.24ZM477.39,343.58c9.07-17.68,14.96-34.29,18.84-52.9,12.57,10.31,22.57,21.49,31.12,34.58,9.36,15.23,16.46,30.86,22.02,48.84,21.4-12.73,42.36-23.79,65.48-32.54,1.39-23.98,9.21-45.93,20.29-66.99-12.09-14.26-20.74-29.35-26.16-46.59-5.4-14.44-7.8-28.96-7.83-44.8-24.14-15.02-40.62-31.61-60.96-52.65-31.06,11.26-56.79,4.86-86.73-6.54-11.31,24.11-27.31,38.69-50.33,51.27,4.49,39.13-1.18,71.86-32.03,97.84-16.38,13.8-35.12,23.35-55.83,30.36,2.09-5.1,5.43-8.76,6.12-14.55-10.17,6.95-18.7,14.19-29.71,20.05-1.81,14.99-1.33,30.39,2.81,45.02,9.63-5.89,16.56-11.85,25.63-16.08,37.92-21.32,82.28-24.39,123.12-9.56,11.95,4.34,22.52,9.42,34.14,15.23ZM731.26,257.77c5.99-3.78,15.19-10.19,13.71-17.39-7.83-38.23-26.89-80.02-58.06-106.22-2.45,5.65-3.29,11.38-5.42,17.15-6.84,18.45-19.79,25.16-18.83,28.35.16.53.68,2.06,1.68,1.73,12-3.93,19.49-12.75,26.05-24.14,27.84,30.42,39.87,59.25,40.87,100.51ZM672.41,246.69l-8.85-34.64c-2.9-10.11-5.31-19.66-10.06-29.79-10.4,5-20.54,6.77-31.73,7.48,2.81,27.25,13,51.75,30.28,71.91,10.77,5.19,21.64,9.05,33.75,9.12-6.8-7.44-10.98-14.68-13.38-24.08ZM748.94,368.44c-.21,5.49-.8,10.26-.11,15.81,3.63.47,11.79-.57,12.85-5.28,2.43-34.98-3.58-69.82-16.04-102.72-13.74,9.64-28.06,14.79-44.03,16.44-1.74.18-1.45,3.96-.49,4.88,12.84,1.95,25.1-.13,37.85-5.52,8,24.79,10.99,50.41,9.97,76.39ZM677,350.23c8.88-18.7,12.78-37.21,12.63-56.82-13.09-.21-24.64-2.8-36.76-5.85-7.69,14.23-12.49,28.84-14.59,44.72.35,2.69.04,7.99,3.14,9.1,11.58,4.15,23.46,6.6,35.58,8.84ZM243.36,419.28c-.35,1.98,1.32,4.27-1.11,6.42-3.08-4.7-5.92-8.68-9.05-12.46-1.9-2.29-2.08-6.38-5.82-7.88-3.36,19.63-1.98,39.37,6.93,57.02,1.34,2.65,4.02,1.98,5.86,3.03,3.53,2,6.14,3.71,12.29,4.25-3.56-9.64,3.59-20.15,1.91-28.99-.79-4.16-13.09-16.02-1.21-32.83,2.04,1.39,4.4,3.42,6.04,5.58,4.12,5.45,8.58,9.78,13.09,15.03,22.26,25.94,65.11,71.33,93.91,87.88,3.94,2.26,7.22,2.76,11.39,1.11,34.83-13.81,77.61-47.67,106.66-72.01,9.26-7.75,17.49-15.11,27.1-22.35,1.44-1.08,5.86-3.17,7.2-1.19,5.28,7.79,3.35,18-3.32,24.16-1.36,1.25-2.3,3.14-1.83,4.95l3.96,15.15c8.1-6.13,18.22-10.01,24.84-17.21,9.48-17.65,7.5-39.35.56-57.85-5,8.05-8.57,15.51-16.31,21.37.51-33.62-2.26-65.25-22.32-94.61-4.62,36.74-30.29,77.77-58.39,100.78-11.82,8.99-23.58,18.09-38.96,21.72,23.15-26.01,43.87-51.55,62.22-81.38-45.46-29.59-93.65-31.98-140.9-4.84-3.37,19.27-11.15,40.72-3.41,58.28l11.33,25.7c-8.4-4.82-15.58-12.14-22.56-18.9-1.15-1.11-1.66-3.41-3.06-5.07-23.05-27.29-37.18-59.6-42.77-95.15-4.13.66-7.68,1.51-11.63,3.16-13.06,34.56-14.7,61.03-12.66,97.17ZM311.81,394.13l1.99-30.33c-5.49,3.08-9.07,6.78-13.52,10.86,3.02,7.18,6.61,13.73,11.54,19.47ZM744.52,624.44c-3-3.87-3.53-9.01-5.66-13.88-6.73-15.36-14.49-29.8-23-44.16l-15.24,7.15c-4.56-13.18-5.71-25.96-6.83-39.18-5.68,6.07-10.86,11.17-17.81,16.1l-2.28-23.37-14.87,3.29c-2.37-7.34-2.21-14.98-3.42-23.13-8.41,2.28-15.83,5.54-23.62,9.18-2.07,22.61,7.22,46.76,27.66,57.9l11.86-5.09c2.68,9.21,4.83,17.77,8.86,26.81,3.91-3.59,6.36-7.3,10.41-9.99,8.89,3.36,16.07,8.82,23.51,14.5,14.45,11.03,23.23,26.25,26.05,44.87,2.79-4.3,2.55-8.58,4.42-13.33,19.12-14.39,26.95-50.26,25.16-73.62-2.05-26.81-12.57-51.51-29.03-72.58-8.36-10.7-17.44-20.48-28.64-28.21-18.96-13.08-54.1-24.68-77.05-22.12l51.67,31.72c-2.53,7.98-10,10.17-18.56,11.24,16.25,7.74,24.18-.6,38.27-3.66,34.67,31.66,53.53,69.56,49.41,117.4-1.03,12-3.95,23.2-11.28,32.14ZM47.15,633.07c1.57,3.81,1.77,8.04,4.13,12.42,4.09-13.39,5.29-23.94,15.85-35.45,9.54-10.4,20.95-18.6,33.86-24.21l10.01,9.83c4.18-8.2,6.37-16.99,8.79-26.14,3.83,1.71,7.12,3.89,11.78,5.25,21.29-13.01,29.34-33.65,27.63-58.17-7.52-4.11-14.86-6.64-23.17-9.3-1.34,7.63-1.51,15.16-3.75,22.93l-14.17-3.05-2.95,23.03c-6.95-4.21-12.13-9.82-18.2-15.81-.38,13.31-2.11,26.32-6.25,39.17l-15.56-7.06c-8.37,14.06-15.85,28.27-22.21,43.47-2.16,5.17-2.3,10.7-5.71,15.24-4.38-5.83-8.46-13.09-9.91-20.91-9.45-50.96,13.98-94.88,50.66-128.2,12.08,4.58,23.59,9.09,33.92,2.88-7.38-1.24-13.69-3.76-15.66-10.75,17.21-12.99,36.15-22.25,55.97-30.26-27.22-4.35-62.82,6.63-83.69,23.54-27.12,21.97-46.76,51.29-53.85,85.81-6.02,29.33-.1,65.86,22.47,85.74ZM297.21,499.47l-1.91-22.69c-.61-7.3-9.25-11.74-14.37-17.51-5.31,15.74-3.96,33.31,4.96,47.41,9,14.22,25.96,22.52,42.01,16.87-15.89-.77-29.42-9.09-30.69-24.07ZM238.15,478.18c-1.47-1.49-6.61-5.08-8.32-2.61-3.71,5.46-3.42,13.06-4.28,19.67-2.45,18.74,2.25,36.9,13.56,51.92.52.7.8,1.84,2.11,2.08-.02-5.81-2.39-21.57,2.01-24.71,13.9-9.91,61.42,29.28,71.97,40.91,3.58,10.58,5.32,19.49,16.62,23.54.21-5.07-2.41-10.7.02-15.13,1.98-3.6,7.37-1.16,9.63,1.2,12.21,12.66,21.77,39.47,34.1,28.24,7.89-7.19,14.76-14.9,22.2-22.57,4.34-4.48,12.11-11.61,17.82-7.21,1.46,1.13,1.97,3.45,1.52,5.68l-1.9,9.44c13.04-1.61,16.72-20.94,20.65-24.02,22.88-17.88,61.12-39.73,90.45-42.55,5.03-.48,8.5,1.86,9.68,6.62,1.27,5.12.61,9.95.66,15.67,9.69-7.89,17.85-17.33,21.3-29.47,4.79-16.89,2.54-34.64-4.36-50.58-.85-1.96-3.16-2.53-4.9-1.56-12.35,6.92-23.89,14.14-35.51,22.48-7.04,30.33-39.82,51.98-68.7,57.04-13.44,2.35-25.56-.89-36.98-8.61-.2,8.01-.95,15.03-4.8,20.56-2.31-5.1-3.96-12.71-9.51-14.44-5.49-1.71-11.64-.92-17.3-1.82-8.28-1.32-16.72.82-24.97,1.53l-7.18,15.91c-3.6-6.57-3.76-13.12-4.32-20.74-12.41,7.65-25.68,8.85-37.94,2.43-21.74-11.38-38.51-27.76-46.25-51.75-5.3-3.02-10.74-5.66-17.08-7.17ZM424.42,519.02c8.75,8.27,21.94,9.62,33.27,5.61,24.98-8.84,34.79-35.02,25.57-59.99-8.22,6.09-15.74,11.79-23.06,18.36-2.33,2.09-2.72,5.45-1.83,7.81,1.99,5.24,7.74,4.95,13.15,3.95-1.37,13.83-11.03,25.6-24.88,28.02-7.74,1.35-13.84-2.15-22.22-3.76ZM581.92,596.05c-3.54-13.27-4.82-26.63-2.79-39.83,1.24-8.07,6.56-14.38,11.13-21.21,2.59,4.5,2.54,8.84,6.13,12.85l23.4-48.22c-18.14,3.09-40.02,33.17-48.02,47.94-2.37,4.38-.77,10.87-1.08,15.71-1.31,20.6,5.23,40.17,17.43,55.98l-6.19-23.21ZM194.22,530.26c5.83-1.74,16.25,18.52,17.25,25.01,2.59,16.69.11,33.36-4.49,49.36l-4.51,15.7c9.02-11.34,15.14-24.08,16.98-38.9,4.8-38.56-.97-36.58-21.93-63.19-3.92-4.98-8.35-8.09-13.18-10.95-4.23-2.5-8.25-5.62-13.92-6.62l24.43,48.05c1.54-.38,2.26-3.22,1.91-5.06l-2.54-13.4ZM433.29,638.57c14.89-5.19,26.6-12.58,37.77-21.6,22.46-18.99,34.91-46.98,32.38-76.9-19.49,7.58-36.71,17.92-53.49,30.07.94,16.1-1.2,31.1-7.18,45.55l-9.48,22.88ZM306.19,607.11c-3.55-11.73-4.77-22.89-3.13-34.82-11.96-11.88-24.84-22.18-40.16-31.4-2.88,21.15,2.33,41.68,12.85,60.09,9.92,17.37,25.37,30.13,43.59,37.91-5.16-11-9.98-20.47-13.15-31.78ZM647.46,597.23c-6.53.25-12.93,1.62-20.25,3.5,8.3,29.32,24.01,55.17,47.59,75.96-24.51-.07-54.27-24.84-66.81-45.06-1.19,1.03-3.62,3.45-3.49,5.61,12.13,24.03,33.05,41.84,58.64,50.03,4.19,1.34,8.21,2.2,12.11,2.11,17.14-.4,32.87-8.46,44.68-19.76-7.41.5-13.06-.1-19.79-1.43,1.89-4.84,4.43-8.76,5.46-14.21l-19.51.48-.59-25.2-22.38-.71-5.34-31.2c-3.32-.98-6.49-.35-10.31-.12ZM115.21,689.35c2.91.46,5.71-.33,8.91-1.17,26.25-6.88,47.78-23.71,60.7-47.42,1.91-3.5,2.3-7.13-1.23-9.52-11.83,20.02-43.12,46.15-66.72,45.37,24.28-21.44,37.71-45.19,47.04-75.64-6.8-2.2-13.21-3.2-20.55-3.5-3.06-.12-6.22-.54-9.87.09l-5.44,30.64-22.39,1.15-.51,24.95-19.19-.26c.44,5.05,2.82,8.74,4.9,13.82-5.92,2.12-11.98,1.7-18.67,2.54,11.75,11.37,26.65,17.69,43.02,18.96ZM416.53,631.67l-31.45,15.27c-1.4,19.06.31,36.96,6.67,56.06,37.35-20.98,74.29-41.12,110.01-64.46,3.83-2.5,29.03-29.89,23.45-33.59-1.05-.7-3.88-1.03-5.21.22-13.37,12.57-26.55,24.7-42.2,34.62-15.17,9.61-30.86,16.87-47.98,22.05-4.59,1.39-18.54,4.85-21.01,1.45-3.65-5.03,6.62-24.93,7.73-31.61ZM367.98,647.35l-32.56-16.04c1.67,4.94,12.85,29.23,8.1,32.09-3.62,2.18-9.39.9-13.62-.61-24.9-8.87-46.27-24.75-62.77-45.16-.8-.99-2.78.13-3.18.81s-1.08,2.47-.21,3.63c5.39,7.15,9.62,15.41,16.45,21.36,6.43,5.6,13.72,9.38,20.87,14.29,23.9,16.37,47.79,31.8,74.33,45.45-2.9-22.53-7.5-33.34-7.42-55.81ZM399.95,733.35c30.14-17.42,56.83-38.52,79.67-63.54,2.91-3.19,4.58-7.05,3.23-11.12-2.72-.2-5.04,1.25-7.38,2.74l-71.21,45.54c-3.86,2.47-7.24,4.71-9.65,8.45,1.5,6.05,2.25,11.86,5.34,17.93ZM367.91,708.81c-15.42-9.42-30.03-18.9-44.91-29.1-7.75-5.31-15-10.27-23.33-14.87-.32,3.39,1.18,5.81,3.24,8.1,22.22,24.76,48.78,45.16,78.92,59.37-3.58-18.1-.72-15.43-13.92-23.5Z"/><path class="cls-1" d="M172.19,492.18c-.96-3.95-4.35-6.48-6.02-10.99,13.23-13.51,30.46-21.41,47.59-26.88.26,2.15,2.15,4.23-.26,6.13-2.97,2.34-6.67,3.88-9.65,6.84,2.29,5.61,4.45,11.01,4.41,17.01-8.7-.69-17.32-1.86-25.48.23,3.24,8.12,9.3,12.9,10.99,20.87-8.3-3.73-14.15-10.06-21.58-13.21Z"/><path class="cls-1" d="M207.3,221.31c7.65,7.72,8.4,19.88,10.69,23.93,3.75,6.62-.3,9.12-1.56,13.87-21.55-13.31-34.52-39.88-31.61-65.92,3.45,11.71,10.59,21.72,20.76,28.89.59.41,1.53.77,1.6.27l.13-1.03Z"/><path class="cls-3" d="M477.39,343.58c-11.62-5.81-22.19-10.89-34.14-15.23-40.84-14.83-85.21-11.77-123.12,9.56-9.08,4.23-16.01,10.19-25.63,16.08-4.14-14.63-4.63-30.02-2.81-45.02,11.02-5.86,19.54-13.1,29.71-20.05-.7,5.78-4.04,9.45-6.12,14.55,20.71-7.01,39.45-16.56,55.83-30.36,30.85-25.98,36.52-58.72,32.03-97.84,23.02-12.58,39.02-27.16,50.33-51.27,29.94,11.39,55.67,17.79,86.73,6.54,20.33,21.04,36.82,37.62,60.96,52.65.03,15.84,2.43,30.36,7.83,44.8,5.42,17.24,14.07,32.33,26.16,46.59-11.08,21.06-18.9,43.01-20.29,66.99-23.12,8.75-44.08,19.81-65.48,32.54-5.56-17.97-12.66-33.61-22.02-48.84-8.55-13.1-18.55-24.28-31.12-34.58-3.88,18.61-9.76,35.23-18.84,52.9Z"/><path class="cls-1" d="M240.18,465.42l-4.6-16.74c-3.24-11.77-4.22-23.79-2.37-35.43,3.12,3.78,5.96,7.77,9.05,12.46,2.42-2.16.76-4.44,1.11-6.42,4.75-27.21,7.61-54.72,17.86-81.79,6.39,30.86,17.95,61.37,42.88,79.8,2.91,2.15,6.44,2.95,9.38,1.9,6.99,6.75,14.17,14.08,22.56,18.9l-11.33-25.7c-7.74-17.56.04-39.01,3.41-58.28,47.25-27.14,95.43-24.75,140.9,4.84-18.35,29.83-39.07,55.37-62.22,81.38,15.38-3.63,27.14-12.73,38.96-21.72,28.11-23.01,53.78-64.05,58.39-100.78,20.06,29.36,22.83,60.99,22.32,94.61,7.74-5.86,11.31-13.31,16.31-21.37,6.94,18.5,8.93,40.2-.56,57.85-6.63,7.2-16.74,11.08-24.84,17.21l-3.96-15.15c-.47-1.81.47-3.7,1.83-4.95,6.67-6.16,8.6-16.37,3.32-24.16-1.34-1.97-5.76.11-7.2,1.19-9.62,7.24-17.85,14.6-27.1,22.35-29.05,24.34-71.83,58.2-106.66,72.01-4.17,1.65-7.46,1.15-11.39-1.11-28.8-16.55-71.64-61.94-93.91-87.88-4.51-5.25-8.97-9.59-13.09-15.03-1.64-2.16-4-4.2-6.04-5.58-11.88,16.82.42,28.67,1.21,32.83,1.68,8.84-5.46,19.35-1.91,28.99-6.16-.54-8.77-2.24-12.29-4.25ZM362.08,490.75c2.74-5.96,3.38-11.74,4.65-18.08l17.45-87.31c2.58-12.91,4.5-24.73,5.97-38.29-19.92,39.77-38.39,99.31-28.07,143.68Z"/><path class="cls-1" d="M327.4,246.45c6.6-4.42,9.68-11.64,15.06-17.24-2.82,12.48-9.08,23.21-17.75,32.74-30.9,33.95-82.84,54.34-130.05,44.8,6.81-4.66,13.56-7.86,19.83-13.35,14.04-12.29,22.65-30.28,19.91-49.12s-24.91-38.71-13.21-75.04c5.05,13.15,13.63,23.83,26.57,28.77-4.81-25.93,2.09-56.78,20.7-73.47s44.69-21.44,67.83-9.87c22.22,11.12,37.67,31.54,45.44,55.23,9.26,28.22,2.62,59.72-19.52,80.77-.82-5.09-.66-9.6-2.85-14.57,16.64-19.82,16.75-47.58,1.3-68.35-8.64-11.62-19.85-20.4-33.42-26.5,1.03,4.56,2.58,8.13,4.07,12.11,13.91,37.28-2.86,72.32-28.65,99.27-.61.64-2.16.58-2.26,1.15s-.07,2.5.96,2.42c9.45-.75,17.8-4.25,26.03-9.76ZM279.61,266.69c5.73-8.32,7.54-18.75,3.51-28.01-5.64-12.94-18.08-19.17-25.94-31.91-4.08,6.82-3.26,13.99-2.45,21.35,7.17,30.88-10.54,54.71-35.45,70.06,22.17-3.64,47.63-13.06,60.33-31.5Z"/><path class="cls-1" d="M239.11,547.16c-.09-3.75-1.38-7.41-2.3-11.46-4.1-17.95-5.72-41.05,1.35-57.52,6.34,1.51,11.78,4.15,17.08,7.17,7.74,23.99,24.52,40.37,46.25,51.75,12.26,6.42,25.53,5.22,37.94-2.43.56,7.62.72,14.17,4.32,20.74l7.18-15.91c8.25-.71,16.68-2.86,24.97-1.53,5.66.91,11.82.11,17.3,1.82,5.55,1.73,7.2,9.33,9.51,14.44,3.85-5.53,4.6-12.55,4.8-20.56,11.41,7.72,23.54,10.96,36.98,8.61,28.89-5.06,61.66-26.71,68.7-57.04,11.62-8.35,23.15-15.56,35.51-22.48,1.74-.98,4.05-.4,4.9,1.56,6.9,15.93,9.15,33.68,4.36,50.58-3.44,12.14-11.61,21.58-21.3,29.47-.04-5.72.61-10.55-.66-15.67-1.18-4.76-4.65-7.1-9.68-6.62-29.34,2.82-67.58,24.67-90.45,42.55-3.94,3.08-7.61,22.4-20.65,24.02l1.9-9.44c.45-2.23-.06-4.56-1.52-5.68-5.71-4.4-13.48,2.73-17.82,7.21-7.44,7.67-14.31,15.39-22.2,22.57-12.33,11.23-21.89-15.57-34.1-28.24-2.27-2.35-7.66-4.8-9.63-1.2-2.43,4.43.19,10.06-.02,15.13-11.3-4.05-13.05-12.96-16.62-23.54-10.55-11.63-58.07-50.82-71.97-40.91-4.4,3.14-2.03,18.89-2.01,24.71-1.3-.24-1.58-1.38-2.11-2.08Z"/><path class="cls-1" d="M744.52,624.44c-.24,2.8.84,5.63.04,7.68-1.87,4.75-1.64,9.03-4.42,13.33-2.82-18.62-11.6-33.84-26.05-44.87-7.44-5.68-14.63-11.14-23.51-14.5-4.05,2.69-6.5,6.39-10.41,9.99-4.03-9.04-6.18-17.6-8.86-26.81l-11.86,5.09c-20.43-11.14-29.73-35.29-27.66-57.9,7.79-3.64,15.21-6.9,23.62-9.18,1.21,8.15,1.05,15.79,3.42,23.13l14.87-3.29,2.28,23.37c6.95-4.92,12.12-10.03,17.81-16.1,1.11,13.23,2.27,26,6.83,39.18l15.24-7.15c8.51,14.36,16.27,28.79,23,44.16,2.14,4.88,2.67,10.01,5.66,13.88Z"/><path class="cls-1" d="M47.15,633.07c.2-2.82-.84-5.85.09-7.85,3.41-4.54,3.55-10.07,5.71-15.24,6.35-15.2,13.83-29.41,22.21-43.47l15.56,7.06c4.14-12.85,5.86-25.85,6.25-39.17,6.07,5.99,11.25,11.6,18.2,15.81l2.95-23.03,14.17,3.05c2.24-7.77,2.41-15.3,3.75-22.93,8.31,2.66,15.65,5.19,23.17,9.3,1.71,24.52-6.34,45.16-27.63,58.17-4.66-1.36-7.95-3.54-11.78-5.25-2.42,9.14-4.62,17.94-8.79,26.14l-10.01-9.83c-12.91,5.61-24.32,13.81-33.86,24.21-10.56,11.51-11.76,22.06-15.85,35.45-2.36-4.38-2.56-8.61-4.13-12.42Z"/><path class="cls-3" d="M744.55,632.12c.81-2.05-.28-4.88-.04-7.68,7.33-8.95,10.25-20.14,11.28-32.14,4.12-47.83-14.74-85.74-49.41-117.4-14.09,3.06-22.02,11.4-38.27,3.66,8.56-1.07,16.03-3.26,18.56-11.24l-51.67-31.72c22.95-2.56,58.09,9.04,77.05,22.12,11.2,7.73,20.28,17.51,28.64,28.21,16.46,21.07,26.97,45.77,29.03,72.58,1.79,23.35-6.04,59.22-25.16,73.62Z"/><path class="cls-3" d="M47.24,625.22c-.93,2,.12,5.03-.09,7.85-22.57-19.88-28.49-56.4-22.47-85.74,7.09-34.52,26.73-63.84,53.85-85.81,20.87-16.91,56.47-27.89,83.69-23.54-19.82,8.02-38.75,17.27-55.97,30.26,1.97,6.99,8.28,9.5,15.66,10.75-10.33,6.21-21.85,1.7-33.92-2.88-36.67,33.32-60.11,77.24-50.66,128.2,1.45,7.82,5.53,15.07,9.91,20.91Z"/><path class="cls-3" d="M416.53,631.67c-1.12,6.68-11.38,26.58-7.73,31.61,2.47,3.4,16.43-.06,21.01-1.45,17.12-5.18,32.81-12.44,47.98-22.05,15.65-9.92,28.84-22.05,42.2-34.62,1.33-1.25,4.16-.91,5.21-.22,5.58,3.7-19.61,31.08-23.45,33.59-35.71,23.34-72.65,43.48-110.01,64.46-6.35-19.1-8.07-37-6.67-56.06l31.45-15.27Z"/><path class="cls-1" d="M433.29,638.57l9.48-22.88c5.98-14.45,8.12-29.45,7.18-45.55,16.78-12.16,34.01-22.49,53.49-30.07,2.53,29.92-9.92,57.91-32.38,76.9-11.17,9.02-22.87,16.41-37.77,21.6Z"/><path class="cls-3" d="M418.38,50.27l3.64,16.02c-2.69-.92-3.87-4.22-7.03-4.72,2.8,8.18,5.95,15.17,3.57,23.03-2.46-2.65-2.69-5.69-4.26-8.37-5.86-13.86-17.14-24.58-31.7-28.63-19.04,9.36-35.74,20.66-50.48,35.75,13.24,8.55,25.94,17.65,34.82,31.02-10.09-5.41-17.76-12.23-27.99-15.73-14.11-6.7-28.89-7.25-45.06-5.1,22.48-29.08,53.32-49.37,87.43-60.12,14.18,2.92,26.15,9.11,37.06,16.85Z"/><path class="cls-1" d="M672.41,246.69c2.4,9.4,6.58,16.64,13.38,24.08-12.11-.07-22.98-3.94-33.75-9.12-17.28-20.16-27.47-44.66-30.28-71.91,11.19-.71,21.33-2.47,31.73-7.48,4.75,10.13,7.16,19.67,10.06,29.79l8.85,34.64Z"/><path class="cls-1" d="M647.46,597.23c5.29,20.58,8.21,35.42,20.16,54.24,6.35,10,17.24,15.7,27.45,22.8-6.14,6.35-13.46,10.37-19.82,15.11-3.91.09-7.92-.77-12.11-2.11-25.59-8.19-46.51-26-58.64-50.03-.13-2.17,2.3-4.58,3.49-5.61,12.54,20.23,42.3,44.99,66.81,45.06-23.58-20.79-39.28-46.63-47.59-75.96,7.32-1.88,13.71-3.25,20.25-3.5Z"/><path class="cls-1" d="M677,350.23c-12.13-2.25-24-4.69-35.58-8.84-3.1-1.11-2.79-6.41-3.14-9.1,2.1-15.89,6.9-30.5,14.59-44.72,12.12,3.04,23.67,5.64,36.76,5.85.15,19.61-3.75,38.12-12.63,56.82Z"/><path class="cls-1" d="M115.21,689.35c-5.32-4.95-12.9-8.26-19.17-14.92,10.96-6.48,20.39-13.66,28.31-23.1,1.99-2.37,2.33-5.95,4.71-8.28,6.45-14.9,11.36-30.05,14.31-45.59,7.33.3,13.74,1.3,20.55,3.5-9.33,30.45-22.76,54.2-47.04,75.64,23.61.78,54.89-25.35,66.72-45.37,3.53,2.39,3.14,6.02,1.23,9.52-12.92,23.71-34.46,40.54-60.7,47.42-3.2.84-6,1.63-8.91,1.17Z"/><path class="cls-3" d="M367.98,647.35c-.08,22.47,4.52,33.28,7.42,55.81-26.54-13.65-50.43-29.07-74.33-45.45-7.16-4.9-14.45-8.69-20.87-14.29-6.83-5.95-11.06-14.21-16.45-21.36-.88-1.16-.19-2.95.21-3.63s2.38-1.8,3.18-.81c16.5,20.41,37.87,36.29,62.77,45.16,4.23,1.51,10,2.79,13.62.61,4.75-2.86-6.43-27.15-8.1-32.09l32.56,16.04Z"/><path class="cls-1" d="M306.19,607.11c3.17,11.31,7.99,20.78,13.15,31.78-18.23-7.78-33.67-20.53-43.59-37.91-10.52-18.41-15.73-38.94-12.85-60.09,15.32,9.22,28.2,19.52,40.16,31.4-1.65,11.93-.43,23.09,3.13,34.82Z"/><path class="cls-3" d="M660.69,103.18c-2.1,1.71-7.32,3.57-7.32,7.12,0,4.31.02,8.84.57,12.67-.83-.25-1.59-1.11-1.96-2.33-9.81-32.61-36.09-51.88-67.74-62.24,3.32,16.38,4.26,34.55-7.51,47.18-1.01,1.08-2.2,1.55-3.11.92-3.89-2.67,10.13-14.6,1.49-40.87-3.09-9.4-7.78-17.5-12.88-25.91-.97-1.6-.79-4.68.17-5.85.86-1.05,3.43-1.73,5.75-1,37.45,11.82,72.39,36.75,92.55,70.29Z"/><path class="cls-3" d="M553.25,60.02c-4.64.59-7.36,5.03-9.03,9.19-5.22-11.78-9.98-23.56-18.68-33.3-27.07-10.42-57.65-12.96-85.58-4.76,8.42,11.72,14.83,23.55,14.4,37.81-8.26-20.07-21.95-34.1-42.58-43.11,32.59-16.38,90.58-14.48,120.83,3.47,10.65,6.32,15.46,20.57,20.65,30.7Z"/><path class="cls-1" d="M653.94,122.98c-.55-3.83-.58-8.36-.57-12.67,0-3.55,5.22-5.41,7.32-7.12,2.1,3.48,5.42,6.8,5.98,11.64,1.7,14.67-2.18,29.33-12.99,39.89-10.17,9.93-25.3,15.31-39.4,12.4-15.52-3.21-45.53-31.58-56.45-44.81l9.79-9.5c11.6,12.23,44.21,43.05,60.9,42.25,8.73-.42,16.5-8.5,21.87-14.42,4.97-5.48,4.42-11.66,3.56-17.65Z"/><path class="cls-3" d="M731.26,257.77c-1-41.26-13.03-70.09-40.87-100.51-6.56,11.39-14.05,20.21-26.05,24.14-1,.33-1.52-1.2-1.68-1.73-.96-3.2,11.99-9.9,18.83-28.35,2.14-5.77,2.98-11.5,5.42-17.15,31.17,26.2,50.23,67.99,58.06,106.22,1.48,7.21-7.72,13.62-13.71,17.39Z"/><path class="cls-3" d="M313.48,419.19c-2.94,1.05-6.47.25-9.38-1.9-24.93-18.43-36.49-48.93-42.88-79.8-10.25,27.07-13.11,54.59-17.86,81.79-2.05-36.14-.4-62.61,12.66-97.17,3.95-1.65,7.5-2.5,11.63-3.16,5.59,35.56,19.72,67.87,42.77,95.15,1.4,1.66,1.92,3.97,3.06,5.07Z"/><path class="cls-1" d="M399.95,733.35c-3.09-6.08-3.84-11.88-5.34-17.93,2.4-3.74,5.79-5.98,9.65-8.45l71.21-45.54c2.34-1.5,4.66-2.94,7.38-2.74,1.36,4.08-.32,7.94-3.23,11.12-22.84,25.02-49.53,46.12-79.67,63.54Z"/><path class="cls-3" d="M748.94,368.44c1.02-25.98-1.98-51.59-9.97-76.39-12.75,5.4-25.01,7.47-37.85,5.52-.95-.93-1.25-4.7.49-4.88,15.97-1.65,30.29-6.8,44.03-16.44,12.46,32.9,18.47,67.74,16.04,102.72-1.05,4.71-9.21,5.74-12.85,5.28-.69-5.55-.1-10.32.11-15.81Z"/><path class="cls-1" d="M553.25,60.02c7.2,14.06,4.98,31.24-6.8,42.57-14.38,13.83-34.89,19.08-54.65,15.35-11.77-2.22-22.56-5.77-33.53-10.52l.77-13.52,19.48,7.32c22.19,8.33,53.47,7.86,65.64-14.22,3.14-5.69.76-12.11.06-17.78,1.66-4.16,4.39-8.6,9.03-9.19Z"/><path class="cls-3" d="M675.25,689.38c6.36-4.75,13.68-8.77,19.82-15.11-10.21-7.1-21.1-12.8-27.45-22.8-11.95-18.82-14.87-33.66-20.16-54.24,3.82-.23,6.99-.85,10.31.12l5.34,31.2,22.38.71.59,25.2,19.51-.48c-1.03,5.45-3.56,9.37-5.46,14.21,6.73,1.32,12.38,1.93,19.79,1.43-11.81,11.3-27.54,19.35-44.68,19.76ZM676.86,652l-5.66-15.36c-3.01-.18-5.42-.09-7.98,1.17l5.96,11.41c1.23,2.36,5.5,2.05,7.68,2.78Z"/><path class="cls-3" d="M143.37,597.47c-2.96,15.54-7.86,30.69-14.31,45.59-2.38,2.33-2.72,5.91-4.71,8.28-7.92,9.44-17.35,16.61-28.31,23.1,6.27,6.65,13.86,9.96,19.17,14.92-16.37-1.26-31.27-7.59-43.02-18.96,6.69-.85,12.75-.42,18.67-2.54-2.08-5.08-4.45-8.77-4.9-13.82l19.19.26.51-24.95,22.39-1.15,5.44-30.64c3.65-.63,6.81-.21,9.87-.09ZM129.18,637.51c-3.75-.89-6.93-.94-10.72-.69l-4.05,15.2c11.64-1.55,8.61-8.21,14.77-14.51Z"/><path class="cls-1" d="M581.92,596.05l6.19,23.21c-12.2-15.81-18.73-35.37-17.43-55.98.31-4.84-1.29-11.33,1.08-15.71,8-14.77,29.88-44.85,48.02-47.94l-23.4,48.22c-3.6-4.01-3.55-8.34-6.13-12.85-4.57,6.83-9.89,13.15-11.13,21.21-2.03,13.2-.75,26.56,2.79,39.83Z"/><path class="cls-1" d="M422.02,66.28l-3.64-16.02c10.72,7.61,18.48,17.97,20.71,32.33,4.91,31.68-14.07,58.89-41.22,73.56l-8.46-16.4c9.85-2.94,19.54-6.85,27.04-14.23,16.52-16.25,18.4-40.78,5.57-59.25Z"/><path class="cls-1" d="M367.91,708.81c13.21,8.07,10.34,5.4,13.92,23.5-30.14-14.21-56.7-34.62-78.92-59.37-2.05-2.29-3.56-4.71-3.24-8.1,8.32,4.6,15.58,9.56,23.33,14.87,14.88,10.19,29.49,19.68,44.91,29.1Z"/><path class="cls-3" d="M424.42,519.02c8.39,1.61,14.49,5.11,22.22,3.76,13.84-2.42,23.51-14.18,24.88-28.02-5.41.99-11.16,1.29-13.15-3.95-.89-2.35-.51-5.71,1.83-7.81,7.32-6.56,14.84-12.27,23.06-18.36,9.22,24.96-.59,51.15-25.57,59.99-11.33,4.01-24.52,2.65-33.27-5.61Z"/><path class="cls-3" d="M297.21,499.47c1.26,14.99,14.79,23.3,30.69,24.07-16.05,5.65-33.01-2.64-42.01-16.87-8.92-14.1-10.27-31.66-4.96-47.41,5.12,5.78,13.76,10.21,14.37,17.51l1.91,22.69Z"/><path class="cls-1" d="M194.22,530.26l-9.87-22.97c4.84,2.86,9.27,5.97,13.18,10.95,20.95,26.62,26.73,24.63,21.93,63.19-1.85,14.82-7.96,27.55-16.98,38.9l4.51-15.7c4.6-16.01,7.08-32.68,4.49-49.36-1.01-6.49-11.42-26.75-17.25-25.01Z"/><path class="cls-3" d="M238.15,478.18c-7.06,16.47-5.45,39.57-1.35,57.52.93,4.05,2.21,7.71,2.3,11.46-11.31-15.02-16.01-33.18-13.56-51.92.86-6.61.58-14.21,4.28-19.67,1.71-2.47,6.85,1.11,8.32,2.61Z"/><path class="cls-3" d="M233.21,413.24c-1.85,11.64-.87,23.66,2.37,35.43l4.6,16.74c-1.84-1.05-4.52-.38-5.86-3.03-8.91-17.65-10.29-37.39-6.93-57.02,3.73,1.49,3.92,5.58,5.82,7.88Z"/><path class="cls-3" d="M184.35,507.29l9.87,22.97,2.54,13.4c.35,1.84-.37,4.69-1.91,5.06l-24.43-48.05c5.67,1,9.69,4.12,13.92,6.62Z"/><path class="cls-1" d="M311.81,394.13c-4.93-5.74-8.52-12.29-11.54-19.47,4.46-4.08,8.03-7.78,13.52-10.86l-1.99,30.33Z"/><path class="cls-1" d="M709.39,425.23c-1.38,3.33-7.35,4.07-7.01,7.07-16.75-7.57-33.41-13.73-51.94-14.14-19.1-.43-37.33,4.59-51.43,17.96,17.82,7.39,30.52,20.23,38.76,36.94,1.4,2.84,3.97,7.6,1.69,10.44-11.71,4.15-22.88,8.83-34.09,14.78l10.37-20.86c-11.49-2.27-22.05-1.71-33.15-.57-.39-5.59,1.57-10.87,5.21-15.83-9.33-7.37-15.67-15.25-21.86-25.47,3.33-4.79,8.32-6.4,12.86-9.14l-11.89-12.49c-4.54-4.77-4.2-12.76-5.73-19.37,18.95-1.28,42.96,4.53,56.93,17.41l20.19-4.92c-8.73-11.09-20.37-19.48-34.13-22.66l-19.14-4.42c11.38-7.08,22.68-14.8,36.46-16.66,37.21-5.03,74.22,13.59,93.24,45.95l-24.41-13.17-19.26,14.24c14.42,3.01,26.27,9.29,38.33,14.93Z"/><path class="cls-2" d="M362.08,490.75c-10.32-44.37,8.15-103.91,28.07-143.68-1.47,13.56-3.39,25.38-5.97,38.29l-17.45,87.31c-1.27,6.34-1.9,12.12-4.65,18.08Z"/><path class="cls-3" d="M279.61,266.69c-12.7,18.44-38.16,27.86-60.33,31.5,24.91-15.36,42.62-39.19,35.45-70.06-.81-7.36-1.63-14.53,2.45-21.35,7.86,12.74,20.3,18.97,25.94,31.91,4.03,9.26,2.22,19.69-3.51,28.01Z"/><path class="cls-1" d="M676.86,652c-2.17-.73-6.44-.42-7.68-2.78l-5.96-11.41c2.55-1.26,4.97-1.35,7.98-1.17l5.66,15.36Z"/><path class="cls-1" d="M129.18,637.51c-6.15,6.29-3.12,12.96-14.77,14.51l4.05-15.2c3.79-.25,6.96-.2,10.72.69Z"/></g></g></svg>