<svg version="1.1" xmlns="http://www.w3.org/2000/svg" style="display: block;" viewBox="0 0 2048 2048" width="1024" height="1024" preserveAspectRatio="none"><defs><linearGradient id="Gradient1" gradientUnits="userSpaceOnUse" x1="847.017" y1="832.169" x2="848.768" y2="836.99"><stop class="stop0" offset="0" stop-opacity="1" stop-color="rgb(59,119,25)"/><stop class="stop1" offset="1" stop-opacity="1" stop-color="rgb(37,91,29)"/></linearGradient></defs><path transform="translate(0,0)" fill="rgb(0,14,46)" d="M 1326.3 371.211 C 1339.59 362.154 1376.95 338.384 1382.78 322.652 C 1386.4 312.866 1375.4 296.143 1379.12 288.069 C 1386.81 282.815 1402.86 278.733 1411.99 275.706 C 1437.9 267.112 1464.15 259.798 1489.52 249.586 C 1470.29 266.164 1424.55 293.89 1422.56 319.008 C 1418.83 365.828 1482.28 327.116 1502.31 322.039 C 1511.12 319.822 1522.8 320.25 1532.81 317.904 L 1734.02 271.071 C 1760.73 264.752 1789.74 258.431 1816.07 251.535 C 1789.06 277.365 1762.89 307.291 1737.18 334.76 C 1680.63 396.045 1623.4 456.701 1565.5 516.716 C 1571.43 519.925 1577.01 522.914 1582.74 526.48 C 1586.52 528.62 1590.11 530.685 1594.01 532.616 C 1621.46 515.675 1632.41 493.222 1651.31 480.323 L 1653.18 480.252 C 1674.78 479.535 1706.24 488.739 1720.33 469.71 C 1737.83 446.07 1760.43 450.151 1787.26 442.388 C 1817.98 433.443 1848.6 424.144 1879.11 414.492 C 1890.3 411.059 1907.75 405.068 1918.46 402.397 C 1888.61 423.455 1847.22 441.168 1814.57 459.047 C 1803.97 464.855 1791.67 469.014 1781.34 475.731 C 1762.96 487.673 1751.96 516.038 1734.55 527.442 C 1722.93 535.061 1699.65 528.849 1685.52 535.14 C 1669.73 542.173 1660.24 555.467 1646.43 564.227 C 1683.78 589.629 1710.64 620.458 1724.53 664.33 C 1751.29 666.811 1772.15 670.089 1796.97 679.75 C 1962.29 744.096 1986.65 965.786 1851.17 1075.01 C 1781.17 1131.44 1703.09 1148.91 1615.02 1153.85 C 1572.85 1155.86 1585.51 1143.06 1557.79 1181.23 C 1572.61 1189.49 1585.88 1194.47 1603.23 1194.23 C 1612.12 1194.1 1653.87 1192.96 1652.27 1179.16 C 1648.66 1173.72 1646.65 1172.73 1642.39 1168.2 C 1667.11 1173.11 1692.19 1181.09 1716.45 1188.2 C 1730.66 1192.36 1745.34 1198.11 1759.82 1201.09 L 1758.13 1204.15 C 1729.94 1203.07 1691.92 1196.42 1664.67 1206.66 C 1688.29 1250.46 1733.09 1287.74 1773.13 1316.29 C 1739.86 1302.84 1639.46 1253.77 1610.79 1252.26 C 1600.11 1251.7 1588.58 1255.7 1578.76 1259.48 C 1575.47 1260.56 1568.51 1263.82 1565.04 1265.31 C 1553.28 1256.44 1541.22 1247.98 1528.87 1239.95 C 1523.4 1236.35 1511.75 1229.13 1507.22 1225.35 C 1501.36 1222.75 1495.78 1225.32 1489.68 1228.01 C 1469.84 1236.75 1447.23 1239.89 1425.97 1243.82 C 1420.16 1244.89 1397.57 1246.74 1393.91 1249.17 C 1386.98 1247.07 1378.85 1236.02 1371.91 1232.85 C 1364.19 1229.32 1352.72 1228.47 1344.17 1226.97 C 1318.7 1222.51 1299.31 1209.09 1279.64 1193.23 C 1283.41 1207.06 1280.48 1222.88 1277.45 1236.73 C 1284.19 1240.87 1293.39 1246.15 1299.5 1250.82 C 1300.1 1261.38 1301.75 1280.2 1294.45 1288.73 C 1292.08 1291.5 1286.89 1294.54 1287.62 1298.11 C 1230.97 1335.09 1170.45 1349.87 1109.05 1374.1 C 1132.8 1351.95 1147.33 1321.8 1159.86 1292.57 C 1157.25 1292.52 1150.64 1297.45 1147.7 1299.23 C 1135.56 1306.53 1122.97 1313.04 1110 1318.72 C 1089 1328.06 1044.81 1343.63 1022.79 1346.69 C 1019.85 1345.05 1019.48 1345.33 1017.8 1342.72 L 1019.75 1338.16 C 1021.91 1337.07 1024.07 1335.95 1026.22 1334.81 C 1031.21 1332.14 1062.63 1315.5 1063.49 1312.71 C 1055.24 1316.27 1041.65 1317.25 1032.5 1318.2 C 980.227 1323.57 930.162 1317.35 879.223 1305.36 C 873.771 1313.99 868.578 1322.79 863.65 1331.73 C 876.179 1352.37 889.459 1373.53 901.647 1394.27 C 886.327 1384.54 851.545 1359.72 836.278 1355.82 C 799.956 1366.88 807.365 1400.86 810.437 1430.93 C 801.101 1419.5 789.27 1403.18 777.722 1395.19 C 767.054 1399.53 749.377 1413.78 739.66 1421.01 L 694.443 1454.3 C 656.198 1482.13 617.194 1508.64 578.943 1536.29 C 585.826 1524.83 594.503 1512.77 600.731 1501.56 C 592.04 1505.71 548.521 1541 538.744 1548.77 C 502.02 1577.96 462.024 1606.57 425.91 1636.16 C 424.59 1633.43 423.681 1629.37 422.873 1626.32 C 445.706 1589.85 468.827 1553.56 492.234 1517.46 C 520.748 1472.44 548.925 1427.21 576.762 1381.77 C 603.001 1340.1 628.411 1297.91 652.977 1255.23 C 645.159 1256.59 634.346 1255.28 625.681 1255.35 C 618.292 1257.08 603.519 1263.35 596.473 1266.78 C 594.934 1261.78 594.473 1256.1 592.759 1251.12 C 589.498 1241.66 584.911 1232.14 580.838 1222.96 C 586.251 1212.87 591.292 1203.58 597.19 1193.76 L 592.823 1190.48 C 579.262 1201.25 563.946 1213.67 552.096 1226.15 C 542.649 1236.1 537.253 1244.67 526.808 1254.28 C 519.412 1256.59 515.221 1255.89 507.572 1255.62 C 464.382 1254.1 431.085 1242.31 393.815 1221.55 C 389.288 1230.61 366.554 1240.7 357.121 1249.84 C 345.56 1261.06 336.678 1280.92 326.307 1289.59 C 330.314 1277.35 339.293 1257.11 334.444 1244.57 C 333.224 1241.42 331.108 1238.83 327.931 1237.53 C 304.448 1227.95 209.743 1269.92 184.28 1281.08 C 203.057 1262.05 229.778 1246.16 249.386 1226.57 C 259.459 1216.5 275.206 1199.17 285.671 1191.26 C 309.089 1188.92 345.476 1190.62 362.633 1175.54 C 354.653 1169.45 313.489 1156.95 300.883 1153.52 C 184.779 1122.01 70.2949 1034.6 121.278 900.322 C 140.526 849.627 191.187 813.471 242.103 793.834 C 250.882 752.293 266.673 719.818 294.278 687.219 C 335.966 637.987 407.955 604.654 472.156 599.777 C 480.323 588.672 497.04 571.638 510.134 566.819 C 497.006 555.185 471.68 537.01 455.919 530.25 C 482.016 522.322 518.597 521.34 541.306 506.245 C 522.621 475.542 510.466 457.648 494.757 423.963 C 517.196 447.285 537.139 473.771 562.363 494.541 C 578.775 508.055 596.794 494.727 607.157 480.742 C 614.448 470.901 611.039 459.39 609.191 448.363 C 617.814 431.06 648.852 401.35 663.737 386.393 C 654.273 425.97 632.375 430.069 676.873 461.023 C 680.972 463.875 685.227 467.562 689.856 470.484 C 692.148 468.235 706.621 446.09 709.914 441.603 C 778.038 348.791 893.792 281.323 1007.11 263.746 C 1099.99 249.34 1196.82 275.328 1273.3 328.548 C 1283.13 335.508 1293.45 342.434 1302.55 350.328 C 1310.67 357.364 1317.4 365.012 1326.3 371.211 z"/><path transform="translate(0,0)" fill="rgb(125,207,27)" d="M 1625.88 347.645 C 1633.74 344.672 1642.26 343.807 1650.52 341.377 C 1600.21 390.296 1548.98 437.613 1497.52 485.264 C 1425.01 552.409 1355.12 621.942 1276.05 681.689 C 1271.36 685.253 1265.73 689.446 1260.18 691.48 C 1239.41 699.205 1227.28 702.939 1208.23 714.187 C 1196.99 720.825 1180.4 738.921 1172 741.584 L 1171.11 743.385 C 1179.15 745.134 1385.2 681.462 1407.92 674.534 C 1374.02 712.491 1341.05 741.747 1301.44 773.153 C 1258.99 806.809 1218.32 842.804 1171.77 871.103 C 1166.72 874.272 1156.09 883.461 1152.52 884.153 C 1152.2 882.545 1152.1 882.537 1152.12 880.914 L 1150.34 879.657 C 1144.86 881.281 1134.77 887.255 1129.86 890.731 C 1108.94 905.543 1077.23 918.18 1059.98 936.61 C 1063.42 937.611 1066.88 938.581 1070.35 939.519 C 1092.43 936.373 1120.34 939.931 1140.62 929.647 C 1150.64 924.57 1162.06 915.138 1172.38 909.69 C 1188.73 901.057 1194.55 902.48 1210.89 907.097 C 1212.42 904.359 1216.03 898.771 1218.93 897.406 C 1241.69 886.686 1269.72 876.588 1293.78 869.493 C 1304.29 866.395 1325.97 865.04 1333.25 859.29 L 1333.27 857.889 C 1323.12 850.082 1315.17 843.867 1302.63 840.486 C 1294.87 838.395 1282.32 836.89 1279.39 828.548 C 1280.04 822.677 1349.82 768.701 1353.82 768.731 L 1354.46 772.151 C 1356.77 771.906 1360.83 767.253 1363 765.201 C 1356.68 776.786 1341.66 820.948 1354.05 829.553 C 1363.9 830.599 1388.98 825.861 1398.82 822.907 C 1407.46 818.688 1427.14 809.276 1436.64 810.535 L 1439.01 813.673 C 1442.69 815.437 1449.65 823.045 1452.2 826.195 C 1476.48 856.211 1484.96 859.142 1519.11 869.883 C 1502.67 877.695 1482.77 888.403 1465.03 881.782 C 1444.82 874.24 1423.92 850.69 1401.55 861.415 C 1391.95 866.018 1369.99 879.432 1364.91 888.568 C 1363.22 906.196 1390.83 920.684 1382.53 928.54 C 1376.54 930.117 1365.23 928.158 1357.82 928.518 C 1331.02 926.49 1309.4 909.856 1288.51 925.611 L 1287.86 927.775 C 1290.57 931.614 1292.66 932.558 1292.76 935.993 C 1290.8 938.528 1289.69 938.411 1286.62 939.273 L 1282.77 940.362 C 1294.63 952.04 1305.66 956.062 1320.21 963.705 C 1327.63 967.602 1335.55 972.859 1342.81 977.134 C 1349.67 981.174 1362.57 985.935 1363.34 994.814 C 1363.86 1000.84 1365.1 1003.62 1367.6 1009.1 C 1363.92 1008.92 1352.78 1002.97 1348.42 1001.37 C 1336.77 997.066 1319.62 991.265 1307.25 990.905 C 1299.1 989.969 1282.5 990.842 1273.74 991.076 C 1276.7 990.223 1276.2 990.74 1278.48 989.031 L 1277.19 986.44 L 1277.83 985.896 C 1277.49 983.637 1272.26 981.876 1269.32 980.407 C 1255.68 973.594 1247.57 962.61 1235.63 953.671 C 1217.47 944.868 1188.6 943.277 1171.73 955.424 C 1156.14 966.644 1140.79 978.943 1125.84 991.033 C 1094.7 1016.24 1064 1041.98 1033.73 1068.23 C 952.737 1137.01 872.404 1206.58 792.744 1276.91 L 653.17 1399.05 C 617.267 1429.95 580.201 1459.37 547.276 1493.29 C 559.279 1473.75 584.418 1442.47 598.804 1422.45 C 630.049 1378.55 660.838 1334.33 691.168 1289.8 C 717.146 1251.93 737.732 1209.64 761.644 1170.43 C 765.419 1164.73 769.935 1159.18 774.416 1154.03 C 793.982 1131.51 811.183 1107.2 829.859 1083.99 C 804.567 1085.82 786.231 1086.52 760.87 1086.46 C 777.295 1062.84 798.776 1037.68 816.855 1014.55 L 906.577 898.905 C 925.981 873.779 944.949 849.968 963.555 824.081 C 940.328 835.089 911.005 839.517 886.693 850.683 C 860.326 862.792 833.485 846.68 803.906 861.363 C 801.836 859.34 801.152 858.624 799.392 856.341 C 819.26 823.291 848.482 805.194 883.77 793.353 C 878.054 790.379 876.136 790.48 870.641 788.151 L 870.338 786.559 C 873.978 782.674 877.66 779.204 881.504 775.54 C 863.928 768.988 857.705 762.663 842.004 755.263 C 831.255 750.198 805.026 751.984 794.01 743.984 C 778.092 732.423 768.15 711.814 750.455 702.344 C 738.48 696.528 719.625 700.701 708.331 706.775 C 701.933 710.215 698.467 715.439 690.914 717.804 C 685.935 715.63 679.622 714.833 673.505 712.294 C 657.249 705.546 634.244 691.143 620.718 680.297 C 614.105 674.995 614.661 666.426 602.512 656.821 L 601.353 655.919 L 612.381 649.136 C 618.845 653.555 640.25 665.2 647.447 664.002 C 646.152 660.696 644.687 658.972 645.553 656.407 C 648.92 659.623 651.427 663.116 654.824 665.911 C 661.199 671.155 667.912 675.054 674.629 680.135 C 684.326 676.744 716.084 651.081 722.388 641.744 C 713.957 629.471 699.799 627.103 694.891 614.831 C 688.067 597.765 658.912 582.825 642.844 573.698 C 624.733 561.914 605.056 552.767 586.965 540.942 C 578.232 535.233 569.553 529.442 560.856 523.678 C 546.544 534.554 520.86 560.805 509.956 575.194 L 508.427 574.445 C 508.076 571.427 508.533 571.954 510.56 568.698 L 510.134 566.819 C 497.006 555.185 471.68 537.01 455.919 530.25 C 482.016 522.322 518.597 521.34 541.306 506.245 C 522.621 475.542 510.466 457.648 494.757 423.963 C 517.196 447.285 537.139 473.771 562.363 494.541 C 578.775 508.055 596.794 494.727 607.157 480.742 C 614.448 470.901 611.039 459.39 609.191 448.363 C 617.814 431.06 648.852 401.35 663.737 386.393 C 654.273 425.97 632.375 430.069 676.873 461.023 C 680.972 463.875 685.227 467.562 689.856 470.484 C 686.667 473.074 674.349 483.91 672.297 484.389 C 642.327 491.385 627.048 498.56 652.584 528.296 C 659.547 536.405 677.684 549.896 689.36 551.09 C 698.471 551.637 708.231 545.889 717.837 544.248 C 724.97 550.244 735.893 553.457 739.263 559.275 C 748.865 575.853 742.221 611.131 771.878 607.613 C 791.637 605.27 795.641 604.291 815.513 607.369 C 826.666 598.78 830.419 592.877 839.039 581.825 C 839.677 608.15 842.647 634.827 856.321 658.367 C 860.769 665.744 862.375 669.4 864.861 677.476 C 843.774 668.55 818.003 647.114 793.667 639.958 C 785.159 641.74 779.539 644.505 771.851 648.315 C 790.682 668.919 801.196 696.456 823.071 712.456 C 830.425 717.834 840.302 712.435 848.25 709.904 C 868.828 714.916 888.827 730.24 906.341 742.367 C 910.69 735.177 919.11 725.865 924.747 719.234 L 954.185 684.393 L 1061.16 554.803 C 1070.88 543.548 1103.92 496.471 1115.93 492.752 C 1141.48 484.842 1171.2 478.224 1197.25 470.462 L 1308.76 438.21 C 1324.71 433.618 1346.59 426.199 1362.06 422.669 C 1371.95 420.25 1382.86 417.025 1392.75 414.303 C 1396.56 412.501 1400.89 411.155 1404.91 409.761 C 1444.62 395.977 1484.93 384.66 1525.44 373.556 C 1535.35 370.842 1545.24 368.057 1555.43 366.735 C 1558.84 365.96 1562.24 365.154 1565.64 364.319 C 1574.56 364.875 1582.65 359.574 1589.97 360.004 L 1590.41 360.739 L 1586.64 364.132 C 1594.97 361.133 1620.81 352.703 1625.88 347.645 z"/><path transform="translate(0,0)" fill="rgb(254,254,254)" d="M 1565.64 364.319 C 1574.56 364.875 1582.65 359.574 1589.97 360.004 L 1590.41 360.739 L 1586.64 364.132 C 1568.09 372.693 1548.31 378.145 1529.4 385.853 C 1425.63 428.146 1318.59 463.072 1212.72 499.773 C 1209.72 500.812 1207.7 501.323 1205.59 503.85 C 1201.14 510.745 1187.54 528.824 1181.88 535.024 C 1176.18 538.625 1141.99 580.463 1135.12 588.445 C 1105.79 622.55 1076.95 658.341 1046.41 691.45 C 1076.26 683.166 1104.52 669.969 1130.03 652.4 C 1118.64 666.992 1099.34 688.091 1086.42 702.629 C 1067.37 724.078 1045.23 751.632 1025.63 771.924 C 1041.48 768.282 1066.06 763.34 1080.11 756.08 C 1058.86 782.466 1039.18 809.184 1018.28 835.629 C 971.597 894.246 924.57 952.589 877.202 1010.65 C 896.56 1008.72 936.39 998.269 953.573 989.842 C 938.396 1013.64 907.718 1041.14 891.44 1064.16 C 859.019 1110.01 829.835 1161.05 796.286 1206.02 C 776.888 1231.56 756.879 1256.64 736.277 1281.22 C 720.262 1299.99 703.346 1317.6 688.848 1337.62 C 705.277 1290.53 728.315 1271.81 753.914 1234.43 L 825.082 1128.66 C 841.872 1104.23 863.112 1075.74 878.738 1051.49 C 856.519 1054.88 835.131 1058.64 812.576 1057.75 L 946.85 882.21 C 957.828 868.133 968.635 853.923 979.268 839.584 C 985.419 831.125 995.659 815.808 1002.09 808.495 C 982.285 812.566 937.524 814.588 915.732 816.192 C 919.246 805.512 920.829 796.606 922.926 785.627 C 898.968 771.752 873.359 757.466 849.066 743.967 C 842.143 740.121 825.312 744.512 818.062 739.394 C 805.848 731.286 793.109 722.192 781.69 713.228 C 764.424 699.673 748.031 676.246 723.116 685.089 C 702.143 692.532 699.486 698.945 676.034 697.724 C 690.977 689.056 694.336 691.179 709.264 685.911 C 720.354 681.998 732.967 671.933 744.092 666.694 C 744.965 648.742 747.351 637.182 733.842 622.975 C 713.202 601.268 685.659 584.53 661.138 568.137 C 639.944 553.968 630.629 549.089 620.805 525.636 C 619.875 523.417 606.218 512.333 603.24 507.695 C 606.187 504.714 609.607 502.986 612.655 500.245 C 630.212 484.457 630.396 471.753 625.826 451.021 L 632.262 439.223 L 633.194 440.456 C 639.129 448.385 646.56 460.756 645.12 471.024 C 642.197 491.872 614.7 489.53 641.809 528.524 C 661.497 556.843 698.278 566.514 724.632 587.296 C 737.109 597.134 747.039 617.209 763.591 619.709 C 773.876 621.262 785.202 619.246 795.421 617.756 C 804.52 621.95 811.716 625.037 821.1 628.632 C 823.095 625.006 826.146 618.592 829.07 616.114 C 836.446 617.771 841.597 644.759 842.234 651.987 L 841.048 651.42 C 809.459 636.089 814.79 631.65 775.964 628.158 C 769.48 639.6 765.125 642.588 759.316 655.807 C 767.597 684.546 782.678 694.549 805.101 713.059 C 810.168 717.242 813.288 723.464 819.095 726.87 C 834.178 729.172 839.579 721.186 853.077 722.593 C 860.793 723.398 867.346 733.522 873.7 737.359 C 887.419 745.644 902.037 753.57 916.02 761.491 C 921.338 764.503 924.578 761.253 929.971 761.82 C 932.308 762.066 938.461 765.278 940.796 766.443 C 1002.49 698.139 1058.84 619.227 1109.41 542.225 C 1095.7 549.545 1067.33 562.426 1052.7 567.974 C 1056.46 563.535 1058.55 561.124 1062.95 557.122 C 1075.28 541.642 1095.34 514.852 1110.1 501.889 C 1113.81 498.63 1139.76 494.106 1146.61 492.333 C 1194.2 480.021 1241.19 465.826 1288.11 451.191 C 1310.81 444.109 1335.48 439.941 1357.78 432.142 C 1354.59 432.063 1352.33 432.353 1349.57 430.818 L 1349.35 429.278 C 1354.32 425.235 1355.93 427.899 1362.06 422.669 C 1371.95 420.25 1382.86 417.025 1392.75 414.303 C 1396.56 412.501 1400.89 411.155 1404.91 409.761 C 1444.62 395.977 1484.93 384.66 1525.44 373.556 C 1535.35 370.842 1545.24 368.057 1555.43 366.735 C 1558.84 365.96 1562.24 365.154 1565.64 364.319 z"/><path transform="translate(0,0)" fill="rgb(134,214,21)" d="M 1392.75 414.303 C 1396.56 412.501 1400.89 411.155 1404.91 409.761 C 1444.62 395.977 1484.93 384.66 1525.44 373.556 C 1535.35 370.842 1545.24 368.057 1555.43 366.735 C 1544.46 371.648 1528.79 376.57 1517.14 380.525 C 1484.39 391.65 1451.83 401.738 1417.88 408.602 C 1409.79 410.238 1400.97 414.069 1392.75 414.303 z"/><path transform="translate(0,0)" fill="rgb(63,126,22)" d="M 1305.69 732.342 L 1306.13 734.009 C 1285.35 752.227 1249.75 781.81 1233.37 803.138 C 1219.08 821.74 1154.03 865.804 1152.12 880.914 L 1150.34 879.657 C 1144.86 881.281 1134.77 887.255 1129.86 890.731 C 1108.94 905.543 1077.23 918.18 1059.98 936.61 C 1063.42 937.611 1066.88 938.581 1070.35 939.519 L 1065.49 940.683 C 1059.46 944.149 1058.03 946.025 1054.26 951.883 C 1041.82 954.147 1029.76 951.703 1022.52 953.284 L 1021.34 948.393 C 1019.63 948.727 1012.31 950.079 1011.15 950.716 C 1004.92 951.332 999.356 950.933 993.113 950.662 C 1016.26 939.206 1028.57 931.058 1049.09 915.631 C 1063.26 904.977 1078.87 895.723 1092.78 883.933 C 1120.15 860.732 1144.33 834.46 1170.97 810.531 C 1181.38 801.184 1194.69 782.088 1205.85 774.526 C 1237.77 752.89 1271.03 745.235 1305.69 732.342 z"/><path transform="translate(0,0)" fill="rgb(63,126,22)" d="M 1172 741.584 C 1177.07 732.766 1189.64 716.107 1196.7 709.013 C 1213.42 692.204 1231.99 676.593 1249.11 660.13 C 1258.17 651.424 1266.88 642.398 1276.03 633.797 C 1315.69 599.84 1353.27 562.915 1395.39 531.995 C 1400.78 528.032 1413.74 526.744 1420.85 525.508 C 1385.76 563.999 1349.53 602.126 1313.48 639.733 C 1296.45 657.494 1276.37 673.528 1259.84 690.042 L 1260.18 691.48 C 1239.41 699.205 1227.28 702.939 1208.23 714.187 C 1196.99 720.825 1180.4 738.921 1172 741.584 z"/><path transform="translate(0,0)" fill="rgb(211,243,156)" d="M 1205.59 503.85 C 1211.24 504.889 1215.79 505.71 1221.57 504.695 C 1244.68 500.639 1269.35 493.154 1291.86 486.479 L 1392.3 456.447 C 1364.22 476.323 1247.43 520.85 1212.24 527.659 C 1206.93 529.332 1201.26 531.286 1195.85 532.474 C 1189.78 534.509 1188.32 534.679 1181.88 535.024 C 1187.54 528.824 1201.14 510.745 1205.59 503.85 z"/><path transform="translate(0,0)" fill="rgb(230,246,186)" d="M 1195.85 532.474 L 1195.75 531.91 C 1197.43 526.728 1207.49 526.068 1212.24 527.659 C 1206.93 529.332 1201.26 531.286 1195.85 532.474 z"/><path transform="translate(0,0)" fill="rgb(0,14,46)" d="M 674.629 680.135 C 684.326 676.744 716.084 651.081 722.388 641.744 C 726.078 647.129 730.327 651.096 734.911 655.723 C 717.486 669.528 698.082 688.988 674.629 680.135 z"/><path transform="translate(0,0)" fill="rgb(99,171,24)" d="M 1021.34 948.393 L 1022.52 953.284 C 1018.4 955.219 1011.86 956.14 1007.33 956.55 C 1007.63 955.003 1009.7 953.887 1011.3 952.577 L 1011.15 950.716 C 1012.31 950.079 1019.63 948.727 1021.34 948.393 z"/><path transform="translate(0,0)" fill="rgb(99,171,24)" d="M 1330.12 719.413 C 1322.1 727.922 1316.94 729.228 1306.13 734.009 L 1305.69 732.342 C 1314.17 728.009 1321.9 724.266 1330.12 719.413 z"/><path transform="translate(0,0)" fill="rgb(63,126,22)" d="M 1102.91 961.596 C 1103.36 965.362 1102.54 964.534 1104.41 966.662 L 1108.83 966.432 L 1109.4 967.267 C 1091.79 986.715 1075.98 1002.65 1056.87 1020.65 C 1042.11 1034.35 1028.3 1050.69 1013.07 1063.78 C 957.545 1111.48 902.017 1159.21 846.533 1206.94 C 829.951 1221.21 807.546 1240.89 785.663 1245.64 C 792.583 1236.38 801.928 1228.08 809.113 1218.94 C 864.516 1148.41 933.614 1089.71 998.295 1027.98 C 1017.02 1010.11 1038.09 996.313 1056.19 977.067 C 1051.88 976.737 1049.46 976.721 1045.34 975.541 C 1067.02 968.383 1079.97 963.433 1102.91 961.596 z"/><path transform="translate(0,0)" fill="rgb(254,254,254)" d="M 1340.18 846.921 C 1356.12 840.262 1364.74 841.388 1380.77 837.788 C 1394.43 834.719 1407.84 830.986 1421.74 828.033 C 1433.99 833.519 1436.54 834.414 1445.88 844.018 C 1423.37 843.31 1417.87 841.088 1395.84 850.113 C 1372.63 859.62 1362.22 864.663 1345.92 884.305 C 1349.3 893.441 1354.23 902.092 1358.82 910.706 C 1307.44 893.858 1295.03 897.342 1248.18 925.255 C 1255.3 932.038 1269.44 947.535 1276.96 952.213 C 1292.87 962.105 1308.2 970.437 1323.79 981.448 L 1319.47 983.658 C 1307.63 980.829 1285 975.741 1275.99 967.802 C 1266.82 959.722 1262.39 955.585 1251.93 948.256 C 1229.51 932.538 1193.95 927.856 1168.23 936.354 C 1150.35 942.259 1148.3 946.218 1126.42 950.931 C 1142.51 939.038 1166.98 920.007 1187.33 920.17 C 1219.03 920.425 1232.26 910.236 1258.7 895.268 C 1277.94 884.371 1308.37 879.491 1330.58 875.424 L 1339.9 861.206 L 1340.18 846.921 z"/><path transform="translate(0,0)" fill="rgb(254,254,254)" d="M 1332.93 797.126 C 1334.87 807.222 1333.04 820.548 1330.61 830.466 C 1318.79 825.985 1316.38 826.056 1303.72 825.7 C 1300.61 824.86 1300.1 824.993 1297.68 822.823 C 1299.53 817.292 1319.09 804.572 1324.26 800.422 C 1325.45 799.469 1331.31 797.617 1332.93 797.126 z"/><path transform="translate(0,0)" fill="rgb(254,254,254)" d="M 534.523 529.225 C 537.722 528.652 537.744 528.731 541.018 529.037 L 541.896 530.41 C 540.077 533.345 530.594 541.649 527.059 545.207 L 514.064 539.294 C 510.296 537.942 500.782 535.876 496.465 534.833 C 510.381 532.722 520.257 532.237 534.523 529.225 z"/><path transform="translate(0,0)" fill="url(#Gradient1)" d="M 862.099 825.91 C 862.792 818.686 867.342 814.362 874.703 814.555 L 875.806 815.973 C 874.732 819.449 875.62 817.893 872.65 820.549 C 869.859 824.696 866.692 829.185 864.103 833.412 C 852.789 839.031 836.051 841.708 823.501 842.547 C 832.898 839.658 840.127 837.442 849.087 833.069 C 851.794 831.747 860.627 826.397 862.099 825.91 z"/><path transform="translate(0,0)" fill="rgb(99,171,24)" d="M 862.099 825.91 C 862.792 818.686 867.342 814.362 874.703 814.555 L 875.806 815.973 C 874.732 819.449 875.62 817.893 872.65 820.549 C 868.642 822.076 865.785 823.824 862.099 825.91 z"/><path transform="translate(0,0)" fill="rgb(230,246,186)" d="M 1323.79 981.448 C 1326.31 982.063 1327.86 982.447 1330.35 983.3 L 1330.7 984.553 C 1325.94 985.262 1324.32 984.616 1319.47 983.658 L 1323.79 981.448 z"/><path transform="translate(0,0)" fill="rgb(33,80,28)" d="M 1266.46 929.191 C 1271.34 929.57 1275.4 929.919 1280.29 930.652 C 1273.92 932.965 1272.27 932.647 1266.46 929.191 z"/><path transform="translate(0,0)" fill="rgb(32,66,120)" d="M 725.554 528.756 C 749.504 404.91 909.98 314.071 1027.26 302.405 C 1088.79 296.284 1161.9 313.824 1216.61 342.553 C 1234.34 348.313 1257.42 366.771 1273.46 378.053 C 1256.26 377.916 1239.53 375.397 1222.24 375.271 C 1174.19 374.92 1131.9 385.684 1087.93 404.258 C 1059.17 416.406 1045.86 423.047 1020.98 442.507 C 1056.92 435.741 1101.14 433.781 1135.52 446.571 C 1091.89 449.481 1019.55 478.712 981.676 501.784 C 965.465 511.659 945.357 530.059 930.448 542.591 C 937.051 540.418 951.496 536.36 957.086 533.349 C 984.581 518.536 1009 518.187 1038.67 513.69 C 1020.84 536.04 1003.23 549.711 984.028 569.005 C 962.334 590.804 945.837 607.599 922.123 627.762 C 913.635 634.979 887.002 654.138 882.373 659.131 C 879.803 646.702 874.827 631.169 874.453 619.214 C 874.102 607.987 883.147 584.376 877.369 573.903 L 875.601 573.675 C 868.702 579.384 862.997 599.189 861.541 608.156 C 860.209 616.358 861.386 651.722 858.562 656.752 L 856.321 658.367 C 842.647 634.827 839.677 608.15 839.039 581.825 C 830.419 592.877 826.666 598.78 815.513 607.369 C 795.641 604.291 791.637 605.27 771.878 607.613 C 742.221 611.131 748.865 575.853 739.263 559.275 C 735.893 553.457 724.97 550.244 717.837 544.248 C 723.03 538.614 723.29 536.1 725.554 528.756 z"/><path transform="translate(0,0)" fill="rgb(254,254,254)" d="M 725.554 528.756 C 749.504 404.91 909.98 314.071 1027.26 302.405 C 1088.79 296.284 1161.9 313.824 1216.61 342.553 C 1212.27 343.944 1182.51 334.046 1176.12 332.658 C 1112.31 318.785 1038.63 322.6 977.906 347.7 C 963.236 353.765 949.735 361.806 936.108 369.864 C 953.14 366.66 997.331 365.669 1014.53 366.497 C 1005.12 371.593 995.507 375.854 985.963 380.635 C 925.609 410.865 870.215 454.126 829.34 508.124 C 840.275 466.559 877.43 419.47 909.52 391.16 C 891.857 396.174 872.597 401.305 855.569 408.444 C 804.816 429.721 762.623 466.299 734.851 513.889 C 733.032 517.006 728.007 528.476 726.067 529.092 L 725.554 528.756 z"/><path transform="translate(0,0)" fill="rgb(32,66,120)" d="M 404.146 925.928 C 403.363 891.912 415.169 866.881 437.66 841.467 C 476.58 797.489 577.259 780.958 621.933 824.372 C 626.81 829.416 632.914 841.614 636.409 848.122 C 624.885 859.465 612.996 869.348 608.241 884.851 C 607.206 888.225 605.222 891.094 605.107 894.817 L 598.394 905.745 C 640.97 876.703 685.702 855.035 738.568 867.133 C 748.75 869.463 758.847 877.135 768.393 879.832 C 770.709 883.299 769.212 882.285 772.526 883.628 C 777.522 882.251 784.449 878.58 787.876 874.634 C 789.304 871.461 789.84 871.09 792.037 868.462 L 792.217 869.712 C 789.493 878.401 782.796 888.296 783.696 893.51 C 784.978 895.126 786.386 897.002 787.727 898.533 C 807.287 902.226 830.62 900.717 847.856 889.958 C 826.088 915.008 812.541 934.797 777.446 939.869 C 783.416 949.158 790.97 956.716 798.387 964.944 C 762.366 987.709 763.139 976.767 723.622 971.878 C 710.183 970.216 680.114 977.989 666.529 971.156 C 666.608 979.078 702.949 1010.14 710.548 1019.15 C 662.42 1013.94 637.884 1011.01 598.871 979.188 C 587.24 969.702 583.035 961.465 569.4 953.425 C 577.32 994.254 587.513 985.927 606.434 1010.03 C 579.392 1002.81 554.615 981.101 540.199 957.292 C 527.865 936.92 537.438 925.219 550.339 908.836 C 545.17 905.171 543.179 909.712 545.439 900.182 C 541.145 899.634 527.138 906.096 522.246 908.429 C 489.91 923.849 468.449 954.575 448.185 982.883 C 447.724 983.527 442.73 984.174 441.831 984.286 C 441.092 985.791 443.273 1002.1 443.117 1008.14 C 423.348 1006.33 404.95 1005.41 385.292 1004.05 C 394.12 1009.19 405.089 1015.13 414.632 1018.77 C 430.962 1025 439.309 1025.05 454.19 1035.32 C 430.913 1044.37 415.121 1041.25 392.075 1042.18 L 392.264 1044.35 L 388.306 1045.17 C 380.781 1049.58 364.852 1042.73 357.34 1039.52 C 348.839 1035.48 308.09 1011.08 307.013 1003.81 C 309.166 1001.29 312.673 1000.24 315.832 998.922 C 302.525 993.461 289.093 987.848 276.07 981.752 C 266.238 977.15 257.276 971.865 247.128 967.855 C 256.188 990.331 259.521 991.848 273.143 1010.59 C 243.972 1001.14 204.845 985.389 188.103 958.492 C 185.39 967.84 198.309 987.909 204.515 995.473 C 207.41 999.001 216.271 1007.14 217.252 1010.31 C 207.738 1013.14 176.015 985.981 170.592 977.211 C 167.447 972.126 165.824 964.931 162.948 959.687 L 161.5 964.807 C 159.254 962.752 159.947 962.959 159.32 959.21 L 160.192 959.635 C 161.48 957.173 160.801 953.175 160.61 950.229 C 167.487 902.667 197.718 872.596 242.156 857.43 C 249.583 886.58 265.831 932.69 293.1 949.272 C 304.327 956.099 320.801 954.47 333.442 952.138 C 333.61 948.06 334.121 940.753 332.989 936.498 C 332.122 933.239 328.85 936.562 330.9 932.25 C 360.442 925.772 379.273 948.23 395.037 965.891 C 396.05 967.026 421.069 975.761 426.234 978.177 C 417.674 963.994 403.703 943.247 404.146 925.928 z"/><path transform="translate(0,0)" fill="rgb(254,254,254)" d="M 404.146 925.928 C 403.363 891.912 415.169 866.881 437.66 841.467 C 476.58 797.489 577.259 780.958 621.933 824.372 L 620.29 824.174 C 614.066 823.368 604.957 820.007 598.003 818.985 C 569.644 814.819 549.839 819.03 523.895 829.674 C 539.271 830.88 555.815 832.532 570.715 836.555 C 516.063 845.343 465.768 877.762 437.632 925.773 C 441.377 907.166 451.687 891.022 461.99 875.223 C 433.909 891.517 422.49 897.013 405.353 925.487 L 404.146 925.928 z"/><path transform="translate(0,0)" fill="rgb(0,2,7)" d="M 359.106 1036.4 C 364.247 1035.92 384.572 1041.24 392.075 1042.18 L 392.264 1044.35 L 388.306 1045.17 C 378.427 1042.88 368.028 1041.45 359.106 1036.4 z"/><path transform="translate(0,0)" fill="rgb(32,66,120)" d="M 593.364 562.059 C 603.378 567.099 617.695 572.747 628.317 577.258 C 631.308 575.387 637.771 575.657 642.844 573.698 C 658.912 582.825 688.067 597.765 694.891 614.831 C 699.799 627.103 713.957 629.471 722.388 641.744 C 716.084 651.081 684.326 676.744 674.629 680.135 C 667.912 675.054 661.199 671.155 654.824 665.911 C 651.427 663.116 648.92 659.623 645.553 656.407 C 644.687 658.972 646.152 660.696 647.447 664.002 C 640.25 665.2 618.845 653.555 612.381 649.136 L 601.353 655.919 L 602.512 656.821 C 614.661 666.426 614.105 674.995 620.718 680.297 C 634.244 691.143 657.249 705.546 673.505 712.294 C 679.622 714.833 685.935 715.63 690.914 717.804 C 697.663 722.909 700.269 722.629 706.775 729.08 C 690.195 741.051 685.112 745.57 676.15 765.126 C 683.29 758.876 714.206 735.893 722.903 735.176 L 724.195 736.189 C 723.556 743.952 702.512 751.094 699.631 757.477 L 706.556 756.955 C 705.887 761.811 702.365 757.274 703.657 761.5 C 722.452 755.631 720.033 751.591 739.7 751.974 C 720.507 771.701 685.491 786.26 658.178 791.792 C 656.703 792.091 589.738 781.247 588.285 780.506 C 587.191 769.639 611.381 749.627 619.013 741.204 C 584.852 744.285 572.796 750.174 540.339 764.194 C 529.765 768.762 519.603 775.161 508.553 778.467 C 510.744 772.096 511.442 769.735 512.596 763.083 C 515.226 760.38 518.126 757.245 520.81 754.665 C 504.139 761.12 485.195 772.382 468.736 780.418 C 468.083 780.294 467.43 780.171 466.777 780.047 C 466.331 774.497 476.051 760.426 479.375 755.01 C 472.598 756.371 461.272 758.395 455.279 761.206 C 429.445 773.322 396.036 803.354 380.114 826.483 C 368.78 842.95 360.223 873.325 352.166 891.538 C 340.826 880.857 336.485 872.589 330.679 857.972 C 329.011 853.773 326.828 847.119 324.431 843.5 C 320.51 856.036 324.034 904.389 319.809 910.388 C 316.585 910.867 315.638 911.2 312.394 910.478 C 300.743 901.628 284.852 854.902 281.096 840.378 C 279.268 830.693 279.814 812.73 281.137 802.841 C 287.831 752.779 316.122 709.911 355.793 679.552 C 390.358 653.1 435.434 643.308 478.176 649.425 C 484.044 650.337 489.89 651.387 495.709 652.575 C 511.618 612.518 555.986 580.476 593.364 562.059 z"/><path transform="translate(0,0)" fill="rgb(254,254,254)" d="M 281.096 840.378 C 279.268 830.693 279.814 812.73 281.137 802.841 C 287.831 752.779 316.122 709.911 355.793 679.552 C 390.358 653.1 435.434 643.308 478.176 649.425 C 484.044 650.337 489.89 651.387 495.709 652.575 C 494.531 657.016 492.522 663.738 491.761 668.083 C 488.094 668.312 482.574 667.991 478.755 667.892 C 431.995 666.576 418.344 669.981 379.919 695.94 C 400.985 691.214 423.833 693.389 444.554 698.901 C 393.376 722.665 360.882 744.674 328.762 793.079 C 335.008 767.484 339.462 752.886 353.864 730.236 C 322.25 753.616 299.077 773.263 286.933 812.613 C 283.785 822.813 283.388 831.609 281.096 840.378 z"/><path transform="translate(0,0)" fill="rgb(110,135,168)" d="M 478.176 649.425 C 484.044 650.337 489.89 651.387 495.709 652.575 C 494.531 657.016 492.522 663.738 491.761 668.083 C 488.094 668.312 482.574 667.991 478.755 667.892 C 479.295 660.455 477.298 655.936 478.176 649.425 z"/><path transform="translate(0,0)" fill="rgb(254,254,254)" d="M 593.364 562.059 C 603.378 567.099 617.695 572.747 628.317 577.258 L 626.738 578.517 C 618.263 585.157 603.437 592.761 593.288 600.13 C 563.645 621.654 536.928 655.678 520.257 688.132 C 510.1 707.906 506.82 726.642 494.375 745.957 C 487.669 721.883 485.157 692.435 491.761 668.083 C 492.522 663.738 494.531 657.016 495.709 652.575 C 511.618 612.518 555.986 580.476 593.364 562.059 z"/><path transform="translate(0,0)" fill="rgb(32,66,120)" d="M 1412.89 746.679 C 1437.29 734.762 1465.52 733.972 1491.05 742.804 C 1520.13 752.843 1544.03 774.025 1557.48 801.689 C 1560.81 808.621 1563.58 816.517 1565.68 823.928 L 1569.41 835.96 C 1568.18 835.427 1577.45 839.21 1574.11 837.477 C 1583.47 842.343 1593.36 852.729 1602.48 859.093 C 1610.04 864.376 1620.86 870.274 1626.91 874.986 C 1626.32 893.545 1623.65 911.738 1608.96 925.257 C 1601.04 932.546 1560.43 960.367 1551.34 956.556 C 1549.68 951.337 1555.07 939.362 1557.11 933.709 C 1563.03 917.342 1564.7 903.53 1562.47 886.159 L 1561.46 887.125 C 1555.39 892.981 1550.71 899.26 1544.83 905.39 C 1537.94 912.576 1530.42 917.827 1523.39 923.887 C 1502.81 942.447 1481.54 949.795 1454.61 954.609 C 1437.57 957.654 1422.87 960.454 1405.06 960.669 C 1379.82 960.972 1374.25 943.465 1357.82 928.518 C 1365.23 928.158 1376.54 930.117 1382.53 928.54 C 1390.83 920.684 1363.22 906.196 1364.91 888.568 C 1369.99 879.432 1391.95 866.018 1401.55 861.415 C 1423.92 850.69 1444.82 874.24 1465.03 881.782 C 1482.77 888.403 1502.67 877.695 1519.11 869.883 C 1484.96 859.142 1476.48 856.211 1452.2 826.195 C 1449.65 823.045 1442.69 815.437 1439.01 813.673 L 1436.64 810.535 C 1420.35 794.728 1414.77 794.313 1392.47 793.821 C 1393.31 782.145 1393.51 769.722 1393.9 757.971 C 1399.8 753.527 1406.17 749.74 1412.89 746.679 z"/><path transform="translate(0,0)" fill="rgb(254,254,254)" d="M 1412.89 746.679 C 1437.29 734.762 1465.52 733.972 1491.05 742.804 C 1520.13 752.843 1544.03 774.025 1557.48 801.689 C 1560.81 808.621 1563.58 816.517 1565.68 823.928 C 1565.04 823.887 1563.97 823.888 1563.47 823.453 C 1524.1 788.532 1475.12 775.46 1423.6 768.966 C 1444.67 762.422 1449.38 761.722 1471.07 761.998 C 1446.91 749.436 1440.22 748.544 1412.89 746.679 z"/><path transform="translate(0,0)" fill="rgb(125,207,27)" d="M 528.84 1036.77 C 544.764 1046.68 561.131 1054.9 576.018 1066.49 C 583.23 1072.11 591.585 1077.51 600.27 1080.25 C 621.866 1087.06 644.027 1075.33 665.432 1076.32 C 679.824 1076.98 695.049 1091.35 707.978 1096.8 C 733.608 1105.72 751.523 1103.33 778.008 1116.09 C 765.803 1123.32 743.546 1130.97 729.98 1136.81 C 717.019 1142.39 706.408 1148.09 693.892 1154.09 C 689.643 1150.14 685.579 1145.67 681.635 1142.02 C 671.457 1142.38 661.224 1144.09 651.739 1144.31 C 643.274 1140.46 629.373 1128.85 621.841 1127.79 C 609.376 1126.04 581.305 1121.72 569.43 1124.81 C 540.615 1132.31 502.43 1124.87 476.261 1134.57 C 453.204 1143.12 418.997 1163.18 407.556 1185.54 C 405.197 1191.07 393.244 1218.05 393.815 1221.55 C 389.288 1230.61 366.554 1240.7 357.121 1249.84 C 345.56 1261.06 336.678 1280.92 326.307 1289.59 C 330.314 1277.35 339.293 1257.11 334.444 1244.57 C 333.224 1241.42 331.108 1238.83 327.931 1237.53 C 304.448 1227.95 209.743 1269.92 184.28 1281.08 C 203.057 1262.05 229.778 1246.16 249.386 1226.57 C 259.459 1216.5 275.206 1199.17 285.671 1191.26 C 309.089 1188.92 345.476 1190.62 362.633 1175.54 C 370.046 1172.87 380.624 1157.53 376.098 1148.92 C 368.762 1134.97 350.875 1123.19 336.443 1117.1 C 325.908 1113.4 278.986 1099.87 274.819 1092.11 L 276.875 1091.95 L 276.83 1092.01 L 283.026 1092.77 C 278.938 1089.43 252.549 1079.9 243.539 1074.52 C 274.146 1083.52 282.653 1086.49 313.976 1079.2 C 313.019 1065.54 310.868 1055.16 306.305 1042.1 L 307.726 1043.4 C 317.317 1052.26 328.427 1066.53 336.368 1073.69 C 353.066 1088.75 399.91 1121.75 421.318 1121.75 C 436.347 1121.76 463.967 1099.2 483.309 1093.71 C 507.701 1086.78 517.995 1093.99 540.464 1085.36 C 537.644 1069.06 532.444 1052.94 528.84 1036.77 z"/><path transform="translate(0,0)" fill="rgb(254,254,254)" d="M 551.962 1071.78 C 557.175 1073.94 565.668 1079.26 571.156 1082.1 C 589.326 1091.51 608.266 1099.03 628.965 1099.49 C 640.769 1099.76 653.204 1095.49 664.301 1097.14 C 679.182 1099.36 693.192 1107.5 707.577 1111.63 C 712.555 1113.06 722.4 1110.4 726.057 1110.99 C 733.25 1112.16 741.576 1115.23 749.46 1116.89 C 741.431 1120.75 708.846 1133.64 701.542 1135.41 C 696.928 1131.54 684.024 1118.4 679.22 1117.26 C 650.202 1110.34 614.909 1112.5 584.934 1107.77 C 569.717 1105.36 548.717 1115.65 532.275 1116.51 C 490.282 1119.17 467.297 1120.29 432.909 1146.41 C 410.103 1163.73 407.861 1158.93 395.195 1189.12 C 391.247 1198.53 367.886 1217.7 359.293 1225.36 C 356.139 1228.8 352.166 1234.2 349.169 1238.03 C 346.951 1231.66 346.506 1230.26 345.624 1223.5 C 314.61 1205.02 314.494 1220.87 284.714 1225.95 C 311.263 1203.98 328.676 1195.22 363.17 1205.51 C 373.471 1195.68 385.116 1179.86 390.886 1166.66 C 397.544 1151.43 384.476 1141.18 375.313 1131.8 C 357.586 1113.67 343.965 1108.25 320.795 1099.98 C 324.296 1095.58 327.21 1090.81 330.238 1086.08 C 350.639 1099.5 374.035 1111.24 394.488 1125.03 C 404.701 1131.91 403.552 1135.93 415.448 1140.7 C 442.466 1137.86 447.133 1120.8 470.12 1112.88 C 493.123 1104.96 532.495 1114.35 552.023 1092.23 C 556.116 1087.6 553.205 1077.54 551.962 1071.78 z"/><path transform="translate(0,0)" fill="rgb(125,207,27)" d="M 1506.33 999.009 C 1505.89 1002.15 1504.99 1009.47 1503.49 1011.84 C 1492.75 1028.8 1471.47 1049.14 1457.58 1064.25 C 1469.2 1062.47 1480.99 1063.39 1492.21 1060.7 C 1497.75 1059.37 1502.5 1051.44 1508.47 1051.41 C 1513.09 1051.39 1513.22 1048.87 1518.5 1049.13 L 1518.65 1050.24 C 1503.51 1072.01 1463.07 1087.28 1439.25 1099.76 C 1448.68 1109.58 1467.92 1134.01 1478.33 1139.14 C 1490.75 1145.58 1511.29 1148.84 1522.17 1157.5 C 1534.73 1167.5 1536.74 1177.2 1551.55 1187.64 C 1554.1 1185.58 1555.64 1183.66 1557.79 1181.23 C 1572.61 1189.49 1585.88 1194.47 1603.23 1194.23 C 1612.12 1194.1 1653.87 1192.96 1652.27 1179.16 C 1648.66 1173.72 1646.65 1172.73 1642.39 1168.2 C 1667.11 1173.11 1692.19 1181.09 1716.45 1188.2 C 1730.66 1192.36 1745.34 1198.11 1759.82 1201.09 L 1758.13 1204.15 C 1729.94 1203.07 1691.92 1196.42 1664.67 1206.66 C 1688.29 1250.46 1733.09 1287.74 1773.13 1316.29 C 1739.86 1302.84 1639.46 1253.77 1610.79 1252.26 C 1600.11 1251.7 1588.58 1255.7 1578.76 1259.48 C 1575.47 1260.56 1568.51 1263.82 1565.04 1265.31 C 1553.28 1256.44 1541.22 1247.98 1528.87 1239.95 C 1523.4 1236.35 1511.75 1229.13 1507.22 1225.35 C 1508.29 1220.96 1505.86 1219.02 1507.11 1214.49 L 1510.57 1216.62 L 1512.72 1215.92 C 1492.48 1200.76 1472.01 1190.96 1451.79 1176.57 C 1441.68 1168.42 1436.13 1153.8 1424.19 1147.89 C 1414.55 1143.11 1388.64 1148.8 1382.71 1139.34 C 1383.89 1134.6 1419.1 1093.38 1426.08 1083.58 C 1403.42 1086.81 1382.53 1087.88 1359.86 1089.86 C 1348.85 1090.83 1333.48 1093.9 1322.51 1095.92 C 1355.07 1077.04 1347.77 1083.43 1373.16 1051.99 C 1371.95 1059.65 1369.69 1067.03 1367.58 1074.49 C 1417.64 1064.67 1433.72 1057.03 1473.71 1025.08 C 1484.65 1016.34 1496.2 1009.89 1506.33 999.009 z"/><path transform="translate(0,0)" fill="rgb(33,80,28)" d="M 1507.22 1225.35 C 1508.29 1220.96 1505.86 1219.02 1507.11 1214.49 L 1510.57 1216.62 L 1512.72 1215.92 C 1538.66 1232.47 1557.22 1237.89 1578.76 1259.48 C 1575.47 1260.56 1568.51 1263.82 1565.04 1265.31 C 1553.28 1256.44 1541.22 1247.98 1528.87 1239.95 C 1523.4 1236.35 1511.75 1229.13 1507.22 1225.35 z"/><path transform="translate(0,0)" fill="rgb(254,254,254)" d="M 1413.46 1122.01 C 1423.02 1112.49 1426.26 1110.75 1429.79 1098.02 C 1437.84 1122.55 1459.51 1148.83 1485.1 1154.9 C 1490.3 1156.13 1510.25 1163.98 1513.48 1167.26 C 1528.95 1182.95 1535.64 1200.43 1559.02 1207.58 C 1593.14 1221.24 1624.87 1216.44 1657.93 1202.78 C 1652.01 1224.01 1662.02 1231.28 1674.99 1246.58 L 1670.78 1248.01 C 1661 1242.59 1652 1235.31 1642.47 1230.01 C 1621.37 1218.28 1596.11 1230.28 1570.89 1233.39 C 1565.1 1230.28 1559.85 1226.71 1553.71 1223.59 C 1543.8 1218.56 1529.92 1214.63 1521.95 1207.23 C 1514.26 1200.09 1511.21 1186.38 1501.92 1180.41 C 1490.02 1172.76 1471.1 1171.75 1460.55 1163 C 1438.99 1145.12 1439.61 1135.03 1413.46 1122.01 z"/><path transform="translate(0,0)" fill="rgb(230,246,186)" d="M 1674.99 1246.58 C 1679.22 1250.42 1684.07 1254.57 1687.91 1258.73 C 1682.12 1255.28 1676.41 1251.71 1670.78 1248.01 L 1674.99 1246.58 z"/><path transform="translate(0,0)" fill="rgb(125,207,27)" d="M 1651.31 480.323 L 1653.18 480.252 C 1674.78 479.535 1706.24 488.739 1720.33 469.71 C 1737.83 446.07 1760.43 450.151 1787.26 442.388 C 1817.98 433.443 1848.6 424.144 1879.11 414.492 C 1890.3 411.059 1907.75 405.068 1918.46 402.397 C 1888.61 423.455 1847.22 441.168 1814.57 459.047 C 1803.97 464.855 1791.67 469.014 1781.34 475.731 C 1762.96 487.673 1751.96 516.038 1734.55 527.442 C 1722.93 535.061 1699.65 528.849 1685.52 535.14 C 1669.73 542.173 1660.24 555.467 1646.43 564.227 C 1642.2 563.11 1646.55 562.459 1641.92 561.678 C 1634.26 567.724 1636.08 597.246 1624.13 600.143 C 1591.6 608.031 1567.81 586.749 1538.72 612.587 C 1524.32 625.383 1496.89 623.34 1479.11 621.635 C 1464.66 620.248 1451.16 619.357 1435.69 615.792 C 1455.81 599.409 1477.86 597.032 1502.5 589.286 C 1500.19 584.26 1498.74 579.077 1497.08 573.798 L 1500.44 574.15 C 1520.38 576.318 1539.11 569.789 1558.63 565.748 C 1570.96 563.196 1603.41 563.914 1603.45 545.947 C 1603.46 541.636 1596.97 535.583 1594.01 532.616 C 1621.46 515.675 1632.41 493.222 1651.31 480.323 z"/><path transform="translate(0,0)" fill="rgb(254,254,254)" d="M 1764.27 464.955 L 1765.28 465.202 L 1765.72 466.766 C 1755.42 483.077 1753.32 491.731 1739.71 506.229 C 1740.34 498.981 1741.47 494.156 1743.03 487.056 C 1710.23 525.045 1698 504.544 1660.2 526.227 C 1652.32 530.749 1646.23 542.705 1640.76 548.546 C 1632.47 557.405 1616.4 576.975 1606.31 582.074 C 1589.07 590.783 1564.84 582.866 1546.81 587.941 C 1535.73 591.059 1526.2 602.986 1516.19 608.057 C 1510.55 610.917 1505.08 611.625 1499.09 609.696 L 1474.12 610.592 C 1481.3 607.617 1499.25 600.408 1505.3 596.928 C 1522.99 586.758 1529.38 581.332 1548.24 574.768 C 1563.39 569.493 1595.29 574.354 1600.78 569.76 C 1618.13 555.246 1637.27 522.992 1654.09 507.383 C 1669.72 491.799 1705.26 498.643 1721.63 489.996 C 1740.41 480.08 1741.61 472.911 1764.27 464.955 z"/><path transform="translate(0,0)" fill="rgb(125,207,27)" d="M 1326.3 371.211 C 1339.59 362.154 1376.95 338.384 1382.78 322.652 C 1386.4 312.866 1375.4 296.143 1379.12 288.069 C 1386.81 282.815 1402.86 278.733 1411.99 275.706 C 1437.9 267.112 1464.15 259.798 1489.52 249.586 C 1470.29 266.164 1424.55 293.89 1422.56 319.008 C 1418.83 365.828 1482.28 327.116 1502.31 322.039 C 1511.12 319.822 1522.8 320.25 1532.81 317.904 L 1734.02 271.071 C 1760.73 264.752 1789.74 258.431 1816.07 251.535 C 1789.06 277.365 1762.89 307.291 1737.18 334.76 C 1680.63 396.045 1623.4 456.701 1565.5 516.716 C 1571.43 519.925 1577.01 522.914 1582.74 526.48 C 1581.79 530.305 1582.8 528.893 1580.07 531.146 C 1569.24 533.727 1545.97 528.75 1533.88 526.641 C 1550.95 510.797 1574.03 485.343 1590.42 467.995 C 1617.15 440.237 1643.7 412.315 1670.09 384.232 C 1689.99 363.314 1710.04 342.531 1730.23 321.884 C 1741.34 310.421 1755.19 296.852 1765.17 284.909 C 1653.49 305.827 1543.2 333.674 1432.76 360.266 C 1380.4 372.872 1340.27 390.85 1284.53 395.439 C 1301.01 387.534 1312.13 382.641 1326.3 371.211 z"/><path transform="translate(0,0)" fill="rgb(254,254,254)" d="M 1416.95 289.156 L 1418.26 289.259 L 1418.78 290.896 C 1416.59 299 1411.49 304.742 1408.75 313.177 C 1401.29 336.09 1414.84 355.371 1381.98 356.482 C 1395.88 335.558 1400.84 320.557 1390.56 296.331 L 1416.95 289.156 z"/><path transform="translate(0,0)" fill="rgb(32,66,120)" d="M 1235.63 953.671 C 1247.57 962.61 1255.68 973.594 1269.32 980.407 C 1272.26 981.876 1277.49 983.637 1277.83 985.896 L 1277.19 986.44 L 1278.48 989.031 C 1276.2 990.74 1276.7 990.223 1273.74 991.076 C 1282.5 990.842 1299.1 989.969 1307.25 990.905 C 1293.47 1015.86 1214.99 1057.15 1187.73 1069.44 C 1208.65 1071.56 1223.77 1073.49 1245.26 1074.91 C 1238.9 1079.65 1231.1 1085.12 1224.21 1088.92 C 1191.73 1106.85 1101.68 1129.63 1073.43 1098.94 C 1089.64 1083.17 1110.62 1070.59 1127.91 1056.26 C 1151.85 1036.41 1176.2 1017.78 1200.99 999.029 C 1206.15 995.127 1203 988.593 1206.78 984.418 C 1216.41 973.788 1226.3 964.724 1235.63 953.671 z"/><path transform="translate(0,0)" fill="rgb(134,214,21)" d="M 1257.27 992.201 C 1264.96 989.473 1269.23 988.256 1277.19 986.44 L 1278.48 989.031 C 1276.2 990.74 1276.7 990.223 1273.74 991.076 C 1268.24 991.77 1262.81 991.934 1257.27 992.201 z"/><path transform="translate(0,0)" fill="rgb(125,207,27)" d="M 600.731 1501.56 C 607.027 1491.85 648.117 1461.68 659.12 1452.81 C 706.077 1414.55 753.466 1376.82 801.28 1339.63 C 826.033 1320.27 873.377 1280.25 900.116 1267.13 C 896.195 1276.37 885.03 1293.43 879.223 1305.36 C 873.771 1313.99 868.578 1322.79 863.65 1331.73 C 876.179 1352.37 889.459 1373.53 901.647 1394.27 C 886.327 1384.54 851.545 1359.72 836.278 1355.82 C 799.956 1366.88 807.365 1400.86 810.437 1430.93 C 801.101 1419.5 789.27 1403.18 777.722 1395.19 C 767.054 1399.53 749.377 1413.78 739.66 1421.01 L 694.443 1454.3 C 656.198 1482.13 617.194 1508.64 578.943 1536.29 C 585.826 1524.83 594.503 1512.77 600.731 1501.56 z"/><path transform="translate(0,0)" fill="rgb(254,254,254)" d="M 605.107 894.817 C 619.858 874.86 634.527 861.422 656.949 850.553 C 696.938 831.168 747.665 836.416 768.393 879.832 C 758.847 877.135 748.75 869.463 738.568 867.133 C 685.702 855.035 640.97 876.703 598.394 905.745 L 605.107 894.817 z"/><path transform="translate(0,0)" fill="rgb(254,254,254)" d="M 157.888 945.96 C 159.018 892.605 190.452 855.834 240.177 839.266 C 240.646 845.783 241.235 850.956 242.156 857.43 C 197.718 872.596 167.487 902.667 160.61 950.229 L 157.888 945.96 z"/><path transform="translate(0,0)" fill="rgb(125,207,27)" d="M 651.949 1238.58 C 657.685 1239.71 662.963 1234.39 671.924 1234.3 C 665.409 1241.1 659.091 1248.08 652.977 1255.23 C 645.159 1256.59 634.346 1255.28 625.681 1255.35 L 624.322 1254.72 C 627.012 1250.6 646.783 1240.68 651.949 1238.58 z"/><path transform="translate(0,0)" fill="rgb(230,246,186)" d="M 1565.64 364.319 C 1576.62 359.496 1612.52 351.038 1625.88 347.645 C 1620.81 352.703 1594.97 361.133 1586.64 364.132 L 1590.41 360.739 L 1589.97 360.004 C 1582.65 359.574 1574.56 364.875 1565.64 364.319 z"/><path transform="translate(0,0)" fill="rgb(17,44,93)" d="M 768.393 879.832 C 775.274 875.914 779.368 864.778 787.876 874.634 C 784.449 878.58 777.522 882.251 772.526 883.628 C 769.212 882.285 770.709 883.299 768.393 879.832 z"/><path transform="translate(0,0)" fill="rgb(134,214,21)" d="M 683.07 1223.39 L 671.924 1234.3 C 662.963 1234.39 657.685 1239.71 651.949 1238.58 C 662.24 1233.35 672.615 1228.29 683.07 1223.39 z"/><path transform="translate(0,0)" fill="rgb(134,214,21)" d="M 799.392 856.341 C 801.152 858.624 801.836 859.34 803.906 861.363 C 800.566 864.002 795.927 868.028 792.217 869.712 L 792.037 868.462 C 794.254 863.699 796.475 860.637 799.392 856.341 z"/><path transform="translate(0,0)" fill="rgb(134,214,21)" d="M 607.143 1178.62 C 603.864 1184.13 600.865 1188.5 597.19 1193.76 L 592.823 1190.48 C 597.516 1186.51 602.276 1182.35 607.143 1178.62 z"/><path transform="translate(0,0)" fill="rgb(192,199,221)" d="M 157.888 945.96 L 160.61 950.229 C 160.801 953.175 161.48 957.173 160.192 959.635 L 159.32 959.21 C 158.717 954.808 158.24 950.389 157.888 945.96 z"/><path transform="translate(0,0)" fill="rgb(32,66,120)" d="M 1445.56 694.463 C 1447.17 690.216 1452.41 677.545 1452.45 673.872 C 1449.57 672.707 1447.45 672.211 1445.47 669.863 C 1446.82 661.558 1459.58 648.351 1465.42 642.377 C 1473.73 633.862 1495.17 624.271 1507.12 624.643 C 1512.62 628.35 1506.58 625.597 1509.5 629.956 C 1515.84 630.02 1526.89 627.593 1535.59 627.204 C 1531.33 630.866 1518.67 640.622 1517.3 645.415 C 1550.25 632.629 1579.88 633.749 1612.26 647.821 C 1675.42 675.266 1701.85 735.997 1705.99 801.341 C 1706.39 819.352 1706.72 827.608 1701.83 844.714 C 1698.52 841.106 1696 837.332 1693.47 833.248 C 1682.7 815.883 1650.38 769.463 1629.86 768.31 L 1629.24 769.096 L 1633.57 772.751 L 1633 773.68 L 1621.29 775.404 C 1640.21 803.747 1654.2 802.811 1648.41 840.172 C 1622.34 827.966 1611.63 826.709 1587.24 807.759 C 1553.77 781.762 1550 760.207 1532.84 722.526 C 1507.87 717.879 1471.85 703.266 1445.56 694.463 z"/><path transform="translate(0,0)" fill="rgb(254,254,254)" d="M 1517.3 645.415 C 1550.25 632.629 1579.88 633.749 1612.26 647.821 C 1675.42 675.266 1701.85 735.997 1705.99 801.341 C 1702.8 797.038 1697.98 783.586 1695.6 778.104 C 1666.99 712.225 1578.4 653.343 1506.75 651.259 C 1510.77 649.225 1513.53 647.841 1517.3 645.415 z"/><path transform="translate(0,0)" fill="rgb(32,66,120)" d="M 1735.41 709.531 C 1803.75 715.05 1877.76 778.582 1880.01 849.211 C 1880.39 854.137 1880.94 858.302 1880.4 863.222 L 1878.99 862.991 L 1878.61 860.534 C 1853.54 829.317 1829.84 816.075 1789.26 810.331 C 1798.99 822.479 1807.9 840.658 1805.75 856.859 C 1797.49 919.027 1724.56 963.178 1666.69 968.162 C 1657.08 968.99 1645.46 967.339 1635.86 966.179 C 1665.35 952.351 1691.07 936.599 1710.31 909.526 C 1742.77 863.772 1755.92 807.083 1746.92 751.712 C 1743.78 734.364 1742.24 726.267 1735.41 709.531 z"/><path transform="translate(0,0)" fill="rgb(254,254,254)" d="M 1735.41 709.531 C 1803.75 715.05 1877.76 778.582 1880.01 849.211 C 1874.13 841.256 1871.86 827.217 1860.06 812.323 C 1832.12 777.068 1791.01 757.289 1746.92 751.712 C 1743.78 734.364 1742.24 726.267 1735.41 709.531 z"/><path transform="translate(0,0)" fill="rgb(125,207,27)" d="M 1886.33 950.777 L 1887.33 952.186 C 1863.69 1027.58 1779.42 1083.19 1703.83 1097.28 C 1684.72 1100.85 1664.16 1100.25 1644.74 1099.97 C 1680.23 1090.03 1702.16 1076.44 1732.5 1056.56 C 1700.67 1066.6 1621.71 1071.86 1588.56 1063.95 C 1572.09 1058.54 1564.16 1051.72 1550.89 1040.99 C 1568.96 1042.74 1585.74 1041.18 1603.6 1040.58 C 1675.55 1038.15 1727.78 1022.93 1787.3 982.512 C 1778.98 992.031 1771.72 1003 1763.91 1013.01 C 1757.49 1021.24 1750.68 1028.62 1743.66 1036.31 C 1756.23 1034.08 1766.89 1033.13 1779.53 1029.69 C 1826.4 1016.94 1858.06 989.106 1886.33 950.777 z"/><path transform="translate(0,0)" fill="rgb(125,207,27)" d="M 1254.27 1124.68 C 1244.08 1166.33 1220.04 1189.7 1183.71 1211.85 C 1125.01 1247.1 1057.02 1263.75 988.674 1259.63 C 971.113 1258.49 957.464 1255.22 940.714 1253.1 L 949.775 1251.45 C 991.62 1244.05 1040.36 1225.54 1081.86 1212.45 C 1090.27 1208.56 1095.32 1205.92 1103.25 1201.15 C 1064.01 1208.13 1038.34 1205.33 1006.99 1180.95 C 1040.16 1190.09 1097.91 1183.45 1131.02 1174.64 C 1145.57 1170.77 1170.58 1159.8 1185.91 1154.16 C 1176.53 1162.07 1169.22 1169.61 1160.48 1178.12 C 1153.29 1185.13 1144.88 1191.56 1137.84 1198.79 C 1193.27 1189.22 1218.25 1166.34 1254.27 1124.68 z"/><path transform="translate(0,0)" fill="rgb(254,254,254)" d="M 410.26 1185.68 C 416.934 1185.98 434.161 1192.91 442.931 1194.64 C 467.323 1199.45 489.038 1197.29 513.418 1195.67 C 510.087 1198.16 506.503 1200.28 502.966 1202.48 C 484.491 1210.27 461.506 1211.91 442.14 1206.4 C 433.672 1203.99 414.67 1198.92 409.547 1190.61 C 408.773 1189.36 409.738 1187.57 410.26 1185.68 z"/><path transform="translate(0,0)" fill="rgb(134,214,21)" d="M 1206.3 1247.68 C 1208.98 1251.55 1207.62 1259.71 1209.14 1263.96 C 1214.36 1268.23 1232.45 1271.35 1239.82 1272.96 C 1226.25 1275.07 1213.6 1275.19 1203.55 1288.33 C 1201.41 1291.13 1200.55 1296.44 1197.75 1298.82 L 1197.51 1296.76 C 1198.74 1284.59 1194.41 1281.76 1184.38 1276.2 C 1180.07 1276.58 1171.88 1277.52 1168.05 1276.62 C 1187.99 1269.86 1198.13 1268.84 1206.3 1247.68 z"/><path transform="translate(0,0)" fill="rgb(125,207,27)" d="M 1277.45 1236.73 C 1280.48 1222.88 1283.41 1207.06 1279.64 1193.23 C 1299.31 1209.09 1318.7 1222.51 1344.17 1226.97 C 1352.72 1228.47 1364.19 1229.32 1371.91 1232.85 C 1378.85 1236.02 1386.98 1247.07 1393.91 1249.17 C 1402.2 1255.18 1413 1260.51 1422.04 1265.64 C 1434.91 1272.99 1447.71 1280.47 1460.44 1288.07 C 1488.6 1304.91 1514.27 1322.93 1541.99 1339.97 C 1525.16 1335.37 1508.35 1330.45 1491.46 1326.09 C 1480.15 1323.17 1467.31 1321.47 1456.58 1316.87 C 1446.47 1312.54 1439.67 1301.32 1431.11 1294.67 C 1416.8 1283.56 1371.67 1265.81 1354.6 1275.51 C 1350.27 1277.97 1347.84 1281.84 1346.76 1286.63 C 1344.61 1296.07 1347.47 1306.07 1352.72 1314 C 1366.86 1335.38 1394.3 1332.77 1399.64 1340.1 C 1404.9 1347.32 1416.49 1431.48 1418.98 1445.76 L 1418.01 1444.22 C 1407.04 1426.7 1398.8 1406.86 1387.8 1389.08 C 1376.26 1370.41 1367.59 1365.93 1347.77 1359.24 C 1312.33 1364.35 1316.6 1369.43 1287.87 1383.19 C 1308.41 1351.91 1315.95 1328.36 1287.62 1298.11 C 1286.89 1294.54 1292.08 1291.5 1294.45 1288.73 C 1301.75 1280.2 1300.1 1261.38 1299.5 1250.82 C 1293.39 1246.15 1284.19 1240.87 1277.45 1236.73 z"/><path transform="translate(0,0)" fill="rgb(254,254,254)" d="M 1295.74 1214.71 C 1317.33 1226.89 1334.67 1234.61 1357.77 1243.18 C 1360.24 1244.09 1384.63 1261.34 1386.16 1263.18 C 1376.32 1266.17 1348.99 1249.23 1336.31 1261.82 C 1326.88 1271.2 1330.26 1289.73 1332.34 1300.86 C 1336.73 1320.36 1341.44 1319.3 1335.87 1339.87 C 1332.72 1342.14 1329.58 1344.43 1326.45 1346.73 C 1326.27 1336.55 1326.4 1329.66 1323.2 1319.92 C 1318.54 1305.73 1309.48 1293.03 1308.68 1277.85 C 1308.34 1271.29 1309.84 1262.58 1310.81 1255.91 C 1315 1252.17 1319.57 1249.23 1324.2 1246.04 C 1310.18 1234.84 1296.82 1235.34 1295.74 1214.71 z"/><path transform="translate(0,0)" fill="rgb(125,207,27)" d="M 526.808 1254.28 C 537.253 1244.67 542.649 1236.1 552.096 1226.15 C 563.946 1213.67 579.262 1201.25 592.823 1190.48 L 597.19 1193.76 C 591.292 1203.58 586.251 1212.87 580.838 1222.96 C 584.911 1232.14 589.498 1241.66 592.759 1251.12 C 594.473 1256.1 594.934 1261.78 596.473 1266.78 C 586.073 1270.62 574.397 1277.4 566.01 1284.67 C 562.458 1293.98 559.959 1307.4 555.898 1316.64 C 546.058 1339.03 531.699 1369.07 519.239 1389.83 C 521.452 1365.17 534.668 1340.08 530.727 1312.5 L 522.21 1305.36 C 504.164 1317.82 496.102 1328.39 480.319 1341.98 C 461.343 1358.33 438.477 1375.2 417.76 1389.37 C 432.583 1368.89 461.071 1333.08 469.681 1311.54 C 465.814 1307.61 464.282 1305.52 461.063 1301.14 C 487.434 1290.75 508.544 1276.34 526.808 1254.28 z"/><path transform="translate(0,0)" fill="rgb(254,254,254)" d="M 560.604 1233.79 C 562.964 1236.78 567.262 1253.33 568.634 1258.16 C 554.841 1270.62 549.215 1279.34 537.818 1294.3 C 536.134 1296.14 536.868 1295.49 534.341 1296.48 L 533.32 1295.82 C 532.819 1291.88 536.323 1284.89 537.565 1280.81 C 543.846 1260.14 546.272 1250.29 560.604 1233.79 z"/><path transform="translate(0,0)" fill="rgb(254,254,254)" d="M 527.563 1276 C 528.022 1276.34 528.126 1277 528.37 1277.52 C 527.404 1279.62 525.708 1283.44 523.944 1284.73 C 507.158 1297.04 494.455 1310.9 481.009 1326.65 C 480.432 1324.26 480.133 1311.27 479.826 1307.77 C 483.482 1305.39 487.373 1303.36 491.091 1301.08 C 503.67 1293.34 514.784 1283.42 527.563 1276 z"/><path transform="translate(0,0)" fill="rgb(0,2,7)" d="M 982.435 1353.43 C 996.016 1349.14 1006.79 1344.03 1019.75 1338.16 L 1017.8 1342.72 C 1019.48 1345.33 1019.85 1345.05 1022.79 1346.69 C 1015.37 1348.75 989.893 1353.09 982.435 1353.43 z"/><path transform="translate(0,0)" fill="rgb(0,2,7)" fill-opacity="0.988235" d="M 405.719 1652.66 C 410.994 1642.73 416.398 1635.46 422.873 1626.32 C 423.681 1629.37 424.59 1633.43 425.91 1636.16 C 419.125 1641.59 412.394 1647.1 405.719 1652.66 z"/><path transform="translate(0,0)" fill="rgb(134,214,21)" fill-opacity="0.945098" d="M 1759.82 1201.09 L 1765.35 1202.72 L 1765.7 1203.55 C 1762.32 1204.09 1761.56 1204.14 1758.13 1204.15 L 1759.82 1201.09 z"/></svg>