<?xml version="1.0" encoding="UTF-8"?><svg id="Layer_2" xmlns="http://www.w3.org/2000/svg" viewBox="0 0 1085.05 758.65"><defs><style>.cls-1{fill:#16204b;}.cls-2{fill:#bfd2e0;}.cls-3{fill:#fbfdfe;}.cls-4{fill:#c72127;}.cls-5{fill:#fafbfd;}.cls-6{fill:#feffff;}</style></defs><g id="Layer_1-2"><g id="aQ18Bc"><path class="cls-1" d="M975.46,416.57l14.84,1.71,22.55,5.97c-4.64-5.92-10.07-9.51-15.65-13.78l-34.8-26.66c.28,6.78,4.18,11.22,5.15,17.85-2.32.31-4.14-1.98-5.36-4.1l-14.9-25.88c-12.27-21.31-25.73-26.46-44.43-38.81l24.54,4.41c-8.63-9.07-17.37-16.59-26.3-24.6-15.96-14.31-34.33-25.07-56.66-23.57-14.71.99-29.39-1.47-41.64-10.82,20.16,1.15,38.72-.21,56.97-9.6-15.54-1.45-29.87-5.69-45.02-9.89-20.72-5.75-40.08-12.85-59.48-22.33l7.25,18.29-18.15.37,10.95,19.29c2.08,3.66,9.87,46.72,17.23,54.63l-5.08.16c-4.07-4.2-9.96-6.22-15.42-9.68,3.71,15.36,5.04,29.09,3.03,43.78-.55,3.99.14,8.09-1.15,11.96-1.17,3.53-14.15-6.5-16.57-8.2-1.33,11.01-2.37,21.93-8.29,31.13-3.09,4.81-8.32,8.36-10.85,13.67-1.46.1-2.49-1.25-3.75-1.47-4.22,26.8-13.38,52.14-30.08,74.42-2.23-7.64-2.16-14.98-5.9-22.02-6.54,32.21-23.47,63.83-49.11,82.48.08-8.55,1.6-15.1.65-21.82-12.31,21.74-30.42,38.32-52.33,49.41-.64-5.53,1.65-8.8.42-13.82-7.16,11.32-15.3,17.16-23.62,26.12l-11.62,8.09-18.47-14c-5.36-7.21-10.14-10.07-15.55-19.1l-.23,12.77c-22.3-11.6-40.09-28.62-51.9-49.61l-.45,21.45c-25.77-20.86-42.19-49.89-47.97-82.85-4.06,7.07-4.51,14.8-6.56,22.52-16.86-22.45-25.57-48.37-29.73-75.46-2.56,1.07-3.05,2.8-5.52,2.99-2.29-4.98-6.45-8.65-9.23-13.39-5.59-9.54-6.75-20.61-7.4-31.68-5.71,3.81-10.28,7.81-16.03,10.21-2.51-4.3-1.8-9.08-2.33-13.82-1.69-15.02-.56-29.14,3.46-44.15-7.54,4.14-13.35,8.29-20.46,10.26,6.83-8.78,10.64-38.68,16.87-53.21.84-1.96,1.51-3.94.86-5.74,3.96-3.34,6.1-9.32,10.74-15.49-6.67-1.08-12.68.2-19.32-.12l7.75-19.27c-19.89,10.62-39.44,17.58-60.53,23.2-15.13,4.03-29.33,8.19-44.93,9.99,18.53,9.45,37.52,11.43,57.55,8.96-12.74,9.49-27.84,12.87-43.04,11.48-21.85-1.99-41.7,9.73-57.01,24.11l-25.73,24.17c9.48-.74,16.61-4.85,25.53-4.57l-19.43,11.74c-9.18,5.54-16.75,12.78-22.21,22.04l-11.81,20.04c-3.45,5.85-6.48,11.78-12.16,16.18l4.69-18.92c-17.27,13.31-34.25,25.53-50.32,40.12,6.87-.81,11.96-3.52,17.54-4.72,4.86-1.05,9.95-.97,14.86-1.59,2.59-.33,7.07,1.43,9.58-.55,6.34-5.03,12.17-9.86,18.87-14.42,7.32-19.44,19.19-36.92,36.78-48.17,20.94-13.38,46.73-15.66,70.28-8.67,11.49,3.41,21.43,8.3,31.76,13.96l22.15,12.15c3.16,1.73,25.05-6.02,42.8,14.06,6.32,7.14,12.64,13.81,19.43,20.5,5.31,5.23,8.95,11.22,10.35,18.59,4.82,25.41-.23,34.52,12.8,58.08,3,5.42,5.09,12.23,3.12,18-2.98,8.73-12.39,10.44-18.3,16.01l-9.09,8.57c-4.62,4.35-11.02,7.93-13.99,13.86-2.86,5.71-7.4,10.97-11.5,15.82,1.14,9.28,3.58,18.21,1.74,27.6-4.3,21.89-23.61,23.54-24.71,27.34-5.39,18.61-20.42,30.77-39.65,33.16-12.7,1.58-24.96.67-37.83-.1,9.34,7.43,19.92,7.09,30.85,10.71-38.77,15.5-81.85,4.58-114.3-19.61,2.31,7.39,8.44,10.45,11.88,16.79-26.6-2.74-58.62-19.44-74.33-40.64l-4.52,23.9c-33.91-23.66-61.81-63.95-58.74-106.82-6.32,2.81-10.35,6.52-15.75,10.06-10.39-31.64-.1-64.97,18.36-91.72,21.31-30.87,57.36-57.35,89.2-76.64l-8.5-2.22c12.85-10.15,17.44-19.87,31.77-29.75-4.75-1.62-8.52-.8-12.83-3.2,5.38-2.6,9.49-6.38,13.88-10.51,9.46-8.9,18.88-17.05,30.85-23.89-5.16-2.36-10.32-2.68-14.94-7.26,19.07-3.37,30.01-7.53,48.02-14.55-11.35-5.48-20.63-13.63-24.38-25.61,25.55,7.18,73.59-6.88,98.01-16.03l49.31-18.46c-9.35-4.38-16.88-10.21-20.81-19.42,15.62.68,30.04.91,44.93-2.94-10.13-16.4-12.93-34.94-10.32-53.03,10.81,7.48,20.26,13.89,33.73,14.93-7.81-27.91-.56-54.9,16.71-78.06,5.83,9.46,11.98,17.55,20.09,25.85,2.91-18.93,11.87-35.45,26.36-48.01,10.23-8.86,20.82-16.6,33.73-21.52.24,7.65-1.1,14.05.12,22.47,7.53-6.04,14.68-11.47,24.16-15.15l-1.26-32.2c24.51,2.24,46.29,6.5,68.53,18.68-.92-10.56-.83-19.7,2.91-29.71,22.91,13.78,44.8,26.85,60.67,50.37,4.12-9.48,8.83-16.27,17.15-21.19,3.19,6.17,7.38,11.06,11.65,16.39l23.93,29.92c9.26,11.59,14.34,25.21,14.86,40.08,11.34-5.66,18.26-14.47,26.36-23.82,10.5,21.17,12.17,44.6,3.02,65.98,12.53-.72,20.95-7.01,30.32-14.01,1.67,19.23.54,35.15-10.8,52.14,15.24,3.34,29.98,3.48,45.6,2.65-4.68,9.11-12.01,15.41-21.55,19.48l45.84,17.03c19.7,7.32,39.06,13.5,59.75,17.32,14.07,2.6,27.49,2.71,41.9.24-3.76,11.96-13.14,20.06-24.82,25.61,18.22,6.47,28.64,11.58,48.26,14.41-4.12,4.85-9.85,4.45-15.89,7.3,18.79,10.34,27.29,22.74,44.38,33.89l-12.02,3.99c13.05,9.57,18.39,17.71,29.99,28.6,2.17,2.04-11.37,2.02-8.27,3.17,29.5,15.83,65.78,43.73,85.92,70.12,21.36,27.99,34.28,63.01,22.7,98.33l-15.98-10.9c5.68,40.93-25.06,85.78-58.1,107.33l-4.47-23.19c-18.3,22.41-46.51,36.64-74.4,40.69,3.6-5.61,8.36-9.36,11.44-15.14.55-1.03-.4-1.82-1.39-1.05-9.04,7.06-18.7,12.01-29.35,16.42-26.42,10.94-55.54,12.64-83.49,2.17,9.2-2.97,18.34-4.03,27.11-8.35.59-.29,2.04-2.04.61-1.97-25.7,1.19-56.33,3.38-69.56-24.31-1.82-3.82-3.55-7.66-5.6-11.43-37.74-15.82-17.72-49.77-22.12-53.89-10.33-9.68-7.81-14.72-19.95-25.13l-14.44-12.38c-6.05-5.19-14.55-7.26-17.34-15.77-1.78-5.43-.17-11.97,2.72-17.04,15.09-26.43,8.08-43.45,15.52-65.51,2.97-8.8,10.08-14.23,16.16-20.57s12.58-13.53,19.24-19.33c9.91-8.64,22.3-3.64,32.67-7.16,16.71-5.67,30.83-16.79,47.53-23.03,48.26-18.03,93.64,2.14,112.66,49.72,3.56,8.9,9.14,7.56,17.4,15.88,2.68,2.7,4.99,2.19,7.87,2.52ZM576.53,516.26c3.83,5.79,4.28,11.61,5.33,17.84,20.92-16.37,38.62-32.62,47.18-59.62,3.17,6.7,3.26,14.35,3.93,22.08,22.78-27.19,38.7-59.53,36.77-94.37,7.83,9.24,11.96,19.12,14.47,30.34,12.13-20.03,18.08-41.97,15.23-65.37,5.96,6.1,10.25,12.27,15.37,19.07,6.4-22.7,6.29-42.04-4.66-64.03,10.06,6.32,18.16,13.11,26.02,21.43-.81-29.08-4.34-44.72-21.57-66.54,9.48,2.88,16.13,7.56,24.22,12.1-5.54-21.53-16.89-39.86-32.7-55.49,12.08,3.37,22.5,5.92,34.81,6.76-8.71-19.53-19.94-32.15-39.71-40.75,15.57-4.73,21.05-13.14,27.23-26.35-19.14,5.68-24.19-1.62-43.02-.42,13.89-9.6,21.04-30.17,19.79-46.82-9.47,9.71-25.95,14.35-39.76,18.96,7.11-14.38,6.45-29.91-.6-44.18-7.88-15.93-18.83-23.45-27.49-39.16l-6.07,22.41c-2.46,9.09-6.61,17.32-13.71,23.79,3.62-32.91-14.55-53.45-39.25-71.18,2.28,11.38,2.78,22.24,1.27,33.65-16.25-21.88-43.46-29.58-68.81-36.85,5.33,20.15,3.67,39.39-6.59,56.67-.05-9.73-1.49-18.67-4.9-27.99-17.42,8.09-34.61,21.04-37,42.26-6.71-10.77-10.69-22.06-11.94-34.16-20.55,20.23-32.43,46.56-18.56,73.7-16.14-7.82-31.03-15.32-40.68-29.51-5.11,20.24-5.89,41.82,10.3,58.02-18.03-.25-25.5,5.46-43.2.87,5,13.3,13.91,23.13,26.89,25.98-18.62,8.25-32.44,22.84-40.42,41.21,13.05-.31,23.43-4.5,35.64-6.91-16.49,16.36-27.29,34.18-33.11,55.84,8.93-5.48,16.67-10.34,26.48-13.98-17.41,19-23.42,42.37-23.23,67.87,8.62-8.05,16.9-15.27,26.89-21.38l-4.89,10.3c-7.99,16.82-5.99,36.29-.3,53.92,5.53-6.45,8.95-13.27,15.14-19.17-2.35,25.14,3.25,44.46,14.82,65.38,3.22-11.73,7.05-22.28,15.67-30.21-3.43,37.99,14.65,66.39,35.09,94.14l4.11-22.3c8.35,25.63,26.03,42.71,47.69,59.74,1.91-6.39,1.63-12.36,5.43-18.7,5.25,23.19,14.78,33.58,33.45,48.44,18.22-14.63,25.9-24.4,32.95-47.31ZM117.33,492.2c-.66,5.28,1.53,10.5,1.88,16.21.53,8.47-.3,16.6.91,24.98,3.64,25.28,17.26,31.09,39.46,39.19-3.39,3.1-9.54,4.67-10.12,9.73-.8,7,3.4,13.92,8,18.96,18.59,20.39,53.47,21.77,79.11,18.3l-21.16-6.56c-3.34-1.03-6.43-2.74-9.77-4.96,32.55-4.64,60.1,8.38,86.32-15.13,3.82-3.42,18.85-3.26,19.29-16.68.16-4.78.29-10.34-3.56-14.15-3.62-3.58-9.27-3.48-14.31-2.83-14.44,1.86-28.31,4.2-42.8,4.68-11.02.37-20.68-1.02-30.16-6.47-8.6-4.95-18.08-8.78-24.43-17.26l30.6,7.08c13.47,3.12,27.05.43,40.89-.86l35.37-3.3c11.27-1.05,17.33-9.76,16.47-20.59-1.5-18.86-16.92-25.04-33.89-24.73l-44.93.8c-18.32.33-25.48-4.06-40.42-13.96-5.37-3.55-10.92-5.09-18.12-5.39,12.91-14.62,30.09-.62,46.12,1.61,17.67,2.46,43.6.18,65.39,1.35,6.2.33,11.15-4.27,11.88-10.13,1.53-12.37-.46-25.16-12.02-31.69-15.8-8.91-45.41-13.8-63.76-15.1-24.56-1.74-20.41-23.51-46.41-22.14,7.01-7.75,17.85-8.92,27.26-4.59,10.89,5.01,21.52,8.78,33.29,11.63l44.17,10.7c3.01.73,6.01-2.48,6.93-5.18,2.17-6.38.28-12.86-3.61-18.21-12.35-17-39.31-20.35-59.07-24.04,6.04-3.15,11.92-1.67,18.82-3.5-15.98-8.04-40.88-14.08-57.67-6.69-26.15,11.51-43.36,36.95-45.63,64.42-2.55-2.55-.33-5.52-2.11-7.79-27.76,13.13-34.97,44.66-28.18,72.3ZM783.45,542.44c5.51,1.99,11.49,1.35,18.07,1.93,40.85,3.6,43.03,8.68,88.4-4.42-5.92,8.28-15,11.77-23.06,16.45-10.48,6.09-21.32,8.45-33.47,7.69-12.49-.79-24.36-2.47-36.81-4.08-4.9-.63-10.69-1.73-14.98.11-7.4,3.17-7.21,10.54-6.17,17.21,2.43,15.5,11.53,8.68,21.29,17.77,21.89,20.4,54.71,8.01,82.97,13-9.49,6.25-19.53,7.83-30.5,11.68,16.64,2.2,33.57,1.6,50.16-2.22,12.54-2.88,23.52-8.98,31.32-19.08,3.53-4.57,6.34-10.8,5.08-16.49-1.15-5.16-6.64-6.63-10.78-9.7l15.07-5.33c15.42-5.45,24.29-19.34,25.64-35.67.61-7.36-.15-14.62.93-21.98.82-5.57.88-11.26,2.11-17.08,3.33-15.72,3.33-32.33-3.96-47.24-5.35-10.96-13.1-19.64-24.26-24.77-1.24,2.19-.32,4.54-2.31,6.21-3.07-23.71-15.9-44.78-35.86-57.92-21.37-14.06-45.77-8.88-67.08,1.41,6.74,1.89,12.61.35,18.58,3.55-19.99,3.5-45.45,6.24-58.63,22.58-4.67,5.79-6.36,13.55-3.63,20.23,1.51,3.72,4.95,4.7,8.56,3.83l42.76-10.35c10.99-2.66,20.82-6.06,30.97-10.82,9.86-4.62,21.59-3.94,29.58,4.19-29-1.54-19.93,19.58-48.98,22.14-19.63,1.73-38.72,5.08-56.87,11.94-9.73,3.67-15.97,10.9-17.33,21.14-.67,5.04-1.32,10.04.1,14.96,3.71,12.91,16.42,7.79,29.14,8.11l25.96.67c15.61.4,29.66-2.1,43.96-7.58,8.63-3.31,18.93-2.21,25.13,4.56-17.49.8-22.05,9.4-40.11,16.83-13.48,5.54-50.5.97-70.99,2.24-8.54.53-16.71,3.47-22.19,9.88-3.82,4.46-4.67,10.5-4.75,16.31-.14,9.84,7,17.29,16.98,18.09ZM324.16,467.27c-.14.35.07,1.05-.11,2.05-1.39,1.14-.05,2.32.07,4,.3,4.36-.62,9.75,3.08,13.35,1.6,6.39,8.2,11.1,15.42,12.84-5.22-8.8-8.44-18.12-4.02-27.52,1.41,7.54,2.76,14.74,8.46,19.6s12.84,8.12,19.76,4.79l-10.54-18.71c-10.09-17.91,1.91-49.1-14.42-62.81-16.82-14.12-20.13-28.36-39.08-25.08,9.52,10.17,13.37,23.26,10.98,36.72-.75,4.24.41,7.69,2.44,11.25,5.2,9.1,6.24,19.2,7.96,29.53ZM728.01,497.32c12.33-2.87,19.39-12.36,19.53-25.29,4.41,9.3,1.09,18.19-4.46,27.36,11.94-2.59,18.99-12.63,18.63-24.15.5-12.35,1.77-24.39,6.72-35.59,9.82-14.34-5.59-25.74,14.26-49.81-8.39-2.05-16.23,1.64-21.67,8.08-5.09,6.02-10.49,11.35-16.51,16.41-4.78,4.01-7.57,9.09-8.54,15.33-2.38,15.33-.22,37.36-7.39,50l-9.29,16.37c2.58,2.2,5.39,2.07,8.71,1.3ZM33.47,496.6c3.11-.58,5.56-3.02,7.12-6.44,4.06-1.95,9.62-12.28,15.22-13.8-16.73,29.19-24.38,65.85-3.9,94.5,5.79,8.1,12.16,15.87,20.87,21.29-9.12-23.41-13.99-45.95-9.89-70.11,4.35,22.14,16.79,42.62,36.66,54.3,4.81,2.83,9.16,7.87,15.93,8.23,2.11,2.37,5.23,3.75,9.03,4.41l-14.6-22.23c-6.91-10.52-11.57-21.81-12.24-34.5l-1.83-34.51c-1.32-24.89-5.44-36.06,7.8-62.9-10.02.66-16.7,5.4-23.98,9.58-1.83,1.24-4.29,2.6-6.28,1.18,5.2-6.08,11.24-8.95,17.34-14.14-39.5,1.55-64.03,36.64-67.19,73.55,4.16-2.3,7.22-4.86,9.95-8.41ZM968.41,585.37c4.24-1.86,11.1-2.75,14.07-6.88,21.88-10.89,36.35-32.99,39.64-57.43,2.83,14.56,1.72,28.8-.88,42.93-1.83,9.97-5.81,18.59-8.75,28.64,41.29-31.66,40.38-72.68,17.3-115.55,3.68.91,5.49,3.79,7.73,5.2,4.47,6.17,9.2,13.12,16.15,16.29,1.95,2.14,4.25,5.02,8,6.23-3-36.32-26.54-70.58-66.34-73.52,4.61,5.39,11.54,7.57,14.36,14.42-10-4.46-17.4-10.92-28.63-11.36,6.6,10.1,9.05,20.76,10.09,32.07,1.02,11.1-1.12,21.67-1.75,32.86l-1.75,31.02c-1.52,26.98-14.04,37.52-26.41,58.3,3.28.26,5.21-2.1,7.18-3.23Z"/><path class="cls-1" d="M609.39,629.95l-28.05,6.51c-6.82,1.58-14.23,1.84-21.9,3.81,14.85-10.54,30.16-18.14,46.78-25.1,31.92-13.38,73.28-33.85,90.9-65.71,1.81,10.43-7.34,24.57-12.7,35.18,15.87-11.15,34.05-32.2,37-50.62,15.82,10.57,7.74,10.66,21.91,25.64l-1.34,13.66c-1.67,17.02,7.05,32.42,22.01,40.63,2.39,1.31,4.57,2.81,5.19,5.67,1.64,7.5,4.78,13.27,10,19.99-13.73,17.94-29.08,34.35-48.9,45.39-31.63,17.6-66.93,26.81-102.93,29.83.38-3.22,3.36-2.58,5.14-2.46,10.6.72,20.18-4.26,29.96-7.11,12.01-3.51,22.42-9.57,32.96-15.86,11.88-7.09,24.16-14.2,33.34-25.81,5.11-6.46,10.6-12.66,12.81-21.48-8.98,7.66-17.57,14.11-27.56,19.93l-48.96,28.56c-2.8,1.63-5.12,2.32-7.74,2.49-.3-1.28,13.86-9.6,9.6-12.3-46.6,32.09-108.46,54.81-164.3,61.51-19.98,2.4-38.92,1.91-58.31-3.23,16.43-2.99,32.8-5.68,48.76-12.85-51.86,2.36-101.14-3.54-144.4-32.06-19.32-12.74-35.55-28.67-47.53-48.97,7.66-6.97,12.73-15.39,14.99-25.31.66-2.9,2.65-4.47,5.2-5.54,15.04-8.1,23.99-22.96,22.57-40.05l-1.22-14.61c13.77-15.89,5.63-14.44,22.44-26.25,1.54,18.44,20.15,37.42,34.13,49.01.37.31-.02,2.01.72,1.82.56-.14.73-.78.98-.96,1.11-.8-15.24-25.18-11.92-33.42,12.05,15.45,24.51,28.66,39.35,38.57,14.96,10,29.92,18.25,46.68,25.06,14.78,6.01,28.56,13.31,41.25,24.19l-32.07-6.17c8.68,11.75,47.57,21.62,60.99,22.16,40.92,1.65,85.46-11.68,113.64-42.4-16.73,7.93-32.54,14.73-49.46,18.66ZM409.63,622.41l-18.99-9.09c-9.1-4.35-15.97-12.09-24.65-19.06,3.75,20.32,27.11,41.02,45.21,49.47,22.25,10.38,47.77,13.45,72.35,15.4-31.21-11.61-49.86-22.67-74.98-46.61-3.48.61,4.83,10.47,1.06,9.89ZM688.39,622.35c-3.9.97-6.23,4.64-9.61,7.04-16.37,11.64-33.55,21.17-52.5,28.64,15.75-1.11,52.13-11.58,63-20.52,1.21-.99,3.63-3.01,5.36-3.97,11.52-6.35,19.28-18.55,22.57-31.05-9.08,8.29-18.72,13.88-28.81,19.85ZM397.59,684.14c-11.98-3.28-23.12-8.99-34.11-15.56-4.61-2.76-8.62-5.75-13.05-7.95-1.37-.68-19.06-15.35-22.01-18.45,4.56,11.87,12.06,21.4,20.9,30.1,14.59,14.37,31.87,24.2,51.76,29.33,16.5,4.25,32.9,7.23,49.91,5.94-17.8-5.45-34.55-12.34-48.86-23.7-2.85-2.26-2.92-7.89-7.5-8.12-.29,3.34,2.46,5.56,2.97,8.42ZM455.38,676.23l-2.91.02c-.53-.84-1.9-1.48-3.32-1.63-13.63-1.51-26.07-5.54-39.09-9.5s-23.91-9.98-37.4-16.11c40,49.14,125.84,55.21,183.04,31.8-33.71.41-55.5-.99-88.66-10.96l-34.67-7.44c6.32,4.44,12.65,8.28,20,10.98,1.63.6,3.01,1.24,3.01,2.85ZM620.67,676.4c-5.22.94-9.71,4.21-14.93,6.34-4.83,2.66-9.4,4.39-14.59,6.42,13.42,1.15,25.71-.64,37.1-5.75,8.19-3.67,17.29-6.5,24.01-13.8-9.79,1.45-22.69,3.91-31.6,6.78ZM670.32,680.32c0-.48-.39-.86-.86-.86s-.86.39-.86.86.39.86.86.86.86-.39.86-.86Z"/><path class="cls-2" d="M524.45,579.24l18.47,14,11.62-8.09c2.46,3.05,7.64-1.92,11.92-1.99,1.94,8.37-3.13,13.32-3.92,21.16,10.22-2.7,16.16-10.61,23.5-17.43l11.66-10.83c4.74,8.03-6.04,17.38-7.33,24.42,15.98-8.06,30.2-17.59,43.81-28.38,8.16-6.48,13.95-13.74,19.54-23.34.81,11.72-4.91,21.5-11.51,30.3-2.92,3.89-6.65,6.48-8.93,11.35,21.91-10.34,40.67-24.08,56.64-41.67,7.39-8.15,11.29-17.73,13.12-28.52,5.6,6.41,12.18,9.65,18.39,13.79-2.95,18.42-21.14,39.47-37,50.62,5.37-10.61,14.51-24.75,12.7-35.18-17.62,31.86-58.97,52.33-90.9,65.71-16.61,6.96-31.93,14.56-46.78,25.1,7.67-1.97,15.09-2.23,21.9-3.81-1,3.67,8.28-.66,8.92,1.38-6.77,6.36,14.89-.95,16.38-1.22-.81-3.29.88-4.99,2.75-6.67,16.93-3.93,32.73-10.73,49.46-18.66-28.17,30.72-72.72,44.05-113.64,42.4-13.42-.54-52.31-10.41-60.99-22.16l32.07,6.17c-12.69-10.88-26.46-18.18-41.25-24.19-16.76-6.82-31.72-15.07-46.68-25.06-14.84-9.92-27.3-23.13-39.35-38.57-3.33,8.24,13.03,32.62,11.92,33.42-.25.18-.41.81-.98.96-.73.19-.34-1.51-.72-1.82-13.98-11.59-32.59-30.57-34.13-49.01,6.13-4.3,12.51-7.69,18.65-13.71,1.35,28.54,43.75,59.25,67.87,70.82-2.32-5.76-6.69-8.98-9.47-13.9-4.77-8.44-9.87-17.17-8.54-27.63,5.27,9.51,10.9,17.51,19.39,23.95,15.28,11.58,31.03,21.93,48.41,30.56-3.15-3.74-15.64-21.42-12.31-25.54l6.45,5.21c8.69,7.03,15.59,16.83,26.95,20.36-.83-9.28-6.68-17.61,1.94-24.3Z"/><path class="cls-4" d="M691.07,723.89c21.68-12.66,39.65-26.44,57.81-41.83l28.82-24.42c3.44-1.84,7.52-4.92,11.43-2.7,2.68,1.53,1.3,6.21.67,8.79-3.03,8.03-7.86,14.04-13.67,20.42-22.85,22.08-52.28,36.99-85.05,39.75Z"/><path class="cls-2" d="M767.48,329.18l5.08-.16c-7.36-7.9-15.15-50.97-17.23-54.63,6.26-.97,10.96,8.19,20.18,14.96,5.03,3.69,10.29,6.77,14.79,11.09,3.84,3.68,7.56,6.67,12.21,9.56-6.85,1.57-12.45-.25-18.91-1.72,8.19,12.65,31.6,15.09,46.11,14.75-13.72,8.85-30.47,8.2-46.45,3.01,3.52,7.83,15.37,10.68,18.73,18.81-12.39-.06-23.59-4.2-32.88-12.2-1.17-1.01-1.28-2.48-1.64-3.46Z"/><path class="cls-2" d="M332.26,270.43c.65,1.79-.02,3.77-.86,5.74-6.23,14.52-10.04,44.43-16.87,53.21s-20.7,13.14-31.97,16.05c2.75-4.08,6.92-5.65,9.76-9.26s7.28-4.58,9.81-8.85c-2.07-.95-4.5-.38-6.42.33-13.68,5.04-27.8,3.35-40.36-3.96,4.31-1.12,7.93-.6,11.89-.72,13.09-.41,25.33-4.91,34.92-14.57-8.21.22-14.06,3.88-22.08,1.46,7.55-1.75,11.99-7.66,18.19-11.65,10.63-6.84,20.33-13.76,27.99-24.08,1.48-2,3.85-3.63,6-3.69ZM303.46,307.82c0-.28-.22-.5-.5-.5s-.5.22-.5.5.22.5.5.5.5-.22.5-.5Z"/><path class="cls-4" d="M641.78,743c-28.71,11.33-64.43,18.99-94.49,12.59l56.55-17.58,34.16-13.67c2.14-.86,20.65-2.7,22.18,2.79,1.88,6.72-12.36,12.44-18.4,15.87Z"/><path class="cls-1" d="M115.98,323.27c-5.93,5.98-7.91,13.33-12.04,19.88-7.09,11.25-17.24,19.94-27.59,28.6-3.69-10.69-1.77-21.67,3.17-31.71,13.39-27.2,44.9-37.86,48.06-32.46,1.47,2.51-8.49,12.54-11.6,15.68Z"/><path class="cls-1" d="M1008.98,371.83c-10.52-8.35-19.73-17.96-27.93-28.97-3.92-10.21-9.98-18.67-17.48-26.47-2.58-2.69-5.4-5.16-6.17-9,4.58-1.5,9.2-.98,13.63.76,23.63,9.31,46.41,36.46,37.96,63.68Z"/><path class="cls-1" d="M337.28,710.82c-26.17,2.08-51.5-9.61-69.5-27.64-1.46-1.46-3.73-4.67-2.74-6.31,4.31-7.22,12.88-9.1,20.36-6.15,5.73,2.2,10,6.18,14.81,9.93l37.08,30.17Z"/><path class="cls-2" d="M695.41,689.39c-1.06-.95-1.94-2.24-1.83-3.46.13-1.47,2.57-2.74,2.17-4.77s-5.01-1.07-6.68-.02l-19.06,12.05c-3.63,2.29-4.95,7.66-9.92,8.52,1.48,1.92,2.09,2.38,2.36,3.53-9.78,2.85-19.35,7.83-29.96,7.11-3.22-2.71,13.05-10.12,16.64-12.41,2.94-1.88,4.61-6.62,8.16-6.86,2.62-.18,4.94-.86,7.74-2.49l48.96-28.56c9.99-5.83,18.58-12.27,27.56-19.93-2.2,8.82-7.69,15.02-12.81,21.48-9.18,11.6-21.46,18.72-33.34,25.81Z"/><path class="cls-1" d="M829.76,677.42c-8.29,17.97-42.07,33.91-62.35,33.21l35.89-33.4c3.4-3.16,8.46-6.4,13.01-6.36,5.23.06,9.15,3.83,13.45,6.54Z"/><path class="cls-1" d="M708.5,743.64c-8.93,14.24-33.56,18.36-48.04,12.29,11.96-7.39,33.81-18.14,45.66-16.97,1.2.44,2.26.77,2.48,1.54.24.82.55,2.1-.1,3.13Z"/><path class="cls-1" d="M394.73,735.42c-9.33,3.28-19.54,2.26-27.43-2.97-2.41-1.6-6.39-5.76-3.87-8.17,3.29-3.15,8.97-.33,12.87.35,6.23,3.4,12.09,5.61,18.44,10.79Z"/><path class="cls-2" d="M867.18,332.28c-2.6,3.79-6.98,1.4-9.32-1.37-4.68-5.53-10.92-8.17-17.36-11.74,7.28-3.66,11.64-4.83,17,2.05,3.85,2.86,6.7,5.74,9.68,11.05Z"/><path class="cls-2" d="M226.77,329.15c-3.17,2.98-5.28,6.68-10.69,4.84,2.18-6.57,6.89-10.96,12.46-14.58,4.81-3.12,3.01-4.63,14.2-1.5-4.88,4.13-10.89,6.47-15.98,11.25Z"/><path class="cls-2" d="M104.46,417.77c-4.91.62-10,.54-14.86,1.59,1.73-6.13,8.02-9.1,14.49-7.62-.06,2.26-.06,4.14.38,6.03Z"/><path class="cls-2" d="M990.3,418.29l-14.84-1.71c2.1.42,1.33-2.94,2.54-3.85,3.12-2.36,8.87-1.36,11.64.84.88,1.47.31,3.62.66,4.73Z"/><path class="cls-5" d="M576.53,516.26c-7.06,22.91-14.73,32.68-32.95,47.31-18.67-14.85-28.2-25.25-33.45-48.44-3.8,6.34-3.53,12.3-5.43,18.7-21.66-17.02-39.33-34.11-47.69-59.74l-4.11,22.3c-20.44-27.75-38.52-56.15-35.09-94.14-8.63,7.92-12.45,18.48-15.67,30.21-11.58-20.92-17.18-40.24-14.82-65.38-6.19,5.9-9.61,12.72-15.14,19.17-5.69-17.63-7.7-37.1.3-53.92l4.89-10.3c-9.99,6.12-18.27,13.33-26.89,21.38-.19-25.5,5.82-48.86,23.23-67.87-9.81,3.64-17.55,8.5-26.48,13.98,5.82-21.66,16.62-39.48,33.11-55.84-12.21,2.41-22.59,6.59-35.64,6.91,7.98-18.37,21.8-32.95,40.42-41.21-12.98-2.85-21.89-12.68-26.89-25.98,17.7,4.6,25.16-1.12,43.2-.87-16.19-16.2-15.41-37.78-10.3-58.02,9.65,14.19,24.55,21.69,40.68,29.51-13.86-27.14-1.99-53.47,18.56-73.7,1.25,12.09,5.23,23.38,11.94,34.16,2.39-21.22,19.58-34.17,37-42.26,3.41,9.32,4.85,18.26,4.9,27.99,10.27-17.28,11.92-36.52,6.59-56.67,25.36,7.27,52.56,14.97,68.81,36.85,1.51-11.41,1.02-22.27-1.27-33.65,24.7,17.73,42.87,38.27,39.25,71.18,7.1-6.47,11.25-14.7,13.71-23.79l6.07-22.41c8.65,15.7,19.61,23.23,27.49,39.16,7.05,14.27,7.72,29.8.6,44.18,13.8-4.61,30.28-9.25,39.76-18.96,1.25,16.65-5.9,37.22-19.79,46.82,18.83-1.2,23.88,6.1,43.02.42-6.18,13.21-11.66,21.62-27.23,26.35,19.77,8.6,30.99,21.22,39.71,40.75-12.31-.84-22.73-3.39-34.81-6.76,15.8,15.63,27.15,33.96,32.7,55.49-8.09-4.54-14.74-9.22-24.22-12.1,17.23,21.82,20.76,37.46,21.57,66.54-7.86-8.32-15.96-15.11-26.02-21.43,10.95,21.99,11.06,41.34,4.66,64.03-5.12-6.8-9.41-12.98-15.37-19.07,2.85,23.4-3.11,45.33-15.23,65.37-2.51-11.21-6.64-21.1-14.47-30.34,1.94,34.84-13.98,67.18-36.77,94.37-.66-7.73-.76-15.38-3.93-22.08-8.56,27-26.26,43.25-47.18,59.62-1.05-6.23-1.49-12.04-5.33-17.84ZM529.4,55.04c-2.16-.27-2.59.45-3.06,1.41.36,4.38.8,8.64,4.35,12.02.87-4.55,0-8.67-1.3-13.43ZM657.85,95.6c-.96-2.82-4.98-3.88-7.91-4.38,1.99,7.51,2.67,14.33,3.26,22.51,4.44-4.15,6.75-12.01,4.66-18.13ZM572.27,95.17c-.77-1.4-.77-1.8-1.06-2.93-1.17.46-1.01,1.53-.28,2.05.29.21.67,1.09,1.34.88ZM554.85,171.08c-1.79-7.96,1.64-16.2,9.11-18.76-.77,4.66-3.44,6.53-1.48,10.06,1.27-4.57,5.88-6.64,7.41-10.12.95-2.16-.75-6.63,3.86-7.18-.29,2.91-2.13,3.92-3.67,6.24,2.95,1.44,3.59-1.23,5.06-2.4,10.18-8,14.46-21.07,10.32-33.62-2.44-7.42-6-15.23-13.3-19.52,9.49,22.07-.13,35.59-16.38,47.64l-.46-5.27c-21.93,17.72-4.73,28.57-15.75,37.85-5.09-4.29-8.99-8.07-14.3-11.62l7.96,16.94c3.82,8.13,7.22,15.64,10.04,24.9,2.84-4.96,2.39-9.47,4.14-14.03,4.14-10.81,9.93-10.14,7.47-21.09ZM407.33,156.48c-11.06-6.48-6.36-15.74-13.52-18.38.19,4.78,6.16,24.22,13.52,18.38ZM599.48,159.28c.13-.05-.83-2.71-1.97-1.8-17.44,14-36.81,35.92-34.21,59.81,14.07-22.49,36.2-31.28,61.67-38.49l-7.01,18.36c11.34-5.88,24.2-10.13,37.27-7.56,8.17,1.61,14.15,9.35,17.58,16.31,7.24,14.71,5.06,28.59,13.78,43.56,1.11-14.16,2.76-27.73-.98-41.49-3.37-12.41-11.65-23.97-24.03-28.49-8.13-2.97-16.55-.88-24.97-.26,2.17-5.93,5.58-10.7,9.84-16.41-3.35-.3-6.73.58-9.79,1.42,2.11-6.02-29.62-1.9-33.29-1.04,5.52-4.76,11.45-6.85,13.21-14.12-5.15,2.53-13.14,10.31-17.09,10.2ZM487.72,159.13c-.69.59-2.05.5-2.7,1.27-.98,1.15.97,2,.41,5.28-10.81-4.64-21.92-5.61-34-4.62-1.04.09-2.36-.13-3.23.36-.54.31-1.02.94-.93,1.89-2.21-.59-4.88-.48-7.5-.58,4.89,5.33,9.66,9.83,11.62,16.47-9.17-1.44-18.97-2.62-27.63,1.55-14.62,7.04-22.92,22.41-24.08,38.49-.72,10.06.45,19.28,1.44,28.81,7.24-15.69,6.64-32.62,15.83-46.36,3.49-5.23,8.46-10.69,14.87-12.01,12.87-2.65,25.38,1.08,36.76,7.7-1.31-6.52-4.11-11.83-6.37-18.63,25.18,7.12,48.06,16.93,61.52,39.09,2.59-24.64-15.29-45.26-33.02-58.8-.62-.47-1.02-.74-1.7-.92s-.78.59-1.27,1.02ZM435.72,236.18c-1.41-1.49-1.87-3.87-3.86-3.94-2.39-.09-4.05,1.29-5.07,3.46l-3.18,6.81c-8.9,4.31-14.9,11.31-19.01,20.16-4.26,9.18-9.29,17.93-8.96,28.96,7.87-14.57,22-28.4,38.98-20.51,3.95,1.47,30.01,12.41,28.97,4.23,5.1.78,10.56-.14,15.7.19l.18,1.93c-3.33,2.27-7.54,2.22-10.96,4.89,10.14,1.88,18.74-1.52,27.9-5.47-.62,4.38-2.82,7.49-2.52,11.49.63,8.64,9.15,13.88,17.53,11.68,11.34-2.99,12.98,8.56,24.92,11.22,23.35,5.21,27.5-14.51,35.71-11.76,8.36,2.8,18.01-1.12,20.71-9.74,1.35-4.31-.69-8.07-2.01-12.54,8.78,2.77,20.68,8.59,26.74,4.06-.3-1.35-2.04-.87-3.06-1.01-2.83-.37-5.23-2.05-7.94-2.91l.13-1.96c4.59.5,9.2.27,13.79-.08.02.99,1.5.54,2.15.72.37.1.77.2,1.14.27-.36,7.3,19.6-3.35,23.94-4.05,7.27-4.51,15.97-4.41,23.55-.53,9.2,3.82,14.75,11.47,20.54,20.04-.87-14.2-6.7-26.94-14.82-37.85-3.63-4.88-8.97-7.73-13.35-11.67l-3.57-7.43c-1.32-2.74-6,1.09-8.58,1.44-.26-1.18-1.48-2.27-1.15-3.46.47-1.74,2.42-2.27,4-3.05,8.07-3.96,15.03,1.01,22.49,5.67-10.35-20.82-28.29-24.27-47.52-14.67-19.44,9.7-30.48,26.01-50.36,32.02-4.79,1.45-9.97.99-14.15-1.84-3.37-2.28-5.33-6.49-7.08-12.08-2.42,6.19.05,12.21,3.23,18.98-8.11,0-12.39-7.41-13.2-14.53,2.01-3.53.8-7.99,2.37-12.17,1-2.65,1.72-5.36.58-8.02-8.98,1.49-10.46,2.98-17.3-1.62l6.29,16.7c.48,9.27-1.36,18.07-13.44,19.35,1.87-5.3,5.63-9.09,2.89-14.83-4.04,9.19-12.65,12.85-21.86,9.8-19.78-6.54-32.34-23.71-50.62-32.38-18.23-8.64-34.78-5.51-44.24,13.3,7.44-5.16,15.61-7.14,23.01-2.01,2.27,1.57.66,3.01.38,4.73ZM498.96,223.03c-.25-3.09-6.02-5.06-7.16-2.72-.99,2.03,1.56,3.88,2.7,4.33s4.69,1.29,4.45-1.61ZM592.04,222.53c.68-1.38.13-2.13-.62-2.52-1.69-.87-5.33,1.79-6.72,4.31,1.14,1.34,2.68,1.59,4.08,1.35,1.19-.2,2.37-1.33,3.26-3.15ZM363.48,227.22c-2.94,1.51-5.5,3.76-5.83,7.27-.9,2.41,11.09-10.31,5.83-7.27ZM622.29,279.84c-1.47,1.54.06,1.54.74,1.54,1.6,0,1.7-.84,1.42-1.63-.43-1.24-1.05-1.08-2.16.09ZM647.46,284.82c0-.28-.22-.5-.5-.5s-.5.22-.5.5.22.5.5.5.5-.22.5-.5ZM640.79,407.14l4.09-39.06c3.21,7.07,4.13,13.75,8.63,19.63,1.54-12.64,2.12-24,6.18-35.25,2.82-7.79,5.59-15.03,7.85-23.49,6.5,7.56,10.71,15.58,13.62,24.43,3.38-23.65-5.77-62.2-33.2-68.21,8.44,7.89,13.75,17.94,10.22,28.89-2.64,8.19-7.72,15.25-13.55,21.59,1.97-10.35,2.97-20.08-1.36-29.33-3.67-7.85-12.56-10.85-20.73-9.94-7.02.78-11.45,4.5-17.55,7.65-43.79,22.61-89.43,20.32-131.82-4.41-7.47-4.36-16.3-4.67-23.46,0-11.14,7.27-8.46,23.36-8.36,35.01-6.65-6.71-11.42-14.82-13.25-23.93-2.04-10.16,3.74-17.94,10.86-25.76-26.23,5.52-37.2,45.25-33.31,68.56,2.45-9.43,7.2-17.06,13.46-25.09l8.63,25.55c3.67,11.03,4.48,22,6.57,33.82,3.79-6.71,6.08-12.88,7.83-19.75,3.63,23.16,3.66,41.51,9.94,63.4.85-8.75-.37-16.65,1.83-25.38,3.46,17.34,2.52,27.7,9.76,45.12,7.35,17.68,22.36,33.43,43.28,27.49,9.52-2.7,18.95-4.7,28.69-5.99,23.32-3.08,39.46,8.16,53.81,7.32,13.53-.8,24.06-10.05,30.22-21.41,11.36-20.98,9.28-28.79,11.69-51.77,3.79,6.53,2.53,13.32,3.42,20.64,3.3-6.12,5.21-12.71,6-20.34ZM362.69,319.16c2.46-1.61,4.03-2.84,1.58-4.37l-1.58,4.37ZM722.54,318.46c1.05,3.08,4.54,15.91,7.23,14.78,4.75-2-4.48-13.13-7.23-14.78ZM362.29,321.77c.69-1.83-.95-2.15-1.9-.68-1.56,3.28-4.67,5.86-3.34,9.57,3.55-2.12,3.32-5.87,5.24-8.89ZM400.17,391.71c-3.43,6.04-3.35,12.78-1.17,19.09,1-3.63,4.72-17.82,1.17-19.09ZM686.84,413.43c4.96-.54,3.43-11.18,1.98-14.61-.94-2.25-2.9-3.72-3.49-6.67-2.37,1.15-2.56,3.53-2.98,5.41,9.44-1.5-.88,16.45,4.49,15.87ZM640.01,477.47c2.54-4.96,2.87-9.94,1.2-15.35-1.64,3.07-10.18,14.11-5.64,15.62.99.33,3.51,1.54,4.44-.27ZM536.16,491.33c10.06-1.86,18.92,2.2,28.6,4.77-6.22-9.64-19.15-13.78-29.83-10.1-6.08,2.1-11.12,5.66-16.51,8.71,6.41,1.27,11.46-2.21,17.74-3.38Z"/><path class="cls-3" d="M311.24,576.24c-1.52,1.25-3.59,1.33-5.83,1.79-15.24,3.08-17.52,11.79-21.25,7.56-11.2,8.52-36.13,11.1-49.93,10.18.45-2.11,2.52-2.36,2.03-4.48l-18.84,5.94c-17.13,5.4-47.35-.47-45.62-15.78.66-5.86,5.81-9.19,10.22-13.31-6.74-3.09-13.29-5.17-18.2-10.24-9.99-10.3-12.4-24.51-9.56-38.8-8.21,8.69-11.4,20.08-9.78,32.55-15.4-9.6-13.33-32.2-4.33-45.76,5.01-7.55,11.63-12.44,19.8-17.46-11.4-.7-19.01-6.18-20.17-16.74-.96-8.75,2.46-16.26,7.07-24.46-12.18,7.56-18.93,19.52-21.49,33.13-1.14,6.07-1.34,12.05-3.4,17.87-2.03-2.62-1.81-5.88-4.64-6.02-6.8-27.64.42-59.17,28.18-72.3,1.78,2.27-.44,5.25,2.11,7.79,2.27-27.46,19.49-52.91,45.63-64.42,16.79-7.39,41.69-1.35,57.67,6.69-6.9,1.83-12.78.34-18.82,3.5,19.76,3.69,46.72,7.04,59.07,24.04,3.89,5.35,5.78,11.83,3.61,18.21-.92,2.7-3.93,5.91-6.93,5.18l-44.17-10.7c-11.77-2.85-22.39-6.63-33.29-11.63-9.41-4.32-20.25-3.16-27.26,4.59,26-1.37,21.84,20.4,46.41,22.14,18.36,1.3,47.97,6.19,63.76,15.1,11.56,6.52,13.56,19.32,12.02,31.69-.73,5.86-5.68,10.47-11.88,10.13-21.79-1.17-47.71,1.11-65.39-1.35-16.02-2.23-33.21-16.23-46.12-1.61,7.2.29,12.75,1.83,18.12,5.39,14.94,9.89,22.11,14.28,40.42,13.96l44.93-.8c16.97-.3,32.4,5.87,33.89,24.73.86,10.82-5.19,19.53-16.47,20.59l-35.37,3.3c-13.84,1.29-27.42,3.98-40.89.86l-30.6-7.08c6.35,8.48,15.82,12.31,24.43,17.26,9.48,5.45,19.14,6.84,30.16,6.47,14.49-.48,28.35-2.82,42.8-4.68,5.05-.65,10.69-.75,14.31,2.83,3.85,3.81,3.72,9.37,3.56,14.15ZM290.09,472.18c-6.5,1.48-12.53.18-19.29,2.15,25.07,6.35,25.51-3.56,19.29-2.15ZM301.94,524.21c1.59-2.13,1.08-5.35-1.43-5.49-1.95-.1-2.42,2.04-2.01,3.13.45,1.21.9,2.85,3.44,2.35ZM195.96,522.39c-.66-2.94-6.75-1.74-6.78.1-.04,2.33,7.33,2.33,6.78-.1ZM297.47,537.45c.26-.61-.12-2.05-.55-1.93-.45.12-1.72-.63-2.5-.47l-28,5.67c1.66,2.22,29.19-.99,31.04-3.26Z"/><path class="cls-3" d="M968.71,492.24c-5.14-.34-3.35,5.98-6.31,6.83-2.31-20.27-4.35-38.82-23.03-51.04,5.76,9.45,9.1,19.93,4.57,29.95-3.08,6.82-10.21,8.65-17.41,11.05,17.69,11.15,29.55,27.87,24.68,47.96-1.54,6.36-4.94,12.1-10.76,15.41,2.67-12.46-.83-23.95-8.52-33.13,2.61,25.81-4.41,40.18-28.95,48.89,3.71,4.66,11.08,7.42,10.73,14.63-.47,9.67-13.65,14.48-22.81,15.84-28.1,4.19-45.28-14.65-41.54-3.77-6.81,1.64-13.76.41-20.98-.14-10.91-.84-21.03-3.9-29.59-10.73-5.76.62-15.76-7.1-23.37-6.68-1.05-6.67-1.24-14.03,6.17-17.21,4.29-1.84,10.08-.74,14.98-.11,12.45,1.61,24.32,3.29,36.81,4.08,12.16.76,23-1.6,33.47-7.69,8.06-4.69,17.14-8.17,23.06-16.45-45.37,13.1-47.54,8.02-88.4,4.42-.63-5.19,11.99.68,15.63-4.39-15.75-4.18-22.76-2.51-38.78-9.37l-4.96,3.23c3.21,2.63,11.6,4.03,10.03,8.6-9.98-.8-17.12-8.25-16.98-18.09.08-5.81.93-11.85,4.75-16.31,5.48-6.4,13.65-9.34,22.19-9.88,20.49-1.28,57.51,3.3,70.99-2.24,18.06-7.43,22.62-16.04,40.11-16.83-6.2-6.77-16.5-7.87-25.13-4.56-14.3,5.48-28.34,7.98-43.96,7.58l-25.96-.67c-12.71-.33-25.43,4.8-29.14-8.11-1.41-4.92-.76-9.92-.1-14.96,1.36-10.24,7.6-17.47,17.33-21.14,18.16-6.86,37.24-10.21,56.87-11.94,29.05-2.56,19.98-23.68,48.98-22.14-7.99-8.14-19.72-8.82-29.58-4.19-10.15,4.76-19.98,8.16-30.97,10.82l-42.76,10.35c-3.61.87-7.04-.12-8.56-3.83-2.72-6.68-1.04-14.44,3.63-20.23,13.17-16.34,38.63-19.08,58.63-22.58-5.97-3.2-11.83-1.66-18.58-3.55,21.31-10.29,45.71-15.47,67.08-1.41,19.97,13.14,32.79,34.21,35.86,57.92,1.99-1.67,1.07-4.02,2.31-6.21,11.16,5.13,18.9,13.81,24.26,24.77,7.28,14.91,7.29,31.52,3.96,47.24ZM821.14,474.37l-28.7-2.6c-1.48-.13-1.17,2.16-1.03,3.07.73,4.63,25.81,2.03,29.73-.47Z"/><path class="cls-5" d="M115.48,584.56c-.29-4.04-4.46-14.27-9.41-16.68-9.26-4.51-14.38-17.84-21.31-24.79.62,8.76,4.64,15.95,9.45,22.53.58.79,7.91,11.65,5.34,10.72-19.87-11.68-32.31-32.15-36.66-54.3-4.1,24.16.77,46.7,9.89,70.11-8.71-5.42-15.08-13.19-20.87-21.29-20.49-28.66-12.83-65.31,3.9-94.5-5.59,1.53-11.16,11.85-15.22,13.8-.71-4.2-.8-8.32.61-12.95-4.51,4.72-8.02,10.09-10.58,16.11-.54,1.26,2.34,2.93,2.85,3.29-2.73,3.55-5.79,6.11-9.95,8.41,3.16-36.91,27.68-72,67.19-73.55-6.1,5.19-12.15,8.06-17.34,14.14,1.98,1.42,4.45.06,6.28-1.18,7.28-4.18,13.96-8.92,23.98-9.58-13.24,26.84-9.12,38-7.8,62.9l1.83,34.51c.67,12.69,5.33,23.98,12.24,34.5l14.6,22.23c-3.81-.66-6.92-2.05-9.03-4.41ZM57.07,560.04c-3.72-7.36-5.91-13.39-8.16-19.88-1.15,4.67.3,8.54.7,13.05.78,3.46,2.66,8.17,7.46,6.84Z"/><path class="cls-2" d="M311.24,576.24c-.44,13.42-15.47,13.26-19.29,16.68-26.22,23.51-53.77,10.49-86.32,15.13,3.34,2.22,6.43,3.93,9.77,4.96l21.16,6.56c-25.64,3.47-60.52,2.09-79.11-18.3-4.6-5.04-8.79-11.96-8-18.96.57-5.06,6.73-6.62,10.12-9.73-22.2-8.1-35.82-13.9-39.46-39.19-1.21-8.38-.38-16.51-.91-24.98-.35-5.7-2.55-10.93-1.88-16.21,2.83.13,2.61,3.4,4.64,6.02,2.06-5.81,2.26-11.79,3.4-17.87,2.56-13.61,9.31-25.57,21.49-33.13-4.6,8.2-8.03,15.71-7.07,24.46,1.16,10.56,8.77,16.04,20.17,16.74-8.17,5.02-14.79,9.91-19.8,17.46-9,13.56-11.07,36.15,4.33,45.76-1.62-12.47,1.57-23.86,9.78-32.55-2.85,14.3-.43,28.5,9.56,38.8,4.91,5.06,11.46,7.15,18.2,10.24-4.42,4.12-9.56,7.45-10.22,13.31-1.73,15.31,28.49,21.19,45.62,15.78l18.84-5.94c.49,2.12-1.58,2.37-2.03,4.48,13.8.93,38.74-1.65,49.93-10.18,3.73,4.23,6-4.48,21.25-7.56,2.24-.45,4.31-.54,5.83-1.79Z"/><path class="cls-2" d="M968.71,492.24c-1.23,5.82-1.3,11.51-2.11,17.08-1.08,7.35-.32,14.61-.93,21.98-1.35,16.32-10.22,30.21-25.64,35.67l-15.07,5.33c4.14,3.07,9.63,4.54,10.78,9.7,1.26,5.69-1.55,11.92-5.08,16.49-7.8,10.09-18.78,16.2-31.32,19.08-16.59,3.81-33.52,4.42-50.16,2.22,10.97-3.86,21.01-5.43,30.5-11.68-28.26-4.98-61.08,7.41-82.97-13-9.76-9.1-18.86-2.27-21.29-17.77,7.61-.43,17.61,7.3,23.37,6.68,8.55,6.83,18.68,9.89,29.59,10.73,7.23.56,14.18,1.78,20.98.14-3.74-10.89,13.43,7.96,41.54,3.77,9.16-1.37,22.34-6.17,22.81-15.84.35-7.21-7.02-9.98-10.73-14.63,24.54-8.71,31.56-23.09,28.95-48.89,7.69,9.19,11.19,20.67,8.52,33.13,5.81-3.31,9.21-9.05,10.76-15.41,4.87-20.09-6.99-36.81-24.68-47.96,7.2-2.4,14.33-4.22,17.41-11.05,4.52-10.02,1.19-20.5-4.57-29.95,18.68,12.22,20.72,30.77,23.03,51.04,2.96-.85,1.17-7.18,6.31-6.83Z"/><path class="cls-5" d="M728.01,497.32c-3.32.77-6.13.9-8.71-1.3l9.29-16.37c7.17-12.64,5.01-34.67,7.39-50,.97-6.23,3.76-11.32,8.54-15.33,6.02-5.06,11.42-10.39,16.51-16.41,5.44-6.44,13.28-10.13,21.67-8.08-19.85,24.08-4.45,35.47-14.26,49.81-4.95,11.2-6.22,23.24-6.72,35.59.36,11.52-6.69,21.56-18.63,24.15,5.55-9.18,8.87-18.06,4.46-27.36-.14,12.93-7.21,22.42-19.53,25.29Z"/><path class="cls-5" d="M327.19,486.66c1.94-.46,4.3.04,6.43-1.17l-2.82-12.41c-.44-1.92-.59-3.82-1.98-4.75s-3.05-1.17-4.67-1.06c-1.72-10.33-2.76-20.43-7.96-29.53-2.03-3.56-3.19-7-2.44-11.25,2.39-13.46-1.46-26.55-10.98-36.72,18.95-3.28,22.26,10.96,39.08,25.08,16.32,13.71,4.33,44.9,14.42,62.81l10.54,18.71c-6.92,3.33-14.27-.11-19.76-4.79s-7.06-12.06-8.46-19.6c-4.42,9.39-1.2,18.71,4.02,27.52-7.22-1.74-13.82-6.45-15.42-12.84Z"/><path class="cls-2" d="M115.48,584.56c-6.77-.36-11.12-5.4-15.93-8.23,2.57.93-4.76-9.93-5.34-10.72-4.81-6.57-8.83-13.77-9.45-22.53,6.93,6.96,12.05,20.29,21.31,24.79,4.95,2.41,9.12,12.63,9.41,16.68Z"/><path class="cls-2" d="M982.48,578.48c-2.97,4.13-9.83,5.02-14.07,6.88.84-1.83.26-5.31,2.15-6.87,3.38-2.79,5.19-6.09,7.79-9.34,2.77-3.46,6.46-5.95,8.88-9.98,3.03-5.06,5.28-10.38,9.99-15.1-.37,13.16-7.41,24.2-14.73,34.4Z"/><path class="cls-2" d="M801.52,544.38c-6.58-.58-12.56.06-18.07-1.93,1.56-4.57-6.83-5.97-10.03-8.6l4.96-3.23c16.03,6.86,23.04,5.19,38.78,9.37-3.64,5.08-16.26-.8-15.63,4.39Z"/><path class="cls-2" d="M1053.66,498.57c-6.95-3.17-11.68-10.12-16.15-16.29,2.98-.44,1.79-7.13,4.84-7.13,3.56,4.95,15.39,18.23,11.31,23.42Z"/><path class="cls-2" d="M327.19,486.66c-3.7-3.6-2.78-8.99-3.08-13.35,1.7.31,1.37-1.25,1.39-2.51.02-.96-.15-1.8-1.46-1.49.18-1-.02-1.7.11-2.05,1.61-.1,3.3.16,4.67,1.06s1.54,2.83,1.98,4.75l2.82,12.41c-2.14,1.2-4.5.71-6.43,1.17Z"/><path class="cls-2" d="M40.59,490.16c-1.56,3.42-4,5.86-7.12,6.44-.52-.36-3.39-2.02-2.85-3.29,2.56-6.02,6.07-11.39,10.58-16.11-1.41,4.64-1.32,8.75-.61,12.95Z"/><path class="cls-5" d="M324.11,473.32c-.12-1.68-1.46-2.86-.07-4,1.31-.31,1.48.54,1.46,1.49-.02,1.25.31,2.82-1.39,2.51Z"/><path class="cls-5" d="M1053.66,498.57c4.08-5.19-7.75-18.47-11.31-23.42-3.05,0-1.86,6.68-4.84,7.13-2.24-1.41-4.05-4.29-7.73-5.2,23.08,42.86,23.99,83.89-17.3,115.55,2.94-10.06,6.92-18.67,8.75-28.64,2.6-14.13,3.71-28.37.88-42.93-3.29,24.44-17.76,46.54-39.64,57.43,7.33-10.2,14.36-21.24,14.73-34.4-4.71,4.71-6.96,10.03-9.99,15.1-2.41,4.03-6.1,6.51-8.88,9.98-2.6,3.24-4.41,6.55-7.79,9.34-1.89,1.56-1.31,5.04-2.15,6.87-1.96,1.12-3.9,3.49-7.18,3.23,12.37-20.78,24.89-31.32,26.41-58.3l1.75-31.02c.63-11.18,2.78-21.75,1.75-32.86-1.04-11.31-3.5-21.98-10.09-32.07,11.23.44,18.63,6.9,28.63,11.36-2.82-6.84-9.76-9.02-14.36-14.42,39.8,2.94,63.34,37.21,66.34,73.52-3.75-1.22-6.05-4.09-8-6.23Z"/><path class="cls-2" d="M452.47,676.25c-2.12,2.67-16.8-1.78-20.43.6,4.18,2.85,44.16,9.73,42.76,2.64-3.27-3.45-7.77-3.81-11.54-1.63l-7.89-1.64c0-1.61-1.37-2.25-3.01-2.85-7.35-2.7-13.68-6.54-20-10.98l34.67,7.44c33.15,9.97,54.94,11.37,88.66,10.96-57.21,23.41-143.04,17.34-183.04-31.8,13.49,6.13,24.4,12.16,37.4,16.11s25.46,8,39.09,9.5c1.41.16,2.79.8,3.32,1.63Z"/><path class="cls-2" d="M390.64,613.32c-1.42,3.29.9,5.25,3.25,7.58,13,12.86,14.51,14.97,34.66,18.22-6.76-3.28-12.55-8.05-15.55-14.16-1.96,1.75-2.63-1.1-3.37-2.56,3.76.58-4.54-9.28-1.06-9.89,25.12,23.94,43.76,35,74.98,46.61-24.58-1.95-50.1-5.02-72.35-15.4-18.1-8.44-41.46-29.15-45.21-49.47,8.68,6.97,15.55,14.71,24.65,19.06Z"/><path class="cls-2" d="M350.43,660.64c-.76,3.31,2.18,5.01,4.23,7.55,17.45,21.54,21.07,11.71,26.87,16.26,2.79,2.19,15.65,5.6,19.64,2.9-.2-1.32-2.02-2.78-3.59-3.21-.5-2.86-3.26-5.08-2.97-8.42,4.58.24,4.65,5.86,7.5,8.12,14.32,11.37,31.07,18.25,48.86,23.7-17.01,1.29-33.41-1.69-49.91-5.94-19.89-5.13-37.17-14.95-51.76-29.33-8.83-8.7-16.33-18.22-20.9-30.1,2.95,3.1,20.64,17.77,22.01,18.45Z"/><path class="cls-2" d="M689.27,637.51c-10.87,8.94-47.24,19.42-63,20.52,18.95-7.47,36.13-17,52.5-28.64,2.66,1.93,6.21,2.82,9.42,3.81.5,1.34-.36,4.03,1.08,4.31Z"/><path class="cls-5" d="M397.59,684.14c1.57.43,3.39,1.89,3.59,3.21-3.99,2.7-16.86-.71-19.64-2.9-5.8-4.55-9.42,5.28-26.87-16.26-2.05-2.54-4.99-4.24-4.23-7.55,4.43,2.19,8.44,5.19,13.05,7.95,10.99,6.57,22.13,12.28,34.11,15.56Z"/><path class="cls-5" d="M695.41,689.39c-10.53,6.28-20.94,12.35-32.96,15.86-.27-1.15-.88-1.61-2.36-3.53,4.97-.86,6.29-6.23,9.92-8.52l19.06-12.05c1.67-1.05,6.28-1.94,6.68.02s-2.03,3.3-2.17,4.77c-.11,1.22.77,2.52,1.83,3.46Z"/><path class="cls-2" d="M694.63,633.55c-5.59-3.12-.58-10.47-6.24-11.2,10.09-5.97,19.73-11.56,28.81-19.85-3.29,12.5-11.05,24.7-22.57,31.05Z"/><path class="cls-5" d="M409.63,622.41c.74,1.46,1.41,4.3,3.37,2.56,3,6.1,8.79,10.87,15.55,14.16-20.14-3.26-21.65-5.36-34.66-18.22-2.36-2.33-4.68-4.3-3.25-7.58l18.99,9.09Z"/><path class="cls-2" d="M620.67,676.4c1.32,1.42,4.29.08,5.51,1.94,1.1,1.69.62,4.04,2.08,5.08-11.4,5.1-23.68,6.9-37.1,5.75,5.19-2.03,9.76-3.76,14.59-6.42,5.22-2.14,9.71-5.4,14.93-6.34Z"/><path class="cls-5" d="M628.25,683.42c-1.45-1.04-.97-3.38-2.08-5.08-1.21-1.86-4.19-.52-5.51-1.94,8.91-2.87,21.81-5.33,31.6-6.78-6.72,7.3-15.82,10.13-24.01,13.8Z"/><path class="cls-5" d="M452.47,676.25l2.91-.02,7.89,1.64c3.77-2.18,8.27-1.82,11.54,1.63,1.4,7.09-38.58.21-42.76-2.64,3.63-2.38,18.3,2.07,20.43-.6Z"/><path class="cls-5" d="M609.39,629.95c-1.86,1.68-3.55,3.37-2.75,6.67-1.49.27-23.15,7.57-16.38,1.22-.64-2.04-9.92,2.29-8.92-1.38l28.05-6.51Z"/><path class="cls-5" d="M694.63,633.55c-1.73.95-4.15,2.97-5.36,3.97-1.44-.27-.58-2.97-1.08-4.31-3.21-.99-6.76-1.88-9.42-3.81,3.38-2.4,5.71-6.07,9.61-7.04,5.66.72.65,8.08,6.24,11.2Z"/><circle class="cls-6" cx="669.46" cy="680.32" r=".86"/><circle class="cls-6" cx="302.96" cy="307.82" r=".5"/><path class="cls-1" d="M640.79,407.14c-.8,7.63-2.7,14.22-6,20.34-.89-7.32.37-14.11-3.42-20.64-2.41,22.99-.33,30.79-11.69,51.77-6.15,11.36-16.68,20.61-30.22,21.41-14.35.85-30.49-10.4-53.81-7.32-9.74,1.29-19.17,3.29-28.69,5.99-20.92,5.94-35.93-9.81-43.28-27.49-7.25-17.43-6.3-27.78-9.76-45.12-2.21,8.73-.98,16.63-1.83,25.38-6.27-21.89-6.31-40.24-9.94-63.4-1.74,6.87-4.03,13.04-7.83,19.75-2.09-11.82-2.9-22.79-6.57-33.82l-8.63-25.55c-6.26,8.03-11.01,15.66-13.46,25.09-3.9-23.31,7.08-63.03,33.31-68.56-7.12,7.82-12.9,15.59-10.86,25.76,1.83,9.12,6.6,17.22,13.25,23.93-.11-11.65-2.78-27.74,8.36-35.01,7.15-4.67,15.98-4.36,23.46,0,42.4,24.73,88.04,27.02,131.82,4.41,6.1-3.15,10.53-6.87,17.55-7.65,8.17-.91,17.06,2.09,20.73,9.94,4.33,9.26,3.32,18.99,1.36,29.33,5.83-6.34,10.91-13.4,13.55-21.59,3.53-10.96-1.78-21.01-10.22-28.89,27.44,6.01,36.58,44.56,33.2,68.21-2.91-8.85-7.12-16.87-13.62-24.43-2.26,8.45-5.03,15.69-7.85,23.49-4.07,11.24-4.64,22.6-6.18,35.25-4.5-5.88-5.43-12.56-8.63-19.63l-4.09,39.06ZM594.7,340.03c6.47,11.47,8.17,22.86,10.11,35.82,14.8-12.15,21.95-43.32,21.99-61.45.03-14.27-23.84,4.01-30.47,7.49-5.84,3.06-13,3.75-19.45,5.62-22.97,6.68-44.06,6.98-66.95.36-6.53-1.89-13.21-3.16-19.36-5.74-7.44-3.13-22.5-16.95-28.66-11.84-4.75,3.94.27,23.59,1.76,29.8,3.22,13.44,8.59,26.06,18.5,36.27,1.67-13.16,3.91-25.42,10.71-37.06,3.47,7.56,7.57,13.8,14.22,18.09,5.32-4.54,9.05-9.63,12.25-15.51,7.9,12.68,12.03,8.13,24.05,8.49s18.51,2.95,23.98-8.47l12.47,15.85c6.85-4.12,10.92-10.48,14.85-17.7ZM512.4,405.37c3.75,4.25,7.45,9.44,14.06,10.16,12.61,7.72,49.72,4.42,49.88-16.07.04-4.82,2.99-7.99,7.98-8.27.48-4.31-2.29-6.19-5.09-8.89-8.52-8.21-24.8-9.04-31.71,1.64-3.38,5.24-1.06,12.68-3.44,18.48-2.41-5.2-1.33-12.14-4.62-17.51-5.54-9.06-19.37-11.12-28.26-5.79-3.57,2.14-7.85,5.69-9.03,9.48,1.48,6.75,12.91.3,11.86,4.42-.35,1.37-3.11.98-3.73,2.14-1.71,3.24-.18,7.2,2.09,10.21ZM581.04,440.43c-2.05-4.44-1.96-8.58-4.86-11.82-5.73-6.4-14.62,8.96-15.22,14.86-1.97-3.4-1.65-8.5-5.57-8.83-8.56-.72-17.17-.21-25.56-.25-1.97,2.8-1.87,6.29-4.04,7.81-2.7-5.71-6.14-15.19-13.07-14.88-5.57.25-5.87,9.08-6.57,14.2l-17.21-32.49c-1.46-2.75-1.39-5.68-3.51-8.45-7.38,14.68-9.36,31.01-6.5,47.72,1.01,5.89,10.17,21.32,23.55,17.93,11.11-2.81,21.75-6.25,33.17-7.33,29.41-2.78,46.92,12.46,59.43,5.84,6.09-3.23,11.49-9.65,12.91-16.53,2.42-11.71.06-36.6-6.93-47.81-2.77,6.57-5,12.33-8.19,18.22l-11.83,21.81Z"/><path class="cls-1" d="M539.59,238.21l7.37-2.54c.04,2.69.39,5.03.69,7.64.81,7.13,5.08,14.53,13.2,14.53-3.18-6.78-5.66-12.79-3.23-18.98,1.74,5.59,3.71,9.81,7.08,12.08,4.18,2.83,9.36,3.28,14.15,1.84,19.87-6,30.92-22.31,50.36-32.02,19.23-9.6,37.17-6.16,47.52,14.67-7.46-4.66-14.41-9.63-22.49-5.67-1.58.78-3.53,1.31-4,3.05-.32,1.19.9,2.28,1.15,3.46,1.85,8.44-1.29,16.22-6.52,23.81,3.1.89,4.94-1.54,7.65-.28-7.17,8.33-17.39,11.63-27.09,15.39-.47.18-.65.91-.88,1.28-.4.39-.55.36-.85-.13-.38-.07-.77-.17-1.14-.27-.15-1.1-1.36-.78-2.15-.72-4.59.35-9.21.58-13.79.08-.34-.04-.81-.24-1.57-.11-.52.09-.75.54-.09,1.02.46.33.92.86,1.53,1.06,2.7.87,5.11,2.54,7.94,2.91.28,1.25,2.07.9,3.06,1.01-6.06,4.53-17.95-1.3-26.74-4.06,1.32,4.46,3.37,8.23,2.01,12.54-2.71,8.62-12.35,12.54-20.71,9.74-8.21-2.75-12.36,16.97-35.71,11.76-11.94-2.66-13.58-14.21-24.92-11.22-8.38,2.21-16.9-3.04-17.53-11.68-.29-4,1.9-7.11,2.52-11.49-9.16,3.95-17.77,7.35-27.9,5.47,3.43-2.67,7.63-2.62,10.96-4.89.92-.63,2.63-.15,3.03-1.99-1.43-.54-2.32.12-3.21.06-5.13-.34-10.59.59-15.7-.19-12.8-1.95-19.99-7.02-30.7-16.02,2.98-2.25,4.56,1.24,8.1.92-4.5-7.98-6.59-15.84-5.28-24.07.28-1.72,1.88-3.17-.38-4.73-7.4-5.12-15.57-3.15-23.01,2.01,9.46-18.82,26-21.95,44.24-13.3,18.28,8.67,30.84,25.84,50.62,32.38,9.22,3.05,17.82-.61,21.86-9.8,2.74,5.74-1.02,9.53-2.89,14.83,12.08-1.27,13.92-10.07,13.44-19.35ZM479.24,251.38l-1.14,4.6c-8.02,2.48-6.32-9.37-9.16-12.21-4.39-4.39-9.32-7.79-15.98-9.78-3.05,10.41.18,21.29,8.89,28.03,8.31,6.42,25.61,4.99,35.35-.52l-17.96-10.13ZM589.95,261.26c9.07,4.81,18.31,6.37,27.8,4.17,14.43-3.34,19.26-17.31,16.57-31.51-7.18,2.06-13.64,6.08-18.28,11.28-.71,2.7.24,6.28-1.11,8.69-.93,1.66-3.12,3.05-4.74,2.23-1.21-.61-1.3-2.82-1.92-4.78-6.46,2.28-11.91,5.95-18.31,9.91ZM560.46,294.57c10.16-10.24,19.98-2.91,20.08-2.96,5.89-3.28,1.67-4.8,6.96-10.22-2.24-5.45-7.88-10.07-13.79-11.27-8.8-1.79-17,1.53-22.85,8.11.06-5.12,2.38-8.72,5.33-12.79-12.4-6.46-12.42-5.64-26.12-.34,3.71,4.42,5.46,8.59,6.01,13.13-6.23-6.26-13.73-10.03-22.11-8.2-5.23,1.15-11.34,5.24-13.16,10.62-1.17,3.45,2.27,8.36,4.83,11.02,18.55-8.99,14.31,8.64,37.17,8.38,6.25-.07,12.46-.27,17.64-5.49Z"/><path class="cls-1" d="M599.48,159.28c-3.48,2.69-9.5,14.91-11.15,21.63,7.94-4.15,15.74-7.79,24.53-10.19l23.78-6.48c3.06-.83,6.44-1.72,9.79-1.42-4.25,5.71-7.67,10.48-9.84,16.41,8.42-.62,16.84-2.71,24.97.26,12.37,4.53,20.65,16.08,24.03,28.49,3.74,13.76,2.09,27.33.98,41.49-8.72-14.97-6.53-28.85-13.78-43.56-3.43-6.96-9.41-14.71-17.58-16.31-13.06-2.57-25.93,1.68-37.27,7.56l7.01-18.36c-25.46,7.21-47.6,15.99-61.67,38.49-2.59-23.89,16.77-45.81,34.21-59.81,1.14-.91,2.1,1.75,1.97,1.8Z"/><path class="cls-1" d="M447.27,163.31l23.05,6.09c9.67,2.56,18.06,6.36,27.42,10.68-1.65-8.61-4.7-15.89-10.02-20.94.5-.43.59-1.2,1.27-1.02s1.09.45,1.7.92c17.73,13.54,35.61,34.16,33.02,58.8-13.46-22.16-36.33-31.98-61.52-39.09,2.27,6.8,5.07,12.12,6.37,18.63-11.38-6.62-23.89-10.35-36.76-7.7-6.41,1.32-11.38,6.78-14.87,12.01-9.19,13.75-8.59,30.67-15.83,46.36-.98-9.53-2.16-18.75-1.44-28.81,1.16-16.08,9.46-31.45,24.08-38.49,8.66-4.17,18.47-2.99,27.63-1.55-1.96-6.64-6.72-11.14-11.62-16.47,2.62.09,5.29,0,7.5.58ZM498.46,180.82c0-.28-.22-.5-.5-.5s-.5.22-.5.5.22.5.5.5.5-.22.5-.5Z"/><path class="cls-2" d="M554.85,171.08c2.46,10.94-3.33,10.27-7.47,21.09-1.75,4.56-1.29,9.07-4.14,14.03-2.82-9.26-6.22-16.77-10.04-24.9l-7.96-16.94c5.32,3.56,9.21,7.34,14.3,11.62,11.03-9.28-6.17-20.13,15.75-37.85l.46,5.27c16.25-12.04,25.87-25.56,16.38-47.64,7.31,4.29,10.86,12.1,13.3,19.52,4.14,12.55-.14,25.62-10.32,33.62-1.48,1.16-2.11,3.84-5.06,2.4,1.55-2.31,3.38-3.32,3.67-6.24-4.61.55-2.91,5.03-3.86,7.18-1.53,3.48-6.14,5.55-7.41,10.12-1.96-3.53.71-5.4,1.48-10.06-7.46,2.56-10.9,10.8-9.11,18.76ZM575.46,141.82c0-.28-.22-.5-.5-.5s-.5.22-.5.5.22.5.5.5.5-.22.5-.5ZM574.46,143.82c0-.28-.22-.5-.5-.5s-.5.22-.5.5.22.5.5.5.5-.22.5-.5Z"/><path class="cls-2" d="M623.68,276.34c.3.49.45.52.85.13s.82-.69.88-1.28c9.7-3.76,19.92-7.06,27.09-15.39-2.7-1.25-4.55,1.17-7.65.28,5.23-7.59,8.37-15.37,6.52-23.81,2.59-.35,7.27-4.18,8.58-1.44l3.57,7.43c4.39,3.95,9.72,6.8,13.35,11.67,8.12,10.9,13.96,23.64,14.82,37.85-5.8-8.57-11.35-16.22-20.54-20.04-7.58-3.88-16.29-3.98-23.55.53-4.34.71-24.3,11.35-23.94,4.05Z"/><path class="cls-2" d="M435.72,236.18c-1.31,8.23.78,16.09,5.28,24.07-3.54.32-5.12-3.17-8.1-.92,10.71,9,17.9,14.07,30.7,16.02,1.04,8.18-25.03-2.76-28.97-4.23-16.98-7.88-31.11,5.94-38.98,20.51-.33-11.03,4.7-19.79,8.96-28.96,4.11-8.86,10.11-15.85,19.01-20.16l3.18-6.81c1.02-2.18,2.68-3.55,5.07-3.46,1.99.07,2.44,2.46,3.86,3.94Z"/><path class="cls-2" d="M636.65,164.24l-23.78,6.48c-8.79,2.4-16.59,6.04-24.53,10.19,1.65-6.72,7.66-18.94,11.15-21.63,3.94.11,11.94-7.67,17.09-10.2-1.75,7.27-7.68,9.36-13.21,14.12,3.66-.86,35.39-4.98,33.29,1.04ZM602.46,163.82c0-.28-.22-.5-.5-.5s-.5.22-.5.5.22.5.5.5.5-.22.5-.5Z"/><path class="cls-2" d="M447.27,163.31c-.09-.95.39-1.59.93-1.89.86-.49,2.18-.27,3.23-.36,12.08-1,23.19-.03,34,4.62.56-3.27-1.39-4.13-.41-5.28.66-.77,2.02-.67,2.7-1.27,5.32,5.06,8.37,12.34,10.02,20.94-9.36-4.32-17.75-8.12-27.42-10.68l-23.05-6.09Z"/><path class="cls-1" d="M536.16,491.33c-6.28,1.16-11.33,4.65-17.74,3.38,5.38-3.04,10.42-6.61,16.51-8.71,10.68-3.68,23.61.46,29.83,10.1-9.68-2.57-18.54-6.63-28.6-4.77Z"/><path class="cls-2" d="M547.65,243.32c-.3-2.61-.65-4.95-.69-7.64l-7.37,2.54-6.29-16.7c6.84,4.59,8.32,3.1,17.3,1.62,1.14,2.67.42,5.37-.58,8.02-1.58,4.19-.36,8.64-2.37,12.17Z"/><path class="cls-2" d="M657.85,95.6c2.09,6.12-.22,13.97-4.66,18.13-.59-8.18-1.27-14.99-3.26-22.51,2.93.51,6.95,1.56,7.91,4.38Z"/><path class="cls-2" d="M686.84,413.43c-5.37.59,4.95-17.37-4.49-15.87.42-1.88.61-4.27,2.98-5.41.59,2.94,2.55,4.42,3.49,6.67,1.44,3.44,2.97,14.07-1.98,14.61Z"/><path class="cls-2" d="M640.01,477.47c-.93,1.81-3.46.6-4.44.27-4.54-1.5,4-12.55,5.64-15.62,1.67,5.41,1.34,10.39-1.2,15.35Z"/><path class="cls-2" d="M407.33,156.48c-7.36,5.84-13.33-13.6-13.52-18.38,7.15,2.64,2.45,11.9,13.52,18.38Z"/><path class="cls-2" d="M400.17,391.71c3.55,1.27-.17,15.46-1.17,19.09-2.18-6.31-2.26-13.05,1.17-19.09Z"/><path class="cls-2" d="M722.54,318.46c2.75,1.65,11.98,12.79,7.23,14.78-2.69,1.13-6.18-11.7-7.23-14.78Z"/><path class="cls-2" d="M529.4,55.04c1.3,4.76,2.16,8.88,1.3,13.43-3.56-3.38-3.99-7.64-4.35-12.02.47-.96.9-1.68,3.06-1.41Z"/><path class="cls-1" d="M592.04,222.53c-.89,1.82-2.08,2.95-3.26,3.15-1.39.24-2.94-.01-4.08-1.35,1.39-2.52,5.03-5.19,6.72-4.31.75.38,1.3,1.13.62,2.52Z"/><path class="cls-1" d="M498.96,223.03c.24,2.9-3.29,2.08-4.45,1.61s-3.7-2.3-2.7-4.33c1.14-2.34,6.91-.37,7.16,2.72Z"/><path class="cls-2" d="M362.29,321.77c-1.92,3.03-1.69,6.77-5.24,8.89-1.33-3.72,1.78-6.3,3.34-9.57.95-1.47,2.59-1.15,1.9.68Z"/><path class="cls-2" d="M363.48,227.22c5.26-3.04-6.73,9.69-5.83,7.27.33-3.52,2.89-5.76,5.83-7.27Z"/><path class="cls-2" d="M622.29,279.84c1.11-1.16,1.72-1.32,2.16-.09.28.79.18,1.63-1.42,1.63-.67,0-2.2,0-.74-1.54Z"/><path class="cls-2" d="M479.46,277.47l-.18-1.93c.89.06,1.78-.6,3.21-.06-.4,1.84-2.12,1.36-3.03,1.99Z"/><path class="cls-2" d="M362.69,319.16l1.58-4.37c2.45,1.52.88,2.76-1.58,4.37Z"/><path class="cls-2" d="M617.46,281.32c-.99-.11-2.78.24-3.06-1.01,1.03.14,2.76-.34,3.06,1.01Z"/><path class="cls-2" d="M606.59,275.43l-.13,1.96c-.62-.2-1.07-.73-1.53-1.06-.66-.47-.44-.93.09-1.02.76-.13,1.24.08,1.57.11Z"/><path class="cls-2" d="M622.53,276.07c-.65-.18-2.13.27-2.15-.72.79-.06,2.01-.38,2.15.72Z"/><path class="cls-2" d="M572.27,95.17c-.67.21-1.05-.67-1.34-.88-.74-.53-.89-1.6.28-2.05.29,1.14.29,1.53,1.06,2.93Z"/><circle class="cls-1" cx="646.96" cy="284.82" r=".5"/><path class="cls-2" d="M297.47,537.45c-1.85,2.27-29.39,5.48-31.04,3.26l28-5.67c.78-.16,2.05.6,2.5.47s.8,1.32.55,1.93Z"/><path class="cls-2" d="M290.09,472.18c6.22-1.42,5.78,8.5-19.29,2.15,6.76-1.97,12.79-.67,19.29-2.15Z"/><path class="cls-2" d="M195.96,522.39c.54,2.43-6.83,2.43-6.78.1.03-1.84,6.13-3.04,6.78-.1Z"/><path class="cls-2" d="M821.14,474.37c-3.92,2.5-29,5.1-29.73.47-.14-.91-.45-3.21,1.03-3.07l28.7,2.6Z"/><path class="cls-2" d="M57.07,560.04c-4.81,1.33-6.68-3.38-7.46-6.84-.4-4.51-1.85-8.37-.7-13.05,2.26,6.5,4.44,12.52,8.16,19.88Z"/><path class="cls-5" d="M594.7,340.03c-3.93,7.23-8,13.59-14.85,17.7l-12.47-15.85c-5.47,11.42-11.72,8.84-23.98,8.47s-16.15,4.2-24.05-8.49c-3.19,5.87-6.92,10.97-12.25,15.51-6.65-4.29-10.75-10.52-14.22-18.09-6.8,11.64-9.04,23.9-10.71,37.06-9.91-10.21-15.28-22.84-18.5-36.27-1.49-6.21-6.51-25.86-1.76-29.8,6.16-5.11,21.22,8.72,28.66,11.84,6.15,2.59,12.84,3.86,19.36,5.74,22.88,6.62,43.98,6.32,66.95-.36,6.45-1.88,13.61-2.57,19.45-5.62,6.63-3.47,30.5-21.76,30.47-7.49-.04,18.13-7.19,49.3-21.99,61.45-1.94-12.96-3.63-24.34-10.11-35.82ZM472.6,338.36c-1.62,3.93-1.35,11.46,3.4,12.99,1.14.37,1.77-.72,1.7-1.55-.35-4.01-2.69.11-5.1-11.44ZM614.46,351.86c1.89-4.41,1.14-8.76-.61-12.64-2.8,3.81-3.16,7.82-4.38,11.84,1.71.36,3.54,1.37,4.99.8Z"/><path class="cls-5" d="M581.04,440.43l11.83-21.81c3.19-5.89,5.42-11.65,8.19-18.22,6.99,11.2,9.35,36.1,6.93,47.81-1.42,6.88-6.82,13.31-12.91,16.53-12.5,6.63-30.02-8.61-59.43-5.84-11.42,1.08-22.06,4.51-33.17,7.33-13.38,3.39-22.54-12.05-23.55-17.93-2.86-16.71-.87-33.04,6.5-47.72,2.12,2.77,2.05,5.7,3.51,8.45l17.21,32.49c.7-5.12,1-13.95,6.57-14.2,6.93-.31,10.37,9.18,13.07,14.88,2.16-1.52,2.07-5.01,4.04-7.81,8.39.04,17-.47,25.56.25,3.92.33,3.6,5.44,5.57,8.83.6-5.9,9.49-21.26,15.22-14.86,2.9,3.24,2.81,7.38,4.86,11.82ZM591.77,450.75c6.61.16,11.57-5.97,9.98-12.03-2.36,5.81-4.93,9.39-9.98,12.03Z"/><path class="cls-4" d="M526.46,415.53c.68-.05,1.93.08,2.33-1.6-6.4-2.85-10.92-7.79-15.01-13.89-1.9,1.73-1.4,3.72-1.39,5.33-2.28-3.01-3.8-6.97-2.09-10.21.61-1.16,3.38-.77,3.73-2.14,1.05-4.12-10.38,2.33-11.86-4.42,1.19-3.79,5.46-7.34,9.03-9.48,8.89-5.33,22.71-3.26,28.26,5.79,3.29,5.37,2.21,12.31,4.62,17.51,2.38-5.8.06-13.24,3.44-18.48,6.9-10.68,23.18-9.85,31.71-1.64,2.8,2.7,5.58,4.58,5.09,8.89-4.99.28-7.94,3.45-7.98,8.27-.16,20.49-37.27,23.79-49.88,16.07Z"/><path class="cls-4" d="M526.46,415.53c-6.62-.72-10.31-5.91-14.06-10.16,0-1.61-.51-3.59,1.39-5.33,4.08,6.1,8.61,11.04,15.01,13.89-.4,1.68-1.65,1.55-2.33,1.6Z"/><path class="cls-5" d="M560.46,294.57c-5.18,5.22-11.39,5.42-17.64,5.49-22.86.26-18.62-17.37-37.17-8.38-2.56-2.67-6-7.57-4.83-11.02,1.83-5.38,7.93-9.48,13.16-10.62,8.38-1.83,15.88,1.94,22.11,8.2-.55-4.55-2.3-8.72-6.01-13.13,13.7-5.3,13.72-6.12,26.12.34-2.95,4.06-5.27,7.67-5.33,12.79,5.85-6.58,14.05-9.9,22.85-8.11,5.91,1.2,11.55,5.82,13.79,11.27-5.29,5.42-1.07,6.94-6.96,10.22-.1.06-9.92-7.28-20.08,2.96Z"/><path class="cls-4" d="M589.95,261.26c6.4-3.96,11.85-7.63,18.31-9.91.62,1.95.71,4.17,1.92,4.78,1.62.82,3.81-.57,4.74-2.23,1.35-2.41.4-5.99,1.11-8.69,4.64-5.19,11.11-9.22,18.28-11.28,2.69,14.2-2.14,28.17-16.57,31.51-9.49,2.2-18.73.64-27.8-4.17Z"/><path class="cls-4" d="M479.24,251.38l17.96,10.13c-9.74,5.51-27.04,6.94-35.35.52-8.71-6.73-11.94-17.61-8.89-28.03,6.66,1.99,11.6,5.39,15.98,9.78,2.84,2.84,1.14,14.69,9.16,12.21l1.14-4.6Z"/><path class="cls-5" d="M624.53,276.48c.24-.37.42-1.1.88-1.28-.06.59-.5.91-.88,1.28Z"/><circle class="cls-2" cx="497.96" cy="180.82" r=".5"/><circle class="cls-5" cx="573.96" cy="143.82" r=".5"/><circle class="cls-5" cx="574.96" cy="141.82" r=".5"/><circle class="cls-5" cx="601.96" cy="163.82" r=".5"/><path class="cls-2" d="M614.46,351.86c-1.45.56-3.29-.44-4.99-.8,1.23-4.01,1.58-8.03,4.38-11.84,1.75,3.88,2.5,8.23.61,12.64Z"/><path class="cls-2" d="M472.6,338.36c2.41,11.54,4.75,7.43,5.1,11.44.07.83-.55,1.92-1.7,1.55-4.75-1.53-5.02-9.06-3.4-12.99Z"/><path class="cls-2" d="M591.77,450.75c5.05-2.63,7.62-6.21,9.98-12.03,1.59,6.05-3.37,12.19-9.98,12.03Z"/></g></g></svg>