<svg version="1.1" xmlns="http://www.w3.org/2000/svg" style="display: block;" viewBox="0 0 2048 2048" width="1024" height="1024" preserveAspectRatio="none"><defs><linearGradient id="Gradient1" gradientUnits="userSpaceOnUse" x1="749.167" y1="1660.32" x2="738.457" y2="1432.58"><stop class="stop0" offset="0" stop-opacity="1" stop-color="rgb(191,34,0)"/><stop class="stop1" offset="1" stop-opacity="1" stop-color="rgb(250,58,0)"/></linearGradient><linearGradient id="Gradient2" gradientUnits="userSpaceOnUse" x1="1243.64" y1="1655.99" x2="1272.02" y2="1412.97"><stop class="stop0" offset="0" stop-opacity="1" stop-color="rgb(250,124,0)"/><stop class="stop1" offset="1" stop-opacity="1" stop-color="rgb(255,171,16)"/></linearGradient><linearGradient id="Gradient3" gradientUnits="userSpaceOnUse" x1="1252.41" y1="1641.96" x2="1260.43" y2="1415.34"><stop class="stop0" offset="0" stop-opacity="1" stop-color="rgb(195,35,0)"/><stop class="stop1" offset="1" stop-opacity="1" stop-color="rgb(250,57,0)"/></linearGradient><linearGradient id="Gradient4" gradientUnits="userSpaceOnUse" x1="973.242" y1="1654.36" x2="955.636" y2="1420.33"><stop class="stop0" offset="0" stop-opacity="1" stop-color="rgb(249,124,0)"/><stop class="stop1" offset="1" stop-opacity="1" stop-color="rgb(255,151,2)"/></linearGradient><linearGradient id="Gradient5" gradientUnits="userSpaceOnUse" x1="979.607" y1="1648.53" x2="954.285" y2="1419.53"><stop class="stop0" offset="0" stop-opacity="1" stop-color="rgb(192,34,0)"/><stop class="stop1" offset="1" stop-opacity="1" stop-color="rgb(253,59,0)"/></linearGradient><linearGradient id="Gradient6" gradientUnits="userSpaceOnUse" x1="1549.87" y1="1496.33" x2="1486.44" y2="1363.43"><stop class="stop0" offset="0" stop-opacity="1" stop-color="rgb(255,219,86)"/><stop class="stop1" offset="1" stop-opacity="1" stop-color="rgb(255,238,156)"/></linearGradient><linearGradient id="Gradient7" gradientUnits="userSpaceOnUse" x1="1561.99" y1="1677.08" x2="1465.52" y2="1535.12"><stop class="stop0" offset="0" stop-opacity="1" stop-color="rgb(250,120,0)"/><stop class="stop1" offset="1" stop-opacity="1" stop-color="rgb(255,154,9)"/></linearGradient><linearGradient id="Gradient8" gradientUnits="userSpaceOnUse" x1="1538.89" y1="1667.22" x2="1513.71" y2="1382.58"><stop class="stop0" offset="0" stop-opacity="1" stop-color="rgb(190,33,0)"/><stop class="stop1" offset="1" stop-opacity="1" stop-color="rgb(255,59,0)"/></linearGradient><linearGradient id="Gradient9" gradientUnits="userSpaceOnUse" x1="597.637" y1="1664.54" x2="457.576" y2="1531.18"><stop class="stop0" offset="0" stop-opacity="1" stop-color="rgb(253,122,0)"/><stop class="stop1" offset="1" stop-opacity="1" stop-color="rgb(253,149,8)"/></linearGradient><linearGradient id="Gradient10" gradientUnits="userSpaceOnUse" x1="517.299" y1="1694.28" x2="490.355" y2="1399.18"><stop class="stop0" offset="0" stop-opacity="1" stop-color="rgb(188,33,0)"/><stop class="stop1" offset="1" stop-opacity="1" stop-color="rgb(254,59,0)"/></linearGradient><linearGradient id="Gradient11" gradientUnits="userSpaceOnUse" x1="1322.96" y1="1229.52" x2="1433.45" y2="1024.39"><stop class="stop0" offset="0" stop-opacity="1" stop-color="rgb(250,95,0)"/><stop class="stop1" offset="1" stop-opacity="1" stop-color="rgb(255,125,0)"/></linearGradient><linearGradient id="Gradient12" gradientUnits="userSpaceOnUse" x1="656.229" y1="412.801" x2="654.01" y2="392.391"><stop class="stop0" offset="0" stop-opacity="1" stop-color="rgb(179,29,0)"/><stop class="stop1" offset="1" stop-opacity="1" stop-color="rgb(134,15,3)"/></linearGradient><linearGradient id="Gradient13" gradientUnits="userSpaceOnUse" x1="1025.93" y1="331.698" x2="1030.93" y2="344.96"><stop class="stop0" offset="0" stop-opacity="1" stop-color="rgb(255,130,0)"/><stop class="stop1" offset="1" stop-opacity="1" stop-color="rgb(248,95,3)"/></linearGradient><linearGradient id="Gradient14" gradientUnits="userSpaceOnUse" x1="1014.64" y1="539.115" x2="979.5" y2="348.123"><stop class="stop0" offset="0" stop-opacity="1" stop-color="rgb(255,136,0)"/><stop class="stop1" offset="1" stop-opacity="1" stop-color="rgb(255,180,0)"/></linearGradient></defs><path transform="translate(0,0)" fill="rgb(1,5,33)" d="M 1162.49 102.152 C 1200.18 157.381 1178.7 221.701 1144.09 272.568 C 1146.97 273.828 1151.03 273.187 1154.34 272.981 L 1155.91 272.611 C 1169.65 269.451 1184.84 268.359 1199.15 265.55 C 1226.25 260.231 1248.6 253.122 1274.51 244.509 C 1261.26 265.731 1246.33 280.371 1233.8 302.397 C 1231.69 311.152 1231.72 313.48 1233.44 322.337 C 1237.83 326.63 1244.05 333.746 1250.43 333.984 C 1279.71 314.657 1281.19 301.652 1298.17 272.991 C 1325.24 227.265 1353.3 198.639 1399.94 173.479 C 1371.83 220.899 1378.7 243.365 1386.06 296.575 C 1387.35 305.919 1389.73 323.966 1389.75 333.227 C 1403.09 314.949 1417.05 299.376 1435.76 286.635 C 1488.06 251.023 1525.12 274.86 1541.92 201.951 C 1559.67 263.263 1552.6 308.585 1503.19 350.693 C 1487.05 364.445 1468.15 376.246 1459.86 396.305 C 1487.74 384.349 1506.44 375.982 1536.57 369.327 C 1552.51 365.806 1573.84 362.913 1588.31 358.833 C 1576.51 371.17 1550.91 409.49 1552.53 427.329 C 1553.81 441.352 1562.01 454.472 1567.95 467.263 C 1584.21 502.833 1589.26 542.509 1582.43 581.018 C 1617.62 544.01 1645.84 515.847 1659 464.417 C 1677.81 501.318 1683.97 565.153 1675.89 605.477 C 1666.18 653.885 1645.76 701.739 1621.93 744.72 C 1627.35 748.639 1632.84 752.458 1638.39 756.175 C 1647.5 746.666 1656.78 737.411 1665.89 727.882 C 1676.59 716.685 1688.29 701.678 1700.41 692.488 C 1695.97 739.774 1698.75 750.526 1709.65 795.627 C 1723.84 854.369 1705.66 925.812 1674.68 976.457 C 1671.4 981.937 1667.52 987.506 1664.36 993.002 C 1695.73 982.977 1717.59 968.767 1732.78 938.933 C 1735.98 932.647 1739.62 924.353 1742.91 918.377 C 1744.38 941.494 1746.86 965.918 1741.18 988.591 C 1736.98 1005.36 1729.9 1030.36 1720.62 1044.96 C 1669.93 1146.36 1598.13 1210.28 1489.91 1245.68 C 1477.16 1249.85 1456.16 1254.42 1445.59 1259.03 C 1478.76 1262.11 1510.8 1264.64 1543 1274.28 C 1530.92 1286.55 1514.87 1304.87 1503.16 1316.01 C 1575.2 1315.34 1647.59 1316.23 1719.61 1314.06 C 1747 1313.24 1783.57 1313.3 1810.29 1310.82 C 1782.43 1344.12 1756.09 1378.66 1731.36 1414.34 C 1723.32 1425.79 1708.3 1445.62 1703.74 1457.97 C 1689.69 1496.03 1680.57 1538.19 1668.09 1576.56 C 1683.3 1574.22 1699.68 1571.41 1714.88 1569.78 C 1694.32 1623.19 1671.03 1672.43 1635.02 1717.1 C 1626.97 1727.09 1618.24 1738.57 1609.06 1747.48 C 1417.04 1733.33 1237.4 1736.39 1052.02 1796.29 C 1028.63 1803.85 982.49 1819.44 961.355 1830.24 C 928.731 1817.9 903.778 1807.84 869.919 1797.5 C 698.163 1745.1 537.704 1752.76 363.514 1786.42 C 329.166 1793.27 294.912 1800.59 260.76 1808.36 C 243.65 1812.27 221.327 1818.23 204.688 1820.98 C 233.632 1783.98 261.65 1739.83 280.538 1696.58 C 285.076 1686.19 291.861 1660.65 295.187 1649 C 303.453 1619.65 311.555 1590.26 319.493 1560.82 L 336.61 1497.77 C 339.524 1487.09 344.038 1472.94 345.937 1462.42 C 333.179 1427.68 321.963 1383.45 308.139 1350.75 C 328.962 1346.37 354.163 1343.23 375.469 1340.42 C 404.506 1336.45 433.586 1332.81 462.704 1329.49 C 486.143 1326.74 529.356 1320.35 551.095 1320.12 C 545.177 1309.27 538.813 1297.09 532.521 1286.58 C 539.825 1284.2 554.924 1279.31 562.393 1277.82 C 559.003 1274.74 528.565 1261.25 520.476 1255.98 C 472.436 1224.71 448.169 1191.89 420.921 1143.84 C 430.898 1148.04 470.339 1165.32 478.427 1158 C 477.7 1153.93 476.482 1153.85 473.142 1150.16 C 465.996 1144.54 454.178 1134.18 447.811 1127.8 C 445.854 1126.07 443.607 1123.73 441.71 1121.86 C 380.967 1064.5 328.354 971.905 332.263 886.587 C 339.393 890.005 346.826 939.604 396.684 956.745 C 390.088 946.078 381.638 935.25 375.333 924.422 C 362.316 902.065 352.005 869.536 348.501 844.118 C 339.562 779.255 350.164 724.01 389.157 671.222 C 383.121 698.351 385.306 720.454 403.034 743.232 C 408.106 749.749 426.662 760.62 435.267 761.927 C 440.575 762.733 440.654 753.304 442.593 750.003 C 451.296 719.842 466.19 693.129 486.077 668.887 C 491.793 661.918 497.154 654.587 503.976 648.58 C 490.556 625.358 484.277 592.784 485.277 565.756 C 487.366 492.861 542.537 432.929 601.419 396.129 C 648.692 366.583 688.55 363.499 690.269 298.021 C 713.677 331.334 710.243 375.824 697.041 412.24 C 700.862 410.569 707.758 407.679 710.771 405.176 C 730.454 388.824 741.359 353.611 752.543 331.154 C 784.188 267.616 826.045 247.149 887.092 224.326 C 882.464 230.192 878.077 236.243 873.943 242.466 C 862.383 260.179 856.941 274.965 861.482 296.496 C 863.396 305.571 867.36 311.872 874.988 316.765 C 880.335 308.356 883.611 298.755 887.728 289.62 C 892.539 279 898.479 268.93 905.445 259.581 C 960.473 185.328 1042.87 198.107 1117.85 162.426 C 1146.21 148.934 1153.92 131.087 1162.49 102.152 z"/><path transform="translate(0,0)" fill="rgb(245,55,0)" d="M 1162.49 102.152 C 1200.18 157.381 1178.7 221.701 1144.09 272.568 C 1146.97 273.828 1151.03 273.187 1154.34 272.981 L 1155.91 272.611 C 1169.65 269.451 1184.84 268.359 1199.15 265.55 C 1226.25 260.231 1248.6 253.122 1274.51 244.509 C 1261.26 265.731 1246.33 280.371 1233.8 302.397 C 1231.69 311.152 1231.72 313.48 1233.44 322.337 C 1237.83 326.63 1244.05 333.746 1250.43 333.984 C 1244.17 340.339 1188.25 360.138 1176.11 360.132 C 1173.86 360.131 1171.96 360.602 1169.52 361.106 L 1169.08 362.644 L 1168.24 361.053 C 1171.94 352.414 1179.52 335.424 1178.79 326.312 L 1177.44 324.323 C 1172.59 325.947 1162.69 336.091 1157.39 338.746 C 1107.6 363.733 1070.16 406.523 1057.95 461.565 C 1057.39 464.102 1056.99 462.848 1057.12 465.848 C 1104.01 431.373 1124.18 422.701 1179.6 407.23 L 1172.71 417.745 C 1171.17 425.518 1168 442.359 1164.74 448.871 C 1154.44 448.92 1154.49 449.611 1147.52 441.519 C 1136.92 455.962 1131.25 466.231 1121.75 480.409 C 1086.29 487.607 1051.88 488.668 1018.91 506.624 C 1004.15 514.664 991.113 525.743 977.027 534.945 C 971.556 538.357 967.416 548.484 960.231 548.472 C 958.32 546.758 958.865 547.496 957.735 545.113 L 959.149 542.017 C 952.792 543.013 933.343 554.444 927.28 558.623 C 917.986 551.771 913.784 563.4 906.635 557.136 L 907.205 552.962 C 918.265 538.039 944.838 505.601 957.791 493.824 C 920.189 508.059 881.28 517.947 850.738 546.392 C 845.18 551.569 839.115 556.771 832.982 561.246 L 831.573 562.264 C 838.027 543.082 849.245 522.036 861.898 506.254 C 831.005 514.553 784.608 525.756 766.281 554.258 C 755.838 570.499 775.223 583.684 788.438 589.648 C 789.933 590.32 791.437 590.972 792.95 591.604 C 736.104 591.237 701.786 601.497 657.574 637.591 C 663.615 638.417 691.296 642.181 695.042 644.812 C 678.665 648.654 642.989 663.09 633.512 676.234 L 633.914 677.867 C 642.832 681.596 653.893 676.932 659.475 686.497 C 656.937 688.906 636.798 697.142 629.868 701.604 C 617.133 709.502 603.134 731.942 591.145 744.38 C 572.438 757.481 554.411 761.532 535.842 775.173 C 550.587 724.131 557.762 718.49 602.563 691.15 C 603.705 682.912 604.736 674.314 608.283 666.565 C 624.848 630.38 660.936 600.627 694.007 579.821 C 701.498 575.108 717.772 567.53 722.514 561.869 C 721.121 546.591 710.942 527.399 699 518.149 C 663.444 490.607 609.675 496.802 582.512 533.131 C 573.915 544.629 570.509 553.556 566.338 567.159 C 563.507 579.446 563.793 584.249 563.875 597.027 C 547.871 553.814 545.043 516.45 586.861 485.314 C 599.55 475.865 620.17 471.402 635.848 471.154 C 669.098 470.301 701.304 482.805 725.267 505.871 C 739.438 469.749 784.829 427.235 817.41 406.661 C 831.017 398.068 846.684 389.815 860.993 382.112 C 858.058 390.49 855.607 394.883 851.418 402.674 C 847.437 412.129 843.731 420.482 840.871 430.387 C 842.874 438.902 844.296 443.58 847.291 451.821 C 847.852 458.782 848.451 465.74 849.09 472.695 C 898.517 460.156 929.852 428.576 953.007 384.857 C 955.529 380.095 959.072 374.758 961.933 370.123 C 947.002 383.737 931.768 393.322 913.612 401.857 C 920.239 345.129 961.527 300.238 1012.58 277.712 C 1019.6 274.612 1026.66 271.617 1033.74 268.639 C 1036.5 266.66 1041.58 264.525 1044.74 263.012 C 1061.05 255.19 1068.74 252.132 1078.67 236.499 C 1055.79 243.468 1033.23 251.309 1010.41 258.132 C 1002.87 260.389 987.703 262.772 979.599 264.234 C 992.656 255.984 1001.22 247.58 1013.28 238.301 C 1019.74 233.334 1028.73 228.585 1036.01 224.672 C 1032.1 221.873 1028.55 221.786 1023.62 222.849 C 978.131 232.656 940.376 254.991 913.892 293.751 C 906.975 303.873 903.467 311.374 897.704 320.591 C 892.781 323.029 888.106 325.327 883.086 327.575 C 874.332 332.537 865.536 337.427 856.701 342.243 C 846.352 351.545 839.537 357.982 830.451 368.538 C 820.461 346.626 818.558 305.365 835.574 286.049 C 833.592 286.393 832.331 286.468 830.506 287.174 C 808.222 312.016 787.074 346.481 769.998 375.499 C 763.709 386.187 758.376 398.835 752.442 409.057 C 751.205 408.709 747.726 408.222 746.281 407.977 C 744.503 410.936 741.216 415.703 741.05 418.91 C 737.04 422.02 738.21 421.963 732.863 421.429 C 726.501 420.793 707.698 420.447 702.758 423.895 L 701 427.431 L 697.895 428.448 C 680.262 426.676 672.329 428.484 655.647 432.868 C 661.085 424.72 665.26 415.865 669.657 407.107 C 658.072 408.57 628.895 420.473 618.376 425.563 C 614.689 428.809 607.974 432.054 603.48 434.558 C 561.071 458.183 519.742 502.695 515.974 553.263 C 512.977 593.496 531.883 642.26 543.626 681.565 L 542.082 682.86 C 535.388 688.416 524.879 694.444 518.603 700.071 C 497.112 719.338 475.358 744.617 462.108 770.364 C 457.536 779.248 457.079 786.475 454.357 793.335 C 450.573 817.278 463.685 866.694 471.173 890.687 C 439.853 882.508 413.623 865.424 397.141 837.053 C 395.098 833.593 393.195 830.052 391.435 826.439 C 387.697 829.451 388.856 827.897 387.423 832.744 C 393.855 874.744 403.169 911.459 431.506 944.899 C 440.339 955.322 450.813 964.717 459.339 974.695 C 441.738 969.974 419.89 965.455 403.57 958.862 C 415.473 997.692 429.309 1029.26 457.167 1059.33 C 464.239 1066.96 471.386 1073.6 478.329 1080.95 C 479.528 1085.59 479.946 1087.27 480.267 1092.03 C 480.645 1094.08 481.204 1096.61 481.392 1098.64 C 488.22 1123.61 497.004 1150.6 508.48 1173.85 L 506.422 1176.93 C 499.105 1170.68 480.521 1154.29 473.142 1150.16 C 465.996 1144.54 454.178 1134.18 447.811 1127.8 C 445.854 1126.07 443.607 1123.73 441.71 1121.86 C 380.967 1064.5 328.354 971.905 332.263 886.587 C 339.393 890.005 346.826 939.604 396.684 956.745 C 390.088 946.078 381.638 935.25 375.333 924.422 C 362.316 902.065 352.005 869.536 348.501 844.118 C 339.562 779.255 350.164 724.01 389.157 671.222 C 383.121 698.351 385.306 720.454 403.034 743.232 C 408.106 749.749 426.662 760.62 435.267 761.927 C 440.575 762.733 440.654 753.304 442.593 750.003 C 451.296 719.842 466.19 693.129 486.077 668.887 C 491.793 661.918 497.154 654.587 503.976 648.58 C 490.556 625.358 484.277 592.784 485.277 565.756 C 487.366 492.861 542.537 432.929 601.419 396.129 C 648.692 366.583 688.55 363.499 690.269 298.021 C 713.677 331.334 710.243 375.824 697.041 412.24 C 700.862 410.569 707.758 407.679 710.771 405.176 C 730.454 388.824 741.359 353.611 752.543 331.154 C 784.188 267.616 826.045 247.149 887.092 224.326 C 882.464 230.192 878.077 236.243 873.943 242.466 C 862.383 260.179 856.941 274.965 861.482 296.496 C 863.396 305.571 867.36 311.872 874.988 316.765 C 880.335 308.356 883.611 298.755 887.728 289.62 C 892.539 279 898.479 268.93 905.445 259.581 C 960.473 185.328 1042.87 198.107 1117.85 162.426 C 1146.21 148.934 1153.92 131.087 1162.49 102.152 z"/><path transform="translate(0,0)" fill="url(#Gradient14)" d="M 1082.88 330.542 C 1087.92 329.876 1098.02 323.262 1103.15 321.159 C 1141.86 305.294 1182.13 295.564 1221.84 282.105 C 1214.15 291.791 1206.06 302.449 1198.4 311.757 C 1206.15 307.605 1221.89 296.955 1230.42 297.888 C 1232.06 298.066 1232.76 300.483 1233.8 302.397 C 1231.69 311.152 1231.72 313.48 1233.44 322.337 C 1237.83 326.63 1244.05 333.746 1250.43 333.984 C 1244.17 340.339 1188.25 360.138 1176.11 360.132 C 1173.86 360.131 1171.96 360.602 1169.52 361.106 L 1169.08 362.644 L 1168.24 361.053 C 1171.94 352.414 1179.52 335.424 1178.79 326.312 L 1177.44 324.323 C 1172.59 325.947 1162.69 336.091 1157.39 338.746 C 1107.6 363.733 1070.16 406.523 1057.95 461.565 C 1057.39 464.102 1056.99 462.848 1057.12 465.848 C 1104.01 431.373 1124.18 422.701 1179.6 407.23 L 1172.71 417.745 C 1171.17 425.518 1168 442.359 1164.74 448.871 C 1154.44 448.92 1154.49 449.611 1147.52 441.519 C 1136.92 455.962 1131.25 466.231 1121.75 480.409 C 1086.29 487.607 1051.88 488.668 1018.91 506.624 C 1004.15 514.664 991.113 525.743 977.027 534.945 C 971.556 538.357 967.416 548.484 960.231 548.472 C 958.32 546.758 958.865 547.496 957.735 545.113 L 959.149 542.017 C 952.792 543.013 933.343 554.444 927.28 558.623 C 917.986 551.771 913.784 563.4 906.635 557.136 L 907.205 552.962 C 918.265 538.039 944.838 505.601 957.791 493.824 C 920.189 508.059 881.28 517.947 850.738 546.392 C 845.18 551.569 839.115 556.771 832.982 561.246 L 831.573 562.264 C 838.027 543.082 849.245 522.036 861.898 506.254 C 866.555 503.365 872.582 494.939 877.677 491.721 C 907.624 472.81 931.758 450.482 950.417 419.863 C 965.368 395.328 970.273 373.969 993.826 355.235 C 995.489 356.597 996.633 358.305 998.955 357.266 C 1019.7 347.985 1040.09 339.716 1062.41 334.909 C 1067.16 333.886 1067.96 332.098 1073.92 331.515 C 1077.58 329.953 1079.15 328.627 1082.88 330.542 z"/><path transform="translate(0,0)" fill="rgb(156,23,0)" d="M 1082.88 330.542 C 1087.92 329.876 1098.02 323.262 1103.15 321.159 C 1141.86 305.294 1182.13 295.564 1221.84 282.105 C 1214.15 291.791 1206.06 302.449 1198.4 311.757 C 1206.15 307.605 1221.89 296.955 1230.42 297.888 C 1232.06 298.066 1232.76 300.483 1233.8 302.397 C 1231.69 311.152 1231.72 313.48 1233.44 322.337 C 1237.83 326.63 1244.05 333.746 1250.43 333.984 C 1244.17 340.339 1188.25 360.138 1176.11 360.132 C 1173.86 360.131 1171.96 360.602 1169.52 361.106 L 1169.08 362.644 L 1168.24 361.053 C 1171.94 352.414 1179.52 335.424 1178.79 326.312 L 1177.44 324.323 C 1172.59 325.947 1162.69 336.091 1157.39 338.746 C 1107.6 363.733 1070.16 406.523 1057.95 461.565 C 1057.39 464.102 1056.99 462.848 1057.12 465.848 L 1054.52 469.175 C 1054.93 461.967 1045.94 448.189 1043.27 440.688 C 1041.79 436.55 1039.05 429.594 1037.2 425.823 L 1037.74 423.964 C 1039.54 417.603 1041.86 414.38 1045.26 408.771 C 1024.64 426.162 996.996 448.77 969.474 452.461 C 991.543 398.846 1033.9 359.715 1082.88 330.542 z"/><path transform="translate(0,0)" fill="rgb(245,55,0)" d="M 983.541 522.653 C 992.932 497.652 1022.83 451.482 1037.2 425.823 C 1039.05 429.594 1041.79 436.55 1043.27 440.688 C 1045.94 448.189 1054.93 461.967 1054.52 469.175 C 1032.67 492.409 1008.68 500.263 983.541 522.653 z"/><path transform="translate(0,0)" fill="rgb(156,23,0)" d="M 1147.52 441.519 C 1155.33 430.852 1161.29 424.417 1172.71 417.745 C 1171.17 425.518 1168 442.359 1164.74 448.871 C 1154.44 448.92 1154.49 449.611 1147.52 441.519 z"/><path transform="translate(0,0)" fill="rgb(156,23,0)" d="M 609.896 421.442 C 617.733 421.63 621.764 417.21 628.264 417.311 C 627.024 419.921 621.676 421.833 618.608 423.88 L 618.376 425.563 C 614.689 428.809 607.974 432.054 603.48 434.558 C 561.071 458.183 519.742 502.695 515.974 553.263 C 512.977 593.496 531.883 642.26 543.626 681.565 L 542.082 682.86 C 535.388 688.416 524.879 694.444 518.603 700.071 C 497.112 719.338 475.358 744.617 462.108 770.364 C 457.536 779.248 457.079 786.475 454.357 793.335 C 452.351 794.492 453.364 794.299 451.386 794.192 C 449.501 778.188 458.113 754.247 464.218 739.641 C 477.248 708.467 501.765 683.853 520.659 656.23 C 504.434 614.22 495.943 589.359 506.417 543.784 C 520.619 481.986 550.649 445.503 609.896 421.442 z"/><path transform="translate(0,0)" fill="rgb(156,23,0)" d="M 1078.67 236.499 C 1091.82 230.671 1093.07 229.418 1104.21 222.251 C 1111.48 217.572 1135.19 196.974 1138.62 195.811 L 1139.57 196.487 L 1136.57 201.007 L 1137 202.409 C 1138.76 203.098 1140.53 203.288 1140.71 204.617 C 1141.9 217.543 1138.89 233.44 1132.82 244.979 C 1128.68 252.847 1121.74 257.972 1116.14 264.263 C 1085.29 298.917 1039.4 308.853 1003.79 337.529 L 1002.05 338.909 C 1003.65 335.138 1006.77 327.548 1008.98 324.613 C 1013.48 318.614 1022.27 313.506 1024.14 306.009 C 1024.61 304.106 1027.1 301.389 1028.49 299.783 C 1006.54 311.425 1001.73 309.482 983.844 326.472 C 987.772 319.123 992.542 312.256 998.057 306.011 C 1002.25 301.208 1033.27 271.896 1033.74 268.639 C 1036.5 266.66 1041.58 264.525 1044.74 263.012 C 1061.05 255.19 1068.74 252.132 1078.67 236.499 z"/><path transform="translate(0,0)" fill="rgb(156,23,0)" d="M 445.419 1118.72 C 433.881 1096.17 419.185 1056.9 415.33 1032.54 C 423.219 1043.86 436.325 1065.98 449.968 1071.12 C 458.736 1073.19 474.943 1084.45 480.267 1092.03 C 480.645 1094.08 481.204 1096.61 481.392 1098.64 C 488.22 1123.61 497.004 1150.6 508.48 1173.85 L 506.422 1176.93 C 499.105 1170.68 480.521 1154.29 473.142 1150.16 C 465.996 1144.54 454.178 1134.18 447.811 1127.8 C 445.854 1126.07 443.607 1123.73 441.71 1121.86 L 445.419 1118.72 z"/><path transform="translate(0,0)" fill="rgb(222,48,1)" d="M 449.968 1071.12 C 458.736 1073.19 474.943 1084.45 480.267 1092.03 C 480.645 1094.08 481.204 1096.61 481.392 1098.64 C 470.267 1094.92 456.772 1080.76 449.968 1071.12 z"/><path transform="translate(0,0)" fill="rgb(222,48,1)" d="M 445.419 1118.72 C 447.662 1121.3 449.255 1122.54 449.765 1125.89 C 449.221 1126.45 448.407 1127.39 447.811 1127.8 C 445.854 1126.07 443.607 1123.73 441.71 1121.86 L 445.419 1118.72 z"/><path transform="translate(0,0)" fill="rgb(156,23,0)" d="M 1118.4 185.901 L 1119.09 187.118 C 1105.65 195.165 1084.61 201.198 1069.77 207.882 C 1062.96 210.949 1040.84 224.402 1036.01 224.672 C 1032.1 221.873 1028.55 221.786 1023.62 222.849 C 978.131 232.656 940.376 254.991 913.892 293.751 C 906.975 303.873 903.467 311.374 897.704 320.591 C 892.781 323.029 888.106 325.327 883.086 327.575 C 884.676 324.639 885.535 326.218 885.837 322.856 L 883.147 321.214 C 893.742 315.064 895.433 302.846 901.602 293.598 C 911.185 279.232 923.183 257.414 936.231 246.123 C 963.856 222.217 1002.8 217.131 1036.72 207.616 C 1049.93 203.848 1063.22 200.242 1076.45 196.594 C 1089.3 193.053 1106.6 191.254 1118.4 185.901 z"/><path transform="translate(0,0)" fill="rgb(156,23,0)" d="M 851.418 402.674 C 847.437 412.129 843.731 420.482 840.871 430.387 C 842.874 438.902 844.296 443.58 847.291 451.821 C 840.707 457.467 830.363 461.571 822.213 465.754 C 803.383 475.419 784.266 489.8 771.373 506.721 C 769.586 509.066 770.104 509.107 767.567 511.098 C 767.784 506.232 779.58 491.12 783.145 486.451 C 798.779 465.974 811.409 443.383 825.311 422.039 C 828.88 416.56 845.799 404.57 851.418 402.674 z"/><path transform="translate(0,0)" fill="rgb(156,23,0)" d="M 819.201 290.832 C 823.551 291.085 823.897 287.788 830.506 287.174 C 808.222 312.016 787.074 346.481 769.998 375.499 C 763.709 386.187 758.376 398.835 752.442 409.057 C 751.205 408.709 747.726 408.222 746.281 407.977 C 749.028 401.049 751.303 391.633 753.44 384.315 C 764.38 346.845 788.405 314.989 819.201 290.832 z"/><path transform="translate(0,0)" fill="url(#Gradient13)" d="M 993.826 355.235 C 1001.68 347.965 1043.09 321.806 1056.93 322.587 C 1058.3 322.664 1066.54 329.982 1073.92 331.515 C 1067.96 332.098 1067.16 333.886 1062.41 334.909 C 1040.09 339.716 1019.7 347.985 998.955 357.266 C 996.633 358.305 995.489 356.597 993.826 355.235 z"/><path transform="translate(0,0)" fill="url(#Gradient12)" d="M 609.896 421.442 C 627.163 412.719 649.758 408.404 666.139 396.548 C 670.68 393.261 674.571 389.779 679.416 386.899 C 680.717 394.281 674.242 401.802 669.657 407.107 C 658.072 408.57 628.895 420.473 618.376 425.563 L 618.608 423.88 C 621.676 421.833 627.024 419.921 628.264 417.311 C 621.764 417.21 617.733 421.63 609.896 421.442 z"/><path transform="translate(0,0)" fill="rgb(140,18,0)" d="M 819.201 290.832 C 830.842 280.32 839.681 274.341 854.226 268.827 C 848.822 274.846 842.531 281.837 835.574 286.049 C 833.592 286.393 832.331 286.468 830.506 287.174 C 823.897 287.788 823.551 291.085 819.201 290.832 z"/><path transform="translate(0,0)" fill="rgb(156,23,0)" d="M 883.147 321.214 L 885.837 322.856 C 885.535 326.218 884.676 324.639 883.086 327.575 C 874.332 332.537 865.536 337.427 856.701 342.243 C 856.779 342.112 856.858 341.982 856.937 341.851 C 859.86 332.274 874.182 325.632 883.147 321.214 z"/><path transform="translate(0,0)" fill="rgb(26,2,2)" d="M 387.423 832.744 C 386.749 827.758 385.419 817.911 386.389 813.099 C 388.648 815.284 390.374 822.936 391.435 826.439 C 387.697 829.451 388.856 827.897 387.423 832.744 z"/><path transform="translate(0,0)" fill="rgb(140,18,0)" d="M 1154.34 272.981 C 1151.15 274.558 1138.49 279.521 1135.26 280.191 L 1136.19 280.625 L 1135.72 277.666 C 1138.36 275.909 1141.18 273.425 1144.09 272.568 C 1146.97 273.828 1151.03 273.187 1154.34 272.981 z"/><path transform="translate(0,0)" fill="rgb(222,48,1)" d="M 1118.4 185.901 C 1121.04 183.186 1121.09 182.239 1124.22 181.324 C 1123.7 184.058 1121.47 185.748 1119.09 187.118 L 1118.4 185.901 z"/><path transform="translate(0,0)" fill="rgb(140,18,0)" d="M 840.878 310.576 C 850.398 320.39 843.043 346.315 837.534 357.487 L 836.188 357.539 C 832.399 351.698 838.815 318.573 840.878 310.576 z"/><path transform="translate(0,0)" fill="rgb(245,55,0)" d="M 1250.43 333.984 C 1279.71 314.657 1281.19 301.652 1298.17 272.991 C 1325.24 227.265 1353.3 198.639 1399.94 173.479 C 1371.83 220.899 1378.7 243.365 1386.06 296.575 C 1387.35 305.919 1389.73 323.966 1389.75 333.227 C 1403.09 314.949 1417.05 299.376 1435.76 286.635 C 1488.06 251.023 1525.12 274.86 1541.92 201.951 C 1559.67 263.263 1552.6 308.585 1503.19 350.693 C 1487.05 364.445 1468.15 376.246 1459.86 396.305 C 1487.74 384.349 1506.44 375.982 1536.57 369.327 C 1552.51 365.806 1573.84 362.913 1588.31 358.833 C 1576.51 371.17 1550.91 409.49 1552.53 427.329 C 1553.81 441.352 1562.01 454.472 1567.95 467.263 C 1584.21 502.833 1589.26 542.509 1582.43 581.018 C 1617.62 544.01 1645.84 515.847 1659 464.417 C 1677.81 501.318 1683.97 565.153 1675.89 605.477 C 1666.18 653.885 1645.76 701.739 1621.93 744.72 C 1627.35 748.639 1632.84 752.458 1638.39 756.175 C 1647.5 746.666 1656.78 737.411 1665.89 727.882 C 1676.59 716.685 1688.29 701.678 1700.41 692.488 C 1695.97 739.774 1698.75 750.526 1709.65 795.627 C 1723.84 854.369 1705.66 925.812 1674.68 976.457 C 1671.4 981.937 1667.52 987.506 1664.36 993.002 C 1695.73 982.977 1717.59 968.767 1732.78 938.933 C 1735.98 932.647 1739.62 924.353 1742.91 918.377 C 1744.38 941.494 1746.86 965.918 1741.18 988.591 C 1736.98 1005.36 1729.9 1030.36 1720.62 1044.96 C 1712.48 1052.76 1702.02 1070.91 1690.69 1081.76 C 1657.38 1113.64 1603.69 1147.51 1557.22 1148.28 C 1610.55 1118.63 1653.59 1079.03 1674.48 1020.36 C 1647.08 1029.46 1618.19 1033.2 1589.37 1031.37 C 1596.82 1024.99 1609.02 1016.33 1617.12 1010.24 C 1621.95 1001.74 1627.78 990.463 1633.17 982.611 C 1641.9 969.897 1650.1 959.611 1657.69 945.884 C 1665.71 920.388 1666.86 904.728 1660.88 878.208 C 1645.51 898.317 1615.49 925.072 1591.97 935.181 C 1622.18 911.793 1648.98 858.925 1663.51 823.949 C 1646.35 841.388 1626.88 852.139 1605.47 863.611 C 1579.8 877.361 1566.25 875.892 1547.02 899.207 C 1565.7 891.067 1588.97 885.385 1608.93 879.852 C 1579.83 916.613 1552.91 938.937 1514.84 966.33 C 1500.18 976.88 1485.73 985.638 1471.31 996.787 C 1460.45 1009.61 1444.63 1016.6 1433.02 1028.46 C 1424.52 1037.15 1418.92 1048.14 1414.48 1059.33 C 1413.35 1062.25 1408.52 1070.2 1408.3 1072.01 L 1405.24 1071.43 C 1399.65 1069.85 1385.64 1069.3 1375.97 1066.77 C 1382.75 1058.54 1387.01 1048.86 1392.72 1039.79 C 1398.17 1031.13 1403.91 1022.82 1409.7 1014.38 L 1406.4 1012.47 C 1398.98 1011.9 1370.52 1023.15 1360.7 1026.1 C 1361.44 1021.47 1361.8 1017.57 1362.22 1012.93 L 1360.97 1014.37 C 1359.72 1015.8 1358.5 1017.11 1356.99 1018.1 C 1349.14 1023.27 1351.85 1042.97 1349.48 1051.34 C 1347.85 1057.09 1343.26 1067.16 1340.74 1073.06 L 1339.59 1072.69 C 1341.57 1063.05 1344.67 1052.72 1346.24 1043.13 C 1349 1026.37 1351.04 1008.88 1353.02 991.986 C 1351.24 994.158 1344.09 1015.72 1341.59 1020.68 C 1314.86 1073.66 1250.09 1110.97 1195.8 1127.34 C 1241.63 1081.97 1275.65 1021.66 1286.11 957.724 C 1297.68 981.715 1299.37 993.343 1300.69 1019.14 C 1335.58 967.658 1344.8 927.846 1350.79 867.602 C 1373.24 889.499 1372.36 928.321 1367.45 957.141 C 1387.84 938.145 1391.79 922.135 1399.45 895.872 C 1400 907.709 1403.04 920.309 1403.77 932.69 C 1404.82 950.216 1401.74 963.395 1399.6 980.545 C 1412.7 968.366 1428.42 957.62 1442.74 943.772 C 1482.83 905.01 1497.73 862.286 1506.38 808.3 C 1508.47 795.206 1508.48 782.317 1510.65 768.921 C 1511.81 773.438 1512.77 788.27 1513.3 793.726 C 1524.68 785.57 1536.88 778.31 1548.27 769.98 C 1577.6 748.411 1603.12 722.102 1623.79 692.137 C 1644.43 661.626 1646.37 628.963 1639.4 593.439 L 1638.78 594.847 C 1621.26 634.263 1586.27 672.416 1549.37 694.859 C 1531.4 705.792 1509.46 714.667 1489.69 722.248 C 1493.4 710.681 1498.12 707.744 1504.11 697.211 C 1507.28 691.627 1510.56 685.199 1513.58 679.461 C 1507.22 680.191 1500.74 681.678 1494.45 682.963 C 1504.55 673.991 1517.17 666.881 1526.5 657.442 C 1541.14 642.642 1552.94 626.867 1560.08 607.318 C 1559.89 573.848 1558.84 549.674 1528.04 530.609 C 1525.97 495.736 1521.02 484.644 1493.31 463.299 C 1501.33 449.876 1524.17 427.556 1522.75 410.162 C 1500.99 431.24 1455.56 449.903 1425.4 452.574 C 1429.71 446.313 1438.15 427.128 1437.74 419.682 L 1436.34 417.963 C 1433.43 419.055 1424.24 426.295 1420.41 428.643 C 1406.25 437.307 1392.1 446.093 1377.98 454.832 C 1379.17 451.118 1380.98 447.335 1379.83 443.81 C 1377.37 440.915 1376.27 440.342 1373.21 438.233 C 1365.49 433.519 1359.94 429.992 1350.94 428.048 C 1339.11 444.48 1328.37 457.55 1315.02 472.749 C 1308.38 480.305 1301.61 491.361 1294.95 498.822 C 1290.63 499.269 1279.09 498.839 1274.23 498.778 C 1279.64 491.735 1310.51 449.363 1310.13 444.656 C 1303.76 446.682 1292.99 449.864 1287.08 452.44 L 1284.19 449.939 L 1293.11 438.245 C 1308.2 422.782 1329.19 388.142 1336.79 368.63 C 1268.24 401.76 1209.63 424.423 1153.31 478.732 C 1157.17 468.798 1160.98 458.844 1164.74 448.871 C 1168 442.359 1171.17 425.518 1172.71 417.745 L 1179.6 407.23 C 1124.18 422.701 1104.01 431.373 1057.12 465.848 C 1056.99 462.848 1057.39 464.102 1057.95 461.565 C 1070.16 406.523 1107.6 363.733 1157.39 338.746 C 1162.69 336.091 1172.59 325.947 1177.44 324.323 L 1178.79 326.312 C 1179.52 335.424 1171.94 352.414 1168.24 361.053 L 1169.08 362.644 L 1169.52 361.106 C 1171.96 360.602 1173.86 360.131 1176.11 360.132 C 1188.25 360.138 1244.17 340.339 1250.43 333.984 z"/><path transform="translate(0,0)" fill="rgb(1,5,33)" d="M 1169.08 362.644 C 1208.73 365.233 1232.36 365.468 1269.44 347.807 C 1308.69 329.109 1334.77 296.257 1349 255.29 C 1348.3 263.955 1348.07 270.893 1347.99 279.602 C 1348.27 286.991 1347.77 294.415 1347.55 301.806 C 1346.36 340.657 1349.66 378.682 1345.57 417.492 C 1343.72 418.564 1310.7 443.965 1310.13 444.656 C 1303.76 446.682 1292.99 449.864 1287.08 452.44 L 1284.19 449.939 L 1293.11 438.245 C 1308.2 422.782 1329.19 388.142 1336.79 368.63 C 1268.24 401.76 1209.63 424.423 1153.31 478.732 C 1157.17 468.798 1160.98 458.844 1164.74 448.871 C 1168 442.359 1171.17 425.518 1172.71 417.745 L 1179.6 407.23 C 1124.18 422.701 1104.01 431.373 1057.12 465.848 C 1056.99 462.848 1057.39 464.102 1057.95 461.565 C 1070.16 406.523 1107.6 363.733 1157.39 338.746 C 1162.69 336.091 1172.59 325.947 1177.44 324.323 L 1178.79 326.312 C 1179.52 335.424 1171.94 352.414 1168.24 361.053 L 1169.08 362.644 z"/><path transform="translate(0,0)" fill="rgb(156,23,0)" d="M 1347.99 279.602 C 1350.51 289.018 1355.83 297.649 1358.63 306.834 C 1368.42 338.923 1369.99 385.853 1353.28 416.229 C 1352.24 418.102 1351.14 419.945 1349.99 421.755 C 1362.77 410.782 1365.66 404.872 1375.34 390.916 C 1383.24 379.425 1391.5 368.186 1400.11 357.217 C 1419.31 332.675 1430.39 321.774 1461.3 315.728 C 1444.42 334.183 1444.89 341.708 1432.58 361.011 C 1421.94 377.684 1407.2 393.846 1396.27 412.133 C 1390.8 421.286 1385.84 434.05 1381.52 440.549 C 1378.59 439.515 1376.26 437.986 1373.21 438.233 C 1365.49 433.519 1359.94 429.992 1350.94 428.048 C 1339.11 444.48 1328.37 457.55 1315.02 472.749 C 1308.38 480.305 1301.61 491.361 1294.95 498.822 C 1290.63 499.269 1279.09 498.839 1274.23 498.778 C 1279.64 491.735 1310.51 449.363 1310.13 444.656 C 1310.7 443.965 1343.72 418.564 1345.57 417.492 C 1349.66 378.682 1346.36 340.657 1347.55 301.806 C 1347.77 294.415 1348.27 286.991 1347.99 279.602 z"/><path transform="translate(0,0)" fill="rgb(156,23,0)" d="M 1509.16 938.023 L 1511.14 939.302 C 1506.33 948.254 1499.11 956.229 1494.25 964.228 C 1490.17 970.932 1471.85 991.857 1471.31 996.787 C 1460.45 1009.61 1444.63 1016.6 1433.02 1028.46 C 1424.52 1037.15 1418.92 1048.14 1414.48 1059.33 C 1413.35 1062.25 1408.52 1070.2 1408.3 1072.01 L 1405.24 1071.43 C 1399.65 1069.85 1385.64 1069.3 1375.97 1066.77 C 1382.75 1058.54 1387.01 1048.86 1392.72 1039.79 C 1398.17 1031.13 1403.91 1022.82 1409.7 1014.38 C 1421.17 1000.07 1441.09 995.257 1453.61 985.658 C 1467.69 974.863 1499.01 950.628 1509.16 938.023 z"/><path transform="translate(0,0)" fill="rgb(156,23,0)" d="M 1540.2 395.573 C 1535.82 409.855 1534.07 420.159 1525.62 433.245 C 1520.88 440.571 1504.7 456.831 1504.25 463.736 L 1505.71 464.709 C 1514.03 462.848 1519.4 456.339 1524.84 450.011 C 1539.75 478.62 1554.75 498.702 1555.9 532.784 C 1556.09 538.553 1557.28 554.805 1561.81 559.408 C 1576.26 574.074 1566.8 597.176 1560.08 607.318 C 1559.89 573.848 1558.84 549.674 1528.04 530.609 C 1525.97 495.736 1521.02 484.644 1493.31 463.299 C 1501.33 449.876 1524.17 427.556 1522.75 410.162 C 1529.04 404.711 1533.48 400.696 1540.2 395.573 z"/><path transform="translate(0,0)" fill="rgb(156,23,0)" d="M 1688.29 919.62 C 1681.43 951.371 1673.34 970.982 1645.72 990.293 C 1636.32 996.86 1628.48 1006.94 1617.12 1010.24 C 1621.95 1001.74 1627.78 990.463 1633.17 982.611 C 1641.9 969.897 1650.1 959.611 1657.69 945.884 L 1659.04 946.147 C 1668.89 937.411 1678.64 928.568 1688.29 919.62 z"/><path transform="translate(0,0)" fill="rgb(254,129,0)" d="M 1353.02 991.986 C 1356.57 983.243 1352.85 965.674 1361.14 959.525 L 1363.06 959.638 C 1364.91 963.563 1362.86 1005.95 1362.22 1012.93 L 1360.97 1014.37 C 1359.72 1015.8 1358.5 1017.11 1356.99 1018.1 C 1349.14 1023.27 1351.85 1042.97 1349.48 1051.34 C 1347.85 1057.09 1343.26 1067.16 1340.74 1073.06 L 1339.59 1072.69 C 1341.57 1063.05 1344.67 1052.72 1346.24 1043.13 C 1349 1026.37 1351.04 1008.88 1353.02 991.986 z"/><path transform="translate(0,0)" fill="rgb(140,18,0)" d="M 1509.16 938.023 C 1513.01 932.928 1514.56 930.798 1520.05 927.509 L 1511.14 939.302 L 1509.16 938.023 z"/><path transform="translate(0,0)" fill="rgb(254,129,0)" d="M 1596.31 764.169 C 1602.31 779.721 1600.08 802.705 1596.61 818.723 C 1588.72 855.231 1568.71 877.729 1530.64 880.578 C 1534.52 875.136 1548.54 853.82 1551.25 847.99 C 1558.49 838.847 1565.15 826.063 1569.42 815.217 C 1571.95 815.48 1574.29 816.287 1575.99 814.037 C 1585.21 801.811 1590.63 777.633 1596.31 764.169 z"/><path transform="translate(0,0)" fill="rgb(156,23,0)" d="M 1551.13 785.346 C 1561.28 776.219 1570.12 771.02 1580.4 760.339 C 1578.37 785.238 1577.1 791.865 1569.42 815.217 C 1565.15 826.063 1558.49 838.847 1551.25 847.99 C 1551.29 845.935 1552.37 839.669 1552.62 836.817 C 1554.43 815.34 1556.07 806.185 1551.13 785.346 z"/><path transform="translate(0,0)" fill="rgb(156,23,0)" d="M 1580.68 635.041 C 1580.65 635.633 1580.62 636.225 1580.59 636.817 C 1570.33 658.64 1554.58 676.121 1534.2 689.021 C 1530.39 691.43 1529.04 692.063 1526.1 691.307 C 1525.22 687.531 1525.83 688.099 1527.55 683.683 L 1534.2 670.338 C 1529.85 671.765 1524.32 674.032 1520.17 672.183 L 1520.24 670.592 C 1522.85 667.921 1533.24 664.55 1538.1 661.48 C 1552.06 652.674 1566.97 644.108 1580.68 635.041 z"/><path transform="translate(0,0)" fill="rgb(37,55,108)" d="M 831.573 562.264 L 832.982 561.246 C 839.115 556.771 845.18 551.569 850.738 546.392 C 881.28 517.947 920.189 508.059 957.791 493.824 C 944.838 505.601 918.265 538.039 907.205 552.962 L 906.635 557.136 C 913.784 563.4 917.986 551.771 927.28 558.623 C 933.343 554.444 952.792 543.013 959.149 542.017 L 957.735 545.113 C 939.014 562.1 932.603 598.526 933.13 622.678 C 947.918 601.452 950.009 597.488 969.049 580.356 C 981.47 578.291 988.273 573.591 999.147 570.348 C 1028.49 561.596 1059.32 550.089 1090.17 551.065 C 1067.73 560.349 1063.22 569.056 1044.75 579.946 C 1103.97 568.03 1142.97 567.287 1201.12 581.169 C 1181.95 585.134 1173.02 588.794 1155.3 597.112 C 1162.58 595.702 1167.07 594.425 1174.46 595.263 L 1176.4 595.467 C 1215.79 599.81 1306.88 621.56 1330.33 654.235 C 1303.55 646.798 1298.41 645.708 1270.11 644.96 C 1302.29 662.192 1308.5 663.714 1333.64 691.296 C 1311.61 684.676 1294.44 686.38 1271.63 688.72 C 1291.82 700.309 1309.62 710.283 1324.96 728.377 C 1331.27 735.817 1336.63 743.772 1342.76 750.973 C 1326.26 739.015 1312.28 734.236 1292.19 731.519 C 1297.7 740.308 1305.73 754.279 1308.71 764.245 C 1307.59 766.381 1306.69 767.471 1307.25 770.063 C 1318.77 822.892 1321.62 866.488 1312.8 920.624 C 1303.74 874.534 1287.8 857.416 1260.06 823.92 L 1260.47 825.354 C 1265.8 843.645 1291.54 889.567 1281.2 908.678 L 1280 908.575 C 1263.95 880.481 1250.8 858.189 1228.85 833.287 C 1221.4 824.846 1204.91 813.967 1199.51 806.168 C 1209.58 808.104 1219.46 806.856 1229.42 805.216 C 1213.94 791.941 1203.57 780.507 1189.43 766.173 C 1191.18 764.235 1199.39 758.117 1202.37 755.488 C 1219.87 740.015 1228.88 724.232 1234.9 701.672 C 1229.66 691.225 1229.88 692.411 1218.82 687.07 C 1219.23 686.457 1243.62 682.144 1246.31 681.525 C 1250.91 679.206 1249.84 676.446 1250.24 671.553 L 1252.55 669.575 C 1256.12 666.682 1262.32 659.38 1266.1 655.549 C 1257.94 655.812 1252.88 659.64 1246.23 659.901 C 1236.55 660.279 1225.73 659.214 1215.73 659.01 C 1228.45 652.31 1236.91 648.301 1250.6 644.055 C 1237.75 643.866 1224.04 645.731 1211.17 645.413 C 1201.27 646.142 1187.11 642.4 1177.84 644.736 C 1135.53 655.396 1091.01 686.172 1057.18 712.281 C 1021.64 694.79 1022.9 701.25 989.004 696.366 C 992.925 679.666 998.038 667.59 1008.96 654.083 C 1008.18 650.513 1008.2 648.677 1006.31 645.722 C 997.169 648.263 978.289 672.872 974.195 681.663 C 972.39 659.839 969.989 640.259 986.941 623.158 C 962.003 632.775 964.937 640.728 951.676 659.588 C 949.405 651.989 942.563 625.294 938.315 621.658 C 936.45 622.888 934.662 624.918 934.539 627.206 C 933.444 647.594 927.479 668.959 925.94 688.987 C 917.315 673.838 920.583 665.931 913.825 655.011 C 912.917 662.612 913.607 671.915 912.175 678.307 C 911.819 679.984 912.267 679.378 911.002 680.239 C 908.456 675.353 907.364 674.475 905.263 669.065 L 905.973 669.262 L 906.992 671.774 L 906.941 666.111 C 899.82 654.626 874.825 631.31 862.835 625.576 L 861.015 626.221 C 859.798 635.162 871.521 655.492 870.368 661.89 C 868.428 660.064 867.96 658.989 865.746 658.469 C 851.743 663.535 860.641 664.292 853.399 672.113 C 856.926 679.829 858.776 683.917 861.123 691.976 C 842.299 691.755 825.081 698.269 808.506 706.735 C 779.484 683.749 770.225 658.696 728.598 646.935 C 721.115 647.032 703.245 645.331 695.042 644.812 C 691.296 642.181 663.615 638.417 657.574 637.591 C 701.786 601.497 736.104 591.237 792.95 591.604 C 791.437 590.972 789.933 590.32 788.438 589.648 C 775.223 583.684 755.838 570.499 766.281 554.258 C 784.608 525.756 831.005 514.553 861.898 506.254 C 849.245 522.036 838.027 543.082 831.573 562.264 z"/><path transform="translate(0,0)" fill="rgb(245,55,0)" d="M 1019.1 669.24 C 1046.58 644.04 1067.72 632.038 1103.55 623.774 C 1088.31 635.719 1077.46 644.933 1064.7 659.525 C 1102.11 638.953 1172.68 620.657 1211.17 645.413 C 1201.27 646.142 1187.11 642.4 1177.84 644.736 C 1135.53 655.396 1091.01 686.172 1057.18 712.281 C 1021.64 694.79 1022.9 701.25 989.004 696.366 C 992.925 679.666 998.038 667.59 1008.96 654.083 C 1017.78 644.471 1021.46 642.327 1033.46 639.01 C 1028.33 648.478 1023.62 659.378 1019.1 669.24 z"/><path transform="translate(0,0)" fill="rgb(245,55,0)" d="M 813.893 632.622 C 835.511 639.135 842.662 654.16 853.399 672.113 C 856.926 679.829 858.776 683.917 861.123 691.976 C 842.299 691.755 825.081 698.269 808.506 706.735 C 779.484 683.749 770.225 658.696 728.598 646.935 C 750.468 643.228 785.038 641.409 805.598 650.355 C 816.443 655.074 824.058 660.875 832.9 668.558 C 824.202 654.687 821.22 646.169 813.893 632.622 z"/><path transform="translate(0,0)" fill="rgb(245,55,0)" d="M 927.28 558.623 C 921.986 562.347 901.694 576.199 896.366 573.08 C 895.875 566.949 903.338 558.329 907.205 552.962 L 906.635 557.136 C 913.784 563.4 917.986 551.771 927.28 558.623 z"/><path transform="translate(0,0)" fill="rgb(25,42,94)" d="M 1266.1 655.549 C 1270.74 655.697 1270.91 654.861 1273.49 657.214 C 1273.53 659.834 1272.99 661.892 1271.06 663.68 C 1264.03 670.154 1261.41 671.992 1252.55 669.575 C 1256.12 666.682 1262.32 659.38 1266.1 655.549 z"/><path transform="translate(0,0)" fill="rgb(13,25,65)" d="M 1246.31 681.525 C 1250.91 679.206 1249.84 676.446 1250.24 671.553 C 1256.94 674.136 1258.92 675.73 1264.5 680.021 C 1258.63 681.255 1252.04 683.23 1246.31 681.525 z"/><path transform="translate(0,0)" fill="rgb(13,25,65)" d="M 912.175 678.307 C 912.419 670.083 910.054 652.508 910.369 650.124 C 912.973 651.366 912.317 651.551 913.825 655.011 C 912.917 662.612 913.607 671.915 912.175 678.307 z"/><path transform="translate(0,0)" fill="rgb(245,55,0)" d="M 627.492 1212.62 C 653.223 1228.44 673.732 1239.96 701.872 1251.53 C 714.925 1256.9 732.96 1262.32 744.612 1267.77 C 714.441 1268.15 679.115 1274.16 649.006 1279.13 C 621.559 1283.67 587.838 1288.77 560.895 1295.02 C 566.333 1308.24 573.631 1321.47 579.803 1334.44 C 533.146 1340.4 485.889 1344.57 438.711 1350.64 L 367.909 1359.74 C 357.647 1361.08 342.826 1363.74 333.179 1364.32 C 342.505 1394.49 353.437 1427.38 362.176 1457.48 C 365.192 1467.87 349.122 1518.45 345.527 1531.71 C 335.574 1568.88 325.434 1605.99 315.108 1643.05 C 306.957 1672.17 300.503 1701.28 286.028 1728.02 C 273.724 1750.75 262.294 1771.88 246.666 1792.53 C 444.859 1748.22 630.623 1715.75 832.1 1767.39 C 869.342 1776.94 926.209 1792.93 960.509 1809.6 C 988.026 1798.93 1014.13 1788.9 1042 1779.75 C 1209.02 1724.88 1384.59 1714.34 1558.99 1726.02 C 1573.19 1726.97 1588.96 1728.24 1603.27 1728.09 C 1638.13 1687.28 1667.26 1641.6 1686.09 1591.2 C 1673.43 1592.65 1659.11 1592.99 1645.99 1594.18 C 1655.09 1558.05 1665.1 1522.15 1676 1486.52 C 1680.28 1472.91 1686.25 1452.37 1692.89 1440.47 C 1714.15 1402.33 1744.02 1367.15 1769.24 1332.01 L 1459.15 1331.95 C 1471.34 1319.76 1496.54 1296.08 1506.79 1283.41 C 1463.16 1278.51 1425.23 1274.72 1381.25 1272.5 C 1370.2 1271.99 1359.13 1271.78 1348.06 1271.9 C 1342.57 1271.96 1335.23 1273.17 1330.38 1272.26 C 1332.8 1270.52 1342.98 1268.72 1346.24 1268.04 C 1372.66 1262.49 1419.47 1254.92 1445.59 1259.03 C 1478.76 1262.11 1510.8 1264.64 1543 1274.28 C 1530.92 1286.55 1514.87 1304.87 1503.16 1316.01 C 1575.2 1315.34 1647.59 1316.23 1719.61 1314.06 C 1747 1313.24 1783.57 1313.3 1810.29 1310.82 C 1782.43 1344.12 1756.09 1378.66 1731.36 1414.34 C 1723.32 1425.79 1708.3 1445.62 1703.74 1457.97 C 1689.69 1496.03 1680.57 1538.19 1668.09 1576.56 C 1683.3 1574.22 1699.68 1571.41 1714.88 1569.78 C 1694.32 1623.19 1671.03 1672.43 1635.02 1717.1 C 1626.97 1727.09 1618.24 1738.57 1609.06 1747.48 C 1417.04 1733.33 1237.4 1736.39 1052.02 1796.29 C 1028.63 1803.85 982.49 1819.44 961.355 1830.24 C 928.731 1817.9 903.778 1807.84 869.919 1797.5 C 698.163 1745.1 537.704 1752.76 363.514 1786.42 C 329.166 1793.27 294.912 1800.59 260.76 1808.36 C 243.65 1812.27 221.327 1818.23 204.688 1820.98 C 233.632 1783.98 261.65 1739.83 280.538 1696.58 C 285.076 1686.19 291.861 1660.65 295.187 1649 C 303.453 1619.65 311.555 1590.26 319.493 1560.82 L 336.61 1497.77 C 339.524 1487.09 344.038 1472.94 345.937 1462.42 C 333.179 1427.68 321.963 1383.45 308.139 1350.75 C 328.962 1346.37 354.163 1343.23 375.469 1340.42 C 404.506 1336.45 433.586 1332.81 462.704 1329.49 C 486.143 1326.74 529.356 1320.35 551.095 1320.12 C 545.177 1309.27 538.813 1297.09 532.521 1286.58 C 539.825 1284.2 554.924 1279.31 562.393 1277.82 C 566.18 1277.86 594.491 1271.73 600.742 1270.67 C 625.329 1266.51 650.553 1261.99 675.364 1259.28 C 659.601 1252.67 634.804 1241.92 620.782 1232.81 C 626.074 1227.95 621.84 1221.21 627.492 1212.62 z"/><path transform="translate(0,0)" fill="rgb(245,55,0)" d="M 1153.31 478.732 C 1209.63 424.423 1268.24 401.76 1336.79 368.63 C 1329.19 388.142 1308.2 422.782 1293.11 438.245 L 1284.19 449.939 L 1287.08 452.44 C 1292.99 449.864 1303.76 446.682 1310.13 444.656 C 1310.51 449.363 1279.64 491.735 1274.23 498.778 C 1279.09 498.839 1290.63 499.269 1294.95 498.822 C 1305.8 499.813 1310.91 500.511 1320.63 506.202 C 1357.28 487.239 1397.94 476.123 1437.43 488.36 C 1488.36 504.147 1509.51 558 1491.05 606.049 C 1482.18 629.136 1473.54 647.395 1459.1 667.13 C 1461.53 648.151 1467.32 628.832 1468.02 610.023 C 1468.26 599.71 1468.39 591.224 1467.03 581.006 C 1454.13 483.97 1346.25 506.426 1291.28 551.494 C 1285.57 554.64 1274.67 561.291 1268.48 557.329 C 1266.91 551.297 1281.55 528.025 1285.27 521.312 C 1211.51 517.147 1183.21 519.234 1111.74 548.612 C 1112.23 528.259 1118.37 508.556 1123.17 488.942 C 1122.92 488.382 1122.67 487.822 1122.42 487.263 C 1118.21 488.075 1084.09 519.206 1072.46 523.688 C 1060.03 528.483 1058.52 527.913 1045.33 530.649 C 1016.57 536.344 1000.13 550.997 978.672 570.088 C 975.538 573.46 972.274 577.109 969.049 580.356 C 950.009 597.488 947.918 601.452 933.13 622.678 C 932.603 598.526 939.014 562.1 957.735 545.113 C 958.865 547.496 958.32 546.758 960.231 548.472 C 967.416 548.484 971.556 538.357 977.027 534.945 C 991.113 525.743 1004.15 514.664 1018.91 506.624 C 1051.88 488.668 1086.29 487.607 1121.75 480.409 C 1131.25 466.231 1136.92 455.962 1147.52 441.519 C 1154.49 449.611 1154.44 448.92 1164.74 448.871 C 1160.98 458.844 1157.17 468.798 1153.31 478.732 z"/><path transform="translate(0,0)" fill="rgb(156,23,0)" d="M 1026.94 518.542 C 1035.71 520.457 1044.37 511.759 1049.66 520.896 C 1046.97 524.316 1045.6 525.966 1042.47 528.965 L 1042.36 530.239 L 1045.33 530.649 C 1016.57 536.344 1000.13 550.997 978.672 570.088 C 974.885 567.934 958.738 570.329 953.414 570.904 C 965.089 546.609 1001.96 524.845 1026.94 518.542 z"/><path transform="translate(0,0)" fill="rgb(254,129,0)" d="M 1275.31 460.748 C 1264.48 472.741 1250.92 479.133 1234.87 481.02 C 1228.27 481.796 1216.58 485.474 1215.17 476.672 C 1221.12 456.783 1258.22 441.314 1277.02 438.492 C 1280.99 437.896 1288.85 438.178 1293.11 438.245 L 1284.19 449.939 C 1281.25 453.469 1278.09 457.117 1275.31 460.748 z"/><path transform="translate(0,0)" fill="rgb(140,18,0)" d="M 1026.94 518.542 C 1034.2 516.092 1043.91 512.942 1051.58 512.718 L 1052.7 513.524 C 1051.63 517.007 1051.32 517.613 1049.66 520.896 C 1044.37 511.759 1035.71 520.457 1026.94 518.542 z"/><path transform="translate(0,0)" fill="rgb(46,9,4)" d="M 1284.19 449.939 L 1287.08 452.44 C 1284.2 454.445 1277.95 459.26 1275.31 460.748 C 1278.09 457.117 1281.25 453.469 1284.19 449.939 z"/><path transform="translate(0,0)" fill="rgb(37,55,108)" d="M 629.868 701.604 C 641.876 709.641 669.561 704.77 672.066 707.66 L 670.839 708.882 C 665.44 714.306 665.854 714.495 662.64 721.186 C 674.606 718.186 682.984 716.049 693.553 709.605 C 686.337 722.149 679.299 733.923 670.803 745.669 C 669.061 748.076 659.095 760.362 659.074 761.774 C 661.911 761.69 663.038 761.261 665.779 760.564 C 674.553 763.201 677.946 765.066 685.494 769.768 C 707.015 772.905 708.711 766.537 722.944 767.176 C 705.635 779.115 703.483 786.161 694.242 804.76 C 707.089 791.049 709.382 789.293 727.444 784.257 C 724.59 794.666 720.421 814.565 717.844 822.765 C 705.942 860.645 703.219 873.509 713.386 911.812 C 719.981 936.659 722.787 946.23 736.318 970.006 C 745.357 985.86 755.006 1001.36 765.244 1016.46 C 797.98 1065.45 804.026 1070.46 813.348 1129.75 C 800.991 1111.06 784.01 1090.85 769.27 1073.91 C 749.934 1051.7 735.089 1039.65 721.048 1013.29 L 723.642 1031.89 C 701.519 1002.47 691.174 986.767 682.782 950.807 C 681.877 956.9 680.433 972.474 675.083 975.507 C 666.072 971.096 659.856 931.263 658.384 921.167 C 652.873 883.372 667.813 845.468 675.03 808.69 C 615.958 858.666 623.255 937.396 643.103 1003.6 C 645.95 1013.09 656.81 1035.28 655.378 1043.62 C 627.141 1012.69 605.008 982.656 599.07 939.938 C 596.105 950.66 593.594 959.718 589.834 970.219 C 580.646 911.4 586.9 879.356 609.956 825.882 C 585.783 842.779 566.4 856.144 547.151 879.322 C 559.722 848.111 574.77 815.32 594.541 788.225 C 609.494 767.733 624.816 743.337 641.873 724.74 C 625.674 730.176 605.466 733.951 593.301 745.464 L 591.145 744.38 C 603.134 731.942 617.133 709.502 629.868 701.604 z"/><path transform="translate(0,0)" fill="rgb(245,55,0)" d="M 593.301 745.464 C 605.466 733.951 625.674 730.176 641.873 724.74 C 624.816 743.337 609.494 767.733 594.541 788.225 C 574.77 815.32 559.722 848.111 547.151 879.322 C 566.4 856.144 585.783 842.779 609.956 825.882 C 586.9 879.356 580.646 911.4 589.834 970.219 C 593.594 959.718 596.105 950.66 599.07 939.938 C 605.008 982.656 627.141 1012.69 655.378 1043.62 L 669.657 1057.47 C 665.374 1037.58 665.64 1019.1 665.793 998.957 C 672.49 1012.23 677.889 1028.7 684.696 1042.24 C 702.655 1077.96 732.821 1121.42 760.52 1150.27 C 735.779 1134.14 692.158 1107.98 673.381 1087.59 C 685.953 1147.53 704.966 1174.3 737.344 1224.81 C 727.578 1217.05 718.211 1209.31 708.979 1200.9 C 652.421 1149.41 618.616 1079.21 600.657 1005.9 C 599.501 1018.61 595.893 1032.7 594.767 1045.21 C 593.309 1061.41 593.969 1080.46 594.163 1096.94 C 567.104 1056.41 542.052 946.622 548.396 899.457 C 540.175 913.353 525.178 931.451 513.952 943.257 C 513.857 930.579 513.561 916.446 514.964 903.946 C 519.945 859.55 538.714 815.849 565.185 780.064 C 574.013 768.129 584.263 757.344 593.301 745.464 z"/><path transform="translate(0,0)" fill="rgb(245,55,0)" d="M 1270.11 644.96 C 1298.41 645.708 1303.55 646.798 1330.33 654.235 C 1333.36 655.551 1347.65 661.469 1350.04 662.958 C 1383.8 684.051 1424.73 717.036 1440.85 754.284 C 1444.94 763.717 1446.21 777.512 1446.33 787.114 C 1415.41 755.93 1393.6 747.065 1359.37 724.382 C 1391.91 774.679 1414.3 818.615 1425.86 877.597 C 1417.5 867.284 1410.65 854.67 1401.7 845.296 C 1373.72 815.996 1341.16 788.271 1308.71 764.245 C 1305.73 754.279 1297.7 740.308 1292.19 731.519 C 1312.28 734.236 1326.26 739.015 1342.76 750.973 C 1336.63 743.772 1331.27 735.817 1324.96 728.377 C 1309.62 710.283 1291.82 700.309 1271.63 688.72 C 1294.44 686.38 1311.61 684.676 1333.64 691.296 C 1308.5 663.714 1302.29 662.192 1270.11 644.96 z"/><path transform="translate(0,0)" fill="rgb(1,5,33)" d="M 420.921 1143.84 C 430.898 1148.04 470.339 1165.32 478.427 1158 C 477.7 1153.93 476.482 1153.85 473.142 1150.16 C 480.521 1154.29 499.105 1170.68 506.422 1176.93 C 515.845 1185.23 525.004 1196.93 533.806 1206.19 C 542.338 1215.17 550.728 1222.74 559.919 1230.96 L 562.595 1229.72 C 542.517 1202.19 531.511 1190.88 516.332 1159.12 C 518.342 1156.19 518.721 1156.08 521.392 1153.89 C 549.775 1184.71 583.372 1213.43 620.782 1232.81 C 634.804 1241.92 659.601 1252.67 675.364 1259.28 C 650.553 1261.99 625.329 1266.51 600.742 1270.67 C 594.491 1271.73 566.18 1277.86 562.393 1277.82 C 559.003 1274.74 528.565 1261.25 520.476 1255.98 C 472.436 1224.71 448.169 1191.89 420.921 1143.84 z"/><path transform="translate(0,0)" fill="rgb(245,55,0)" d="M 562.595 1229.72 C 566.351 1234.02 569.137 1236.94 572.104 1241.89 C 567.956 1238.3 563.803 1234.83 559.919 1230.96 L 562.595 1229.72 z"/><path transform="translate(0,0)" fill="url(#Gradient11)" d="M 1360.7 1026.1 C 1370.52 1023.15 1398.98 1011.9 1406.4 1012.47 L 1409.7 1014.38 C 1403.91 1022.82 1398.17 1031.13 1392.72 1039.79 C 1387.01 1048.86 1382.75 1058.54 1375.97 1066.77 C 1385.64 1069.3 1399.65 1069.85 1405.24 1071.43 L 1408.3 1072.01 C 1416.05 1071.19 1424.63 1067.94 1432.18 1065.47 C 1451.89 1073.88 1475.98 1032.65 1494.53 1063.97 C 1498.28 1060.13 1499.13 1058.31 1503.9 1057.17 C 1452.65 1109.07 1393.57 1125.45 1332.33 1162.3 C 1315.52 1172.41 1278.18 1199.23 1263.99 1205.52 C 1291.3 1177.94 1312.79 1145.15 1327.16 1109.1 C 1331.93 1096.86 1335.06 1084.54 1339.59 1072.69 L 1340.74 1073.06 C 1343.26 1067.16 1347.85 1057.09 1349.48 1051.34 C 1351.85 1042.97 1349.14 1023.27 1356.99 1018.1 C 1358.5 1017.11 1359.72 1015.8 1360.97 1014.37 L 1362.22 1012.93 C 1361.8 1017.57 1361.44 1021.47 1360.7 1026.1 z"/><path transform="translate(0,0)" fill="rgb(245,55,0)" d="M 1358.3 1100.79 C 1365.03 1090.57 1371.56 1071.87 1375.97 1066.77 C 1385.64 1069.3 1399.65 1069.85 1405.24 1071.43 C 1397.83 1088.78 1390.05 1087.32 1373.69 1092.83 C 1369.27 1094.32 1362.54 1098.34 1358.3 1100.79 z"/><path transform="translate(0,0)" fill="rgb(37,55,108)" d="M 1291.28 551.494 C 1346.25 506.426 1454.13 483.97 1467.03 581.006 C 1468.39 591.224 1468.26 599.71 1468.02 610.023 C 1462.09 605.485 1433.91 583.929 1429.3 582.674 C 1424.47 585.182 1417.72 592.589 1410.17 597.25 L 1408.72 598.141 L 1411.89 587.076 C 1414.67 574.88 1407.84 569.075 1417.92 559.674 C 1402.11 555.646 1404.08 549.845 1387.66 558.241 L 1377.97 563.205 C 1366.29 568.714 1355.39 575.559 1346.43 584.87 C 1335.69 586.071 1327.93 586.053 1317.16 585.931 C 1326.2 566.726 1329.12 559.273 1345.75 546.02 C 1333.64 545.697 1324.57 545.368 1312.48 547.387 C 1306.24 548.429 1296.61 551.504 1291.28 551.494 z"/><path transform="translate(0,0)" fill="rgb(13,25,65)" d="M 1417.92 559.674 C 1419.5 560.579 1421.3 560.998 1421.62 562.62 C 1423.47 571.924 1417.77 580.964 1411.89 587.076 C 1414.67 574.88 1407.84 569.075 1417.92 559.674 z"/><path transform="translate(0,0)" fill="rgb(254,129,0)" d="M 475.163 1004.67 C 481.834 1022.12 486.149 1039.29 493.031 1056.82 C 520.695 1127.26 566.924 1171.06 627.492 1212.62 C 621.84 1221.21 626.074 1227.95 620.782 1232.81 C 583.372 1213.43 549.775 1184.71 521.392 1153.89 C 518.721 1156.08 518.342 1156.19 516.332 1159.12 C 531.511 1190.88 542.517 1202.19 562.595 1229.72 L 559.919 1230.96 C 550.728 1222.74 542.338 1215.17 533.806 1206.19 C 525.004 1196.93 515.845 1185.23 506.422 1176.93 L 508.48 1173.85 C 497.004 1150.6 488.22 1123.61 481.392 1098.64 C 481.204 1096.61 480.645 1094.08 480.267 1092.03 C 479.946 1087.27 479.528 1085.59 478.329 1080.95 C 471.274 1054.65 470.041 1031.22 475.163 1004.67 z"/><path transform="translate(0,0)" fill="rgb(4,1,4)" d="M 503.745 1131.66 L 521.392 1153.89 C 518.721 1156.08 518.342 1156.19 516.332 1159.12 C 511.941 1150.06 507.745 1140.9 503.745 1131.66 z"/><path transform="translate(0,0)" fill="rgb(37,55,108)" d="M 566.338 567.159 C 570.509 553.556 573.915 544.629 582.512 533.131 C 609.675 496.802 663.444 490.607 699 518.149 C 710.942 527.399 721.121 546.591 722.514 561.869 C 708.223 547.618 689.272 529.267 670.323 521.019 C 657.133 515.276 617.138 518.73 606.162 527.453 C 595.574 535.869 626.751 559.743 633.249 564.524 C 615.807 556.572 603.887 553.644 585.982 547.595 C 587.714 568.787 591.146 576.378 609.09 588.156 C 604.111 586.959 599.328 585.975 594.68 583.739 C 585.245 579.2 576.239 568.983 566.338 567.159 z"/><path transform="translate(0,0)" fill="rgb(245,55,0)" d="M 1144.44 775.556 C 1160.98 771.539 1171 772.376 1189.43 766.173 C 1203.57 780.507 1213.94 791.941 1229.42 805.216 C 1219.46 806.856 1209.58 808.104 1199.51 806.168 C 1179.97 799.406 1161.27 787.504 1144.44 775.556 z"/><path transform="translate(0,0)" fill="rgb(254,129,0)" d="M 1432.18 1065.47 C 1441.65 1061.42 1453.5 1057.94 1463.56 1053.54 C 1495.81 1039.44 1514 1027.57 1538.34 1003.27 C 1530.46 1024.25 1519.09 1040.98 1503.9 1057.17 C 1499.13 1058.31 1498.28 1060.13 1494.53 1063.97 C 1475.98 1032.65 1451.89 1073.88 1432.18 1065.47 z"/><path transform="translate(0,0)" fill="rgb(156,23,0)" d="M 741.05 418.91 C 741.216 415.703 744.503 410.936 746.281 407.977 C 747.726 408.222 751.205 408.709 752.442 409.057 C 749.304 414.229 743.516 422.928 741.518 428.09 C 737.975 448.574 723.302 433.888 711.343 430.508 C 707.253 429.352 701.744 429.52 697.895 428.448 L 701 427.431 L 702.758 423.895 C 707.698 420.447 726.501 420.793 732.863 421.429 C 738.21 421.963 737.04 422.02 741.05 418.91 z"/><path transform="translate(0,0)" fill="rgb(25,42,94)" d="M 1346.43 584.87 C 1355.39 575.559 1366.29 568.714 1377.97 563.205 C 1377.58 568.937 1374.17 575.646 1371.76 581.024 L 1363.34 587.987 C 1356.65 586.351 1353.29 585.663 1346.43 584.87 z"/><path transform="translate(0,0)" fill="rgb(13,25,65)" d="M 1377.97 563.205 L 1387.66 558.241 C 1387.45 563.436 1387.27 568.479 1386.84 573.668 C 1383.67 575.259 1374.62 580.026 1371.76 581.024 C 1374.17 575.646 1377.58 568.937 1377.97 563.205 z"/><path transform="translate(0,0)" fill="rgb(13,25,65)" d="M 685.494 769.768 C 692.269 768.979 697.005 764.059 704.204 763.262 C 710.551 762.559 715.973 766.013 721.916 765.497 C 724.457 765.277 722.614 765.008 724.831 765.552 L 722.944 767.176 C 708.711 766.537 707.015 772.905 685.494 769.768 z"/><path transform="translate(0,0)" fill="url(#Gradient10)" d="M 397.785 1400.31 C 434.009 1395.08 474.816 1392.07 511.547 1387.8 C 531.087 1385.53 576.67 1379.81 594.307 1380.19 C 596.657 1382.38 596.052 1383.16 596.791 1387.12 C 599.02 1400.26 601.196 1415.37 603.804 1428.27 C 619.675 1427.63 636.995 1425.73 652.447 1425.8 C 655.066 1430.82 657.823 1435.89 660.114 1441.06 C 659.277 1451.26 656.858 1460.97 655.304 1470.85 C 650.729 1499.96 644.21 1507.77 614.714 1508.38 C 610.123 1521.04 608.343 1531.02 606.156 1544.35 C 617.896 1543.99 626.461 1543.5 638.244 1541.71 C 639.673 1545.24 641.233 1548.89 642.418 1552.49 C 637.17 1578.75 630.107 1617.19 623.4 1642.66 C 613.144 1644.19 599.856 1645.53 590.016 1647.49 C 585.009 1659.26 578.657 1675.31 571.393 1685.35 C 521.936 1693.94 471.932 1699.14 422.568 1708.93 C 398.569 1713.69 374.055 1716.43 350.082 1722.2 C 352.834 1711.26 360.846 1670.66 364.543 1663.33 C 366.453 1651.69 371.787 1628.54 375.149 1617.6 C 375.409 1612.94 382.27 1588.51 383.765 1582.13 L 406.06 1490.51 C 410.042 1474.24 415.182 1455.25 418.061 1438.93 C 412.734 1426.9 404.335 1411.73 397.785 1400.31 z"/><path transform="translate(0,0)" fill="url(#Gradient9)" d="M 596.791 1387.12 C 599.02 1400.26 601.196 1415.37 603.804 1428.27 C 619.675 1427.63 636.995 1425.73 652.447 1425.8 C 655.066 1430.82 657.823 1435.89 660.114 1441.06 C 659.277 1451.26 656.858 1460.97 655.304 1470.85 C 650.729 1499.96 644.21 1507.77 614.714 1508.38 C 610.123 1521.04 608.343 1531.02 606.156 1544.35 C 617.896 1543.99 626.461 1543.5 638.244 1541.71 C 639.673 1545.24 641.233 1548.89 642.418 1552.49 C 637.17 1578.75 630.107 1617.19 623.4 1642.66 C 613.144 1644.19 599.856 1645.53 590.016 1647.49 C 585.009 1659.26 578.657 1675.31 571.393 1685.35 C 521.936 1693.94 471.932 1699.14 422.568 1708.93 C 398.569 1713.69 374.055 1716.43 350.082 1722.2 C 352.834 1711.26 360.846 1670.66 364.543 1663.33 L 365.642 1664.3 C 366.436 1660.96 367.303 1657.64 368.24 1654.34 L 369.746 1653.62 L 371.993 1654.6 C 373.061 1657.53 371.912 1660.21 371.126 1663.39 L 372.292 1664.8 C 370.396 1678.33 364.839 1696.66 362.016 1711.25 C 409.885 1700.31 464.867 1694.08 513.591 1685.77 C 527.781 1683.34 555.82 1680.74 567.729 1677.58 C 573.41 1664.32 578.479 1651.61 586.08 1639.29 C 596.192 1638.25 606.275 1636.94 616.321 1635.38 C 622.549 1612 629.337 1576.25 633.221 1552.16 C 622.862 1551.95 613.592 1552.16 603.269 1552.49 C 599.774 1545.57 599.118 1540.31 599.948 1532.63 C 605.317 1482.94 620.504 1509.6 636.439 1495.86 C 644.081 1489.27 650.767 1455.74 650.938 1445.19 C 650.999 1441.43 650.473 1438.24 647.766 1435.48 C 640.688 1434.23 605.647 1436.78 596.265 1437.31 C 594.7 1420.93 592.561 1404.6 589.852 1388.37 C 590.924 1388.3 594.103 1388.6 595.347 1388.69 L 596.791 1387.12 z"/><path transform="translate(0,0)" fill="rgb(254,228,106)" d="M 397.785 1400.31 C 434.009 1395.08 474.816 1392.07 511.547 1387.8 C 531.087 1385.53 576.67 1379.81 594.307 1380.19 C 596.657 1382.38 596.052 1383.16 596.791 1387.12 L 595.347 1388.69 C 594.103 1388.6 590.924 1388.3 589.852 1388.37 C 583.006 1390.54 554.91 1392.08 545.427 1393.02 L 468.04 1401.38 C 451.97 1403.1 428.207 1405.19 412.888 1408.11 C 417.82 1417.68 422.831 1427.21 427.92 1436.69 C 425.428 1451.34 420.583 1468.9 416.977 1483.6 C 410.896 1509.02 404.614 1534.39 398.133 1559.72 C 394.485 1574.23 386.247 1612.98 381.714 1625.04 C 378.992 1626.72 378.594 1632.58 377.192 1637.09 L 374.781 1637.53 L 373.139 1636.32 C 372.119 1630.94 376.504 1625.9 375.149 1617.6 C 375.409 1612.94 382.27 1588.51 383.765 1582.13 L 406.06 1490.51 C 410.042 1474.24 415.182 1455.25 418.061 1438.93 C 412.734 1426.9 404.335 1411.73 397.785 1400.31 z"/><path transform="translate(0,0)" fill="rgb(252,191,51)" d="M 364.543 1663.33 C 366.453 1651.69 371.787 1628.54 375.149 1617.6 C 376.504 1625.9 372.119 1630.94 373.139 1636.32 L 374.781 1637.53 L 377.192 1637.09 C 378.594 1632.58 378.992 1626.72 381.714 1625.04 C 381.32 1629.3 373.974 1660.85 372.292 1664.8 L 371.126 1663.39 C 371.912 1660.21 373.061 1657.53 371.993 1654.6 L 369.746 1653.62 L 368.24 1654.34 C 367.303 1657.64 366.436 1660.96 365.642 1664.3 L 364.543 1663.33 z"/><path transform="translate(0,0)" fill="rgb(254,129,0)" d="M 538.115 1552.58 C 541.046 1552.34 555.715 1550.79 555.153 1555.42 C 553.029 1572.91 546.078 1622.04 538.155 1635.76 C 529.377 1641.37 480.585 1647.1 467.015 1649.24 C 462.307 1650.02 456.892 1650.54 452.101 1651.12 C 453.779 1640.03 470.105 1568.98 474.626 1561.54 C 480.318 1557.53 527.135 1553.76 538.115 1552.58 z"/><path transform="translate(0,0)" fill="rgb(1,5,33)" d="M 540.187 1560.4 C 543.57 1560 545.268 1559.63 547.538 1561.37 C 546.866 1568.22 543.969 1579.96 542.459 1586.98 C 539.365 1601.59 536.183 1616.17 532.914 1630.74 C 513.722 1634.5 492.541 1636.62 472.717 1640.25 C 469.407 1640.98 465.805 1642.22 463.002 1640.66 C 468.037 1616.54 474.483 1591.54 480.012 1567.37 C 495.423 1564.51 523.433 1562.26 540.187 1560.4 z"/><path transform="translate(0,0)" fill="rgb(254,129,0)" d="M 550.732 1440.43 C 558.524 1439.78 568.238 1440.01 576.192 1439.99 C 574.954 1453.5 567.7 1501.91 560.754 1511.95 C 554.342 1516.31 516.839 1518.67 506.239 1519.73 C 497.089 1520.64 489.485 1521.07 480.287 1521.37 C 484.805 1499.23 492.039 1467.93 498.421 1446.37 C 515.983 1445.06 532.884 1441.59 550.732 1440.43 z"/><path transform="translate(0,0)" fill="rgb(1,5,33)" d="M 567.006 1446.62 L 567.279 1446.89 C 568.011 1450.59 558.035 1498.12 556.549 1505.7 C 545.051 1508.46 505.071 1511.58 492.026 1512.5 C 490.704 1508.46 502.672 1462.78 504.568 1454.44 C 521.053 1450.69 550.167 1448.2 567.006 1446.62 z"/><path transform="translate(0,0)" fill="url(#Gradient8)" d="M 1454.88 1375.42 C 1529.73 1376.73 1604.57 1378.58 1679.39 1381 L 1669.5 1391.55 C 1658.69 1403.59 1631.1 1436.26 1618.93 1443.7 C 1588.68 1441.96 1552.21 1440.06 1521.99 1440.13 C 1518.47 1456.79 1514.91 1475.53 1510.86 1491.87 C 1514.26 1491.95 1522.29 1491.88 1525.18 1492.73 L 1610.56 1496.63 C 1607.33 1519.2 1604.19 1533.22 1584.84 1547.81 C 1583.45 1548.85 1582.04 1549.87 1580.61 1550.86 C 1562.03 1551.29 1523.14 1550.41 1504.52 1549.01 C 1498.97 1567.89 1495.93 1588.66 1490.75 1607.9 C 1531.28 1607.74 1573.94 1614.03 1614.98 1614.1 C 1604.88 1631.73 1583.91 1664.03 1568.04 1676.52 C 1508.42 1674.44 1442.26 1664.06 1381.4 1661.95 C 1382.37 1654.82 1390.58 1607.84 1392.7 1602.87 C 1393.82 1591.87 1400.22 1559.49 1403.25 1548.79 C 1404.47 1537.41 1426.87 1425.82 1429.71 1421.66 C 1429.95 1421.3 1430.22 1420.95 1430.47 1420.59 C 1439.08 1408.23 1450.93 1398.46 1460.04 1386.41 L 1461.12 1384.96 L 1454.88 1375.42 z"/><path transform="translate(0,0)" fill="url(#Gradient7)" d="M 1525.18 1492.73 L 1610.56 1496.63 C 1607.33 1519.2 1604.19 1533.22 1584.84 1547.81 C 1583.45 1548.85 1582.04 1549.87 1580.61 1550.86 C 1562.03 1551.29 1523.14 1550.41 1504.52 1549.01 C 1498.97 1567.89 1495.93 1588.66 1490.75 1607.9 C 1531.28 1607.74 1573.94 1614.03 1614.98 1614.1 C 1604.88 1631.73 1583.91 1664.03 1568.04 1676.52 C 1508.42 1674.44 1442.26 1664.06 1381.4 1661.95 C 1382.37 1654.82 1390.58 1607.84 1392.7 1602.87 C 1396.96 1596.77 1394.88 1588.14 1400.49 1581.34 L 1401.14 1581.19 C 1404.33 1588.55 1399.16 1594.51 1400.61 1603.4 C 1400.43 1609.27 1392.47 1645.51 1390.81 1654.3 L 1565.11 1667.96 C 1573.47 1660.95 1593.83 1633.27 1601.48 1623.2 C 1590.7 1621.17 1574.26 1620.68 1563.1 1620.08 L 1513.84 1617.17 C 1503.26 1616.53 1491.73 1616.25 1481.46 1613.89 C 1484.1 1598.34 1493.7 1552.5 1499.98 1540.66 L 1577.46 1543.47 C 1593.63 1533.12 1597.14 1521.83 1601.36 1504.49 C 1585.83 1503.49 1566.7 1503.82 1551.82 1502.14 C 1545.08 1502.32 1535.46 1501.39 1528.62 1500.85 L 1523.45 1499.25 L 1523.05 1498.25 C 1527 1497.22 1531.03 1497.58 1535.16 1497.64 L 1535.03 1496.07 C 1532.38 1493.84 1529.07 1494.38 1525.06 1493.79 L 1525.18 1492.73 z"/><path transform="translate(0,0)" fill="rgb(252,191,51)" d="M 1528.62 1500.85 L 1523.45 1499.25 L 1523.05 1498.25 C 1527 1497.22 1531.03 1497.58 1535.16 1497.64 C 1540.41 1498 1560.7 1497.96 1563.12 1499.75 L 1562.98 1498.85 L 1563.12 1499.73 L 1561.39 1500.84 L 1564.79 1501.41 C 1560.74 1501.61 1555.78 1501.71 1551.82 1502.14 C 1545.08 1502.32 1535.46 1501.39 1528.62 1500.85 z"/><path transform="translate(0,0)" fill="url(#Gradient6)" d="M 1454.88 1375.42 C 1529.73 1376.73 1604.57 1378.58 1679.39 1381 L 1669.5 1391.55 C 1665.71 1389.4 1665.43 1389.01 1661.23 1388.95 C 1600.12 1389.68 1534.96 1385.98 1473.46 1384.71 C 1464.55 1395.2 1445.61 1413.95 1439.21 1424.39 C 1431.32 1437.26 1418.33 1526.8 1411.11 1550.55 C 1407.92 1553.94 1407.4 1559.26 1406.93 1563.7 L 1406.79 1565.06 L 1405.7 1565.57 C 1399.1 1558.41 1405.75 1556.75 1403.25 1548.79 C 1404.47 1537.41 1426.87 1425.82 1429.71 1421.66 C 1429.95 1421.3 1430.22 1420.95 1430.47 1420.59 C 1439.08 1408.23 1450.93 1398.46 1460.04 1386.41 L 1461.12 1384.96 L 1454.88 1375.42 z"/><path transform="translate(0,0)" fill="rgb(254,129,0)" d="M 1661.23 1388.95 C 1665.43 1389.01 1665.71 1389.4 1669.5 1391.55 C 1658.69 1403.59 1631.1 1436.26 1618.93 1443.7 C 1588.68 1441.96 1552.21 1440.06 1521.99 1440.13 C 1518.47 1456.79 1514.91 1475.53 1510.86 1491.87 C 1514.26 1491.95 1522.29 1491.88 1525.18 1492.73 L 1525.06 1493.79 C 1529.07 1494.38 1532.38 1493.84 1535.03 1496.07 L 1535.16 1497.64 C 1531.03 1497.58 1527 1497.22 1523.05 1498.25 L 1523.45 1499.25 L 1528.62 1500.85 L 1501.3 1499.93 C 1502.78 1487.88 1511.89 1443.01 1515.44 1432.9 C 1527.41 1431.27 1546.37 1432.52 1559.05 1433 C 1578.55 1433.83 1598.06 1434.36 1617.57 1434.59 C 1621.72 1431.75 1625.17 1428.08 1628.6 1424.42 C 1639.59 1412.66 1651.32 1401.62 1662.65 1390.24 L 1661.23 1388.95 z"/><path transform="translate(0,0)" fill="rgb(252,191,51)" d="M 1403.25 1548.79 C 1405.75 1556.75 1399.1 1558.41 1405.7 1565.57 L 1406.79 1565.06 L 1406.93 1563.7 C 1407.4 1559.26 1407.92 1553.94 1411.11 1550.55 C 1408 1568.24 1404.5 1585.86 1400.61 1603.4 C 1399.16 1594.51 1404.33 1588.55 1401.14 1581.19 L 1400.49 1581.34 C 1394.88 1588.14 1396.96 1596.77 1392.7 1602.87 C 1393.82 1591.87 1400.22 1559.49 1403.25 1548.79 z"/><path transform="translate(0,0)" fill="url(#Gradient5)" d="M 931.472 1409.91 C 948.405 1410.24 965.539 1408.91 982.472 1408.57 C 1019.96 1407.81 1056.49 1405.97 1094.03 1405.76 C 1095.62 1408.17 1096.91 1443.01 1097.36 1449.1 C 1102.56 1514.81 1108.15 1580.5 1114.12 1646.14 C 1096.9 1646.04 1079.68 1646.13 1062.46 1646.4 C 1051.13 1646.66 1034.85 1647.62 1023.86 1647.06 C 1024.04 1631.88 1024.94 1617.19 1025.83 1602.03 C 1009.21 1601.91 964.102 1603.65 948.086 1605.8 C 941.006 1620.11 933.741 1635.96 926.493 1649.97 C 900.464 1650.6 874.013 1653.62 848.004 1655.33 C 842.513 1655.68 836.919 1656.3 831.487 1657.17 C 833.24 1653.16 834.895 1648.78 837.352 1645.2 C 847.493 1625.27 864.371 1591.82 876.522 1573.98 C 877.541 1570.75 894.164 1541.59 897.249 1536.07 C 915.108 1504.61 932.574 1472.93 949.643 1441.04 C 943.185 1431.02 937.346 1420.31 931.472 1409.91 z"/><path transform="translate(0,0)" fill="url(#Gradient4)" d="M 1094.03 1405.76 C 1095.62 1408.17 1096.91 1443.01 1097.36 1449.1 C 1102.56 1514.81 1108.15 1580.5 1114.12 1646.14 C 1096.9 1646.04 1079.68 1646.13 1062.46 1646.4 C 1051.13 1646.66 1034.85 1647.62 1023.86 1647.06 C 1024.04 1631.88 1024.94 1617.19 1025.83 1602.03 C 1009.21 1601.91 964.102 1603.65 948.086 1605.8 C 941.006 1620.11 933.741 1635.96 926.493 1649.97 C 900.464 1650.6 874.013 1653.62 848.004 1655.33 C 842.513 1655.68 836.919 1656.3 831.487 1657.17 C 833.24 1653.16 834.895 1648.78 837.352 1645.2 L 839.014 1646.59 C 841.253 1646.33 843.282 1645.45 845.133 1645.39 C 845.403 1646.29 845.153 1645.65 846.443 1646.97 C 870.68 1645.83 896.465 1643.5 920.818 1641.8 C 926.206 1632.25 939.072 1598.14 948.29 1597.55 C 959.315 1596.84 1026.28 1591.79 1031.72 1595.3 C 1034.52 1602.73 1032.38 1629.44 1032.09 1639.06 C 1056.81 1637.94 1080.59 1637.84 1105.34 1637.71 C 1099.46 1576.94 1094.19 1516.11 1089.53 1455.23 C 1089.07 1449.27 1087.99 1416.13 1086.28 1413.48 C 1089.18 1409.96 1090.55 1408.75 1094.03 1405.76 z"/><path transform="translate(0,0)" fill="rgb(254,228,106)" d="M 931.472 1409.91 C 948.405 1410.24 965.539 1408.91 982.472 1408.57 C 1019.96 1407.81 1056.49 1405.97 1094.03 1405.76 C 1090.55 1408.75 1089.18 1409.96 1086.28 1413.48 C 1044.16 1418.11 990.431 1416.75 947.287 1418.64 C 951.367 1426.65 955.091 1432.86 959.802 1440.55 C 938.41 1483.02 913.644 1524.29 890.606 1565.9 C 888.236 1570.18 885.221 1576.1 882.409 1579.98 C 879.611 1587.02 849.98 1638.4 845.133 1645.39 C 843.282 1645.45 841.253 1646.33 839.014 1646.59 L 837.352 1645.2 C 847.493 1625.27 864.371 1591.82 876.522 1573.98 C 877.541 1570.75 894.164 1541.59 897.249 1536.07 C 915.108 1504.61 932.574 1472.93 949.643 1441.04 C 943.185 1431.02 937.346 1420.31 931.472 1409.91 z"/><path transform="translate(0,0)" fill="rgb(252,191,51)" d="M 837.352 1645.2 C 847.493 1625.27 864.371 1591.82 876.522 1573.98 C 877.063 1581.49 862.333 1599.43 860.52 1608.66 L 861.337 1609.27 C 868.647 1604.39 875.469 1588.44 880.731 1579.59 L 882.409 1579.98 C 879.611 1587.02 849.98 1638.4 845.133 1645.39 C 843.282 1645.45 841.253 1646.33 839.014 1646.59 L 837.352 1645.2 z"/><path transform="translate(0,0)" fill="rgb(1,5,33)" d="M 1019.23 1451.61 L 1025.64 1440.42 C 1025.93 1470.95 1027.65 1507.05 1027.13 1536.8 C 1028.18 1550.45 1028.96 1553.47 1022.46 1565.88 C 1019.28 1567.55 960.449 1567.97 951.881 1567.93 C 963.616 1542.95 1000.99 1468.44 1019.23 1451.61 z"/><path transform="translate(0,0)" fill="rgb(254,129,0)" d="M 951.881 1567.93 C 963.616 1542.95 1000.99 1468.44 1019.23 1451.61 C 1018.76 1455.21 1018.18 1459.07 1017.85 1462.66 C 1001.93 1488.24 979.406 1532.44 964.757 1560.36 C 976.184 1558.88 984.614 1558.3 996.052 1558.18 C 1001.05 1558.12 1015.43 1558.29 1019.52 1557.41 C 1020.54 1554.92 1020.47 1555.08 1020.45 1552.36 C 1020.84 1555.92 1021.03 1563.35 1022.46 1565.88 C 1019.28 1567.55 960.449 1567.97 951.881 1567.93 z"/><path transform="translate(0,0)" fill="rgb(254,228,106)" d="M 1019.23 1451.61 L 1025.64 1440.42 C 1025.93 1470.95 1027.65 1507.05 1027.13 1536.8 C 1028.18 1550.45 1028.96 1553.47 1022.46 1565.88 C 1021.03 1563.35 1020.84 1555.92 1020.45 1552.36 L 1020.15 1548.62 C 1018.51 1519.99 1017.74 1491.33 1017.85 1462.66 C 1018.18 1459.07 1018.76 1455.21 1019.23 1451.61 z"/><path transform="translate(0,0)" fill="rgb(252,191,51)" d="M 1027.13 1536.8 C 1028.18 1550.45 1028.96 1553.47 1022.46 1565.88 C 1021.03 1563.35 1020.84 1555.92 1020.45 1552.36 L 1020.15 1548.62 C 1023.09 1550.35 1021.57 1550.15 1024.65 1550.03 C 1027.27 1546.36 1026.76 1541.86 1027.13 1536.8 z"/><path transform="translate(0,0)" fill="url(#Gradient3)" d="M 1160.14 1405.96 C 1228.16 1405.96 1295.65 1405.93 1363.61 1409.1 C 1372.88 1409.53 1382.23 1410.08 1391.5 1410.12 L 1379.9 1424.52 C 1356.89 1454.2 1333.72 1483.75 1310.4 1513.19 C 1289.41 1540.34 1268.22 1567.32 1246.82 1594.15 C 1282.84 1597.06 1319.47 1597.48 1355.63 1600.1 C 1347.8 1617.28 1336.26 1638.96 1326.97 1655.66 C 1289.65 1652.05 1251.09 1651.89 1213.63 1649.3 C 1187.05 1647.46 1159.84 1648.35 1133.35 1645.95 C 1135.49 1639.2 1136.55 1634.87 1137.99 1627.92 C 1138.04 1625.98 1138.23 1621.94 1139.21 1620.41 C 1148.17 1606.35 1165.59 1583.97 1176.57 1571.94 C 1178.9 1567.39 1189.3 1555.31 1193.32 1550.45 C 1217.78 1520.92 1240.7 1489.09 1265.78 1460.23 C 1244.62 1459.41 1222.95 1460.03 1201.75 1459.98 C 1195.96 1459.96 1190.35 1460.42 1184.6 1459.65 L 1183.41 1458.05 C 1178 1447.02 1171.73 1430.83 1166.89 1419.12 L 1160.14 1405.96 z"/><path transform="translate(0,0)" fill="url(#Gradient2)" d="M 1375.12 1418.09 C 1375.47 1422.54 1375.59 1422.3 1379.9 1424.52 C 1356.89 1454.2 1333.72 1483.75 1310.4 1513.19 C 1289.41 1540.34 1268.22 1567.32 1246.82 1594.15 C 1282.84 1597.06 1319.47 1597.48 1355.63 1600.1 C 1347.8 1617.28 1336.26 1638.96 1326.97 1655.66 C 1289.65 1652.05 1251.09 1651.89 1213.63 1649.3 C 1187.05 1647.46 1159.84 1648.35 1133.35 1645.95 C 1135.49 1639.2 1136.55 1634.87 1137.99 1627.92 L 1138.07 1629.18 C 1138.39 1635.12 1138.11 1637.11 1137.31 1642.93 C 1139.12 1640.96 1139.46 1638.58 1140.21 1635.95 L 1141.14 1637.49 C 1145.05 1640.32 1265.15 1641.93 1280.83 1644.49 C 1286.45 1645.41 1316.27 1646.14 1322.89 1646.09 C 1328.88 1633.69 1337.07 1620.49 1343.61 1607.8 C 1321.34 1605.41 1295.54 1605.54 1272.98 1604.07 C 1262.58 1603.4 1244.17 1603.91 1234.82 1601.36 L 1234.61 1599.37 C 1239.03 1588.7 1280.26 1538.5 1290.26 1525.69 C 1317.59 1490.69 1346.17 1451.38 1375.12 1418.09 z"/><path transform="translate(0,0)" fill="rgb(254,228,106)" d="M 1160.14 1405.96 C 1228.16 1405.96 1295.65 1405.93 1363.61 1409.1 C 1372.88 1409.53 1382.23 1410.08 1391.5 1410.12 L 1379.9 1424.52 C 1375.59 1422.3 1375.47 1422.54 1375.12 1418.09 C 1334.2 1418.3 1292.41 1415.07 1251.42 1415.36 C 1225.64 1415.55 1198.96 1413.39 1173.27 1414.35 L 1172.37 1416.22 L 1170.46 1415.2 L 1167.91 1416.18 C 1167.96 1418.17 1167.8 1417.25 1168.32 1418.96 L 1166.89 1419.12 L 1160.14 1405.96 z"/><path transform="translate(0,0)" fill="rgb(254,228,106)" d="M 1280.3 1452.2 L 1280.91 1453.96 C 1275.29 1462.03 1269.25 1469.92 1263.11 1477.59 C 1236.56 1510.74 1210.51 1545.02 1182.73 1577.12 C 1179.4 1579.44 1176.63 1582.73 1173.52 1582.84 C 1173.22 1578.86 1175.07 1575.97 1176.57 1571.94 C 1178.9 1567.39 1189.3 1555.31 1193.32 1550.45 C 1217.78 1520.92 1240.7 1489.09 1265.78 1460.23 C 1266.33 1459.46 1266.88 1458.69 1267.45 1457.93 C 1271.55 1452.54 1273.4 1453.07 1280.3 1452.2 z"/><path transform="translate(0,0)" fill="rgb(254,129,0)" d="M 1188.49 1449.99 C 1196.21 1452.83 1267.61 1451.07 1280.3 1452.2 C 1273.4 1453.07 1271.55 1452.54 1267.45 1457.93 C 1266.88 1458.69 1266.33 1459.46 1265.78 1460.23 C 1244.62 1459.41 1222.95 1460.03 1201.75 1459.98 C 1195.96 1459.96 1190.35 1460.42 1184.6 1459.65 L 1183.41 1458.05 C 1186.51 1455.55 1187.02 1453.64 1188.49 1449.99 z"/><path transform="translate(0,0)" fill="rgb(252,191,51)" d="M 1137.99 1627.92 C 1138.04 1625.98 1138.23 1621.94 1139.21 1620.41 C 1148.17 1606.35 1165.59 1583.97 1176.57 1571.94 C 1175.07 1575.97 1173.22 1578.86 1173.52 1582.84 C 1176.63 1582.73 1179.4 1579.44 1182.73 1577.12 C 1171.83 1592.85 1145.2 1621.11 1140.21 1635.95 C 1139.46 1638.58 1139.12 1640.96 1137.31 1642.93 C 1138.11 1637.11 1138.39 1635.12 1138.07 1629.18 L 1137.99 1627.92 z"/><path transform="translate(0,0)" fill="rgb(252,191,51)" d="M 1166.89 1419.12 L 1168.32 1418.96 C 1167.8 1417.25 1167.96 1418.17 1167.91 1416.18 L 1170.46 1415.2 L 1172.37 1416.22 L 1173.27 1414.35 C 1178.85 1426.57 1183.92 1437.35 1188.49 1449.99 C 1187.02 1453.64 1186.51 1455.55 1183.41 1458.05 C 1178 1447.02 1171.73 1430.83 1166.89 1419.12 z"/><path transform="translate(0,0)" fill="url(#Gradient1)" d="M 786.74 1420.65 L 790.574 1420.24 L 791.987 1421.39 C 791.161 1431.09 784.579 1461.12 782.379 1473.05 L 757.59 1604.18 L 813.26 1599.63 C 823.821 1598.8 839.161 1598.06 848.943 1596.05 C 836.723 1616.74 824.204 1636.86 812.35 1657.78 C 765.613 1662.47 699.432 1668.9 653.641 1677.92 C 655.084 1668.62 660.867 1628.61 663.288 1621.88 C 663.255 1616.42 673.075 1564.14 674.63 1559.17 C 676.239 1546.01 679.627 1530.16 682.05 1516.83 L 694.243 1448.67 C 689.651 1441.19 685.142 1433.66 680.714 1426.09 C 710.034 1426.26 756.722 1422.69 786.74 1420.65 z"/><path transform="translate(0,0)" fill="rgb(254,129,0)" d="M 786.74 1420.65 L 790.574 1420.24 L 791.987 1421.39 C 791.161 1431.09 784.579 1461.12 782.379 1473.05 L 757.59 1604.18 L 813.26 1599.63 C 823.821 1598.8 839.161 1598.06 848.943 1596.05 C 836.723 1616.74 824.204 1636.86 812.35 1657.78 C 765.613 1662.47 699.432 1668.9 653.641 1677.92 C 655.084 1668.62 660.867 1628.61 663.288 1621.88 L 664.782 1620.95 C 665.653 1616.38 667.269 1604.62 669.296 1601.59 L 670.865 1601.62 C 674.799 1607.81 667.653 1621.9 669.978 1624.58 L 670.639 1624.12 C 669.995 1633.88 665.667 1656.35 663.907 1667.05 C 688.549 1663.93 713.15 1660.71 737.776 1657.53 C 760.885 1654.55 784.652 1652.86 807.719 1649.6 C 816.549 1634.02 824.022 1621.82 833.71 1606.62 C 821.97 1606.85 753.251 1613.97 749.031 1610.97 C 748.082 1607.08 759.974 1542.99 762.327 1534.19 C 770.21 1504.7 772.459 1454.98 784.85 1429.3 C 784.724 1425.07 785.076 1424.69 786.74 1420.65 z"/><path transform="translate(0,0)" fill="rgb(254,228,106)" d="M 680.714 1426.09 C 710.034 1426.26 756.722 1422.69 786.74 1420.65 C 785.076 1424.69 784.724 1425.07 784.85 1429.3 C 760.047 1428.91 722.909 1433.87 695.666 1434.38 L 703.42 1446.47 C 700.185 1470.88 694.564 1497.68 690.094 1522.02 C 688.176 1532.46 684.435 1554.4 681.684 1564.09 C 680.448 1578.59 673.733 1608.62 670.639 1624.12 L 669.978 1624.58 C 667.653 1621.9 674.799 1607.81 670.865 1601.62 L 669.296 1601.59 C 667.269 1604.62 665.653 1616.38 664.782 1620.95 L 663.288 1621.88 C 663.255 1616.42 673.075 1564.14 674.63 1559.17 C 676.239 1546.01 679.627 1530.16 682.05 1516.83 L 694.243 1448.67 C 689.651 1441.19 685.142 1433.66 680.714 1426.09 z"/><path transform="translate(0,0)" fill="rgb(252,191,51)" d="M 674.63 1559.17 L 675.669 1560.58 C 674.516 1568.08 673.499 1576.01 671.544 1583.31 C 669.945 1589.28 670.036 1589.24 674.55 1593.46 C 675.371 1592.08 679.501 1567.56 680.194 1564.45 L 681.684 1564.09 C 680.448 1578.59 673.733 1608.62 670.639 1624.12 L 669.978 1624.58 C 667.653 1621.9 674.799 1607.81 670.865 1601.62 L 669.296 1601.59 C 667.269 1604.62 665.653 1616.38 664.782 1620.95 L 663.288 1621.88 C 663.255 1616.42 673.075 1564.14 674.63 1559.17 z"/><path transform="translate(0,0)" fill="rgb(245,55,0)" d="M 985.662 715.463 C 1032.93 728.255 1109.65 767.488 1125.66 817.986 C 1105.64 791.357 1096.89 790.261 1065.9 780.119 C 1109.81 817.164 1097.3 842.831 1113.1 895.467 C 1100.78 891.075 1083.72 881.736 1071.19 875.746 L 1071.73 882.735 C 1096.95 906.302 1105.38 919.485 1097.15 954.895 C 1091.9 941.406 1086.93 927.091 1077.74 915.702 C 1049.45 880.674 969.236 874.672 965.185 868.674 L 968.107 867.938 L 968.173 865.358 L 918.962 860.752 C 896.068 858.493 886.368 857.936 863.137 860.3 C 867.168 858.841 884.937 852.198 887.605 852.403 C 946.887 856.975 1019.37 861.823 999.359 775.172 C 997.846 767.631 997.006 762.597 992.726 755.983 C 986.623 741.681 976.782 739.669 969.124 723.416 C 975.571 719.477 978.208 717.973 985.662 715.463 z"/><path transform="translate(0,0)" fill="rgb(4,1,4)" d="M 1071.73 882.735 C 1061.28 873.35 1049.83 870.235 1039.42 862.695 L 1040.12 862.259 C 1052.12 865.471 1060.29 870.056 1071.19 875.746 L 1071.73 882.735 z"/><path transform="translate(0,0)" fill="rgb(46,9,4)" d="M 968.173 865.358 C 971.7 865.825 974.629 865.77 977.511 867.548 C 973.69 868.56 972.142 868.202 968.107 867.938 L 968.173 865.358 z"/><path transform="translate(0,0)" fill="rgb(245,55,0)" d="M 1068.14 1186.91 C 1073.44 1110.56 1051.51 1093.96 1104.01 1022.76 C 1105.11 1050.51 1104.43 1074.86 1107.78 1103.07 C 1111.16 1131.49 1116.75 1160.53 1115.78 1188.97 C 1114.78 1202.32 1106.62 1225.85 1102 1239.14 C 1101.99 1224.91 1101.77 1211.24 1103.44 1197.07 C 1102.82 1194.66 1102.22 1193.48 1101.27 1191.21 C 1093.08 1228.89 1074.53 1272.07 1040.81 1293.6 L 1033.16 1298.44 C 1019.53 1293.18 974.129 1278.97 960.297 1278.39 C 925.66 1276.95 869.059 1292.66 838.006 1272.11 C 822.758 1262.03 811.261 1219.8 805.57 1202.1 C 798.225 1199.77 798.769 1194.49 797.991 1187.89 L 802.339 1183.77 L 803.79 1183.11 C 812.29 1198.24 813.938 1206.03 825.74 1219.96 C 842.736 1244.12 863.364 1254.28 892.323 1259.68 C 902.83 1261.64 932.056 1263.57 942.406 1261.65 C 944.522 1260.13 943.912 1260.82 945.176 1258.45 C 938.676 1254.18 935.692 1251.98 929.825 1246.9 C 935.791 1248.57 941.977 1250.41 948.078 1251.64 C 1013.3 1264.75 1052.86 1262.09 1068.14 1186.91 z"/><path transform="translate(0,0)" fill="rgb(254,228,106)" d="M 1068.14 1186.91 C 1073.13 1209.99 1060.81 1268.26 1032.6 1273.61 C 1014.32 1277.09 983.33 1267.16 964.681 1263.31 C 959.864 1262.25 948.801 1258.54 945.176 1258.45 C 938.676 1254.18 935.692 1251.98 929.825 1246.9 C 935.791 1248.57 941.977 1250.41 948.078 1251.64 C 1013.3 1264.75 1052.86 1262.09 1068.14 1186.91 z"/><path transform="translate(0,0)" fill="rgb(25,42,94)" d="M 802.339 1183.77 C 803.307 1188.95 805.062 1197.14 805.57 1202.1 C 798.225 1199.77 798.769 1194.49 797.991 1187.89 L 802.339 1183.77 z"/><path transform="translate(0,0)" fill="rgb(26,2,2)" d="M 1101.27 1191.21 C 1101.8 1187.82 1101.51 1186.85 1103.28 1184.14 C 1104.39 1188.51 1104.13 1192.59 1103.44 1197.07 C 1102.82 1194.66 1102.22 1193.48 1101.27 1191.21 z"/><path transform="translate(0,0)" fill="rgb(156,23,0)" d="M 907.484 1015.82 L 908.368 1016.85 C 907.625 1052.2 915.883 1074.62 925.43 1108.19 C 928.236 1083.93 945.242 1051.5 967.89 1040.24 C 990.08 1029.21 1005.71 1035.42 1016.58 1057.26 C 1013.63 1078.45 1006.28 1098.78 996.95 1117.96 C 986.878 1137.85 972.961 1161.63 951.394 1170.44 C 938.292 1166.87 927.27 1160.85 915.598 1157.31 C 910.13 1155.66 887.778 1156.39 879.609 1155.91 C 859.17 1123.93 866.41 1076.34 884.033 1044.52 C 890.371 1033.08 898.364 1024.97 907.484 1015.82 z"/><path transform="translate(0,0)" fill="rgb(254,228,106)" d="M 743.274 912.34 C 739.112 893.869 737.185 863.51 738.534 844.971 C 741.624 802.501 764.159 770.472 795.913 743.537 C 793.191 752.942 790.847 764.011 788.146 773.84 C 785.783 809.674 776.045 850.677 829.064 853.643 C 838.886 854.192 847.113 852.809 856.859 851.435 C 842.105 867.816 792.172 892.045 769.849 901.725 C 766.64 903.987 762.04 908.599 759.038 911.426 L 763.829 897.456 C 760.67 894.439 760.476 894.388 756.369 892.704 C 751.046 899.245 747.571 905.111 743.274 912.34 z"/><path transform="translate(0,0)" fill="rgb(245,55,0)" d="M 764.177 874.231 C 759.694 835.821 767.09 805.816 788.146 773.84 C 785.783 809.674 776.045 850.677 829.064 853.643 C 838.886 854.192 847.113 852.809 856.859 851.435 C 842.105 867.816 792.172 892.045 769.849 901.725 C 774.045 896.334 792.525 869.563 782.222 865.546 C 775.45 866.343 770.074 870.543 764.177 874.231 z"/><path transform="translate(0,0)" fill="rgb(4,1,4)" d="M 756.369 892.704 C 761.953 886.572 768.502 882.258 775.378 877.663 C 770.424 884.92 767.384 889.348 763.829 897.456 C 760.67 894.439 760.476 894.388 756.369 892.704 z"/><path transform="translate(0,0)" fill="rgb(245,55,0)" d="M 642.219 1718.29 C 672.628 1712.84 705.727 1709.64 736.586 1706.58 C 802.378 1699.91 868.391 1695.65 934.494 1693.79 C 1066.96 1689.08 1192.62 1686.7 1324.9 1703.43 C 1328.19 1703.81 1327.24 1703.06 1329.06 1704.78 L 1329.42 1704.15 L 1329.95 1705.14 C 1324.19 1706.51 1301.51 1706.26 1295.54 1705.13 C 1209.34 1702.37 1123.08 1701.94 1036.86 1703.84 C 970.992 1704.45 905.144 1706.42 839.357 1709.73 C 776.451 1712.76 708.904 1714.24 646.344 1720.75 C 636.138 1721.92 631.891 1722.13 621.562 1721.65 C 628.41 1720.31 635.3 1719.19 642.219 1718.29 z"/><path transform="translate(0,0)" fill="rgb(222,48,1)" d="M 1324.9 1703.43 C 1328.19 1703.81 1327.24 1703.06 1329.06 1704.78 L 1329.42 1704.15 L 1329.95 1705.14 C 1324.19 1706.51 1301.51 1706.26 1295.54 1705.13 C 1303.63 1704.16 1320.1 1706.7 1324.9 1703.43 z"/><path transform="translate(0,0)" fill="rgb(254,254,254)" d="M 1354.22 1306.21 C 1368.75 1305.12 1381.89 1304.96 1395.37 1311.38 C 1420.19 1323.21 1420.73 1356.31 1398.56 1371.11 C 1391.5 1375.82 1387.46 1376.99 1379.42 1379.23 C 1305.89 1390.82 1298.91 1318.36 1354.22 1306.21 z"/><path transform="translate(0,0)" fill="rgb(1,5,33)" d="M 1365.23 1325.2 C 1392.12 1327.58 1389.48 1353.79 1369.15 1360.03 C 1341.41 1360.87 1344.01 1330.54 1365.23 1325.2 z"/><path transform="translate(0,0)" fill="rgb(37,55,108)" d="M 808.36 747.385 C 828.343 724.093 849.793 713.332 880.496 710.75 C 917.66 707.624 945.714 717.348 973.917 740.583 C 979.77 743.059 986.926 752.069 992.726 755.983 C 997.006 762.597 997.846 767.631 999.359 775.172 C 987.42 762.609 980.624 749.231 961.582 744.789 C 946.427 741.254 928.631 744.59 915.416 752.502 C 898.687 762.518 893.538 801.099 889.684 820.037 C 886.991 800.244 888.6 776.173 880.142 757.688 C 870.499 736.613 848.599 740.851 830.575 744.661 C 824.333 746.728 811.459 751.89 806.026 752.919 L 804.864 752.228 C 805.775 749.307 805.917 749.792 808.36 747.385 z"/><path transform="translate(0,0)" fill="rgb(254,254,254)" d="M 808.36 747.385 C 828.343 724.093 849.793 713.332 880.496 710.75 C 917.66 707.624 945.714 717.348 973.917 740.583 C 969.761 741.656 949.51 734.959 942.789 733.906 C 914.069 729.408 840.547 726.292 816.912 743.192 C 814.386 744.768 811.177 747.235 808.36 747.385 z"/><path transform="translate(0,0)" fill="rgb(25,42,94)" d="M 816.912 743.192 C 819.056 743.854 819.189 743.869 821.074 745.225 C 823.922 744.951 825.488 744.925 828.248 743.997 L 830.575 744.661 C 824.333 746.728 811.459 751.89 806.026 752.919 L 804.864 752.228 C 805.775 749.307 805.917 749.792 808.36 747.385 C 811.177 747.235 814.386 744.768 816.912 743.192 z"/><path transform="translate(0,0)" fill="rgb(37,55,108)" d="M 1142.16 980.823 C 1143.48 988.237 1144.08 999.976 1144.73 1007.86 C 1147.86 1007.89 1150.88 1007.02 1152.76 1009.78 C 1156.54 1001.12 1158.49 994.469 1160.3 985.292 C 1170.36 1023.92 1178.51 1061.24 1167.05 1100.59 C 1165.71 1105.22 1165.59 1110.54 1162.51 1114.36 L 1161.08 1114.42 C 1159.88 1109.46 1160.79 1102.23 1161.13 1096.92 C 1153.13 1114.44 1149.2 1118.91 1143.1 1138.45 C 1138.12 1105.07 1132.44 1076.23 1119.96 1044.85 C 1118.55 1041.32 1118.59 1036.54 1120.31 1033.2 C 1121.7 1030.49 1118.32 1025.5 1116.96 1022.83 C 1135.55 1011.54 1136.02 1000.7 1142.16 980.823 z"/><path transform="translate(0,0)" fill="rgb(4,1,4)" d="M 1144.73 1007.86 C 1147.86 1007.89 1150.88 1007.02 1152.76 1009.78 C 1150.87 1015.15 1148.56 1020.08 1146.24 1025.28 C 1145.52 1019.62 1145.17 1013.58 1144.73 1007.86 z"/><path transform="translate(0,0)" fill="rgb(254,254,254)" d="M 816.543 1312.55 L 817.358 1312.45 C 817.696 1312.95 818.035 1313.45 818.373 1313.94 C 816.559 1334.88 812.941 1366.07 811.369 1385.95 C 801.808 1385.98 792.248 1386.12 782.691 1386.36 C 783.768 1377.87 784.353 1368.54 785.061 1359.96 C 776.106 1359.94 767.152 1360.08 758.202 1360.39 L 755.828 1387.95 C 746.452 1388.47 737.611 1388.94 728.255 1389.97 L 727.603 1389.42 C 726.017 1385.3 733.193 1325.4 734.211 1315.98 C 743.31 1314.91 753.183 1314.98 762.399 1314.83 C 761.924 1323.93 761.178 1333.01 760.163 1342.07 C 769.068 1342.04 777.97 1341.85 786.868 1341.52 C 787.744 1332.18 788.075 1323.6 789.197 1314.12 L 816.543 1312.55 z"/><path transform="translate(0,0)" fill="rgb(254,254,254)" d="M 1273.76 1366.14 C 1272.73 1366.78 1271.68 1367.4 1270.62 1367.99 C 1253.12 1377.61 1233.35 1381.12 1213.93 1375.63 C 1179.93 1366.1 1181.4 1322.5 1211.41 1308.75 C 1227.87 1301.2 1259.62 1299.1 1272.77 1314.09 C 1275.45 1317.14 1277.43 1321.85 1279.06 1325.58 C 1272.68 1326.59 1266.05 1327.45 1259.63 1328.37 C 1246.88 1328.88 1252.25 1325.97 1243.55 1323.06 C 1218.35 1314.64 1204.8 1361.94 1237.87 1357.83 C 1241.37 1357.4 1246.83 1356.01 1248.53 1352.52 C 1246.2 1346.98 1237.18 1348.6 1231.88 1348.79 C 1232.08 1344.2 1232.21 1339.37 1232.56 1334.82 C 1243.97 1335.21 1253.16 1335.26 1264.57 1334.89 C 1267.35 1335.27 1274.4 1335.09 1277.52 1335.1 C 1275.94 1345.6 1274.29 1355.51 1273.76 1366.14 z"/><path transform="translate(0,0)" fill="rgb(37,55,108)" d="M 1165.51 806.243 L 1166.01 806.321 C 1182.89 808.73 1201.65 828.517 1210.91 841.772 C 1233.63 874.29 1244.11 912.17 1246.37 951.402 C 1246.93 961.097 1248.12 972.779 1246.44 982.299 C 1228.06 935.018 1204.72 897.687 1179.87 853.688 C 1172.06 839.863 1162.16 822.414 1165.51 806.243 z"/><path transform="translate(0,0)" fill="rgb(254,254,254)" d="M 656.39 1320.37 C 677.405 1318.32 693.271 1323.49 702.119 1343.72 L 673.555 1347.97 C 644.661 1316.87 622.125 1382.53 660.986 1375.3 C 666.205 1374.33 670.828 1368.21 673.125 1363.63 C 679.709 1363.99 686.628 1364.14 693.247 1364.38 L 700.295 1364.73 L 701.196 1365.96 C 700.042 1370.94 698.293 1375.03 695.059 1379.17 C 680.095 1398.29 640.867 1401.59 621.858 1387.52 C 606.792 1376.36 608.126 1350.46 619.683 1337.18 C 629.922 1325.41 641.629 1321.95 656.39 1320.37 z"/><path transform="translate(0,0)" fill="rgb(254,254,254)" d="M 982.883 1307.39 C 1006.25 1305.78 1023.12 1310.2 1032.68 1333.44 L 1002.82 1336.17 C 999.654 1330.67 994.309 1325.34 987.616 1325.9 C 965.983 1327.72 961.004 1365.23 988.171 1362.02 C 993.95 1361.33 997.888 1357.74 1001.17 1353.2 C 1007.19 1353.74 1013.35 1353.82 1019.4 1354 L 1031.56 1354.05 C 1023.26 1370.79 1017.52 1376.49 997.087 1380.98 C 958.683 1389.41 922.604 1362.58 948.114 1323.06 C 954.807 1312.7 970.147 1308.78 982.883 1307.39 z"/><path transform="translate(0,0)" fill="rgb(254,254,254)" d="M 1105.51 1306.44 C 1113.29 1305.96 1122.47 1306.06 1130.36 1305.95 C 1140.09 1329.22 1149.65 1352.56 1159.05 1375.96 C 1148.86 1376 1138.68 1376.13 1128.5 1376.35 L 1125.02 1363.96 L 1114.41 1363.96 L 1097.07 1364.04 L 1091.73 1377.09 C 1082.43 1377.14 1071.54 1377.83 1062.03 1378.13 C 1074.46 1355.37 1085.1 1331.18 1098.01 1308.67 C 1099.26 1306.48 1103.14 1306.71 1105.51 1306.44 z"/><path transform="translate(0,0)" fill="rgb(4,1,4)" d="M 1112.45 1325.7 C 1115.38 1328.5 1119.82 1343.42 1118.36 1347.79 L 1114.25 1348.02 C 1110.96 1348.22 1109.26 1348.57 1106.08 1347.59 L 1104.92 1345.4 C 1104.93 1341.39 1110.45 1330.6 1112.45 1325.7 z"/><path transform="translate(0,0)" fill="rgb(254,254,254)" d="M 833.109 913.585 C 836.43 917.801 837.502 918.806 838.554 923.911 C 837.976 930.243 837.493 935.968 836.437 942.249 C 832.45 953.751 818.336 1025.93 817.554 1037.05 C 793 1001.11 788.771 969.407 784.073 927.487 C 799.51 920.591 816.569 916.858 833.109 913.585 z"/><path transform="translate(0,0)" fill="rgb(254,254,254)" d="M 988.068 915.531 C 989.636 913.794 990.279 912.234 992.686 912.477 C 1003.74 913.59 1034.68 923.323 1043.24 928.866 C 1038.52 964.493 1032.88 1006.15 1012.85 1036.8 C 1007.76 1013.22 1004.07 989.581 999.037 966.029 C 998.047 961.394 994.842 944.564 993.389 941.077 C 990.546 941.478 988.406 941.292 986.562 938.976 C 985.267 932.404 984 927.332 982.22 920.864 L 988.068 915.531 z"/><path transform="translate(0,0)" fill="rgb(4,1,4)" d="M 988.068 915.531 C 989.737 923.435 992.113 933.265 993.389 941.077 C 990.546 941.478 988.406 941.292 986.562 938.976 C 985.267 932.404 984 927.332 982.22 920.864 L 988.068 915.531 z"/><path transform="translate(0,0)" fill="rgb(245,55,0)" d="M 1354.89 1179.29 C 1362.75 1178.73 1381.57 1178.8 1383.45 1189.12 C 1352.29 1194.92 1339.15 1203.54 1311.21 1218.72 C 1317.97 1218.87 1345.13 1219.63 1345.49 1228.36 C 1339.42 1231.99 1327.45 1236.17 1320.51 1238.96 C 1309.24 1243.44 1298.22 1248.5 1287.48 1254.14 L 1280.9 1257.75 C 1272.06 1262.57 1252.46 1274.3 1242.73 1271.44 C 1246.32 1265.5 1253.87 1257.29 1258.16 1251.23 C 1281.64 1218.09 1313.43 1186.77 1354.89 1179.29 z"/><path transform="translate(0,0)" fill="rgb(254,129,0)" d="M 1556.15 1074.66 L 1557.02 1074.91 L 1557.59 1076.23 C 1535.14 1129.72 1493.05 1158.98 1439.33 1176.12 C 1427.21 1179.99 1415.84 1184.58 1403.36 1187.74 L 1402.17 1187.62 L 1402.38 1186.56 C 1411.42 1182.35 1431.95 1168.07 1441.13 1162.23 C 1482.88 1135.67 1521.55 1110.53 1556.15 1074.66 z"/><path transform="translate(0,0)" fill="rgb(254,254,254)" d="M 1025.09 1117.84 C 1027.65 1121.53 1031.14 1129.77 1032.41 1134.24 C 1042.86 1171 1037.69 1199.03 999.321 1213.6 C 993.657 1212.3 990.243 1192 987.72 1185.03 C 1017.14 1161.58 1016.77 1154.42 1024.69 1119.59 L 1025.09 1117.84 z"/><path transform="translate(0,0)" fill="rgb(254,254,254)" d="M 986.562 938.976 C 982.041 954.924 944.411 956.443 934.055 945.86 C 931.013 940.137 925.814 907.27 935.398 905.62 C 947.467 903.543 975.245 908.637 982.22 920.864 C 984 927.332 985.267 932.404 986.562 938.976 z"/><path transform="translate(0,0)" fill="rgb(254,254,254)" d="M 851.159 911.042 C 860.184 907.637 882.039 901.631 891.126 905.654 C 895.71 912.069 890.74 929.92 891.26 938.708 C 892.224 955.006 850.065 955.821 844.344 945.229 C 842.143 944.395 841.859 944.381 839.577 944.32 L 837.635 944.282 L 836.437 942.249 C 837.493 935.968 837.976 930.243 838.554 923.911 C 841.152 924.043 839.941 923.776 842.204 924.631 C 842.77 924.002 843.336 923.373 843.902 922.744 C 844.432 924.506 844.392 924.02 844.37 924.64 C 846.677 918.677 847.384 916.418 851.159 911.042 z"/><path transform="translate(0,0)" fill="rgb(4,1,4)" d="M 838.554 923.911 C 841.152 924.043 839.941 923.776 842.204 924.631 C 842.77 924.002 843.336 923.373 843.902 922.744 C 844.432 924.506 844.392 924.02 844.37 924.64 C 843.866 932.81 843.852 937.062 844.344 945.229 C 842.143 944.395 841.859 944.381 839.577 944.32 L 837.635 944.282 L 836.437 942.249 C 837.493 935.968 837.976 930.243 838.554 923.911 z"/><path transform="translate(0,0)" fill="rgb(254,254,254)" d="M 864.341 1310.33 C 873.431 1309.87 884.093 1310.08 893.302 1310.02 L 885.78 1383.63 C 876.68 1384.04 866.659 1384.02 857.478 1384.2 C 859.704 1359.54 862.51 1335.07 864.341 1310.33 z"/><path transform="translate(0,0)" fill="rgb(245,55,0)" d="M 1123.78 693.146 C 1163.37 691.357 1152.7 741.622 1117.44 735.906 C 1071.77 722.768 1089.13 704.655 1123.78 693.146 z"/><path transform="translate(0,0)" fill="rgb(254,254,254)" d="M 832.234 1119.74 C 834.528 1122.1 834.429 1123.4 835.527 1126.65 C 844.843 1154.2 862.894 1168.39 888.117 1180.7 L 884.064 1206.78 C 883.385 1209.28 884.048 1208.22 882.045 1209.92 C 838.121 1200.42 831.135 1157.35 832.234 1119.74 z"/><path transform="translate(0,0)" fill="rgb(245,55,0)" d="M 745.121 694.17 C 768.121 692.167 800.049 712.082 764.455 733.277 C 757.511 736.062 752.635 738.106 745.061 735.522 C 733.212 731.479 726.392 717.378 731.569 705.732 C 734.576 698.965 738.491 696.933 745.121 694.17 z"/><path transform="translate(0,0)" fill="rgb(245,55,0)" d="M 825.608 796.151 C 847.951 794.85 850.561 803.503 852.57 823.292 C 846.992 831.368 845.229 832.022 836.483 836.025 C 811.071 834.929 795.232 805.433 825.608 796.151 z"/><path transform="translate(0,0)" fill="rgb(254,254,254)" d="M 893.765 1185.75 C 900.881 1186.31 908.836 1188.41 915.866 1189 C 937.332 1190.8 940.026 1203.28 933.238 1222.61 C 910.549 1217.49 877.667 1219.54 893.765 1185.75 z"/><path transform="translate(0,0)" fill="rgb(254,254,254)" d="M 979.531 1188.23 C 979.968 1188.17 981.668 1188.52 982.189 1188.61 C 985.067 1191.46 988.541 1199.95 988.69 1203.93 C 989.321 1220.83 958.442 1219.93 947.898 1220.07 C 939.909 1217.5 940.581 1201.3 940.399 1194.37 C 954.735 1193.19 965.597 1191.1 979.531 1188.23 z"/><path transform="translate(0,0)" fill="rgb(254,254,254)" d="M 902.838 904.243 C 907.692 903.831 920.214 902.061 922.784 906.495 C 927.252 914.202 928.053 931.579 926.685 939.97 C 924.127 942.563 924.587 941.762 920.2 942.56 C 912.759 942.976 904.171 943.867 897.694 940.381 C 892.064 933.039 896.92 911.371 902.838 904.243 z"/><path transform="translate(0,0)" fill="rgb(37,55,108)" d="M 782.998 1113.81 C 787.377 1121.5 796.935 1135.35 800.066 1142 C 805.814 1154.2 827.596 1210.7 825.74 1219.96 C 813.938 1206.03 812.29 1198.24 803.79 1183.11 L 802.339 1183.77 L 797.991 1187.89 C 797.221 1169.76 784.612 1130.83 782.998 1113.81 z"/><path transform="translate(0,0)" fill="rgb(245,55,0)" d="M 1240.87 1179.98 L 1241.54 1180.88 C 1237.34 1197.9 1158.48 1272 1140.96 1286.66 L 1140.24 1286.16 C 1140.2 1281.19 1187.47 1229.34 1194.83 1222.22 C 1208.47 1209 1226.24 1195.22 1239.72 1181.18 L 1240.87 1179.98 z"/><path transform="translate(0,0)" fill="rgb(245,55,0)" d="M 1023.53 1731.48 L 1027.07 1731.32 L 1027.29 1732.03 C 1019.11 1735.47 1008.84 1737.88 1000.14 1740.22 C 978.832 1745.95 963.834 1755.96 941.744 1749.43 C 935.56 1747.3 933.829 1746.26 928.388 1743.05 C 958.259 1734.8 992.656 1732.56 1023.53 1731.48 z"/><path transform="translate(0,0)" fill="rgb(245,55,0)" d="M 943.342 802.109 C 959.443 803.922 968.236 805.479 965.759 823.858 C 960.791 828.147 959.925 828.796 954.003 831.669 C 943.854 832.866 935.21 832.517 930.656 822.028 C 925.925 811.131 934.893 805.245 943.342 802.109 z"/><path transform="translate(0,0)" fill="rgb(245,55,0)" d="M 1499.45 1164.9 L 1500.15 1165.37 C 1500.02 1168.11 1498.08 1169.97 1496.2 1172.61 C 1479.09 1196.63 1456.86 1203.44 1429.41 1208.2 L 1428.67 1206.85 C 1431.86 1203.48 1457.7 1191.61 1465.07 1187.32 C 1476.93 1180.47 1488.41 1172.99 1499.45 1164.9 z"/><path transform="translate(0,0)" fill="rgb(245,55,0)" d="M 1670.67 299.697 C 1674.68 303.883 1678.68 330.896 1679.67 337.893 C 1682.64 358.88 1680.94 381.234 1667.4 398.463 C 1648.96 421.915 1620.72 427.604 1613.31 459.448 C 1612.53 459.307 1611.64 458.547 1610.86 458.034 C 1600.53 437.215 1598.99 396.128 1617.55 380.798 C 1649.89 354.097 1657.85 340.608 1670.67 299.697 z"/><path transform="translate(0,0)" fill="rgb(245,55,0)" d="M 455.03 526.93 C 455.075 526.981 455.141 527.02 455.166 527.083 C 456.727 530.907 451.639 547.353 451.236 552.69 C 450.347 564.448 449.407 576.162 450.248 587.966 C 451.066 599.439 456.242 612.8 454.485 624.127 C 453.002 633.682 446.245 642.438 442.634 651.362 C 436.127 667.438 434.888 684.561 433.549 701.651 C 430.625 697.517 427.832 692.834 425.13 688.518 C 417.613 674.994 412.133 662.425 410.869 646.843 C 407.364 603.669 428.267 559.483 455.03 526.93 z"/><path transform="translate(0,0)" fill="rgb(245,55,0)" d="M 1511.57 106.78 C 1514.93 111.215 1513.95 122.705 1514.4 128.221 C 1517.88 170.869 1474.96 172.43 1452.7 197.086 C 1445.19 205.407 1444.56 210.566 1440.01 220.061 L 1438.83 220.332 L 1438.04 218.054 C 1412.94 159.876 1444.89 152.999 1488.62 129.406 C 1497.23 124.762 1505.86 114.718 1511.57 106.78 z"/></svg>