<svg version="1.1" xmlns="http://www.w3.org/2000/svg" style="display: block;" viewBox="0 0 2048 2048" width="1024" height="1024" preserveAspectRatio="none"><defs><linearGradient id="Gradient1" gradientUnits="userSpaceOnUse" x1="715.814" y1="1247.79" x2="695.186" y2="1241.21"><stop class="stop0" offset="0" stop-opacity="1" stop-color="rgb(65,71,78)"/><stop class="stop1" offset="1" stop-opacity="1" stop-color="rgb(98,97,108)"/></linearGradient><linearGradient id="Gradient2" gradientUnits="userSpaceOnUse" x1="949.036" y1="1640.67" x2="867.005" y2="1631.65"><stop class="stop0" offset="0" stop-opacity="1" stop-color="rgb(72,75,82)"/><stop class="stop1" offset="1" stop-opacity="1" stop-color="rgb(105,112,122)"/></linearGradient><linearGradient id="Gradient3" gradientUnits="userSpaceOnUse" x1="1426.63" y1="1097.79" x2="1485.47" y2="1084.27"><stop class="stop0" offset="0" stop-opacity="1" stop-color="rgb(70,70,76)"/><stop class="stop1" offset="1" stop-opacity="1" stop-color="rgb(87,93,101)"/></linearGradient><linearGradient id="Gradient4" gradientUnits="userSpaceOnUse" x1="435.722" y1="609.559" x2="429.724" y2="603.864"><stop class="stop0" offset="0" stop-opacity="1" stop-color="rgb(98,101,108)"/><stop class="stop1" offset="1" stop-opacity="1" stop-color="rgb(118,121,124)"/></linearGradient><linearGradient id="Gradient5" gradientUnits="userSpaceOnUse" x1="636.107" y1="704.151" x2="643.827" y2="641.043"><stop class="stop0" offset="0" stop-opacity="1" stop-color="rgb(49,52,63)"/><stop class="stop1" offset="1" stop-opacity="1" stop-color="rgb(85,88,95)"/></linearGradient><linearGradient id="Gradient6" gradientUnits="userSpaceOnUse" x1="1706.02" y1="1113.53" x2="1669.6" y2="1042.85"><stop class="stop0" offset="0" stop-opacity="1" stop-color="rgb(67,72,81)"/><stop class="stop1" offset="1" stop-opacity="1" stop-color="rgb(123,124,130)"/></linearGradient><linearGradient id="Gradient7" gradientUnits="userSpaceOnUse" x1="1062.27" y1="428.601" x2="1084.64" y2="375.175"><stop class="stop0" offset="0" stop-opacity="1" stop-color="rgb(88,91,100)"/><stop class="stop1" offset="1" stop-opacity="1" stop-color="rgb(117,120,124)"/></linearGradient><linearGradient id="Gradient8" gradientUnits="userSpaceOnUse" x1="616.503" y1="592.813" x2="664.207" y2="519.997"><stop class="stop0" offset="0" stop-opacity="1" stop-color="rgb(47,52,63)"/><stop class="stop1" offset="1" stop-opacity="1" stop-color="rgb(82,84,90)"/></linearGradient><linearGradient id="Gradient9" gradientUnits="userSpaceOnUse" x1="987.132" y1="1382.73" x2="946.312" y2="1523.67"><stop class="stop0" offset="0" stop-opacity="1" stop-color="rgb(52,56,64)"/><stop class="stop1" offset="1" stop-opacity="1" stop-color="rgb(86,90,98)"/></linearGradient><linearGradient id="Gradient10" gradientUnits="userSpaceOnUse" x1="796.667" y1="268.137" x2="800.88" y2="296.783"><stop class="stop0" offset="0" stop-opacity="1" stop-color="rgb(80,80,85)"/><stop class="stop1" offset="1" stop-opacity="1" stop-color="rgb(103,111,121)"/></linearGradient><linearGradient id="Gradient11" gradientUnits="userSpaceOnUse" x1="875.34" y1="1450.87" x2="886.73" y2="1550.85"><stop class="stop0" offset="0" stop-opacity="1" stop-color="rgb(58,63,72)"/><stop class="stop1" offset="1" stop-opacity="1" stop-color="rgb(115,118,123)"/></linearGradient><linearGradient id="Gradient12" gradientUnits="userSpaceOnUse" x1="1551.02" y1="1108.65" x2="1618.87" y2="976.482"><stop class="stop0" offset="0" stop-opacity="1" stop-color="rgb(77,81,91)"/><stop class="stop1" offset="1" stop-opacity="1" stop-color="rgb(111,114,117)"/></linearGradient><linearGradient id="Gradient13" gradientUnits="userSpaceOnUse" x1="522.674" y1="1150.78" x2="549.518" y2="1078.67"><stop class="stop0" offset="0" stop-opacity="1" stop-color="rgb(54,57,67)"/><stop class="stop1" offset="1" stop-opacity="1" stop-color="rgb(81,83,88)"/></linearGradient><linearGradient id="Gradient14" gradientUnits="userSpaceOnUse" x1="1414.72" y1="1201.8" x2="1412.13" y2="1036.26"><stop class="stop0" offset="0" stop-opacity="1" stop-color="rgb(140,140,143)"/><stop class="stop1" offset="1" stop-opacity="1" stop-color="rgb(186,185,186)"/></linearGradient><linearGradient id="Gradient15" gradientUnits="userSpaceOnUse" x1="1075.21" y1="1208.49" x2="1351.22" y2="1331.49"><stop class="stop0" offset="0" stop-opacity="1" stop-color="rgb(46,50,58)"/><stop class="stop1" offset="1" stop-opacity="1" stop-color="rgb(76,79,87)"/></linearGradient><linearGradient id="Gradient16" gradientUnits="userSpaceOnUse" x1="673.238" y1="1198.19" x2="724.702" y2="1119.86"><stop class="stop0" offset="0" stop-opacity="1" stop-color="rgb(172,170,175)"/><stop class="stop1" offset="1" stop-opacity="1" stop-color="rgb(209,210,208)"/></linearGradient><linearGradient id="Gradient17" gradientUnits="userSpaceOnUse" x1="704.121" y1="1107.29" x2="679.159" y2="967.038"><stop class="stop0" offset="0" stop-opacity="1" stop-color="rgb(90,93,101)"/><stop class="stop1" offset="1" stop-opacity="1" stop-color="rgb(110,114,118)"/></linearGradient><linearGradient id="Gradient18" gradientUnits="userSpaceOnUse" x1="1091.38" y1="1170.6" x2="1083.88" y2="1074.68"><stop class="stop0" offset="0" stop-opacity="1" stop-color="rgb(49,52,60)"/><stop class="stop1" offset="1" stop-opacity="1" stop-color="rgb(102,105,111)"/></linearGradient><linearGradient id="Gradient19" gradientUnits="userSpaceOnUse" x1="880.086" y1="867.417" x2="864.174" y2="875.498"><stop class="stop0" offset="0" stop-opacity="1" stop-color="rgb(255,186,61)"/><stop class="stop1" offset="1" stop-opacity="1" stop-color="rgb(255,214,89)"/></linearGradient><linearGradient id="Gradient20" gradientUnits="userSpaceOnUse" x1="1099.59" y1="984.312" x2="1087.56" y2="873.072"><stop class="stop0" offset="0" stop-opacity="1" stop-color="rgb(255,145,28)"/><stop class="stop1" offset="1" stop-opacity="1" stop-color="rgb(255,192,61)"/></linearGradient></defs><path transform="translate(0,0)" fill="rgb(5,6,7)" d="M 763.088 468.922 C 745.83 424.218 731.26 373.739 715.49 328.041 C 708.475 307.716 740.007 288.742 752.348 273.188 C 760.768 262.576 778.658 239.467 791.828 234.187 C 808.818 229.987 894.51 196.514 904.406 198.418 C 943.874 206.014 989.153 224.328 1027.91 236.825 C 1049.66 246.871 1064.69 284.342 1072.24 305.669 C 1082.22 333.873 1086.6 333.535 1103.89 354.813 C 1131.6 388.914 1157.91 443.075 1155.51 488.125 C 1154.4 508.763 1151.45 516.525 1160.97 537.119 C 1171.18 568.447 1185.26 601.772 1188.76 634.632 C 1190.27 652.332 1157.31 686.585 1145.8 697.411 C 1154.87 697.959 1163.91 700.489 1172.77 702.627 C 1170.12 721.969 1166.07 747.403 1161.97 766.313 C 1178.2 750.221 1199.33 732.829 1216.88 717.811 L 1317.65 632.581 C 1311.37 646.128 1307.19 664.703 1303.39 679.482 C 1298.66 697.628 1294.06 715.807 1289.58 734.017 C 1352.79 698.744 1417.94 659.424 1482.98 627.909 C 1467.55 658.157 1451.82 689.706 1438.4 720.909 C 1432.18 735.367 1429.41 751.969 1424.01 765.433 C 1430.99 761.166 1437.8 758.082 1444.92 754.29 C 1479.24 736.019 1515.84 720.396 1550.14 702.314 C 1536.64 731.407 1524.18 764.852 1508.28 792.361 C 1521.42 787.975 1541.5 784.298 1555.48 781.394 C 1577.88 776.735 1600.21 771.733 1622.46 766.39 C 1615.41 773.748 1609.15 783.076 1602.83 791.186 C 1592.07 804.774 1581.22 818.293 1570.29 831.741 C 1564.38 839.03 1556.25 849.705 1549.05 855.566 C 1532.16 869.315 1510.51 879.404 1492.63 890.825 C 1502.15 897.818 1522.55 913.652 1528.93 923.035 C 1527.66 928.5 1526.37 934.689 1524.82 940.021 L 1856.45 942.555 C 1790.2 1124.91 1669.79 1231 1480.22 1266.42 C 1468.74 1268.56 1456.85 1272.42 1445.49 1274.42 C 1438.51 1283.52 1431.8 1294.17 1418.51 1301.4 C 1385.45 1319.37 1320.84 1303.97 1314.86 1355.95 C 1314.66 1357.68 1316.57 1361.38 1317.45 1362.85 C 1341.95 1405.29 1447.19 1446.44 1494.09 1464.98 C 1496.83 1466.07 1500.12 1465.94 1502.96 1465.12 C 1503.8 1464.28 1504.54 1463.72 1505.09 1462.74 C 1512.18 1465.36 1525.71 1465.2 1530.89 1470.92 C 1535.58 1476.1 1557.63 1572.77 1557.33 1582.5 C 1551.78 1588.84 1367.94 1657.65 1346.79 1664.63 C 1323.56 1656.47 1300.63 1644.63 1276.21 1636.1 C 1191.39 1606.45 1104.18 1621.12 1023.9 1656.95 C 1001.47 1666.95 986.612 1676.6 970.266 1694.44 C 968.913 1695.91 925.811 1703.53 919.239 1704.78 C 869.707 1714.2 819.163 1721.83 769.733 1732.47 C 716.611 1678.16 647.682 1638.7 581.001 1603.81 C 556.752 1591.12 531.662 1579.66 507.875 1566.16 C 513.179 1542.85 517.705 1492.19 526.398 1467.66 C 527.393 1464.85 539.821 1462.13 543.588 1461.19 C 555.294 1460.35 611.765 1437.26 625.851 1432.01 C 650.419 1422.87 690.336 1406.81 709.013 1387.56 C 711.561 1384.93 713.929 1379.44 715.475 1375.9 C 721.947 1357.95 716.716 1337.31 697.569 1330.13 C 671.974 1320.53 642.465 1320.59 616.043 1313.32 C 604.245 1312.14 595.091 1297.75 586.084 1294.83 C 553.788 1284.35 519.56 1273.92 488.192 1261.25 C 392.22 1222.5 308.629 1157.25 251.765 1070.39 C 242.712 1056.57 228.978 1035.44 222.696 1020.31 C 247.813 1015.31 273.455 1011.82 298.811 1007.88 C 338.91 1001.86 378.964 995.546 418.969 988.93 C 443.06 985.027 468.555 982.206 492.065 976.253 C 498.404 974.649 501.173 973.316 505.465 968.591 C 476.633 958.539 433.758 949.416 407.249 937.026 C 403.981 936.147 403.765 936.246 400.827 934.339 C 399.375 929.613 411.761 902.94 414.457 897.15 C 407.923 897.057 402.452 897.103 397.362 893.205 C 396.015 890.086 396.059 891.638 397.34 888.395 C 402.67 883.85 406.463 884.245 413.348 883.672 C 400.648 877.993 367.556 858.975 357.594 849.559 C 384.605 850.546 411.283 854.02 438.171 856.652 C 444.654 857.286 451.551 857.795 457.826 859.444 C 463.253 841.867 472.945 813.202 476.751 795.547 C 420.62 817.817 358.362 845.173 302.146 865.203 C 268.906 844.926 247.932 819.926 238.384 781.599 C 234.222 764.892 228.405 711.923 247.119 702.41 C 272.08 689.722 297.679 677.273 323.029 665.289 C 344.618 655.624 375.06 639.07 396.327 631.713 C 394.068 575.793 421.63 575.88 461.031 549.751 C 468.629 544.713 468.475 533.227 475.975 527.904 C 488.612 518.935 503.689 514.037 516.945 506.184 C 527.153 500.137 536.339 491.712 546.265 485.166 C 561.652 476.821 603.262 452.189 618.358 451.579 C 638.978 450.746 681.464 470.914 697.309 484.694 C 698.825 486.013 702.856 490.794 704.104 492.421 C 722.927 486.014 746.21 474.057 763.088 468.922 z M 752.68 655.1 L 816.861 723.649 C 825.216 732.602 838.5 748.294 846.601 755.753 L 847.763 755.503 C 846.168 753.089 844.034 750.146 842.907 747.592 C 833.772 724.758 820.238 694.063 809.59 671.621 C 828.228 683.335 849.397 698.88 867.384 709.424 C 856.768 685.216 847.887 660.304 837.899 635.839 C 836.165 631.592 834.491 627.36 832.144 623.406 C 831.209 623.114 830.316 622.702 829.441 622.741 C 808.237 631.751 772.83 648.325 752.68 655.1 z"/><path transform="translate(0,0)" fill="rgb(254,57,0)" d="M 357.594 849.559 C 384.605 850.546 411.283 854.02 438.171 856.652 C 444.654 857.286 451.551 857.795 457.826 859.444 C 457.675 868.474 461.617 873.379 468.372 879.746 C 484.976 895.398 507.78 917.496 526.399 930.047 C 490.07 918.01 455.984 900.213 422.901 889.545 C 419.081 894.584 419.555 894.194 414.457 897.15 C 407.923 897.057 402.452 897.103 397.362 893.205 C 396.015 890.086 396.059 891.638 397.34 888.395 C 402.67 883.85 406.463 884.245 413.348 883.672 C 400.648 877.993 367.556 858.975 357.594 849.559 z"/><path transform="translate(0,0)" fill="rgb(254,57,0)" d="M 407.249 937.026 C 415.391 936.101 448.553 932.679 454.15 934.519 C 466.433 938.556 502.567 948.994 513.113 955.023 C 515.37 962.029 510.766 964.85 505.465 968.591 C 476.633 958.539 433.758 949.416 407.249 937.026 z"/><path transform="translate(0,0)" fill="rgb(254,57,0)" d="M 1202.36 836.012 C 1210.09 830.281 1221.72 823.96 1230.24 818.822 C 1244.83 809.968 1259.27 800.876 1273.57 791.55 C 1320.41 760.333 1366.73 728.346 1412.51 695.601 C 1407.55 701.695 1402.81 708.192 1398.33 714.661 C 1368.09 758.323 1340.89 803.828 1312.8 848.893 C 1321.92 845.952 1331.93 840.791 1340.77 836.742 C 1352.97 831.228 1365.26 825.898 1377.62 820.753 C 1406.65 808.669 1448.79 794.274 1476.03 780.025 C 1467.96 789.9 1457.82 800.128 1449.35 809.897 C 1438.92 821.93 1428.53 834.145 1417.74 845.828 C 1445.78 835.917 1474.39 828.305 1503.05 820.505 C 1518.9 816.193 1535.05 812.554 1550.6 807.306 C 1504.59 837.743 1453.19 860.281 1401.63 879.202 C 1380.56 886.937 1360.45 895.378 1338.93 902.179 C 1360.26 908.887 1381.52 915.852 1402.69 923.073 C 1412.11 926.186 1435.42 931.553 1440.17 939.527 C 1432.91 940.976 1422.39 944.881 1418.1 945.618 C 1409.4 949.263 1378.47 960.796 1372.91 963.936 C 1368.19 965.136 1363.41 965.584 1358.55 965.853 C 1342.92 966.718 1327.48 968.757 1311.99 971.048 C 1275.15 977.201 1245.55 984.061 1209.17 992.287 C 1147.31 1005.67 1086.03 1021.6 1025.48 1040.05 C 1008.07 1045.26 986.303 1050.3 969.689 1055.88 C 964.117 1057.45 954.646 1058.16 948.804 1057.91 C 942.299 1058.29 933.576 1059.06 927.235 1059.09 C 909.705 1062.76 856.044 1058.68 837.383 1056.81 C 828.743 1053.72 803.264 1051.82 789.47 1048.49 C 756.062 1041.41 731.676 1034.64 703.642 1014.64 C 707.745 999.446 712.452 978.548 717.423 964.2 C 732.782 951.569 751.214 944.401 766.734 933.009 C 775.793 926.359 773.633 922.422 787.169 915.679 L 787.387 914.562 C 779.635 913.989 757.833 927.034 748.586 929.898 C 720.377 938.634 691.284 942.786 663.037 951.449 C 638.133 959.086 577.88 957.561 555.069 944.801 C 612.285 925.646 619.769 957.89 652.48 949.302 L 651.642 950.619 C 658.714 941.858 665.074 939.151 673.835 928.063 C 662.223 927.608 625.354 932.619 621.526 929.712 C 627.527 923.037 687.758 914.577 699.315 912.568 C 650.155 859.868 591.258 823.353 539.871 773.172 C 580.688 790.933 629.929 818.753 669.854 839.838 C 660.289 824.963 649.596 812.836 639.862 798.4 C 665.7 811.676 691.351 825.314 716.807 839.308 C 740.283 852.215 764.096 866.495 788.957 876.052 C 781.907 866.916 776.123 859.378 770.003 849.515 C 762.741 837.81 755.764 822.903 746.954 812.667 C 763.641 819.508 784.775 829.757 801.119 837.668 C 795.506 825.29 787.032 814.684 780.486 802.721 C 768.295 780.445 761.682 758.293 754.758 734.167 C 767.025 743.212 781.686 755.702 794.113 765.478 C 823.051 788.265 852.118 810.888 881.312 833.346 C 882.957 819.279 888.556 804.066 884.469 790.372 L 883.256 792.165 L 884.428 790.258 L 883.815 790.6 L 882.713 795.141 C 880.184 794.103 877.777 789.34 875.923 786.559 C 879.356 779.282 880.786 767.784 888.537 764.501 C 893.838 765.105 929.066 797.399 936.291 802.866 C 948.206 811.882 964.026 830.251 974.403 841.666 C 983.301 817.05 982.498 791.831 1009.11 776.296 C 1025.85 766.521 1045.36 756.151 1061.77 745.911 C 1062.72 774.034 1061.9 799.857 1062.14 827.898 C 1075.01 813.374 1106.89 766.242 1120.51 757.172 L 1120.08 757.984 C 1111.56 773.772 1102.6 797.598 1095.31 814.473 C 1091.04 824.349 1080.4 848.935 1077.9 858.209 L 1078.72 859.584 C 1082.76 859.678 1087.27 856.821 1090.26 854.251 C 1112.02 835.522 1134.51 817.303 1156.46 798.84 C 1187.67 772.591 1224.04 747.31 1254.6 721.033 C 1248.79 733.19 1241.78 745.59 1236.49 757.883 C 1225.2 784.089 1214.08 809.974 1202.36 836.012 z"/><path transform="translate(0,0)" fill="rgb(254,242,130)" d="M 884.67 934.635 C 896.529 928.116 913.191 917.196 926.092 915.153 C 936.885 913.443 953.431 919.721 964.088 919.195 C 975.402 918.637 980.412 911.067 993.443 911.555 C 1017.6 912.459 1037.64 923.294 1061.47 924.223 C 1094.06 925.493 1128.46 927.583 1160.95 928.409 C 1189.33 929.13 1200.93 927.302 1230.64 932.185 C 1189.79 937.837 1149.76 938.621 1109.01 949.456 C 1068.52 960.22 1035.14 979.261 997.161 995.036 L 996.868 996.782 C 993.094 998.635 989.345 1000.54 985.621 1002.49 L 977.873 1005.78 L 971.735 1008.53 C 968.565 1009.85 961.476 1012.57 959.298 1014.83 C 957.177 1007.51 957.124 1003.53 950.858 999.668 C 950.491 999.356 949.314 997.685 948.974 997.227 L 947.307 996.431 C 942.485 996.356 937.035 996.085 932.187 995.738 C 914.963 994.508 896.422 996.396 879.397 994.658 L 878.051 991.05 C 861.257 991.869 860.45 982.053 848.648 977.639 C 837.527 973.48 826.591 970.391 815.165 965.486 C 807.94 962.72 790.409 954.015 786.089 947.228 C 784.42 944.606 785.34 941.914 786.039 938.975 C 792.185 930.365 794.442 928.503 803.398 922.967 C 813.413 923.516 828.763 924.78 838.44 926.343 C 842.105 925.226 845.601 924.673 849.353 923.978 L 853.626 926.177 C 858.909 926.545 861.087 927.522 866.019 929.57 C 872.199 931.137 878.644 932.622 884.67 934.635 z"/><path transform="translate(0,0)" fill="rgb(255,203,76)" d="M 815.165 965.486 C 807.94 962.72 790.409 954.015 786.089 947.228 C 784.42 944.606 785.34 941.914 786.039 938.975 C 790.353 942.416 791.011 943.098 796.77 943.136 C 803.666 945.725 829.224 952.467 832.568 955.375 C 826.261 958.463 819.27 964.407 815.165 965.486 z"/><path transform="translate(0,0)" fill="rgb(254,186,61)" d="M 878.051 991.05 C 887.626 987.848 930.854 985.653 941.289 991.083 C 943.791 992.385 945.598 994.162 947.307 996.431 C 942.485 996.356 937.035 996.085 932.187 995.738 C 914.963 994.508 896.422 996.396 879.397 994.658 L 878.051 991.05 z"/><path transform="translate(0,0)" fill="rgb(255,203,76)" d="M 957.851 997.064 C 963.225 995.312 969.851 995.066 975.459 994.876 C 976.398 998.562 977.38 1002 977.873 1005.78 L 971.735 1008.53 C 968.565 1009.85 961.476 1012.57 959.298 1014.83 C 957.177 1007.51 957.124 1003.53 950.858 999.668 C 950.491 999.356 949.314 997.685 948.974 997.227 C 951.583 997.204 955.362 997.279 957.851 997.064 z"/><path transform="translate(0,0)" fill="rgb(254,186,61)" d="M 948.974 997.227 C 951.583 997.204 955.362 997.279 957.851 997.064 C 960.558 1007.64 960.765 1008.19 971.735 1008.53 C 968.565 1009.85 961.476 1012.57 959.298 1014.83 C 957.177 1007.51 957.124 1003.53 950.858 999.668 C 950.491 999.356 949.314 997.685 948.974 997.227 z"/><path transform="translate(0,0)" fill="rgb(255,218,88)" d="M 796.77 943.136 C 811.657 944.408 822.49 952.14 838.328 949.945 C 841.142 949.555 844.941 954.264 842.992 958.525 L 841.13 959.046 C 838.123 957.35 835.967 955.752 832.568 955.375 C 829.224 952.467 803.666 945.725 796.77 943.136 z"/><path transform="translate(0,0)" fill="rgb(255,203,76)" d="M 975.459 994.876 C 982.622 995.067 990.028 995.396 997.161 995.036 L 996.868 996.782 C 993.094 998.635 989.345 1000.54 985.621 1002.49 L 977.873 1005.78 C 977.38 1002 976.398 998.562 975.459 994.876 z"/><path transform="translate(0,0)" fill="rgb(255,203,76)" d="M 866.019 929.57 C 872.199 931.137 878.644 932.622 884.67 934.635 C 879.932 937.323 876.417 938.849 871.152 937.197 C 867.9 934.779 867.726 933.457 866.019 929.57 z"/><path transform="translate(0,0)" fill="rgb(255,218,88)" d="M 838.44 926.343 C 842.105 925.226 845.601 924.673 849.353 923.978 L 853.626 926.177 L 852.787 927.137 L 853.975 926.957 C 853.668 930.075 854.37 929.068 852.725 930.889 C 847.596 930.064 843.304 928.176 838.44 926.343 z"/><path transform="translate(0,0)" fill="url(#Gradient20)" d="M 846.412 920.666 C 848.586 918.522 880.435 905.124 884.408 903.86 C 905.156 897.261 930.956 913.014 952.477 909.374 C 968.406 906.95 994.287 879.565 1008.84 881.308 C 1029.12 883.737 1052.38 890.407 1073.44 892.879 C 1102.53 896.292 1131.88 898.945 1160.65 904.029 L 1248.27 919.919 C 1279.79 925.882 1311.3 932.286 1343.29 935.021 C 1270.06 941.793 1194.35 952.073 1121.81 964.832 C 1104.07 967.953 1085.46 974.553 1067.89 978.831 C 1050.76 983.247 1012.55 998.839 996.868 996.782 L 997.161 995.036 C 1035.14 979.261 1068.52 960.22 1109.01 949.456 C 1149.76 938.621 1189.79 937.837 1230.64 932.185 C 1200.93 927.302 1189.33 929.13 1160.95 928.409 C 1128.46 927.583 1094.06 925.493 1061.47 924.223 C 1037.64 923.294 1017.6 912.459 993.443 911.555 C 980.412 911.067 975.402 918.637 964.088 919.195 C 953.431 919.721 936.885 913.443 926.092 915.153 C 913.191 917.196 896.529 928.116 884.67 934.635 C 878.644 932.622 872.199 931.137 866.019 929.57 C 861.087 927.522 858.909 926.545 853.626 926.177 L 849.353 923.978 L 846.412 920.666 z"/><path transform="translate(0,0)" fill="rgb(254,186,61)" d="M 803.288 911.841 C 814.332 914.65 836.905 922.008 846.412 920.666 L 849.353 923.978 C 845.601 924.673 842.105 925.226 838.44 926.343 C 828.763 924.78 813.413 923.516 803.398 922.967 C 794.442 928.503 792.185 930.365 786.039 938.975 C 785.34 941.914 784.42 944.606 786.089 947.228 C 790.409 954.015 807.94 962.72 815.165 965.486 C 826.591 970.391 837.527 973.48 848.648 977.639 C 860.45 982.053 861.257 991.869 878.051 991.05 L 879.397 994.658 C 870.291 993.924 860.311 994.65 850.891 993.394 C 809.479 987.872 781.932 978.949 743.55 963.708 C 755.261 950.345 788.788 922.024 803.288 911.841 z"/><path transform="translate(0,0)" fill="rgb(255,104,10)" d="M 950.858 999.668 C 957.124 1003.53 957.177 1007.51 959.298 1014.83 C 961.476 1012.57 968.565 1009.85 971.735 1008.53 L 977.873 1005.78 L 985.621 1002.49 C 985.165 1009.22 985.832 1015.72 986.317 1022.45 C 983.029 1027.11 970.08 1051.1 969.689 1055.88 C 964.117 1057.45 954.646 1058.16 948.804 1057.91 L 948.966 1057.37 C 949.804 1038.51 950.901 1018.46 950.858 999.668 z"/><path transform="translate(0,0)" fill="rgb(250,250,250)" d="M 950.858 999.668 C 957.124 1003.53 957.177 1007.51 959.298 1014.83 C 962.539 1026.96 964.985 1039.7 967.797 1052.02 C 961.307 1053.65 955.238 1055 948.966 1057.37 C 949.804 1038.51 950.901 1018.46 950.858 999.668 z"/><path transform="translate(0,0)" fill="rgb(240,32,0)" d="M 1311.99 971.048 C 1320.53 962.261 1331.85 961.802 1343.13 957.642 C 1365.53 949.374 1388.41 942.249 1410.92 934.357 C 1412.25 933.892 1414.23 930.761 1415.01 929.606 C 1421.24 930.238 1427.57 933.223 1433.65 935.309 C 1432.42 938.343 1423.89 941.865 1420.62 943.308 L 1418.97 944.027 L 1418.1 945.618 C 1409.4 949.263 1378.47 960.796 1372.91 963.936 C 1368.19 965.136 1363.41 965.584 1358.55 965.853 C 1342.92 966.718 1327.48 968.757 1311.99 971.048 z"/><path transform="translate(0,0)" fill="rgb(240,32,0)" d="M 827.708 1039.1 C 827.375 1041.78 826.715 1042.38 825.15 1044.58 C 824.952 1049.23 824.174 1048.8 826.355 1051.59 C 831.901 1053.71 835.728 1053.39 841.68 1053.42 C 871.554 1055.14 896.307 1056.54 926.513 1056.51 L 925.381 1057.78 C 922.36 1057.86 919.786 1057.89 916.765 1057.8 L 916.258 1058.45 C 919.737 1058.62 923.83 1058.71 927.235 1059.09 C 909.705 1062.76 856.044 1058.68 837.383 1056.81 C 828.743 1053.72 803.264 1051.82 789.47 1048.49 C 791.216 1048.53 805.769 1048.14 804.768 1048.01 C 815.813 1048.15 819.236 1045.25 827.708 1039.1 z"/><path transform="translate(0,0)" fill="rgb(225,224,224)" d="M 804.768 1048.01 C 818.166 1035.61 838.181 1021.17 855.385 1015.15 C 847.956 1022.54 836.581 1030.59 827.708 1039.1 C 819.236 1045.25 815.813 1048.15 804.768 1048.01 z"/><path transform="translate(0,0)" fill="rgb(254,242,130)" d="M 1395.86 826.458 L 1396.38 829.006 L 1393 831.627 C 1393.36 834.215 1392.88 833.059 1394.4 835.112 C 1386.65 842.492 1378.87 849.768 1371.48 857.528 C 1365.36 863.949 1358.36 874.001 1351.73 879.45 C 1318.49 901.342 1312.76 893.813 1276.39 886.953 C 1290.4 878.668 1304.27 870.144 1318 861.384 C 1314.39 860.103 1315.76 860.376 1311.47 861.596 L 1310.91 860.615 C 1321.66 849.538 1378.02 832.534 1395.86 826.458 z"/><path transform="translate(0,0)" fill="rgb(254,186,61)" d="M 1395.86 826.458 L 1396.38 829.006 L 1393 831.627 C 1393.36 834.215 1392.88 833.059 1394.4 835.112 C 1386.65 842.492 1378.87 849.768 1371.48 857.528 C 1365.36 863.949 1358.36 874.001 1351.73 879.45 C 1350.45 872.601 1353.93 863.457 1345.84 858.531 C 1339.63 857.262 1324.19 859.411 1318 861.384 C 1314.39 860.103 1315.76 860.376 1311.47 861.596 L 1310.91 860.615 C 1321.66 849.538 1378.02 832.534 1395.86 826.458 z"/><path transform="translate(0,0)" fill="rgb(254,242,130)" d="M 1178.38 813.078 L 1180.57 819.393 C 1183.08 826.933 1183.36 829.63 1183.24 837.582 C 1182.59 846.568 1182.34 858.4 1179.44 866.676 C 1173.3 869.904 1168.08 872.738 1161.62 875.314 C 1141.56 883.655 1128.42 880.371 1106.52 878.917 C 1128.84 841.66 1136.74 844.07 1170.31 819.763 C 1173.96 817.201 1175.24 816.222 1178.38 813.078 z"/><path transform="translate(0,0)" fill="rgb(255,203,76)" d="M 1180.57 819.393 C 1183.08 826.933 1183.36 829.63 1183.24 837.582 C 1182.59 846.568 1182.34 858.4 1179.44 866.676 C 1173.3 869.904 1168.08 872.738 1161.62 875.314 C 1163.52 853.827 1167.66 837.239 1180.57 819.393 z"/><path transform="translate(0,0)" fill="rgb(254,242,130)" d="M 807.096 842.656 C 822.667 834.992 851.54 842.446 864.751 852.491 C 872.007 860.055 887.694 878.383 893.068 886.838 C 883.601 887.102 868.335 888.214 859.596 887.933 C 850.94 888.167 846.06 888.827 837.651 890.422 C 823.099 875.621 815.571 861.019 807.096 842.656 z"/><path transform="translate(0,0)" fill="url(#Gradient19)" d="M 864.751 852.491 C 872.007 860.055 887.694 878.383 893.068 886.838 C 883.601 887.102 868.335 888.214 859.596 887.933 C 882.611 881.569 850.393 864.287 864.751 852.491 z"/><path transform="translate(0,0)" fill="rgb(254,186,61)" d="M 1013.78 803.103 C 1017.2 800.239 1040.48 787.711 1044.45 786.95 C 1051.69 792.796 1048.78 826.475 1045.49 834.976 C 1040.39 839.611 1033.83 845.586 1028.02 849.345 C 1019.26 853.484 1005.9 853.125 995.987 853.437 C 995.517 837.286 998.605 812.502 1013.78 803.103 z"/><path transform="translate(0,0)" fill="rgb(254,242,130)" d="M 1013.78 803.103 C 1017.02 811.36 1016.31 807.132 1022.45 813.462 C 1029.14 820.375 1027.93 839.355 1028.02 849.345 C 1019.26 853.484 1005.9 853.125 995.987 853.437 C 995.517 837.286 998.605 812.502 1013.78 803.103 z"/><path transform="translate(0,0)" fill="rgb(254,242,130)" d="M 698.559 865.264 C 717.299 854.253 732.812 862.318 747.867 874.644 C 756.051 879.324 771.354 888.47 775.871 896.814 L 775.572 898.848 C 773.881 899.731 773.161 900.284 771.353 900.767 C 764.814 904.102 757.856 906.622 750.634 908.021 C 729.504 912.112 722.003 885.656 708.942 877.152 C 706.49 875.934 705.804 875.987 703.063 875.982 C 699.915 873.511 699.838 869.878 698.559 865.264 z"/><path transform="translate(0,0)" fill="rgb(254,186,61)" d="M 698.559 865.264 C 717.299 854.253 732.812 862.318 747.867 874.644 C 756.051 879.324 771.354 888.47 775.871 896.814 L 775.572 898.848 C 773.881 899.731 773.161 900.284 771.353 900.767 C 763.613 893.069 721.102 872.423 711.651 872.038 L 709.174 874.012 L 708.942 877.152 C 706.49 875.934 705.804 875.987 703.063 875.982 C 699.915 873.511 699.838 869.878 698.559 865.264 z"/><path transform="translate(0,0)" fill="rgb(255,104,10)" d="M 698.559 865.264 C 717.299 854.253 732.812 862.318 747.867 874.644 C 731.448 873.878 734.792 869.999 711.651 872.038 L 709.174 874.012 L 708.942 877.152 C 706.49 875.934 705.804 875.987 703.063 875.982 C 699.915 873.511 699.838 869.878 698.559 865.264 z"/><path transform="translate(0,0)" fill="rgb(255,203,76)" d="M 1305.04 793.229 L 1305.56 794.548 C 1291.16 809.589 1277.48 820.975 1262.87 835.733 C 1255.47 842.469 1245.16 858.27 1236.61 862.76 C 1229.55 866.469 1213.25 870.054 1205.26 872.132 L 1204.29 871.121 C 1205.26 864.903 1219.57 853.238 1223.99 848.503 C 1229.38 843.26 1232.29 833.609 1237.68 828.634 C 1246.07 820.889 1259.23 814.997 1269.31 809.839 C 1280.91 803.902 1292.79 797.288 1305.04 793.229 z"/><path transform="translate(0,0)" fill="rgb(254,242,130)" d="M 914.438 846.281 C 939.829 845.45 954.495 843.654 964.555 871.423 L 953.611 879.826 C 945.753 884.488 940.243 884.898 931.247 886.558 C 927.538 876.935 911.917 854.354 912.501 847.662 L 914.438 846.281 z"/><path transform="translate(0,0)" fill="rgb(240,32,0)" d="M 890.148 844.874 C 895.742 847.133 897.957 847.054 903.951 847.683 C 905.93 851.612 904.934 865.048 906.282 869.088 C 907.686 873.296 913.953 883.415 916.423 887.579 C 906.649 890.209 905.557 889.25 896.06 885.626 C 895.836 881.313 894.854 870.998 895.277 867.522 C 896.983 853.512 893.841 854.86 890.148 844.874 z"/><path transform="translate(0,0)" fill="rgb(255,104,10)" d="M 1191.28 800.815 C 1207.59 803.65 1198.06 814.81 1191.69 821.856 L 1191.14 822.65 C 1184.16 832.703 1186.39 824.286 1183.24 837.582 C 1183.36 829.63 1183.08 826.933 1180.57 819.393 L 1178.38 813.078 C 1175.24 816.222 1173.96 817.201 1170.31 819.763 C 1167.66 816.921 1167.06 815.143 1167.5 811.334 C 1170.67 806.272 1180.39 805.935 1188.13 803.343 L 1191.28 800.815 z"/><path transform="translate(0,0)" fill="rgb(254,57,0)" d="M 1170.31 819.763 C 1167.66 816.921 1167.06 815.143 1167.5 811.334 C 1170.67 806.272 1180.39 805.935 1188.13 803.343 C 1184.73 806.095 1178.53 808.846 1178.38 813.078 C 1175.24 816.222 1173.96 817.201 1170.31 819.763 z"/><path transform="translate(0,0)" fill="rgb(254,57,0)" d="M 1191.28 800.815 C 1207.59 803.65 1198.06 814.81 1191.69 821.856 C 1190.85 814.979 1192.26 809.186 1191.28 800.815 z"/><path transform="translate(0,0)" fill="rgb(255,104,10)" d="M 1268.69 891.057 L 1269.3 891.644 L 1267.64 894.327 C 1272.59 894.475 1288.6 894.306 1289.77 900.517 L 1287.24 901.558 C 1274.06 901.479 1272.37 897.891 1257.51 900.452 L 1268.69 891.057 z"/><path transform="translate(0,0)" fill="rgb(255,104,10)" d="M 1395.86 826.458 C 1400.6 823.636 1405.38 820.884 1410.21 818.204 C 1409.1 820.818 1397.01 832.707 1394.4 835.112 C 1392.88 833.059 1393.36 834.215 1393 831.627 L 1396.38 829.006 L 1395.86 826.458 z"/><path transform="translate(0,0)" fill="rgb(255,104,10)" d="M 849.904 838.327 C 856.471 837.856 864.075 836.653 863.573 845.067 C 858.46 844.508 854.916 842.83 850.465 840.405 L 849.904 838.327 z"/><path transform="translate(0,0)" fill="rgb(250,250,250)" d="M 593.281 982.325 C 614.63 978.541 644.893 977.898 666.711 978.684 C 670.393 978.816 670.093 978.86 671.817 980.947 C 670.46 995.569 667.77 1019.43 668.608 1033.86 C 652.039 1031.77 635.493 1029.49 618.971 1027.05 C 632.699 1032.76 655.253 1037.87 670.075 1042.33 C 728.255 1059.86 784.612 1072.15 845.065 1079.7 C 850.555 1080.33 856.695 1080.33 860.673 1084.16 C 904.85 1082.01 953.993 1075.24 997.923 1070.16 C 1070.35 1062.38 1142.7 1053.95 1214.97 1044.88 C 1262.31 1039.35 1309.71 1034.28 1357.16 1029.69 C 1381.46 1027.32 1410.79 1025.92 1434.21 1022.04 L 1432.08 1037.89 L 1429.39 1034.48 C 1418.42 1048.14 1412.52 1054.86 1394.02 1054.08 C 1394.26 1070.62 1395.07 1089.31 1394.66 1105.62 C 1393.13 1110.95 1393.17 1117.18 1393.84 1122.65 C 1385.97 1121.47 1378.19 1122.36 1370.56 1121.75 C 1346.03 1119.77 1324.15 1121.6 1299.92 1125.16 C 1287.32 1127 1273.4 1126.56 1260.33 1128.54 C 1266.96 1138.11 1275.56 1150.61 1283.21 1159.29 C 1260.53 1149.27 1223.48 1133.59 1199.65 1127.5 C 1194.15 1126.09 1148.98 1129.17 1137.52 1129.1 C 1113.23 1128.95 1087.23 1125.39 1063.82 1125.74 L 1060.3 1123.59 C 1124.7 1109.89 1189.88 1102.2 1254.12 1088.13 C 1267.64 1085.17 1290.31 1082.02 1302.19 1078.36 C 1166.27 1074.28 1035.08 1077.33 903.064 1110.72 C 890.351 1113.94 806.349 1132.51 798.04 1129.31 L 796.426 1126.64 C 789.261 1123.92 783.933 1123.47 776.368 1122.92 C 777.899 1118.18 776.882 1110.03 778.721 1105.35 C 779.579 1103.17 779.51 1103.64 780.174 1101.01 C 777.981 1099.13 774.545 1099.88 770.961 1099.89 C 758.52 1100.03 750.438 1099.88 738.273 1102.79 C 727.858 1108.08 717.772 1113.53 708.027 1120.01 C 708.379 1154.59 713.121 1193.82 713.013 1227.07 C 710.865 1224.34 710.983 1223.28 708.706 1221 L 706.405 1225.07 L 704.59 1221.09 C 704.2 1219.99 704.551 1220.63 703.269 1219.17 L 703.985 1219.15 L 703.56 1218.58 L 702.132 1220.51 L 700.384 1220.13 C 697.377 1200.06 687.877 1105.67 680.659 1095.39 C 652.125 1071.23 617.697 1052.31 585.889 1032.91 C 578.351 1028.32 579.305 1024.28 569.64 1018.51 C 565.385 1016.09 561.438 1013.1 557.447 1010.25 C 553.189 1008.12 551.28 1005.56 548.013 1002.09 C 549.302 999.64 550.803 997.303 552.498 995.11 C 561.136 983.914 579.671 983.918 593.281 982.325 z"/><path transform="translate(0,0)" fill="url(#Gradient18)" d="M 770.961 1099.89 C 775.508 1098.48 810.902 1097.59 819.109 1097.09 C 854.033 1094.82 888.938 1092.27 923.822 1089.44 C 973.025 1085.58 1020.99 1080.07 1069.92 1075.53 C 1145.01 1068.2 1220.26 1062.61 1295.61 1058.77 C 1325.42 1057.2 1364.91 1054.03 1394.02 1054.08 C 1394.26 1070.62 1395.07 1089.31 1394.66 1105.62 C 1393.13 1110.95 1393.17 1117.18 1393.84 1122.65 C 1385.97 1121.47 1378.19 1122.36 1370.56 1121.75 C 1346.03 1119.77 1324.15 1121.6 1299.92 1125.16 C 1287.32 1127 1273.4 1126.56 1260.33 1128.54 C 1266.96 1138.11 1275.56 1150.61 1283.21 1159.29 C 1260.53 1149.27 1223.48 1133.59 1199.65 1127.5 C 1194.15 1126.09 1148.98 1129.17 1137.52 1129.1 C 1113.23 1128.95 1087.23 1125.39 1063.82 1125.74 L 1060.3 1123.59 C 1124.7 1109.89 1189.88 1102.2 1254.12 1088.13 C 1267.64 1085.17 1290.31 1082.02 1302.19 1078.36 C 1166.27 1074.28 1035.08 1077.33 903.064 1110.72 C 890.351 1113.94 806.349 1132.51 798.04 1129.31 L 796.426 1126.64 C 789.261 1123.92 783.933 1123.47 776.368 1122.92 C 777.899 1118.18 776.882 1110.03 778.721 1105.35 C 779.579 1103.17 779.51 1103.64 780.174 1101.01 C 777.981 1099.13 774.545 1099.88 770.961 1099.89 z"/><path transform="translate(0,0)" fill="url(#Gradient17)" d="M 593.281 982.325 C 614.63 978.541 644.893 977.898 666.711 978.684 C 670.393 978.816 670.093 978.86 671.817 980.947 C 670.46 995.569 667.77 1019.43 668.608 1033.86 C 652.039 1031.77 635.493 1029.49 618.971 1027.05 C 632.699 1032.76 655.253 1037.87 670.075 1042.33 C 728.255 1059.86 784.612 1072.15 845.065 1079.7 C 850.555 1080.33 856.695 1080.33 860.673 1084.16 C 854.249 1084.99 849.082 1085.23 842.627 1085.51 C 842.424 1085.54 842.222 1085.57 842.019 1085.6 C 790.431 1087.76 721.834 1094.69 672.531 1079.33 C 663.733 1076.58 640.445 1054.3 630.587 1048.95 C 621.232 1043.86 612.929 1043.37 604.092 1039.65 C 592.545 1034.8 582.22 1024.4 572.154 1016.83 L 569.64 1018.51 C 565.385 1016.09 561.438 1013.1 557.447 1010.25 C 553.189 1008.12 551.28 1005.56 548.013 1002.09 C 549.302 999.64 550.803 997.303 552.498 995.11 C 561.136 983.914 579.671 983.918 593.281 982.325 z"/><path transform="translate(0,0)" fill="rgb(130,132,137)" d="M 593.281 982.325 C 614.63 978.541 644.893 977.898 666.711 978.684 C 670.393 978.816 670.093 978.86 671.817 980.947 C 669.402 981.967 596.471 983.774 594.529 983.063 C 594.075 982.897 593.697 982.571 593.281 982.325 z"/><path transform="translate(0,0)" fill="rgb(87,90,98)" d="M 845.065 1079.7 C 850.555 1080.33 856.695 1080.33 860.673 1084.16 C 854.249 1084.99 849.082 1085.23 842.627 1085.51 C 839.54 1084.56 835.297 1083.72 833.387 1081.43 C 836.003 1079.74 841.684 1079.89 845.065 1079.7 z"/><path transform="translate(0,0)" fill="rgb(162,162,164)" d="M 557.447 1010.25 C 560.794 1009.53 568.28 1014.69 572.154 1016.83 L 569.64 1018.51 C 565.385 1016.09 561.438 1013.1 557.447 1010.25 z"/><path transform="translate(0,0)" fill="url(#Gradient16)" d="M 680.659 1095.39 C 691.918 1096.68 691.099 1099.71 704.101 1098.48 L 705.637 1099.42 L 704.75 1100.57 C 702.035 1100.82 700.403 1100.9 697.717 1101.49 C 698.066 1102.65 707.228 1115.38 708.15 1116.09 C 711.617 1116.01 729.062 1105.31 733.399 1102.78 L 733.367 1102.37 C 728.924 1102.46 711.948 1098.51 708.103 1096.54 C 708.588 1096.41 736.618 1102.07 738.273 1102.79 C 727.858 1108.08 717.772 1113.53 708.027 1120.01 C 708.379 1154.59 713.121 1193.82 713.013 1227.07 C 710.865 1224.34 710.983 1223.28 708.706 1221 L 706.405 1225.07 L 704.59 1221.09 C 704.2 1219.99 704.551 1220.63 703.269 1219.17 L 703.985 1219.15 L 703.56 1218.58 L 702.132 1220.51 L 700.384 1220.13 C 697.377 1200.06 687.877 1105.67 680.659 1095.39 z"/><path transform="translate(0,0)" fill="url(#Gradient15)" d="M 1394.02 1054.08 C 1412.52 1054.86 1418.42 1048.14 1429.39 1034.48 L 1432.08 1037.89 L 1413.38 1146.43 C 1411.85 1155.72 1408.13 1186.81 1405.33 1194.12 C 1404.56 1203.42 1401.53 1214.22 1401.04 1221.69 L 1400.36 1231.02 C 1399.16 1239.24 1397.67 1248.52 1395.34 1256.5 C 1363.86 1264.47 1335.93 1276.89 1301.74 1275.91 C 1311.44 1270.72 1321.22 1265.69 1331.09 1260.84 C 1333.59 1256.11 1343.09 1249.68 1347.67 1246.3 C 1377.84 1224.03 1376.27 1200.3 1375.79 1165.66 C 1361.58 1174.8 1347.25 1188.71 1334.17 1200.14 C 1307.75 1223.23 1277.27 1244.24 1251.05 1267.05 C 1226.96 1288 1204.5 1315.42 1182.8 1338.78 C 1171.37 1352.16 1155.68 1369.13 1147.45 1384.72 C 1148.86 1387.34 1148.04 1386.13 1151.23 1387.87 L 1150.73 1392.11 C 1147.62 1391.02 1147.28 1391.28 1144.05 1391.54 C 1138.51 1390.76 1130.48 1382.93 1126.56 1381.75 C 1110.25 1376.81 1088.73 1370.98 1072.21 1368.51 C 1094.12 1401 1149.75 1445.63 1184.19 1465.44 C 1162.29 1460.78 1135.93 1459.04 1114.88 1450.16 C 1104.7 1445.86 1088.22 1431.68 1077.6 1425.24 C 1049.84 1408.42 1023.76 1396.1 993.243 1385.57 C 1002.03 1376.9 1009.16 1365 1020.15 1354.46 C 1048.72 1327.03 1078.31 1308.31 1112.29 1288.49 C 1129.7 1278.34 1153.1 1264.39 1171.53 1256.61 C 1154.22 1273.25 1135.59 1287.19 1119.31 1304.15 C 1106.56 1317.42 1094.61 1335.82 1083.31 1350.98 C 1095.19 1346.63 1125.6 1328.29 1138.82 1321.15 C 1163.19 1307.81 1187.16 1293.76 1210.7 1279 C 1227.02 1268.92 1243.27 1259.42 1258.33 1247.48 C 1275.88 1234.22 1291.07 1217.87 1307.57 1203.51 C 1328.27 1185.51 1347.16 1167.46 1365.87 1147.46 C 1373.67 1139.12 1385.17 1130.44 1393.84 1122.65 C 1393.17 1117.18 1393.13 1110.95 1394.66 1105.62 C 1395.07 1089.31 1394.26 1070.62 1394.02 1054.08 z"/><path transform="translate(0,0)" fill="url(#Gradient14)" d="M 1394.02 1054.08 C 1412.52 1054.86 1418.42 1048.14 1429.39 1034.48 L 1432.08 1037.89 L 1413.38 1146.43 C 1411.85 1155.72 1408.13 1186.81 1405.33 1194.12 L 1403.91 1194.05 C 1403.28 1196.77 1402.71 1199.43 1402.49 1202.21 C 1401.53 1195.05 1402.42 1192.83 1395.78 1188.94 C 1394.82 1161.42 1395.01 1133.25 1394.66 1105.62 C 1395.07 1089.31 1394.26 1070.62 1394.02 1054.08 z"/><path transform="translate(0,0)" fill="rgb(254,57,0)" d="M 1400.36 1231.02 C 1399.16 1239.24 1397.67 1248.52 1395.34 1256.5 C 1363.86 1264.47 1335.93 1276.89 1301.74 1275.91 C 1311.44 1270.72 1321.22 1265.69 1331.09 1260.84 C 1350.38 1254.02 1384.45 1242.55 1400.36 1231.02 z"/><path transform="translate(0,0)" fill="rgb(130,132,137)" d="M 1395.78 1188.94 C 1402.42 1192.83 1401.53 1195.05 1402.49 1202.21 C 1402.71 1199.43 1403.28 1196.77 1403.91 1194.05 L 1405.33 1194.12 C 1404.56 1203.42 1401.53 1214.22 1401.04 1221.69 C 1400.51 1223.54 1400.07 1224.75 1399.41 1226.55 C 1396.05 1222.03 1395.96 1196.43 1395.78 1188.94 z"/><path transform="translate(0,0)" fill="rgb(87,90,98)" d="M 395.261 1036.13 L 465.669 1028.65 C 479.992 1027.07 496.794 1024.5 511.082 1024.91 C 514.421 1025 519.695 1027.91 522.807 1029.53 C 527.634 1031.19 533.834 1035.22 537.959 1038.26 C 548.597 1046.1 559.192 1053.98 569.872 1061.77 C 590.543 1076.83 613.844 1087.3 635.03 1101.63 C 634.899 1108.8 634.645 1113.38 633.808 1120.49 C 634.127 1135.33 629.708 1170.7 628.207 1186.8 C 595.143 1181.69 565.822 1168.87 536.239 1154.01 C 510.071 1140.87 482.984 1128.96 457.638 1114.19 C 449.54 1109.48 431.502 1102.06 425.375 1096.56 C 428.09 1095.97 429.383 1095.6 431.951 1094.35 C 394.29 1086.52 349.533 1069.7 313.034 1056.49 C 307.489 1054.48 291.228 1048.63 286.858 1045.7 L 287.433 1044.48 L 290.974 1044.02 C 303.55 1043.45 318.308 1041.65 331.389 1041.23 C 341.409 1040.91 368.556 1040.35 376.82 1038.4 C 383.75 1037.24 388.278 1036.58 395.261 1036.13 z"/><path transform="translate(0,0)" fill="url(#Gradient13)" d="M 431.951 1094.35 C 490.478 1103.35 548.291 1128.46 605.953 1111.03 C 611.149 1109.46 617.298 1108.75 622.322 1107.03 L 623.999 1106.05 C 626.402 1106.8 627.336 1107.07 629.583 1108.16 C 631.528 1106.29 630.713 1107.38 631.335 1104.27 C 633.464 1110.63 630.389 1115.32 633.808 1120.49 C 634.127 1135.33 629.708 1170.7 628.207 1186.8 C 595.143 1181.69 565.822 1168.87 536.239 1154.01 C 510.071 1140.87 482.984 1128.96 457.638 1114.19 C 449.54 1109.48 431.502 1102.06 425.375 1096.56 C 428.09 1095.97 429.383 1095.6 431.951 1094.35 z"/><path transform="translate(0,0)" fill="rgb(250,250,250)" d="M 290.974 1044.02 C 298.171 1046.54 301.817 1049.46 309.302 1050.67 C 320.249 1053.74 359.621 1062.62 370.722 1063.34 C 380.834 1066.4 420.668 1070.42 433.733 1072.05 C 457.354 1075.15 481.015 1077.94 504.71 1080.42 C 510.906 1081.03 526.779 1082.87 532.074 1082.69 C 551.243 1084.52 576.035 1085.86 594.275 1090.99 C 600.502 1092.74 613.269 1102.16 619.76 1103.69 L 622.322 1107.03 C 617.298 1108.75 611.149 1109.46 605.953 1111.03 C 548.291 1128.46 490.478 1103.35 431.951 1094.35 C 394.29 1086.52 349.533 1069.7 313.034 1056.49 C 307.489 1054.48 291.228 1048.63 286.858 1045.7 L 287.433 1044.48 L 290.974 1044.02 z"/><path transform="translate(0,0)" fill="rgb(250,250,250)" d="M 395.261 1036.13 L 465.669 1028.65 C 479.992 1027.07 496.794 1024.5 511.082 1024.91 C 514.421 1025 519.695 1027.91 522.807 1029.53 C 499.74 1037.13 458.418 1034.66 433.442 1037.71 C 422.901 1039 408.468 1037.54 397.351 1038.36 L 395.261 1036.13 z"/><path transform="translate(0,0)" fill="rgb(35,37,42)" d="M 532.074 1082.69 C 540.501 1078.5 583.766 1085.91 593.932 1089.28 C 602.761 1092.2 612.297 1096.52 619.422 1102.56 L 619.76 1103.69 C 613.269 1102.16 600.502 1092.74 594.275 1090.99 C 576.035 1085.86 551.243 1084.52 532.074 1082.69 z"/><path transform="translate(0,0)" fill="rgb(35,37,42)" d="M 309.302 1050.67 L 310.248 1048.74 C 316.575 1049.42 369.051 1060.65 370.475 1062.24 L 370.722 1063.34 C 359.621 1062.62 320.249 1053.74 309.302 1050.67 z"/><path transform="translate(0,0)" fill="rgb(162,162,164)" d="M 376.82 1038.4 C 383.75 1037.24 388.278 1036.58 395.261 1036.13 L 397.351 1038.36 C 392.059 1038.86 381.242 1040.35 376.82 1038.4 z"/><path transform="translate(0,0)" fill="rgb(254,57,0)" d="M 1027.01 521.845 C 1051.84 512.305 1073.85 513.853 1099.49 518.027 C 1103.9 518.776 1118.88 520.1 1120.36 524.728 C 1127.22 538.265 1142.18 579.768 1145.94 594.711 C 1149.24 605.727 1152.46 618.809 1155.89 629.351 C 1118.31 683.217 1053.31 716.783 990 729.235 C 978.85 731.428 926.34 737.09 922.586 724.744 C 925.905 711.353 955.357 695.836 967.383 691.222 C 977.855 683.396 985 674.117 996.048 666.527 C 1005.37 658.453 1018.12 646.359 1028.33 640.236 C 1045.86 629.709 1072.4 629.211 1092.48 626.213 C 1109.67 623.648 1121.75 622.059 1138.72 616.887 C 1131.98 615.551 1125.25 614.227 1118.52 612.826 C 1095.76 608.083 1072.48 606.896 1049.51 603.561 C 1048.38 599.94 1047.42 596.149 1046.42 592.476 C 1040.04 570.136 1030.97 544.99 1025.39 523.592 L 1027.01 521.845 z"/><path transform="translate(0,0)" fill="rgb(87,90,98)" d="M 1027.01 521.845 C 1051.84 512.305 1073.85 513.853 1099.49 518.027 C 1103.9 518.776 1118.88 520.1 1120.36 524.728 C 1127.22 538.265 1142.18 579.768 1145.94 594.711 L 1137.95 596.476 C 1120.38 598.575 1089.12 590.638 1069.57 593.139 C 1065.79 593.622 1054.71 593.056 1050.77 592.357 L 1046.42 592.476 C 1040.04 570.136 1030.97 544.99 1025.39 523.592 L 1027.01 521.845 z"/><path transform="translate(0,0)" fill="rgb(59,63,72)" d="M 1099.49 518.027 C 1103.9 518.776 1118.88 520.1 1120.36 524.728 C 1127.22 538.265 1142.18 579.768 1145.94 594.711 L 1137.95 596.476 C 1120.38 598.575 1089.12 590.638 1069.57 593.139 C 1065.79 593.622 1054.71 593.056 1050.77 592.357 L 1050.99 589.699 L 1052.75 589.271 C 1056.43 590.711 1065.65 589.768 1070.14 589.544 C 1078.73 577.655 1088.76 555.545 1094.06 541.579 C 1096.54 535.056 1094.03 524.484 1099.49 518.027 z"/><path transform="translate(0,0)" fill="rgb(250,250,250)" d="M 1137.95 596.476 C 1134.72 588.557 1119.82 531.562 1120.36 524.728 C 1127.22 538.265 1142.18 579.768 1145.94 594.711 L 1137.95 596.476 z"/><path transform="translate(0,0)" fill="rgb(250,250,250)" d="M 1027.01 521.845 C 1029.97 522.672 1029.75 522.807 1031.73 525.251 C 1038.14 543.724 1048.97 570.626 1050.99 589.699 L 1050.77 592.357 L 1046.42 592.476 C 1040.04 570.136 1030.97 544.99 1025.39 523.592 L 1027.01 521.845 z"/><path transform="translate(0,0)" fill="rgb(35,37,42)" d="M 1031.73 525.251 C 1038.28 529.695 1054.52 580.935 1052.75 589.271 L 1050.99 589.699 C 1048.97 570.626 1038.14 543.724 1031.73 525.251 z"/><path transform="translate(0,0)" fill="rgb(240,32,0)" d="M 996.048 666.527 C 993.429 673.175 985.538 675.907 983.17 681.349 C 987.415 681.17 989.801 680.369 992.701 682.389 L 992.785 683.756 C 986.135 686.248 974.32 691.129 967.383 691.222 C 977.855 683.396 985 674.117 996.048 666.527 z"/><path transform="translate(0,0)" fill="rgb(255,218,88)" d="M 1104.37 633.733 L 1106.77 634.184 C 1110.43 651.336 1045.91 681.819 1031.25 684.087 L 1028.86 683.973 L 1028.63 682.913 C 1044.73 668.12 1057.9 660.905 1076.37 650.298 C 1086.25 644.625 1093.58 639.129 1104.37 633.733 z"/><path transform="translate(0,0)" fill="rgb(240,32,0)" d="M 1129.36 627.839 L 1130.62 628.968 C 1128.21 633.754 1126.64 637.177 1123.4 641.53 C 1120.93 638.367 1120.35 637.604 1120.21 634.1 C 1122.21 630.874 1125.86 629.594 1129.36 627.839 z"/><path transform="translate(0,0)" fill="rgb(250,250,250)" d="M 1484 975.882 C 1492.35 973.03 1606.54 977.554 1622 977.902 L 1708.49 980.006 C 1730.94 980.358 1772.37 980.821 1794.55 983.016 L 1788.55 997.646 C 1778.16 996.034 1753.71 1000.78 1742.65 1002.61 C 1710.7 1013.1 1697.81 1029.09 1673.42 1042.3 C 1670.51 1045.34 1656.92 1052.47 1652.92 1054.53 C 1606.24 1078.5 1553.09 1079.97 1501.51 1087.42 C 1501.59 1075.15 1503.06 1033.55 1501.12 1024.23 C 1498.73 1022.47 1495.4 1022.79 1492.24 1022.63 C 1486.07 1028.51 1478.9 1050.66 1475.43 1059.9 C 1472.03 1053.72 1475.99 1036.26 1475.76 1027.33 C 1476.58 1018.44 1481 983.389 1484 975.882 z"/><path transform="translate(0,0)" fill="url(#Gradient12)" d="M 1544.15 1014.09 C 1582.72 1012.49 1620.77 1010.26 1659.42 1009.3 L 1660.09 1010.61 C 1671.3 1013.01 1688.04 1008.72 1693.47 1014.59 C 1688.18 1025.2 1683.53 1032 1674.8 1040.16 C 1673.61 1041.27 1673.95 1040.83 1673.42 1042.3 C 1670.51 1045.34 1656.92 1052.47 1652.92 1054.53 C 1606.24 1078.5 1553.09 1079.97 1501.51 1087.42 C 1501.59 1075.15 1503.06 1033.55 1501.12 1024.23 C 1498.73 1022.47 1495.4 1022.79 1492.24 1022.63 C 1503.23 1021.77 1515.86 1018.33 1526.99 1016.53 C 1532.35 1015.66 1539.44 1015.14 1544.15 1014.09 z"/><path transform="translate(0,0)" fill="rgb(5,6,7)" d="M 1595.61 1024.59 L 1612.4 1023.1 C 1593.86 1041.52 1554.76 1058.9 1529.4 1066.22 C 1525.37 1067.02 1520.75 1067.67 1516.64 1068.35 C 1522.25 1057.12 1524.49 1046.48 1531.14 1034.88 C 1555.32 1029.79 1570.81 1025.91 1595.61 1024.59 z"/><path transform="translate(0,0)" fill="rgb(162,162,164)" d="M 1475.76 1027.33 C 1476.58 1018.44 1481 983.389 1484 975.882 L 1484.71 978.813 C 1490.45 982.007 1505.81 980.236 1512.19 982.602 C 1527.84 988.409 1540.56 1000.29 1554.98 1008.98 C 1549.98 1010.6 1548.27 1010.84 1544.15 1014.09 C 1539.44 1015.14 1532.35 1015.66 1526.99 1016.53 C 1515.86 1018.33 1503.23 1021.77 1492.24 1022.63 C 1486.07 1028.51 1478.9 1050.66 1475.43 1059.9 C 1472.03 1053.72 1475.99 1036.26 1475.76 1027.33 z"/><path transform="translate(0,0)" fill="rgb(87,90,98)" d="M 1659.42 1009.3 C 1670.37 1008.94 1685.2 1009.08 1695.46 1008.15 L 1696.25 1008.93 L 1693.47 1014.59 C 1688.04 1008.72 1671.3 1013.01 1660.09 1010.61 L 1659.42 1009.3 z"/><path transform="translate(0,0)" fill="rgb(250,250,250)" d="M 1151.23 1387.87 C 1166.61 1383.51 1188.76 1376.77 1203.08 1369.94 C 1221.72 1361.05 1236.81 1352.83 1256.15 1344.89 C 1259.46 1348.12 1262.76 1352.78 1264.46 1357.05 C 1273.44 1369.06 1282.87 1382.16 1293.54 1392.66 C 1343.51 1441.85 1410.15 1471.47 1475.63 1493.96 C 1483.42 1496.63 1489.25 1499.04 1496.49 1503.03 C 1491.6 1501.93 1485.32 1500.35 1480.49 1499.53 C 1474.1 1501.85 1473.5 1501.67 1466.8 1501.98 C 1446.27 1503.26 1414.38 1509.88 1392.72 1512.41 C 1382.74 1513.58 1343.18 1518.82 1335.99 1520.91 L 1334.21 1521.82 C 1330.28 1521.59 1320.77 1512.67 1317.49 1509.85 C 1273.23 1471.75 1225.61 1437.38 1174.53 1408.99 C 1164.79 1403.58 1153.16 1397.87 1144.05 1391.54 C 1147.28 1391.28 1147.62 1391.02 1150.73 1392.11 L 1151.23 1387.87 z"/><path transform="translate(0,0)" fill="rgb(87,90,98)" d="M 1151.23 1387.87 C 1166.61 1383.51 1188.76 1376.77 1203.08 1369.94 C 1221.72 1361.05 1236.81 1352.83 1256.15 1344.89 C 1260.2 1357.11 1261.33 1361.19 1262.74 1373.99 C 1264.75 1382.06 1266.29 1392.47 1266.09 1400.8 C 1267.84 1412.58 1268.63 1430.46 1268.07 1442.73 C 1263.22 1440.99 1259.99 1439.96 1255.45 1437.36 C 1240.18 1432.39 1223.54 1424.52 1208.81 1417.9 C 1189.93 1409.33 1170.98 1400.93 1151.95 1392.7 L 1150.73 1392.11 L 1151.23 1387.87 z"/><path transform="translate(0,0)" fill="rgb(5,6,7)" d="M 1151.95 1392.7 C 1161.51 1390.74 1201.34 1412.87 1212.27 1416.58 C 1217.28 1418.28 1253.53 1433.78 1255.45 1437.36 C 1240.18 1432.39 1223.54 1424.52 1208.81 1417.9 C 1189.93 1409.33 1170.98 1400.93 1151.95 1392.7 z"/><path transform="translate(0,0)" fill="rgb(59,63,72)" d="M 1262.74 1373.99 C 1264.75 1382.06 1266.29 1392.47 1266.09 1400.8 L 1265.4 1409.17 C 1265.12 1407.01 1264.89 1404.85 1264.71 1402.69 L 1264.61 1401.4 C 1263.43 1402.61 1263.68 1407.38 1263.58 1409.62 C 1262.68 1403.45 1260.04 1378.23 1262.74 1373.99 z"/><path transform="translate(0,0)" fill="rgb(87,90,98)" d="M 1348.95 1457.63 C 1364.24 1461.97 1387.93 1472.7 1403.42 1478.32 C 1411.02 1481.09 1471.08 1499.38 1472.12 1500.54 L 1466.8 1501.98 C 1446.27 1503.26 1414.38 1509.88 1392.72 1512.41 C 1382.74 1513.58 1343.18 1518.82 1335.99 1520.91 C 1333.83 1505.9 1330.46 1491.5 1326.62 1476.86 C 1333.39 1476.86 1347.24 1478.19 1351.8 1473.94 L 1351.41 1469.19 C 1351.76 1464.11 1350.74 1462.45 1348.95 1457.63 z"/><path transform="translate(0,0)" fill="rgb(254,57,0)" d="M 1256.15 1344.89 C 1259.46 1348.12 1262.76 1352.78 1264.46 1357.05 C 1265.6 1378.39 1282.83 1384.29 1289.16 1401.47 C 1295.56 1418.83 1299.3 1439.94 1304.46 1457.9 L 1268.07 1442.73 C 1268.63 1430.46 1267.84 1412.58 1266.09 1400.8 C 1266.29 1392.47 1264.75 1382.06 1262.74 1373.99 C 1261.33 1361.19 1260.2 1357.11 1256.15 1344.89 z"/><path transform="translate(0,0)" fill="rgb(35,37,42)" d="M 1345 1453.6 C 1384.84 1467.02 1439.51 1491.68 1480.49 1499.53 C 1474.1 1501.85 1473.5 1501.67 1466.8 1501.98 L 1472.12 1500.54 C 1471.08 1499.38 1411.02 1481.09 1403.42 1478.32 C 1387.93 1472.7 1364.24 1461.97 1348.95 1457.63 C 1350.74 1462.45 1351.76 1464.11 1351.41 1469.19 L 1345 1453.6 z"/><path transform="translate(0,0)" fill="rgb(250,250,250)" d="M 883.729 1446.7 C 892.008 1457.12 901.219 1470.87 905.002 1483.53 C 906.123 1487.28 906.43 1490.92 907.618 1494.62 L 908.133 1496.18 C 911.233 1496.74 935.746 1517.2 943.17 1516.15 C 944.14 1513.8 944.209 1513.79 944.51 1511.3 C 947.072 1516.1 943.496 1524.33 943.479 1528.8 C 947.976 1520.86 952.509 1512.92 957.145 1505.07 C 960.197 1499.9 963.402 1496.93 965.845 1491.42 L 968.03 1492.93 C 967.604 1495.42 966.928 1498.81 966.657 1501.23 C 960.024 1520.38 951.481 1533.56 944.456 1555.99 C 906.326 1564.77 863.844 1569.73 825.246 1577.99 C 811.1 1581.02 795.344 1582.77 781.489 1586.62 C 780.75 1597.93 777.503 1664.44 774.86 1670.23 C 773.213 1668.86 773.858 1669.6 772.829 1668.09 L 770.248 1667.68 C 769.55 1655.29 767.645 1639.86 769.702 1627.82 C 770.022 1624.57 769.341 1618.01 768.168 1614.81 C 767.815 1607.53 764.866 1595.51 763.867 1586.74 C 757.043 1581.96 750.183 1577.22 743.289 1572.54 C 754.939 1568.32 767.489 1561.31 778.61 1555.54 C 779.885 1554.2 784.282 1551.64 786.099 1550.5 C 797.489 1544.03 808.048 1535.09 818.422 1526.93 C 853.305 1495.18 858.401 1486.09 883.729 1446.7 z"/><path transform="translate(0,0)" fill="url(#Gradient11)" d="M 883.729 1446.7 C 892.008 1457.12 901.219 1470.87 905.002 1483.53 C 906.123 1487.28 906.43 1490.92 907.618 1494.62 L 908.133 1496.18 C 911.233 1496.74 935.746 1517.2 943.17 1516.15 C 944.14 1513.8 944.209 1513.79 944.51 1511.3 C 947.072 1516.1 943.496 1524.33 943.479 1528.8 C 941.197 1533.78 938.857 1536.52 935.576 1540.82 C 924.947 1544.77 911.702 1549.97 900.705 1551.59 C 882.1 1530.69 834.288 1536.67 818.422 1526.93 C 853.305 1495.18 858.401 1486.09 883.729 1446.7 z"/><path transform="translate(0,0)" fill="rgb(162,162,164)" d="M 818.422 1526.93 C 834.288 1536.67 882.1 1530.69 900.705 1551.59 C 860.876 1560.07 821.262 1564.7 780.62 1558.44 L 779.127 1557.33 L 778.99 1555.96 L 778.61 1555.54 C 779.885 1554.2 784.282 1551.64 786.099 1550.5 C 797.489 1544.03 808.048 1535.09 818.422 1526.93 z"/><path transform="translate(0,0)" fill="rgb(5,6,7)" d="M 769.702 1627.82 C 770.906 1637.08 773.054 1658.72 772.829 1668.09 L 770.248 1667.68 C 769.55 1655.29 767.645 1639.86 769.702 1627.82 z"/><path transform="translate(0,0)" fill="rgb(87,90,98)" d="M 811.919 255.416 C 829.462 249.662 892.402 230.69 907.76 228.472 C 921.317 226.514 1000.01 254.28 1012.89 260.599 C 1018.72 262.144 1023.39 271.387 1026.21 276.532 C 1031.2 285.652 1045.31 309.825 1045.39 319.01 C 1019.6 318.68 979.648 316.053 954.708 319.061 C 951.746 311.973 946.407 299.945 945.104 292.86 C 934.547 267.951 935.422 255.749 911.89 240.308 C 900.665 241.422 889.051 244.875 878.327 248.221 C 858.221 254.186 841.561 268.615 824.266 273.309 L 822.217 265.743 C 822.07 270.384 822.834 272.461 819.072 275.551 C 808.368 284.344 792.022 295.445 779.664 301.228 L 776.791 300.072 C 779.207 296.71 781.371 293.326 784.386 290.518 C 790.392 281.615 800.302 263.959 807.678 256.44 C 809.343 256.038 810.757 255.697 811.919 255.416 z"/><path transform="translate(0,0)" fill="rgb(250,250,250)" d="M 811.919 255.416 C 829.462 249.662 892.402 230.69 907.76 228.472 C 921.317 226.514 1000.01 254.28 1012.89 260.599 C 1008.11 262.799 980.702 253.866 970.001 252.36 C 958.584 250.223 950.035 249.262 938.409 248.391 C 939.886 254.23 945.555 288.133 945.104 292.86 C 934.547 267.951 935.422 255.749 911.89 240.308 C 900.665 241.422 889.051 244.875 878.327 248.221 C 858.221 254.186 841.561 268.615 824.266 273.309 L 822.217 265.743 C 822.07 270.384 822.834 272.461 819.072 275.551 C 808.368 284.344 792.022 295.445 779.664 301.228 L 776.791 300.072 C 779.207 296.71 781.371 293.326 784.386 290.518 C 790.392 281.615 800.302 263.959 807.678 256.44 C 809.343 256.038 810.757 255.697 811.919 255.416 z"/><path transform="translate(0,0)" fill="url(#Gradient10)" d="M 811.919 255.416 C 816.017 256.73 818.207 255.579 822.332 254.471 C 822.421 257.07 821.816 259.001 821.433 261.591 C 816.242 265.313 810.234 260.76 808.864 265.695 C 812.349 265.019 818.84 263.327 821.96 264.093 L 822.217 265.743 C 822.07 270.384 822.834 272.461 819.072 275.551 C 808.368 284.344 792.022 295.445 779.664 301.228 L 776.791 300.072 C 779.207 296.71 781.371 293.326 784.386 290.518 C 790.392 281.615 800.302 263.959 807.678 256.44 C 809.343 256.038 810.757 255.697 811.919 255.416 z"/><path transform="translate(0,0)" fill="rgb(225,224,224)" d="M 811.919 255.416 C 816.017 256.73 818.207 255.579 822.332 254.471 C 822.421 257.07 821.816 259.001 821.433 261.591 C 816.242 265.313 810.234 260.76 808.864 265.695 C 797.324 273.947 790.266 287.032 784.386 290.518 C 790.392 281.615 800.302 263.959 807.678 256.44 C 809.343 256.038 810.757 255.697 811.919 255.416 z"/><path transform="translate(0,0)" fill="rgb(59,63,72)" d="M 938.409 248.391 C 950.035 249.262 958.584 250.223 970.001 252.36 C 962.772 256.431 950.006 247.344 942.518 253.149 C 938.244 267.99 974.144 299.725 985.421 306.904 C 997.917 307.038 1020.76 301.096 1033.31 297.29 C 1039.46 303.989 1040.14 314.969 1045.39 319.01 C 1019.6 318.68 979.648 316.053 954.708 319.061 C 951.746 311.973 946.407 299.945 945.104 292.86 C 945.555 288.133 939.886 254.23 938.409 248.391 z"/><path transform="translate(0,0)" fill="url(#Gradient9)" d="M 915.933 1360.63 C 931.308 1372.88 951.29 1381.14 966.473 1392.61 C 957.993 1424.4 947.435 1465.23 950.617 1498.41 C 960.085 1476.35 978.18 1438.3 996.048 1421.6 C 999.471 1418.4 1005.13 1416.14 1009.53 1414.38 C 1020.02 1418.23 1043.91 1425.97 1052.49 1430.43 C 1029.62 1446.62 1000.03 1470.42 980.855 1490.87 C 977.687 1494.25 969.144 1506.71 966.811 1506.74 L 967.559 1502.36 L 966.657 1501.23 C 966.928 1498.81 967.604 1495.42 968.03 1492.93 L 965.845 1491.42 C 963.402 1496.93 960.197 1499.9 957.145 1505.07 C 952.509 1512.92 947.976 1520.86 943.479 1528.8 C 943.496 1524.33 947.072 1516.1 944.51 1511.3 C 944.209 1513.79 944.14 1513.8 943.17 1516.15 C 935.746 1517.2 911.233 1496.74 908.133 1496.18 C 910.7 1491.01 909.812 1485.85 912.014 1481.54 C 931.352 1443.65 930.749 1404.66 916.895 1363.41 C 916.587 1362.48 916.266 1361.55 915.933 1360.63 z"/><path transform="translate(0,0)" fill="rgb(130,132,137)" d="M 965.845 1491.42 C 965.33 1488.31 970.891 1477.84 973.24 1475.67 C 972.186 1481.5 969.958 1487.28 968.03 1492.93 L 965.845 1491.42 z"/><path transform="translate(0,0)" fill="rgb(225,224,224)" d="M 1463.56 961.278 C 1467.79 960.786 1468.06 960.042 1471.28 961.544 C 1471.89 970.685 1425.46 989.913 1416.32 995.272 C 1406.95 1000.77 1387.2 1002.48 1375.92 1004.05 C 1359.48 1006.21 1343.06 1008.59 1326.68 1011.19 C 1247.9 1023.5 1168.95 1034.72 1089.86 1044.85 C 1084.1 1046.04 1081.94 1046.03 1076.15 1046.14 C 1095.71 1039.18 1115.54 1030.34 1135.51 1024.79 C 1154.55 1019.5 1175.41 1015.96 1194.86 1012.12 C 1239.31 1003.59 1283.84 995.487 1328.45 987.822 C 1356.18 982.782 1384.17 977.478 1411.83 972.07 C 1429.2 968.676 1445.92 964.441 1463.56 961.278 z"/><path transform="translate(0,0)" fill="url(#Gradient8)" d="M 601.822 513.887 C 605.677 489.786 604.695 488.151 628.78 481.443 C 642.314 486.037 662.109 496.684 672.527 506.61 C 669.998 508.514 664.579 512.29 662.741 514.455 C 659.17 540.871 665.517 569.574 671.189 595.32 C 672.981 598.237 674.787 604.193 676.01 607.667 C 658.719 604.886 644.485 605.03 627.657 602.769 C 601.909 570.523 597.359 557.738 601.822 513.887 z"/><path transform="translate(0,0)" fill="rgb(225,224,224)" d="M 601.822 513.887 C 605.677 489.786 604.695 488.151 628.78 481.443 C 642.314 486.037 662.109 496.684 672.527 506.61 C 669.998 508.514 664.579 512.29 662.741 514.455 C 659.554 515.482 658.904 515.276 655.593 515.259 C 655.615 512.956 655.838 514.127 654.738 511.787 C 637.506 505.093 618.747 508.506 601.822 513.887 z"/><path transform="translate(0,0)" fill="rgb(250,250,250)" d="M 655.593 515.259 C 658.904 515.276 659.554 515.482 662.741 514.455 C 659.17 540.871 665.517 569.574 671.189 595.32 L 670.368 594.902 C 664.306 585.005 653.21 527.081 655.593 515.259 z"/><path transform="translate(0,0)" fill="rgb(59,63,72)" d="M 1501.54 1517.34 L 1500.1 1498.41 C 1503.62 1507.74 1505.22 1514.55 1507.58 1524.17 C 1510.7 1532.84 1511.69 1540.78 1512.62 1549.92 C 1457.44 1568.45 1411.34 1584.39 1356.73 1606.09 C 1359.61 1601.04 1365.49 1592.28 1365.73 1587.03 C 1361.01 1593.58 1352.76 1608.05 1348.07 1615.47 C 1348.22 1594.07 1347.32 1575.89 1345.94 1554.47 C 1383.42 1548.99 1430.13 1539.33 1467.55 1531.76 C 1471.12 1529.92 1479.75 1528.09 1485.33 1525.35 C 1489.72 1523.19 1498.03 1518.28 1501.54 1517.34 z"/><path transform="translate(0,0)" fill="rgb(250,250,250)" d="M 1467.55 1531.76 C 1466.16 1534.5 1465.54 1533.97 1461.92 1535.57 C 1445.89 1540.29 1429.82 1544.9 1413.72 1549.39 C 1404.99 1551.76 1385.81 1554.86 1381.27 1561.8 C 1379.25 1564.89 1366.65 1584.37 1365.73 1587.03 C 1361.01 1593.58 1352.76 1608.05 1348.07 1615.47 C 1348.22 1594.07 1347.32 1575.89 1345.94 1554.47 C 1383.42 1548.99 1430.13 1539.33 1467.55 1531.76 z"/><path transform="translate(0,0)" fill="rgb(5,6,7)" d="M 1381.27 1561.8 C 1385.81 1554.86 1404.99 1551.76 1413.72 1549.39 C 1429.82 1544.9 1445.89 1540.29 1461.92 1535.57 L 1462.15 1536.96 C 1454.8 1541.86 1401.24 1555.66 1389.77 1558.75 C 1386.47 1559.64 1384.25 1561.34 1381.27 1561.8 z"/><path transform="translate(0,0)" fill="rgb(225,224,224)" d="M 1501.54 1517.34 L 1500.1 1498.41 C 1503.62 1507.74 1505.22 1514.55 1507.58 1524.17 C 1505.23 1524.95 1506.48 1524.83 1503.71 1523.7 C 1501.21 1519.95 1501.96 1521.97 1501.54 1517.34 z"/><path transform="translate(0,0)" fill="rgb(59,63,72)" d="M 574.81 1478.15 C 615.521 1478.13 621.249 1472.74 660.091 1492.29 C 666.345 1493.62 680.851 1501.28 688.013 1504.27 C 721.598 1518.28 753.677 1534.06 786.099 1550.5 C 784.282 1551.64 779.885 1554.2 778.61 1555.54 C 767.489 1561.31 754.939 1568.32 743.289 1572.54 C 739.588 1569.92 730.457 1563.37 727.51 1560.55 C 714.833 1554.42 696.183 1542.53 683.099 1535.28 C 647.028 1515.29 612.197 1495.8 574.81 1478.15 z"/><path transform="translate(0,0)" fill="rgb(254,57,0)" d="M 574.81 1478.15 C 615.521 1478.13 621.249 1472.74 660.091 1492.29 C 663.437 1495.29 727.751 1561.15 727.51 1560.55 C 714.833 1554.42 696.183 1542.53 683.099 1535.28 C 647.028 1515.29 612.197 1495.8 574.81 1478.15 z"/><path transform="translate(0,0)" fill="rgb(59,63,72)" d="M 584.363 499.871 C 577.772 530 581.367 588.603 590.314 617.987 C 591.93 619.933 592.059 621.23 592.789 623.682 C 591.265 626.204 566.194 636.028 561.521 637.787 C 538.299 613.511 533.653 589.235 535.212 556.174 C 535.469 550.729 534.277 543.517 535.714 538.371 C 535.862 533.905 535.211 529.755 538.299 527.097 C 551.377 515.842 569.414 508.319 584.363 499.871 z"/><path transform="translate(0,0)" fill="rgb(250,250,250)" d="M 584.363 499.871 C 577.772 530 581.367 588.603 590.314 617.987 C 580.236 607.033 578.388 570.89 574.166 557.336 C 573.96 543.507 574.46 523.324 575.919 509.654 C 565.225 514.753 553.652 524.662 542.458 531.322 C 538.896 534.282 538.795 535.661 537.053 540.187 C 535.781 539.288 536.239 539.885 535.714 538.371 C 535.862 533.905 535.211 529.755 538.299 527.097 C 551.377 515.842 569.414 508.319 584.363 499.871 z"/><path transform="translate(0,0)" fill="rgb(35,37,42)" d="M 542.458 531.322 C 553.652 524.662 565.225 514.753 575.919 509.654 C 574.46 523.324 573.96 543.507 574.166 557.336 L 573.865 557.849 C 571.909 554.516 572.472 519.353 572.475 512.721 C 569.83 514.885 559.926 523.042 557.11 524.325 C 549.359 527.855 546.653 535.585 543.182 537.997 L 540.982 537.3 C 542.403 535.863 543.274 534.862 544.565 533.302 L 542.458 531.322 z"/><path transform="translate(0,0)" fill="rgb(87,90,98)" d="M 967.385 347.449 C 970.927 353.287 972.752 357.226 974.674 363.887 L 978.002 363.663 C 982.955 362.233 986.202 361.174 991.359 360.489 C 992.603 361.128 1020.91 356.065 1025.88 355.616 C 1026.28 358.784 1026.5 366.872 1027.27 368.654 C 1013.33 387.466 1010.39 406.936 1013.01 430.06 C 1014.75 445.357 1035.69 473.804 1044.28 490.682 C 1036.4 491.841 1026.38 493.031 1018.73 494.628 C 1016.73 495.442 1016.44 494.922 1013.69 494.608 C 1010.17 495.698 987.351 502.457 984.558 502.966 L 984.471 501.927 C 987.085 500.621 987.242 500.853 988.583 498.348 C 987.419 486.623 989.941 486.768 998.48 478.953 C 992.469 449.955 977.173 384.774 966.126 359.158 L 953.308 358.892 C 947.662 357.75 942.542 357.975 936.783 357.932 C 947.161 351.574 955.45 348.685 967.385 347.449 z"/><path transform="translate(0,0)" fill="rgb(250,250,250)" d="M 967.385 347.449 C 970.927 353.287 972.752 357.226 974.674 363.887 C 990.517 406.239 1007.03 449.595 1013.69 494.608 C 1010.17 495.698 987.351 502.457 984.558 502.966 L 984.471 501.927 C 987.085 500.621 987.242 500.853 988.583 498.348 C 987.419 486.623 989.941 486.768 998.48 478.953 C 992.469 449.955 977.173 384.774 966.126 359.158 L 953.308 358.892 C 947.662 357.75 942.542 357.975 936.783 357.932 C 947.161 351.574 955.45 348.685 967.385 347.449 z"/><path transform="translate(0,0)" fill="rgb(5,6,7)" d="M 974.674 363.887 L 978.002 363.663 C 979.188 371.176 988.289 393.786 991.262 402.031 C 997.052 418.091 1001.77 433.668 1006.66 449.781 C 1009.03 457.591 1014.71 490.585 1016.87 494.102 L 1018.73 494.628 C 1016.73 495.442 1016.44 494.922 1013.69 494.608 C 1007.03 449.595 990.517 406.239 974.674 363.887 z"/><path transform="translate(0,0)" fill="url(#Gradient7)" d="M 991.359 360.489 C 1009.03 352.429 1018.55 348.088 1037.16 341.787 C 1059.31 356.125 1070.82 365.982 1088.4 386.506 C 1091.18 390.476 1094.29 394.653 1096.59 398.878 C 1104.99 409.277 1110.57 425.967 1113.29 438.921 C 1117.81 450.372 1121.59 476.239 1123.87 489.659 C 1100.04 476.179 1075.6 448.606 1062.35 424.76 C 1056.93 417.962 1042.55 383.655 1039.64 373.991 C 1037.92 370.528 1036.08 364.269 1034.81 360.402 L 1027.27 368.654 C 1026.5 366.872 1026.28 358.784 1025.88 355.616 C 1020.91 356.065 992.603 361.128 991.359 360.489 z"/><path transform="translate(0,0)" fill="rgb(87,90,98)" d="M 1062.35 424.76 C 1064.98 426.721 1065.89 427.692 1068.01 430.225 C 1071.4 430.324 1072.43 428.721 1075.94 426.449 C 1082.21 428.772 1106.81 438.305 1112.05 438.245 L 1112.65 439.249 L 1113.29 438.921 C 1117.81 450.372 1121.59 476.239 1123.87 489.659 C 1100.04 476.179 1075.6 448.606 1062.35 424.76 z"/><path transform="translate(0,0)" fill="rgb(250,250,250)" d="M 991.359 360.489 C 1009.03 352.429 1018.55 348.088 1037.16 341.787 C 1059.31 356.125 1070.82 365.982 1088.4 386.506 L 1086.83 388.254 C 1076.92 375.351 1056.56 360.881 1041.37 355.359 C 1037.72 354.238 1029.93 355.231 1025.88 355.616 C 1020.91 356.065 992.603 361.128 991.359 360.489 z"/><path transform="translate(0,0)" fill="rgb(130,132,137)" d="M 1025.88 355.616 C 1029.93 355.231 1037.72 354.238 1041.37 355.359 C 1040.98 356.404 1040.06 371.338 1039.64 373.991 C 1037.92 370.528 1036.08 364.269 1034.81 360.402 L 1027.27 368.654 C 1026.5 366.872 1026.28 358.784 1025.88 355.616 z"/><path transform="translate(0,0)" fill="rgb(162,162,164)" d="M 1088.4 386.506 C 1091.18 390.476 1094.29 394.653 1096.59 398.878 C 1092.28 396.457 1089.77 392.261 1086.83 388.254 L 1088.4 386.506 z"/><path transform="translate(0,0)" fill="url(#Gradient6)" d="M 1742.65 1002.61 C 1753.71 1000.78 1778.16 996.034 1788.55 997.646 C 1771.09 1036.74 1746.38 1072.17 1715.72 1102.07 C 1713.26 1104.49 1702.34 1115.14 1700.57 1116.19 C 1695.64 1117.13 1677.21 1130.03 1671.24 1133.43 C 1660.56 1139.41 1649.78 1145.2 1638.91 1150.79 C 1627.72 1156.49 1611.61 1162.29 1599.57 1166.55 C 1598.21 1164.59 1596.89 1163.16 1595.33 1161.36 C 1663.17 1126.48 1724.06 1081.21 1742.65 1002.61 z"/><path transform="translate(0,0)" fill="rgb(254,57,0)" d="M 779.452 1366.72 C 784.801 1372.71 808.292 1417.32 812.736 1426.35 L 788.009 1408.14 C 793.771 1422.41 800.52 1436.46 806.753 1450.57 C 794.256 1443.19 780.407 1432.84 768.849 1423.97 C 762.516 1440.09 748.364 1458.38 738.044 1472.6 C 732.212 1473.8 727.331 1473.91 721.421 1474.24 C 693.351 1477.67 658.303 1479.32 630.419 1473.44 C 642.097 1472.07 651.343 1469.25 662.208 1465.09 C 721.61 1442.34 752.299 1423.39 779.452 1366.72 z"/><path transform="translate(0,0)" fill="rgb(59,63,72)" d="M 1028.13 1547.25 C 1091.21 1513.89 1167.47 1502.45 1237.71 1515.24 C 1252.63 1517.95 1267.82 1520.46 1282.16 1525.66 C 1281.91 1528.18 1281.89 1527.17 1282.92 1529.75 C 1276.33 1530.58 1254.86 1528.03 1247.02 1527.5 C 1196.02 1524.03 1148.97 1529.07 1099.53 1541.45 C 1109.99 1557.55 1123.69 1575.5 1132.82 1590.38 C 1100.13 1569.83 1066.26 1554.39 1028.13 1547.25 z"/><path transform="translate(0,0)" fill="rgb(254,57,0)" d="M 331.062 1108.74 C 336.38 1110.25 370.513 1132.56 377.805 1136.94 C 394.19 1146.68 410.871 1155.91 427.825 1164.63 C 501.623 1202.67 563.625 1223.56 643.461 1244.69 L 646.932 1265.28 C 638.893 1262.51 623.694 1259.04 614.876 1256.7 C 600.568 1252.87 586.384 1248.58 572.347 1243.85 C 482.223 1214.21 401.849 1172.29 331.062 1108.74 z"/><path transform="translate(0,0)" fill="rgb(59,63,72)" d="M 505.902 546.861 L 508.776 546.359 C 510.297 549.069 510.09 563.676 510.149 567.534 C 510.42 585.5 513.73 603.19 517.304 620.74 C 518.067 622.225 517.716 621.317 518.118 623.183 C 521.448 638.631 528.921 658.963 537.151 672.17 C 520.47 660.859 509.797 666.866 493.349 655.562 C 480.259 646.566 474.537 629.092 471.986 613.984 C 470.329 604.128 469.05 583.625 469.538 573.653 C 473.129 564.649 497.053 549.241 505.902 546.861 z"/><path transform="translate(0,0)" fill="rgb(87,90,98)" d="M 505.902 546.861 L 508.776 546.359 C 510.297 549.069 510.09 563.676 510.149 567.534 C 510.42 585.5 513.73 603.19 517.304 620.74 L 516.733 621.194 L 515.561 620.649 C 510.803 608.006 508.897 599.173 506.6 585.864 C 502.132 592.863 501.617 599.266 500.13 607.124 C 490.787 609.854 479.795 611.61 471.986 613.984 C 470.329 604.128 469.05 583.625 469.538 573.653 C 473.129 564.649 497.053 549.241 505.902 546.861 z"/><path transform="translate(0,0)" fill="rgb(225,224,224)" d="M 505.902 546.861 L 508.776 546.359 C 510.297 549.069 510.09 563.676 510.149 567.534 C 510.42 585.5 513.73 603.19 517.304 620.74 L 516.733 621.194 L 515.561 620.649 C 510.803 608.006 508.897 599.173 506.6 585.864 C 505.768 573.073 505.822 560.886 505.935 548.11 L 505.902 546.861 z"/><path transform="translate(0,0)" fill="rgb(225,224,224)" d="M 469.538 573.653 C 473.129 564.649 497.053 549.241 505.902 546.861 L 505.935 548.11 C 502.104 551.645 472.803 573.073 469.538 573.653 z"/><path transform="translate(0,0)" fill="rgb(87,90,98)" d="M 783.784 410.455 C 804.662 400.946 825.8 392.019 847.174 383.684 C 892.025 365.999 914.644 356.041 953.563 326.989 C 958.887 332.628 963.372 340.741 967.385 347.449 C 955.45 348.685 947.161 351.574 936.783 357.932 C 942.542 357.975 947.662 357.75 953.308 358.892 C 926.476 358.796 918.935 361.285 893.937 372.453 C 861.717 386.849 837.603 408.182 808.528 427.083 C 813.671 472.654 816.479 497.133 837.717 537.979 L 825.121 538.326 C 811.376 498.876 794.307 450.533 783.784 410.455 z"/><path transform="translate(0,0)" fill="url(#Gradient5)" d="M 661.429 642.408 C 667.693 639.791 674.343 636.67 680.939 635.284 C 688.531 649.232 693.655 665.881 698.89 680.995 L 694.441 682.615 L 692.892 680.565 C 684.203 689.352 609.422 700.561 593.967 702.168 C 590.681 694.803 587.96 689.217 585.933 681.426 C 598.342 673.077 649.382 645.43 661.429 642.408 z"/><path transform="translate(0,0)" fill="rgb(225,224,224)" d="M 661.429 642.408 C 667.693 639.791 674.343 636.67 680.939 635.284 C 688.531 649.232 693.655 665.881 698.89 680.995 L 694.441 682.615 L 692.892 680.565 C 684.938 669.057 676.622 654.02 669.453 641.689 C 665.438 642.674 664.208 643.829 661.429 642.408 z"/><path transform="translate(0,0)" fill="rgb(254,57,0)" d="M 1599.57 1166.55 C 1611.61 1162.29 1627.72 1156.49 1638.91 1150.79 C 1649.78 1145.2 1660.56 1139.41 1671.24 1133.43 C 1677.21 1130.03 1695.64 1117.13 1700.57 1116.19 C 1636.31 1173.76 1545.37 1212.1 1461.06 1227.35 C 1467.66 1213.07 1473.79 1207.45 1489.37 1202.01 C 1508.25 1195.41 1528.45 1188.33 1547.78 1183.28 C 1551.23 1179.74 1586.86 1165.3 1595.33 1161.36 C 1596.89 1163.16 1598.21 1164.59 1599.57 1166.55 z"/><path transform="translate(0,0)" fill="rgb(59,63,72)" d="M 1547.78 1183.28 C 1551.23 1179.74 1586.86 1165.3 1595.33 1161.36 C 1596.89 1163.16 1598.21 1164.59 1599.57 1166.55 C 1583.52 1171.44 1563.26 1180.41 1547.78 1183.28 z"/><path transform="translate(0,0)" fill="rgb(254,57,0)" d="M 390.975 665.318 C 394.011 663.269 393.453 662.892 396.413 663.049 C 400.391 679.77 403.982 690.438 410.186 706.395 C 391.758 713.149 357.718 734.685 343.879 738.246 C 340.433 731.504 338.551 726.429 332.769 721.543 L 331.671 720.54 C 332.396 709.078 327.896 698.474 338.177 692.135 C 350.846 687.1 376.094 672.374 390.975 665.318 z"/><path transform="translate(0,0)" fill="rgb(254,186,61)" d="M 390.975 665.318 C 390.344 669.506 388.582 672.094 384.816 674.386 C 377.99 678.543 344.95 700.028 339.675 699.518 C 338.325 696.141 338.469 695.685 338.177 692.135 C 350.846 687.1 376.094 672.374 390.975 665.318 z"/><path transform="translate(0,0)" fill="rgb(59,63,72)" d="M 885.71 1157.46 C 894.994 1159.28 907.548 1158.92 918.19 1161.49 C 980.255 1176.5 1034.56 1203.93 1078.52 1250.21 C 1073.83 1248.84 1055.8 1238.04 1049.58 1234.9 C 1038.19 1229.13 1027.14 1223.64 1015.41 1218.29 C 986.769 1205.24 954.461 1197.82 926.142 1184.87 C 915.462 1179.99 896.252 1165.1 885.71 1157.46 z"/><path transform="translate(0,0)" fill="rgb(59,63,72)" d="M 444.061 593.196 L 445.899 591.61 C 447.717 593.844 449.052 609.72 449.59 613.742 C 452.09 632.421 456.509 652.765 463.246 670.466 C 465.154 673.156 466.179 673.526 464.837 676.921 L 465.58 679.22 L 469.565 680.688 L 469.624 682.255 C 463.864 685.098 453.49 686.601 446.979 687.375 L 431.055 686.845 C 423.573 672.059 417.746 633.234 416.052 615.738 C 424.151 607.408 436.999 601.585 444.061 593.196 z"/><path transform="translate(0,0)" fill="rgb(225,224,224)" d="M 444.061 593.196 L 445.899 591.61 C 447.717 593.844 449.052 609.72 449.59 613.742 C 452.09 632.421 456.509 652.765 463.246 670.466 L 462.359 670.073 C 452.239 658.194 445.921 615.206 443.648 598.995 L 444.061 593.196 z"/><path transform="translate(0,0)" fill="url(#Gradient4)" d="M 416.052 615.738 C 424.151 607.408 436.999 601.585 444.061 593.196 L 443.648 598.995 L 443.095 600.525 C 442.332 602.666 442.017 604.087 441.51 606.296 C 435.534 611.013 423.663 618.729 416.052 615.738 z"/><path transform="translate(0,0)" fill="rgb(35,37,42)" d="M 446.979 687.375 C 451.006 682.787 459.067 678.812 464.837 676.921 L 465.58 679.22 L 469.565 680.688 L 469.624 682.255 C 463.864 685.098 453.49 686.601 446.979 687.375 z"/><path transform="translate(0,0)" fill="rgb(59,63,72)" d="M 322.037 700.006 L 322.731 701.388 C 309.291 727.439 307.677 752.063 310.596 781.146 C 311.261 787.774 319.399 809.951 317.732 813.739 C 313.204 812.392 302.644 801.069 298.598 797.035 C 277.567 774.876 273.315 755.472 270.635 726.208 C 287.301 717.354 305.057 708.902 322.037 700.006 z"/><path transform="translate(0,0)" fill="rgb(59,63,72)" d="M 770.248 1667.68 C 732.888 1634.38 699.251 1598.76 657.665 1569.85 C 651.658 1565.67 640.078 1556.77 635.574 1551.56 C 665.28 1568.06 696.312 1582.63 726.42 1598.4 C 737.534 1604.23 748.41 1610.1 759.964 1615.04 L 763.938 1601.03 C 764.769 1605.34 765.622 1609.65 766.498 1613.95 L 768.168 1614.81 C 769.341 1618.01 770.022 1624.57 769.702 1627.82 C 767.645 1639.86 769.55 1655.29 770.248 1667.68 z"/><path transform="translate(0,0)" fill="rgb(87,90,98)" d="M 698.119 529.822 C 704.936 520.849 758.43 501.552 771.952 495.965 C 774.309 503.163 776.495 509.639 779.231 516.694 C 780.377 520.089 781.473 522.084 780.709 525.547 C 774.257 530.952 709.281 558.322 698.166 562.642 C 697.691 550.744 697.698 541.729 698.119 529.822 z"/><path transform="translate(0,0)" fill="rgb(250,250,250)" d="M 698.119 529.822 C 704.936 520.849 758.43 501.552 771.952 495.965 C 774.309 503.163 776.495 509.639 779.231 516.694 C 763.593 518.602 747.964 519.989 732.353 522.227 C 724.199 523.396 704.586 529.641 698.119 529.822 z"/><path transform="translate(0,0)" fill="rgb(254,57,0)" d="M 715.928 1249.58 C 761.5 1258.48 815.59 1281.79 851.764 1310.55 C 862.103 1318.78 873.893 1330.7 883.547 1340.23 C 869.642 1332.33 857.409 1323.43 842.764 1315.73 C 800.589 1293.57 759.119 1281.55 713.473 1269.35 L 712.131 1267.15 C 716.162 1263.39 716.031 1254.72 715.928 1249.58 z"/><path transform="translate(0,0)" fill="rgb(254,57,0)" d="M 908.438 572.045 L 909.327 574.239 C 896.445 589.443 891.314 596.992 891.364 617.805 C 891.414 638.95 897.508 652.708 912.479 667.502 C 917.242 663.183 935.853 652.536 942.376 648.403 C 976.05 627.072 986.46 610.649 1006.49 579.014 C 1003.64 591.313 1003.53 602.912 999.343 614.917 C 995.808 625.049 990.867 626.281 983.58 633.11 C 962.468 652.895 934.191 664.313 907.631 676.625 C 906.648 676.238 902.01 674.351 901.555 673.927 C 889.213 662.441 879.028 620.384 875.212 605.64 C 880.505 597.253 900.545 579.032 908.438 572.045 z"/><path transform="translate(0,0)" fill="rgb(254,57,0)" d="M 534.709 821.633 C 542.464 828.324 562.923 850.149 571.283 858.323 C 584.986 871.721 613.395 895.825 622.309 909.98 L 621.46 910.948 C 610.715 906.867 595.603 899.364 584.969 894.377 C 568.061 886.447 548.004 877.58 531.981 868.267 C 531.815 850.13 532.409 839.572 534.709 821.633 z"/><path transform="translate(0,0)" fill="url(#Gradient3)" d="M 1439.88 1162.26 C 1440.89 1143.99 1437.04 1133.48 1443.02 1114.36 C 1450.48 1090.51 1456.26 1045.73 1466.23 1024.59 C 1469.54 1024.26 1470 1025.52 1473.61 1027.83 L 1475.76 1027.33 C 1475.99 1036.26 1472.03 1053.72 1475.43 1059.9 C 1469.26 1078.75 1461.98 1110.43 1458.69 1130.1 C 1457.55 1121.5 1458.27 1114 1458.86 1105.42 C 1454.51 1114.41 1444.82 1148.85 1439.88 1162.26 z"/><path transform="translate(0,0)" fill="rgb(254,57,0)" d="M 698.89 680.995 C 703.187 690.147 707.478 702.589 710.783 712.216 C 700.361 721.936 691.86 729.381 680.89 738.493 C 674.676 743.855 656.786 743.328 653.206 737.122 C 656.186 734.616 657.495 738.207 662.018 736.994 C 658.769 735.085 654.378 734.729 650.565 734.094 C 671.879 717.504 681.381 706.28 694.441 682.615 L 698.89 680.995 z"/><path transform="translate(0,0)" fill="rgb(240,32,0)" d="M 680.89 738.493 C 674.676 743.855 656.786 743.328 653.206 737.122 C 656.186 734.616 657.495 738.207 662.018 736.994 C 669.508 736.621 674.763 735.186 680.89 738.493 z"/><path transform="translate(0,0)" fill="url(#Gradient2)" d="M 939.744 1603.85 C 944.401 1613.79 949.548 1634.56 952.919 1640.03 L 953.523 1641.63 C 951.824 1642.9 869.765 1659.91 859.898 1661.99 C 864.544 1657.89 885.31 1653.27 892.532 1650.98 C 896.844 1647.42 915.843 1636.43 921.583 1633.89 C 932.126 1621.24 933.451 1619.11 939.744 1603.85 z"/><path transform="translate(0,0)" fill="rgb(59,63,72)" d="M 921.583 1633.89 C 919.119 1640.05 909.207 1641.45 909.047 1643.54 L 912.909 1643.7 L 913.904 1644.96 C 911.706 1649.97 897.945 1650.71 892.532 1650.98 C 896.844 1647.42 915.843 1636.43 921.583 1633.89 z"/><path transform="translate(0,0)" fill="rgb(59,63,72)" d="M 776.368 1122.92 C 783.933 1123.47 789.261 1123.92 796.426 1126.64 L 798.04 1129.31 C 795.33 1132.48 794.439 1133.4 792.461 1136.99 C 788.912 1157.09 784.826 1175.26 779.276 1194.95 C 777.321 1201.88 775.863 1210.63 773.052 1216.99 C 771.94 1206.8 770.97 1173.88 772.954 1164.31 C 774.769 1150.78 774.172 1137.03 776.368 1122.92 z"/><path transform="translate(0,0)" fill="rgb(162,162,164)" d="M 776.368 1122.92 C 783.933 1123.47 789.261 1123.92 796.426 1126.64 L 798.04 1129.31 C 795.33 1132.48 794.439 1133.4 792.461 1136.99 C 782.539 1147.14 780.124 1155.41 772.954 1164.31 C 774.769 1150.78 774.172 1137.03 776.368 1122.92 z"/><path transform="translate(0,0)" fill="rgb(250,250,250)" d="M 1440.17 939.527 C 1449.23 944.65 1463.7 952.297 1471.42 958.573 C 1443.62 959.238 1415.87 961.765 1388.12 963.305 C 1383.04 963.587 1378 964.031 1372.91 963.936 C 1378.47 960.796 1409.4 949.263 1418.1 945.618 C 1422.39 944.881 1432.91 940.976 1440.17 939.527 z"/><path transform="translate(0,0)" fill="rgb(254,57,0)" d="M 804.152 578.068 L 805.142 578.582 C 806.981 581.541 807.2 581.511 807.596 585.098 C 802.383 591.961 745.548 616.672 732.477 625.397 C 729.918 621.214 727.841 617.112 725.579 612.775 C 750.718 600.524 779.016 590.237 804.152 578.068 z"/><path transform="translate(0,0)" fill="rgb(254,57,0)" d="M 454.316 750.203 L 455.4 750.265 C 450.09 759.919 364.384 792.607 349.279 798.426 C 347.518 795.728 347.738 795.086 347.407 791.885 C 354.648 781.738 437.841 754.082 454.316 750.203 z"/><path transform="translate(0,0)" fill="rgb(250,250,250)" d="M 819.209 1614.41 C 860.495 1605.12 904.925 1593.88 946.503 1587.7 C 948.425 1605.17 950.564 1622.61 952.919 1640.03 C 949.548 1634.56 944.401 1613.79 939.744 1603.85 L 938.679 1599.06 C 933.878 1596.55 833.678 1614.01 820.846 1616.21 L 819.209 1614.41 z"/><path transform="translate(0,0)" fill="rgb(254,57,0)" d="M 930.247 525.962 L 931.047 526.236 L 930.802 527.379 C 908.438 542.035 869.994 567.246 845.131 574.306 L 839.626 560.948 C 860.973 555.074 909.261 535.029 930.247 525.962 z"/><path transform="translate(0,0)" fill="rgb(87,90,98)" d="M 824.266 273.309 C 841.561 268.615 858.221 254.186 878.327 248.221 L 879.037 249.989 L 876.834 252.339 L 877.303 253.33 C 865.255 258.803 847.542 267.712 837.154 275.815 C 836.751 297.873 842.784 319.423 848.3 340.64 C 839.487 325.612 827.484 290.536 824.266 273.309 z"/><path transform="translate(0,0)" fill="rgb(59,63,72)" d="M 527.504 677.538 C 533.655 680.816 549.888 701.266 556.007 707.097 C 561.186 712.031 563.593 713.134 569.17 717.258 L 567.399 718.415 L 542.698 722.105 C 538.584 713.34 525.633 686.16 527.504 677.538 z"/><path transform="translate(0,0)" fill="rgb(59,63,72)" d="M 486.04 689.491 C 486.07 689.525 486.1 689.559 486.13 689.593 C 492.262 704.292 506.814 715.611 514.802 726.726 L 514.524 728.231 C 511.186 729.843 508.602 729.791 504.916 730.144 C 499.442 728.095 495.726 724.662 492.311 719.993 C 488.343 714.567 473.287 699.817 474.264 693.517 C 477.359 691.254 482.19 690.459 486.04 689.491 z"/><path transform="translate(0,0)" fill="url(#Gradient1)" d="M 700.384 1220.13 L 702.132 1220.51 L 703.56 1218.58 L 703.985 1219.15 L 703.269 1219.17 C 704.551 1220.63 704.2 1219.99 704.59 1221.09 L 706.405 1225.07 L 708.706 1221 C 710.983 1223.28 710.865 1224.34 713.013 1227.07 C 713.706 1234.3 714.063 1239.92 713.616 1247.23 C 714.9 1248.98 714.393 1248.95 715.928 1249.58 C 716.031 1254.72 716.162 1263.39 712.131 1267.15 L 713.473 1269.35 C 711.503 1268.87 707.665 1268.02 706.645 1266.36 C 700.702 1256.72 700.91 1230.79 700.384 1220.13 z"/><path transform="translate(0,0)" fill="rgb(35,37,42)" d="M 706.405 1225.07 C 705.441 1231.55 707.859 1243.84 706.376 1247.81 C 703.514 1242.57 702.478 1228.13 703.044 1222.05 L 704.59 1221.09 L 706.405 1225.07 z"/><path transform="translate(0,0)" fill="rgb(59,63,72)" d="M 712.131 1267.15 L 710.917 1265.57 C 710.871 1260.97 712.613 1251.76 713.616 1247.23 C 714.9 1248.98 714.393 1248.95 715.928 1249.58 C 716.031 1254.72 716.162 1263.39 712.131 1267.15 z"/><path transform="translate(0,0)" fill="rgb(130,132,137)" d="M 331.671 720.54 L 332.769 721.543 C 333.514 728.953 330.61 754.277 328.833 761.872 L 329.196 760.184 L 328.069 759.989 C 327.336 746.734 328.55 733.443 331.671 720.54 z"/><path transform="translate(0,0)" fill="rgb(130,132,137)" d="M 879.037 249.989 C 887.583 247.814 909.538 239.846 916.179 245.805 C 911.892 247.034 904.452 247.363 899.673 248.138 C 891.867 249.403 884.927 251.253 877.303 253.33 L 876.834 252.339 L 879.037 249.989 z"/><path transform="translate(0,0)" fill="rgb(130,132,137)" d="M 1282.16 1525.66 C 1291.11 1528.03 1300.52 1530.34 1309.25 1533.31 C 1300.39 1532.83 1289.46 1529.94 1282.92 1529.75 C 1281.89 1527.17 1281.91 1528.18 1282.16 1525.66 z"/><path transform="translate(0,0)" fill="rgb(225,224,224)" d="M 819.209 1614.41 L 820.846 1616.21 C 817.424 1617.02 810.215 1619.09 807.154 1617.86 C 810.52 1615.65 815.148 1615.19 819.209 1614.41 z"/><path transform="translate(0,0)" fill="rgb(240,32,0)" d="M 908.438 572.045 C 910.891 569.574 912.57 567.203 915.666 566.218 C 914.788 569.292 911.691 571.844 909.327 574.239 L 908.438 572.045 z"/><path transform="translate(0,0)" fill="rgb(130,132,137)" d="M 776.791 300.072 L 779.664 301.228 C 775.471 305.699 772.957 308.421 768.216 312.337 C 770.997 308.242 773.945 304.134 776.791 300.072 z"/><path transform="translate(0,0)" fill="rgb(87,90,98)" d="M 1063.82 1125.74 C 1058.73 1126.05 1057 1126.42 1052.16 1125.28 C 1055.17 1123.59 1056.64 1123.93 1060.3 1123.59 L 1063.82 1125.74 z"/><path transform="translate(0,0)" fill="rgb(254,57,0)" d="M 1413.9 1361.53 C 1445.25 1350.12 1467.99 1341.71 1494.49 1319.98 C 1503.06 1312.95 1523.05 1294.28 1531.41 1290.15 C 1541.31 1285.26 1569.37 1279.77 1581.49 1277 L 1679.66 1255.19 C 1656.16 1270.7 1633.38 1287.84 1610.21 1303.89 C 1593.75 1315.3 1576.51 1325.81 1560.7 1338.05 C 1530.21 1363.65 1502.96 1393.51 1470.4 1416.63 C 1504.09 1428.69 1542.03 1429.44 1577.33 1424.47 C 1568.97 1428.79 1507.11 1459.89 1505.09 1462.74 C 1504.54 1463.72 1503.8 1464.28 1502.96 1465.12 C 1500.12 1465.94 1496.83 1466.07 1494.09 1464.98 C 1447.19 1446.44 1341.95 1405.29 1317.45 1362.85 C 1323.69 1361.54 1330.1 1361.72 1336.43 1361.32 C 1346.34 1360.61 1356.21 1359.54 1366.03 1358.12 C 1403.69 1352.7 1416.53 1343.97 1450 1331.19 C 1441.86 1340.1 1424.23 1352.8 1413.9 1361.53 z"/><path transform="translate(0,0)" fill="rgb(254,57,0)" d="M 439.722 1271.86 C 462.132 1283.56 486.201 1291.39 509.247 1301.72 C 520.296 1306.68 531.511 1311.39 542.595 1316.27 C 560.476 1324.11 578.243 1332.2 595.89 1340.55 C 609.906 1347.25 625.914 1355.58 640.181 1361.15 C 634.306 1355.23 626.945 1343.38 620.397 1335.79 C 652.937 1354.57 678.764 1365.85 715.475 1375.9 C 713.929 1379.44 711.561 1384.93 709.013 1387.56 C 690.336 1406.81 650.419 1422.87 625.851 1432.01 C 611.765 1437.26 555.294 1460.35 543.588 1461.19 L 539.388 1459.29 C 522.795 1451.88 493.552 1434.52 478.403 1423.73 C 520.012 1423.96 557.794 1435.86 598.127 1418.97 C 567.251 1397.16 535.013 1361.8 506.879 1335.35 C 485.322 1315.08 459.672 1293.03 439.722 1271.86 z"/><path transform="translate(0,0)" fill="rgb(254,57,0)" d="M 369.337 1316.25 C 400.508 1325.02 449.592 1329.61 475.489 1347.57 C 488.403 1356.53 534.507 1399.53 543.298 1412.85 C 513.219 1407.76 466.687 1403.58 442.115 1387.29 C 434.009 1381.92 370.382 1321.08 369.337 1316.25 z"/><path transform="translate(0,0)" fill="rgb(254,57,0)" d="M 203.518 889.743 C 227.213 891.901 293.805 906.152 316.995 914.324 C 326.619 917.715 382.802 957.188 390.96 965.31 C 377.95 964.454 354.448 959.42 340.455 957.758 C 327.805 956.255 307.597 953.489 295.967 951.384 C 278.035 948.137 252.106 927.143 237.072 916.764 C 229.592 911.6 209.388 896.327 203.518 889.743 z"/><path transform="translate(0,0)" fill="rgb(254,57,0)" d="M 1733.67 805.799 C 1737.09 808.955 1742.42 844.11 1743.11 850.558 C 1729.49 863.503 1713.11 870.332 1695.63 876.11 C 1686.8 872.053 1677.1 866.696 1668.4 862.154 C 1661.11 858.553 1651.85 855.098 1644.18 852.013 C 1651.94 844.476 1673.01 829.324 1683.61 827.286 C 1705.65 823.051 1715.04 817.988 1733.67 805.799 z"/><path transform="translate(0,0)" fill="rgb(254,57,0)" d="M 1666.42 1315.86 L 1669.05 1316.18 L 1669.25 1317.43 C 1657.15 1332.57 1643.01 1346.99 1629.58 1360.99 C 1605.33 1386.28 1570.03 1392.38 1537.38 1401.98 C 1535.68 1402.16 1535.98 1402.04 1534.23 1401.68 L 1534.65 1400.43 C 1561.73 1378.69 1588.56 1349.01 1617.68 1332.6 C 1627.77 1326.91 1652.04 1321.98 1665.01 1316.47 L 1666.42 1315.86 z"/><path transform="translate(0,0)" fill="rgb(254,57,0)" d="M 272.383 1191.54 C 284.072 1196.48 298.714 1199.56 310.799 1204.33 C 338.107 1215.12 370.73 1227.58 396.904 1240.33 L 383.414 1241.27 C 363.996 1244.83 336.292 1252.31 319.092 1254.59 C 297.746 1244.11 282.551 1212.93 272.383 1191.54 z"/><path transform="translate(0,0)" fill="rgb(254,57,0)" d="M 1695.09 654.07 C 1697.08 653.829 1696.09 653.704 1698.04 654.528 C 1695.77 658.53 1581.15 742.78 1566.89 753.197 L 1564.56 753.76 L 1564.54 752.327 C 1578.26 730.876 1588.46 707.638 1601.17 685.645 C 1603.23 682.07 1609.61 678.044 1613.41 676.756 C 1639.78 667.813 1668.69 662.373 1695.09 654.07 z"/><path transform="translate(0,0)" fill="rgb(254,57,0)" d="M 1573.15 859.326 C 1602.23 857.325 1617.94 875.442 1635.16 896.025 C 1626.6 899.76 1616.39 901.92 1607.24 904.195 C 1593.47 907.078 1579.61 911.551 1566.88 903.66 C 1559.92 899.345 1553.84 892.183 1552.25 884.025 C 1551.2 878.745 1552.4 873.266 1555.55 868.906 C 1560.07 862.635 1565.92 860.55 1573.15 859.326 z"/><path transform="translate(0,0)" fill="rgb(254,57,0)" d="M 1455.89 354.814 C 1456.26 359.474 1443.27 381.692 1440.24 386.49 C 1433.18 397.669 1425.2 421.147 1417.57 430.738 C 1401.05 451.509 1362.81 480.385 1339.75 493.286 L 1339.59 491.76 C 1347.02 480.735 1359.16 466.816 1367.78 456.205 C 1388.16 431.108 1409.2 406.081 1431.33 382.525 C 1439.4 373.933 1447.67 362.361 1455.89 354.814 z"/><path transform="translate(0,0)" fill="rgb(254,57,0)" d="M 1739.71 1196.33 C 1748.45 1196.38 1757.92 1200.77 1766.21 1203.97 C 1752.49 1222.15 1742.68 1232.75 1719.37 1234.51 C 1713.36 1234.47 1697.87 1235.06 1693.65 1232.34 L 1694.06 1230.5 C 1706.29 1217.34 1721.56 1198.5 1739.71 1196.33 z"/><path transform="translate(0,0)" fill="rgb(254,57,0)" d="M 1373.37 527.752 C 1376.52 532.744 1367.17 545.21 1367.13 550.442 C 1366.99 567.546 1363.56 595.119 1338.25 585.728 C 1335.17 584.181 1335.24 584.18 1332.69 581.839 C 1325.65 566.201 1362.81 537.156 1373.37 527.752 z"/><path transform="translate(0,0)" fill="rgb(254,57,0)" d="M 1267.55 571.76 L 1267.85 573.352 C 1264.43 584.667 1249.5 624.953 1241.95 631.915 C 1230.56 642.412 1211.25 657.777 1198.74 668.542 C 1197.16 660.521 1257.56 584.674 1267.55 571.76 z"/><path transform="translate(0,0)" fill="rgb(254,57,0)" d="M 1475.37 516.814 C 1476.73 517.225 1476.03 516.824 1477.11 518.459 C 1471.83 538.842 1464.79 547.265 1444.72 553.926 C 1433.8 540.576 1465.67 521.607 1475.37 516.814 z"/></svg>