<svg version="1.1" xmlns="http://www.w3.org/2000/svg" style="display: block;" viewBox="0 0 2048 2048" width="1024" height="1024" preserveAspectRatio="none"><defs><linearGradient id="Gradient1" gradientUnits="userSpaceOnUse" x1="1828.52" y1="341.361" x2="1812.03" y2="314.919"><stop class="stop0" offset="0" stop-opacity="1" stop-color="rgb(255,204,172)"/><stop class="stop1" offset="1" stop-opacity="1" stop-color="rgb(246,242,219)"/></linearGradient><linearGradient id="Gradient2" gradientUnits="userSpaceOnUse" x1="237.22" y1="316.607" x2="222.404" y2="327.395"><stop class="stop0" offset="0" stop-opacity="1" stop-color="rgb(242,183,152)"/><stop class="stop1" offset="1" stop-opacity="1" stop-color="rgb(255,235,208)"/></linearGradient><linearGradient id="Gradient3" gradientUnits="userSpaceOnUse" x1="225.705" y1="420.875" x2="209.94" y2="448.684"><stop class="stop0" offset="0" stop-opacity="1" stop-color="rgb(249,208,172)"/><stop class="stop1" offset="1" stop-opacity="1" stop-color="rgb(255,143,95)"/></linearGradient><linearGradient id="Gradient4" gradientUnits="userSpaceOnUse" x1="1839.51" y1="443.77" x2="1826.96" y2="418.356"><stop class="stop0" offset="0" stop-opacity="1" stop-color="rgb(255,169,127)"/><stop class="stop1" offset="1" stop-opacity="1" stop-color="rgb(248,229,204)"/></linearGradient><linearGradient id="Gradient5" gradientUnits="userSpaceOnUse" x1="1341.07" y1="513.479" x2="1376.83" y2="564.662"><stop class="stop0" offset="0" stop-opacity="1" stop-color="rgb(251,230,206)"/><stop class="stop1" offset="1" stop-opacity="1" stop-color="rgb(255,255,255)"/></linearGradient><linearGradient id="Gradient6" gradientUnits="userSpaceOnUse" x1="882.198" y1="720.969" x2="880.358" y2="730.28"><stop class="stop0" offset="0" stop-opacity="1" stop-color="rgb(4,3,0)"/><stop class="stop1" offset="1" stop-opacity="1" stop-color="rgb(22,29,65)"/></linearGradient><linearGradient id="Gradient7" gradientUnits="userSpaceOnUse" x1="1824.33" y1="656.234" x2="1821.79" y2="633.754"><stop class="stop0" offset="0" stop-opacity="1" stop-color="rgb(255,207,185)"/><stop class="stop1" offset="1" stop-opacity="1" stop-color="rgb(255,237,203)"/></linearGradient><linearGradient id="Gradient8" gradientUnits="userSpaceOnUse" x1="234.056" y1="610.344" x2="233.915" y2="629.671"><stop class="stop0" offset="0" stop-opacity="1" stop-color="rgb(240,217,184)"/><stop class="stop1" offset="1" stop-opacity="1" stop-color="rgb(254,177,136)"/></linearGradient></defs><path transform="translate(0,0)" fill="rgb(0,16,58)" d="M 274.049 332.03 C 264.94 296.981 264.872 245.504 276.921 210.414 C 278.095 206.994 279.926 201.887 283.327 200.316 C 287.756 203.463 299.135 231.032 302.611 237.779 C 339.792 309.944 405.495 387.693 476.461 427.539 C 471.051 406.681 469.167 384.864 475.592 363.988 C 510.288 405.504 547.885 438.437 597.442 461.396 C 618.05 470.944 641.884 480.003 660.869 491.999 C 677.837 502.721 689.718 518.823 703.643 532.47 C 731.183 559.46 774.89 582.35 812.362 592.568 C 824.251 588.741 838.762 579.739 850 573.996 C 872.488 562.504 894.96 549.059 917.391 537.803 C 911.383 548.133 907.464 556.875 900.707 567.211 C 914.159 563.967 929.673 556.843 943.152 554.63 C 975.389 549.337 1006.61 550.024 1036.95 535.043 C 1032.61 555.274 1029.58 564.394 1054.96 565.607 C 1070.63 566.355 1082.98 564.01 1098.19 561.295 C 1092.93 568.538 1089.46 573.213 1085.28 581.024 C 1119.96 592.039 1149.87 592.492 1185.35 584.399 C 1180.15 592.523 1177.52 594.452 1170.33 600.821 C 1232.37 591.215 1288.73 579.92 1339.37 538.618 C 1357.29 524.004 1371.98 503.33 1391.92 491.837 C 1412.06 480.233 1435.48 472.622 1456.59 462.329 C 1491.36 445.386 1522.94 422.559 1549.94 394.857 C 1560.74 383.642 1570.52 371.239 1581.41 360.066 C 1583.53 385.915 1587.27 401.753 1579.45 426.725 C 1631.38 403.25 1709.82 313.767 1737.07 263.267 C 1743.39 251.562 1764.55 205.149 1769.37 200.712 L 1771.06 201.242 C 1792.26 236.019 1784.1 301.509 1776.93 339.497 C 1810.6 310.335 1841.82 269.765 1864.14 231.269 C 1867.58 225.353 1876.34 202.999 1881.2 201.625 C 1884.71 203.491 1886.01 207.986 1887.15 211.618 C 1900.98 255.553 1895.74 338.278 1875.07 378.053 C 1914.37 355.197 1941.12 312.987 1970.43 282.802 C 1973 291.584 1974.53 298.34 1975.02 307.519 C 1978.59 374.386 1954.46 428.771 1912.33 478.24 C 1937.65 472.045 1974.62 452.303 1997.02 437.833 L 1996.87 438.653 C 1989.68 479.689 1961.3 527.279 1932.22 556.402 C 1913.6 575.056 1882.42 599.732 1857.27 608.225 C 1863.25 608.06 1869.44 608.148 1875.44 608.154 L 1884.07 606.854 C 1901.59 601.896 1933.15 592.134 1949.8 589.19 C 1903.93 655.497 1868.26 676.289 1791.41 697.593 C 1814.55 698.483 1837.77 697.728 1860.93 697.764 C 1866.2 697.773 1871.45 697.784 1876.7 697.274 C 1853.09 724.013 1816.68 742.791 1783.15 753.747 C 1772.32 757.287 1760.59 760.085 1750.12 763.621 C 1746.6 763.993 1748.9 764.065 1746.01 764.933 C 1749.17 766.639 1774.11 765.773 1779.73 765.692 L 1793.74 766.172 C 1753.52 801.013 1704.94 824.798 1652.76 835.19 C 1665.21 839.195 1675.95 840.047 1688.43 845.003 C 1653.73 857.842 1635.17 863.587 1598.48 868.777 C 1608.41 871.664 1616.86 874.048 1625.95 879.095 C 1579.57 896.368 1521.73 905.222 1473.28 917.682 C 1442.36 925.635 1387.85 914.871 1359.15 901.697 C 1356.23 900.349 1353.37 898.889 1350.56 897.321 C 1362.27 908.599 1372.04 914.206 1385.07 923.551 C 1404.37 937.392 1425.26 950.96 1444 965.414 C 1438.54 966.053 1433.1 966.778 1427.67 967.589 C 1447.19 982.695 1527.07 1010.67 1554.02 1018.82 C 1572.84 1024.52 1597.72 1028.32 1617.66 1036.42 C 1605.57 1041.75 1580.45 1053.34 1568.79 1056.34 C 1550.58 1061.03 1508.61 1046.26 1489.95 1039.81 C 1509.78 1053.57 1534.11 1074.2 1553.79 1089.28 C 1566.2 1098.79 1599.03 1123.74 1607.35 1133.49 L 1607.65 1135.65 C 1600.19 1142.39 1550.39 1134.38 1540.14 1132.28 C 1526.52 1129.49 1511.55 1126.81 1499.29 1120.22 L 1498.72 1120.75 C 1506.26 1128.19 1556.65 1158.75 1567.64 1165.21 C 1607.68 1188.72 1647.78 1215.65 1690.83 1233.36 C 1695.76 1235.39 1703.51 1235.84 1708.88 1235.78 C 1730.07 1235.56 1750.8 1230.59 1771.52 1227.37 C 1767.02 1244.61 1762.42 1261.83 1757.71 1279.02 C 1752.7 1296.96 1742.07 1328.02 1742.14 1345.51 C 1742.26 1375.45 1744.16 1374.67 1721.11 1395.7 C 1732.47 1439.93 1733.86 1470.31 1734.37 1515.64 C 1738.23 1509.44 1740.81 1506.21 1745.45 1500.53 C 1746.61 1508.57 1748.71 1516.18 1750.58 1524.06 C 1762.04 1572.56 1776.56 1620.42 1795.05 1666.72 C 1801.75 1683.5 1808.46 1700.34 1814.87 1717.23 C 1758.43 1698.79 1693.65 1684.63 1635.31 1672.31 C 1630.64 1671.61 1616.79 1668.73 1613.69 1668.89 C 1620.16 1671.72 1624.18 1672.7 1631 1674.51 C 1641.38 1677.77 1654.14 1680.79 1663.91 1684.24 C 1663.61 1688.1 1663.83 1689.28 1661.6 1692.49 C 1648.74 1691.93 1633.07 1689.38 1619.9 1687.86 C 1595.72 1685.08 1571.52 1682.47 1547.3 1680.01 C 1461.87 1671.41 1374.02 1664.7 1288.23 1664.16 C 1279.5 1664.11 1246.79 1662.73 1240.48 1665.19 C 1219.69 1673.27 1195.63 1685.65 1175.11 1695.3 L 1023.38 1767.27 C 976.172 1743.93 928.786 1721.23 880.962 1699.11 C 861.786 1690.24 832.803 1674.54 813.817 1667.6 C 805.968 1664.73 760.025 1666.62 749.216 1666.88 C 632.494 1669.33 515.97 1677.67 400.091 1691.89 C 397.45 1687.8 394.375 1689.12 392.964 1685.53 L 395.674 1682.4 C 404.905 1677.97 428.05 1674 438.773 1668.3 C 398.772 1674.62 358.915 1681.82 319.23 1689.88 C 287.871 1696.3 244.927 1705.97 215.396 1717.78 C 243.705 1662.73 262.28 1601.26 278.896 1542 C 291.873 1494.95 304.327 1447.76 316.256 1400.43 C 323.03 1373.48 331.775 1334.36 339.908 1308.94 C 327.559 1284.46 314.623 1260.27 301.112 1236.41 C 315.746 1234.19 341.898 1229.86 355.127 1225.12 C 393.324 1211.44 485.029 1164.75 512.617 1139.96 C 491.858 1143.17 471.999 1139.74 451.243 1137.05 C 459.685 1130.8 468.963 1125.11 477.675 1118.86 C 518.603 1089.48 530.612 1042.09 564.524 1006.18 C 589.936 979.263 613.714 964.392 643.434 943.991 C 661.217 931.682 678.834 919.135 696.28 906.352 C 672.684 914.532 625.389 928.013 602.757 920.652 C 580.787 913.507 447.608 887.463 436.521 876.961 C 437.575 875.943 452.415 870.854 456.702 868.432 C 425.222 864.365 401.358 856.661 372.134 844.958 C 380.929 840.459 396.553 837.008 406.381 834.926 C 396.659 832.184 386.46 831.416 376.542 828.13 C 339.8 815.956 303.625 798.491 273.155 774.432 C 269.28 771.373 265.461 768.396 261.571 765.41 C 276.989 765.721 291.128 766.084 306.536 765.203 C 249.62 745.499 228.556 739.539 180.271 699.267 C 210.691 696.261 235.487 699.296 265.406 696.222 C 210.083 682.846 157.795 652.662 124.32 605.687 C 120.681 600.58 116.896 595.138 112.879 590.366 L 112.249 589.63 C 131.612 595.65 155.681 599.695 175.806 605.371 C 182.089 606.883 189.174 608.751 195.461 609.891 C 199.019 609.807 201.726 610.43 204.094 608.76 C 202.536 606.626 186.626 598.508 182.474 596.103 C 117.846 558.678 81.458 509.102 62.6809 437.517 C 86.8561 456.726 120.122 470.525 149.342 480.392 C 98.9271 417.248 78.17 364.246 88.5516 281.804 C 97.3811 289.886 104.886 300.758 112.958 309.68 C 134.066 333.013 160.834 361.66 187.468 377.792 C 185.79 374.298 184.201 370.762 182.701 367.188 C 163.15 319.48 155.087 247.95 175.24 199.069 C 177.554 203.41 179.681 208.018 181.897 212.436 C 202.475 253.474 237.508 304.016 274.049 332.03 z"/><path transform="translate(0,0)" fill="rgb(254,78,0)" d="M 1884.07 606.854 L 1879.82 611.224 C 1876.92 617.592 1874.48 620.3 1868.72 624.191 C 1862.49 625.347 1833.82 640.701 1825.9 644.276 C 1817.73 647.965 1781.75 661.322 1776.98 665.143 C 1760.54 672.373 1705.12 668.51 1685.74 668.155 C 1667.91 667.909 1650.07 667.907 1632.24 668.149 C 1664.9 658.619 1674.26 654.485 1704.7 641.049 C 1685.64 636.904 1668.91 633.577 1650.73 626.022 C 1681.75 628.824 1711.69 628.05 1742.82 628.035 C 1751.97 627.967 1765.2 626.187 1775.33 625.783 C 1777.64 624.93 1794.33 623.527 1797.87 623.135 C 1824.3 620.211 1849.51 613.48 1875.44 608.154 L 1884.07 606.854 z"/><path transform="translate(0,0)" fill="rgb(250,198,166)" d="M 1884.07 606.854 L 1879.82 611.224 C 1852.2 624.529 1813.01 628.578 1782.19 633.18 C 1777.54 631.539 1770.22 632.588 1763.28 631.86 L 1762.72 630.793 C 1764.56 629.546 1765.1 629.007 1767.24 628.334 L 1775.33 625.783 C 1777.64 624.93 1794.33 623.527 1797.87 623.135 C 1824.3 620.211 1849.51 613.48 1875.44 608.154 L 1884.07 606.854 z"/><path transform="translate(0,0)" fill="rgb(253,175,136)" d="M 1742.82 628.035 C 1751.97 627.967 1765.2 626.187 1775.33 625.783 L 1767.24 628.334 C 1765.1 629.007 1764.56 629.546 1762.72 630.793 L 1763.28 631.86 C 1770.22 632.588 1777.54 631.539 1782.19 633.18 C 1774.59 634.916 1755.73 635.386 1747.32 635.706 C 1745.73 633.209 1744.29 630.604 1742.82 628.035 z"/><path transform="translate(0,0)" fill="rgb(254,78,0)" d="M 177.863 609.263 C 175.849 608.045 176.091 608.166 174.332 606.61 L 175.806 605.371 C 182.089 606.883 189.174 608.751 195.461 609.891 C 225.082 618.704 257.434 621.952 288.037 625.373 C 297.372 626.03 308.186 626.122 317.119 627.108 C 321.245 627.042 325.182 626.929 329.311 627.136 C 343.168 628.53 382.952 628.454 396.349 626.729 C 380.927 634.321 366.7 637.714 349.853 641.131 C 377.922 654.148 396.933 658.16 425.205 667.958 C 394.534 667.936 320.537 673.308 293.985 666.021 C 290.359 663.604 277.836 659.809 273.155 657.807 C 256.522 650.693 239.17 644.543 222.527 637.609 C 211.815 633.147 198.07 621.847 186.912 619.283 C 182.679 615.333 181.351 613.879 177.863 609.263 z"/><path transform="translate(0,0)" fill="url(#Gradient8)" d="M 177.863 609.263 C 175.849 608.045 176.091 608.166 174.332 606.61 L 175.806 605.371 C 182.089 606.883 189.174 608.751 195.461 609.891 C 225.082 618.704 257.434 621.952 288.037 625.373 L 284.24 627.89 C 284.277 629.875 284.22 629.964 284.579 631.911 L 283.197 632.498 C 241.484 628.359 217.221 624.143 177.863 609.263 z"/><path transform="translate(0,0)" fill="rgb(253,175,136)" d="M 288.037 625.373 C 297.372 626.03 308.186 626.122 317.119 627.108 C 321.245 627.042 325.182 626.929 329.311 627.136 C 324.729 628.389 325.166 627.445 323.329 630.44 L 323.902 633.763 L 323.573 635.451 C 318.751 636.892 301.894 634.756 295.879 634.235 C 290.252 633.982 288.623 633.872 283.197 632.498 L 284.579 631.911 C 284.22 629.964 284.277 629.875 284.24 627.89 L 288.037 625.373 z"/><path transform="translate(0,0)" fill="rgb(254,78,0)" d="M 317.119 627.108 C 321.245 627.042 325.182 626.929 329.311 627.136 C 324.729 628.389 325.166 627.445 323.329 630.44 L 323.902 633.763 C 318.638 633.012 315.767 633.39 310.779 631.495 L 310.889 630.311 L 315.483 628.613 L 317.119 627.108 z"/><path transform="translate(0,0)" fill="rgb(250,198,166)" d="M 186.912 619.283 C 198.07 621.847 211.815 633.147 222.527 637.609 C 239.17 644.543 256.522 650.693 273.155 657.807 C 277.836 659.809 290.359 663.604 293.985 666.021 C 263.402 661.881 231.79 649.043 205.648 632.923 C 199.806 629.321 191.292 624.34 186.912 619.283 z"/><path transform="translate(0,0)" fill="url(#Gradient7)" d="M 1776.98 665.143 C 1781.75 661.322 1817.73 647.965 1825.9 644.276 C 1833.82 640.701 1862.49 625.347 1868.72 624.191 C 1845.71 641.936 1805.83 662.469 1776.98 665.143 z"/><path transform="translate(0,0)" fill="rgb(252,252,252)" d="M 361.643 1272.08 C 388.339 1272.1 415.336 1271.28 442.003 1270.2 C 461.809 1269.4 504.913 1270.43 523.809 1266.51 C 524.381 1291.44 528.036 1326.03 530.175 1351.51 C 533.304 1388.86 536.015 1426.25 538.307 1463.66 C 539.688 1484.35 540.628 1503.03 540.394 1523.75 C 540.295 1532.54 541.517 1538.77 540.858 1548.15 C 541.383 1563.93 543.391 1580.84 544.149 1596.95 C 518.483 1601.37 492.91 1606.31 467.447 1611.78 C 466.835 1587.98 464.075 1564.78 463.836 1540.43 C 444.013 1543.13 420.902 1545.68 401.483 1549.2 C 398.643 1557.1 395.651 1570.73 393.445 1579.21 C 388.283 1598.43 383.397 1617.73 378.79 1637.09 C 350.521 1642.29 323.34 1649.17 295.251 1654.56 C 309.836 1599.53 326.012 1542.8 339.776 1487.83 C 339.749 1475.59 347.665 1448.39 350.891 1435.35 C 361.083 1394.14 376.069 1348.69 384.37 1307.28 C 380.398 1301.55 377.591 1297.02 374.065 1290.99 L 361.643 1272.08 z"/><path transform="translate(0,0)" fill="rgb(254,78,0)" d="M 361.643 1272.08 C 388.339 1272.1 415.336 1271.28 442.003 1270.2 C 461.809 1269.4 504.913 1270.43 523.809 1266.51 C 524.381 1291.44 528.036 1326.03 530.175 1351.51 C 533.304 1388.86 536.015 1426.25 538.307 1463.66 C 539.688 1484.35 540.628 1503.03 540.394 1523.75 C 540.295 1532.54 541.517 1538.77 540.858 1548.15 C 539.018 1538.53 537.431 1515.95 536.374 1505.3 C 532.885 1471.14 529.92 1436.94 527.48 1402.7 L 521.137 1324.24 C 519.807 1308.03 517.893 1291.18 517.747 1275 C 507.377 1274.81 496.642 1275.53 486.214 1275.71 L 372.718 1278.39 C 372.181 1286.16 375.197 1286.74 374.065 1290.99 L 361.643 1272.08 z"/><path transform="translate(0,0)" fill="rgb(254,78,0)" d="M 374.065 1290.99 C 375.197 1286.74 372.181 1286.16 372.718 1278.39 C 378.548 1287.15 384.484 1295.83 390.525 1304.44 C 381.779 1343.28 372.183 1381.92 361.744 1420.33 C 357.498 1436.53 352.088 1460.81 346.417 1475.58 C 344.724 1479.92 342.492 1484.04 339.776 1487.83 C 339.749 1475.59 347.665 1448.39 350.891 1435.35 C 361.083 1394.14 376.069 1348.69 384.37 1307.28 C 380.398 1301.55 377.591 1297.02 374.065 1290.99 z"/><path transform="translate(0,0)" fill="rgb(254,78,0)" d="M 521.328 1456.46 C 522.707 1456.39 521.88 1456.3 523.685 1457.29 C 526.781 1479.62 527.885 1504.58 529.637 1527.17 C 531.191 1547.22 533.43 1568.2 534.34 1588.18 C 519.053 1592.1 491.652 1597.03 476.219 1598.61 C 474.28 1577.77 472.085 1552.94 471.633 1532.19 L 470.888 1530.78 C 466.178 1529.92 411.75 1538.32 403.621 1539.69 C 405.69 1529.93 408.037 1520.23 410.659 1510.6 C 430.133 1507.46 449.627 1504.45 469.142 1501.57 L 466.599 1462.23 C 484.584 1460.69 503.049 1458.08 521.328 1456.46 z"/><path transform="translate(0,0)" fill="rgb(254,78,0)" d="M 411.507 1466.42 L 412.011 1466.4 L 412.949 1467.45 C 412.099 1473.84 409.198 1482.42 407.466 1489 C 403.18 1505.54 398.783 1522.05 394.274 1538.52 C 386.605 1566.93 379.644 1599.59 370.606 1627.03 C 351.291 1630.29 329.494 1635.83 310.212 1640.28 L 308.791 1639.62 C 308.79 1635.77 316.248 1610.88 317.835 1605.02 L 340.597 1521.15 C 344.354 1507.06 350.245 1486.78 352.517 1472.88 C 372.123 1470.21 392.128 1469.37 411.507 1466.42 z"/><path transform="translate(0,0)" fill="rgb(0,16,58)" d="M 416.145 1497.17 C 414.792 1453.71 438.865 1390.97 445.184 1346.65 C 446.029 1340.72 448.561 1334.61 454.816 1332.82 C 460.737 1336.34 462.092 1437.61 464.037 1451.26 C 465.116 1458.83 464.404 1459.12 458.628 1461.56 C 459.081 1471.35 459.712 1483.7 460.842 1493.38 C 454.217 1494.79 419.926 1500.84 415.613 1499.02 C 415.76 1498.39 415.764 1497.69 416.145 1497.17 z"/><path transform="translate(0,0)" fill="rgb(254,78,0)" d="M 416.145 1497.17 C 414.792 1453.71 438.865 1390.97 445.184 1346.65 C 446.029 1340.72 448.561 1334.61 454.816 1332.82 C 460.737 1336.34 462.092 1437.61 464.037 1451.26 C 465.116 1458.83 464.404 1459.12 458.628 1461.56 C 457.08 1452.14 456.662 1436.31 456.136 1426.55 L 452.929 1374.21 L 451.813 1368.07 L 450.858 1367.67 L 448.043 1369.25 C 443.971 1384.93 418.782 1492.67 416.145 1497.17 z"/><path transform="translate(0,0)" fill="rgb(178,19,8)" d="M 450.506 1359.06 C 451.206 1354.58 451.744 1350.14 453.004 1345.79 C 452.988 1354.85 453.235 1365.27 452.929 1374.21 L 451.813 1368.07 C 452.169 1364.16 452.576 1362.36 450.506 1359.06 z"/><path transform="translate(0,0)" fill="rgb(9,12,40)" d="M 450.506 1359.06 C 452.576 1362.36 452.169 1364.16 451.813 1368.07 L 450.858 1367.67 L 448.043 1369.25 L 450.506 1359.06 z"/><path transform="translate(0,0)" fill="rgb(252,252,252)" d="M 865.84 603.471 C 911.929 575.874 944.962 575.323 994.537 565.167 C 975.877 581.957 957.538 588.442 937.218 601.286 C 977.908 590.605 1011.97 589.134 1053.28 596.552 C 1040.93 604.349 1022.19 612.77 1008 621.231 L 1007.87 625.491 C 1018.59 624.212 1033.8 621.934 1044.25 621.985 C 1056.77 620.091 1078.57 619.513 1090.93 620.484 C 1101.49 621.313 1109.95 623.528 1121.27 623.587 C 1101.51 629.193 1082.53 634.921 1063.05 641.477 C 1045.39 647.422 1030.54 650.946 1014.17 659.978 C 1031.22 659.228 1045.95 657.113 1063.09 659.506 C 1098.43 664.443 1122.2 679.302 1147.93 702.806 C 1148.59 703.417 1149.23 704.039 1149.87 704.671 C 1121.93 691.652 1099.28 689.569 1068.19 688.53 C 1087.82 694.938 1107.25 700.594 1123.86 713.924 C 1114.04 712.319 1103.98 711.019 1094.28 709.37 C 1105.79 719.897 1114.43 728.977 1122.23 742.714 C 1094.58 724.565 1067.43 713.115 1035.22 706.611 C 1031.6 705.881 1022.74 703.12 1019.61 703.73 C 1040.42 711.343 1037.01 711.643 1051.5 726.603 C 1074.91 750.779 1089.26 775.355 1104.95 804.537 C 1098.44 798.673 1097.35 797.358 1089.16 793.933 L 1088.48 795.386 L 1087.48 795.206 C 1084.79 794.734 1083.69 794.329 1081.02 795.014 L 1080.6 795.417 L 1077.72 793.314 C 1076.44 795.765 1075.26 798.396 1073.59 800.527 C 1068.06 797.997 1061.33 797.523 1055.19 796.653 C 1043.63 779.425 1045.96 775.164 1025.4 763.336 C 1031.03 775.398 1037.78 782.476 1042.43 795.838 C 1001.96 757.49 1016.83 760.74 960.433 749.864 C 969.222 755.283 982.958 759.599 993.057 765.08 C 1019.42 779.385 1026.21 819.916 1034.5 847.49 C 1005.91 812.113 985.662 791.088 946.002 767.245 L 956.006 783.263 C 943.933 774.298 939.66 770.596 925.541 765.268 C 930.701 771.659 931.744 772.694 935.523 780.09 C 924.592 774.68 915.144 766.471 903.077 761.007 C 892.671 756.294 884.824 754.175 874.142 750.676 C 871.641 749.857 870.742 745.967 869.956 743.372 L 870.618 742.624 L 877.916 742.935 L 877.246 740.768 C 868.121 738.63 862.889 736.925 854.406 733.098 C 844.975 728.844 834.668 719.083 824.859 718.805 L 822.991 718.767 C 822.621 712.963 837.7 683.203 841.088 676.463 C 830.402 685.707 822.654 701.48 810.965 705.774 L 810.507 704.421 C 806.505 700.789 808.481 701.566 803.344 701.272 C 801.586 703.089 802.152 702.588 799.985 703.898 L 798.635 703.026 L 799.706 698.741 L 797.194 698.146 C 788.057 700.308 781.379 709.288 776.142 716.598 C 772.646 713.205 770.282 711.566 766.782 709.113 C 746.971 695.225 734.5 703.012 714.332 708.685 C 712.293 709.259 712.854 709.286 711.146 708.077 C 711.357 702.186 731.958 685.312 737.001 680.94 C 785.404 638.97 831.542 598.935 892.355 576.334 C 884.449 585.696 874.619 594.766 865.84 603.471 z"/><path transform="translate(0,0)" fill="rgb(186,192,196)" d="M 1015.01 627.989 C 1022.96 627.847 1031.31 627.57 1039.23 627.721 C 1009.09 637.436 978.379 635.881 950.29 650.096 C 940.75 654.924 934.146 660.771 946.976 667.819 L 946.497 668.698 C 934.132 670.316 923.939 671.813 912.424 677.078 C 907.784 679.199 900.756 684.921 896.874 685.662 C 903.179 677.826 930.25 664.228 940.76 664.903 L 940.389 662.783 C 934.011 659.304 925.429 668.741 916.326 667.594 C 918.574 664.536 926.401 664.754 930.189 661.87 C 945.792 649.994 964.013 639.323 982.894 632.953 C 994.817 632.643 1003.43 630.6 1015.01 627.989 z"/><path transform="translate(0,0)" fill="rgb(227,227,229)" d="M 997.182 625.489 L 1008 621.231 L 1007.87 625.491 C 1018.59 624.212 1033.8 621.934 1044.25 621.985 C 1039.88 624.92 1021.24 625.745 1014.08 626.836 L 1015.01 627.989 C 1003.43 630.6 994.817 632.643 982.894 632.953 L 986.167 631.104 L 986.995 627.928 L 987.66 628.179 C 990.816 627.219 993.991 626.323 997.182 625.489 z"/><path transform="translate(0,0)" fill="rgb(8,9,15)" d="M 997.182 625.489 L 1008 621.231 L 1007.87 625.491 C 1005.04 626.027 1001.91 626.468 999.256 627.485 L 997.182 625.489 z"/><path transform="translate(0,0)" fill="rgb(93,116,137)" d="M 987.66 628.179 C 990.816 627.219 993.991 626.323 997.182 625.489 L 999.256 627.485 C 994.777 628.411 992.023 629.451 987.66 628.179 z"/><path transform="translate(0,0)" fill="rgb(8,9,15)" d="M 820.601 678.519 C 817.477 688.085 812.235 695.747 810.507 704.421 C 806.505 700.789 808.481 701.566 803.344 701.272 C 808.905 693.106 815.309 686.677 820.601 678.519 z"/><path transform="translate(0,0)" fill="rgb(8,9,15)" d="M 1065.57 782.802 C 1073.82 786.002 1081.86 788.823 1089.16 793.933 L 1088.48 795.386 L 1087.48 795.206 C 1084.79 794.734 1083.69 794.329 1081.02 795.014 L 1080.6 795.417 L 1077.72 793.314 C 1073.74 789.731 1069.69 786.227 1065.57 782.802 z"/><path transform="translate(0,0)" fill="rgb(186,192,196)" d="M 954.545 635.331 C 960.996 632.096 979.457 625.282 986.217 625.777 L 986.995 627.928 C 980.836 628.484 963.722 632.412 957.603 635.123 C 955.792 635.925 956.228 635.886 953.84 636.232 L 954.545 635.331 z"/><path transform="translate(0,0)" fill="rgb(153,160,169)" d="M 877.246 740.768 C 883.954 741.029 885.821 741.141 892.485 742.672 L 891.529 742.97 L 892.509 742.782 C 886.592 744.082 883.64 742.679 877.916 742.935 L 877.246 740.768 z"/><path transform="translate(0,0)" fill="rgb(0,16,58)" d="M 895.146 701.856 C 882.389 702.234 867.485 703.376 855.673 698.047 C 851.297 696.072 842.557 696.777 837.886 697.38 L 838.154 695.515 C 843.372 688.321 864.108 660.673 872.141 658.815 C 871.622 661.396 871.062 663.528 870.382 666.049 C 872.774 667.003 919.456 639.194 928.419 641.406 C 925.292 647.944 913.396 655.565 907.508 661.078 C 896.776 671.125 887.287 684.138 874.281 690.93 C 883.394 692.948 893.586 694.919 902.233 698.19 C 904.828 698.558 906.008 698.449 908.146 699.903 C 905.134 701.445 898.529 701.896 895.146 701.856 z"/><path transform="translate(0,0)" fill="rgb(9,12,40)" d="M 902.233 698.19 C 904.828 698.558 906.008 698.449 908.146 699.903 C 905.134 701.445 898.529 701.896 895.146 701.856 L 887.177 700.466 C 889.125 698.88 897.527 701.536 902.233 698.19 z"/><path transform="translate(0,0)" fill="rgb(186,192,196)" d="M 979.438 719.818 C 1022.66 730.836 1030.52 735.939 1055.37 774.121 C 1035.31 755.944 1029.37 754.717 1002.5 747.799 C 996.136 746.16 987.365 743.34 980.991 742.567 L 984.424 740.791 L 984.769 739.669 L 983.073 738.736 C 974.427 734.472 966.232 737.38 960.356 731.337 L 961.518 733.109 L 960.418 732.179 L 960.884 730.868 L 963.769 731.591 C 965.623 729.641 965.006 729.687 965.247 726.24 L 965.393 724.896 C 982.768 727.275 1003.56 742.224 1021.74 749.93 C 1012.7 733.962 995.168 728.813 979.438 719.818 z"/><path transform="translate(0,0)" fill="rgb(186,192,196)" d="M 1011.86 686.275 C 1000.02 684.949 991.382 686.554 980.51 686.188 C 957.319 685.408 937.892 686.855 915.351 692.104 C 914.679 692.261 897.205 694.035 897.081 694.023 L 896.481 691.502 C 899.55 690.197 907.113 689.19 910.482 689.281 C 919.367 689.666 934.243 677.979 942.176 677.075 C 960.464 674.991 994.337 679.478 1011.65 684.731 L 1011.86 686.275 z"/><path transform="translate(0,0)" fill="url(#Gradient6)" d="M 843.376 712.852 C 856.68 715.227 868.776 720.655 881.669 724.425 C 892.66 727.64 904.528 729.999 915.77 732.362 L 913.703 734.542 L 897.348 731.68 L 887.652 735.351 C 874.747 728.971 855.005 720.555 843.376 712.852 z"/><path transform="translate(0,0)" fill="rgb(186,192,196)" d="M 972.551 713.953 C 958.998 713.167 924.275 714.495 913.269 710.137 C 935.026 710.933 953.376 706.198 973.92 711.084 L 972.551 713.953 z"/><path transform="translate(0,0)" fill="rgb(186,192,196)" d="M 893.184 737.036 C 903.753 735.504 926.024 749.507 937.675 752.113 C 943.15 753.337 952.472 755.758 955.783 759.925 C 941.515 756.425 907.292 742.673 893.184 737.036 z"/><path transform="translate(0,0)" fill="rgb(8,9,15)" d="M 915.77 732.362 C 924.789 733.297 946.701 734.545 952.986 740.49 C 946.953 740.466 923.596 735.537 913.703 734.542 L 915.77 732.362 z"/><path transform="translate(0,0)" fill="rgb(186,192,196)" d="M 1028.22 638.314 C 1028.89 638.196 1030.89 638.109 1031.65 638.06 C 1022.97 643.419 1001.89 645.242 991.225 646.574 L 988.709 646.589 L 988.219 645.998 C 1002.44 642.934 1013.77 640.745 1028.22 638.314 z"/><path transform="translate(0,0)" fill="rgb(186,192,196)" d="M 1011.65 684.731 L 1012.82 684.831 C 1029.33 686.124 1044.22 683.972 1061.4 686.768 C 1059.78 687.332 1014.29 686.94 1011.86 686.275 L 1011.65 684.731 z"/><path transform="translate(0,0)" fill="rgb(153,160,169)" d="M 964.811 697.647 C 979.583 694.894 988.541 698.144 1001.48 704.754 C 987.02 702.733 983.033 698.869 964.811 697.647 z"/><path transform="translate(0,0)" fill="rgb(227,227,229)" d="M 983.073 738.736 L 984.769 739.669 L 984.424 740.791 L 980.991 742.567 C 977.019 743.189 963.879 743.604 962.06 739.482 C 969.592 740.422 976.123 742.273 983.073 738.736 z"/><path transform="translate(0,0)" fill="rgb(227,227,229)" d="M 881.347 628.481 C 882.229 628.546 881.582 628.426 883.678 629.218 C 882.399 631.595 874.311 635.909 871.368 637.701 C 870.358 638.176 870.999 637.993 869.376 637.853 C 870.626 634.978 878.163 630.609 881.347 628.481 z"/><path transform="translate(0,0)" fill="rgb(153,160,169)" d="M 918.818 739.904 C 927.91 740.293 935.815 742.35 944.028 746.118 C 935.437 744.69 926.522 743.823 918.818 739.904 z"/><path transform="translate(0,0)" fill="rgb(227,227,229)" d="M 909.501 720.21 C 915.976 719.169 921.665 721.159 927.341 724.068 C 920.504 723.716 915.326 723.741 909.501 720.21 z"/><path transform="translate(0,0)" fill="rgb(227,227,229)" d="M 965.247 726.24 C 960.693 726.179 958.784 726.3 954.777 724.433 L 955.137 723.582 C 959.442 723.154 961.084 723.855 965.393 724.896 L 965.247 726.24 z"/><path transform="translate(0,0)" fill="rgb(153,160,169)" d="M 973.92 711.084 C 976.234 711.741 981.98 712.959 983.279 714.339 C 979.352 714.366 976.473 714.229 972.551 713.953 L 973.92 711.084 z"/><path transform="translate(0,0)" fill="rgb(252,252,252)" d="M 1480.83 1272.16 C 1519.5 1271.98 1557.74 1270.41 1596.25 1270.18 C 1620.65 1270.2 1645.04 1269.77 1669.42 1268.9 C 1681.63 1268.48 1698.33 1268.29 1710.11 1266.26 C 1697.06 1302.63 1693.09 1332.28 1676.13 1368.56 C 1676.33 1357.15 1676.36 1345.73 1676.24 1334.32 C 1653.47 1334.63 1616.4 1334.07 1593.79 1332.06 C 1594.56 1356.3 1597.27 1394.3 1600.1 1417.97 C 1623.71 1419.16 1655.64 1421.63 1678.84 1424.4 C 1672.05 1439.03 1655.6 1473.48 1647.77 1486.29 C 1637.19 1485.79 1618.85 1482.98 1607.78 1481.63 C 1604.45 1481.16 1601.01 1480.77 1597.76 1480.01 C 1598.78 1493.29 1604.66 1554.47 1601.48 1561.81 C 1625.24 1563.45 1670.41 1574.72 1696.34 1578.87 C 1696.88 1574.47 1707.7 1556.24 1710.72 1553.08 L 1711.32 1555.19 C 1722.51 1586.96 1735.03 1624.03 1744.19 1656.34 C 1692.83 1641.8 1639.91 1630.06 1587.96 1617.71 C 1571.81 1613.88 1552.64 1609.06 1536.2 1607.56 L 1527.56 1482.58 C 1523.77 1461.11 1522.43 1426.55 1521.28 1404.22 C 1519.75 1375.33 1517.94 1346.45 1515.85 1317.59 C 1503.39 1300.44 1493.34 1294.19 1480.83 1272.16 z"/><path transform="translate(0,0)" fill="rgb(254,78,0)" d="M 1480.83 1272.16 C 1519.5 1271.98 1557.74 1270.41 1596.25 1270.18 C 1620.65 1270.2 1645.04 1269.77 1669.42 1268.9 C 1681.63 1268.48 1698.33 1268.29 1710.11 1266.26 C 1697.06 1302.63 1693.09 1332.28 1676.13 1368.56 C 1676.33 1357.15 1676.36 1345.73 1676.24 1334.32 C 1653.47 1334.63 1616.4 1334.07 1593.79 1332.06 C 1594.56 1356.3 1597.27 1394.3 1600.1 1417.97 C 1623.71 1419.16 1655.64 1421.63 1678.84 1424.4 C 1672.05 1439.03 1655.6 1473.48 1647.77 1486.29 C 1637.19 1485.79 1618.85 1482.98 1607.78 1481.63 C 1604.45 1481.16 1601.01 1480.77 1597.76 1480.01 C 1598.78 1493.29 1604.66 1554.47 1601.48 1561.81 C 1600.32 1560.44 1599.52 1559.4 1599.27 1557.54 C 1595.37 1529.42 1596.12 1501.44 1589.86 1473.62 C 1599.02 1474.13 1612.96 1476.18 1622.25 1477.33 C 1630.55 1477.99 1635.63 1478.62 1643.84 1480.26 C 1651.37 1465.2 1662.99 1443.69 1669.19 1428.87 C 1645.46 1427.35 1616.02 1424.56 1592.82 1423.89 C 1590.82 1392.72 1589.6 1356.55 1586.75 1325.91 C 1595.26 1325.89 1676.33 1327.81 1679.36 1328.95 C 1680.19 1332.31 1679.93 1333.24 1679.61 1336.6 L 1680.36 1337.34 C 1687.41 1325.92 1696.51 1288.03 1700.3 1274.08 C 1682.3 1275.41 1665.68 1275.85 1647.66 1275.98 C 1595.4 1276.36 1543.47 1278.25 1491.17 1278.07 C 1501.91 1291.83 1511.4 1300.88 1521.87 1313.37 L 1526.5 1390.53 C 1528.09 1413.94 1529.89 1437.54 1530.43 1461.01 C 1530.65 1470.73 1527.67 1473.57 1527.56 1482.58 C 1523.77 1461.11 1522.43 1426.55 1521.28 1404.22 C 1519.75 1375.33 1517.94 1346.45 1515.85 1317.59 C 1503.39 1300.44 1493.34 1294.19 1480.83 1272.16 z"/><path transform="translate(0,0)" fill="rgb(254,78,0)" d="M 1696.34 1578.87 C 1696.88 1574.47 1707.7 1556.24 1710.72 1553.08 L 1711.32 1555.19 C 1707.8 1564.14 1708.81 1573.31 1711.33 1582.29 C 1705.53 1580.5 1702.27 1579.91 1696.34 1578.87 z"/><path transform="translate(0,0)" fill="rgb(254,78,0)" d="M 1533.67 1471.95 C 1547.06 1472.04 1569.07 1474.11 1582.72 1475.23 C 1583.11 1495.5 1587.26 1517.55 1588.17 1538.03 C 1588.59 1547.44 1589.78 1559.06 1591.28 1568.35 C 1629.3 1577.51 1673.4 1583.62 1713.2 1592.62 C 1718.28 1602.76 1725.89 1630.34 1728.54 1642.03 C 1666.1 1624.85 1607.57 1611.57 1544.15 1597.83 C 1543.31 1591.89 1542.98 1585.9 1542.51 1579.93 C 1539.63 1543.95 1538.25 1507.77 1533.67 1471.95 z"/><path transform="translate(0,0)" fill="rgb(252,252,252)" d="M 1304.71 1342.67 C 1319.03 1341.5 1334.4 1342.95 1348.86 1343.74 L 1404.93 1346.88 C 1439.06 1349.12 1498.49 1346.24 1498.38 1394.02 C 1498.26 1445.56 1509.36 1507.95 1502.54 1558.45 C 1502.41 1560.13 1502.24 1561.81 1502.03 1563.48 C 1496.41 1606.49 1443.48 1593.18 1413.91 1588.94 C 1388.6 1585.31 1363.52 1580.06 1338.14 1576.44 C 1338 1546.84 1337.25 1511.84 1335.49 1482.15 C 1332.19 1449.26 1334.8 1404.67 1330.19 1373.96 C 1327.59 1370.37 1321.03 1363.41 1317.84 1359.77 C 1312 1353.24 1309.5 1350.06 1304.71 1342.67 z"/><path transform="translate(0,0)" fill="rgb(254,78,0)" d="M 1304.71 1342.67 C 1319.03 1341.5 1334.4 1342.95 1348.86 1343.74 L 1404.93 1346.88 C 1439.06 1349.12 1498.49 1346.24 1498.38 1394.02 C 1498.26 1445.56 1509.36 1507.95 1502.54 1558.45 C 1501.64 1528.49 1496.91 1493.66 1494.97 1462.66 C 1494.05 1447.55 1493.32 1432.42 1492.78 1417.29 C 1492.44 1408.11 1492.69 1397.47 1491.2 1388.5 C 1487.96 1368.15 1467.84 1357.67 1448.71 1356.67 C 1405.51 1354.42 1359.13 1348.46 1316.01 1348.09 L 1314.85 1349.58 C 1316.32 1353.43 1317.48 1355.71 1317.84 1359.77 C 1312 1353.24 1309.5 1350.06 1304.71 1342.67 z"/><path transform="translate(0,0)" fill="rgb(254,78,0)" d="M 1317.84 1359.77 C 1317.48 1355.71 1316.32 1353.43 1314.85 1349.58 L 1316.01 1348.09 C 1322.11 1355.12 1331.98 1364.39 1336.77 1370.64 C 1337.66 1383.14 1342.05 1472.76 1338.49 1480.02 L 1335.49 1482.15 C 1332.19 1449.26 1334.8 1404.67 1330.19 1373.96 C 1327.59 1370.37 1321.03 1363.41 1317.84 1359.77 z"/><path transform="translate(0,0)" fill="rgb(254,78,0)" d="M 1389.83 1389.29 C 1404.96 1390.41 1420.39 1391.71 1435.53 1392.15 C 1437.37 1423.93 1436.93 1457.84 1438.65 1489.72 C 1456.18 1492.05 1473.68 1494.6 1491.15 1497.37 C 1491.4 1502.83 1491.8 1509.6 1492.01 1514.9 C 1493.15 1553.57 1504.63 1586.72 1450.38 1584.07 C 1414.99 1582.35 1380.64 1572.14 1346.18 1569.26 C 1345.96 1538.79 1344.22 1508.24 1343.76 1477.65 C 1356.93 1478.31 1373.41 1481.02 1387.29 1482.21 C 1387.65 1504.62 1388.34 1527.03 1389.38 1549.43 C 1406.63 1551.16 1423.15 1555.1 1440.98 1556.25 C 1438.49 1537.94 1440.89 1514 1437.65 1493.63 C 1435.9 1491.48 1435.42 1492.05 1431.95 1491.29 C 1431.99 1509.53 1431.65 1529.45 1432.44 1547.55 C 1423.28 1546.03 1406.76 1543.69 1398.65 1541.23 C 1397.64 1539.14 1397.79 1540.07 1397.72 1538.54 C 1395.69 1531.91 1395.78 1512.95 1395.3 1504.72 C 1393.04 1466.34 1391.45 1427.72 1389.83 1389.29 z"/><path transform="translate(0,0)" fill="rgb(0,16,58)" d="M 1396.95 1396.03 C 1407.43 1397.59 1418.44 1398.03 1429.05 1398.64 C 1430.45 1427.96 1432.17 1462.3 1431.95 1491.29 C 1431.99 1509.53 1431.65 1529.45 1432.44 1547.55 C 1423.28 1546.03 1406.76 1543.69 1398.65 1541.23 C 1397.64 1539.14 1397.79 1540.07 1397.72 1538.54 C 1402.14 1492.16 1399.22 1442.77 1396.95 1396.03 z"/><path transform="translate(0,0)" fill="rgb(252,252,252)" d="M 871.883 1070.98 C 881.784 1066.18 895.077 1054.34 903.851 1047.36 C 931.876 1025.05 958.116 1000.26 986.215 978.08 C 999.704 967.432 1015.3 953.341 1032.44 949.993 C 1057.53 960.556 1085.22 988.453 1107.19 1006.5 L 1218.91 1098.51 C 1231.68 1109.11 1246.57 1119.2 1258.89 1129.57 C 1265.62 1135.24 1290.39 1166.01 1291.68 1173.85 C 1287.67 1172.81 1288.96 1171.55 1287.01 1170.84 C 1284.44 1169.91 1278.28 1169.78 1275.64 1169.39 C 1262.51 1159.16 1261.86 1150.65 1250.42 1139.56 C 1255.17 1148.77 1257.8 1154.14 1261.08 1163.98 C 1253.22 1157 1247.06 1145.85 1240.33 1142.04 C 1234.45 1142.65 1237.78 1147.48 1233.54 1143.48 C 1217.13 1128.02 1196.92 1106.32 1184.68 1087.45 L 1183.42 1089.76 C 1184.63 1097.02 1185.46 1104.4 1186.35 1111.71 C 1176.18 1095.83 1175.26 1088.16 1162 1073.43 C 1161.93 1081.4 1162.09 1087.63 1162.59 1095.59 C 1155.73 1090.1 1153.7 1088.44 1148.68 1081.53 C 1147.85 1069.66 1147.37 1063.19 1143.89 1051.89 C 1112.21 1039.01 1119.2 1035.47 1095.63 1012.89 L 1093.87 1012.11 C 1090.08 1010.39 1088.32 1007.94 1084.96 1007.91 C 1082.32 1009.63 1083.42 1008.48 1082.33 1012.08 L 1083.36 1018.37 L 1082.5 1019.49 C 1065.66 1000.66 1064.08 990.254 1041.54 971.682 C 1032.3 990.823 1015.11 1043.7 1005.87 1057.06 C 1015.69 1051.21 1040.33 1035.7 1050.05 1032.56 C 1039.49 1069.08 1016.82 1091.54 1000 1122.34 C 1019.05 1112.59 1037.59 1100.43 1057.97 1093.94 C 1076.62 1104.74 1085.98 1107.72 1096.4 1127.22 C 1085.75 1122.03 1076.72 1117.93 1065.9 1113.16 C 1042.36 1129.7 1001.2 1149.21 981.299 1166.21 C 989.57 1151.43 999.193 1137.55 1007.16 1123.37 C 989.522 1130.84 956.47 1151.41 940.043 1162.82 C 943.26 1152.93 950.629 1142.44 955.817 1133.36 C 967.532 1112.85 982.844 1091.78 993.505 1071.03 C 982.085 1077.57 969.971 1083.36 957.702 1088.14 C 949.204 1091.46 939.702 1093.97 931.625 1098.02 C 932.711 1087.97 933.244 1081.71 933.164 1071.65 C 920.915 1081.9 914.828 1085.95 904.576 1098.32 C 895.663 1109.07 882.675 1130.44 873.658 1139.34 C 877.386 1131.69 883.212 1121.91 882.629 1113.68 C 872.901 1100.99 820.347 1170.87 813.375 1178.55 C 818.065 1168.75 822.49 1158.88 826.705 1148.86 C 834.086 1131.34 849.305 1121.55 860.358 1106.36 C 848.649 1089.08 832.316 1068.56 815.553 1056.13 C 806.01 1063.35 768.404 1096.46 768.198 1107.24 L 769.301 1108.07 C 775.645 1105.9 786.83 1094.27 792.212 1089.14 C 787.829 1101.16 782.794 1114.69 777.8 1126.45 C 785.391 1120.19 789.02 1117.27 797.698 1112.45 C 783.133 1128.1 771.619 1145.76 756.568 1160.79 C 750.356 1166.99 743.985 1173.08 737.737 1179.26 C 744.921 1151.65 750.674 1144.06 764.136 1119.7 C 750.004 1129.3 740.973 1140.79 728.799 1151.43 C 731.532 1142.8 736.266 1128.93 737.936 1120.56 C 720.564 1131.46 697.014 1157.49 680.154 1169.95 C 668.985 1178.2 643.155 1189.49 629.226 1196.59 C 655.103 1170.69 680.709 1145.41 701.689 1115.47 C 687.446 1124.65 667.718 1136.05 654.559 1146.11 C 628.143 1166.3 608.138 1180.72 578.3 1195.82 C 543.72 1213.32 522.966 1209.22 484.777 1209.06 C 518.845 1195.47 562.204 1187.52 593.433 1168.7 C 614.877 1155.78 641.417 1123.82 664.413 1109.42 C 677.184 1101.43 692.456 1096.21 706.316 1089.99 C 716.135 1093.13 723.389 1089.73 732.522 1084.97 C 741.455 1080.39 749.77 1074.7 757.269 1068.03 C 759.228 1066.28 760.105 1064.65 761.753 1064.87 C 761.909 1071.48 761.173 1077.88 760.574 1084.47 C 773.606 1067.92 795.188 1046.22 814.208 1036.74 C 822.433 1042.24 830.508 1048.11 839.089 1052.97 C 849.998 1059.14 861.39 1064.08 871.883 1070.98 z"/><path transform="translate(0,0)" fill="rgb(9,12,40)" d="M 1080.64 995.336 C 1084.6 1001.14 1090.8 1007.57 1095.63 1012.89 L 1093.87 1012.11 C 1090.08 1010.39 1088.32 1007.94 1084.96 1007.91 C 1082.32 1009.63 1083.42 1008.48 1082.33 1012.08 L 1080.64 995.336 z"/><path transform="translate(0,0)" fill="rgb(66,73,101)" d="M 1183.42 1089.76 C 1182.17 1086.48 1181.64 1080.97 1183.87 1078.04 C 1185.44 1080.88 1184.83 1084.05 1184.68 1087.45 L 1183.42 1089.76 z"/><path transform="translate(0,0)" fill="rgb(252,252,252)" d="M 1141.96 1340.04 L 1207.98 1340.17 C 1206.95 1356.05 1207.63 1374.12 1207.73 1390.24 L 1208.04 1467.31 C 1208.06 1476.02 1208.66 1504.75 1207.13 1511.87 C 1213.94 1513.54 1233.46 1514.8 1241.06 1515.3 C 1241.21 1501.5 1240.56 1487.76 1240.04 1473.96 C 1240.19 1444.47 1238.68 1415.29 1237.74 1385.85 C 1237.29 1371.59 1236.06 1355.46 1236.56 1341.41 C 1258.37 1341.95 1280.19 1342.19 1302 1342.14 C 1302.16 1369.91 1309.62 1523.35 1304.29 1537.25 C 1289.98 1577.98 1257.61 1566.57 1224.07 1567.92 C 1143.02 1571.19 1140.51 1539.72 1141.77 1472.73 C 1141.16 1429.08 1141.71 1383.79 1141.96 1340.04 z"/><path transform="translate(0,0)" fill="rgb(254,78,0)" d="M 1236.56 1341.41 C 1258.37 1341.95 1280.19 1342.19 1302 1342.14 C 1302.16 1369.91 1309.62 1523.35 1304.29 1537.25 C 1304.04 1513.36 1300.98 1492.49 1299.53 1468.79 C 1297.35 1428.68 1296.13 1388.52 1295.87 1348.35 C 1278.4 1347.81 1259.79 1348.05 1242.24 1347.99 C 1243.67 1361.82 1243.9 1378.14 1244.41 1392.16 C 1245.55 1418.85 1246.13 1445.57 1246.15 1472.29 C 1259.73 1471.99 1278.43 1473.52 1292.67 1474 C 1293.03 1480.33 1293.34 1486.67 1293.61 1493.01 C 1294.19 1507.47 1297.72 1538.06 1287.42 1548.38 C 1279.52 1556.28 1264.88 1560.36 1254.06 1559.6 C 1226.04 1557.64 1180.53 1565.08 1159.88 1543.09 C 1146.6 1528.94 1149.82 1488.72 1149.95 1469.79 C 1165.37 1469.48 1181.46 1469.95 1196.89 1470.24 C 1196.44 1487.23 1196.46 1504.23 1196.95 1521.22 C 1213.22 1522.78 1232.33 1523.05 1249.75 1524.56 C 1247.58 1510.49 1249 1489.62 1247.55 1474.68 C 1244.69 1472.87 1244.32 1473.66 1240.04 1473.96 C 1240.19 1444.47 1238.68 1415.29 1237.74 1385.85 C 1237.29 1371.59 1236.06 1355.46 1236.56 1341.41 z"/><path transform="translate(0,0)" fill="rgb(254,78,0)" d="M 1141.96 1340.04 L 1207.98 1340.17 C 1206.95 1356.05 1207.63 1374.12 1207.73 1390.24 L 1208.04 1467.31 C 1208.06 1476.02 1208.66 1504.75 1207.13 1511.87 C 1206.35 1511.74 1205.15 1511.25 1204.36 1510.96 C 1203.46 1506.28 1203.85 1493.38 1203.67 1487.75 C 1202.27 1442.07 1198.83 1391.51 1201.01 1346.23 L 1148.05 1346.01 L 1148.12 1432.37 C 1148.12 1443.12 1148.44 1456.1 1147.66 1466.88 C 1147.48 1469.37 1143.95 1471.32 1141.77 1472.73 C 1141.16 1429.08 1141.71 1383.79 1141.96 1340.04 z"/><path transform="translate(0,0)" fill="rgb(252,252,252)" d="M 658.036 1342.53 C 649.956 1398.88 651.938 1460.72 647.609 1517.52 C 647.432 1519.85 646.639 1520.91 645.274 1522.68 C 653.179 1520.18 698.165 1516.28 710.327 1514.81 C 710.773 1533.73 710.181 1554.66 710.043 1573.72 C 693.276 1574.13 669.937 1577.8 653.044 1580.1 C 630.094 1583.23 605.661 1586.07 582.952 1589.92 C 584.815 1556.93 584.028 1519.29 584.022 1485.89 C 584.138 1468.76 584.714 1451.63 585.751 1434.53 C 588.057 1390.57 594.434 1386.81 569.473 1348.02 C 594.534 1348.14 631.552 1344.1 658.036 1342.53 z"/><path transform="translate(0,0)" fill="rgb(254,78,0)" d="M 658.036 1342.53 C 649.956 1398.88 651.938 1460.72 647.609 1517.52 C 647.432 1519.85 646.639 1520.91 645.274 1522.68 C 644.85 1522.31 644.365 1521.99 644.002 1521.56 C 637.46 1513.73 649.394 1372.54 650.189 1349.93 C 630.197 1349.94 601.41 1352.82 580.918 1354.35 C 583.706 1360.7 592.976 1374.04 593.492 1378.98 C 594.809 1391.58 593.383 1410.2 592.73 1422.98 C 591.747 1442.21 592.006 1465.44 589.543 1484.28 L 584.022 1485.89 C 584.138 1468.76 584.714 1451.63 585.751 1434.53 C 588.057 1390.57 594.434 1386.81 569.473 1348.02 C 594.534 1348.14 631.552 1344.1 658.036 1342.53 z"/><path transform="translate(0,0)" fill="rgb(254,78,0)" d="M 632.994 1478.38 L 634.403 1478.39 C 635.051 1479.7 634.325 1525.34 634.748 1532.22 C 652.366 1531.61 683.16 1526.85 701.974 1524.95 L 701.948 1563.65 C 689.156 1565.95 672.1 1567.62 658.913 1569.31 C 637.082 1571.93 614.243 1575.88 592.266 1578.97 C 591.531 1548.17 592.054 1515.42 592.032 1484.47 C 605.07 1482.95 619.881 1480.36 632.994 1478.38 z"/><path transform="translate(0,0)" fill="rgb(252,252,252)" d="M 698.695 1342.28 C 735.166 1342.02 771.55 1341.77 808.002 1340.27 C 820.817 1339.74 841.61 1340.87 853.091 1338.77 C 852.984 1355.3 853.309 1375.84 852.153 1392.19 C 839.035 1392.18 827.059 1392.29 813.965 1392.91 L 814.068 1452.26 C 814.07 1459.97 814.405 1477.51 813.428 1484.73 C 811.769 1495.31 812.322 1547.95 812.509 1559.85 C 790.944 1560.15 770.485 1562.13 749.01 1563.98 C 749.221 1537.61 749.244 1508.34 748.235 1482.09 C 747.767 1453.33 748.244 1424.65 748.044 1395.93 C 731.48 1395.91 714.407 1395.51 697.97 1397.44 C 697.985 1379.05 698.227 1360.66 698.695 1342.28 z"/><path transform="translate(0,0)" fill="rgb(254,78,0)" d="M 698.695 1342.28 C 735.166 1342.02 771.55 1341.77 808.002 1340.27 C 820.817 1339.74 841.61 1340.87 853.091 1338.77 C 852.984 1355.3 853.309 1375.84 852.153 1392.19 C 839.035 1392.18 827.059 1392.29 813.965 1392.91 L 814.068 1452.26 C 814.07 1459.97 814.405 1477.51 813.428 1484.73 C 811.986 1483.72 810.808 1482.79 809.583 1481.51 C 806.196 1477.95 807.897 1397.22 808.021 1386 L 845.947 1385.84 L 845.984 1346.07 C 800.029 1345.88 751.193 1349.95 706.033 1348.59 C 705.066 1362.39 704.389 1376.21 704.002 1390.03 C 719.968 1390.01 738.226 1389.06 754.162 1387.97 L 754.176 1450.39 C 754.19 1457.54 754.693 1475.84 753.597 1482.22 L 748.235 1482.09 C 747.767 1453.33 748.244 1424.65 748.044 1395.93 C 731.48 1395.91 714.407 1395.51 697.97 1397.44 C 697.985 1379.05 698.227 1360.66 698.695 1342.28 z"/><path transform="translate(0,0)" fill="rgb(254,78,0)" d="M 784.769 1476.43 C 790.125 1475.92 798.43 1475.87 804.022 1475.66 C 804.77 1499.73 804.063 1527.43 803.994 1551.77 C 793.618 1551.82 785.027 1552.38 774.755 1553.15 C 768.868 1553.6 762.975 1553.96 757.078 1554.23 C 757.402 1529.14 757.084 1503.37 757.055 1478.22 L 784.769 1476.43 z"/><path transform="translate(0,0)" fill="rgb(254,78,0)" d="M 612.217 1645.29 C 640.39 1639 672.28 1635.47 700.84 1630.79 C 750.972 1622.58 800.594 1616.04 851.008 1609.83 C 896.255 1631.71 943.896 1650.27 989.447 1671.69 C 1001.63 1677.42 1015.01 1683.51 1027.57 1688.27 C 1058.73 1672.69 1093.31 1658.76 1125.38 1644.85 C 1150.6 1633.62 1175.64 1621.96 1200.47 1609.88 C 1213.23 1613.34 1245.12 1616.08 1259.64 1618.59 C 1312.38 1627.69 1366.25 1633.43 1418.85 1643.34 C 1415.57 1645.22 1412.62 1644.92 1408.77 1645.09 C 1357.9 1643.1 1269.97 1635.61 1215.74 1634.46 C 1208.7 1634.31 1169.22 1658.53 1159.74 1661.56 C 1115.44 1682.93 1069.65 1702.96 1026.32 1725.91 C 978.942 1702.7 931.341 1679.95 883.52 1657.67 C 870.483 1651.43 850.245 1640.76 837.554 1635.26 C 831.916 1632.81 797.622 1636.76 788.457 1637.35 L 688.463 1643.1 C 674.227 1644.06 643.563 1647.25 630.43 1647.09 C 624.616 1646.18 616.413 1647.56 612.217 1645.29 z"/><path transform="translate(0,0)" fill="rgb(254,78,0)" d="M 1175.73 630.549 C 1189.81 626.251 1210.3 623.38 1225.52 619.431 C 1271.5 607.501 1316.95 591.818 1356.1 564.229 C 1378.66 548.326 1399.87 521.787 1422.67 507.644 C 1441.87 495.739 1467.29 485.729 1488.05 475.017 C 1514 461.628 1528.45 449.598 1551.74 433.017 C 1546.31 440.756 1538.83 449.615 1532.83 457.105 C 1525.14 469.56 1509.71 481.878 1497.83 490.916 C 1462.91 517.493 1432.34 548.498 1398.23 575.918 C 1388.04 584.108 1375.16 589.476 1365.08 597.554 C 1378 594.194 1390.9 592.305 1404.07 590.135 C 1358.91 621.966 1311.15 633.682 1258.89 649.008 C 1247.81 652.259 1232.82 655.701 1222.4 659.358 C 1247.54 662.826 1259.29 664.155 1282.54 674.461 C 1278 673.93 1270.4 672.244 1266.69 672.086 C 1248.43 671.311 1227.88 673.868 1209.68 675.706 C 1200 676.683 1189.3 680.072 1179.44 680.638 C 1200.79 691.396 1203.8 691.638 1215.7 712.885 C 1207.11 707.999 1202.66 706.069 1193.53 702.395 C 1199.37 709.069 1202.02 712.564 1205.57 721.117 C 1191.11 711.512 1176.66 703.213 1162 693.846 C 1150.6 686.565 1133.89 667.585 1124.94 662.841 C 1127.92 657.519 1133.22 663.35 1134.89 650.205 C 1136.84 647.472 1137.6 647.518 1140.7 646.197 C 1140.6 644.899 1139.82 642.717 1139.42 641.376 L 1140.35 639.649 C 1147.08 635.054 1167.01 631.983 1175.73 630.549 z"/><path transform="translate(0,0)" fill="url(#Gradient5)" d="M 1175.73 630.549 C 1189.81 626.251 1210.3 623.38 1225.52 619.431 C 1271.5 607.501 1316.95 591.818 1356.1 564.229 C 1378.66 548.326 1399.87 521.787 1422.67 507.644 C 1441.87 495.739 1467.29 485.729 1488.05 475.017 C 1514 461.628 1528.45 449.598 1551.74 433.017 C 1546.31 440.756 1538.83 449.615 1532.83 457.105 C 1514.14 470.989 1495.91 485.951 1475.72 498.068 C 1460.29 507.33 1442.97 514.713 1427.8 524.646 C 1412.75 534.502 1398.86 547.629 1383.92 557.334 C 1335.05 589.103 1284.25 611.156 1227.47 624.44 C 1218.3 626.586 1187.41 635.411 1180.35 635.87 C 1176.39 635.441 1174.93 636.106 1170.78 635.537 C 1171.83 632.61 1172.7 632.792 1175.73 630.549 z"/><path transform="translate(0,0)" fill="rgb(250,198,166)" d="M 1140.7 646.197 C 1140.6 644.899 1139.82 642.717 1139.42 641.376 L 1140.35 639.649 C 1147.08 635.054 1167.01 631.983 1175.73 630.549 C 1172.7 632.792 1171.83 632.61 1170.78 635.537 C 1174.93 636.106 1176.39 635.441 1180.35 635.87 C 1172.85 637.906 1165.39 639.716 1157.89 641.702 C 1152.5 643.129 1146.26 646.507 1140.81 647.152 L 1140.7 646.197 z"/><path transform="translate(0,0)" fill="rgb(252,252,252)" d="M 969.858 1339.86 L 1120.16 1340.06 C 1119.75 1356.45 1120.05 1373.8 1120.08 1390.26 L 1106.37 1390.04 L 1076.76 1389.98 C 1078.3 1404.89 1077.1 1425.11 1077.53 1440.49 C 1077.67 1445.71 1077.91 1465.48 1077.35 1469.8 C 1077.1 1497.67 1076.26 1528.25 1077.05 1555.9 L 1013.52 1555.95 C 1013.13 1527.4 1014.42 1499.07 1013.81 1470.34 C 1011.97 1460.94 1013.56 1404.26 1013.79 1390.22 C 999.741 1389.61 983.403 1389.94 969.186 1389.9 C 969.66 1373.22 969.885 1356.54 969.858 1339.86 z"/><path transform="translate(0,0)" fill="rgb(254,78,0)" d="M 1021.81 1468.24 C 1037.75 1467.88 1053.7 1467.88 1069.64 1468.24 L 1070.08 1471.45 C 1069.56 1496.34 1069.87 1522.28 1069.85 1547.26 C 1054.13 1546.88 1037.83 1546.97 1022.06 1546.85 C 1021.35 1521.17 1022.2 1494.23 1021.81 1468.24 z"/><path transform="translate(0,0)" fill="rgb(254,78,0)" d="M 969.858 1339.86 L 1120.16 1340.06 C 1119.75 1356.45 1120.05 1373.8 1120.08 1390.26 L 1106.37 1390.04 L 1076.76 1389.98 C 1078.3 1404.89 1077.1 1425.11 1077.53 1440.49 C 1077.67 1445.71 1077.91 1465.48 1077.35 1469.8 L 1070.08 1471.45 L 1069.64 1468.24 L 1070.15 1464.29 C 1069.51 1437.78 1069.9 1410.16 1069.95 1383.56 C 1084.51 1383.54 1099.07 1383.69 1113.63 1384 C 1113.44 1371.36 1113.5 1358.71 1113.82 1346.06 L 975.953 1346.11 L 975.946 1383.22 L 1019.96 1383 C 1019.96 1394.07 1021.1 1464.93 1019.41 1470.22 C 1016.66 1471.03 1016.69 1470.82 1013.81 1470.34 C 1011.97 1460.94 1013.56 1404.26 1013.79 1390.22 C 999.741 1389.61 983.403 1389.94 969.186 1389.9 C 969.66 1373.22 969.885 1356.54 969.858 1339.86 z"/><path transform="translate(0,0)" fill="rgb(246,94,2)" d="M 1070.15 1464.29 C 1070.97 1464.74 1070.38 1464.51 1072.04 1464.4 C 1075.06 1453.92 1070.31 1398.78 1075.91 1389.06 C 1076.93 1387.3 1100.85 1388.09 1106.37 1390.04 L 1076.76 1389.98 C 1078.3 1404.89 1077.1 1425.11 1077.53 1440.49 C 1077.67 1445.71 1077.91 1465.48 1077.35 1469.8 L 1070.08 1471.45 L 1069.64 1468.24 L 1070.15 1464.29 z"/><path transform="translate(0,0)" fill="rgb(252,252,252)" d="M 885.908 1339.91 L 952.425 1339.98 C 951.17 1384.06 951.717 1429.48 951.049 1473.83 C 950.239 1501.2 949.868 1528.58 949.936 1555.97 C 927.528 1555.98 905.122 1556.27 882.721 1556.83 C 883.037 1528.07 884.089 1500.22 884.046 1471.29 C 883.995 1427.77 885.613 1383.62 885.908 1339.91 z"/><path transform="translate(0,0)" fill="rgb(254,78,0)" d="M 885.908 1339.91 L 952.425 1339.98 C 951.17 1384.06 951.717 1429.48 951.049 1473.83 C 947.919 1472.86 948.073 1473.01 945.597 1470.91 C 941.73 1463.36 945.744 1363.35 946.054 1346.13 L 891.98 1346 C 891.999 1387.74 890.351 1428.27 890.16 1469.52 C 902.836 1467.13 928.258 1467.99 942.334 1468.12 C 943.559 1479.21 942.687 1494.36 942.403 1505.71 C 942.096 1519.82 941.968 1533.93 942.019 1548.05 L 890.879 1547.96 C 891.535 1531.1 893.153 1489.18 891.572 1473.07 C 889.049 1471.23 887.658 1471.7 884.046 1471.29 C 883.995 1427.77 885.613 1383.62 885.908 1339.91 z"/><path transform="translate(0,0)" fill="rgb(254,78,0)" d="M 716.82 820.854 C 715.64 830.427 715.536 835.44 715.421 844.868 L 713.895 844.6 C 706.707 834.084 710.708 826.663 707.354 816.907 C 699.258 793.872 683.619 762.688 703.14 740.714 C 727.74 713.021 759.22 722.419 788.351 735.409 C 799.589 740.42 812.631 743.493 823.063 749.512 C 826.445 751.353 826.488 750.605 827.407 753.345 L 824.209 757.701 L 824.706 759.558 L 826.419 759.738 C 834.016 760.612 836.066 766.386 842.208 770.973 C 841.801 764.528 841.485 759.318 840.5 752.922 C 842.701 754.753 849.768 760.378 851.342 762.151 C 883.06 786.215 889.758 807.245 862.492 839.98 C 838.858 868.354 812.834 888.61 781.835 908.556 C 781.97 886.688 787.553 870.209 795.603 849.902 C 796.067 857.196 796.632 862.797 797.629 870.038 C 798.312 873.389 797.443 872.502 799.392 874.07 L 800.698 873.34 C 811.784 851.631 816.262 836.613 822.387 813.11 C 824.931 825.99 822.529 838.307 825.483 848.537 C 836.276 840.31 839.787 797.591 839.939 784.535 C 824.488 772.12 821.781 771.191 802.369 774.426 C 793.533 767.246 772.765 752.11 763.027 747.51 C 768.507 761.003 770.697 762.377 782.046 771.04 C 785.589 779.984 787.906 787.938 790.646 797.119 C 779.496 794.978 768.882 789.519 756.479 789.046 C 751.403 788.853 737.576 780.201 730.954 783.592 C 718.372 790.035 734.154 813.229 731.067 823.01 C 727.282 820.407 727.284 819.741 723.207 821.021 C 727.669 830.484 728.877 839.249 730.791 849.411 C 721.96 837.428 720.84 835.201 716.82 820.854 z"/><path transform="translate(0,0)" fill="rgb(252,252,252)" d="M 716.82 820.854 C 715.64 830.427 715.536 835.44 715.421 844.868 L 713.895 844.6 C 706.707 834.084 710.708 826.663 707.354 816.907 C 699.258 793.872 683.619 762.688 703.14 740.714 C 727.74 713.021 759.22 722.419 788.351 735.409 C 799.589 740.42 812.631 743.493 823.063 749.512 C 815.486 753.031 798.126 745.984 789.939 742.726 C 768.108 734.038 749.69 726.344 726.441 736.025 C 689.264 751.504 702.167 797.618 723.207 821.021 C 727.669 830.484 728.877 839.249 730.791 849.411 C 721.96 837.428 720.84 835.201 716.82 820.854 z"/><path transform="translate(0,0)" fill="rgb(252,252,252)" d="M 851.342 762.151 C 883.06 786.215 889.758 807.245 862.492 839.98 C 838.858 868.354 812.834 888.61 781.835 908.556 C 781.97 886.688 787.553 870.209 795.603 849.902 C 796.067 857.196 796.632 862.797 797.629 870.038 C 795.88 880.64 794.378 885.85 790.96 896.082 C 819.036 874.46 861.43 841.772 870.958 805.668 C 876.533 784.548 860.413 777.642 851.342 762.151 z"/><path transform="translate(0,0)" fill="rgb(254,78,0)" d="M 1712.78 485.404 C 1726.71 477.916 1757.72 465.292 1772.92 458.822 C 1837.75 431.224 1888.48 408.411 1941.32 360.485 C 1935.84 375.161 1926.17 397.928 1917.55 410.434 C 1912.54 420.151 1901.39 433.11 1894.16 441.789 C 1843.72 502.279 1753.42 534.848 1676.2 540.676 C 1715.06 524.334 1731.4 506.313 1758.11 473.556 C 1745.95 478.132 1725.59 482.654 1712.78 485.404 z"/><path transform="translate(0,0)" fill="url(#Gradient4)" d="M 1712.78 485.404 C 1726.71 477.916 1757.72 465.292 1772.92 458.822 C 1837.75 431.224 1888.48 408.411 1941.32 360.485 C 1935.84 375.161 1926.17 397.928 1917.55 410.434 L 1917.45 407.046 C 1914.61 402.794 1915.88 403.856 1910.68 401.485 L 1909.68 401.038 L 1911.12 395.268 C 1908.84 394.9 1909.74 395.177 1906.78 397.105 C 1898.59 400.76 1886.09 409.882 1877.99 415.127 C 1856.99 428.719 1838.29 438.329 1819.62 455.167 C 1808.58 453.905 1804.48 465.157 1796.85 462.545 L 1794.67 458.292 L 1792.88 458.664 C 1781.48 462.988 1768.96 467.991 1758.11 473.556 C 1745.95 478.132 1725.59 482.654 1712.78 485.404 z"/><path transform="translate(0,0)" fill="rgb(253,175,136)" d="M 1792.88 458.664 L 1794.67 458.292 L 1796.85 462.545 C 1804.48 465.157 1808.58 453.905 1819.62 455.167 C 1801.69 471.756 1789.68 484.039 1766.79 493.049 C 1771.87 488.025 1791.94 464.352 1792.88 458.664 z"/><path transform="translate(0,0)" fill="rgb(253,175,136)" d="M 1906.78 397.105 C 1909.74 395.177 1908.84 394.9 1911.12 395.268 L 1909.68 401.038 L 1910.68 401.485 C 1915.88 403.856 1914.61 402.794 1917.45 407.046 L 1917.55 410.434 C 1912.54 420.151 1901.39 433.11 1894.16 441.789 C 1891.94 434.194 1903.02 410.328 1906.7 403.266 C 1908.31 400.178 1907.78 399.421 1906.78 397.105 z"/><path transform="translate(0,0)" fill="rgb(254,78,0)" d="M 139.474 407.9 C 131.413 395.303 120.498 374.306 116.867 359.689 C 167.565 414.244 273.602 449.112 339.177 484.396 C 325.897 481.31 305.653 476.442 293.223 471.398 C 292.756 478.552 310.44 495.654 315.49 500.512 C 332.625 516.995 354.036 528.511 374.242 540.803 C 358.776 538.137 342.345 535.712 327.097 532.7 C 261.881 519.815 189.159 482.726 151.834 426.102 C 147.853 420.627 142.525 413.75 139.474 407.9 z"/><path transform="translate(0,0)" fill="url(#Gradient3)" d="M 139.474 407.9 C 131.413 395.303 120.498 374.306 116.867 359.689 C 167.565 414.244 273.602 449.112 339.177 484.396 C 325.897 481.31 305.653 476.442 293.223 471.398 C 287.961 466.729 262.576 455.984 254.155 452.151 C 263.012 462.652 274.937 477.436 279.855 490.103 C 261.829 479.516 236.824 452.73 219.717 439.058 C 205.169 427.431 188.934 419.438 173.172 409.561 C 166.218 405.204 155.596 396.65 148.791 393.831 L 148.066 395.9 L 147.255 398.764 C 144.081 400.059 143.502 400.786 140.511 398.456 L 138.579 398.736 C 138.916 403.235 140.212 403.477 139.474 407.9 z"/><path transform="translate(0,0)" fill="rgb(249,137,92)" d="M 148.066 395.9 C 150.671 403.054 156.573 416.142 155.076 422.982 C 153.346 425.227 154.115 424.678 151.834 426.102 C 147.853 420.627 142.525 413.75 139.474 407.9 C 140.212 403.477 138.916 403.235 138.579 398.736 L 140.511 398.456 C 143.502 400.786 144.081 400.059 147.255 398.764 L 148.066 395.9 z"/><path transform="translate(0,0)" fill="rgb(254,78,0)" d="M 1555.18 478.404 C 1561.29 472.182 1572.75 466.438 1580.41 461.773 C 1655.13 416.266 1715.37 359.096 1756.87 281.793 C 1755.31 297.577 1749.1 316.78 1744.07 331.982 C 1744.31 348.406 1729.72 391.176 1717.52 402.761 C 1711.99 408.009 1695.14 420.071 1688.08 425.431 C 1636.2 464.861 1598.93 492.201 1538.17 515.864 C 1549.49 516.145 1562.34 514.839 1573.6 513.341 C 1545.66 530.201 1522.74 534.541 1491.65 539.758 C 1503.66 527.346 1517.79 516.197 1530.42 504.333 C 1539.24 496.048 1546.96 487.239 1555.18 478.404 z"/><path transform="translate(0,0)" fill="rgb(252,252,252)" d="M 1555.18 478.404 C 1561.29 472.182 1572.75 466.438 1580.41 461.773 C 1655.13 416.266 1715.37 359.096 1756.87 281.793 C 1755.31 297.577 1749.1 316.78 1744.07 331.982 C 1711.24 393.421 1657.54 426.164 1597.66 457.814 C 1587.58 463.142 1564.88 475.053 1555.18 478.404 z"/><path transform="translate(0,0)" fill="rgb(254,78,0)" d="M 296.818 277.571 C 327.818 346.162 387.765 401.882 449.93 442.487 C 460.404 449.258 470.982 455.866 481.661 462.31 C 488.487 466.345 501.443 472.9 506.889 477.744 C 517.939 490.183 532.483 502.535 544.663 513.887 C 553.664 522.277 562.82 531.746 571.516 540.523 C 558.965 537.349 546.057 534.908 533.669 531.065 C 519.984 526.818 506.3 521.174 492.942 515.92 C 508.44 514.214 512.113 514.079 527.549 516.274 C 485.677 502.128 469.662 493.373 433.294 469.024 C 411.334 454.34 389.632 439.274 368.199 423.834 C 362.493 419.74 343.072 406.159 339.178 401.4 C 327.15 386.698 316.752 357.253 313.73 338.881 C 305.936 317.247 300.25 300.739 296.818 277.571 z"/><path transform="translate(0,0)" fill="rgb(252,252,252)" d="M 296.818 277.571 C 327.818 346.162 387.765 401.882 449.93 442.487 C 460.404 449.258 470.982 455.866 481.661 462.31 C 488.487 466.345 501.443 472.9 506.889 477.744 C 500.022 477.72 479.595 465.974 472.736 462.366 C 446.603 448.905 421.13 434.201 396.404 418.302 C 389.867 414.16 371.905 402.998 366.782 398.571 C 351.025 384.952 321.966 356.604 313.73 338.881 C 305.936 317.247 300.25 300.739 296.818 277.571 z"/><path transform="translate(0,0)" fill="rgb(254,78,0)" d="M 523.654 454.753 C 522.328 451.933 522.511 453.001 522.272 450.03 L 528.041 451.506 C 546.023 461.96 560.423 471.257 579.313 480.895 C 595.659 490.651 621.014 499.096 636.019 510.419 C 655.53 525.141 672.834 544.012 692.328 559.757 C 720.962 582.884 750.184 592.464 781.935 608.457 C 776.759 607.601 770.609 606.817 765.687 605.26 L 762.873 607.007 L 762.734 609.222 C 765.695 614.429 772.961 619.013 778.024 622.797 C 775.483 623.998 773.623 624.999 771.188 626.348 C 769.759 630.545 772.887 628.568 772.818 634.176 L 768.477 637.64 C 755.256 633.59 678.52 614.182 675.41 604.816 C 680.918 601.784 692.946 611.053 702.506 609.408 C 669.881 595.573 629.961 554.282 602.977 529.765 C 589.177 517.376 575.137 505.258 560.864 493.418 C 544.97 481.48 530.85 467.349 518.926 451.445 L 523.654 454.753 z"/><path transform="translate(0,0)" fill="rgb(252,252,252)" d="M 523.654 454.753 C 522.328 451.933 522.511 453.001 522.272 450.03 L 528.041 451.506 C 546.023 461.96 560.423 471.257 579.313 480.895 C 595.659 490.651 621.014 499.096 636.019 510.419 C 655.53 525.141 672.834 544.012 692.328 559.757 C 720.962 582.884 750.184 592.464 781.935 608.457 C 776.759 607.601 770.609 606.817 765.687 605.26 C 713.883 586.373 672.852 559.227 629.973 525.978 C 615.551 514.795 590.069 503.291 573.404 493.285 C 572.417 492.229 560.886 484.65 559.094 483.459 C 544.837 473.984 535.09 467.506 523.654 454.753 z"/><path transform="translate(0,0)" fill="rgb(254,78,0)" d="M 1246.88 873.007 C 1251.55 872.138 1250.33 871.716 1254.35 873.046 C 1257.61 876.507 1262.75 883.359 1264.05 887.96 C 1263.39 890.287 1264.01 889.361 1262.35 890.828 C 1269.16 904.654 1289.19 909.259 1300.8 921.094 L 1310.65 916.023 C 1334.98 911.21 1339.3 953.683 1322.28 965.668 L 1315.88 966.563 L 1315.07 967.749 L 1315.91 968.512 C 1307.05 977.076 1313.67 982.966 1312.61 993.835 L 1304.96 986.488 C 1298.91 996.766 1297.86 1000.56 1293.54 1011.43 C 1294.29 1001.31 1295.58 992.286 1296.48 982.411 C 1291.91 988.455 1286.08 994.052 1282.35 999.532 L 1281.01 999.712 C 1279.83 997.131 1280.88 993.664 1281.37 990.636 C 1273.77 991.042 1267.73 993.331 1258.98 993.852 C 1265.13 989.952 1268.49 988.252 1273.1 982.565 L 1274.29 981.125 C 1277.72 976.904 1285.28 964.448 1288 959.217 L 1287.34 958.063 C 1276.34 938.412 1282.1 936.525 1262.85 920.719 C 1261.14 929.946 1255.28 952.157 1250.73 959.681 C 1233.86 987.57 1223.75 988.023 1218.51 1022.07 C 1218.87 1027.39 1219.82 1033.02 1220.58 1038.33 C 1217.19 1033.36 1215.21 1030.06 1212.67 1024.64 C 1206.84 1012.2 1210.79 985.219 1216.49 973.193 C 1219.53 965.048 1223.18 966.583 1226.64 950.715 C 1220.9 951.29 1213.84 954.159 1209.81 952.309 C 1207.94 947.291 1211.46 941.281 1213.67 936.193 C 1212.28 930.107 1210.6 925.981 1212.21 920.161 L 1210.89 919.826 L 1207.34 915.003 C 1212.69 900.453 1232.63 877.823 1246.88 873.007 z"/><path transform="translate(0,0)" fill="rgb(252,252,252)" d="M 1207.34 915.003 C 1212.69 900.453 1232.63 877.823 1246.88 873.007 C 1242.67 881.591 1230.48 891.557 1224.57 900.872 C 1222.44 904.231 1213.84 918.835 1212.21 920.161 L 1210.89 919.826 L 1207.34 915.003 z"/><path transform="translate(0,0)" fill="rgb(252,252,252)" d="M 1216.49 973.193 C 1217.71 975.739 1216.69 1012.45 1218.51 1022.07 C 1218.87 1027.39 1219.82 1033.02 1220.58 1038.33 C 1217.19 1033.36 1215.21 1030.06 1212.67 1024.64 C 1206.84 1012.2 1210.79 985.219 1216.49 973.193 z"/><path transform="translate(0,0)" fill="rgb(253,228,220)" d="M 1310.65 916.023 C 1334.98 911.21 1339.3 953.683 1322.28 965.668 C 1332.79 941.077 1327.97 934.743 1310.65 916.023 z"/><path transform="translate(0,0)" fill="rgb(0,16,58)" d="M 1246.42 893.683 C 1249.97 893.504 1250.88 893.272 1253.2 895.557 C 1254.79 902.003 1247.72 911.9 1245.59 921.999 L 1245.27 923.591 L 1243.96 923.908 C 1240.21 919.66 1239.69 911.186 1239 905.52 C 1241.25 901.379 1243.84 897.618 1246.42 893.683 z"/><path transform="translate(0,0)" fill="rgb(9,12,40)" d="M 1310.68 927.822 C 1312.38 930.176 1311.96 928.864 1311.74 931.959 C 1309.44 935.738 1307.93 936.411 1304.23 939.086 C 1303.3 937.804 1303.72 938.65 1303.52 936.345 L 1310.68 927.822 z"/><path transform="translate(0,0)" fill="rgb(254,78,0)" d="M 116.495 483.234 C 125.881 488.386 135.21 493.554 145.272 497.265 C 160.35 502.176 174.751 509.082 190.096 513.769 C 234.861 527.44 276.342 539.521 318.657 559.788 C 336.566 568.366 365.884 571.521 384.278 580.417 C 361.127 579.4 337.945 579.28 314.785 580.056 C 324.882 583.868 345.07 596.425 358.575 602.723 C 342.596 600.424 326.613 598.768 310.647 596.626 C 279.605 592.462 246.277 581.988 218.006 568.563 C 173.758 553.486 142.276 520.472 116.495 483.234 z"/><path transform="translate(0,0)" fill="rgb(253,175,136)" d="M 116.495 483.234 C 125.881 488.386 135.21 493.554 145.272 497.265 C 152.595 506.267 160.499 510.314 167.297 516.901 C 179.3 528.529 211.721 554.784 218.006 568.563 C 173.758 553.486 142.276 520.472 116.495 483.234 z"/><path transform="translate(0,0)" fill="rgb(254,78,0)" d="M 189.014 272.926 C 214.651 314.181 243.142 339.532 281.854 367.984 C 290.045 373.562 312.035 385.998 317.631 391.419 C 327.187 400.677 339.459 420.314 348.635 431.638 C 361.944 448.061 375.278 459.785 390.815 473.984 C 338.859 460.819 304.593 447.274 262.961 411.633 C 227.199 381.016 194.928 334.17 191.855 286.065 L 189.014 272.926 z"/><path transform="translate(0,0)" fill="url(#Gradient2)" d="M 189.014 272.926 C 214.651 314.181 243.142 339.532 281.854 367.984 C 279.045 371.376 280.708 370.665 277.118 371.064 C 260.709 364.351 218.772 321.627 206.44 307.334 C 202.324 302.564 195.46 291.835 191.855 286.065 L 189.014 272.926 z"/><path transform="translate(0,0)" fill="rgb(254,78,0)" d="M 1872.73 273.338 C 1871.43 278.062 1870.32 281.958 1869.48 286.825 C 1869.62 296.25 1866.1 306.858 1863.37 315.762 C 1845.19 374.916 1798.14 419.789 1744.39 447.809 C 1721.08 459.964 1698.3 466.828 1673.28 474.275 C 1689.94 457.579 1705.86 439.711 1720.68 421.364 C 1732.73 406.444 1737.52 387.553 1759.13 382.812 C 1805.74 350.597 1841.25 321.05 1872.73 273.338 z"/><path transform="translate(0,0)" fill="url(#Gradient1)" d="M 1872.73 273.338 C 1871.43 278.062 1870.32 281.958 1869.48 286.825 C 1848.49 320.987 1815.77 349.398 1782.92 371.916 C 1778.27 375.099 1764.63 383.179 1759.13 382.812 C 1805.74 350.597 1841.25 321.05 1872.73 273.338 z"/><path transform="translate(0,0)" fill="rgb(254,78,0)" d="M 1916.15 496.3 C 1924.23 491.593 1931.85 487.093 1940.25 482.918 C 1921.74 509.502 1894.99 542.129 1866.22 557.915 C 1861.53 561.8 1845.96 568.296 1840.07 570.881 C 1807.07 588.68 1754.9 599.911 1718.02 602.47 C 1733.6 593.788 1741.83 588.789 1755.74 577.959 C 1732.31 577.669 1697.58 579.098 1674.92 582.982 C 1692.72 574.547 1722.52 567.627 1742.2 560.505 L 1916.15 496.3 z"/><path transform="translate(0,0)" fill="rgb(253,175,136)" d="M 1916.15 496.3 C 1924.23 491.593 1931.85 487.093 1940.25 482.918 C 1921.74 509.502 1894.99 542.129 1866.22 557.915 C 1862.78 557.272 1862.07 558.274 1857.13 556.867 C 1855.49 554.417 1855.85 555.79 1855.65 552.83 C 1856.74 551.236 1856.92 550.718 1857.18 548.803 C 1864.95 539.636 1876.88 527.792 1886.2 520.344 C 1896 512.505 1907.63 505.73 1916.15 496.3 z"/><path transform="translate(0,0)" fill="rgb(249,137,92)" d="M 1840.07 570.881 L 1839.2 566.976 C 1840.25 561.288 1852.35 552.437 1857.18 548.803 C 1856.92 550.718 1856.74 551.236 1855.65 552.83 C 1855.85 555.79 1855.49 554.417 1857.13 556.867 C 1862.07 558.274 1862.78 557.272 1866.22 557.915 C 1861.53 561.8 1845.96 568.296 1840.07 570.881 z"/><path transform="translate(0,0)" fill="rgb(252,252,252)" d="M 1399.26 1093.47 C 1406.49 1093.88 1448.12 1132.57 1456.12 1138.75 C 1466.67 1146.9 1480.51 1157.33 1491.09 1165.78 C 1486.61 1157.99 1480.13 1149.56 1475.05 1141.15 C 1522.43 1163.96 1553.4 1183 1597.95 1210.05 C 1585.35 1208.04 1571.55 1207.49 1558.76 1206.8 C 1530.66 1204.26 1522.38 1196.98 1498.46 1181.84 C 1507.61 1193.09 1515.68 1205.94 1525.56 1218.09 C 1498.85 1208.44 1473.66 1192.74 1449.84 1177.01 C 1442.35 1171.22 1435.79 1163.02 1428.57 1157.1 C 1407.98 1140.25 1394.37 1118.75 1381.12 1096 C 1388.62 1096.05 1392.32 1096.33 1399.26 1093.47 z"/><path transform="translate(0,0)" fill="rgb(8,9,15)" d="M 1411.15 1121.67 C 1421.6 1124.14 1431.29 1131 1436.5 1140.43 C 1436.11 1141.5 1435.73 1142.57 1435.34 1143.64 C 1437.99 1147.39 1441.81 1146.95 1446.61 1151.41 C 1444.18 1151.36 1445.39 1151.31 1442.98 1151.56 C 1444.86 1154.42 1447.5 1155.98 1450.31 1158.12 L 1452.06 1159.87 L 1451.05 1160.5 C 1438.87 1154.4 1421.82 1132.61 1411.15 1121.67 z"/><path transform="translate(0,0)" fill="rgb(252,252,252)" d="M 656.91 1223.93 C 683.387 1224 736.981 1217.1 748.454 1246.32 C 759.458 1274.35 741.105 1288.8 719.066 1298.25 L 719.893 1299.61 C 710.161 1302.82 665.479 1305.07 657.005 1300.86 L 656.91 1223.93 z"/><path transform="translate(0,0)" fill="rgb(9,12,40)" d="M 657.005 1300.86 C 663.728 1299.48 684.662 1299.8 692.715 1299.8 C 703.052 1299.81 709.081 1298.94 719.066 1298.25 L 719.893 1299.61 C 710.161 1302.82 665.479 1305.07 657.005 1300.86 z"/><path transform="translate(0,0)" fill="rgb(0,16,58)" d="M 684.096 1242.13 C 695.802 1242.34 707.041 1241.73 716.652 1249.7 C 726.193 1257.62 722.9 1267.41 715.527 1275.39 C 704.755 1281.15 695.892 1280.88 684.01 1280.91 L 684.096 1242.13 z"/><path transform="translate(0,0)" fill="rgb(252,252,252)" d="M 1300 1223.94 C 1320.88 1223.85 1362.82 1220.84 1379.58 1228.82 C 1398.84 1237.98 1395.67 1264.34 1370.64 1271.13 C 1375.96 1276.52 1393.79 1293.44 1394.84 1299.25 L 1392.25 1299.87 L 1364.62 1300.02 C 1357.2 1291.9 1351.11 1283 1343.41 1274.68 C 1338.49 1274.43 1332.99 1274.54 1328.01 1274.53 L 1328.19 1299.95 L 1300 1299.97 L 1300 1223.94 z"/><path transform="translate(0,0)" fill="rgb(0,16,58)" d="M 1328.01 1241.82 C 1337.71 1241.8 1356.68 1238.77 1361.71 1247.5 C 1362.03 1251.42 1361.69 1251.46 1359.96 1254.89 C 1350.24 1259.17 1338.88 1257.93 1328.09 1257.78 L 1328.01 1241.82 z"/><path transform="translate(0,0)" fill="rgb(252,252,252)" d="M 975.583 1223.99 C 984.387 1223.94 993.191 1223.82 1001.99 1223.64 C 1002.03 1233.28 1003.2 1293.99 1000.87 1299.38 L 998.25 1299.9 L 972.341 1299.92 C 960.64 1284.9 941.989 1263.92 932.184 1248.77 C 932.12 1265.83 932.157 1282.89 932.295 1299.95 L 906.595 1299.99 C 906.933 1274.63 907.014 1249.26 906.837 1223.9 L 940.514 1224 C 952.244 1238.63 964.719 1253.95 975.896 1268.92 C 975.216 1255.14 975.624 1238.03 975.583 1223.99 z"/><path transform="translate(0,0)" fill="rgb(252,252,252)" d="M 782.014 1224.01 L 864.057 1223.99 L 864.045 1241.92 C 855.563 1241.93 814.07 1240.35 810.417 1243.75 C 810.301 1246.88 809.808 1249.62 811.162 1252.34 C 818.712 1253.76 850.214 1252.75 859.056 1252.6 L 859.09 1270.01 L 826.5 1270 L 818.485 1269.84 C 809.99 1269.59 806.985 1275.25 811.222 1281.32 C 819.851 1282.77 853.677 1281.6 864.749 1281.42 L 864.613 1299.96 L 782.024 1299.97 L 782.014 1224.01 z"/><path transform="translate(0,0)" fill="rgb(252,252,252)" d="M 1177.21 1223.84 C 1204.13 1224 1231.06 1223.99 1257.99 1223.81 L 1257.42 1241.89 C 1245.78 1241.93 1214.13 1241.14 1204.98 1242.48 C 1203.69 1245.29 1204.06 1249.69 1204.07 1252.97 L 1253.86 1252.82 L 1254.04 1270.04 L 1220.75 1270 L 1204.63 1269.97 L 1204.1 1281.77 C 1222.26 1281.52 1239.62 1282.07 1257.91 1281.16 L 1257.95 1299.9 L 1177.73 1299.99 C 1177.17 1274.99 1177.45 1248.98 1177.21 1223.84 z"/><path transform="translate(0,0)" fill="rgb(254,78,0)" d="M 1077.72 793.314 L 1080.6 795.417 C 1088.35 802.513 1096.73 807.893 1104.36 815.149 C 1111.27 821.716 1115.35 832.102 1120.95 839.215 C 1135.67 857.899 1142.55 872.4 1152.1 893.512 C 1145.16 885.766 1140.05 878.81 1133.89 870.503 C 1134.24 883.11 1134.94 887.89 1128.62 899.24 C 1121.42 888.965 1115.52 879.42 1113.4 866.955 L 1112.04 865.911 C 1104.06 872.778 1120.61 903.806 1120.84 912.865 C 1121.25 928.435 1122.57 943.65 1123.64 959.066 C 1115.4 934.232 1110.74 923.883 1100.26 900.387 L 1099.76 941.11 C 1093.65 926.499 1068.35 869.604 1072.62 857.757 C 1078.43 853.12 1085.9 862.617 1090.17 866.685 C 1092.94 859.234 1094.63 855.895 1098.44 848.861 C 1091.79 834.435 1082.7 812.815 1073.59 800.527 C 1075.26 798.396 1076.44 795.765 1077.72 793.314 z"/><path transform="translate(0,0)" fill="rgb(254,78,0)" d="M 328.098 700.02 C 360.724 694.346 375.238 692.541 408.104 699.39 C 421.085 702.095 436.731 701.764 450.497 704.945 C 438.066 706.712 425.716 708.428 413.422 711.015 C 398.3 714.197 383.51 718.492 368.23 720.813 C 381.672 724.997 385.529 725.914 397.16 733.232 C 376.258 730.692 363.052 733.297 342.885 733.546 C 316.592 733.87 281.149 726.652 258.95 711.771 C 253.436 708.647 247.969 705.439 242.552 702.149 C 272.557 700.772 297.085 702.273 328.098 700.02 z"/><path transform="translate(0,0)" fill="rgb(250,198,166)" d="M 242.552 702.149 C 272.557 700.772 297.085 702.273 328.098 700.02 C 322.869 703.177 267.689 711.146 258.95 711.771 C 253.436 708.647 247.969 705.439 242.552 702.149 z"/><path transform="translate(0,0)" fill="rgb(252,252,252)" d="M 1269.57 1102.6 C 1286.65 1092.41 1288.39 1084.41 1299.99 1076.76 C 1304.65 1076.97 1305.85 1076.92 1310.14 1075.12 L 1311.82 1080.38 C 1315.66 1082.06 1319.23 1083.66 1321.36 1087.55 L 1320.98 1090.7 C 1328.66 1100.53 1341.22 1107.51 1350.09 1117.06 C 1361.86 1129.73 1370.16 1144.11 1380.74 1157.76 L 1380.47 1158.88 L 1378.08 1157.63 L 1377.51 1160.27 C 1375.74 1160.9 1374.13 1161.48 1372.39 1162.17 L 1382.88 1174.58 C 1357.61 1162.25 1325.85 1159.77 1308.36 1135.76 C 1308.43 1135.85 1307.41 1131.68 1307.14 1131.55 C 1290.98 1123.7 1280.02 1117.74 1269.57 1102.6 z"/><path transform="translate(0,0)" fill="rgb(8,9,15)" d="M 1356.17 1143.18 C 1364.56 1147.66 1371.18 1150.93 1378.08 1157.63 L 1377.51 1160.27 C 1375.74 1160.9 1374.13 1161.48 1372.39 1162.17 C 1367.48 1156.97 1360.61 1151.21 1355.14 1146.37 L 1356.17 1143.18 z"/><path transform="translate(0,0)" fill="rgb(93,116,137)" d="M 1311.82 1080.38 C 1315.66 1082.06 1319.23 1083.66 1321.36 1087.55 L 1320.98 1090.7 C 1318.04 1086.88 1315.02 1085.66 1311.82 1080.38 z"/><path transform="translate(0,0)" fill="rgb(8,9,15)" d="M 1342.84 1135.46 C 1347.36 1137.9 1351.81 1140.48 1356.17 1143.18 L 1355.14 1146.37 C 1350.86 1142.84 1346.93 1139.2 1342.84 1135.46 z"/><path transform="translate(0,0)" fill="rgb(254,78,0)" d="M 679.819 976.891 C 702.628 946.592 736.562 965.471 750.594 993.953 C 757.93 1002.81 764.039 1017.92 769.07 1028.58 C 760.333 1018.73 733.764 996.74 721.304 995.916 C 716.068 998.059 715.96 1003.64 714.699 1008.93 L 705.724 1001.04 C 701.452 1009.37 700.294 1011.23 692.627 1017.28 C 698.212 1033.65 705.106 1049.55 713.244 1064.82 C 709.194 1062.81 700.788 1058.74 697.703 1055.64 C 674.95 1044.55 671.398 1031.88 665.189 1008.87 L 661.909 998.2 C 672.071 990.297 672.973 987.967 679.819 976.891 z"/><path transform="translate(0,0)" fill="rgb(252,252,252)" d="M 679.819 976.891 C 702.628 946.592 736.562 965.471 750.594 993.953 C 746.167 992.416 744.943 989.467 741.454 986.954 C 721.878 972.852 701.254 962.215 680.683 981.424 L 679.819 976.891 z"/><path transform="translate(0,0)" fill="rgb(253,228,220)" d="M 665.189 1008.87 C 667.977 1006.11 667.329 1006.95 671.725 1005.85 C 674.097 1018.55 678.999 1035.05 687.52 1045.2 C 690.492 1048.74 695.888 1051.91 697.703 1055.64 C 674.95 1044.55 671.398 1031.88 665.189 1008.87 z"/><path transform="translate(0,0)" fill="rgb(253,228,220)" d="M 679.819 976.891 L 680.683 981.424 C 674.808 989.341 673.885 996.345 671.725 1005.85 C 667.329 1006.95 667.977 1006.11 665.189 1008.87 L 661.909 998.2 C 672.071 990.297 672.973 987.967 679.819 976.891 z"/><path transform="translate(0,0)" fill="rgb(252,252,252)" d="M 1115.72 1223.91 L 1146.36 1223.86 L 1139.54 1237.3 C 1128.71 1258.18 1118.57 1279.01 1107.54 1299.95 L 1073.74 1299.98 C 1060.77 1274.77 1048.1 1249.4 1035.75 1223.88 L 1066.22 1223.92 C 1074.3 1242.02 1082.42 1260.85 1090.93 1278.7 C 1098.92 1260.52 1107.51 1242.04 1115.72 1223.91 z"/><path transform="translate(0,0)" fill="rgb(254,78,0)" d="M 840.397 949.886 C 842.39 941.542 843.23 932.406 845.788 924.905 L 846.684 924.411 C 849.252 938.098 859.22 956.16 857.066 964.22 C 854.792 967.255 853.764 967.334 850.257 968.688 C 851.136 977.754 865.707 1009.13 871.021 1017.64 C 857.223 1009.36 848.69 1003.96 836.161 993.456 L 835.138 994.274 L 832.112 992.765 L 829.362 994.036 C 831.447 999.891 840.69 1019.85 831.652 1021.56 C 815.781 1016.38 799.34 991.405 793.126 976.896 C 790.052 969.716 784.841 962.964 784.59 954.95 C 786.767 952.643 790.655 950.717 793.534 949.075 C 795.548 950.934 795.787 951.401 797.389 953.671 L 798.81 953.558 C 802.467 948.434 806.205 942.674 810.981 938.626 C 820.478 941.045 831.227 946.009 840.397 949.886 z"/><path transform="translate(0,0)" fill="rgb(0,16,58)" d="M 824.794 981.958 L 836.161 993.456 L 835.138 994.274 L 832.112 992.765 L 829.362 994.036 L 824.794 981.958 z"/><path transform="translate(0,0)" fill="rgb(254,78,0)" d="M 1625.8 705.234 C 1646.64 701.208 1668.8 700.197 1689.85 695.848 C 1705.26 692.665 1734.58 694.851 1749.89 699.706 C 1775.88 702.173 1793.77 701.782 1819.86 700.956 C 1809.5 707.192 1799.95 713.02 1789.19 718.564 C 1747.62 740.211 1721.65 728.108 1681.36 733.831 C 1692.56 727.629 1700.68 724.43 1712.78 720.33 C 1680.55 715.667 1659.01 708.607 1625.8 705.234 z"/><path transform="translate(0,0)" fill="rgb(250,198,166)" d="M 1749.89 699.706 C 1775.88 702.173 1793.77 701.782 1819.86 700.956 C 1809.5 707.192 1799.95 713.02 1789.19 718.564 C 1783.72 702.25 1758.39 706.693 1749.89 699.706 z"/><path transform="translate(0,0)" fill="rgb(254,78,0)" d="M 618.727 988.314 C 629.823 984.925 634.845 980.644 643.33 977.731 C 648.382 980.307 650.856 981.606 655.619 984.953 C 648.358 991.194 641.907 997.353 635.786 1004.91 C 635.179 1005.66 631.137 1005.64 629.994 1005.62 L 629.415 1006.68 C 633.113 1011.02 642.556 1017.23 636.497 1022.98 C 628.679 1022.62 621.742 1018.64 615.821 1013.82 C 619.686 1030.97 623.453 1029.88 632.733 1044.39 C 634.848 1047.7 636.781 1053.09 638.648 1055.72 L 638.338 1056.55 C 639.396 1058.73 641.339 1063.04 642.504 1064.94 C 640.051 1069.87 637.175 1076.15 634.29 1080.71 C 626.672 1093.32 615.749 1103.4 604.697 1113.12 C 626.679 1066.44 609.667 1080.65 608.025 1035.95 C 606.397 1033.93 601.784 1030.04 599.682 1028.2 C 597.867 1031.16 596.128 1034.89 593.204 1035.98 C 591.445 1033.57 591.991 1029.68 592.028 1026.48 C 593.254 1004.64 596.815 996.774 618.727 988.314 z"/><path transform="translate(0,0)" fill="rgb(252,252,252)" d="M 608.025 1035.95 L 609.72 1035.4 C 612.204 1042.58 621.407 1072.59 624.816 1076.41 C 626.68 1075.79 625.988 1076.31 627.049 1075.11 C 630.328 1075.79 631.646 1078.59 634.29 1080.71 C 626.672 1093.32 615.749 1103.4 604.697 1113.12 C 626.679 1066.44 609.667 1080.65 608.025 1035.95 z"/><path transform="translate(0,0)" fill="rgb(253,175,136)" d="M 592.028 1026.48 C 593.254 1004.64 596.815 996.774 618.727 988.314 L 618.92 991.442 C 617.303 992.765 615.917 993.669 614.01 994.571 C 604.292 999.167 603.673 1011.16 605.33 1020.42 C 606.368 1026.22 606.408 1030.36 609.72 1035.4 L 608.025 1035.95 C 606.397 1033.93 601.784 1030.04 599.682 1028.2 C 597.867 1031.16 596.128 1034.89 593.204 1035.98 C 591.445 1033.57 591.991 1029.68 592.028 1026.48 z"/><path transform="translate(0,0)" fill="rgb(250,198,166)" d="M 592.028 1026.48 C 595.853 1025.33 595.917 1024.57 599.01 1025.6 L 599.682 1028.2 C 597.867 1031.16 596.128 1034.89 593.204 1035.98 C 591.445 1033.57 591.991 1029.68 592.028 1026.48 z"/><path transform="translate(0,0)" fill="rgb(250,198,166)" d="M 638.338 1056.55 C 639.396 1058.73 641.339 1063.04 642.504 1064.94 C 640.051 1069.87 637.175 1076.15 634.29 1080.71 C 631.646 1078.59 630.328 1075.79 627.049 1075.11 C 629.6 1067.59 633.391 1062.57 638.338 1056.55 z"/><path transform="translate(0,0)" fill="rgb(254,78,0)" d="M 1683.81 478.298 L 1684.85 479.421 C 1679.56 490.006 1650.68 534.333 1642.74 543.314 C 1621.54 549.631 1601.46 558.295 1580.34 565.227 C 1578.58 563.564 1584.86 558.124 1586.29 556.315 C 1601.02 537.642 1615.42 524.356 1619.85 500.038 C 1629.27 495.46 1674.33 479.832 1683.81 478.298 z"/><path transform="translate(0,0)" fill="rgb(254,78,0)" d="M 375.98 477.436 C 401.962 485.939 416.127 490.115 442.023 500.736 C 451.431 528.865 466.707 543.515 484.965 565.129 C 472.069 562.409 429.961 547.201 420.584 540.834 C 411.416 534.607 382.436 488.426 375.98 477.436 z"/><path transform="translate(0,0)" fill="rgb(254,78,0)" d="M 1198.51 766.379 C 1214.12 764.64 1225.2 770.854 1238.57 777.781 C 1245.52 781.389 1253.17 783.838 1259.57 788.487 L 1259.13 789.625 L 1254.44 790.015 L 1254.27 790.923 C 1264.37 803.263 1286.6 808.607 1301.81 815.572 C 1293.16 816.228 1282.55 816.02 1273.75 816.074 C 1279.58 823.446 1286.93 830.039 1293.97 836.199 C 1293.69 837.287 1293.99 836.685 1292.55 837.631 C 1286.42 836.29 1281.55 833.121 1275.94 830.438 C 1238.82 812.68 1205.47 789.655 1168.72 770.972 C 1178.86 768.552 1188.21 767.612 1198.51 766.379 z"/><path transform="translate(0,0)" fill="rgb(254,78,0)" d="M 1641.84 560.038 L 1642.54 560.864 C 1639.9 566.377 1637.15 571.838 1634.3 577.243 C 1602.89 635.709 1576.37 617.828 1523.4 633.863 L 1522.74 632.874 C 1533.23 623.77 1543.11 615.703 1554.29 607.493 C 1561.58 602.142 1574.46 589.721 1582.39 586.33 C 1603.55 577.275 1621.45 571.577 1641.84 560.038 z"/><path transform="translate(0,0)" fill="rgb(254,78,0)" d="M 415.813 557.724 C 417.777 558.293 417.316 557.968 418.601 558.829 C 441.994 574.497 471.889 579.096 494.606 596.159 C 509.663 607.468 522.596 621.703 536.939 634.17 C 522.466 633.299 495.421 623.174 478.785 622.03 C 454.912 620.388 428.699 577.31 415.813 557.724 z"/><path transform="translate(0,0)" fill="rgb(252,252,252)" d="M 751.527 904.264 C 761.706 902.737 767.232 907.447 774.627 913.447 C 754.711 923.017 744.577 933.853 731.593 951.472 C 727.143 950.52 725.68 951.102 723.443 948.403 C 723.474 944.459 728.942 937.592 731.504 933.677 C 717.884 938.144 709.25 942.334 696.545 949.087 C 685.181 955.878 681.064 962.693 671.149 970.037 L 670.435 969.759 C 689.569 925.332 705.771 913.027 751.527 904.264 z"/><path transform="translate(0,0)" fill="rgb(254,78,0)" d="M 1340.06 994.051 C 1342.11 994.04 1344.77 994.098 1346.6 994.945 C 1363.4 1002.71 1474.19 1088.67 1474.63 1096.93 L 1472.6 1096.32 C 1437.77 1076.69 1403.41 1060.18 1373.19 1033.44 C 1360.22 1021.97 1346.91 1011 1335.53 997.862 L 1335.93 996.058 L 1340.06 994.051 z"/><path transform="translate(0,0)" fill="rgb(252,252,252)" d="M 898.561 774.409 C 910.633 777.325 922.172 782.96 931.96 790.115 C 975.225 821.741 975.033 825.415 983.648 873.553 C 977.052 868.74 959.917 851.64 956.367 844.794 C 948.169 828.985 942.619 817.165 926.913 806.967 C 913.015 797.942 906.601 788.791 898.561 774.409 z"/><path transform="translate(0,0)" fill="rgb(252,252,252)" d="M 452.671 754.104 L 454.396 754.114 L 454.795 754.92 C 444.379 764.428 426.475 775.3 414.493 783.856 C 446.004 784.701 475.699 777.467 506.74 771.305 C 493.626 777.648 474.226 784.086 460.224 788.247 C 411.628 803.326 408.97 797.318 365.048 774.953 C 390.41 772.429 427.171 760.985 452.671 754.104 z"/><path transform="translate(0,0)" fill="rgb(252,252,252)" d="M 900.936 818.733 C 919.217 823.877 927.884 834.614 945.13 843.393 C 953.749 858.578 962.046 897.66 966.019 916.586 C 956.224 902.046 949.194 889.613 936.914 876.853 C 929.871 869.535 919.825 861.974 913.635 855.137 C 912.552 850.78 910.153 843.808 911.931 839.896 C 912.554 838.349 913.408 836.788 914.168 835.289 C 908.052 828.58 905.785 826.167 900.936 818.733 z"/><path transform="translate(0,0)" fill="rgb(8,9,15)" d="M 911.931 839.896 C 912.554 838.349 913.408 836.788 914.168 835.289 C 920.395 841.052 924.795 845.354 930.489 851.612 C 923.404 847.539 918.571 844.603 911.931 839.896 z"/><path transform="translate(0,0)" fill="rgb(254,78,0)" d="M 1479.6 706.386 L 1482.28 706.004 L 1483.33 706.869 C 1479.33 710.199 1473.08 712.163 1468.33 714.525 C 1452.95 722.182 1445.31 728.735 1427.99 730.001 C 1423.1 733.369 1428.15 730.122 1426.84 735.357 C 1421.69 738.743 1417.01 740.382 1411.31 742.669 C 1400.03 740.855 1389.51 736.697 1378.76 732.878 C 1370.41 730.688 1364.1 727.264 1356.58 723.195 C 1379.08 720.787 1400.11 719.742 1422.71 715.89 C 1441.56 712.677 1460.78 708.921 1479.6 706.386 z"/><path transform="translate(0,0)" fill="rgb(254,78,0)" d="M 512.084 541.203 C 525.547 542.295 562.083 551.662 576.568 555.528 C 583.217 561.689 596.727 580.435 601.627 588.434 C 590.632 587.39 566.418 581.462 556.686 577.425 C 542.039 571.35 523.336 552.743 512.084 541.203 z"/><path transform="translate(0,0)" fill="rgb(252,252,252)" d="M 582.664 1049.97 L 583.421 1051.03 C 574.799 1073.2 569.348 1092.76 563.35 1115.07 C 560.451 1125.86 538.937 1158.36 531.243 1167.18 C 528.771 1164.65 542.193 1107.95 546.647 1100.22 C 556.591 1082.96 568.39 1064.01 582.664 1049.97 z"/><path transform="translate(0,0)" fill="rgb(254,78,0)" d="M 1539.41 541.916 L 1541.65 542.446 L 1541.9 543.929 C 1516.56 577.701 1500.33 578.883 1461.45 587.204 C 1460.94 587.107 1460.43 587.01 1459.92 586.912 C 1460.41 584.746 1479.16 560.639 1481.28 559.227 C 1497.85 548.202 1521 549.73 1539.41 541.916 z"/><path transform="translate(0,0)" fill="rgb(254,78,0)" d="M 1581.16 630.391 C 1583.68 630.004 1583.17 630.146 1585.8 630.451 L 1585.56 631.809 C 1540 662.127 1553.54 660.469 1497.75 661.061 C 1495.29 660.973 1495.59 660.964 1493.19 660.435 L 1493.46 659.225 C 1524.44 635.893 1542.94 635.749 1581.16 630.391 z"/><path transform="translate(0,0)" fill="rgb(254,78,0)" d="M 1166.13 951.69 L 1167.06 947.897 C 1165.9 946.673 1165.46 946.192 1164.17 945.087 C 1165.7 942.849 1165.83 942.001 1168.22 940.994 C 1175.46 942.3 1178.06 941.207 1183.82 936.716 C 1185.57 935.337 1187.31 933.934 1189.04 932.507 C 1185.17 944.041 1179.22 960.932 1184.43 972.394 L 1186.36 973.437 C 1193.55 970.544 1194.68 961.553 1203.02 962.334 C 1213.2 971.114 1193.45 989.156 1184.87 991.549 C 1180.65 992.725 1173.95 995.237 1170.51 997.73 C 1163.1 982.305 1168.21 961.938 1166.13 951.69 z"/><path transform="translate(0,0)" fill="rgb(254,78,0)" d="M 471.424 630.069 C 489.418 631.365 526.799 637.619 543.165 644.918 C 549.35 647.676 560.452 656.614 566.376 661.035 C 510.865 658.616 520.386 668.391 471.424 630.069 z"/><path transform="translate(0,0)" fill="rgb(254,78,0)" d="M 1265.14 742.136 C 1313.16 751.939 1313.28 738.775 1359.03 770.205 L 1358.59 771.171 C 1346.35 773.043 1332.27 775.294 1320.14 771.768 C 1302.57 766.663 1279.37 753.565 1265.14 742.136 z"/><path transform="translate(0,0)" fill="rgb(254,78,0)" d="M 548.958 590.898 C 555.684 590.743 592.3 599.893 599.251 601.945 C 608.601 604.707 635.115 622.625 642.557 630.04 C 625.827 630.057 593.276 622.821 578.246 615.263 C 570.909 611.573 554.98 597.275 548.958 590.898 z"/><path transform="translate(0,0)" fill="rgb(252,252,252)" d="M 941.893 1610.7 C 986.903 1607.78 1047.23 1611.83 1093.75 1612.06 C 1103.66 1611.92 1111.91 1611.79 1121.86 1612.5 C 1117.45 1613.18 1111.36 1614.33 1107.06 1614.61 C 1090.88 1617.86 1048.1 1624.82 1033.01 1622.87 C 1006.63 1619.46 967.269 1617.28 941.893 1610.7 z"/><path transform="translate(0,0)" fill="rgb(252,252,252)" d="M 1093.75 1612.06 C 1103.66 1611.92 1111.91 1611.79 1121.86 1612.5 C 1117.45 1613.18 1111.36 1614.33 1107.06 1614.61 L 1104.82 1613.22 C 1099.75 1613.34 1098.56 1613.48 1093.75 1612.06 z"/><path transform="translate(0,0)" fill="rgb(254,78,0)" d="M 1508.2 670.413 C 1515.94 669.823 1528.74 670.145 1537.18 669.909 C 1504.74 688.682 1500.89 695.519 1463.89 694.964 C 1454.79 695.511 1445.7 696.305 1436.64 697.344 C 1457.31 681.493 1482.21 672.121 1508.2 670.413 z"/><path transform="translate(0,0)" fill="rgb(254,78,0)" d="M 562.3 704.319 C 569.759 703.16 648.278 714.446 658.655 717.398 C 655.276 720.027 650.372 722.828 646.628 725.121 C 637.022 729.813 627.791 732.575 617.634 735.629 C 603.594 723.052 579.652 712.668 562.3 704.319 z"/><path transform="translate(0,0)" fill="rgb(252,252,252)" d="M 1215.39 1069.26 C 1199.29 1055.53 1182.35 1042.92 1170.97 1023.81 C 1158.71 1003.22 1156.86 975.802 1160.18 952.328 C 1160.51 950.034 1161.38 950.033 1163.14 949.191 C 1164.58 951.576 1163.66 950.697 1166.13 951.69 C 1168.21 961.938 1163.1 982.305 1170.51 997.73 C 1174.83 1008.67 1174.38 1015.23 1181.02 1027.06 C 1184.37 1020.8 1185.68 1013.88 1187.4 1006.96 C 1193.14 1030.07 1202.59 1049.2 1215.39 1069.26 z"/><path transform="translate(0,0)" fill="rgb(252,252,252)" d="M 538.722 805.269 L 538.721 806.082 C 535.827 810.67 520.145 821.531 514.63 825.336 C 485.694 845.299 481.024 847.728 447.14 841.773 L 445.768 840.846 C 452.498 832.652 523.933 809.962 538.722 805.269 z"/><path transform="translate(0,0)" fill="rgb(254,78,0)" d="M 1498.17 591.175 L 1500.6 590.982 L 1500.82 592.175 C 1477.52 619.853 1453.76 623.465 1419.22 628.823 L 1416.57 629.323 L 1416.77 627.997 C 1452.72 596.522 1452.08 602.37 1498.17 591.175 z"/><path transform="translate(0,0)" fill="rgb(252,252,252)" d="M 1273.21 866.974 C 1302.76 868.746 1363.94 911.476 1381.27 936.233 C 1376.95 934.895 1372.04 931.275 1367.8 929.584 C 1351.64 923.131 1339.86 912.437 1325.6 903.119 C 1307.83 891.515 1289.98 880.165 1273.21 866.974 z"/><path transform="translate(0,0)" fill="rgb(252,252,252)" d="M 1515.82 804.785 C 1537.1 810.602 1561.59 821.441 1582.5 829.084 C 1587.27 830.826 1605.99 838.127 1609.78 840.391 L 1608.79 841.803 C 1600.53 843.628 1584.56 845.338 1576.49 844.946 C 1563.21 844.302 1524.06 814.663 1515.82 804.785 z"/><path transform="translate(0,0)" fill="rgb(227,227,229)" d="M 1589.86 751.376 C 1620.31 760.875 1654.35 771.472 1685.96 774.578 C 1673.76 782.087 1660.9 788.326 1647.15 792.512 L 1649.73 789.54 C 1646.6 786.288 1637.17 786.948 1632.27 784.526 L 1633.62 783.123 C 1630.46 776.986 1598.16 757.821 1589.86 751.376 z"/><path transform="translate(0,0)" fill="rgb(252,252,252)" d="M 1310.14 1075.12 C 1316.71 1071.18 1342.35 1053.77 1346.57 1056.59 C 1354.68 1062.01 1372.04 1103.8 1376.42 1112.43 C 1371.19 1107.78 1365.61 1103.22 1360.52 1098.55 C 1351.54 1090.31 1345.79 1082.21 1335.3 1075.71 C 1331.1 1079.29 1325.61 1084.26 1321.36 1087.55 C 1319.23 1083.66 1315.66 1082.06 1311.82 1080.38 L 1310.14 1075.12 z"/><path transform="translate(0,0)" fill="rgb(254,78,0)" d="M 519.15 670.42 C 545.212 667.492 588.558 673.22 605.629 696.115 C 589.128 695.556 563.075 695.659 548.844 686.852 C 543.018 683.247 521.874 674.303 519.15 670.42 z"/><path transform="translate(0,0)" fill="rgb(254,78,0)" d="M 1454.63 634.384 C 1458.77 633.87 1466.44 634.044 1470.95 634.012 C 1433.17 650.028 1432.83 657.576 1390.75 660.093 C 1385.59 660.031 1380.89 661.605 1375.85 662.91 C 1407.38 636.968 1413.56 639.231 1454.63 634.384 z"/><path transform="translate(0,0)" fill="rgb(252,252,252)" d="M 1459.34 827.898 C 1463.02 828.824 1470.11 831.93 1474.59 833.292 C 1498.13 840.445 1527.72 851.6 1547.65 866.596 C 1541.9 866.048 1531.08 865.735 1524.88 865.775 C 1502.65 865.916 1473.51 844.12 1459.34 827.898 z"/><path transform="translate(0,0)" fill="rgb(252,252,252)" d="M 600.852 827.206 C 597.697 836.17 560.174 862.237 549.158 864.891 C 542.92 866.394 524.951 866.155 517.673 866.13 L 517.65 865.135 C 526.451 854.401 585.221 833.408 600.852 827.206 z"/><path transform="translate(0,0)" fill="rgb(252,252,252)" d="M 1541 770.428 C 1577.72 777.929 1594.79 782.451 1632.27 784.526 C 1637.17 786.948 1646.6 786.288 1649.73 789.54 L 1647.15 792.512 C 1626.8 803.336 1560.57 780.838 1541 770.428 z"/><path transform="translate(0,0)" fill="rgb(254,78,0)" d="M 595.308 636.119 C 609.652 635.424 631.666 637.184 643.324 645.702 C 650.023 650.597 655.75 655.869 663.277 661.101 C 641.154 657.515 611.617 655.113 595.308 636.119 z"/><path transform="translate(0,0)" fill="rgb(252,252,252)" d="M 1312.61 993.835 C 1313.67 982.966 1307.05 977.076 1315.91 968.512 C 1331.05 997.927 1314.98 1020.65 1292.91 1039.31 C 1297.36 1027.23 1306.71 1005.51 1312.61 993.835 z"/><path transform="translate(0,0)" fill="rgb(246,94,2)" d="M 885.76 929.78 C 889.819 932.162 893.393 936.788 896.733 940.147 C 911.395 954.889 916.908 964.33 925.699 982.449 C 910.055 975.717 889.797 946.472 885.76 929.78 z"/><path transform="translate(0,0)" fill="rgb(254,78,0)" d="M 762.137 974.855 C 773.95 986.494 775.589 991.097 780.976 1006.81 C 781.953 1010.82 783.055 1012.32 782.082 1015.68 C 779.118 1014.71 777.485 1012.49 775.248 1010.2 C 760.75 1000.32 761.726 990.753 762.137 974.855 z"/><path transform="translate(0,0)" fill="rgb(246,94,2)" d="M 775.248 1010.2 C 777.401 1007.57 777.318 1008.24 780.976 1006.81 C 781.953 1010.82 783.055 1012.32 782.082 1015.68 C 779.118 1014.71 777.485 1012.49 775.248 1010.2 z"/><path transform="translate(0,0)" fill="rgb(252,252,252)" d="M 1404.48 845.729 C 1409.13 846.19 1456.42 876.239 1464.01 881.077 C 1444.5 880.439 1417 859.59 1404.48 845.729 z"/><path transform="translate(0,0)" fill="rgb(252,252,252)" d="M 644.646 851.19 L 644.596 852.178 C 633.516 865.472 610.707 877.91 594.514 883.472 L 594.409 882.537 C 596.587 877.673 637.415 854.647 644.646 851.19 z"/><path transform="translate(0,0)" fill="rgb(246,94,2)" d="M 1318.64 698.409 C 1326.21 697.507 1334.4 697.516 1341.47 700.413 L 1341.47 701.742 C 1336.8 703.768 1333.07 703.576 1327.97 703.88 C 1316.93 704.129 1306.76 702.498 1295.87 701.039 C 1303.44 700.002 1311.03 699.125 1318.64 698.409 z"/><path transform="translate(0,0)" fill="rgb(253,175,136)" d="M 638.648 1055.72 C 640.626 1050.04 642.081 1041.52 644.211 1037.74 L 645.362 1037.48 C 649.773 1046.84 646.641 1056.25 642.504 1064.94 C 641.339 1063.04 639.396 1058.73 638.338 1056.55 L 638.648 1055.72 z"/><path transform="translate(0,0)" fill="rgb(252,252,252)" d="M 802.228 1177.34 C 806.673 1179.86 809.014 1180.25 809.409 1185.54 C 807.645 1189.19 803.881 1191.33 800.52 1193.8 C 798.184 1195.38 799.393 1195.17 796.949 1195.26 C 795.847 1190.58 800.212 1182 802.228 1177.34 z"/><path transform="translate(0,0)" fill="rgb(253,228,220)" d="M 503.757 432.297 C 511.375 439.104 519.996 445.121 528.041 451.506 L 522.272 450.03 C 522.511 453.001 522.328 451.933 523.654 454.753 L 518.926 451.445 C 513.029 444.681 509.063 439.565 503.757 432.297 z"/><path transform="translate(0,0)" fill="rgb(246,94,2)" d="M 591.486 1649.64 C 600.662 1646.86 602.832 1646.45 612.217 1645.29 C 616.413 1647.56 624.616 1646.18 630.43 1647.09 C 618.914 1648.6 603.453 1648.88 591.486 1649.64 z"/><path transform="translate(0,0)" fill="rgb(253,228,220)" d="M 1200.58 929.077 C 1202.69 922.859 1204.08 920.669 1207.34 915.003 L 1210.89 919.826 C 1207.57 922.958 1204 926.04 1200.58 929.077 z"/><path transform="translate(0,0)" fill="rgb(246,94,2)" d="M 1418.85 1643.34 L 1435.49 1644.87 C 1426.75 1646.17 1417.52 1646.84 1408.77 1645.09 C 1412.62 1644.92 1415.57 1645.22 1418.85 1643.34 z"/><path transform="translate(0,0)" fill="rgb(246,94,2)" d="M 1075.54 833.686 C 1080.23 836.695 1082.38 842.409 1084.41 847.467 C 1079.45 845.575 1076.54 838.523 1075.54 833.686 z"/><path transform="translate(0,0)" fill="rgb(8,9,15)" d="M 1663.91 1684.24 C 1673.36 1687.54 1686.91 1691.92 1695.69 1696.02 C 1684.36 1694.56 1672.99 1693.38 1661.6 1692.49 C 1663.83 1689.28 1663.61 1688.1 1663.91 1684.24 z"/><path transform="translate(0,0)" fill="rgb(9,12,40)" d="M 379.236 1688.13 C 385.506 1685.11 388.979 1684.26 395.674 1682.4 L 392.964 1685.53 C 394.375 1689.12 397.45 1687.8 400.091 1691.89 L 383.041 1693.77 C 382.144 1689.39 382.555 1690.07 379.236 1688.13 z"/><path transform="translate(0,0)" fill="rgb(8,9,15)" d="M 379.236 1688.13 C 382.555 1690.07 382.144 1689.39 383.041 1693.77 C 374.059 1694.43 365.766 1695.8 356.139 1696.36 C 361.37 1693.82 373.296 1690.15 379.236 1688.13 z"/><path transform="translate(0,0)" fill="rgb(66,73,101)" fill-opacity="0.109804" d="M 1779.73 765.692 C 1774.11 765.773 1749.17 766.639 1746.01 764.933 C 1748.9 764.065 1746.6 763.993 1750.12 763.621 C 1755.83 766.934 1775.86 762.439 1779.73 765.692 z"/><path transform="translate(0,0)" fill="rgb(66,73,101)" fill-opacity="0.027451" d="M 1631 1674.51 C 1624.18 1672.7 1620.16 1671.72 1613.69 1668.89 C 1616.79 1668.73 1630.64 1671.61 1635.31 1672.31 C 1632.59 1673.3 1633.16 1672.81 1631 1674.51 z"/></svg>