<svg version="1.1" xmlns="http://www.w3.org/2000/svg" style="display: block;" viewBox="0 0 2048 2048" width="1024" height="1024" preserveAspectRatio="none"><defs><linearGradient id="Gradient1" gradientUnits="userSpaceOnUse" x1="178.07" y1="778.822" x2="196.766" y2="766.92"><stop class="stop0" offset="0" stop-opacity="1" stop-color="rgb(0,0,0)"/><stop class="stop1" offset="1" stop-opacity="1" stop-color="rgb(0,3,23)"/></linearGradient></defs><path transform="translate(0,0)" fill="rgb(0,19,54)" d="M 1446.72 205.361 C 1509.98 226.1 1564.9 245.771 1621.95 282.201 C 1639.57 293.45 1658.33 308.515 1675.18 321.212 C 1669.65 295.936 1664.68 272.427 1658.6 247.114 C 1666.09 256.872 1681.67 269.927 1691.03 279.07 C 1711.3 298.857 1725.87 320.708 1738.52 345.874 C 1746.8 330.285 1749.74 316.296 1750.39 298.577 C 1768.57 324.275 1790.57 378.784 1785.13 410.866 C 1783.39 421.122 1776.98 429.359 1770.96 437.53 C 1776.15 447.889 1783.49 454.503 1791.14 462.855 C 1801.86 474.54 1812.85 487.056 1823.7 498.432 C 1835.49 510.796 1854.44 524.838 1849.47 544.025 C 1846.97 553.155 1836.87 559.655 1831.13 566.722 C 1838.92 596.075 1878.22 659.368 1904.92 676.494 C 1915.64 682.905 1925.93 685.688 1929.5 698.971 C 1937.63 729.168 1922.51 751.61 1910.09 777.791 C 1902.43 793.963 1899.05 822.997 1876.26 826.06 C 1849.18 829.699 1841.39 824.389 1836.35 855.093 C 1833.65 868.913 1810.26 893.345 1795.67 895.212 C 1766.68 900.861 1746.45 893.213 1722.95 878.814 C 1652.96 835.946 1693.43 745.319 1605.1 732.342 C 1585.51 729.444 1565.55 730.119 1546.21 734.336 C 1528.49 738.348 1515.6 744.666 1507.97 762.086 C 1510.83 784.961 1519.08 789.739 1528.87 808.892 C 1545.58 841.925 1554.14 878.48 1553.82 915.498 C 1575.67 918.693 1606.54 928.432 1627.71 935.9 C 1638.04 939.545 1650.55 945.981 1661.22 949.965 C 1698.55 943.111 1721.7 937.908 1756.36 960.215 C 1788.86 981.129 1788.28 1022.07 1810.04 1047.16 C 1817.01 1055.2 1854.24 1083.26 1864.57 1089.1 C 1892.14 1104.68 1925.81 1113.25 1945.8 1141.23 C 1953.54 1152.05 1954.52 1162.72 1959.15 1173.77 L 1960.06 1174.5 C 1967.84 1180.68 1981.87 1187.77 1988.03 1193.98 C 2008.11 1214.21 2027.27 1234.78 2048 1254.48 L 2048 1303.91 L 2048 1324.47 L 2048 1353.79 C 1989.57 1370.29 1908.58 1368.69 1848.77 1359.16 C 1844.91 1358.55 1838.81 1357.11 1836.51 1353.7 C 1836.35 1345.47 1861.84 1305.01 1867.23 1289.8 L 1867.68 1288.51 C 1866.73 1287.49 1865.81 1286.52 1864.76 1285.59 C 1854.02 1276.14 1784 1227.96 1773.85 1225.21 C 1761.87 1221.96 1729.64 1223.49 1716.23 1224.53 C 1713.19 1220.35 1712.2 1222.68 1710.28 1216.27 C 1719.93 1213.3 1731.53 1210.35 1740.57 1206.08 C 1753.05 1200.18 1753.95 1194.28 1747.26 1183.56 C 1734.46 1181.55 1717.42 1183.74 1703.78 1184 C 1679.42 1184.34 1655.06 1184.21 1630.71 1183.62 C 1617.78 1182.79 1607.57 1182.86 1594.61 1183.06 C 1602.92 1179.93 1624.99 1176.09 1634.91 1174.06 C 1645.73 1171.61 1702.74 1159.53 1708.84 1153.07 L 1708.13 1151.64 C 1695.3 1147.37 1654.88 1151.87 1640.2 1151.85 C 1606.3 1151.81 1571.9 1153.75 1538.09 1154.05 C 1539.07 1151.23 1538.48 1150.38 1537.99 1147.15 C 1554.25 1143.65 1687.01 1113.46 1689.08 1111.34 L 1688.44 1109.57 C 1683.02 1105.58 1677.52 1104.48 1671.61 1101.97 C 1644.5 1089.6 1620.29 1096.28 1593.81 1107.04 C 1554.74 1122.92 1521.03 1130.78 1478.29 1127.37 L 1479.53 1126.56 C 1479.5 1123.9 1479.6 1122.32 1479.8 1119.71 L 1480.11 1119.15 C 1468.34 1115.14 1452.82 1113.45 1437.15 1107.95 C 1402.25 1095.69 1369.16 1078.35 1336.41 1061.14 C 1334.08 1061.96 1327.73 1064.12 1326.27 1065.6 C 1305.72 1086.5 1295.23 1133.66 1267.43 1147.66 C 1257.13 1152.85 1225.08 1155.8 1211.64 1157.44 C 1209.13 1158.07 1207.8 1157.83 1206.77 1159.43 C 1210.06 1160.28 1210.13 1160.28 1213.54 1160.31 C 1242.05 1163.14 1271.33 1164.8 1299.99 1166.99 C 1353.67 1170.99 1407.3 1175.6 1460.87 1180.81 C 1491.35 1183.9 1530.08 1187.27 1559.7 1193.27 C 1549.9 1212.3 1538.65 1230.87 1528.46 1249.92 C 1580.29 1251.72 1631.85 1254.97 1683.56 1257.64 C 1704.76 1258.57 1725.94 1259.85 1747.09 1261.48 C 1762.4 1262.56 1778.27 1263.25 1793.24 1266.75 C 1803.57 1269.16 1819.1 1275.13 1826.42 1283.04 C 1827.8 1284.53 1828.82 1286.13 1828.68 1288.18 C 1828.12 1295.85 1775.21 1404.95 1767.16 1421.66 C 1787.56 1452.71 1784.91 1478.97 1777.55 1514.42 C 1767.01 1565.21 1745.8 1619.8 1698.76 1646.98 C 1671.95 1662.48 1647.05 1668.52 1617.41 1660.78 C 1509.36 1632.56 1400.04 1619.74 1289.12 1609.67 C 1013.08 1585.09 735.13 1592.65 460.841 1632.21 C 391.662 1642.17 322.759 1653.97 254.206 1667.59 C 212.175 1676.06 170.25 1686.51 128.291 1694.65 C 164.862 1584.66 200.552 1474.39 235.358 1363.83 C 235.199 1363.52 235.043 1363.2 234.88 1362.89 C 229.242 1352.05 186.192 1292.71 187.841 1285.78 C 188.637 1282.43 191.543 1280.22 194.419 1278.63 C 205.516 1272.52 232.617 1271.55 246.427 1269.47 C 305.121 1260.05 364.006 1251.85 423.043 1244.88 C 441.993 1242.45 460.958 1240.14 479.938 1237.96 C 490.261 1236.76 504.773 1235.55 514.669 1233.53 C 511.467 1226.48 508.127 1218.5 503.971 1212.07 C 494.736 1210.21 479.642 1208.62 470.029 1208.13 L 468.327 1201.43 C 561.426 1181.09 654.185 1159.23 746.566 1135.85 L 815.524 1118.08 C 829.819 1114.46 844.735 1111.32 858.769 1107.07 C 778.271 1107.83 702.696 1120.84 624.966 1141.14 C 573.452 1154.58 524.404 1169.36 471.984 1180.34 C 441.956 1186.63 417.082 1193.32 385.958 1197.16 C 403.743 1188.73 426.731 1183.26 445.698 1176.97 C 498.167 1159.56 555.371 1151.24 605.786 1128.47 C 632.225 1116.53 656.906 1097.02 678.584 1078.28 C 669.305 1079.25 662.778 1079.94 653.366 1079.82 C 648.999 1080.02 640.226 1081.17 637.13 1079.18 C 636.618 1075.86 637.434 1076.17 640.016 1072.36 C 651.218 1051.85 658.053 1017.52 660.625 994.296 C 604.736 1087.62 571.415 1137.28 459.892 1159.33 C 442.757 1162.72 420.673 1168.36 403.418 1172.49 C 375.398 1188.76 369.318 1225.75 332.443 1238.97 C 316.598 1246.17 278.145 1254.42 261.513 1251.97 C 231.712 1247.57 223.533 1256.2 195.953 1266.18 C 186.864 1269.47 145.172 1276.59 153.325 1292.94 C 161.054 1308.45 182.391 1345.59 193.518 1357.52 C 129.358 1364.11 64.605 1375.74 0 1380.46 L 0 1353.16 C 15.1485 1339.25 21.8528 1329.17 32.8618 1311.73 C 37.0286 1305.13 44.6228 1292.39 49.9347 1287.62 C 57.3007 1281.02 75.2786 1279.36 85.1504 1280.04 C 98.607 1280.96 101.011 1286.1 109.123 1295.88 C 117.525 1275.07 129.067 1243.3 152.199 1236.85 C 181.779 1228.6 206.473 1223.73 231.026 1203.89 C 212.188 1203.98 182.293 1209.78 162.489 1211.7 C 110.634 1216.71 51.9424 1225.44 0 1226.29 L 0 1216.64 C 14.5992 1212.43 41.0146 1207.93 56.827 1204.28 C 97.919 1194.62 138.924 1184.59 179.836 1174.19 C 248.99 1156.37 247.97 1157.91 289.528 1099.88 C 268.213 1104.63 238.935 1106.59 216.831 1109.09 C 161.385 1115.38 105.772 1117.93 50.2054 1121.57 C 47.5022 1121.23 47.2586 1121.38 44.8829 1120.16 C 46.3869 1118.14 46.0759 1119.01 46.5682 1116.66 L 44.1749 1115.2 C 101.773 1101.47 159.518 1088.36 217.399 1075.88 C 255.161 1067.36 294.256 1058.67 331.445 1048.2 C 338.673 1046.17 355.558 1039.71 360.83 1034.88 C 379.044 1018.19 387.518 969.654 389.098 945.971 C 350.48 982.184 322.105 997.665 273.012 1017.45 C 292.575 1020.54 308.304 1018.92 327.985 1018.58 C 331.523 1023.77 330.798 1023.02 331.985 1028.88 C 265.064 1049.65 168.688 1052.81 98.6083 1049.8 C 96.518 1049.99 94.5864 1049.86 92.4868 1049.81 L 91.905 1048.86 C 96.1959 1046.31 106.426 1043.91 111.744 1042.42 C 118.015 1041.08 136.306 1036.44 141.719 1034.43 C 153.136 1030.19 224.888 1014.33 228.136 1006.57 C 224.887 1005.35 201.75 1006.14 196.932 1006.09 C 126.238 1005.34 57.0566 986.026 9.87201 930.225 C 58.9303 930.3 115.416 929.993 163.336 918.943 C 151.007 916.431 134.154 915.6 120.94 913.649 C 95.8669 909.947 78.5288 904.428 55.2759 895.781 C 56.1875 893.275 54.8988 890.414 54.1065 887.553 C 141.819 880.455 213.967 881.305 275.321 804.486 C 261.689 806.633 241.11 807.204 225.639 809.079 L 217.177 803.123 C 239.017 793.717 261.635 784.215 281.506 771.333 C 264.144 768.228 227.678 773.627 208.12 773.833 C 208.443 773.289 208.368 772.592 208.449 771.965 C 205.833 771.017 203.953 770.727 202.437 768.482 L 203.193 765.05 C 236.614 756.511 273.986 749.432 308.038 741.721 C 396.712 721.641 470.979 706.099 561.613 728.378 C 570.619 725.55 583.32 719.157 592.783 715.469 C 616.524 706.431 641.28 700.325 666.501 697.288 C 708.519 692.22 744.128 696.605 785.871 697.882 C 823.07 699.02 862.986 684.623 896.023 667.927 C 863.251 670.947 810.694 670.146 777.177 670.021 L 776.83 668.549 C 775.014 666.581 773.974 665.241 772.356 663.144 C 813.176 652.494 853.778 641.025 894.138 628.745 C 848.464 625.03 784.756 640.599 737.678 649.206 C 654.178 665.06 570.154 678.015 485.756 688.048 L 434.43 694.606 C 426.47 695.621 410.124 697.929 402.216 697.957 C 402.046 694.576 400.284 692.111 397.559 690.356 C 475.614 673.6 557.299 659.266 635.976 643.927 L 853.274 599.552 C 833.139 598.044 813.234 598.308 793.24 596.606 C 791.436 594.387 785.609 591.645 782.929 590.239 C 783.85 588.842 785.043 588.674 786.99 587.678 L 787.506 586.149 C 794.575 584.253 801.535 582.759 808.672 581.195 C 851.334 571.842 894.431 562.745 936.661 551.521 C 914.417 549.525 866.664 554.104 843.744 555.692 C 763.282 561.265 678.949 572.814 598.514 575.999 L 599.142 574.929 C 597.434 571.705 597.548 571.714 596.978 568.298 C 620.04 563.79 644.777 557.604 667.902 552.468 C 694.647 546.669 721.433 541.061 748.258 535.643 C 799.192 524.99 857.109 514.508 906.846 501.402 C 890.06 499.41 874.072 497.916 857.199 495.611 C 849.45 494.374 844.147 494.169 836.246 493.861 C 842.802 491.446 845.812 490.528 852.628 489.047 C 874.14 484.003 894.213 477.333 915.068 470.144 C 926.49 466.207 942.048 461.453 952.708 456.125 C 935.984 452.926 911.034 454.368 893.115 453.732 C 855.378 452.438 817.661 450.623 779.974 448.287 L 779.075 447.224 L 779.289 445.662 C 777.472 444.104 777.033 443.646 775.991 441.495 L 774.996 441.229 L 774.955 441.273 C 777.27 440.913 777.802 440.697 780.033 439.919 L 780.78 438.199 C 845.15 425.085 909.622 412.473 974.188 400.362 C 1006.75 394.254 1045.62 388.436 1077.46 380.644 C 1052.1 374.724 1007.86 366.853 982.076 362.868 C 973.957 361.555 966.621 360.406 958.451 359.561 L 979.167 354.189 C 1001.37 346.83 1035.45 339.162 1058.44 333.099 C 1125.37 315.444 1194.77 301.675 1264.01 298.284 C 1281.38 297.432 1301.52 297.954 1319.16 298.071 C 1303.84 294.332 1288.58 289.192 1273.13 286.438 C 1250.72 282.441 1227.02 281.814 1204.29 280.803 L 1192.17 280.26 C 1197.79 277.783 1203.46 275.418 1209.18 273.166 C 1279.96 249.96 1356.75 234.915 1431.15 245.511 C 1450.56 248.275 1466.56 252.684 1485.38 256.393 C 1474.98 238.321 1460.17 221.377 1446.72 205.361 z M 1143.58 595.732 C 1145.74 594.406 1150.43 591.348 1152.5 590.372 L 1153.42 589.83 C 1160.28 585.753 1166.99 580.842 1173.59 576.312 C 1196.5 560.59 1220.13 545.394 1243.87 530.962 C 1323.46 482.464 1410.97 448.385 1502.4 430.291 C 1500.51 426.376 1493.76 411.611 1491.91 408.74 C 1478.57 411.592 1465.47 414.553 1451.98 417.578 C 1342.98 442.006 1240.24 497.742 1160.27 575.707 C 1154.05 581.771 1148.73 588.848 1143.58 595.732 z M 930.25 1077.94 C 946.879 1075.85 950.738 1073 964.694 1063.95 C 946.189 1064.32 927.977 1067.63 909.745 1064.79 C 855.71 1056.4 803.184 1028.68 746.802 1030.45 C 734.481 1031.04 720.218 1032.02 708.028 1032.04 C 738.318 1041.72 767.323 1050.95 798.113 1059.38 C 824.242 1066.54 848.36 1075.39 875.733 1078.06 C 894.887 1079.93 911.311 1078.52 930.25 1077.94 z M 255.283 1233.92 C 271.436 1226.94 284.713 1212.48 292.614 1196.96 C 296.042 1190.23 294.556 1186.15 288.487 1182.47 C 278.82 1195.4 270.567 1208.81 261.037 1221.89 C 256.173 1228.56 250.99 1229.4 249.431 1234.27 L 255.283 1233.92 z M 1099.73 1002.39 C 1060.9 1006.29 1022.32 1013.37 984.131 1021.36 C 971.433 1024.01 952.145 1026.9 940.369 1030.05 L 961.75 1030.15 C 1011.02 1028.96 1076.37 1030.48 1116.92 1002.05 C 1112.85 1002.07 1103.29 1001.9 1099.73 1002.39 z M 349.298 1092.01 C 325.19 1101 300.296 1125.91 295.194 1151.51 L 296.39 1151.89 L 297.775 1151.12 C 304.728 1143.35 351.66 1094.47 351.75 1091.94 L 349.298 1092.01 z M 950.25 1153.87 C 953.642 1143.97 956.619 1137.83 962.181 1128.89 C 964.632 1124.95 971.175 1117.79 971.64 1114.66 L 970.882 1114.18 C 938.947 1123.07 907.535 1134.07 875.975 1144.2 C 869.131 1146.4 846.103 1152.37 851.307 1162.37 C 861.772 1169.76 897.042 1166.04 911.347 1165.58 C 941.725 1163.32 988.394 1166.01 1015.16 1156.36 C 994.061 1155.74 970.688 1156.92 950.25 1153.87 z M 965.519 881.727 C 951.028 901.058 934.726 908.508 939.115 937.099 C 941.209 950.74 947.066 965.639 958.196 974.514 C 967.913 982.263 987.95 981.154 1000.17 980.476 C 1004.11 980.408 1013.8 980.74 1016.61 979.806 L 1014.37 980.255 L 1014.14 978.822 C 972.716 968.97 948.289 958.74 963.95 913.877 C 965.992 908.027 967.248 887.948 965.519 881.727 z"/><path transform="translate(0,0)" fill="rgb(253,253,253)" d="M 1692.94 964.756 C 1719 964.055 1724.69 968.275 1746.09 982.717 C 1764.77 995.326 1772.32 1052.33 1779.09 1054.93 C 1799.11 1062.64 1830.79 1091.98 1850.23 1107.22 C 1868.95 1121.9 1904.65 1130.54 1920.26 1150.57 C 1925.99 1157.93 1928.54 1180.15 1932.43 1190.84 C 1937.98 1195.97 1945.78 1200.18 1952.89 1202.77 C 1971.89 1209.71 1981.05 1227.05 1993.44 1242.4 C 2008.81 1261.44 2025.84 1280.36 2040.66 1299.96 C 2011.93 1301.33 1992.97 1296.37 1968.43 1296.17 C 1963.52 1295.6 1958.96 1295.34 1954.05 1295.06 C 1950.79 1294.76 1946.61 1293.88 1943.32 1293.29 C 1951.7 1291.57 1957.61 1290.35 1966.07 1289.62 L 1966.24 1287.79 C 1963.15 1284.57 1953.39 1286.33 1950.5 1284.38 C 1937.71 1275.75 1922.89 1268.55 1912.86 1257.29 L 1916.97 1252.07 C 1920.94 1251.5 1919.29 1252.34 1922.08 1249.46 C 1899.66 1244.18 1881.31 1234.95 1862.37 1222.14 C 1883.07 1226.48 1905.02 1226.24 1926.08 1228.37 C 1934.36 1229.2 1943.86 1232.5 1950.85 1232.64 C 1950.38 1231.03 1946.82 1229.42 1944.87 1228.21 C 1940.16 1215.64 1922.28 1212.73 1910.14 1210.42 C 1908.29 1210.07 1897.68 1212.79 1897 1212.57 C 1886.87 1209.22 1886.43 1185.52 1885.36 1176.21 C 1885.29 1174.79 1880.06 1175.91 1876.47 1172.46 C 1875.92 1168.31 1876.09 1169.59 1877.89 1165.21 L 1878.29 1164.23 C 1881.81 1164.83 1881.69 1165.09 1884.81 1163.53 C 1879.33 1161.04 1875.38 1160.81 1870.38 1156.83 C 1874.05 1137.75 1839.61 1146.79 1836.24 1136.2 C 1825.77 1103.3 1804.28 1088.53 1778.66 1067.14 C 1774.65 1063.79 1764.17 1046.15 1759.06 1039.9 C 1738.47 1014.71 1713.13 990.028 1692.94 964.756 z"/><path transform="translate(0,0)" fill="rgb(0,54,127)" d="M 1922.08 1249.46 C 1944.45 1252.65 1954.04 1260.76 1970.88 1274.35 C 1975.12 1277.78 1981.1 1280.29 1982.14 1286.05 C 1979.22 1289.63 1970.73 1289.33 1966.07 1289.62 L 1966.24 1287.79 C 1963.15 1284.57 1953.39 1286.33 1950.5 1284.38 C 1937.71 1275.75 1922.89 1268.55 1912.86 1257.29 L 1916.97 1252.07 C 1920.94 1251.5 1919.29 1252.34 1922.08 1249.46 z"/><path transform="translate(0,0)" fill="rgb(7,39,94)" d="M 1884.81 1163.53 C 1892.62 1166.74 1898.02 1169.77 1905.46 1173.89 C 1899.39 1173.86 1892.99 1173.94 1886.96 1173.79 C 1887.67 1179.47 1890.51 1207 1896.73 1208.13 C 1907.34 1210.05 1948.47 1210.79 1944.87 1228.21 C 1940.16 1215.64 1922.28 1212.73 1910.14 1210.42 C 1908.29 1210.07 1897.68 1212.79 1897 1212.57 C 1886.87 1209.22 1886.43 1185.52 1885.36 1176.21 C 1885.29 1174.79 1880.06 1175.91 1876.47 1172.46 C 1875.92 1168.31 1876.09 1169.59 1877.89 1165.21 L 1878.29 1164.23 C 1881.81 1164.83 1881.69 1165.09 1884.81 1163.53 z"/><path transform="translate(0,0)" fill="rgb(0,54,127)" d="M 1760.58 1059.79 C 1752.43 1049.59 1734.49 1034.04 1722.52 1028.7 C 1704.09 1020.47 1658.84 1009.89 1661.08 981.952 C 1664.3 974.467 1683.59 962.842 1692.94 964.756 C 1713.13 990.028 1738.47 1014.71 1759.06 1039.9 C 1764.17 1046.15 1774.65 1063.79 1778.66 1067.14 C 1804.28 1088.53 1825.77 1103.3 1836.24 1136.2 C 1839.61 1146.79 1874.05 1137.75 1870.38 1156.83 C 1864.55 1155.91 1826.19 1142.79 1819.78 1140.16 C 1803.06 1111.74 1755.64 1069.94 1725.75 1053.73 C 1714.16 1047.44 1698.56 1046.64 1686.55 1040.26 C 1688.78 1039.87 1705.88 1037.67 1706.35 1037.36 C 1705.16 1035.9 1704.28 1034.74 1703.2 1033.2 C 1711.51 1032.23 1751.89 1054.51 1760.58 1059.79 z"/><path transform="translate(0,0)" fill="rgb(0,54,127)" d="M 1954.05 1295.06 C 1958.96 1295.34 1963.52 1295.6 1968.43 1296.17 C 1992.97 1296.37 2011.93 1301.33 2040.66 1299.96 L 2048 1303.91 L 2048 1324.47 C 2023.51 1316.38 1991.13 1310.64 1965.36 1308.2 C 1951.07 1306.85 1935.84 1306.78 1921.98 1305.2 C 1930.21 1300.84 1934.09 1298.37 1943.55 1297.42 C 1947.38 1296.43 1949.52 1296.4 1953.51 1296.11 L 1954.05 1295.06 z"/><path transform="translate(0,0)" fill="rgb(7,39,94)" d="M 1954.05 1295.06 C 1958.96 1295.34 1963.52 1295.6 1968.43 1296.17 C 1961.49 1298.44 1950.86 1298.14 1943.55 1297.42 C 1947.38 1296.43 1949.52 1296.4 1953.51 1296.11 L 1954.05 1295.06 z"/><path transform="translate(0,0)" fill="rgb(0,54,127)" d="M 1877.89 1165.21 C 1875.64 1164.87 1874.78 1164.73 1872.51 1164.72 C 1871.21 1166.96 1871.36 1166.86 1869.24 1168.33 C 1861.23 1169.58 1844.06 1166.81 1836.55 1163.46 C 1831.37 1160.67 1827.09 1151.87 1822.36 1149.04 C 1809.76 1141.76 1797.49 1134.44 1785.32 1126.45 C 1779.29 1122.49 1757.95 1103.6 1752.14 1104.83 C 1752.1 1104.61 1759.7 1120.37 1758.7 1119.39 C 1771.96 1132.26 1823.34 1194.4 1840.38 1193.36 C 1842.95 1191.78 1843.58 1191.15 1846.54 1190.45 C 1854.09 1193.02 1877.76 1203.97 1883.92 1208.44 C 1892.82 1214.89 1895.61 1212.47 1902.41 1216.14 L 1902.16 1217.7 C 1897.18 1218.35 1858.28 1195.27 1846.4 1192.16 C 1844.8 1193.25 1842.99 1194.69 1841.02 1195.03 C 1825.01 1197.82 1778.97 1143.01 1767.67 1131.1 C 1757.29 1120.18 1746.35 1109.9 1735.81 1099.16 C 1731.93 1095.22 1728.52 1090.73 1724.54 1086.92 C 1718.84 1081.46 1710.12 1077.5 1703.47 1072.99 C 1714.91 1069.15 1792.95 1132.74 1809.2 1139.54 C 1820.39 1144.21 1828.73 1150.76 1834.57 1161.47 C 1843.03 1164.4 1858.54 1168.13 1867.77 1167.21 C 1869.38 1167.05 1869.64 1165.51 1870.91 1163.41 C 1874.34 1162.32 1874.06 1163 1878.29 1164.23 L 1877.89 1165.21 z"/><path transform="translate(0,0)" fill="rgb(2,7,30)" d="M 1594.61 1183.06 C 1602.92 1179.93 1624.99 1176.09 1634.91 1174.06 C 1636.52 1176.35 1636.73 1176.23 1636.91 1178.95 C 1632.68 1181.84 1623.26 1177.59 1618.43 1179.46 C 1622.25 1182.32 1631.99 1182.05 1637.08 1182.2 L 1636.66 1182.82 L 1630.71 1183.62 C 1617.78 1182.79 1607.57 1182.86 1594.61 1183.06 z"/><path transform="translate(0,0)" fill="rgb(0,0,4)" d="M 98.6083 1049.8 C 96.518 1049.99 94.5864 1049.86 92.4868 1049.81 L 91.905 1048.86 C 96.1959 1046.31 106.426 1043.91 111.744 1042.42 L 116.157 1047.53 L 115.641 1048.76 C 111.903 1050.19 105.226 1048.51 98.6083 1049.8 z"/><path transform="translate(0,0)" fill="rgb(0,0,4)" d="M 958.451 359.561 L 979.167 354.189 C 980.629 356.871 981.751 358.842 983.38 361.414 L 982.076 362.868 C 973.957 361.555 966.621 360.406 958.451 359.561 z"/><path transform="translate(0,0)" fill="rgb(0,0,4)" d="M 836.246 493.861 C 842.802 491.446 845.812 490.528 852.628 489.047 C 855.125 490.749 858.476 492.383 860.013 494.564 L 857.199 495.611 C 849.45 494.374 844.147 494.169 836.246 493.861 z"/><path transform="translate(0,0)" fill="rgb(0,0,4)" d="M 1209.18 273.166 L 1210.33 278.455 C 1208.39 280.625 1207.85 280.064 1204.29 280.803 L 1192.17 280.26 C 1197.79 277.783 1203.46 275.418 1209.18 273.166 z"/><path transform="translate(0,0)" fill="rgb(2,7,30)" d="M 640.016 1072.36 C 644.124 1080.22 646.135 1074 653.366 1079.82 C 648.999 1080.02 640.226 1081.17 637.13 1079.18 C 636.618 1075.86 637.434 1076.17 640.016 1072.36 z"/><path transform="translate(0,0)" fill="rgb(7,39,94)" d="M 1901.81 1247.18 L 1916.97 1252.07 L 1912.86 1257.29 L 1901.81 1247.18 z"/><path transform="translate(0,0)" fill="rgb(253,253,253)" d="M 499.552 1274.41 C 542.484 1270.51 567.042 1288.42 554.596 1334.11 C 548.599 1355.63 542.492 1377.12 536.276 1398.57 C 533.609 1407.61 528.328 1425.45 523.543 1432.95 C 509.35 1455.2 477.706 1470.85 455.493 1483.56 C 466.941 1509.94 479.795 1535.23 490.951 1562.12 C 524.82 1511.47 557.757 1460.21 589.747 1408.36 C 601.22 1390.01 623.663 1356.2 632.562 1337.65 C 626.28 1330.9 607.312 1318.38 606.289 1312.46 C 611.738 1307.71 742.826 1297.62 761.887 1295.66 C 762.755 1363.84 761.383 1432.28 762.031 1500.48 C 762.224 1520.79 762.461 1541.4 761.926 1561.68 C 731.848 1562.8 701.232 1566.87 670.262 1567.82 C 673.088 1552.26 676.951 1535.37 680.217 1519.76 C 674.033 1520.08 666.508 1521.05 660.239 1521.69 C 640.559 1523.16 616.961 1525.89 597.623 1526.11 C 589.958 1541.58 579.299 1559.79 570.853 1575.16 C 518.914 1583.58 454.538 1592.06 401.975 1598.31 C 391.547 1579.19 381.143 1550.81 372.252 1530.13 C 366.667 1517.14 354.385 1488.76 351.594 1476.57 C 348.178 1488.13 346.203 1501.05 342.801 1512.66 C 333.559 1544.18 325.497 1576.58 316.314 1608.03 C 311.022 1609.66 305.542 1611.02 300.093 1611.99 C 272.159 1617 243.927 1623.26 215.841 1627.13 C 238.923 1555.71 256.09 1480.45 278.607 1408.63 C 284.89 1388.6 291.423 1365.68 296.268 1345.34 C 282.002 1335.75 258.557 1319.28 246.356 1307.68 C 254.504 1306.24 263.003 1304.95 271.221 1303.84 C 347.039 1293.62 423.339 1281.09 499.552 1274.41 z"/><path transform="translate(0,0)" fill="rgb(214,219,221)" d="M 746.748 1446.53 C 747.191 1447 747.634 1447.47 748.076 1447.94 C 747.806 1468.95 748.277 1533.31 748.743 1549.77 C 728.257 1550.09 705.506 1551.97 684.587 1552.67 C 686.257 1544.66 693.176 1514.93 689.679 1509.03 C 676.275 1503.04 636.358 1511.51 619.845 1511.86 C 607.939 1512.12 593.662 1513.01 587.223 1524.02 C 580.175 1536.07 573.791 1550.83 564.348 1561.34 L 563.484 1562.29 C 537.853 1568.31 508.136 1570.82 482.013 1574.1 C 457.297 1577.21 433.457 1580.49 408.583 1582.54 C 394.717 1551.4 380.802 1507.32 363.25 1478.75 C 357.995 1477.67 348.496 1474.38 343.644 1477.26 C 334.73 1482.54 314.187 1577.06 309.296 1593.22 C 285.596 1599.44 258.837 1608.76 234.476 1610.45 C 237.92 1595.98 242.477 1580.66 246.5 1566.25 C 253.864 1539.65 262.555 1507.14 270.74 1481.15 C 294.434 1478.69 317.883 1473.77 341.68 1471.17 C 385.24 1466.42 428.998 1461.48 472.255 1454.43 C 479.34 1453.28 486.585 1450.15 493.187 1447.39 C 474.7 1460.1 459.035 1469.07 439.692 1480.24 C 447.19 1495.47 474.745 1558.09 483.725 1567.93 C 489.185 1568.24 495.281 1567.97 500.795 1567.86 C 516.568 1547.11 532.988 1520.87 547.542 1499.07 C 555.361 1487.36 567.516 1466.36 576.813 1456.6 C 587.449 1453.54 621.385 1450.1 633.431 1448.59 C 630.116 1456.31 625.174 1463.3 622.757 1470.87 C 623.97 1476.63 624.047 1478.23 623.165 1484.04 C 648.846 1484.36 669.434 1479.54 692.948 1478.95 C 693.038 1469.37 692.9 1459.79 692.534 1450.21 C 708.194 1450.13 730.484 1447.73 746.748 1446.53 z"/><path transform="translate(0,0)" fill="rgb(0,19,54)" d="M 450.738 1348.4 C 452.635 1348.04 452.98 1348.22 454.951 1348.32 C 456.682 1351.65 438.818 1410.6 436.283 1419.54 C 413.519 1423.56 391.063 1426.64 368.222 1431.05 C 366.526 1431.32 365.295 1431.39 363.585 1431.53 C 362.512 1428.81 381.088 1366.32 383.526 1358.56 C 397.095 1354.97 435.745 1350.33 450.738 1348.4 z"/><path transform="translate(0,0)" fill="rgb(0,19,54)" d="M 680.457 1388.76 C 683.331 1392.05 682.034 1457.03 681.999 1466.71 C 669.701 1469.26 650.54 1471.29 637 1473.58 L 636.268 1472.45 C 637.764 1464.62 674.781 1399.28 680.457 1388.76 z"/><path transform="translate(0,0)" fill="rgb(0,54,127)" d="M 427.306 992.774 L 427.178 991.859 L 426.988 990.332 C 422.871 959.398 433.885 913.829 448.201 886.268 C 456.078 871.103 463.687 860.063 474 846.562 C 531.474 772.541 618.752 727.739 712.4 724.187 C 755.239 722.838 777.655 735.411 826.196 727.402 C 882.385 718.132 915.229 693.082 965.073 676.422 C 953.278 689.66 944.485 701.383 937.641 717.952 C 934.956 724.452 933.32 737.475 929.867 741.972 C 924.02 742.542 911.761 748.582 905.757 751.116 C 886.695 759.162 867.564 767.361 848.986 776.473 C 835.616 782.798 816.658 793.455 803.261 798.098 C 818.695 781.292 827.644 774.311 846.278 761.551 L 844.542 762.008 C 835.526 764.322 826.271 765.423 816.896 766.614 C 774.359 772.015 736.778 794.468 710.214 827.924 C 706.915 832.079 685.132 864.643 684.041 865.078 L 683.642 864.756 C 685.099 854.479 687.213 845.046 689.399 834.93 C 683.747 840.537 684.02 851.44 678.847 860.881 C 649.889 913.716 627.927 968.091 580.114 1008.02 C 586.29 981.045 591.652 953.079 598.12 926.396 C 583.408 940.607 578.223 958.009 564.577 971.514 C 535.68 1000.11 505.279 1029.27 474.716 1056.01 C 458.735 1069.99 440.09 1083.17 423.611 1096.97 C 449.797 1097.24 477.79 1091.18 502.215 1081.91 C 496.346 1086.36 489.992 1089.65 485.001 1093.39 C 459.717 1112.3 447.328 1120.35 416.028 1125.21 C 372.001 1085.88 407.774 1035.3 427.306 992.774 z"/><path transform="translate(0,0)" fill="rgb(253,253,253)" d="M 427.306 992.774 L 427.178 991.859 L 426.988 990.332 C 422.871 959.398 433.885 913.829 448.201 886.268 C 456.078 871.103 463.687 860.063 474 846.562 C 531.474 772.541 618.752 727.739 712.4 724.187 C 755.239 722.838 777.655 735.411 826.196 727.402 C 882.385 718.132 915.229 693.082 965.073 676.422 C 953.278 689.66 944.485 701.383 937.641 717.952 C 934.956 724.452 933.32 737.475 929.867 741.972 C 924.02 742.542 911.761 748.582 905.757 751.116 C 886.695 759.162 867.564 767.361 848.986 776.473 C 835.616 782.798 816.658 793.455 803.261 798.098 C 818.695 781.292 827.644 774.311 846.278 761.551 L 844.542 762.008 C 835.526 764.322 826.271 765.423 816.896 766.614 C 774.359 772.015 736.778 794.468 710.214 827.924 C 706.915 832.079 685.132 864.643 684.041 865.078 L 683.642 864.756 C 685.099 854.479 687.213 845.046 689.399 834.93 C 691.164 831.413 694.747 819.556 696.553 814.859 C 702.784 798.648 709.593 787.814 719.636 773.888 C 696.678 779.692 689.147 782.634 668.739 793.291 C 678.625 776.867 699.887 759.892 714.983 747.834 C 691.081 744.371 667.544 745.232 644.558 752.244 C 611.028 762.473 584.34 780.749 561.988 807.591 C 555.641 815.213 549.457 822.056 544.668 831.034 C 542.148 835.069 539.274 839.964 536.481 843.718 C 544.665 818.615 545.85 813.25 559.468 790.812 C 542.28 805.368 522.767 826.243 509.487 844.562 C 476.854 888.03 450.1 930.413 432.492 982.266 C 431.615 984.849 429.721 992.282 427.306 992.774 z"/><path transform="translate(0,0)" fill="rgb(0,19,54)" d="M 509.487 844.562 C 522.767 826.243 542.28 805.368 559.468 790.812 C 545.85 813.25 544.665 818.615 536.481 843.718 C 539.274 839.964 542.148 835.069 544.668 831.034 C 545.017 834.395 544.546 837.821 542.981 840.851 C 519.766 885.821 506.648 934.719 482.372 978.922 C 485.755 963.162 486.997 944.752 490.929 929.98 C 498.261 902.439 505.6 875.513 512.075 847.707 C 510.796 845.806 511.139 846.118 509.487 844.562 z"/><path transform="translate(0,0)" fill="rgb(0,54,127)" d="M 976.317 704.78 C 998.645 643.526 1047.15 625.822 1107.41 619.718 C 1119.04 646.039 1141.59 681.991 1162.29 702.704 C 1197.58 738.008 1271.62 761.339 1247.1 827.348 C 1245.87 830.636 1243.88 834.074 1241.95 836.998 C 1240.75 828.734 1239.63 819.358 1237.59 811.358 C 1235.22 814.389 1229.81 821.906 1227.01 823.764 L 1225.82 822.911 L 1225.57 818.375 C 1217.3 811.085 1161.94 821.58 1147.62 823.524 L 1144.92 821.296 C 1154.69 816.95 1177.66 809.267 1184.34 804.91 C 1176.8 800.461 1172.15 798.021 1165.9 791.811 C 1153.04 802.034 1111.42 818.084 1094.84 822.724 C 1099.48 812.945 1099.42 810.111 1099.77 799.254 C 1088.79 816.99 1061.96 831.907 1045.34 845.206 C 1039.9 849.555 1026.44 857.071 1019.04 858.939 C 995.885 859.229 992.079 837.22 995.459 819.043 C 997.527 807.921 995.611 798.47 997.833 787.423 C 999.171 776.929 1002.1 766.721 1002.69 756.064 C 994.182 770.95 985.546 780.955 975.82 794.736 C 967.612 806.366 956.984 824.923 951.166 838.105 C 950.26 833.676 949.444 829.252 948.566 824.822 C 944.381 803.695 946.427 781.339 943.641 760.147 C 937.557 780.005 928.498 799.046 922.762 818.832 C 918.324 834.137 920.234 851.16 913.183 865.735 C 910.813 870.636 905.27 874.297 900.58 876.69 C 874.753 889.871 773.299 886.949 739.932 886.863 C 768.281 903.448 798.531 924.021 812.371 954.695 C 774.892 953.829 720.368 927.733 692.593 902.343 C 683.675 894.19 679.476 876.178 683.642 864.756 L 684.041 865.078 C 685.132 864.643 706.915 832.079 710.214 827.924 C 736.778 794.468 774.359 772.015 816.896 766.614 C 826.271 765.423 835.526 764.322 844.542 762.008 L 846.278 761.551 C 827.644 774.311 818.695 781.292 803.261 798.098 C 816.658 793.455 835.616 782.798 848.986 776.473 C 867.564 767.361 886.695 759.162 905.757 751.116 C 911.761 748.582 924.02 742.542 929.867 741.972 L 931.392 742.7 C 934.04 741.722 937.478 739.713 939.778 741.696 C 945.113 746.296 950.959 747.903 946.41 754.755 C 949.586 753.939 951.276 752.59 953.655 751.84 C 958.769 749.252 961.233 744.483 964.202 739.759 C 968.526 728.956 974.644 716.015 979.886 705.488 C 982.199 700.843 987.37 697.735 987.657 693.385 C 983.337 697.398 980.299 700.457 976.317 704.78 z"/><path transform="translate(0,0)" fill="rgb(253,253,253)" d="M 976.317 704.78 C 998.645 643.526 1047.15 625.822 1107.41 619.718 C 1119.04 646.039 1141.59 681.991 1162.29 702.704 C 1197.58 738.008 1271.62 761.339 1247.1 827.348 C 1245.87 830.636 1243.88 834.074 1241.95 836.998 C 1240.75 828.734 1239.63 819.358 1237.59 811.358 C 1235.22 814.389 1229.81 821.906 1227.01 823.764 L 1225.82 822.911 L 1225.57 818.375 C 1217.3 811.085 1161.94 821.58 1147.62 823.524 L 1144.92 821.296 C 1154.69 816.95 1177.66 809.267 1184.34 804.91 C 1184.88 803.458 1185.36 800.364 1184.9 798.927 C 1168.83 748.63 1093.27 721.605 1049 727.093 C 1078.25 702.97 1100.03 701.141 1135.48 701.876 C 1110.6 668.972 1097.91 659.187 1055.57 661.871 C 1030.73 663.444 1004.06 674.486 987.657 693.385 C 983.337 697.398 980.299 700.457 976.317 704.78 z"/><path transform="translate(0,0)" fill="rgb(0,54,127)" d="M 1525.07 364.848 C 1548.39 379.009 1569.42 396.627 1587.45 417.1 C 1591.22 421.378 1606.14 441.371 1609.47 441.744 C 1613.63 450.111 1619.46 462.179 1618.98 471.471 C 1620.9 473.484 1639.89 486.349 1644.52 489.814 C 1659.23 500.966 1673.31 512.941 1686.67 525.683 C 1709.85 547.981 1732.15 571.239 1753.03 595.697 C 1775.59 622.114 1799.62 646.599 1823.84 671.432 C 1804.92 668.796 1792.34 678.529 1777.31 689.793 L 1776.53 690.387 C 1772.79 690.552 1770.19 693.288 1767.23 695.649 C 1739.53 668.066 1713.97 641.457 1681.94 619.02 C 1694.78 642.398 1704.6 658.526 1724.75 677.003 C 1717.08 674.186 1710.56 676.21 1706.65 674.56 C 1679.87 663.26 1659.67 657.596 1630.83 653.088 C 1643.33 661.872 1646.72 661.854 1658.23 673.768 C 1609.47 665.475 1550.34 640.369 1523.09 597.243 C 1518.7 590.168 1515.06 582.653 1512.23 574.822 C 1510.82 570.935 1510.41 564.481 1507.54 562.086 C 1509.15 554.245 1514.23 531.609 1513.63 524.881 C 1517.05 515.519 1530.58 500.247 1529.81 493.054 C 1519.01 489.969 1468.47 543.552 1457.26 553.318 C 1407.64 596.581 1358.24 639.482 1311.46 685.88 C 1293.53 703.658 1270.23 732.22 1257.52 754.423 C 1249.92 721.383 1259.51 662.873 1278.2 634.729 C 1282.27 631.366 1283.07 630.534 1287.72 628.283 L 1288.73 628.854 L 1287.63 631.661 C 1287.12 635.807 1286.41 638.158 1288.25 641.957 C 1295.33 635.907 1304.23 623.354 1310.35 615.604 C 1318.63 604.94 1327.56 594.79 1337.08 585.21 C 1359.42 563.113 1383.86 543.236 1410.04 525.857 C 1424.28 516.448 1438.86 508.425 1452.95 498.597 C 1422.37 502.39 1345.59 496.764 1320.04 506.007 C 1351.11 485.612 1409.51 469.3 1446.13 461.535 C 1497.06 450.737 1526.25 443.137 1572.51 472.323 C 1570.96 456.008 1570.37 445.016 1558.04 431.934 C 1554.98 428.683 1547.43 422.953 1542.67 422.971 L 1541.33 424.733 C 1533.29 402.894 1529.85 387.368 1525.07 364.848 z"/><path transform="translate(0,0)" fill="rgb(7,39,94)" d="M 1278.2 634.729 C 1282.27 631.366 1283.07 630.534 1287.72 628.283 L 1288.73 628.854 L 1287.63 631.661 C 1287.12 635.807 1286.41 638.158 1288.25 641.957 C 1285.23 643.55 1279.91 643.804 1278.61 639.581 L 1280.73 635.904 L 1278.2 634.729 z"/><path transform="translate(0,0)" fill="rgb(0,54,127)" d="M 1278.2 634.729 C 1282.27 631.366 1283.07 630.534 1287.72 628.283 L 1288.73 628.854 L 1287.63 631.661 C 1285.12 633.37 1283.51 634.702 1280.73 635.904 L 1278.2 634.729 z"/><path transform="translate(0,0)" fill="rgb(0,19,54)" d="M 1606.31 527.455 L 1605.71 526.227 L 1604.74 527.67 L 1602.2 528.084 C 1583.6 521.091 1551.28 515.405 1549.53 490.658 L 1550.76 489.458 C 1557.69 491.03 1563.07 499.771 1574.07 502.118 C 1587.2 504.918 1596.58 501.266 1609.5 503.372 C 1619.65 505.027 1632.33 515.503 1637.87 524.011 L 1639.18 523.756 L 1637.69 521.319 L 1638.93 521.193 C 1645.21 526.411 1654.22 538.352 1659.19 545.01 L 1657.39 548.462 C 1661.32 555.62 1664.88 561.231 1667.16 569.123 C 1657.04 564.473 1608.93 537.481 1606.31 527.455 z"/><path transform="translate(0,0)" fill="rgb(253,253,253)" d="M 1639.18 523.756 L 1637.69 521.319 L 1638.93 521.193 C 1645.21 526.411 1654.22 538.352 1659.19 545.01 L 1657.39 548.462 C 1661.32 555.62 1664.88 561.231 1667.16 569.123 C 1657.04 564.473 1608.93 537.481 1606.31 527.455 C 1621.84 534.406 1636.5 546.989 1652.7 553.133 C 1647.82 543.151 1643.25 533.747 1637.87 524.011 L 1639.18 523.756 z"/><path transform="translate(0,0)" fill="rgb(2,7,30)" d="M 1639.18 523.756 L 1637.69 521.319 L 1638.93 521.193 C 1645.21 526.411 1654.22 538.352 1659.19 545.01 L 1657.39 548.462 C 1651.63 539.963 1645.39 531.924 1639.18 523.756 z"/><path transform="translate(0,0)" fill="rgb(0,19,54)" d="M 1659.19 545.01 L 1660.18 540.674 L 1661.13 540.173 C 1674.28 545.738 1721.76 592.903 1727.79 606.814 C 1699.12 598.137 1691.59 584.539 1666.58 570.648 L 1667.16 569.123 C 1664.88 561.231 1661.32 555.62 1657.39 548.462 L 1659.19 545.01 z"/><path transform="translate(0,0)" fill="rgb(253,253,253)" d="M 1587.33 1287.18 C 1600.19 1286.39 1619.63 1288.64 1632.86 1289.88 C 1660.55 1292.52 1688.2 1295.47 1715.82 1298.73 C 1728.91 1300.21 1743.17 1301.24 1756.15 1303.32 C 1758.7 1303.73 1759.45 1304.97 1760.48 1306.75 C 1759.88 1316.63 1744.33 1356.59 1740.09 1368.24 C 1707.37 1366.96 1663.44 1359.35 1628.72 1356.8 C 1623.14 1374.67 1617.36 1392.49 1611.39 1410.23 C 1640.84 1416.64 1678.39 1417.16 1703.41 1433.67 C 1713.66 1440.43 1725.47 1454.95 1726.86 1467.22 C 1730.47 1499.04 1716.46 1552.66 1698.7 1579.6 C 1685.89 1599.04 1666.91 1607.89 1645.24 1611.72 C 1611.76 1613.82 1565.33 1601.02 1531.06 1594.92 C 1514.3 1591.94 1481.22 1585.8 1465.45 1581.5 C 1474.48 1563.24 1482.26 1534.26 1490.41 1513.68 C 1529.15 1516.37 1569.67 1526.59 1607.93 1530.25 L 1622.98 1482.57 C 1589.82 1476.83 1504.1 1471.11 1516.61 1419.04 C 1525.23 1383.17 1538.69 1342.74 1553.16 1308.65 C 1557.98 1297.3 1575.8 1289.78 1587.33 1287.18 z"/><path transform="translate(0,0)" fill="rgb(214,219,221)" d="M 1552.89 1454.82 C 1556.18 1453.49 1579.01 1461.18 1586.03 1462.4 L 1678.36 1478.31 C 1690.57 1480.3 1703.2 1481.08 1715.2 1483.51 C 1713.95 1495.26 1712.12 1506.95 1709.73 1518.53 C 1689.29 1613.86 1641.98 1605.33 1563.8 1588.02 C 1548.7 1584.64 1533.55 1581.52 1518.35 1578.67 C 1507.12 1576.5 1493.04 1574.22 1482.43 1570.6 C 1487.64 1556.5 1492.49 1542.26 1496.97 1527.91 C 1533.08 1533.18 1570.11 1540.07 1606.29 1542.44 C 1622.2 1543.48 1639.11 1473.82 1629.06 1472.44 C 1612.25 1470.12 1567.02 1464.56 1552.89 1454.82 z"/><path transform="translate(0,0)" fill="rgb(253,253,253)" d="M 1271.98 1301.22 L 1403.49 1309 C 1436.68 1311.19 1510.03 1307.71 1502.27 1355.98 C 1498.04 1382.31 1481.47 1424.95 1473 1451.66 C 1467.98 1467.51 1433.83 1481.1 1420.17 1491.51 C 1429.76 1518.22 1443.11 1553.66 1450.8 1580.37 C 1420.22 1576 1387.59 1572.79 1356.74 1569.22 C 1348.16 1536.83 1340.31 1493.42 1329.11 1463.13 L 1327.59 1462.47 C 1318.48 1496.23 1306.54 1530.6 1296.27 1564.13 C 1268.74 1563.66 1237.34 1558.07 1211.38 1557.81 C 1234.45 1481.31 1265.73 1403.73 1289.5 1327.77 C 1284.07 1318.67 1276.62 1309.93 1271.98 1301.22 z"/><path transform="translate(0,0)" fill="rgb(214,219,221)" d="M 1265.35 1439.08 C 1323.53 1443.35 1382.12 1443.29 1440.28 1448.72 C 1447.93 1449.43 1455.7 1450.15 1463.37 1450.61 C 1442.73 1462.65 1427.78 1473.76 1405.64 1483.62 C 1412.23 1511.35 1423.81 1536.55 1431.77 1564.17 C 1418.86 1563.31 1379.8 1558.76 1367.77 1555.87 C 1363.82 1546.97 1362.03 1534.37 1359.33 1524.79 C 1353.09 1502.6 1349.11 1481.49 1339.83 1460.3 C 1336.33 1460.66 1331.06 1460.25 1329.11 1463.13 L 1327.59 1462.47 C 1325.08 1460.95 1320.23 1462.35 1316.59 1462.82 C 1311.49 1475.27 1307.12 1491.05 1303.02 1504.13 C 1298.19 1519.57 1292.8 1535.1 1288.15 1550.52 C 1270.82 1549 1244.22 1547.51 1227.81 1545.03 C 1240.53 1511.21 1252.69 1473.7 1265.35 1439.08 z"/><path transform="translate(0,0)" fill="rgb(0,19,54)" d="M 1360.1 1367.96 C 1375.24 1367.68 1401.78 1370.13 1417.8 1371.15 C 1412.33 1385.73 1406.74 1405.49 1401.97 1420.68 C 1383.26 1419.47 1364.22 1417.27 1345.44 1415.8 C 1350.11 1399.79 1354.99 1383.84 1360.1 1367.96 z"/><path transform="translate(0,0)" fill="rgb(253,253,253)" d="M 1055.01 1294 C 1090.16 1293.32 1125.07 1294.26 1160.16 1295.87 C 1187.68 1297.12 1221.11 1297.09 1248.07 1301.4 C 1253.32 1306.47 1254.66 1307.95 1258.88 1313.95 C 1254.52 1329.96 1249.17 1345.74 1245.1 1361.71 C 1228.39 1359.84 1210.37 1359.87 1193.47 1359.44 C 1180.98 1359.13 1167.59 1358.04 1155.26 1357.94 C 1151.33 1370 1147.23 1382 1142.96 1393.94 C 1160.5 1394.35 1195.34 1394.7 1212.03 1396.75 C 1207.63 1414.31 1200.93 1432.92 1195.74 1450.42 L 1182.91 1450.22 C 1183.32 1451.02 1183.1 1450.45 1183.13 1452.04 C 1173.36 1454.23 1133.48 1455.29 1125.85 1450.23 C 1123.7 1451.01 1123.57 1450.58 1122.48 1453.7 C 1117.75 1467.21 1113.24 1482.19 1109.49 1495.97 C 1125.3 1496.3 1141.15 1497.16 1156.99 1497.66 C 1171.73 1498.13 1187.99 1497.54 1202.54 1498.35 C 1198.54 1517.8 1189.72 1536.07 1185.41 1556.21 C 1146.83 1555.65 1107.69 1553.63 1068.97 1552.67 C 1051.39 1552.24 1015.34 1552.08 999.523 1549.77 C 1021.06 1475.25 1052.1 1398.15 1073.75 1324.14 C 1068.05 1314.41 1059.96 1303.26 1055.01 1294 z"/><path transform="translate(0,0)" fill="rgb(0,0,4)" d="M 1125.85 1450.23 C 1142.76 1449.7 1165.96 1449.55 1182.91 1450.22 C 1183.32 1451.02 1183.1 1450.45 1183.13 1452.04 C 1173.36 1454.23 1133.48 1455.29 1125.85 1450.23 z"/><path transform="translate(0,0)" fill="rgb(214,219,221)" d="M 1169.65 1434.09 C 1175.88 1433.84 1183.69 1433.25 1189.72 1434.07 C 1188.87 1435.23 1182.77 1436.07 1181.21 1436.17 C 1172.45 1438.05 1127.94 1437.14 1116.53 1437.05 C 1115.07 1443.23 1110.96 1454.01 1108.77 1460.31 C 1102.82 1477.39 1098.47 1490.99 1095.7 1509.01 C 1123.14 1507.09 1159.91 1508.99 1188.05 1510.09 C 1184.82 1521.2 1180.56 1533.46 1176.98 1544.57 C 1125.2 1541.07 1069.86 1539.6 1017.8 1537.86 C 1026.57 1503.42 1039.26 1468.69 1050.81 1434.99 C 1083.93 1433.03 1117.52 1434.38 1150.7 1433.78 C 1156.9 1433.66 1163.48 1433.56 1169.65 1434.09 z"/><path transform="translate(0,0)" fill="rgb(178,189,202)" d="M 1169.65 1434.09 C 1175.88 1433.84 1183.69 1433.25 1189.72 1434.07 C 1188.87 1435.23 1182.77 1436.07 1181.21 1436.17 C 1174.67 1436.15 1167.48 1436.28 1161.02 1435.77 C 1162.45 1434.11 1166.39 1434.5 1169.65 1434.09 z"/><path transform="translate(0,0)" fill="rgb(253,253,253)" d="M 934.183 1293.47 C 965.761 1292.95 1002.25 1292.2 1033.57 1293 C 1039.27 1298.76 1042.18 1301.74 1046.92 1308.21 C 1043.71 1321.99 1038.2 1338.7 1033.26 1351.96 C 998.293 1351.99 960.248 1355.1 924.854 1356.17 L 885.173 1494.19 C 919.102 1493.87 956.1 1491.63 990.437 1490.77 C 987.244 1504.93 981.199 1523.25 976.917 1537.48 L 973.413 1550.12 C 929.851 1551.34 884.726 1552.01 841.375 1554.61 C 762.373 1559.35 797.829 1490.21 809.861 1446.2 C 820.832 1406.06 835.594 1365.51 846.511 1325.28 C 839.526 1314.53 830.862 1307.51 825.326 1295.67 C 861.106 1293.94 898.297 1293.92 934.183 1293.47 z"/><path transform="translate(0,0)" fill="rgb(214,219,221)" d="M 861.185 1436.56 C 869.543 1435.82 881.187 1435.88 889.799 1435.66 C 885.572 1454.21 879.065 1472.34 874.518 1492.51 C 878.203 1497.62 883.44 1502.65 887.629 1507.99 C 916.932 1508.18 945.15 1506.49 974.361 1504.85 C 971.278 1516.03 969.251 1525.88 965.014 1536.76 L 933.38 1538.32 C 916.566 1538.51 899.753 1538.84 882.944 1539.32 C 862.922 1540 840.848 1542.25 821.257 1539.8 C 810.439 1537.86 804.466 1525.31 805.962 1515.56 C 809.822 1490.39 817.77 1462.4 825.08 1438.11 C 836.808 1437.87 849.399 1437.09 861.185 1436.56 z"/><path transform="translate(0,0)" fill="rgb(253,253,253)" d="M 1754.34 490.932 C 1740.63 459.607 1726.6 451.497 1697.48 434.637 C 1706.41 433.049 1721.52 439.835 1729.96 442.881 C 1734.57 444.546 1732.94 443.417 1733.85 440.253 C 1740.03 418.585 1754.9 396.108 1764.4 375.697 C 1762.2 413.976 1749.89 416.903 1735.1 445.434 C 1766.12 465.073 1777.67 478.642 1801.16 505.688 C 1806.44 511.763 1815.44 520.266 1819.86 526.426 C 1815.87 543.671 1806.67 548.06 1792.78 558.058 C 1810.59 590.784 1831.4 623.273 1851.3 654.939 C 1859.19 667.494 1871.96 689.378 1886.12 695.604 C 1890.73 697.626 1905.55 694.883 1908.62 700.117 C 1913.36 718.337 1904.31 735.918 1891.35 746.942 C 1892.54 740.18 1896.42 724.093 1892.94 718.721 C 1887.22 719.887 1878.8 732.445 1874.78 737.685 C 1876.78 739.356 1876.13 738.293 1876.68 740.913 C 1873.02 750.038 1856.28 768.512 1848.86 775.336 C 1852.48 753.325 1845.97 754.228 1837.96 735.881 C 1833.99 726.795 1834.96 719.102 1828.98 708.272 C 1822.76 714.738 1816.44 721.119 1810.04 727.415 C 1806.68 716.204 1805.78 719.353 1797.42 711.03 C 1796.06 709.675 1796.69 708.915 1796.76 706.137 C 1791.32 710.953 1788.56 713.227 1782.55 717.262 C 1775.46 711.821 1771.46 707.568 1766.53 700.278 L 1776.53 690.387 L 1777.31 689.793 C 1792.34 678.529 1804.92 668.796 1823.84 671.432 C 1799.62 646.599 1775.59 622.114 1753.03 595.697 C 1732.15 571.239 1709.85 547.981 1686.67 525.683 C 1673.31 512.941 1659.23 500.966 1644.52 489.814 C 1639.89 486.349 1620.9 473.484 1618.98 471.471 C 1628.61 473.716 1654.55 484.554 1664.8 488.649 C 1659.64 477.717 1637.47 465.749 1629.96 456.346 C 1626.02 451.407 1621.94 441.995 1617.46 435.288 C 1622.27 430.325 1626.14 425.687 1630.58 420.382 C 1652.64 419.545 1699.04 450.617 1717.6 464.527 C 1728.59 472.759 1739 481.622 1751 488.906 L 1754.34 490.932 z"/><path transform="translate(0,0)" fill="rgb(0,54,127)" d="M 1796.76 706.137 C 1802.81 699.267 1811.38 687.704 1821.35 687.73 C 1837.11 687.771 1845.32 708.888 1853.69 719.493 C 1857.3 724.065 1864.52 727.656 1868.76 731.703 C 1870.59 733.383 1873.17 736.36 1874.78 737.685 C 1876.78 739.356 1876.13 738.293 1876.68 740.913 C 1873.02 750.038 1856.28 768.512 1848.86 775.336 C 1852.48 753.325 1845.97 754.228 1837.96 735.881 C 1833.99 726.795 1834.96 719.102 1828.98 708.272 C 1822.76 714.738 1816.44 721.119 1810.04 727.415 C 1806.68 716.204 1805.78 719.353 1797.42 711.03 C 1796.06 709.675 1796.69 708.915 1796.76 706.137 z"/><path transform="translate(0,0)" fill="rgb(0,54,127)" d="M 1617.46 435.288 C 1622.27 430.325 1626.14 425.687 1630.58 420.382 C 1667.63 455.856 1678.3 468.658 1705.29 513.013 C 1695.83 505.262 1688.57 501.265 1677.69 495.644 C 1676.08 494.812 1665.85 489.47 1664.8 488.649 C 1659.64 477.717 1637.47 465.749 1629.96 456.346 C 1626.02 451.407 1621.94 441.995 1617.46 435.288 z"/><path transform="translate(0,0)" fill="rgb(7,39,94)" d="M 1738.26 529.691 C 1747.91 536.273 1751.47 563.181 1755.65 573.783 C 1729.07 565.266 1740.27 553.328 1738.26 529.691 z"/><path transform="translate(0,0)" fill="rgb(253,253,253)" d="M 1031.26 870.561 C 1097.13 832.154 1116.92 837.688 1187.94 847.017 C 1204.64 849.143 1221.44 850.478 1238.27 851.017 C 1248.39 851.329 1258.51 850.971 1268.58 849.943 C 1309.31 845.683 1338 836.871 1360.79 879.664 C 1368.39 893.925 1374.18 905.581 1378.17 921.36 C 1364.44 954.483 1332.38 985.24 1311.88 1015.06 C 1303.95 1026.59 1292.92 1037.7 1289.51 1051.82 C 1284.07 1074.43 1273.94 1106.26 1250.39 1116.17 C 1249.38 1116.59 1248.37 1116.99 1247.35 1117.38 L 1246.95 1116.17 C 1259.88 1090.15 1269.02 1072.64 1273.97 1043.36 C 1275.13 1036.53 1281.57 993.202 1283.24 990.201 L 1284.64 990.379 C 1288.76 996.234 1291.32 1015.63 1292.7 1023.48 C 1308.06 1001.4 1332.01 976.724 1344.28 956.853 L 1340.84 953.918 C 1328.2 953.399 1330.17 963.187 1319.71 952.894 C 1316.63 952.402 1314.13 952.785 1311.94 955.251 L 1307.76 957.891 L 1303.27 955.652 C 1304.1 951.251 1303.1 952.996 1305.89 949.995 C 1308.53 949.682 1307.28 950.069 1309.64 948.831 L 1309.64 946.025 C 1305.91 942.649 1292.27 943.762 1284.73 943.079 C 1291.77 935.678 1300.78 925.982 1306.27 917.429 L 1305.95 916.372 C 1294.75 916.316 1293.81 912.872 1292.78 902.488 L 1292.64 901.004 L 1291.5 900.1 C 1282.46 903.196 1275.31 912.324 1264.92 914.709 C 1256.82 916.567 1244.31 916.842 1236.79 912.39 C 1232.38 909.778 1236.79 898.343 1235.38 893.467 C 1234.78 891.375 1232.34 890.379 1230.08 888.775 C 1221.79 905.973 1214.1 916.144 1201.53 929.988 C 1198.29 933.563 1194.91 939.147 1190.96 941.654 L 1189.9 940.385 C 1190.03 929.131 1192.86 924.876 1200.74 916.976 C 1203.3 912.367 1207.26 905.523 1208.56 900.623 C 1203.61 898.6 1199.56 905.178 1195.43 907.713 C 1187.96 912.304 1141.5 927.981 1133.24 929.592 L 1131.67 929.889 C 1132.26 923.006 1131.45 912.458 1134.43 906.719 L 1139.27 905.587 C 1133.87 905.073 1126.68 904.069 1121.51 903.867 C 1111.27 903.465 1097.85 906.744 1087.94 903.162 L 1089.26 900.651 L 1087.3 899.604 C 1073.83 900.542 1061.64 901.473 1048.26 903.131 C 1069.02 893.265 1096.5 885.438 1118.93 881.026 C 1122.85 880.229 1123.68 880.205 1127.15 878.397 C 1105.99 873.3 1053.9 869.166 1031.26 870.561 z"/><path transform="translate(0,0)" fill="rgb(0,54,127)" d="M 1177.1 891.903 C 1190.07 879.212 1197.34 875.745 1216.38 875.86 C 1224.32 875.909 1239.26 877.454 1247.24 878.851 C 1247.97 887.592 1249.41 895.939 1253.99 903.627 L 1257.1 904.493 C 1262.98 900.925 1266.01 887.311 1270.22 880.055 C 1280.41 879.868 1288.52 880.443 1297.86 884.899 C 1321.84 896.342 1322.29 904.459 1316.77 927.551 C 1325.68 928.831 1335.22 930.883 1341.43 937.758 C 1341.96 939.698 1342.43 941.426 1342.87 943.39 C 1344.42 946.74 1345.84 948.742 1345.19 952.005 C 1343.18 953.52 1343.27 953.76 1340.84 953.918 C 1328.2 953.399 1330.17 963.187 1319.71 952.894 C 1316.63 952.402 1314.13 952.785 1311.94 955.251 L 1307.76 957.891 L 1303.27 955.652 C 1304.1 951.251 1303.1 952.996 1305.89 949.995 C 1308.53 949.682 1307.28 950.069 1309.64 948.831 L 1309.64 946.025 C 1305.91 942.649 1292.27 943.762 1284.73 943.079 C 1291.77 935.678 1300.78 925.982 1306.27 917.429 L 1305.95 916.372 C 1294.75 916.316 1293.81 912.872 1292.78 902.488 L 1292.64 901.004 L 1291.5 900.1 C 1282.46 903.196 1275.31 912.324 1264.92 914.709 C 1256.82 916.567 1244.31 916.842 1236.79 912.39 C 1232.38 909.778 1236.79 898.343 1235.38 893.467 C 1234.78 891.375 1232.34 890.379 1230.08 888.775 C 1221.79 905.973 1214.1 916.144 1201.53 929.988 C 1198.29 933.563 1194.91 939.147 1190.96 941.654 L 1189.9 940.385 C 1190.03 929.131 1192.86 924.876 1200.74 916.976 C 1203.3 912.367 1207.26 905.523 1208.56 900.623 C 1203.61 898.6 1199.56 905.178 1195.43 907.713 C 1187.96 912.304 1141.5 927.981 1133.24 929.592 L 1131.67 929.889 C 1132.26 923.006 1131.45 912.458 1134.43 906.719 L 1139.27 905.587 C 1133.87 905.073 1126.68 904.069 1121.51 903.867 C 1111.27 903.465 1097.85 906.744 1087.94 903.162 L 1089.26 900.651 L 1087.3 899.604 C 1117.01 894.832 1147.02 892.258 1177.1 891.903 z"/><path transform="translate(0,0)" fill="rgb(7,39,94)" d="M 1189.9 940.385 C 1190.03 929.131 1192.86 924.876 1200.74 916.976 C 1200.18 928.389 1196.5 930.483 1189.9 940.385 z"/><path transform="translate(0,0)" fill="rgb(0,19,54)" d="M 1177.1 895.468 C 1179.52 895.648 1180.58 895.812 1182.96 896.285 C 1185.07 899.518 1184.15 900.323 1183.93 905.171 C 1182.63 904.986 1180.8 904.561 1179.53 904.301 C 1176.94 900.909 1177.71 900.467 1177.1 895.468 z"/><path transform="translate(0,0)" fill="rgb(7,39,94)" d="M 1342.87 943.39 C 1351.29 936.461 1359.38 929.904 1367.39 922.47 C 1359.17 934.147 1351.75 944.715 1344.28 956.853 L 1340.84 953.918 C 1343.27 953.76 1343.18 953.52 1345.19 952.005 C 1345.84 948.742 1344.42 946.74 1342.87 943.39 z"/><path transform="translate(0,0)" fill="rgb(178,189,202)" d="M 1127.15 878.397 C 1136.41 880.065 1145.6 879.955 1153.83 881.725 C 1141.13 882.103 1130.7 880.894 1118.93 881.026 C 1122.85 880.229 1123.68 880.205 1127.15 878.397 z"/><path transform="translate(0,0)" fill="rgb(0,54,127)" d="M 1063.32 352.827 C 1075.53 347.915 1092.81 344.023 1105.64 340.295 C 1173.08 320.703 1241.99 313.462 1312.09 316.561 C 1327.8 317.255 1355.18 319.855 1370.05 325.933 C 1374.96 324.402 1380.26 324.795 1385.38 324.791 C 1417.4 324.768 1439.4 345.709 1464.32 362.5 L 1462.67 362.422 C 1448.32 361.665 1433.8 356.985 1419.26 355.555 C 1391.85 352.857 1364.33 354.524 1337.03 354.789 C 1311.27 355.04 1289.18 354.898 1264.41 362.681 C 1258.39 364.57 1250.32 362.016 1244.79 363.862 L 1244.25 365.603 C 1273.52 368.268 1302.81 370.784 1332.11 373.152 L 1331.31 376.042 C 1305.58 376.655 1280.5 376.085 1254.81 375.454 C 1208.38 374.312 1164.35 361.225 1118.25 358.422 C 1100 357.311 1081.42 355.496 1063.32 352.827 z"/><path transform="translate(0,0)" fill="rgb(253,253,253)" d="M 1063.32 352.827 C 1075.53 347.915 1092.81 344.023 1105.64 340.295 C 1173.08 320.703 1241.99 313.462 1312.09 316.561 C 1327.8 317.255 1355.18 319.855 1370.05 325.933 C 1355.36 326.683 1334.77 326.142 1320.41 326.582 C 1294.77 327.368 1198.05 338.81 1181.75 351.712 L 1181.77 353.587 C 1189.43 360.848 1232.18 364.321 1244.25 365.603 C 1273.52 368.268 1302.81 370.784 1332.11 373.152 L 1331.31 376.042 C 1305.58 376.655 1280.5 376.085 1254.81 375.454 C 1208.38 374.312 1164.35 361.225 1118.25 358.422 C 1100 357.311 1081.42 355.496 1063.32 352.827 z"/><path transform="translate(0,0)" fill="rgb(253,253,253)" d="M 1297.46 269.347 C 1312.26 264.808 1331.27 262.808 1346.9 261.782 C 1421.13 256.909 1488.49 277.165 1556.19 305.293 C 1551.7 291.944 1546.68 279.197 1541.58 266.073 C 1599.58 286.649 1658.84 317.946 1686.36 375.987 C 1688.94 381.529 1691.25 387.196 1693.26 392.969 C 1663.63 359.915 1645.99 328.527 1600.39 312.277 C 1610.52 332.898 1620.46 346.483 1627.44 369.715 C 1571.75 316.147 1490.9 289.297 1415.14 281.516 C 1442.55 296.663 1467.73 310.093 1494.32 327.011 C 1519.31 342.908 1550.57 352.563 1571.96 374.899 C 1590.72 393.009 1602.95 416.86 1609.47 441.744 C 1606.14 441.371 1591.22 421.378 1587.45 417.1 C 1569.42 396.627 1548.39 379.009 1525.07 364.848 C 1529.85 387.368 1533.29 402.894 1541.33 424.733 C 1544.92 434.383 1549.05 444.328 1552.51 453.885 C 1552.29 453.618 1552.07 453.35 1551.85 453.082 C 1533.6 427.06 1516.71 393.759 1506.98 363.461 C 1496.18 329.827 1503.9 336.963 1470.19 320.953 C 1418.79 296.538 1367.48 277.376 1310.67 270.6 C 1306.28 270.061 1301.88 269.643 1297.46 269.347 z"/><path transform="translate(0,0)" fill="rgb(0,54,127)" d="M 1338.41 702.295 C 1371.54 669.291 1413.33 637.776 1454.91 616.507 C 1449.03 622.671 1442.6 628.758 1436.48 634.718 C 1446.42 649.939 1388.66 708.275 1380.2 722.744 C 1375.73 730.394 1369.92 733.562 1363.21 737.686 C 1349.66 746.006 1316.15 829.024 1312.96 831.398 C 1307.46 831.587 1303.36 829.493 1299.63 825.417 C 1286.74 811.319 1279.1 800.847 1277.29 781.731 C 1293.01 746.796 1310.67 727.93 1338.41 702.295 z"/><path transform="translate(0,0)" fill="rgb(253,253,253)" d="M 1338.41 702.295 C 1371.54 669.291 1413.33 637.776 1454.91 616.507 C 1449.03 622.671 1442.6 628.758 1436.48 634.718 C 1400.93 670.07 1385.39 689.175 1355.99 730.526 C 1359.42 720.694 1366.55 703.231 1366.45 693.366 L 1365.24 691.671 C 1356.21 691.894 1344.21 701.293 1338.41 702.295 z"/><path transform="translate(0,0)" fill="rgb(253,253,253)" d="M 1155.95 420.426 C 1190.44 418.52 1217.92 422.293 1251.97 424.628 C 1251.68 424.693 1251.4 424.757 1251.11 424.822 C 1235.28 428.386 1215.1 428.271 1199.4 430.262 C 1163.14 434.864 1078.51 446.247 1047.01 462.669 C 1065.9 464.368 1085.63 463.769 1104.72 464.511 C 1125.68 465.326 1145.94 467.333 1166.84 468.735 C 1143.93 472.389 1122.99 474.224 1100.57 477.476 C 1070.72 482.108 1041.1 488.125 1011.81 495.509 L 1000.2 498.91 C 1027.26 507.272 1074.48 506.085 1104.12 509.241 C 1066.45 512.479 1025.07 515.727 987.203 514.645 C 980.958 514.467 923.726 503.057 921.408 500.91 C 925.809 495.025 948.438 482.575 955.102 479.071 C 1016.24 446.932 1086.89 424.748 1155.95 420.426 z"/><path transform="translate(0,0)" fill="rgb(253,253,253)" d="M 212.19 880.482 C 256.914 862.511 268.042 847.162 300.886 814.591 C 312.272 803.437 324.248 792.903 336.764 783.033 C 385.348 744.457 441.595 734.327 502.157 741.287 L 502.419 742.777 L 500.534 743.953 C 491.601 743.967 479.486 746.546 470.508 748.426 C 423.96 758.174 390.383 774.524 350.811 799.781 C 375.721 792.384 398.561 783.65 424.727 785.468 C 415.177 788.072 401.65 790.933 393.008 794.435 C 397.348 796.563 410.845 792.057 415.787 790.649 C 372.302 823.598 339.714 852.878 284.816 863.346 C 278.07 864.632 271.823 868.992 265.519 869.478 C 262.8 868.149 263.935 869.101 262.526 866.052 C 245.161 874.029 230.714 876.66 212.19 880.482 z"/><path transform="translate(0,0)" fill="rgb(0,54,127)" d="M 393.008 794.435 C 397.348 796.563 410.845 792.057 415.787 790.649 C 372.302 823.598 339.714 852.878 284.816 863.346 C 278.07 864.632 271.823 868.992 265.519 869.478 C 262.8 868.149 263.935 869.101 262.526 866.052 C 277.51 858.952 295.377 846.856 309.277 837.345 C 337.106 818.301 360.545 804.783 393.008 794.435 z"/><path transform="translate(0,0)" fill="rgb(0,54,127)" d="M 1145.17 1049.55 C 1143.45 1049.86 1141.77 1050.12 1140.04 1050.38 L 1139.16 1049.23 C 1142.14 1037.15 1203.91 1003.62 1217.02 996.133 C 1208.95 1006.72 1203.37 1012.08 1193.24 1020.73 L 1196.2 1022.4 C 1195.09 1037.21 1135.76 1090.38 1119.2 1095.11 L 1116.79 1094.61 C 1114.4 1086.55 1114.78 1085.6 1109.21 1079.51 C 1101.72 1087.58 1089.28 1104.12 1081.1 1108.91 L 1079.56 1108.48 C 1080.37 1100.22 1086.95 1098.9 1087.87 1093.62 L 1086.34 1093.31 C 1081.15 1096.84 1077.47 1100.91 1073.03 1105.34 L 1071.64 1105.6 C 1062.45 1107.37 1053.14 1111.58 1043.93 1114.52 C 1042.99 1112.9 1045.1 1107.06 1045.75 1104.58 C 1037.77 1109.08 996.095 1125.86 1001.33 1102.3 C 1001.97 1099.44 1005.31 1092.96 1007.25 1090.63 C 1013.01 1079.57 1021.34 1070.06 1031.54 1062.88 C 1058.67 1043.95 1091.31 1043.38 1122.8 1048.87 C 1126.31 1053.08 1129.47 1058.56 1132.42 1063.27 C 1135.85 1053.12 1137.87 1057.78 1145.17 1049.55 z"/><path transform="translate(0,0)" fill="rgb(253,253,253)" d="M 1007.25 1090.63 C 1013.01 1079.57 1021.34 1070.06 1031.54 1062.88 C 1058.67 1043.95 1091.31 1043.38 1122.8 1048.87 C 1126.31 1053.08 1129.47 1058.56 1132.42 1063.27 C 1131.08 1067.54 1128.68 1073.1 1124.65 1075.3 C 1115.18 1075.97 1112.01 1063.97 1104.33 1060.51 C 1094.4 1062.52 1076.76 1084.95 1069.93 1093.33 L 1063.24 1084.12 C 1048.54 1083.74 1031.86 1082.52 1018.04 1087.68 C 1015.02 1088.81 1009.42 1092.02 1007.25 1090.63 z"/><path transform="translate(0,0)" fill="rgb(253,253,253)" d="M 1145.17 1049.55 C 1143.45 1049.86 1141.77 1050.12 1140.04 1050.38 L 1139.16 1049.23 C 1142.14 1037.15 1203.91 1003.62 1217.02 996.133 C 1208.95 1006.72 1203.37 1012.08 1193.24 1020.73 C 1183.09 1028.59 1157.21 1043.49 1145.17 1049.55 z"/><path transform="translate(0,0)" fill="rgb(0,54,127)" d="M 356.067 882.883 L 357.062 883.023 L 357.279 884.045 C 339.835 902.317 267.082 935.412 242.795 946.209 C 205.284 962.06 164.347 966.024 124.181 968.509 C 97.6443 970.151 84.0247 972.319 59.2321 962.003 C 50.7984 957.186 50.4159 952.594 47.7269 943.525 C 161.879 945.965 252.698 930.532 356.067 882.883 z"/><path transform="translate(0,0)" fill="rgb(0,54,127)" d="M 1522.88 979.144 C 1532.05 977.074 1543.72 974.519 1553.04 974.602 C 1582.33 974.865 1623.99 981.723 1649.73 995.797 C 1643.26 995.409 1636.43 994.861 1629.99 994.925 C 1634.05 997.991 1638.36 997.881 1643.6 998.476 L 1595.68 1015.69 C 1557.28 1029.76 1524.16 1042.72 1483.78 1024.28 C 1481.36 1023.17 1479.64 1022.04 1477.88 1019.99 C 1474.83 1018.87 1472.07 1020.73 1469.18 1018.36 L 1467.75 1016.81 C 1475.03 1008.48 1528.87 1007.72 1538.91 996.558 C 1536.69 990.685 1517.57 993.485 1511.7 987.233 L 1511.86 985.226 C 1514.87 981.665 1518.19 979.587 1522.88 979.144 z"/><path transform="translate(0,0)" fill="rgb(253,253,253)" d="M 1522.88 979.144 C 1532.05 977.074 1543.72 974.519 1553.04 974.602 C 1582.33 974.865 1623.99 981.723 1649.73 995.797 C 1643.26 995.409 1636.43 994.861 1629.99 994.925 C 1622.86 993.512 1611.55 993.658 1602.82 991.999 C 1587.74 989.134 1572.75 985.926 1557.61 983.611 C 1546.57 981.923 1533.49 981.848 1522.88 979.144 z"/><path transform="translate(0,0)" fill="rgb(2,7,30)" d="M 1469.18 1018.36 C 1478.41 1017.21 1484.38 1016.56 1493.6 1017.87 L 1493.68 1018.02 L 1491.43 1019.28 L 1494.68 1018.56 L 1492.52 1017.91 L 1491.63 1019.38 C 1486.47 1019.88 1483.07 1020 1477.88 1019.99 C 1474.83 1018.87 1472.07 1020.73 1469.18 1018.36 z"/><path transform="translate(0,0)" fill="rgb(0,54,127)" d="M 1475.82 752.391 C 1475.21 755.393 1448.98 792.889 1444.8 799.017 C 1419.05 836.801 1412.12 863.359 1402.1 907.399 C 1399.53 899.571 1397.09 891.695 1394.81 883.776 C 1389.95 863.964 1386.33 855.953 1372.39 841.664 C 1376.62 830.012 1387.18 821.114 1395.98 812.309 C 1393.42 805.432 1389.67 790.852 1393.4 783.965 C 1397.73 775.981 1463.28 756.194 1475.82 752.391 z"/><path transform="translate(0,0)" fill="rgb(0,54,127)" d="M 1280.82 562.146 L 1281.04 562.271 C 1281.18 561.018 1259.53 588.768 1258.89 589.243 C 1243.43 600.733 1195.67 702.753 1185.95 705.126 C 1179.95 703.025 1165.5 685.348 1159.86 679.25 C 1154.68 671.44 1153.64 667.686 1151.37 658.934 C 1164.76 640.2 1191.04 618.821 1208.67 603.718 C 1205.89 607.695 1199.19 615.358 1200.58 619.973 C 1205.89 619.797 1211.08 608.746 1216.46 605.038 C 1237.51 590.555 1259.26 575.807 1280.82 562.146 z"/><path transform="translate(0,0)" fill="rgb(253,253,253)" d="M 801.635 1200.43 C 806.883 1199.89 815.088 1199.24 819.732 1202.19 C 833.561 1210.99 818.355 1248.08 811.672 1257.13 C 807.609 1262.63 783.64 1262.78 775.752 1263.16 C 767.523 1263.76 759.604 1263.87 751.371 1264.03 C 755.411 1243.51 760.012 1223.1 765.167 1202.83 C 773.755 1201.55 792.263 1200.97 801.635 1200.43 z"/><path transform="translate(0,0)" fill="rgb(0,19,54)" d="M 785.918 1216.27 C 790.594 1216.12 795.695 1216.23 800.409 1216.23 C 799.798 1222.93 797.078 1242.7 791.795 1246.62 L 777.366 1248.24 C 779.162 1240.28 782.609 1223.04 785.918 1216.27 z"/><path transform="translate(0,0)" fill="rgb(253,253,253)" d="M 1204.05 1197.39 C 1210.61 1197.1 1250.42 1196.11 1251.47 1206.26 C 1252.6 1217.28 1246.89 1237.26 1241.94 1247.53 C 1238.2 1255.31 1233.99 1257.77 1226.02 1259.55 C 1217.59 1259.76 1207.53 1258.76 1199.46 1258.7 C 1176.02 1259.19 1176.01 1247.01 1182.25 1228.21 C 1186.46 1215.49 1188.74 1199.86 1204.05 1197.39 z"/><path transform="translate(0,0)" fill="rgb(0,19,54)" d="M 1212.6 1212.03 C 1217.32 1211.84 1222.79 1212.1 1227.57 1212.21 C 1225.14 1223.59 1222.5 1232.79 1219.24 1243.94 L 1203.48 1243.82 C 1204.99 1233.34 1207.64 1221.41 1212.6 1212.03 z"/><path transform="translate(0,0)" fill="rgb(0,54,127)" d="M 1445.43 919.782 C 1456.05 915.405 1457.24 914.708 1464.58 906.086 C 1464.17 911.004 1464.01 916.5 1463.75 921.485 C 1464.79 929.613 1467.32 938.162 1466.8 945.796 L 1468.53 948.217 C 1473.11 949.707 1469.15 947.561 1475.53 945.675 L 1475.54 946.859 C 1470.03 956.401 1421.02 996.77 1408.99 1004.5 C 1404.61 1007.31 1372.36 1019.58 1364.85 1022.84 C 1375.44 1007.35 1388.51 996.004 1400.32 981.877 C 1416.79 962.194 1431.27 941.151 1445.43 919.782 z"/><path transform="translate(0,0)" fill="rgb(7,39,94)" d="M 1466.8 945.796 C 1457.58 937.817 1459.55 931.678 1463.75 921.485 C 1464.79 929.613 1467.32 938.162 1466.8 945.796 z"/><path transform="translate(0,0)" fill="rgb(253,253,253)" d="M 741.981 1204.44 C 744.51 1203.99 744.347 1203.95 746.834 1204.53 C 748.732 1208.92 735.535 1258.37 733.45 1265.96 C 726.377 1266.53 719.312 1267.21 712.26 1268 C 707.046 1257.26 702.035 1246.43 697.229 1235.5 C 694.46 1246.7 692.455 1258.46 690.468 1269.84 C 686.386 1270.03 682.159 1270.39 678.069 1270.68 L 665.463 1272.01 L 680.843 1208.89 C 688.643 1208.59 696.438 1208.18 704.228 1207.68 C 708.833 1217.1 713.307 1226.58 717.649 1236.13 C 720.233 1226.22 722.533 1216.24 724.548 1206.19 C 730.286 1205.53 736.218 1205.01 741.981 1204.44 z"/><path transform="translate(0,0)" fill="rgb(253,253,253)" d="M 1368.15 1243.41 C 1366.5 1238.82 1366.91 1230.7 1368.46 1226.31 C 1376.1 1204.64 1417.59 1213.86 1432.13 1218.74 C 1430.24 1225.06 1427.87 1230.13 1425.21 1236.14 L 1422 1242.24 C 1426.15 1251.53 1419.04 1268.23 1409.2 1271.26 C 1395.21 1275.57 1369.96 1271.97 1356.35 1268.62 C 1357.69 1264.49 1360.92 1252.47 1364.02 1250.45 L 1364.27 1249.31 C 1367.1 1246.79 1366.95 1247.01 1368.15 1243.41 z"/><path transform="translate(0,0)" fill="rgb(0,0,4)" d="M 1413.23 1238.69 C 1407.34 1237.34 1394.32 1236.18 1390.63 1231.62 L 1392.14 1230.63 C 1402.39 1229.95 1406.18 1231.11 1416 1233.4 C 1414.95 1237.16 1415.71 1236.7 1413.23 1238.69 z"/><path transform="translate(0,0)" fill="rgb(0,0,4)" d="M 1382.4 1249.57 C 1387.01 1250.13 1390.84 1250.03 1394.49 1252.67 L 1394.8 1254.32 C 1390.24 1257.21 1385.52 1256.41 1380.48 1255.33 C 1378.26 1254.84 1376.06 1254.29 1373.87 1253.69 C 1376.83 1249.51 1377.9 1249.97 1382.4 1249.57 z"/><path transform="translate(0,0)" fill="rgb(2,7,30)" d="M 1368.15 1243.41 C 1373.71 1247.63 1375.53 1248.46 1382.4 1249.57 C 1377.9 1249.97 1376.83 1249.51 1373.87 1253.69 C 1370.59 1252.84 1367.25 1251.57 1364.02 1250.45 L 1364.27 1249.31 C 1367.1 1246.79 1366.95 1247.01 1368.15 1243.41 z"/><path transform="translate(0,0)" fill="rgb(2,7,30)" d="M 1416 1233.4 L 1425.21 1236.14 L 1422 1242.24 L 1413.23 1238.69 C 1415.71 1236.7 1414.95 1237.16 1416 1233.4 z"/><path transform="translate(0,0)" fill="rgb(253,253,253)" d="M 1005.15 1193.23 C 1012.63 1193.51 1020.67 1193.31 1028.2 1193.26 C 1023.39 1213.26 1016.79 1234.06 1013.06 1254.09 L 989.969 1255 C 987.72 1246.91 981.789 1232.24 978.642 1223.84 C 975.473 1232.6 972.419 1245.53 969.944 1254.78 C 967.581 1256.8 951.575 1255.8 947.348 1255.72 C 952.13 1235.09 958.133 1214.94 962.835 1193.97 L 984.295 1193.82 C 988.39 1203.46 992.923 1213.35 997.177 1222.96 C 1000.71 1213.34 1002.81 1203.22 1005.15 1193.23 z"/><path transform="translate(0,0)" fill="rgb(253,253,253)" d="M 1713.76 751.13 C 1730.07 746.001 1739.51 746.672 1755.16 755.372 C 1792 775.851 1794.54 793.281 1839.38 799.635 C 1811.39 817.764 1789.08 821.636 1761.59 799.277 C 1753.79 787.411 1725.73 759.469 1713.76 751.13 z"/><path transform="translate(0,0)" fill="rgb(253,253,253)" d="M 1119 1193.53 C 1133.44 1194.22 1147.84 1193.41 1162.35 1194.13 C 1183.96 1195.2 1177.21 1221.57 1166.1 1230.9 C 1159.07 1236.8 1151.75 1236.06 1143.25 1236 C 1127.46 1235.37 1130.31 1240.17 1127.27 1254.01 L 1102.01 1253.89 C 1107.64 1233.65 1113.81 1213.93 1119 1193.53 z"/><path transform="translate(0,0)" fill="rgb(0,19,54)" d="M 1138.61 1208.01 C 1143.88 1207.88 1147.35 1206.73 1150.67 1210.95 C 1150.77 1215.1 1148.69 1218 1146.72 1221.8 C 1141.88 1222.1 1139.13 1222.92 1135.69 1220.12 C 1134.95 1216.39 1137.23 1211.79 1138.61 1208.01 z"/><path transform="translate(0,0)" fill="rgb(253,253,253)" d="M 1058.57 1192.92 C 1069.63 1193.47 1078.74 1193.72 1089.84 1193.61 C 1089.99 1210.54 1092.81 1236.26 1094.2 1253.95 L 1070.01 1254.01 C 1070 1249.17 1070.68 1246.64 1068.41 1242.88 C 1064.81 1241.05 1059.02 1241.76 1054.75 1241.87 L 1052.33 1242.41 C 1049.45 1245.52 1047.56 1250.77 1045.77 1254.79 C 1037.43 1254.54 1029.08 1254.38 1020.74 1254.3 C 1024.73 1247.13 1030.54 1239.14 1034.91 1231.95 C 1042.79 1218.94 1050.66 1205.91 1058.57 1192.92 z"/><path transform="translate(0,0)" fill="rgb(0,0,4)" d="M 1067.38 1211.71 C 1069.65 1214.77 1070.54 1224.42 1067.39 1227.24 C 1066.09 1228.4 1062.94 1228.27 1061.12 1228.45 L 1060.53 1227.83 C 1059.96 1224.67 1065.49 1215.38 1067.38 1211.71 z"/><path transform="translate(0,0)" fill="rgb(253,253,253)" d="M 903.949 1196.02 L 933.783 1195.93 C 936.138 1215.87 937.897 1235.99 940.204 1255.98 L 915.454 1256.87 C 915.343 1253.08 915.711 1249.06 913.72 1246.01 C 910.376 1244.11 905.772 1244.75 901.751 1244.82 C 900.733 1244.92 899.302 1245.4 898.26 1245.7 C 894.919 1249.27 893.917 1253.31 892.17 1257.97 L 867.565 1258.27 C 878.981 1237.62 892.024 1216.6 903.949 1196.02 z"/><path transform="translate(0,0)" fill="rgb(0,0,4)" d="M 913.519 1215.65 C 914.679 1219.5 915.899 1226.35 914.339 1230.09 C 911.075 1232.76 911.574 1231.88 906.327 1232.16 L 905.547 1231.07 C 906.263 1227.85 911.587 1219.07 913.519 1215.65 z"/><path transform="translate(0,0)" fill="rgb(253,253,253)" d="M 1039.2 566.433 C 1049.02 566.051 1056.95 566.16 1066.7 566.453 C 1029.27 576.198 987.3 577.685 949.735 589.008 C 943.599 590.858 935.025 592.239 929.541 595.399 C 934.434 598.209 997.441 601.376 1007.02 602.005 C 996.118 604.798 972.854 604.006 960.5 603.987 C 923.172 604.325 893.985 603.784 856.424 601.443 C 883.254 589.218 925.764 579.149 955.369 573.797 C 980.749 569.209 1013.3 568.103 1039.2 566.433 z"/><path transform="translate(0,0)" fill="rgb(253,253,253)" d="M 1479.78 830.779 C 1476.16 827.299 1465.82 820.924 1473.3 816.066 C 1479.83 815.891 1489.01 820.834 1493.46 825.125 C 1508.84 840.436 1510.88 863.815 1511.85 884.34 C 1512.1 889.556 1512.68 900.673 1509.65 905.204 C 1507.55 908.356 1503.16 907.509 1499.86 906.952 C 1490.33 902.411 1489.68 893.731 1484.54 885.07 C 1478.01 874.065 1456.75 838.923 1472.19 828.654 C 1475.28 830.1 1476.24 830.633 1479.78 830.779 z"/><path transform="translate(0,0)" fill="rgb(0,54,127)" d="M 1499.86 906.952 C 1490.33 902.411 1489.68 893.731 1484.54 885.07 C 1478.01 874.065 1456.75 838.923 1472.19 828.654 C 1475.28 830.1 1476.24 830.633 1479.78 830.779 C 1495.95 846.071 1499.1 878.942 1499.73 899.757 C 1499.8 902.155 1499.85 904.553 1499.86 906.952 z"/><path transform="translate(0,0)" fill="rgb(253,253,253)" d="M 1271.65 1201.89 C 1279.37 1202 1288.37 1202.93 1296.16 1203.54 C 1291.77 1217.65 1287.46 1231.79 1283.25 1245.95 C 1292.52 1247.21 1301.65 1247.66 1310.98 1248.14 C 1309.54 1254.43 1307.93 1259.5 1305.99 1265.63 C 1291.15 1263.55 1269.11 1262.71 1253.89 1261.83 L 1271.65 1201.89 z"/><path transform="translate(0,0)" fill="rgb(253,253,253)" d="M 1699.58 761.874 C 1704.23 756.808 1707.42 753.782 1713.76 751.13 C 1725.73 759.469 1753.79 787.411 1761.59 799.277 C 1763.68 803.745 1764.54 808.216 1762.31 812.872 L 1760.53 813.17 C 1760.28 811.064 1759.71 802.749 1759.04 801.785 C 1751.8 791.309 1722.1 758.315 1711.96 754.024 C 1706.29 754.958 1703.63 760.619 1702.59 765.715 C 1704.71 771.734 1720.14 789.766 1724.86 795.591 L 1726.58 795.791 C 1726.85 794.139 1727.03 793.052 1727.4 791.405 C 1729.48 793.268 1729.65 795.66 1730.34 798.484 C 1740.89 801.588 1744.05 807.925 1752.74 813.541 C 1753.8 814.229 1760.2 814.27 1762.27 814.69 L 1761.83 816.089 L 1761.51 817.13 L 1765.17 818.642 C 1763.39 819.877 1764.42 819.485 1761.98 819.6 L 1761.64 820.859 C 1766.86 822.418 1770.43 823.184 1775.1 826.046 C 1782.4 827.802 1791.78 827.965 1799.26 828.063 C 1803.67 835.142 1807.03 840.939 1810.29 848.58 C 1768.51 843.803 1744.07 838.512 1723.36 800.515 C 1714.83 794.952 1703.26 771.203 1699.58 761.874 z"/><path transform="translate(0,0)" fill="rgb(7,39,94)" d="M 1699.58 761.874 C 1704.23 756.808 1707.42 753.782 1713.76 751.13 C 1725.73 759.469 1753.79 787.411 1761.59 799.277 C 1763.68 803.745 1764.54 808.216 1762.31 812.872 L 1760.53 813.17 C 1760.28 811.064 1759.71 802.749 1759.04 801.785 C 1751.8 791.309 1722.1 758.315 1711.96 754.024 C 1706.29 754.958 1703.63 760.619 1702.59 765.715 C 1704.71 771.734 1720.14 789.766 1724.86 795.591 L 1726.58 795.791 C 1726.85 794.139 1727.03 793.052 1727.4 791.405 C 1729.48 793.268 1729.65 795.66 1730.34 798.484 C 1740.89 801.588 1744.05 807.925 1752.74 813.541 C 1753.8 814.229 1760.2 814.27 1762.27 814.69 L 1761.83 816.089 L 1761.51 817.13 L 1765.17 818.642 C 1763.39 819.877 1764.42 819.485 1761.98 819.6 L 1761.64 820.859 C 1766.86 822.418 1770.43 823.184 1775.1 826.046 C 1751.03 822.165 1743.24 813.265 1725 801.556 L 1723.36 800.515 C 1714.83 794.952 1703.26 771.203 1699.58 761.874 z"/><path transform="translate(0,0)" fill="rgb(253,253,253)" d="M 1513.63 524.881 C 1514.23 531.609 1509.15 554.245 1507.54 562.086 C 1505.5 577.615 1505.3 593.33 1506.95 608.905 C 1512.14 657.252 1529.5 669.962 1563.77 697.563 C 1532.62 686.607 1510.47 672.925 1502.02 639.318 C 1492.14 600.018 1493.32 560.646 1513.63 524.881 z"/><path transform="translate(0,0)" fill="rgb(0,54,127)" d="M 1467.54 1040.51 C 1489.58 1038.87 1515.19 1040.72 1537.44 1039.95 C 1549.87 1039.51 1604.58 1047.86 1613.09 1055.07 C 1611.35 1056.32 1610.73 1055.61 1607.79 1055.14 C 1579.81 1048.35 1539.28 1056.79 1510.49 1057.01 C 1500.6 1057.09 1470.75 1047.23 1465.59 1041.56 L 1467.54 1040.51 z"/><path transform="translate(0,0)" fill="rgb(253,253,253)" d="M 650.393 1211.58 C 654.046 1211.18 658.076 1210.35 661.025 1212.35 C 659.974 1223.37 650.331 1260.69 647.226 1273.82 L 632.247 1274.92 C 628.604 1275.34 626.962 1275.74 623.314 1275.02 L 622.346 1273.5 C 623.082 1262.69 633.832 1224.52 637.083 1212.14 C 641.539 1212.09 645.945 1211.81 650.393 1211.58 z"/><path transform="translate(0,0)" fill="rgb(253,253,253)" d="M 846.442 1198.27 L 870.569 1197.96 C 869.209 1206.55 858.26 1252.97 855.25 1259.67 C 847.014 1259.92 838.393 1259.87 830.123 1259.95 C 836.051 1240.92 841.02 1217.98 846.442 1198.27 z"/><path transform="translate(0,0)" fill="rgb(253,253,253)" d="M 1336.08 1206.55 C 1344.44 1207.31 1352.81 1207.98 1361.19 1208.54 C 1354.12 1228.83 1348.97 1248.76 1342.12 1268.74 C 1334.04 1268.28 1325.98 1267.66 1317.92 1266.87 C 1322.31 1249.28 1330.73 1224.31 1336.08 1206.55 z"/><path transform="translate(0,0)" fill="rgb(0,54,127)" d="M 1173.6 928.391 L 1173.43 929.777 C 1164.68 934.489 1160.81 939.262 1153.98 946.415 C 1139.38 949.79 1126.65 949.872 1111.83 950.914 C 1094.19 952.154 1074.29 954.739 1056.76 954.831 C 1064.17 947.87 1101.61 942.361 1113.14 939.509 C 1127.77 935.89 1141.85 929.741 1156.98 930.553 C 1163.2 930.886 1167.66 929.819 1173.6 928.391 z"/><path transform="translate(0,0)" fill="rgb(0,54,127)" d="M 1189.88 1063.77 L 1190.9 1065.46 C 1187.83 1077.55 1185.11 1099.1 1179.97 1108.86 C 1171.96 1114.02 1152.49 1119.11 1142.93 1121.65 L 1142.35 1120.55 C 1144.29 1113.67 1157.86 1104.43 1163.62 1097.93 C 1171.67 1088.84 1181.54 1071.29 1189.88 1063.77 z"/><path transform="translate(0,0)" fill="rgb(0,54,127)" d="M 1692.38 298.514 C 1697.78 302.661 1700.86 313.391 1703.22 319.737 C 1712.86 345.647 1720.58 368.475 1718.82 396.477 C 1707.65 376.864 1703.63 349.238 1696.93 327.486 C 1694 317.959 1689.76 308.14 1692.38 298.514 z"/><path transform="translate(0,0)" fill="rgb(253,253,253)" d="M 66.6892 1309.36 C 71.2582 1308.58 75.3935 1309.14 77.5317 1313.69 C 73.3341 1319.05 52.7087 1320.86 44.7712 1322.09 C 38.8614 1323.09 32.6641 1323.33 26.6603 1323.73 C 38.7918 1315.17 52.1202 1311.21 66.6892 1309.36 z"/><path transform="translate(0,0)" fill="rgb(16,92,175)" d="M 1177.97 1139.3 C 1193.99 1129.09 1227.8 1119.62 1246.95 1116.17 L 1247.35 1117.38 C 1236.14 1123.36 1192.13 1135.48 1177.97 1139.3 z"/><path transform="translate(0,0)" fill="rgb(7,39,94)" d="M 953.655 751.84 C 956.361 742.55 957.26 725.472 958.083 723.452 C 962.361 731.781 957.993 733.87 964.202 739.759 C 961.233 744.483 958.769 749.252 953.655 751.84 z"/><path transform="translate(0,0)" fill="rgb(7,39,94)" d="M 1307.76 957.891 C 1304.27 958.014 1295.78 958.897 1293.34 957.286 C 1295.03 953.407 1301.83 949.145 1305.89 949.995 C 1303.1 952.996 1304.1 951.251 1303.27 955.652 L 1307.76 957.891 z"/><path transform="translate(0,0)" fill="rgb(178,189,202)" d="M 1332.11 373.152 C 1337.22 373.434 1341.44 373.157 1346.16 374.925 L 1343.85 375.804 L 1346.01 375.086 C 1341.14 376.386 1336.32 376.053 1331.31 376.042 L 1332.11 373.152 z"/><path transform="translate(0,0)" fill="rgb(214,219,221)" d="M 1147.62 823.524 C 1143.39 824.495 1136.45 825.981 1132.19 825.764 L 1135.04 825.646 L 1134.95 824.074 L 1134.04 824.411 L 1144.92 821.296 L 1147.62 823.524 z"/><path transform="translate(0,0)" fill="rgb(178,189,202)" d="M 502.157 741.287 C 505.119 741.668 507.328 741.313 508.823 742.997 C 505.919 744.454 503.805 744.048 500.534 743.953 L 502.419 742.777 L 502.157 741.287 z"/><path transform="translate(0,0)" fill="rgb(0,19,54)" d="M 270.854 1691.05 C 372.264 1663.97 489.038 1646.74 592.981 1635.73 C 788.17 1615.05 996.984 1605.78 1192.21 1628.34 C 1231.47 1633.04 1270.56 1639.08 1309.4 1646.46 C 1309.89 1651.71 1310.44 1651.5 1306.8 1656.37 C 1137.93 1644.69 968.434 1645.43 799.673 1658.58 C 713.851 1665.41 611.796 1677.46 528.22 1699.3 C 526.661 1697.59 525.478 1696.26 524.047 1694.44 C 524.746 1692.32 525.058 1691.07 525.211 1688.84 C 531.852 1685.91 543.808 1681.07 549.5 1677.3 L 549.904 1676.08 C 536.61 1665.87 304.099 1697.44 276.263 1699.62 C 270.33 1700.58 264.618 1701.59 258.621 1702.06 C 260.174 1700.29 259.687 1700.89 260.616 1698.6 C 260.01 1695.2 260.77 1696.6 258.282 1694.23 L 270.854 1691.05 z"/><path transform="translate(0,0)" fill="rgb(2,7,30)" d="M 258.282 1694.23 L 270.854 1691.05 C 269.809 1692.76 269.896 1692.19 269.556 1694.05 C 273.994 1698.38 272.16 1693.89 276.263 1699.62 C 270.33 1700.58 264.618 1701.59 258.621 1702.06 C 260.174 1700.29 259.687 1700.89 260.616 1698.6 C 260.01 1695.2 260.77 1696.6 258.282 1694.23 z"/><path transform="translate(0,0)" fill="rgb(0,0,4)" d="M 1309.4 1646.46 C 1331.73 1651.48 1354.14 1656.15 1376.61 1660.48 L 1374.95 1662.34 C 1352.6 1660.76 1329.71 1657.99 1306.8 1656.37 C 1310.44 1651.5 1309.89 1651.71 1309.4 1646.46 z"/><path transform="translate(0,0)" fill="rgb(0,0,4)" d="M 258.282 1694.23 C 260.77 1696.6 260.01 1695.2 260.616 1698.6 C 259.687 1700.89 260.174 1700.29 258.621 1702.06 C 244.703 1704.12 226.962 1707.23 213.236 1708.41 L 211.492 1706.22 C 227.204 1702.69 242.807 1698.69 258.282 1694.23 z"/><path transform="translate(0,0)" fill="rgb(0,0,4)" d="M 512.242 1694.13 L 514.124 1699.63 C 512.765 1702.1 513.162 1701.27 510.548 1703.08 C 497.496 1706.43 484.395 1709.57 471.248 1712.52 L 469.606 1710.48 L 512.242 1694.13 z"/><path transform="translate(0,0)" fill="rgb(2,7,30)" d="M 525.211 1688.84 C 525.058 1691.07 524.746 1692.32 524.047 1694.44 C 525.478 1696.26 526.661 1697.59 528.22 1699.3 L 510.548 1703.08 C 513.162 1701.27 512.765 1702.1 514.124 1699.63 L 512.242 1694.13 L 525.211 1688.84 z"/><path transform="translate(0,0)" fill="rgb(7,39,94)" fill-opacity="0.917647" d="M 1376.61 1660.48 C 1382.23 1661.5 1385.51 1662.01 1390.66 1664.74 C 1386.64 1664.14 1378.65 1663.17 1374.95 1662.34 L 1376.61 1660.48 z"/><path transform="translate(0,0)" fill="rgb(2,7,30)" fill-opacity="0.960784" d="M 213.236 1708.41 C 209.484 1709.17 206.996 1710.04 203.281 1709.19 C 205.319 1707.15 208.164 1707.07 211.492 1706.22 L 213.236 1708.41 z"/><path transform="translate(0,0)" fill="rgb(0,19,54)" fill-opacity="0.890196" d="M 469.606 1710.48 L 471.248 1712.52 C 467.603 1713.42 465.295 1714.27 461.525 1713.97 C 463.774 1711.83 466.363 1711.52 469.606 1710.48 z"/><path transform="translate(0,0)" fill="rgb(0,19,54)" d="M 55.5926 1407.71 C 85.0048 1402.88 114.503 1398.59 144.074 1394.84 C 157.86 1393.22 190.926 1390.77 202.654 1387.25 C 199.91 1398.29 180.781 1445.68 175.081 1455.57 C 153.961 1457.5 113.033 1462.4 93.483 1461.98 L 97.2363 1460.3 C 97.0622 1457.82 96.7194 1456.81 96.0961 1454.38 C 114.728 1450.49 133.727 1445.24 152.189 1440.41 C 156.317 1432.08 161.481 1418.25 165.102 1409.19 C 148.575 1406.74 141.632 1409.52 125.659 1410.46 C 105.187 1411.65 80.1646 1415.76 60.3186 1415.92 C 54.5618 1416.19 50.0775 1416.43 44.3372 1417.16 L 46.3765 1415.47 C 46.6776 1412.33 46.0847 1412.87 43.3243 1409.49 L 55.5926 1407.71 z"/><path transform="translate(0,0)" fill="rgb(2,7,30)" d="M 43.3243 1409.49 L 55.5926 1407.71 C 56.7953 1411.42 57.7014 1412.64 61.3554 1414.58 L 60.3186 1415.92 C 54.5618 1416.19 50.0775 1416.43 44.3372 1417.16 L 46.3765 1415.47 C 46.6776 1412.33 46.0847 1412.87 43.3243 1409.49 z"/><path transform="translate(0,0)" fill="rgb(0,0,4)" d="M 1408.39 1122.44 C 1426.37 1121.53 1444.39 1120.05 1462.38 1120.27 C 1468.3 1120.34 1473.89 1120.18 1479.8 1119.71 C 1479.6 1122.32 1479.5 1123.9 1479.53 1126.56 L 1478.29 1127.37 C 1464.79 1127.39 1419.61 1126.23 1408.39 1122.44 z"/><path transform="translate(0,0)" fill="rgb(0,0,4)" d="M 397.559 690.356 C 400.284 692.111 402.046 694.576 402.216 697.957 C 385.173 700.292 354.679 703.588 337.516 704.471 L 336.226 702.256 L 397.559 690.356 z"/><path transform="translate(0,0)" fill="rgb(0,0,4)" d="M 0 1416.48 C 14.8137 1414.82 28.6638 1412.05 43.3243 1409.49 C 46.0847 1412.87 46.6776 1412.33 46.3765 1415.47 L 44.3372 1417.16 C 32.6033 1418.1 11.0309 1420.16 0 1420.04 L 0 1416.48 z"/><path transform="translate(0,0)" fill="url(#Gradient1)" d="M 203.193 765.05 L 202.437 768.482 C 203.953 770.727 205.833 771.017 208.449 771.965 C 208.368 772.592 208.443 773.289 208.12 773.833 C 195.113 774.946 164.522 778.493 152.726 777.576 C 170.654 773.972 185.62 769.34 203.193 765.05 z"/><path transform="translate(0,0)" fill="rgb(0,0,4)" d="M 545.271 579.871 C 563.148 576.106 579.18 572.736 596.978 568.298 C 597.548 571.714 597.434 571.705 599.142 574.929 L 598.514 575.999 C 580.833 576.574 562.769 580.729 545.271 579.871 z"/><path transform="translate(0,0)" fill="rgb(0,0,4)" d="M 787.506 586.149 L 786.99 587.678 C 785.043 588.674 783.85 588.842 782.929 590.239 C 785.609 591.645 791.436 594.387 793.24 596.606 C 778.816 595.813 763.986 595.976 749.511 595.95 C 759.911 592.338 776.368 588.816 787.506 586.149 z"/><path transform="translate(0,0)" fill="rgb(0,0,4)" d="M 780.78 438.199 L 780.033 439.919 C 777.802 440.697 777.27 440.913 774.955 441.273 L 774.996 441.229 L 775.991 441.495 C 777.033 443.646 777.472 444.104 779.289 445.662 L 779.075 447.224 L 779.974 448.287 C 765.042 447.838 756.384 447.708 741.565 445.258 C 755.956 443.559 766.581 441.22 780.78 438.199 z"/><path transform="translate(0,0)" fill="rgb(0,0,4)" d="M 327.985 1018.58 C 335.714 1018.42 345.145 1018.64 352.622 1017.3 C 354.169 1017.03 354.175 1017.01 355.843 1017.11 C 353.234 1022.83 337.725 1027.55 331.985 1028.88 C 330.798 1023.02 331.523 1023.77 327.985 1018.58 z"/><path transform="translate(0,0)" fill="rgb(0,0,4)" d="M 55.3122 1465.28 C 67.0645 1461.18 83.8485 1457.39 96.0961 1454.38 C 96.7194 1456.81 97.0622 1457.82 97.2363 1460.3 L 93.483 1461.98 C 82.9075 1462.03 67.8331 1464.94 55.3122 1465.28 z"/><path transform="translate(0,0)" fill="rgb(0,0,4)" d="M 1710.28 1216.27 C 1712.2 1222.68 1713.19 1220.35 1716.23 1224.53 C 1704.62 1225.33 1694.96 1225.84 1683.31 1225.91 C 1692.19 1222.45 1701.09 1218.76 1710.28 1216.27 z"/><path transform="translate(0,0)" fill="rgb(0,0,4)" d="M 739.549 672.057 C 750.389 669.445 761.579 666.147 772.356 663.144 C 773.974 665.241 775.014 666.581 776.83 668.549 L 777.177 670.021 C 764.488 669.919 753.37 672.258 739.549 672.057 z"/><path transform="translate(0,0)" fill="rgb(0,0,4)" d="M 50.2054 1121.57 C 41.3642 1121.77 24.5638 1123.78 17.2867 1123.04 L 17.219 1122.27 C 22.8615 1119.52 37.4517 1116.77 44.1749 1115.2 L 46.5682 1116.66 C 46.0759 1119.01 46.3869 1118.14 44.8829 1120.16 C 47.2586 1121.38 47.5022 1121.23 50.2054 1121.57 z"/><path transform="translate(0,0)" fill="rgb(0,0,4)" d="M 1502.26 1156.38 C 1510.92 1153.34 1528.24 1149.58 1537.99 1147.15 C 1538.48 1150.38 1539.07 1151.23 1538.09 1154.05 C 1527.43 1153.81 1513.56 1155.78 1502.26 1156.38 z"/><path transform="translate(0,0)" fill="rgb(0,0,4)" d="M 217.177 803.123 L 225.639 809.079 C 217.835 810.668 202.133 812.039 193.77 813.04 C 201.51 809.588 209.313 806.282 217.177 803.123 z"/><path transform="translate(0,0)" fill="rgb(0,0,4)" d="M 32.201 888.299 L 54.1065 887.553 C 54.8988 890.414 56.1875 893.275 55.2759 895.781 C 47.198 893.407 40.0952 891.336 32.201 888.299 z"/><path transform="translate(0,0)" fill="rgb(0,0,4)" d="M 443.842 1207.62 C 453.064 1204.45 458.714 1203.28 468.327 1201.43 L 470.029 1208.13 L 443.842 1207.62 z"/><path transform="translate(0,0)" fill="rgb(7,39,94)" fill-opacity="0.945098" d="M 336.226 702.256 L 337.516 704.471 C 333.884 705.105 331.287 705.863 327.66 705.221 C 329.831 703.307 333.252 702.942 336.226 702.256 z"/><path transform="translate(0,0)" fill="rgb(0,54,127)" fill-opacity="0.0470588" d="M 1211.64 1157.44 L 1213.54 1160.31 C 1210.13 1160.28 1210.06 1160.28 1206.77 1159.43 C 1207.8 1157.83 1209.13 1158.07 1211.64 1157.44 z"/></svg>