<svg version="1.1" xmlns="http://www.w3.org/2000/svg" style="display: block;" viewBox="0 0 2048 2048" width="1024" height="1024" preserveAspectRatio="none"><defs><linearGradient id="Gradient1" gradientUnits="userSpaceOnUse" x1="436.053" y1="759.495" x2="431.965" y2="759.505"><stop class="stop0" offset="0" stop-opacity="1" stop-color="rgb(224,245,247)"/><stop class="stop1" offset="1" stop-opacity="1" stop-color="rgb(255,253,252)"/></linearGradient><linearGradient id="Gradient2" gradientUnits="userSpaceOnUse" x1="1116" y1="662.766" x2="1086.01" y2="667.245"><stop class="stop0" offset="0" stop-opacity="1" stop-color="rgb(248,245,227)"/><stop class="stop1" offset="1" stop-opacity="1" stop-color="rgb(255,255,255)"/></linearGradient><linearGradient id="Gradient3" gradientUnits="userSpaceOnUse" x1="773.584" y1="888.413" x2="725.284" y2="833.703"><stop class="stop0" offset="0" stop-opacity="1" stop-color="rgb(231,225,207)"/><stop class="stop1" offset="1" stop-opacity="1" stop-color="rgb(255,255,253)"/></linearGradient><linearGradient id="Gradient4" gradientUnits="userSpaceOnUse" x1="1220.95" y1="687.525" x2="1253.61" y2="691.357"><stop class="stop0" offset="0" stop-opacity="1" stop-color="rgb(232,226,211)"/><stop class="stop1" offset="1" stop-opacity="1" stop-color="rgb(255,255,255)"/></linearGradient><linearGradient id="Gradient5" gradientUnits="userSpaceOnUse" x1="848.366" y1="716.227" x2="783.923" y2="655.443"><stop class="stop0" offset="0" stop-opacity="1" stop-color="rgb(225,220,206)"/><stop class="stop1" offset="1" stop-opacity="1" stop-color="rgb(255,255,255)"/></linearGradient><linearGradient id="Gradient6" gradientUnits="userSpaceOnUse" x1="1010.16" y1="604.51" x2="1013.13" y2="628.701"><stop class="stop0" offset="0" stop-opacity="1" stop-color="rgb(210,104,0)"/><stop class="stop1" offset="1" stop-opacity="1" stop-color="rgb(227,129,0)"/></linearGradient><linearGradient id="Gradient7" gradientUnits="userSpaceOnUse" x1="677.61" y1="655.432" x2="621.66" y2="707.524"><stop class="stop0" offset="0" stop-opacity="1" stop-color="rgb(213,109,0)"/><stop class="stop1" offset="1" stop-opacity="1" stop-color="rgb(246,157,4)"/></linearGradient><linearGradient id="Gradient8" gradientUnits="userSpaceOnUse" x1="916.873" y1="693.565" x2="845.958" y2="700.8"><stop class="stop0" offset="0" stop-opacity="1" stop-color="rgb(221,215,195)"/><stop class="stop1" offset="1" stop-opacity="1" stop-color="rgb(255,255,254)"/></linearGradient><linearGradient id="Gradient9" gradientUnits="userSpaceOnUse" x1="1125.98" y1="689.238" x2="1197.74" y2="699.843"><stop class="stop0" offset="0" stop-opacity="1" stop-color="rgb(223,215,198)"/><stop class="stop1" offset="1" stop-opacity="1" stop-color="rgb(253,252,242)"/></linearGradient><linearGradient id="Gradient10" gradientUnits="userSpaceOnUse" x1="575.101" y1="601.648" x2="589.735" y2="760.602"><stop class="stop0" offset="0" stop-opacity="1" stop-color="rgb(231,136,0)"/><stop class="stop1" offset="1" stop-opacity="1" stop-color="rgb(255,206,1)"/></linearGradient><linearGradient id="Gradient11" gradientUnits="userSpaceOnUse" x1="658.391" y1="1063.79" x2="538.561" y2="845"><stop class="stop0" offset="0" stop-opacity="1" stop-color="rgb(0,89,104)"/><stop class="stop1" offset="1" stop-opacity="1" stop-color="rgb(0,122,137)"/></linearGradient><linearGradient id="Gradient12" gradientUnits="userSpaceOnUse" x1="1201.11" y1="432.229" x2="1008.71" y2="198.392"><stop class="stop0" offset="0" stop-opacity="1" stop-color="rgb(0,84,97)"/><stop class="stop1" offset="1" stop-opacity="1" stop-color="rgb(2,136,152)"/></linearGradient><linearGradient id="Gradient13" gradientUnits="userSpaceOnUse" x1="1125.91" y1="1444.32" x2="1148.35" y2="1255.94"><stop class="stop0" offset="0" stop-opacity="1" stop-color="rgb(0,87,98)"/><stop class="stop1" offset="1" stop-opacity="1" stop-color="rgb(0,127,141)"/></linearGradient><linearGradient id="Gradient14" gradientUnits="userSpaceOnUse" x1="1106.44" y1="1525.04" x2="1211" y2="1325.38"><stop class="stop0" offset="0" stop-opacity="1" stop-color="rgb(0,52,59)"/><stop class="stop1" offset="1" stop-opacity="1" stop-color="rgb(1,86,97)"/></linearGradient><linearGradient id="Gradient15" gradientUnits="userSpaceOnUse" x1="860.124" y1="627.316" x2="868.99" y2="433.985"><stop class="stop0" offset="0" stop-opacity="1" stop-color="rgb(0,75,86)"/><stop class="stop1" offset="1" stop-opacity="1" stop-color="rgb(0,138,155)"/></linearGradient><linearGradient id="Gradient16" gradientUnits="userSpaceOnUse" x1="1453.45" y1="1466.63" x2="1317.81" y2="1232.57"><stop class="stop0" offset="0" stop-opacity="1" stop-color="rgb(0,76,86)"/><stop class="stop1" offset="1" stop-opacity="1" stop-color="rgb(0,130,143)"/></linearGradient><linearGradient id="Gradient17" gradientUnits="userSpaceOnUse" x1="1730.23" y1="1217.44" x2="1615.01" y2="1391.39"><stop class="stop0" offset="0" stop-opacity="1" stop-color="rgb(0,80,91)"/><stop class="stop1" offset="1" stop-opacity="1" stop-color="rgb(0,117,130)"/></linearGradient><linearGradient id="Gradient18" gradientUnits="userSpaceOnUse" x1="1607.87" y1="1596.39" x2="1702.59" y2="1402.85"><stop class="stop0" offset="0" stop-opacity="1" stop-color="rgb(1,49,55)"/><stop class="stop1" offset="1" stop-opacity="1" stop-color="rgb(0,90,100)"/></linearGradient><linearGradient id="Gradient19" gradientUnits="userSpaceOnUse" x1="377.371" y1="1570.53" x2="304.198" y2="1391.64"><stop class="stop0" offset="0" stop-opacity="1" stop-color="rgb(0,54,60)"/><stop class="stop1" offset="1" stop-opacity="1" stop-color="rgb(0,132,148)"/></linearGradient><linearGradient id="Gradient20" gradientUnits="userSpaceOnUse" x1="364.861" y1="1427.75" x2="400.485" y2="1242.06"><stop class="stop0" offset="0" stop-opacity="1" stop-color="rgb(0,73,83)"/><stop class="stop1" offset="1" stop-opacity="1" stop-color="rgb(0,130,145)"/></linearGradient><linearGradient id="Gradient21" gradientUnits="userSpaceOnUse" x1="976.79" y1="1463.21" x2="859.114" y2="1219.89"><stop class="stop0" offset="0" stop-opacity="1" stop-color="rgb(0,83,92)"/><stop class="stop1" offset="1" stop-opacity="1" stop-color="rgb(0,108,121)"/></linearGradient><linearGradient id="Gradient22" gradientUnits="userSpaceOnUse" x1="420.51" y1="1609.97" x2="391.635" y2="1413.77"><stop class="stop0" offset="0" stop-opacity="1" stop-color="rgb(0,54,60)"/><stop class="stop1" offset="1" stop-opacity="1" stop-color="rgb(1,116,129)"/></linearGradient></defs><path transform="translate(0,0)" fill="rgb(254,179,0)" d="M 979.723 219.469 C 1003.88 218.488 1015.4 225.857 1041.35 221.236 C 1083.12 213.799 1131.74 227.811 1172.44 238.148 C 1214.36 225.895 1246.13 215.087 1291.13 222.179 C 1355.32 232.295 1434.37 282.925 1422.84 357.153 C 1460.31 394.085 1484.78 404.605 1528.82 430.44 C 1548.17 441.792 1578.73 461.83 1597.05 474.923 L 1580.84 488.62 C 1619.36 522.228 1643.77 537.842 1661.61 592.017 C 1673.28 627.465 1683.62 674.393 1681.14 712.82 C 1680.81 717.965 1674.04 731.139 1671.45 736.45 C 1671.83 747.455 1674.24 758.941 1675.69 770.212 C 1678.76 794.056 1679.8 820.787 1676.58 844.703 C 1675.2 854.908 1661.49 868.005 1658.47 876.399 C 1652.35 893.367 1647.31 911.333 1640.23 928.075 C 1620.62 974.505 1582.1 1032.28 1540.55 1061.31 C 1557.22 1060.03 1584.83 1065.71 1602.28 1068.1 C 1650.61 1074.73 1699.09 1084.58 1747.16 1092.52 C 1741.73 1116.4 1736.12 1147.88 1729.46 1170.54 C 1786.03 1176.82 1845.92 1188.23 1902.5 1195.99 C 1920.66 1198.49 1939.27 1202.43 1957.4 1204.58 C 1938.46 1229.67 1919.36 1254.64 1900.11 1279.49 C 1885.29 1298.43 1866.78 1321.4 1853.33 1341.18 C 1855.35 1362.13 1856.16 1384.59 1858.95 1405.37 C 1860.43 1412.23 1869.27 1420.79 1869.64 1427.59 C 1873.5 1498.06 1879.8 1569.55 1882.04 1640 C 1871.15 1649.42 1840.28 1667.93 1827.09 1676.58 C 1801.63 1693.29 1775.94 1710.27 1750.47 1727 C 1739.22 1722.22 1728.83 1717.47 1717.4 1712.91 C 1656.14 1688.42 1592.87 1669.31 1528.3 1655.78 C 1513.61 1652.78 1491.22 1647.98 1476.41 1646.85 C 1440.53 1644.09 1403.37 1647.18 1367.78 1650.85 C 1264.1 1661.54 1168.68 1684.59 1072.62 1725.86 C 1056.64 1733.08 1040.74 1740.47 1024.93 1748.04 C 1004.43 1736.59 976.857 1723.42 954.888 1714.98 C 859.863 1679.17 760.33 1656.72 659.135 1648.26 C 604.486 1644.05 577.591 1646.3 523.79 1658.65 C 454.389 1674.45 386.754 1697.19 321.906 1726.53 C 287.566 1706.36 254.122 1682.92 220.145 1662.03 C 209.335 1655.38 197.164 1647.71 187.269 1639.87 C 186.39 1616.81 189.218 1573.22 190.078 1548.69 L 198.357 1338.08 C 165.079 1294.94 123.431 1248.28 92.0589 1204.44 C 111.259 1203.32 154.402 1195.58 174.613 1192.34 C 222.453 1184.7 270.37 1177.55 318.356 1170.89 C 313.343 1158.73 302.799 1107.35 299.4 1092.15 C 311.948 1088.52 332.987 1085.88 346.61 1083.63 C 380.2 1078.11 413.866 1073.04 447.596 1068.45 C 465.411 1065.99 491.16 1063.24 507.906 1059.75 C 465.137 1028.22 431.434 974.518 410.063 926.778 C 397.54 899.612 395.026 879.17 375.72 855.474 C 361.318 837.798 372.68 758.441 377.32 737.855 C 366.767 721.906 362.494 714.319 364.084 693.838 C 367.803 645.942 381.172 579.217 410.136 540.784 C 425.057 520.984 448.991 503.832 466.498 488.28 C 462.751 484.541 458.753 480.778 454.932 477.092 C 463.801 468.379 487.484 453.524 498.299 446.285 C 533.323 422.842 572.117 402.525 604.22 375.071 C 607.926 371.404 617.19 365.11 619.058 360.338 C 624.898 345.413 622.139 330.871 628.608 315.072 C 643.627 278.387 674.886 253.348 709.753 237.094 C 767.074 210.374 816.923 218.185 874.161 239.088 C 885.426 236.772 898.708 231.658 910.334 228.815 C 933.647 223.115 955.815 220.015 979.723 219.469 z"/><path transform="translate(0,0)" fill="rgb(0,0,1)" d="M 777.132 246.41 C 814.507 243.57 843.741 259.851 876.576 267.511 L 878.086 267.856 C 908.905 254.891 954.837 245.396 987.718 247.066 C 998.656 247.621 1013.07 251.354 1023.42 251.257 C 1035.63 251.142 1049.7 247.407 1062.6 247.056 C 1099.11 246.062 1134.97 255.681 1168.99 267.76 C 1246.38 237.822 1336.82 231.939 1389.99 311.063 C 1400.91 327.317 1397.05 344.617 1392.18 362.206 C 1430.99 414.883 1503.59 441.932 1554.75 481.365 L 1547.02 494.591 C 1560.67 506.846 1579.71 518.042 1593.35 532.092 C 1603.3 542.35 1614.21 551.661 1621.55 564.527 C 1644.78 605.195 1656.86 665.309 1658.2 711.619 C 1646.36 705.576 1635.8 697.984 1624.75 690.631 C 1628.31 702.759 1636.1 713.938 1640.63 727.246 C 1652.97 763.537 1655.45 809.234 1653.36 847.505 C 1647.68 842.373 1644.76 839.852 1638.48 835.559 C 1631.49 885.013 1613.48 926.357 1585.99 968.325 C 1567.28 995.614 1529.34 1042.46 1497.78 1053.79 C 1475.4 1061.83 1433.43 1068.41 1408.92 1073.31 C 1512.41 1083.41 1615.55 1096.89 1718.16 1113.75 C 1713.23 1139.08 1705.7 1167.91 1700.06 1193.6 C 1713.86 1195.1 1730.25 1198.18 1744.52 1200.03 C 1799.71 1207.04 1854.83 1214.68 1909.84 1222.95 C 1894.46 1243.88 1878.85 1264.64 1863.02 1285.23 C 1851.82 1299.68 1837.56 1317.11 1827.86 1332.2 C 1828.44 1350.3 1830.84 1411.23 1836.5 1425.52 C 1838.1 1429.57 1841.84 1433.2 1844.69 1436.44 C 1849.71 1477.52 1849.27 1522.34 1852.94 1563.88 C 1854.74 1584.19 1855.94 1607.62 1856.09 1627.82 C 1846.38 1635.17 1833.65 1642.69 1823.32 1649.54 C 1798.48 1666.02 1772.6 1681.8 1748.47 1699.28 C 1717.51 1682.39 1666.87 1667.61 1633.07 1656.03 C 1605.13 1646.45 1572.97 1639.03 1544.24 1631.89 C 1519.1 1625.65 1490.38 1619.04 1464.58 1616.47 C 1448.72 1614.89 1425.53 1617.18 1409.15 1618.47 C 1357.25 1622.49 1305.68 1629.94 1254.76 1640.76 C 1199.79 1652.23 1145.86 1668.21 1093.52 1688.55 C 1071.34 1697.17 1046.63 1707.36 1026.21 1719.64 C 913.106 1661.37 791.67 1635.3 666.139 1620.87 C 648.691 1618.86 611.389 1614.14 595.011 1616.43 C 500.707 1629.62 409.567 1662.18 321.782 1698.04 C 313.71 1691.15 293.583 1678.83 283.784 1672.51 L 212.996 1626.77 C 214.925 1560.9 217.366 1495.04 220.319 1429.2 C 221.558 1398.29 224.534 1359.13 223.964 1328.62 C 217.513 1318.88 204.965 1304.58 197.458 1294.98 C 178.827 1271.17 159.018 1247.66 141.098 1223.32 C 208.766 1211.77 282.3 1204.49 350.596 1193.85 C 344.52 1167.47 338.362 1138.48 331.147 1112.59 C 369.666 1104.55 423.485 1099.13 463.193 1093.77 C 499.187 1088.88 535.226 1084.32 571.305 1080.1 C 596.983 1077.17 621.344 1074.09 647.23 1073.88 C 638.499 1070.49 629.846 1070 620.525 1067.3 C 597.023 1060.5 565.595 1057.98 543.437 1049.44 C 536.791 1046.88 516.902 1028.15 511.245 1022.83 C 469.114 983.255 439.043 931.4 420.528 876.953 C 416.091 863.88 412.8 848.191 408.971 834.547 L 394.976 847.546 C 391.029 821.82 396.338 761.356 403.82 735.214 C 407.228 723.305 416.219 706.193 420.324 692.668 L 420.778 691.141 C 412.457 698.699 396.649 706.645 386.324 712.982 C 391.393 688.858 391.893 664.281 398.175 637.817 C 411.055 583.559 417.525 559.532 463.404 523.919 C 476.727 513.576 486.982 505.079 501.807 495.544 L 494.175 483.581 C 509.537 471.744 525.365 460.524 541.62 449.945 C 573.132 429.622 603.055 414.852 630.233 387.946 C 640.026 378.251 646.041 374.276 653.542 361.883 C 648.123 334.259 648.393 322.059 667.475 299.811 C 695.639 266.975 734.415 250.031 777.132 246.41 z"/><path transform="translate(0,0)" fill="rgb(253,253,242)" d="M 782.075 1231.29 C 794.201 1230.13 828.528 1227.4 839.037 1228.29 C 844.66 1228.76 874.535 1237.2 882.913 1239.23 C 893.624 1239.89 919.047 1245.37 930.711 1246.73 C 939.83 1247.8 990.615 1250.67 994.022 1252.22 L 995.716 1252.2 C 999.137 1250.69 1009.4 1252.02 1013.79 1252.36 C 1014.36 1271.86 1013.94 1293.31 1013.96 1312.96 C 993.967 1313.02 973.98 1312.7 954.004 1311.99 C 953.902 1370.81 954.608 1431.52 953.069 1490.15 C 964.572 1502.35 978.137 1512.85 990.279 1525.5 C 942.836 1526.96 896.902 1531.56 849.756 1536.27 C 847.881 1519.23 848.916 1480.96 848.958 1462.24 C 849.012 1413.72 849.345 1365.21 849.958 1316.7 C 830.22 1317.46 806.961 1319.84 787.083 1321.4 C 789.659 1341.72 800.805 1382.38 806.14 1403.56 C 817.003 1448.46 828.699 1493.15 841.221 1537.62 C 808.499 1541.13 759.973 1549.23 729.618 1550.24 C 724.871 1535.03 717.913 1505.13 715.258 1489.77 C 700.817 1492.64 685.196 1493.27 669.767 1496.48 C 663.794 1515.95 654.65 1544.12 647.468 1562.83 C 595.495 1569.25 544.16 1581.91 493.935 1596.42 C 454.562 1607.8 414.656 1617.16 375.614 1629.68 C 358.373 1635.2 340.861 1640.1 323.362 1644.74 C 298.936 1628.86 277.124 1612.87 251.777 1597.1 C 254.615 1578.72 255.464 1532.24 256.565 1511.13 L 265.367 1310.91 C 250.184 1291.88 230.668 1273.63 215.655 1253.42 C 262.386 1246.43 317.808 1236.38 364.291 1231.39 C 365.421 1235.65 367.874 1243.47 367.328 1247.47 C 368.294 1254.59 373.24 1272.87 375.452 1280.3 C 418.249 1273.36 452.503 1267.3 494.948 1257.75 C 502.937 1255.49 507.037 1254.52 515.219 1253.29 C 524.346 1260.37 543.946 1277.79 552.187 1285.74 C 550.278 1302.35 551.023 1319.1 548.995 1334.76 C 505.883 1342.34 459.945 1352.68 416.922 1358.35 C 417.713 1349.04 418.32 1339.56 418.993 1330.23 C 408.751 1332.12 398.438 1333.6 388.08 1334.68 C 387.825 1378.26 384.504 1425.51 383.182 1469.4 C 382.698 1485.49 382.469 1515.84 380.872 1530.01 C 393.159 1526.69 410.794 1523.63 423.608 1521.01 L 425.078 1463.79 C 413.811 1465.74 402.308 1468.21 391.076 1470.47 C 393.231 1449.99 392.627 1422.33 394.132 1400.35 C 400.762 1398.79 408.686 1397.46 415.44 1396.39 C 459.974 1389.37 505.235 1378.11 549.969 1373.11 C 550.513 1411.54 545.367 1452.54 545.11 1491.16 C 545.008 1506.49 544.404 1524.98 542.624 1540.07 C 550.833 1516.48 557.598 1491.06 564.497 1466.9 C 573.079 1437.93 581.343 1408.86 589.289 1379.7 C 597.739 1348.54 609.238 1311.67 615.822 1280.49 C 606.799 1270.6 595.297 1258.36 587.881 1247.49 C 598.742 1245.98 610.68 1245.2 621.795 1243.85 C 668.171 1238.01 714.719 1233.62 761.371 1230.7 C 764.937 1251.39 775.054 1292.44 780.464 1313.39 C 781.557 1286.46 781.761 1258.28 782.075 1231.29 z"/><path transform="translate(0,0)" fill="url(#Gradient22)" d="M 410.595 1414.35 C 449.751 1405.54 493.87 1400.4 532.055 1391.41 C 530.215 1430.18 528.642 1468.96 527.337 1507.74 C 526.604 1526.04 526.001 1553.94 523.948 1571.48 C 465.573 1585.94 408.175 1601.13 350.961 1619.64 C 343.461 1622.07 335.321 1624.63 327.723 1626.63 C 310.589 1616.4 293.007 1601.81 275.788 1590.93 C 275.875 1567.79 277.495 1515.39 280.228 1492.34 C 281.058 1495.4 281.433 1497.16 281.672 1500.35 C 282.885 1516.53 290.738 1531.42 296.659 1546.31 C 303.178 1562.7 316.226 1588.29 337.409 1586.35 C 363.258 1584 341.236 1553.37 355.597 1545.3 C 358.279 1547.07 357.086 1545.95 358.713 1549.35 C 361.281 1545.64 359.036 1531.42 361.51 1528.13 C 361.481 1532.56 360.821 1547.13 362.242 1550.21 L 362.809 1549.85 L 367.304 1550.6 C 390.552 1544.1 416.88 1540.27 440.686 1533.84 C 440.908 1516.26 441.704 1498.4 442.123 1480.76 C 442.339 1469.53 442.762 1458.3 443.392 1447.08 C 442.425 1445.44 442.339 1444.41 440.906 1444.38 C 431.654 1444.16 419.004 1447.44 409.849 1448.84 L 410.595 1414.35 z"/><path transform="translate(0,0)" fill="rgb(0,91,104)" d="M 443.392 1447.08 C 447.197 1456.19 445.716 1470.32 448.629 1478.16 C 459.491 1476.98 520.145 1459.36 521.089 1459.53 C 518.355 1463.86 451.243 1480.5 442.123 1480.76 C 442.339 1469.53 442.762 1458.3 443.392 1447.08 z"/><path transform="translate(0,0)" fill="rgb(1,48,60)" d="M 440.686 1533.84 L 441.278 1534.74 C 436.71 1537.91 420.859 1540.17 414.197 1542.12 C 405.751 1544.59 374.249 1553.9 367.304 1550.6 C 390.552 1544.1 416.88 1540.27 440.686 1533.84 z"/><path transform="translate(0,0)" fill="url(#Gradient21)" d="M 882.913 1239.23 C 893.624 1239.89 919.047 1245.37 930.711 1246.73 C 939.83 1247.8 990.615 1250.67 994.022 1252.22 C 993.776 1266.46 994.569 1280.3 994.656 1294.51 C 987.059 1294.45 965.365 1293.54 959.344 1295.84 C 953.71 1295.93 942.468 1295.52 937.714 1296.56 L 935.973 1298.99 C 933.405 1306.43 934.33 1343.8 934.246 1353.45 L 933.324 1444.01 C 933.365 1458.82 930.605 1500.42 935.062 1511.88 C 912.22 1514.32 888.994 1514.83 866.088 1518.12 C 865.893 1494.28 865.939 1470.45 866.228 1446.62 C 864.659 1401.05 866.289 1344.95 866.396 1298.71 C 844.167 1300.44 820.11 1303.19 798.088 1304.21 L 798.069 1246.72 C 816.957 1245.18 836.403 1245.22 855.309 1243.64 C 860.68 1243.19 880.443 1243.33 882.913 1239.23 z"/><path transform="translate(0,0)" fill="rgb(0,69,79)" d="M 866.228 1446.62 C 867.803 1442.06 867.297 1436.82 867.639 1431.61 C 870.304 1440.21 864.343 1472.41 870.646 1484.35 C 872.263 1483.03 873.909 1481.74 875.582 1480.49 C 883.178 1483.88 884.979 1488.57 891.818 1493.02 C 895.031 1495.47 898.101 1492.95 901.161 1495.51 C 903.065 1497.1 906.602 1498.18 908.63 1496.25 C 910.939 1494.06 930.661 1474.17 930.851 1472.66 C 932.847 1456.76 930.715 1441.1 931.997 1424.96 C 933.106 1427.07 933.259 1440.97 933.324 1444.01 C 933.365 1458.82 930.605 1500.42 935.062 1511.88 C 912.22 1514.32 888.994 1514.83 866.088 1518.12 C 865.893 1494.28 865.939 1470.45 866.228 1446.62 z"/><path transform="translate(0,0)" fill="url(#Gradient20)" d="M 250.293 1264.44 C 275.106 1261.43 299.859 1257.94 324.539 1253.98 C 338.893 1251.81 353.05 1250.16 367.328 1247.47 C 368.294 1254.59 373.24 1272.87 375.452 1280.3 C 418.249 1273.36 452.503 1267.3 494.948 1257.75 C 500.442 1263.84 526.058 1285.91 533.216 1290.69 C 532.655 1300.37 531.711 1311.92 531.706 1321.47 C 502.036 1326.61 465.841 1332 436.783 1338.35 C 437.398 1329.07 438.189 1319.77 437.957 1310.47 C 416.519 1312.86 391.716 1317.77 370.124 1321.54 C 369.75 1341.15 368.696 1359.68 367.824 1379.2 C 366.247 1374.92 366.516 1368.88 365.151 1366.51 C 359.827 1367.21 353.305 1371.96 348.093 1373.99 C 322.933 1383.78 302.13 1395.45 286.889 1418.66 C 286.509 1412.46 288.351 1404.57 284.303 1399.91 C 285.03 1369.01 288.43 1334.03 288.09 1303.71 L 250.293 1264.44 z"/><path transform="translate(0,0)" fill="url(#Gradient19)" d="M 286.889 1418.66 C 302.13 1395.45 322.933 1383.78 348.093 1373.99 C 353.305 1371.96 359.827 1367.21 365.151 1366.51 C 366.516 1368.88 366.247 1374.92 367.824 1379.2 C 368.618 1426.31 362.98 1475.94 363.614 1523.35 C 363.722 1531.42 363.45 1541.8 362.809 1549.85 L 362.242 1550.21 C 360.821 1547.13 361.481 1532.56 361.51 1528.13 C 359.036 1531.42 361.281 1545.64 358.713 1549.35 C 357.086 1545.95 358.279 1547.07 355.597 1545.3 C 341.236 1553.37 363.258 1584 337.409 1586.35 C 316.226 1588.29 303.178 1562.7 296.659 1546.31 C 290.738 1531.42 282.885 1516.53 281.672 1500.35 C 281.433 1497.16 281.058 1495.4 280.228 1492.34 C 279.994 1486.31 280.358 1483.06 280.972 1477.17 C 284.147 1469.99 285.906 1429.24 286.889 1418.66 z"/><path transform="translate(0,0)" fill="rgb(1,48,60)" d="M 933.324 1444.01 L 934.246 1353.45 C 934.33 1343.8 933.405 1306.43 935.973 1298.99 C 937.316 1314.43 935.791 1510.75 935.062 1511.88 C 930.605 1500.42 933.365 1458.82 933.324 1444.01 z"/><path transform="translate(0,0)" fill="rgb(0,69,79)" d="M 284.303 1399.91 C 288.351 1404.57 286.509 1412.46 286.889 1418.66 C 285.906 1429.24 284.147 1469.99 280.972 1477.17 C 280.612 1455.72 283.241 1422.24 284.303 1399.91 z"/><path transform="translate(0,0)" fill="rgb(1,48,60)" d="M 994.022 1252.22 L 995.716 1252.2 C 996.922 1266.91 996.977 1281.56 996.911 1296.31 C 984.414 1296.85 971.854 1296.24 959.344 1295.84 C 965.365 1293.54 987.059 1294.45 994.656 1294.51 C 994.569 1280.3 993.776 1266.46 994.022 1252.22 z"/><path transform="translate(0,0)" fill="rgb(0,120,134)" d="M 620.908 1260.54 C 633.672 1258.03 652.274 1256.68 665.772 1255.29 C 692.945 1252.45 720.155 1249.99 747.395 1247.89 C 750.61 1260.83 761.579 1298.78 762.955 1309.16 C 770.321 1332.59 778.272 1361.9 784.049 1386.12 C 795.721 1431.43 808.051 1478.32 819.04 1523.73 C 801.45 1526.52 759.659 1531.62 742.592 1532.35 C 737.852 1513.22 733.43 1490.07 728.523 1471.79 C 706.758 1474.47 678.088 1478.66 656.922 1480.41 C 649.344 1501.03 642.467 1527.59 634.119 1547.24 C 608.018 1552.82 580.127 1556.45 554.531 1563.24 C 562.487 1536.07 570.286 1508.84 577.926 1481.57 C 581.613 1468.22 587.84 1442.81 592.578 1430.94 C 602.239 1392.28 614.022 1353.88 623.901 1315.24 C 626.681 1304.37 629.486 1293.34 632.607 1282.58 C 635.159 1269.42 629.594 1268.76 620.908 1260.54 z"/><path transform="translate(0,0)" fill="rgb(0,69,79)" d="M 793.534 1435.55 C 790.74 1424.8 784.057 1397.54 782.491 1386.88 L 784.049 1386.12 C 795.721 1431.43 808.051 1478.32 819.04 1523.73 C 801.45 1526.52 759.659 1531.62 742.592 1532.35 C 737.852 1513.22 733.43 1490.07 728.523 1471.79 C 706.758 1474.47 678.088 1478.66 656.922 1480.41 C 649.344 1501.03 642.467 1527.59 634.119 1547.24 C 608.018 1552.82 580.127 1556.45 554.531 1563.24 C 562.487 1536.07 570.286 1508.84 577.926 1481.57 C 581.613 1468.22 587.84 1442.81 592.578 1430.94 C 593.528 1436.29 590.113 1450.15 589.222 1456.6 C 601.281 1455.08 619.624 1448.98 632.082 1445.45 C 639.668 1443.29 660.21 1438.97 666.18 1436.61 C 682.068 1433.77 701.238 1432.27 716.443 1428.49 L 712.491 1411.79 L 713.428 1410.89 C 715.354 1414.34 717.429 1423.22 718.566 1427.42 C 733.803 1443.06 773.915 1438.69 793.534 1435.55 z"/><path transform="translate(0,0)" fill="rgb(253,253,242)" d="M 666.18 1436.61 C 664.701 1419.38 673.616 1393.85 676.174 1376.12 C 677.314 1368.22 679.588 1338.46 690.087 1340.39 C 699.559 1347.68 707.136 1395.25 712.134 1410.71 L 712.491 1411.79 L 716.443 1428.49 C 701.238 1432.27 682.068 1433.77 666.18 1436.61 z"/><path transform="translate(0,0)" fill="rgb(0,91,104)" d="M 690.521 1397.77 C 693.356 1400.5 696.166 1411.11 696.615 1415.37 L 694.752 1416.47 C 692.947 1416.51 691.143 1416.54 689.338 1416.56 L 687.957 1415.11 C 687.269 1410.86 689.727 1403.65 690.521 1397.77 z"/><path transform="translate(0,0)" fill="rgb(0,91,104)" d="M 620.908 1260.54 C 633.672 1258.03 652.274 1256.68 665.772 1255.29 C 692.945 1252.45 720.155 1249.99 747.395 1247.89 C 750.61 1260.83 761.579 1298.78 762.955 1309.16 L 761.892 1309.4 C 757.061 1303.2 755.675 1271.3 747.086 1270.63 C 711.098 1267.82 673.216 1269.97 637.703 1275.99 C 636.439 1276.2 636.095 1280.2 632.607 1282.58 C 635.159 1269.42 629.594 1268.76 620.908 1260.54 z"/><path transform="translate(0,0)" fill="rgb(253,253,242)" d="M 1698.34 1228.02 C 1737.29 1234.72 1776.72 1239.35 1815.66 1246.22 C 1822.73 1247.46 1829.85 1248.53 1836.96 1249.46 C 1825.1 1269.73 1795.68 1306.31 1786.65 1325.37 C 1789.05 1343.48 1792.01 1362.02 1794.28 1379.99 C 1761.51 1373.71 1725.68 1366.15 1692.9 1361.38 C 1691.39 1350.24 1690.69 1341.43 1689.97 1330.25 C 1675.37 1326.99 1660.7 1324.07 1645.97 1321.49 C 1645.9 1333.95 1646.24 1346.4 1646.97 1358.83 C 1698.69 1393 1752.95 1432.67 1803.82 1468.45 L 1810.15 1551.77 C 1811.35 1567.89 1812.42 1588.88 1814.69 1604.54 C 1791.08 1621.5 1767.2 1638.09 1743.07 1654.31 C 1735.19 1651.54 1727.28 1648.73 1719.47 1645.77 C 1619.89 1607.95 1522.41 1577.37 1417.84 1556.67 C 1403.98 1530.86 1387.63 1495.21 1375.47 1468.23 C 1377.57 1495.84 1377.03 1522.61 1380.19 1550.19 C 1349.38 1548 1318.62 1542.62 1287.78 1540.5 C 1282.88 1540.16 1277.95 1539.68 1273.06 1539.15 L 1270.07 1370.23 C 1269.63 1330.67 1270.21 1288.65 1268.32 1249.16 C 1257.98 1245.01 1255.47 1240.78 1251.02 1230.95 C 1266.02 1229.78 1287.62 1231.29 1303.23 1232.04 C 1337.03 1233.63 1370.79 1235.93 1404.49 1238.92 C 1425.16 1240.72 1448.51 1243.72 1469 1244.19 C 1482.02 1257.72 1498.9 1273.27 1511 1286.67 C 1510.82 1320.06 1513.81 1353.75 1514.14 1387.15 C 1514.2 1392.84 1514.2 1398.59 1514.81 1404.24 C 1502.23 1415.86 1488.54 1427.47 1475.59 1438.77 C 1493.04 1481.75 1516.78 1525.03 1534.05 1567.32 C 1533.68 1543.44 1531.51 1519.41 1531.42 1495.44 C 1531.38 1483.37 1529.79 1471.15 1529.96 1458.96 C 1566.4 1468.91 1602.55 1482.77 1638.67 1493.89 C 1644.52 1495.69 1651 1497.6 1656.73 1499.65 C 1658.24 1507.54 1658.05 1515.07 1658.13 1523.08 C 1666.81 1525.74 1675.52 1528.3 1684.25 1530.78 C 1682.93 1522.18 1682.45 1514.65 1681.85 1506.01 C 1649.79 1481.95 1617.61 1458.04 1585.31 1434.31 C 1572.13 1424.47 1541.28 1401.77 1530.27 1390.19 C 1529.58 1356.72 1528.44 1323.26 1526.86 1289.81 C 1539.06 1281.28 1562.52 1260.67 1574.14 1250.28 C 1581.08 1252.62 1586.86 1254.56 1593.95 1256.35 C 1618.28 1262.84 1665.09 1275.75 1688.83 1278.55 C 1690.99 1269.54 1691.67 1254.41 1696.7 1247.63 C 1697.5 1246.55 1701.32 1246.86 1703.18 1246.8 C 1698.34 1245.83 1699.09 1246.79 1696.68 1243.78 C 1695.65 1237.9 1697.92 1234.31 1698.34 1228.02 z"/><path transform="translate(0,0)" fill="url(#Gradient18)" d="M 1545.9 1328.56 C 1548.96 1336.83 1548.63 1340.81 1548.49 1349.43 C 1559.14 1350.41 1569.33 1353.6 1579.88 1355.39 C 1590.3 1357.17 1601.56 1355.75 1611.98 1357.14 C 1615.74 1357.64 1622.23 1363.69 1626.51 1363.25 C 1628.57 1358.81 1627.15 1342.67 1627.65 1336.31 L 1628.88 1336.04 C 1629.31 1346.62 1629.95 1357.75 1629.97 1368.3 C 1634.67 1378 1768.59 1462.5 1780.7 1476.98 C 1784.67 1481.73 1786.8 1547.33 1784.56 1556.12 C 1783.6 1564.07 1793.42 1584.3 1789.54 1594.26 C 1788.6 1599.39 1778.61 1602.63 1778.39 1607.68 C 1775.63 1611.31 1744.39 1632.75 1739.04 1636.07 C 1677.41 1612.44 1614.95 1591.07 1551.77 1571.99 C 1549.13 1548.05 1549.38 1508.27 1548.09 1481.77 C 1578.86 1491.33 1609.35 1501.72 1639.55 1512.95 C 1639.58 1519.98 1640.04 1526.48 1640.5 1533.49 C 1652.96 1539.58 1689.28 1549.83 1703.97 1554.35 C 1703.14 1537.14 1702.68 1516.01 1700.69 1499.18 C 1693.95 1493.82 1685.7 1487.98 1678.64 1483.01 C 1633.89 1451.51 1591.2 1416.2 1546.98 1384.2 C 1547.25 1366.79 1546.16 1346.33 1545.9 1328.56 z"/><path transform="translate(0,0)" fill="url(#Gradient17)" d="M 1703.18 1246.8 C 1710.87 1245.83 1791.08 1258.52 1805.33 1260.6 C 1794.88 1277.36 1773.2 1305.66 1765.59 1321.67 C 1766.73 1333.95 1768.78 1346.13 1771.72 1358.11 C 1751.15 1354.81 1730.62 1351.29 1710.12 1347.56 L 1707.76 1316.48 C 1685.82 1312.95 1649.51 1307.3 1628.22 1302.56 C 1627.79 1315.31 1628.5 1323.62 1628.88 1336.04 L 1627.65 1336.31 C 1627.15 1342.67 1628.57 1358.81 1626.51 1363.25 C 1622.23 1363.69 1615.74 1357.64 1611.98 1357.14 C 1601.56 1355.75 1590.3 1357.17 1579.88 1355.39 C 1569.33 1353.6 1559.14 1350.41 1548.49 1349.43 C 1548.63 1340.81 1548.96 1336.83 1545.9 1328.56 C 1544.81 1325.22 1544.52 1305.4 1544.39 1300.86 C 1551.61 1293.19 1591.43 1260.71 1593.95 1256.35 C 1618.28 1262.84 1665.09 1275.75 1688.83 1278.55 C 1690.99 1269.54 1691.67 1254.41 1696.7 1247.63 C 1697.5 1246.55 1701.32 1246.86 1703.18 1246.8 z"/><path transform="translate(0,0)" fill="rgb(1,48,60)" d="M 1629.97 1368.3 C 1636.49 1370.35 1687.57 1407.19 1695.96 1413.37 C 1723.68 1433.79 1755.99 1454.39 1783.43 1474.83 C 1786.15 1511.24 1791.94 1562.88 1792.09 1597.97 C 1787.53 1601.43 1783.36 1604.81 1778.39 1607.68 C 1778.61 1602.63 1788.6 1599.39 1789.54 1594.26 C 1793.42 1584.3 1783.6 1564.07 1784.56 1556.12 C 1786.8 1547.33 1784.67 1481.73 1780.7 1476.98 C 1768.59 1462.5 1634.67 1378 1629.97 1368.3 z"/><path transform="translate(0,0)" fill="url(#Gradient16)" d="M 1284.84 1247.93 C 1289.2 1247.96 1290.77 1248.02 1295.05 1248.7 C 1332.68 1250.75 1370.29 1253.04 1407.89 1255.6 C 1417.36 1256.25 1456.75 1257.2 1462.22 1262.01 C 1466.56 1266.01 1491.01 1289.15 1492.45 1292.81 C 1495.16 1301.84 1495.32 1328.69 1495.61 1339.09 C 1496.04 1358.18 1496.73 1377.26 1497.67 1396.33 C 1483.9 1408.41 1468.24 1421.48 1454.91 1433.72 C 1458.07 1441.32 1461.59 1449.34 1464.56 1456.97 C 1467.73 1462.24 1473.86 1478.05 1477.06 1484.72 C 1489.07 1509.72 1500 1538.19 1513.29 1562.38 C 1485.55 1554.1 1457.35 1550.18 1430.41 1542.73 C 1418.19 1521.33 1406.05 1490.72 1394.41 1468.4 C 1386.51 1453.27 1377.14 1424.97 1366.23 1413.07 C 1362.58 1413.56 1359.28 1413.43 1356.78 1415.84 L 1355.81 1417.92 C 1357.45 1429.51 1357.16 1446.67 1357.88 1458.76 C 1359.33 1483.22 1359.97 1507.76 1360.44 1532.26 C 1337.05 1529 1313.57 1526.36 1290.03 1524.35 C 1289.94 1486.32 1287.92 1448.43 1287.98 1409.65 C 1285.25 1356.05 1286.71 1301.86 1284.84 1247.93 z"/><path transform="translate(0,0)" fill="rgb(0,69,79)" d="M 1366.23 1413.07 C 1374.56 1411.27 1387.56 1447.68 1393.8 1451.81 C 1397.01 1453.93 1420.87 1454.36 1426.02 1456.81 C 1433.22 1458.19 1451.41 1465.89 1455.3 1465.84 C 1458.5 1464.57 1458.4 1464.8 1460.46 1462.09 C 1459.86 1455.11 1456.2 1450.15 1456.36 1445.12 C 1458.59 1449.48 1460.34 1453.21 1463.17 1457.24 L 1464.56 1456.97 C 1467.73 1462.24 1473.86 1478.05 1477.06 1484.72 C 1489.07 1509.72 1500 1538.19 1513.29 1562.38 C 1485.55 1554.1 1457.35 1550.18 1430.41 1542.73 C 1418.19 1521.33 1406.05 1490.72 1394.41 1468.4 C 1386.51 1453.27 1377.14 1424.97 1366.23 1413.07 z"/><path transform="translate(0,0)" fill="rgb(0,69,79)" d="M 1287.98 1409.65 C 1289.05 1414.78 1289.94 1418.46 1290.2 1423.76 C 1308.35 1427.32 1337.27 1434.88 1354.83 1440.37 C 1354.94 1436.27 1355.11 1421.39 1355.81 1417.92 C 1357.45 1429.51 1357.16 1446.67 1357.88 1458.76 C 1359.33 1483.22 1359.97 1507.76 1360.44 1532.26 C 1337.05 1529 1313.57 1526.36 1290.03 1524.35 C 1289.94 1486.32 1287.92 1448.43 1287.98 1409.65 z"/><path transform="translate(0,0)" fill="rgb(1,48,60)" d="M 1492.45 1292.81 C 1495.16 1301.84 1495.32 1328.69 1495.61 1339.09 C 1496.04 1358.18 1496.73 1377.26 1497.67 1396.33 C 1483.9 1408.41 1468.24 1421.48 1454.91 1433.72 C 1458.07 1441.32 1461.59 1449.34 1464.56 1456.97 L 1463.17 1457.24 C 1460.34 1453.21 1458.59 1449.48 1456.36 1445.12 L 1452.22 1432.93 C 1461.32 1422.89 1482.92 1407 1494.6 1395.4 C 1495.12 1372.4 1492.85 1348.22 1492.93 1325.04 C 1492.96 1316.82 1491.18 1300.05 1492.45 1292.81 z"/><path transform="translate(0,0)" fill="rgb(0,91,104)" d="M 1295.05 1248.7 C 1332.68 1250.75 1370.29 1253.04 1407.89 1255.6 C 1417.36 1256.25 1456.75 1257.2 1462.22 1262.01 L 1460.99 1263.07 C 1450.36 1257.67 1407.05 1258.85 1393.34 1257.48 C 1385.24 1256.67 1374.77 1255.21 1366.75 1254.65 L 1295.05 1250.03 L 1295.05 1248.7 z"/><path transform="translate(0,0)" fill="rgb(253,253,242)" d="M 1357.96 1297.77 C 1380.15 1297.45 1407.68 1299.28 1429.99 1301.29 C 1432.51 1327.25 1432.15 1369.4 1432.14 1396.05 C 1414.65 1395.73 1377.15 1392.54 1359.96 1390.25 C 1360.13 1357.97 1358.41 1329.34 1357.96 1297.77 z"/><path transform="translate(0,0)" fill="rgb(0,0,1)" d="M 1376.56 1314.41 C 1387.55 1315.76 1402.65 1316.4 1413.95 1317.16 C 1413.95 1338.1 1414.55 1358.05 1415.02 1378.92 C 1402.82 1377.08 1388.75 1376.37 1376.41 1375.63 C 1375.74 1366.46 1375.46 1321.68 1376.56 1314.41 z"/><path transform="translate(0,0)" fill="url(#Gradient15)" d="M 828.56 536.67 C 839.153 504.892 866.332 452.245 897.74 435.468 C 911.645 428.041 931.806 428.346 946.565 433.104 C 953.785 435.446 963.231 441.304 970.022 443.654 C 999.222 453.756 1051.95 455.749 1080.36 442.481 C 1132.63 418.08 1159.71 431.746 1188.44 480.164 C 1198.66 497.386 1213.19 520.416 1216.31 542.072 C 1217.56 546.253 1218.46 549.867 1219.44 554.119 C 1219.32 567.367 1221.12 571.627 1215.39 583.501 L 1205.24 579.22 C 1207.65 582.987 1209.12 583.381 1213.15 585.707 C 1211.63 589.128 1207.15 589.099 1204.54 593.01 C 1201.81 595.476 1189.37 601.556 1185.61 603.686 C 1145.04 626.634 1122.52 603.034 1083.13 592.857 C 1056.26 585.914 1033.52 585.263 1006.43 584.84 C 977.832 583.208 950.067 593.152 923.616 603.533 C 887.902 617.55 875.413 618.929 845.164 594.031 C 829.482 601.149 816.503 611.102 801.252 619.362 C 784.877 628.23 766.085 626.403 748.997 620.692 C 735.174 616.072 723.851 612.364 711.707 603.653 C 683.3 583.277 668.303 544.469 630.593 538.501 C 615.65 536.111 601.024 537.531 586.816 542.869 C 569.365 549.424 550.575 556.284 537.234 569.839 C 527.205 580.028 519.994 593.17 508.181 601.336 L 506.959 602.172 C 506.373 586.893 508.2 555.951 515.649 542.625 C 532.446 493.96 606.609 466.882 654.284 468.101 C 685.005 468.887 705.418 484.368 725.016 506.58 L 730.585 513.085 L 732.256 508.816 C 737.648 507.281 745.008 502.308 749.999 499.575 C 757.917 501.256 761.048 501.994 768.498 505.779 C 759.072 514.307 745.489 539.888 746.408 551.833 C 749.187 550.675 748.399 548.777 750.49 547.034 C 761.697 519.333 781.541 503.605 805.605 487.312 C 810.505 483.151 839.414 464.131 844.816 464.196 C 845.857 469.383 827.272 501.341 826.471 505.826 C 824.126 518.967 825.087 533.986 823.386 547.913 C 824.535 545.228 827.07 538.744 828.56 536.67 z"/><path transform="translate(0,0)" fill="rgb(254,254,253)" d="M 828.56 536.67 C 839.153 504.892 866.332 452.245 897.74 435.468 C 911.645 428.041 931.806 428.346 946.565 433.104 C 953.785 435.446 963.231 441.304 970.022 443.654 C 999.222 453.756 1051.95 455.749 1080.36 442.481 C 1132.63 418.08 1159.71 431.746 1188.44 480.164 C 1198.66 497.386 1213.19 520.416 1216.31 542.072 C 1212.24 537.802 1204.41 523.017 1200.9 516.732 C 1190 497.234 1174.09 471.618 1157.39 456.846 C 1128.63 431.4 1093.06 453.476 1060.93 458.588 C 1042.57 461.507 1025.91 462.491 1007.05 461.203 C 996.941 460.574 986.897 459.155 977.01 456.958 C 959.713 453.028 929.113 442.93 912.786 445.065 C 875.806 449.903 849.371 512.11 829.893 536.962 L 828.56 536.67 z"/><path transform="translate(0,0)" fill="rgb(254,254,253)" d="M 515.649 542.625 C 532.446 493.96 606.609 466.882 654.284 468.101 C 685.005 468.887 705.418 484.368 725.016 506.58 L 722.799 508.274 C 691.937 482.885 676.491 477.564 635.181 480.886 C 596.252 484.016 544.05 508.858 519.046 539.688 C 518.407 540.468 517.78 541.258 517.166 542.059 L 515.649 542.625 z"/><path transform="translate(0,0)" fill="rgb(254,254,253)" d="M 805.605 487.312 C 801.008 495.243 785.295 508.775 778.519 516.649 C 773.777 522.159 755.275 546.659 750.49 547.034 C 761.697 519.333 781.541 503.605 805.605 487.312 z"/><path transform="translate(0,0)" fill="rgb(226,238,233)" d="M 725.016 506.58 L 730.585 513.085 L 731.662 514.481 L 731.149 515.468 C 727.707 513.592 725.571 511.056 722.799 508.274 L 725.016 506.58 z"/><path transform="translate(0,0)" fill="rgb(0,0,1)" d="M 907.263 459.637 C 909.199 456.664 909.45 455.868 912.581 454.07 C 929.651 451.774 969.987 480.441 977.018 494.641 C 979.164 496.282 978.595 495.49 979.601 497.969 C 974.325 501.222 945.963 494.095 939.495 491.681 C 931.682 488.765 919.16 481.857 911.253 481.025 C 888.883 490.477 878.333 531.849 882.338 554.465 C 883.378 560.337 891.617 563.811 896.674 566.512 C 894.688 566.387 891.355 566.177 889.487 565.916 C 872.422 563.538 877.45 525.136 879.748 513.854 C 883.468 495.597 891.344 470.609 907.263 459.637 z"/><path transform="translate(0,0)" fill="rgb(0,69,79)" d="M 907.263 459.637 C 909.199 456.664 909.45 455.868 912.581 454.07 C 929.651 451.774 969.987 480.441 977.018 494.641 C 964.507 490.371 951.717 477.225 939.989 471.035 C 930.288 465.915 918.197 463.601 907.263 459.637 z"/><path transform="translate(0,0)" fill="rgb(0,0,1)" d="M 1120.59 459.918 C 1131.21 459.253 1141.9 462.172 1147.48 471.811 C 1162.39 497.567 1172.14 529.244 1169.16 559.179 C 1168.38 566.932 1161.48 571.595 1155.73 575.416 C 1170.65 551.481 1167.04 541.228 1158.59 515.5 C 1152.31 498.65 1146.44 488.952 1129.74 480.847 C 1129.39 480.923 1129.04 481 1128.69 481.077 L 1126.96 481.495 C 1095.99 488.678 1096.47 499.374 1056.71 498.439 C 1060.72 495.643 1066.12 492.913 1070.73 489.83 C 1086.84 479.047 1102.25 466.545 1120.59 459.918 z"/><path transform="translate(0,0)" fill="url(#Gradient14)" d="M 1212.78 1229.9 C 1224.56 1241.4 1246.13 1262.51 1255.89 1275.2 C 1256.45 1348.23 1257.57 1421.24 1259.25 1494.25 C 1250.03 1504.13 1228.62 1523.18 1217.85 1532.29 C 1169.33 1531.71 1112.29 1527.77 1063.06 1525.79 C 1049.26 1512.83 1034.87 1499.88 1021.46 1486.6 L 1021.74 1277.5 C 1031.05 1269.15 1041.54 1256.92 1049.95 1250.01 C 1057.94 1250.08 1064.22 1250.24 1072.15 1250.93 C 1076.9 1250.27 1084.42 1250.15 1089.38 1250.02 C 1125.25 1249.08 1159.32 1240.18 1194.43 1234.63 L 1212.78 1229.9 z"/><path transform="translate(0,0)" fill="url(#Gradient13)" d="M 1072.15 1250.93 C 1076.9 1250.27 1084.42 1250.15 1089.38 1250.02 C 1125.25 1249.08 1159.32 1240.18 1194.43 1234.63 C 1203.69 1246.28 1227.61 1267.05 1233.43 1275.54 L 1232.5 1277.26 C 1239 1285.97 1237.46 1307.95 1237.53 1319.96 C 1237.21 1342.49 1237.56 1363.79 1237.47 1386.06 C 1231.38 1386.2 1176.8 1386.03 1174.21 1386.84 C 1172.72 1389.35 1172.83 1389.69 1172.18 1392.6 L 1172.08 1296.56 C 1157.48 1295.18 1125.1 1295.37 1109.91 1295.64 C 1107.81 1299.36 1108.49 1425.2 1108.51 1442.36 C 1095.83 1443.57 1057.04 1433.34 1039.54 1431.74 C 1039.53 1436.13 1040.12 1457.51 1038.34 1459.74 C 1038.02 1452.82 1038.13 1444.55 1038.3 1437.59 C 1039.32 1395.88 1036.93 1352.86 1038.71 1311.3 C 1038.59 1301.08 1038.68 1294.11 1039.44 1283.9 C 1049.95 1272.93 1061.42 1261.96 1072.15 1250.93 z"/><path transform="translate(0,0)" fill="rgb(0,91,104)" d="M 1072.15 1250.93 C 1076.9 1250.27 1084.42 1250.15 1089.38 1250.02 C 1125.25 1249.08 1159.32 1240.18 1194.43 1234.63 C 1203.69 1246.28 1227.61 1267.05 1233.43 1275.54 L 1232.5 1277.26 C 1227.74 1272.74 1222.3 1267.3 1217.23 1263.3 C 1209.43 1263.7 1202.6 1263.62 1195.24 1263.65 C 1189.53 1263.68 1174.62 1270.83 1167.98 1271.65 C 1137.92 1275.39 1104.09 1279.42 1075.19 1288.93 C 1064.99 1292.29 1048.83 1305.45 1038.71 1311.3 C 1038.59 1301.08 1038.68 1294.11 1039.44 1283.9 C 1049.95 1272.93 1061.42 1261.96 1072.15 1250.93 z"/><path transform="translate(0,0)" fill="rgb(253,253,242)" d="M 1212.78 1229.9 C 1224.56 1241.4 1246.13 1262.51 1255.89 1275.2 C 1256.45 1348.23 1257.57 1421.24 1259.25 1494.25 C 1250.03 1504.13 1228.62 1523.18 1217.85 1532.29 C 1169.33 1531.71 1112.29 1527.77 1063.06 1525.79 C 1049.26 1512.83 1034.87 1499.88 1021.46 1486.6 L 1021.74 1277.5 C 1031.05 1269.15 1041.54 1256.92 1049.95 1250.01 C 1057.94 1250.08 1064.22 1250.24 1072.15 1250.93 C 1061.42 1261.96 1049.95 1272.93 1039.44 1283.9 C 1038.68 1294.11 1038.59 1301.08 1038.71 1311.3 C 1036.93 1352.86 1039.32 1395.88 1038.3 1437.59 C 1038.13 1444.55 1038.02 1452.82 1038.34 1459.74 L 1038.16 1479.5 C 1049.2 1489.72 1060.35 1499.81 1071.6 1509.78 C 1113.06 1510.15 1167.03 1512.91 1208.39 1515.99 C 1216.7 1510.19 1233.31 1494.74 1241.41 1487.56 L 1240.09 1386.01 C 1239.92 1364.33 1240.26 1341.23 1239.08 1319.69 L 1237.53 1319.96 C 1237.46 1307.95 1239 1285.97 1232.5 1277.26 L 1233.43 1275.54 C 1227.61 1267.05 1203.69 1246.28 1194.43 1234.63 L 1212.78 1229.9 z"/><path transform="translate(0,0)" fill="rgb(1,48,60)" d="M 1233.43 1275.54 C 1242.11 1284.86 1239.11 1305.78 1239.08 1319.69 L 1237.53 1319.96 C 1237.46 1307.95 1239 1285.97 1232.5 1277.26 L 1233.43 1275.54 z"/><path transform="translate(0,0)" fill="rgb(253,253,242)" d="M 1109.91 1295.64 C 1125.1 1295.37 1157.48 1295.18 1172.08 1296.56 L 1172.18 1392.6 C 1172.19 1412.22 1173.4 1451.65 1171.82 1469.88 C 1169.79 1471.83 1171.02 1471.09 1167.55 1471.26 C 1151.55 1469.93 1135.69 1469.97 1119.65 1469.92 C 1117.63 1469.62 1115.52 1469.22 1113.5 1468.88 C 1106.74 1460.75 1115.24 1318.76 1109.91 1295.64 z"/><path transform="translate(0,0)" fill="rgb(0,0,1)" d="M 1128.3 1311.97 C 1137.52 1312.16 1146.74 1312.51 1155.96 1313.01 L 1156 1453.89 C 1146.95 1452.82 1137.33 1452.38 1128.2 1451.8 C 1127.87 1405.44 1128.94 1358.04 1128.3 1311.97 z"/><path transform="translate(0,0)" fill="rgb(1,48,60)" d="M 1119.65 1469.92 C 1135.69 1469.97 1151.55 1469.93 1167.55 1471.26 L 1167.45 1472 C 1162.25 1475.67 1125.51 1474.4 1119.65 1469.92 z"/><path transform="translate(0,0)" fill="rgb(254,179,0)" d="M 1035.09 918.347 C 1033.25 867.199 1042.34 809.031 1099.24 797.122 C 1111.98 794.456 1121.75 800.708 1131.44 807.492 C 1128.41 819.011 1113.05 899.788 1113.57 906.269 C 1123.92 876.274 1136.28 856.109 1154.81 830.351 C 1160.24 822.813 1183.16 800.808 1190.88 799.729 L 1192.61 801.586 C 1196.67 818.906 1173.23 864.249 1165.85 881.268 C 1161.09 892.235 1140.97 952.174 1130.91 954.447 C 1124.77 951.806 1121.85 946.301 1118.17 940.789 C 1109.47 963.255 1103.39 985.982 1094.66 1007.72 C 1091.54 998.324 1089.9 992.199 1087.77 982.523 C 1069.26 1002.55 1047.53 1030.86 1022.05 1041.84 C 1005.88 1033.64 989.039 1018.71 974.755 1007.11 C 970.696 1003.81 965.272 991.148 960.63 989.19 C 957.441 992.841 955.462 1006.24 954.478 1011.39 C 952.182 1001.56 946.201 987.028 942.813 976.797 C 938.249 963.015 935.654 949.825 928.84 937.162 C 926.361 943.128 922.447 956.572 914.434 953.496 C 899.972 938.004 889.665 898.883 881.32 879.159 C 877.204 869.432 870.131 858.422 866.311 849.053 C 863.043 841.036 851.837 807.811 854.522 801.165 C 861.381 799.863 873.067 810.949 877.994 815.616 C 896.031 832.68 910.572 853.093 920.806 875.715 C 924.63 884.244 927.539 893.343 931.464 902.287 C 932.64 884.117 920.754 848.991 917.816 830.117 C 916.533 821.876 911.979 812.76 920.193 805.836 C 941.285 787.415 976.169 804.69 991.463 822.901 C 1015.25 851.218 1011.57 892.427 1014.12 927.097 C 1016.64 940.507 1019.85 953.776 1023.76 966.849 C 1030.36 951.711 1033.31 934.668 1035.09 918.347 z"/><path transform="translate(0,0)" fill="rgb(212,108,0)" d="M 931.464 902.287 C 932.64 884.117 920.754 848.991 917.816 830.117 C 916.533 821.876 911.979 812.76 920.193 805.836 C 941.285 787.415 976.169 804.69 991.463 822.901 C 1015.25 851.218 1011.57 892.427 1014.12 927.097 C 991.289 920.36 980.352 928.053 970.601 949.66 C 967.27 957.041 965.669 965.301 961.875 972.336 C 963.203 955.539 974.047 907.41 959.358 895.085 L 957.552 895.304 C 945.823 907.419 947.609 946.659 946.312 963.071 L 946.214 964.216 C 943.15 943.76 938.301 921.809 931.464 902.287 z"/><path transform="translate(0,0)" fill="rgb(212,108,0)" d="M 1035.09 918.347 C 1033.25 867.199 1042.34 809.031 1099.24 797.122 C 1111.98 794.456 1121.75 800.708 1131.44 807.492 C 1128.41 819.011 1113.05 899.788 1113.57 906.269 C 1108.84 926.471 1104.69 936.251 1101.42 958.677 C 1100.75 946.933 1101.36 900.428 1090.6 894.66 C 1083.93 897.667 1083.81 916.816 1083.3 923.717 C 1081.97 941.904 1082.01 956.565 1077.64 974.491 C 1077.48 958.782 1072.36 942.19 1061.12 930.783 C 1052.81 922.352 1045.92 920.81 1035.09 918.347 z"/><path transform="translate(0,0)" fill="rgb(254,228,138)" d="M 1012.1 972.073 C 1022.23 971.929 1044.4 978.386 1045.46 989.654 C 1042.6 996.3 1034.98 1002.36 1029.51 1007.27 C 1027.29 1008.69 1023.93 1010.93 1021.41 1009.79 C 1003.06 1001.51 990.288 985.058 1012.1 972.073 z"/><path transform="translate(0,0)" fill="rgb(254,179,0)" d="M 1249.88 1064.19 C 1252.1 1067.17 1251.66 1065.58 1251.62 1068.99 C 1250.28 1071.08 1248.72 1072.95 1248.27 1075.21 C 1241.7 1081.12 1240.56 1083.04 1237.63 1091.41 C 1229.41 1138.29 1218.58 1169.29 1177.86 1197.62 C 1169.6 1203.38 1160.87 1208.46 1151.78 1212.81 C 1158.53 1192.43 1171.65 1156.81 1175.64 1137.3 C 1148.83 1177.56 1122.41 1197.62 1074.07 1208.56 C 1023.96 1219.9 966.871 1215.91 922.672 1188.02 C 906.584 1177.87 878.18 1152.37 867.684 1135.78 C 872.072 1157.88 884.388 1184.98 892.03 1207.72 C 837.45 1186.7 834.486 1145.1 821.328 1095.37 C 820.984 1093.91 819.242 1089.45 818.643 1087.82 C 823.262 1088.05 824.351 1087.81 829 1087.05 C 834.74 1090.58 843.425 1094.35 847.2 1096.8 C 854.62 1094.8 862.163 1088.54 869.923 1085.12 C 876.736 1092.03 882.945 1098.04 891.919 1102.61 C 921.354 1117.58 971.154 1119.91 1004.58 1120.2 C 1050.6 1120.59 1108.68 1122.26 1151.61 1104.68 C 1159.21 1101.57 1170.34 1090.95 1176.06 1085.49 C 1183.14 1088.66 1188.18 1091.73 1194.8 1094.96 L 1191.28 1108.24 C 1206.2 1108.12 1239.24 1075.61 1249.88 1064.19 z"/><path transform="translate(0,0)" fill="rgb(254,228,138)" d="M 847.2 1096.8 C 854.62 1094.8 862.163 1088.54 869.923 1085.12 C 876.736 1092.03 882.945 1098.04 891.919 1102.61 C 921.354 1117.58 971.154 1119.91 1004.58 1120.2 C 1050.6 1120.59 1108.68 1122.26 1151.61 1104.68 C 1159.21 1101.57 1170.34 1090.95 1176.06 1085.49 C 1183.14 1088.66 1188.18 1091.73 1194.8 1094.96 L 1191.28 1108.24 L 1189.46 1113.15 C 1169.56 1117.65 1152.37 1127.07 1133.23 1133.35 C 1112.81 1140.05 1091.16 1143.6 1070.59 1150.16 C 1058.37 1154.05 1046.13 1160.52 1033.28 1161.91 C 1010.71 1164.35 910.246 1131.21 886.294 1121.33 C 872.386 1115.59 856.995 1109.03 845.07 1099.84 L 847.2 1096.8 z"/><path transform="translate(0,0)" fill="rgb(251,210,77)" d="M 1249.88 1064.19 C 1252.1 1067.17 1251.66 1065.58 1251.62 1068.99 C 1250.28 1071.08 1248.72 1072.95 1248.27 1075.21 C 1241.7 1081.12 1240.56 1083.04 1237.63 1091.41 C 1233.15 1092.75 1229.65 1096.61 1225.96 1099.37 C 1220.97 1103.11 1194.14 1112.88 1189.46 1113.15 L 1191.28 1108.24 C 1206.2 1108.12 1239.24 1075.61 1249.88 1064.19 z"/><path transform="translate(0,0)" fill="rgb(254,179,0)" d="M 818.643 1087.82 C 823.262 1088.05 824.351 1087.81 829 1087.05 C 834.74 1090.58 843.425 1094.35 847.2 1096.8 L 845.07 1099.84 C 835.855 1101.63 831.382 1090.93 822.807 1092.06 L 821.328 1095.37 C 820.984 1093.91 819.242 1089.45 818.643 1087.82 z"/><path transform="translate(0,0)" fill="rgb(0,0,1)" d="M 1114.86 1162.21 L 1115.54 1163.34 C 1093.27 1180.29 1061.58 1200.45 1033.94 1206.48 C 1012.26 1211.22 973.054 1190.04 955.556 1177.67 C 948.604 1173.02 941.751 1168.22 935.002 1163.28 C 999.304 1183.32 1051.32 1183.49 1114.86 1162.21 z"/><path transform="translate(0,0)" fill="rgb(0,120,134)" d="M 1317.61 509.816 C 1321.45 501.23 1338.76 486.132 1346.96 480.932 C 1398.38 448.347 1490.15 478.464 1519.93 528.753 C 1522.95 532.206 1523.4 533.364 1525.56 537.524 C 1531.03 544.058 1535.39 563.779 1537.4 572.085 C 1538.73 580.499 1542.51 599.899 1539.18 607.592 L 1537.48 608.31 C 1531.74 603.052 1529.48 590.459 1523.48 584.486 C 1501.7 562.801 1463.48 535.846 1431.97 537.198 C 1426.27 537.393 1420.64 538.578 1415.35 540.702 C 1404.99 544.805 1395.52 553.536 1386.16 557.732 C 1363.35 567.661 1352.17 589.214 1332.92 603.387 C 1319.06 613.599 1294.78 623.166 1277.72 624.653 C 1255.72 626.572 1218.39 610.15 1204.54 593.01 C 1207.15 589.099 1211.63 589.128 1213.15 585.707 C 1209.12 583.381 1207.65 582.987 1205.24 579.22 L 1215.39 583.501 C 1221.12 571.627 1219.32 567.367 1219.44 554.119 C 1222.77 546.387 1221.68 505.127 1218.21 493.977 L 1212.18 485.235 C 1206.74 480.252 1204.14 475.242 1200.66 468.92 C 1208.96 472.469 1233.52 482.483 1239.38 486.676 C 1264.16 498.112 1289.93 521.687 1299.44 547.757 C 1302.03 552.463 1302.29 555.917 1306 561.659 C 1302.6 537.098 1292.85 516.629 1274.55 500.15 C 1282.87 500.139 1291.19 500.034 1299.51 499.836 L 1316.19 510.435 L 1317.61 509.816 z"/><path transform="translate(0,0)" fill="rgb(0,69,79)" d="M 1218.21 493.977 C 1220.81 494.762 1223.77 495.241 1224.77 498.137 C 1231.87 518.735 1242.28 536.077 1252.54 555.005 C 1256.52 562.345 1257.98 573.022 1262.57 580.886 C 1269.15 582.111 1279.04 582.769 1284.03 585.976 C 1316.55 581.65 1333.26 576.507 1354.69 552.086 C 1366.16 539.01 1385.11 522.782 1400.81 515.738 C 1441.88 497.318 1484.87 519.849 1514.19 549.026 C 1519.73 554.468 1531.27 570.631 1537.4 572.085 C 1538.73 580.499 1542.51 599.899 1539.18 607.592 L 1537.48 608.31 C 1531.74 603.052 1529.48 590.459 1523.48 584.486 C 1501.7 562.801 1463.48 535.846 1431.97 537.198 C 1426.27 537.393 1420.64 538.578 1415.35 540.702 C 1404.99 544.805 1395.52 553.536 1386.16 557.732 C 1363.35 567.661 1352.17 589.214 1332.92 603.387 C 1319.06 613.599 1294.78 623.166 1277.72 624.653 C 1255.72 626.572 1218.39 610.15 1204.54 593.01 C 1207.15 589.099 1211.63 589.128 1213.15 585.707 C 1209.12 583.381 1207.65 582.987 1205.24 579.22 L 1215.39 583.501 C 1221.12 571.627 1219.32 567.367 1219.44 554.119 C 1222.77 546.387 1221.68 505.127 1218.21 493.977 z"/><path transform="translate(0,0)" fill="rgb(0,91,104)" d="M 1262.57 580.886 C 1269.15 582.111 1279.04 582.769 1284.03 585.976 C 1273.27 588.777 1268.01 591.45 1262.57 580.886 z"/><path transform="translate(0,0)" fill="rgb(254,254,253)" d="M 1317.61 509.816 C 1321.45 501.23 1338.76 486.132 1346.96 480.932 C 1398.38 448.347 1490.15 478.464 1519.93 528.753 L 1515.64 528.692 C 1484.56 497.924 1442.73 480.455 1399 479.983 C 1368.25 479.796 1344.8 484.964 1322.08 506.77 C 1319.69 509.062 1320.8 508.843 1317.61 509.816 z"/><path transform="translate(0,0)" fill="rgb(254,254,253)" d="M 1239.38 486.676 C 1264.16 498.112 1289.93 521.687 1299.44 547.757 L 1299.11 547.974 C 1296.77 548.032 1297.82 548.391 1295.84 545.789 C 1280.84 526.087 1266.68 510.193 1247.17 494.547 C 1244.48 491.694 1240.6 490.471 1239.38 486.676 z"/><path transform="translate(0,0)" fill="rgb(0,69,79)" d="M 1200.66 468.92 C 1208.96 472.469 1233.52 482.483 1239.38 486.676 C 1240.6 490.471 1244.48 491.694 1247.17 494.547 L 1246.91 496.438 C 1243.95 493.979 1241.03 491.477 1238.14 488.93 C 1232.16 487.751 1233.86 492.472 1230.93 491.681 C 1224.14 489.843 1220.33 483.726 1212.18 485.235 C 1206.74 480.252 1204.14 475.242 1200.66 468.92 z"/><path transform="translate(0,0)" fill="rgb(226,238,233)" d="M 1519.93 528.753 C 1522.95 532.206 1523.4 533.364 1525.56 537.524 C 1521.88 536.283 1518.43 531.735 1515.64 528.692 L 1519.93 528.753 z"/><path transform="translate(0,0)" fill="rgb(254,179,0)" d="M 524.665 724.151 C 539.669 742.068 558.734 759.29 576.828 774.097 C 584.092 780.04 592.814 785.616 600.411 791.623 C 608.467 797.295 616.434 803.25 624.348 809.117 C 658.384 834.349 695.773 857.365 720.234 892.923 C 732.131 910.215 741.471 929.943 750.891 948.725 C 756.702 958.763 782.792 1010.38 785.168 1020.23 C 780.522 1019.05 778.287 1018.68 774.021 1016.45 L 773.694 1017.48 C 778.989 1024.48 783.001 1027.55 788.294 1035.68 C 796.52 1048.32 797.93 1057.75 808.944 1068.34 L 807.597 1075.14 C 814.044 1095.51 819.832 1116.07 826.279 1136.5 C 768.616 1100.22 753.304 1037.68 738.364 976.818 C 745.457 981.456 753.264 986.119 760.501 990.628 C 749.26 976.39 733.166 959.137 720.931 945.24 C 724.668 952.762 730.572 964.68 732.51 973.029 C 737.041 992.545 739.236 1011.44 745.566 1030.7 C 726.049 1014.36 711.062 1000.77 703.512 975.99 C 701.704 970.055 696.908 944.667 693.124 942.267 C 691.531 946.271 691.926 952.338 691.875 956.868 C 668.867 946.87 663.18 942.37 644.985 925.204 C 656.333 945.946 670.894 955.029 690.189 966.925 C 672.352 965.718 662.901 966.573 645.576 961.033 C 599.313 946.237 579.455 921.137 565.07 876.352 C 580.819 879.879 596.95 883.294 612.477 887.585 C 604.237 862.345 592.375 838.436 577.261 816.607 C 581.98 831.346 587.701 845.552 592.47 860.279 C 544.066 824.962 530.29 781.914 524.665 724.151 z"/><path transform="translate(0,0)" fill="rgb(254,228,138)" d="M 745.512 957.941 C 737.912 950.243 732.221 935.075 726.677 925.386 C 709.553 895.461 690.502 874.661 663.575 853.39 C 648.892 841.792 596.627 806.722 592.635 791.166 L 594.008 790.368 C 596.111 791.111 596.553 791.243 598.706 791.461 L 600.411 791.623 C 608.467 797.295 616.434 803.25 624.348 809.117 C 658.384 834.349 695.773 857.365 720.234 892.923 C 732.131 910.215 741.471 929.943 750.891 948.725 C 749.075 951.784 747.282 954.856 745.512 957.941 z"/><path transform="translate(0,0)" fill="rgb(0,0,1)" d="M 635.773 885.221 C 649.31 887.752 651.488 898.433 637.832 904.416 C 636.782 904.309 636.02 904.265 634.963 903.988 C 632.039 903.227 629.533 901.343 627.99 898.746 C 623.59 891.178 629.296 887.21 635.773 885.221 z"/><path transform="translate(0,0)" fill="rgb(254,179,0)" d="M 1453.57 785.103 C 1478.38 765.369 1500.67 747.856 1521.37 723.715 C 1520.5 773.384 1504.9 815.675 1468.96 850.367 C 1461.7 857.337 1453.99 863.826 1445.88 869.793 C 1451.01 854.245 1457.02 834.521 1463.16 819.523 C 1445.18 842.852 1439.9 857.334 1431.29 885.676 C 1448.16 882.705 1464.98 879.414 1481.72 875.804 C 1473.29 902.999 1466.59 919.734 1444.32 938.791 C 1416.57 962.531 1392.08 964.47 1357.74 966.865 C 1384 951.343 1390.97 946.854 1408.34 921.844 C 1388.18 939.745 1381.74 945.948 1355.73 954.979 C 1355.59 945.99 1355.61 936.999 1355.81 928.011 C 1341.54 962.603 1348.98 999.616 1309.59 1021.53 C 1312.52 1006.27 1314.65 990.809 1317.81 975.764 C 1319.65 966.995 1324.98 955.598 1327.72 946.896 C 1320.05 955.327 1313.7 964.338 1306.52 973.191 C 1300.66 980.415 1293.36 986.981 1287.65 993.89 C 1296.64 988.987 1303.65 983.447 1311.84 978.846 C 1300.67 1036.11 1286.69 1096.99 1235.52 1133.8 C 1236.77 1122.11 1241.06 1108.91 1243.53 1097.2 C 1244.7 1091.66 1246.49 1079.92 1248.27 1075.21 C 1248.72 1072.95 1250.28 1071.08 1251.62 1068.99 C 1251.66 1065.58 1252.1 1067.17 1249.88 1064.19 C 1254.2 1057.08 1257.35 1045.81 1260.77 1037.83 C 1264.12 1029.99 1266.85 1025.48 1271.39 1018.11 L 1260.02 1022.38 C 1280.51 996.541 1278.53 981.954 1293.16 955.891 C 1334.59 863.728 1375.77 842.901 1453.57 785.103 z"/><path transform="translate(0,0)" fill="rgb(254,228,138)" d="M 1293.16 955.891 C 1334.59 863.728 1375.77 842.901 1453.57 785.103 C 1441.75 814.743 1424.97 822.359 1400.44 840.716 C 1386.42 851.012 1373.15 862.297 1360.74 874.485 C 1340.87 894.152 1320.75 924.955 1307.47 949.771 L 1310.02 952.73 L 1309.5 954.759 C 1306.58 956.414 1296.09 957.478 1293.16 955.891 z"/><path transform="translate(0,0)" fill="rgb(0,0,1)" d="M 1403.82 886.075 C 1419.16 884.54 1427.23 892.564 1413.99 905.174 C 1404.5 907.638 1390.68 896.085 1403.82 886.075 z"/><path transform="translate(0,0)" fill="url(#Gradient12)" d="M 908.657 281.975 C 932.873 273.928 970.706 270.909 995.955 276.955 C 1004.48 278.996 1013.34 283.424 1021.83 286.47 C 1029.83 282.766 1038.7 279.321 1047.2 277.032 C 1062.49 272.915 1111.8 271.743 1124.36 281.027 L 1121.19 281.998 C 1111.49 287.074 1096.63 294.152 1086.34 297.894 C 1072.99 302.749 1059.91 304.75 1047.01 312.093 C 1050.15 318.513 1071.33 311.148 1075.11 317.142 C 1072.64 321.322 1069.62 322.405 1066.33 325.577 C 1068.32 325.303 1069.98 325.054 1071.95 324.662 C 1071.5 329.146 1058.6 340.551 1054.98 343.504 C 1054.04 344.269 1053.08 345.011 1052.11 345.728 C 1047.62 349.688 1045.33 352.215 1041.44 356.604 C 1042.81 355.66 1053.52 348.214 1054.19 347.924 C 1059.54 343.088 1065.18 338.584 1071.08 334.437 C 1084.92 324.835 1102.32 315.367 1117.03 307.241 C 1124.11 303.329 1162.69 288.044 1169.58 289.299 L 1170.29 291.885 L 1171.98 292.596 C 1176.38 291.795 1176.35 290.999 1179.43 292.606 C 1177.7 304.324 1143.88 341.205 1149.8 356.739 L 1149.65 358.165 C 1146.59 360.234 1146.33 360.1 1144.68 363.525 C 1144.73 365.922 1144.49 365.557 1145.23 367.716 C 1144.83 368.961 1142.77 374.869 1143.88 375.823 C 1152.84 383.504 1161.21 391.606 1169.49 399.999 C 1204.36 387.749 1206.34 356.608 1223.12 347.027 C 1225.22 345.069 1227.31 343.454 1229.55 341.672 L 1231.03 342.898 C 1250.51 332.224 1287.85 309.852 1309.66 316.55 C 1315.55 318.361 1327.27 323.201 1332.09 327.376 L 1332.65 328.972 L 1332.18 329.406 C 1329.97 328.655 1322.19 325.999 1320.4 325.842 C 1303.49 324.358 1270.17 334.058 1255.55 341.893 C 1223.4 359.115 1211.45 407.306 1169.75 415.326 C 1155.22 418.123 1147.46 412.83 1134.81 412.068 C 1126.04 411.539 1107.08 415.069 1097.75 416.551 C 1105.45 405.417 1126.46 364.384 1119.89 352.064 C 1114.9 351.551 1102.46 363.267 1097.33 366.66 L 1098.23 364.139 L 1097.56 362.948 C 1091.36 362.489 1072.18 372.488 1065.15 375.795 C 1008.05 402.656 964.466 371.951 916.03 343.665 C 906.166 337.904 897.731 319.117 891.692 318.699 L 889.978 321.121 C 887.703 315.182 874.935 293.755 875.214 289.93 L 877.182 290.258 C 917.774 307.72 941.966 313.308 978.505 344.665 C 979.536 345.18 987.907 350.971 990 352.269 C 980.966 342.873 974.513 335.396 966.503 325.126 C 963.94 322.538 961.19 319.137 958.777 316.325 C 967.313 314.546 972.216 313.545 981.105 314.57 L 1003.62 316.617 C 1003.37 316.415 1003.12 316.212 1002.87 316.009 L 1001.61 315.021 C 987.517 303.888 967.4 301.384 950.793 295.634 C 942.052 292.608 934.023 288.706 925.014 285.727 L 923.747 285.317 L 923.342 284.389 L 927.171 281.655 C 920.237 282.079 915.588 282.199 908.657 281.975 z"/><path transform="translate(0,0)" fill="rgb(254,254,253)" d="M 908.657 281.975 C 932.873 273.928 970.706 270.909 995.955 276.955 C 1004.48 278.996 1013.34 283.424 1021.83 286.47 C 1029.83 282.766 1038.7 279.321 1047.2 277.032 C 1062.49 272.915 1111.8 271.743 1124.36 281.027 L 1121.19 281.998 C 1105.1 281.295 1074.87 280.195 1061.03 284.656 C 1026.01 295.943 1017.36 295.56 983.117 284.552 C 971.952 280.964 940.551 280.774 927.171 281.655 C 920.237 282.079 915.588 282.199 908.657 281.975 z"/><path transform="translate(0,0)" fill="rgb(254,254,253)" d="M 1054.19 347.924 C 1059.54 343.088 1065.18 338.584 1071.08 334.437 C 1084.92 324.835 1102.32 315.367 1117.03 307.241 C 1124.11 303.329 1162.69 288.044 1169.58 289.299 L 1170.29 291.885 C 1144.76 307.597 1109.31 314.824 1084.04 332.731 C 1078.34 336.773 1060.57 348.427 1054.19 347.924 z"/><path transform="translate(0,0)" fill="rgb(254,254,253)" d="M 877.182 290.258 C 917.774 307.72 941.966 313.308 978.505 344.665 C 975.688 345.798 909.132 303.549 895.343 304.257 C 889.492 304.557 880.286 296.988 877.182 290.258 z"/><path transform="translate(0,0)" fill="rgb(0,69,79)" d="M 1066.33 325.577 C 1068.32 325.303 1069.98 325.054 1071.95 324.662 C 1071.5 329.146 1058.6 340.551 1054.98 343.504 C 1054.04 344.269 1053.08 345.011 1052.11 345.728 C 1052.5 337.018 1059.87 330.616 1066.33 325.577 z"/><path transform="translate(0,0)" fill="rgb(0,91,104)" d="M 958.777 316.325 C 967.313 314.546 972.216 313.545 981.105 314.57 C 973.579 320.415 969.865 319.533 966.144 322.32 L 966.503 325.126 C 963.94 322.538 961.19 319.137 958.777 316.325 z"/><path transform="translate(0,0)" fill="rgb(1,48,60)" d="M 1229.55 341.672 L 1231.03 342.898 C 1227.7 346.079 1227.93 346.901 1223.12 347.027 C 1225.22 345.069 1227.31 343.454 1229.55 341.672 z"/><path transform="translate(0,0)" fill="rgb(254,179,0)" d="M 1081.03 1607.46 C 1092.97 1602.08 1113.29 1596.87 1126.31 1593.49 C 1203.05 1573.59 1274.55 1574.69 1352.43 1584.59 L 1339.06 1588.22 L 1342.97 1590.22 C 1281.74 1596.48 1221.07 1607.43 1161.51 1622.96 C 1142.45 1627.93 1125.2 1634.24 1106.74 1639.33 C 1082.12 1648.59 1051.16 1660.71 1028.68 1674.04 C 1010.29 1663.95 994.889 1658.07 975.233 1650.76 C 969.884 1648.76 957.852 1644.63 953.056 1642.39 C 925.307 1634.58 898.443 1625.44 870.193 1618.97 C 826.021 1608.85 781.964 1598.1 737.019 1591.88 C 737.371 1590.44 739.039 1589.05 739.916 1586.89 C 742.497 1586.85 748.473 1586.93 750.763 1586.64 C 746.4 1584.02 733.629 1587.76 725.661 1583.84 C 772.102 1575.52 860.773 1575.67 904.817 1592.68 C 936.201 1597.76 995.458 1616.33 1026.73 1626.1 C 1039.94 1621.36 1068.76 1609.8 1081.03 1607.46 z"/><path transform="translate(0,0)" fill="rgb(254,254,253)" d="M 739.916 1586.89 C 742.497 1586.85 748.473 1586.93 750.763 1586.64 C 757.142 1587.28 763.356 1587.56 769.68 1588.09 C 819.239 1592.28 868.993 1602.92 915.272 1621.3 C 926.444 1625.73 944.55 1633.59 953.056 1642.39 C 925.307 1634.58 898.443 1625.44 870.193 1618.97 C 826.021 1608.85 781.964 1598.1 737.019 1591.88 C 737.371 1590.44 739.039 1589.05 739.916 1586.89 z"/><path transform="translate(0,0)" fill="rgb(254,254,253)" d="M 1106.74 1639.33 C 1111.9 1633.58 1124.42 1627.41 1131.59 1624.38 C 1185.19 1601.71 1245.23 1587.34 1303.62 1588.01 C 1315.43 1588.15 1327.25 1588.14 1339.06 1588.22 L 1342.97 1590.22 C 1281.74 1596.48 1221.07 1607.43 1161.51 1622.96 C 1142.45 1627.93 1125.2 1634.24 1106.74 1639.33 z"/><path transform="translate(0,0)" fill="rgb(254,254,253)" d="M 904.817 1592.68 C 936.201 1597.76 995.458 1616.33 1026.73 1626.1 C 1039.94 1621.36 1068.76 1609.8 1081.03 1607.46 C 1073.76 1615.07 1027.5 1634.09 1016.01 1638.03 C 982.775 1630.87 932.321 1611.61 904.817 1592.68 z"/><path transform="translate(0,0)" fill="rgb(0,120,134)" d="M 769.1 278.931 C 770.935 276.64 770.182 276.679 773.703 276.459 C 805.921 274.44 846.544 291.896 870.924 311.261 C 856.439 310.118 845.936 309.821 831.226 309.976 C 833.355 313.143 834.023 312.674 838.024 314.663 C 860.328 314.959 889.458 340.738 901.663 357.783 L 902.296 359.396 C 909.521 356.272 892.598 327.014 889.978 321.121 L 891.692 318.699 C 897.731 319.117 906.166 337.904 916.03 343.665 C 964.466 371.951 1008.05 402.656 1065.15 375.795 C 1072.18 372.488 1091.36 362.489 1097.56 362.948 L 1098.23 364.139 L 1097.33 366.66 C 1082.58 378.216 1057.17 396.525 1039.8 402.367 C 1015.11 410.666 982.648 400.616 962.514 385.395 C 950.459 376.281 939.435 364.007 925.817 357.047 L 924.483 356.373 C 928.252 384.476 934.126 394.029 945.757 418.614 C 917.107 405.644 914.708 412.523 887.479 415.909 C 849.271 420.661 828.931 364.53 804.608 345.332 C 781.357 326.981 755.142 324.499 726.59 327.309 C 763.471 295.91 794.679 332.98 807.01 329.959 L 807.627 328.221 L 805.702 324.933 C 804.497 323.176 803.085 321.23 801.584 319.713 C 792.13 310.138 779.714 304.044 766.356 302.423 C 717.2 296.414 693.465 340.089 678.67 339.999 C 677.481 335.422 683.238 324.916 686.573 321.621 C 688.319 318.536 691.4 313.884 693.574 311.053 C 706.742 293.841 726.271 282.64 747.776 279.963 C 755.493 277.372 764.665 282.297 769.1 278.931 z"/><path transform="translate(0,0)" fill="rgb(0,91,104)" d="M 726.59 327.309 C 763.471 295.91 794.679 332.98 807.01 329.959 L 807.627 328.221 L 805.702 324.933 L 807.52 321.983 C 816.675 325.011 839.804 361.294 848.826 371.152 C 857.418 380.539 868.268 384.987 871.797 388.584 C 870.43 390.426 871.235 389.624 869.021 390.636 C 877.338 404.565 905.72 400.407 910.031 389.07 C 908.904 385.345 909.099 386.395 905.816 383.353 C 904.961 375.924 904.347 366.34 902.296 359.396 C 909.521 356.272 892.598 327.014 889.978 321.121 L 891.692 318.699 C 897.731 319.117 906.166 337.904 916.03 343.665 C 964.466 371.951 1008.05 402.656 1065.15 375.795 C 1072.18 372.488 1091.36 362.489 1097.56 362.948 L 1098.23 364.139 L 1097.33 366.66 C 1082.58 378.216 1057.17 396.525 1039.8 402.367 C 1015.11 410.666 982.648 400.616 962.514 385.395 C 950.459 376.281 939.435 364.007 925.817 357.047 L 924.483 356.373 C 928.252 384.476 934.126 394.029 945.757 418.614 C 917.107 405.644 914.708 412.523 887.479 415.909 C 849.271 420.661 828.931 364.53 804.608 345.332 C 781.357 326.981 755.142 324.499 726.59 327.309 z"/><path transform="translate(0,0)" fill="rgb(254,254,253)" d="M 769.1 278.931 C 770.935 276.64 770.182 276.679 773.703 276.459 C 805.921 274.44 846.544 291.896 870.924 311.261 C 856.439 310.118 845.936 309.821 831.226 309.976 C 822.888 299.294 783.219 283.323 769.1 278.931 z"/><path transform="translate(0,0)" fill="rgb(254,254,253)" d="M 838.024 314.663 C 860.328 314.959 889.458 340.738 901.663 357.783 C 898.889 362.058 888.359 360.367 883.619 360.128 C 870.104 348.74 850.257 327.841 838.024 314.663 z"/><path transform="translate(0,0)" fill="rgb(254,254,253)" d="M 747.776 279.963 L 746.571 280.645 C 734.677 287.247 718.218 290.956 706.189 302.328 C 702.679 305.647 688.722 322.036 686.707 321.747 L 686.573 321.621 C 688.319 318.536 691.4 313.884 693.574 311.053 C 706.742 293.841 726.271 282.64 747.776 279.963 z"/><path transform="translate(0,0)" fill="rgb(0,91,104)" d="M 1533.46 855.992 L 1534.67 856.309 C 1535.87 862.498 1524.96 904.026 1523 913.537 C 1504.81 1002.09 1431.44 1029.73 1351.98 1042.34 L 1350.81 1041.86 C 1349.9 1037.87 1358.28 1021.63 1360.27 1016.31 C 1369.48 991.707 1371.84 986.017 1397.65 980.175 C 1436.24 971.441 1471.92 944.288 1487 907.18 C 1491.23 896.729 1493.74 885.762 1496.96 875.313 C 1504.98 870.291 1522.27 862.589 1533.46 855.992 z"/><path transform="translate(0,0)" fill="url(#Gradient11)" d="M 511.325 856.269 C 514.245 857.447 520.036 860.864 523.49 862.534 C 531.649 866.477 541.717 869.559 548.973 874.431 C 553.432 886.777 558.018 899.355 562.878 910.872 C 581.752 955.597 625.831 975.149 669.807 987.214 C 683.209 990.891 698.169 1030.94 704.037 1044.6 C 607.86 1028.16 532.282 992.271 520.019 889.769 C 518.709 878.811 510.22 870.504 511.325 856.269 z"/><path transform="translate(0,0)" fill="url(#Gradient10)" d="M 622.134 761.59 C 597.854 746.525 560.302 716.401 544.464 692.876 C 535.457 679.031 537.314 665.241 540.188 649.596 C 545.423 621.098 575.487 594.118 605.265 599.762 C 608.347 600.346 619.251 606.73 620.994 609.656 C 618.429 617.463 614.369 625.833 612.688 633.387 C 607.723 658.133 605.371 670.141 605.774 695.436 C 606.404 704.816 607.934 712.903 609.539 722.124 C 613.411 732.469 618.368 750.264 622.134 761.59 z"/><path transform="translate(0,0)" fill="rgb(254,228,138)" d="M 570.009 675.387 C 573.856 668.498 576.089 665.552 582.247 660.698 C 591.726 670.701 604.007 681.946 605.774 695.436 C 606.404 704.816 607.934 712.903 609.539 722.124 C 609.225 721.997 608.911 721.869 608.596 721.742 C 589.9 708.728 578.091 695.715 570.009 675.387 z"/><path transform="translate(0,0)" fill="rgb(212,108,0)" d="M 606.492 624.813 C 587.429 623.444 572.636 624.569 560.539 641.053 C 556.214 646.948 553 654.348 548.757 659.598 L 547.759 659.357 C 552.24 650.58 561.09 638.089 567.552 630.154 C 568.161 629.406 576.541 626.52 578.218 625.952 C 580.016 623.659 582.074 618.579 583.353 615.756 C 581.14 615.298 579.673 614.902 577.503 614.258 C 576.588 611.106 576.659 612.794 578.389 609.044 C 586.298 603.655 598.476 600.109 607.528 604.566 L 607.904 606.443 L 605.676 606.407 C 602.304 610.752 604.741 616.697 600.511 622.645 C 603.782 624.054 608.937 624.048 612.647 624.296 L 606.492 624.813 z"/><path transform="translate(0,0)" fill="rgb(223,124,0)" d="M 612.647 624.296 C 615.498 623.181 616.033 612.761 620.994 609.656 C 618.429 617.463 614.369 625.833 612.688 633.387 C 609.588 634.456 610.742 634.544 607.852 634.05 C 605.766 630.652 606.558 629.554 606.492 624.813 L 612.647 624.296 z"/><path transform="translate(0,0)" fill="rgb(254,179,0)" d="M 1423.64 607.075 C 1431.99 601.856 1438.98 598.298 1447.7 593.863 C 1471.04 603.517 1493.14 611.217 1503.5 636.43 C 1507.69 646.638 1511.72 668.196 1507.4 678.134 C 1498.51 703.834 1446.11 748.474 1422.78 762.51 C 1430.03 746.182 1435.45 731.224 1439.64 713.723 C 1441.97 702.743 1443.59 697.825 1447.5 687.299 L 1443.33 691.859 L 1442.22 691.453 L 1437.67 651.782 C 1433 633.952 1432.89 623.52 1423.64 607.075 z"/><path transform="translate(0,0)" fill="rgb(212,108,0)" d="M 1423.64 607.075 C 1431.99 601.856 1438.98 598.298 1447.7 593.863 C 1471.04 603.517 1493.14 611.217 1503.5 636.43 C 1507.69 646.638 1511.72 668.196 1507.4 678.134 C 1506.77 678.245 1504.29 679.288 1503.59 679.564 C 1501.41 676.778 1498.47 665.899 1496.86 662.024 C 1487.64 639.781 1473.44 616.523 1446.04 628.139 C 1446.08 636.901 1446.64 647.514 1444.39 655.769 C 1441.61 653.422 1441.08 652.933 1437.67 651.782 C 1433 633.952 1432.89 623.52 1423.64 607.075 z"/><path transform="translate(0,0)" fill="rgb(254,228,138)" d="M 1447.5 687.299 C 1453.06 678.571 1455.01 667.615 1466.35 664.364 C 1473.64 662.27 1477.11 668.398 1477.44 674.715 C 1478.13 687.909 1468.04 700.394 1457.16 706.73 C 1452.33 709.545 1445.16 712.616 1439.64 713.723 C 1441.97 702.743 1443.59 697.825 1447.5 687.299 z"/><path transform="translate(0,0)" fill="rgb(0,120,134)" d="M 1268.05 286.455 C 1275.65 288.898 1311.61 274.537 1323.79 286.611 C 1343.86 294.123 1364.79 314.179 1373.46 333.634 C 1375.27 336.401 1376.13 339.343 1374.03 342.305 C 1370.96 342.687 1369.03 341.565 1366.55 339.428 C 1342.41 318.582 1328.87 298.137 1293.09 301.961 C 1269.06 304.531 1246.47 325.127 1229.55 341.672 C 1227.31 343.454 1225.22 345.069 1223.12 347.027 C 1206.34 356.608 1204.36 387.749 1169.49 399.999 C 1161.21 391.606 1152.84 383.504 1143.88 375.823 C 1142.77 374.869 1144.83 368.961 1145.23 367.716 C 1144.49 365.557 1144.73 365.922 1144.68 363.525 C 1146.33 360.1 1146.59 360.234 1149.65 358.165 L 1149.8 356.739 C 1172.14 327.886 1189.31 316.882 1223.81 311.61 C 1226.84 310.192 1229.04 309.625 1230.73 306.826 C 1235.88 300.429 1259.71 288.4 1268.05 286.455 z"/><path transform="translate(0,0)" fill="rgb(254,254,253)" d="M 1223.81 311.61 C 1223.01 314.763 1184.87 347 1178.88 354.154 C 1170.68 359.671 1158.88 364.809 1149.65 358.165 L 1149.8 356.739 C 1172.14 327.886 1189.31 316.882 1223.81 311.61 z"/><path transform="translate(0,0)" fill="rgb(0,91,104)" d="M 1178.88 354.154 C 1177.16 360.098 1157.63 369.483 1151.3 368.569 C 1151.01 368.527 1148.74 367.431 1148.51 367.332 L 1145.23 367.716 C 1144.49 365.557 1144.73 365.922 1144.68 363.525 C 1146.33 360.1 1146.59 360.234 1149.65 358.165 C 1158.88 364.809 1170.68 359.671 1178.88 354.154 z"/><path transform="translate(0,0)" fill="rgb(226,238,233)" d="M 1323.79 286.611 C 1343.86 294.123 1364.79 314.179 1373.46 333.634 L 1372.47 334.033 C 1356.22 312.117 1346.98 300.984 1322.95 287.52 L 1323.79 286.611 z"/><path transform="translate(0,0)" fill="rgb(254,254,253)" d="M 1169.16 1039.45 C 1165.16 1018.89 1172.84 990.74 1176.64 970.1 C 1179.68 953.624 1180.27 925.475 1187.2 910.889 L 1188.74 910.71 C 1197.73 915.098 1212.2 949.181 1215.55 958.891 C 1223.48 981.948 1230.52 1008.66 1232.49 1032.99 C 1231.95 1072.59 1179.17 1094.32 1169.16 1039.45 z"/><path transform="translate(0,0)" fill="rgb(253,253,242)" d="M 1232.49 1032.99 C 1231.95 1072.59 1179.17 1094.32 1169.16 1039.45 C 1173.37 1039.41 1174.22 1039.32 1177.85 1041.18 C 1180.1 1042.34 1182.38 1043.45 1184.69 1044.5 C 1205.03 1053.66 1215.13 1039.16 1232.49 1032.99 z"/><path transform="translate(0,0)" fill="rgb(254,254,253)" d="M 816.529 1041.36 C 807.659 1013.03 831.846 960.573 844.382 933.893 C 847.015 928.291 852.1 920.152 857.953 917.7 C 865.216 921.599 866.664 943.576 867.284 951.571 C 869.734 983.169 883.299 1009.32 875.286 1041.64 C 858.833 1080.23 832.826 1077.86 816.529 1041.36 z"/><path transform="translate(0,0)" fill="rgb(253,253,242)" d="M 816.529 1041.36 C 825.19 1041.88 835.663 1048.27 847.379 1047.96 C 862.167 1047.57 861.715 1039.54 875.286 1041.64 C 858.833 1080.23 832.826 1077.86 816.529 1041.36 z"/><path transform="translate(0,0)" fill="url(#Gradient9)" d="M 1203.27 618.76 L 1205.36 620.038 C 1205.68 620.996 1206.01 621.87 1206.07 622.906 C 1208.81 675.112 1196.32 726.938 1163.35 768.4 C 1160.62 771.831 1158.95 773.818 1154.53 774.249 L 1152.82 772.546 C 1151.18 768.128 1152.02 762.651 1152.29 757.755 C 1157.07 703.435 1149.47 682.694 1131.6 632.387 C 1162.21 638.692 1176.9 632.343 1203.27 618.76 z"/><path transform="translate(0,0)" fill="url(#Gradient8)" d="M 842.801 619.355 C 870.638 635.374 881.972 638.03 914.532 632.661 C 900.556 676.26 888.025 709.67 893.409 757.769 C 894.53 763.142 897.353 774.52 893.36 778.591 C 880.653 771.66 862.071 735.921 856.384 722.616 C 847.301 701.366 832.297 640.671 842.801 619.355 z"/><path transform="translate(0,0)" fill="url(#Gradient7)" d="M 631.203 609.63 C 643.846 616.547 656.417 624.205 660.156 639.069 C 665.403 659.923 663.638 683.317 664.26 704.912 C 664.893 726.9 666.525 744.332 669.223 765.779 C 671.247 787.886 674.876 797.861 677.615 817.379 C 670.061 803.509 663.179 783.145 654.193 766.043 C 649.627 758.639 645.573 750.804 641.536 743.122 C 618.989 700.214 602.508 679.261 620.101 629.905 C 622.721 622.482 626.795 616.115 631.203 609.63 z"/><path transform="translate(0,0)" fill="rgb(254,179,0)" d="M 620.101 629.905 C 626.692 641.236 637.082 666.554 641.468 679.636 L 640.618 680.655 L 638.397 680.71 C 631.826 692.06 652.74 750.916 654.193 766.043 C 649.627 758.639 645.573 750.804 641.536 743.122 C 618.989 700.214 602.508 679.261 620.101 629.905 z"/><path transform="translate(0,0)" fill="rgb(254,228,138)" d="M 654.193 766.043 C 652.74 750.916 631.826 692.06 638.397 680.71 L 640.618 680.655 C 644.131 698.639 653.43 728.873 660.299 746.099 C 661.843 753.778 663.209 760.81 669.223 765.779 C 671.247 787.886 674.876 797.861 677.615 817.379 C 670.061 803.509 663.179 783.145 654.193 766.043 z"/><path transform="translate(0,0)" fill="rgb(254,179,0)" d="M 641.468 679.636 L 642.337 681.459 C 651.608 700.493 660.402 702.434 656.805 726.859 C 656.572 728.441 660.937 740.022 660.299 746.099 C 653.43 728.873 644.131 698.639 640.618 680.655 L 641.468 679.636 z"/><path transform="translate(0,0)" fill="rgb(254,179,0)" d="M 546.434 1120.34 C 549.051 1119.88 549.324 1120.04 552.033 1120.09 C 557.175 1125.11 577.012 1179.75 582.384 1190.44 C 586.453 1198.54 588.063 1202.61 594.137 1211.73 C 586.348 1213.15 574.136 1213.92 565.958 1214.68 C 561.922 1208.39 557.62 1200.06 553.948 1193.39 C 544.972 1193.72 536.037 1194.77 527.231 1196.54 L 525.703 1197.36 C 523.248 1201.46 520.248 1217.78 519.03 1223.27 C 508.005 1225.08 500.32 1226.02 489.211 1226.31 C 495.883 1209.45 511.752 1144.31 508.731 1126.66 L 546.434 1120.34 z"/><path transform="translate(0,0)" fill="rgb(0,0,1)" d="M 534.89 1147.64 C 538.01 1151.03 545.93 1167.96 545.191 1172.96 L 542.228 1170.77 C 539.4 1169.41 532.731 1170.87 529.213 1171.34 C 531.185 1163.46 533.078 1155.56 534.89 1147.64 z"/><path transform="translate(0,0)" fill="rgb(0,120,134)" d="M 1373.54 388.604 C 1378.77 388.135 1390.98 398.275 1395.28 401.845 C 1403.78 409.036 1411.84 416.74 1419.41 424.915 C 1422.84 428.402 1424.39 429.474 1426.28 433.839 C 1416.85 434.839 1401.19 443.269 1391.24 445.99 C 1378.65 449.584 1361.42 449.265 1349.73 455.068 C 1321.42 469.12 1300.69 487.941 1267 476.835 C 1259.87 474.483 1253.78 473.731 1245.99 470.143 C 1268.16 452.418 1308.22 445.597 1336.01 443.206 C 1352.5 441.788 1358.92 442.987 1375.76 438.506 C 1367.24 436.289 1356.72 431.553 1348.45 430.294 C 1334.77 428.21 1318.73 433.485 1304.05 434.449 L 1302.57 434.538 C 1316.85 419.922 1325.31 418.942 1342.19 408.713 C 1352.3 402.585 1363.46 395.092 1373.54 388.604 z"/><path transform="translate(0,0)" fill="rgb(254,254,253)" d="M 1373.54 388.604 C 1378.77 388.135 1390.98 398.275 1395.28 401.845 C 1403.78 409.036 1411.84 416.74 1419.41 424.915 L 1417.67 427.172 C 1409.18 420.751 1377.57 396.213 1373.54 388.604 z"/><path transform="translate(0,0)" fill="rgb(226,238,233)" d="M 1419.41 424.915 C 1422.84 428.402 1424.39 429.474 1426.28 433.839 C 1422.18 432.135 1420.92 430.37 1417.67 427.172 L 1419.41 424.915 z"/><path transform="translate(0,0)" fill="rgb(223,124,0)" d="M 1382.21 735.762 C 1381.76 725.75 1382.48 713.75 1382.98 703.433 C 1384.4 674.038 1377.04 635.853 1403.87 615.521 C 1408.15 612.276 1410.86 610.124 1416.2 610.794 C 1421.77 613.843 1423.99 623.537 1426.32 630.012 C 1442.98 693.248 1428.01 698.473 1399.72 755.227 C 1400.13 750.963 1400.77 746.883 1401.4 742.652 C 1398.04 748.586 1394.46 759.259 1390.04 761.595 L 1387.45 761.033 C 1385.52 766.27 1384.68 771.108 1381.02 774.707 L 1376.51 775.632 C 1378.64 762.375 1380.54 749.083 1382.21 735.762 z"/><path transform="translate(0,0)" fill="rgb(254,179,0)" d="M 1408.18 681.906 C 1407.78 666.607 1414.07 647.689 1420.23 633.046 C 1421.19 630.763 1424.15 630.463 1426.32 630.012 C 1442.98 693.248 1428.01 698.473 1399.72 755.227 C 1400.13 750.963 1400.77 746.883 1401.4 742.652 C 1404.07 734.124 1409.82 725.55 1411.27 719.228 C 1415.6 700.242 1411.88 696.256 1420.26 677.281 C 1415.06 678.757 1413.1 679.592 1408.18 681.906 z"/><path transform="translate(0,0)" fill="rgb(254,228,138)" d="M 1408.18 681.906 C 1413.1 679.592 1415.06 678.757 1420.26 677.281 C 1411.88 696.256 1415.6 700.242 1411.27 719.228 C 1409.82 725.55 1404.07 734.124 1401.4 742.652 C 1398.04 748.586 1394.46 759.259 1390.04 761.595 L 1387.45 761.033 C 1390.87 749.394 1395.99 734.223 1398.24 722.711 C 1400.73 708.623 1405.99 695.862 1408.18 681.906 z"/><path transform="translate(0,0)" fill="rgb(248,191,49)" d="M 1382.21 735.762 L 1383.06 735.421 C 1384.6 737.189 1382.01 748.216 1382.37 754.142 L 1383.61 755.232 C 1386.2 754.027 1385.25 754.537 1387.25 752.085 C 1387.78 748.382 1395.89 725.683 1398.24 722.711 C 1395.99 734.223 1390.87 749.394 1387.45 761.033 C 1385.52 766.27 1384.68 771.108 1381.02 774.707 L 1376.51 775.632 C 1378.64 762.375 1380.54 749.083 1382.21 735.762 z"/><path transform="translate(0,0)" fill="rgb(0,120,134)" d="M 678.213 391.578 C 686.943 395.261 697.053 408.465 707.025 414.482 C 725.347 425.539 733.724 423.08 750.83 437.523 C 739.611 436.667 713.191 431.469 705.437 432.198 L 704.256 432.641 C 692.734 436.84 674.858 434.188 671.131 441.772 C 675.321 444.272 682.11 442.379 688.272 443.971 C 707.247 444.66 749.807 446.904 766.874 453.64 C 771.853 455.605 795.39 468.874 802.69 472.489 C 791.831 479.462 773.95 486.979 761.127 483.429 C 737.753 476.957 717.923 462.127 695.525 453.56 C 687.586 450.523 674.056 448.745 665.413 446.945 C 651.855 444.108 638.643 439.814 626.008 434.136 C 626.865 423.916 667.048 393.23 678.213 391.578 z"/><path transform="translate(0,0)" fill="rgb(254,254,253)" d="M 626.008 434.136 C 626.865 423.916 667.048 393.23 678.213 391.578 C 674.12 397.894 633.236 431.442 626.008 434.136 z"/><path transform="translate(0,0)" fill="rgb(0,91,104)" d="M 685.269 427.353 C 691.976 429.033 698.699 430.648 705.437 432.198 L 704.256 432.641 C 692.734 436.84 674.858 434.188 671.131 441.772 C 675.321 444.272 682.11 442.379 688.272 443.971 C 682.267 444.598 667.228 446.749 663.837 441.124 C 665.703 435.075 679.498 429.502 685.269 427.353 z"/><path transform="translate(0,0)" fill="rgb(254,179,0)" d="M 1290.32 1102.2 C 1295.86 1103.07 1307.11 1103.28 1313.02 1103.53 C 1306.88 1124.81 1314.16 1141.56 1319.93 1163.02 C 1324.85 1146.21 1333.94 1120.23 1332.25 1103.86 C 1343.13 1104.15 1354.1 1105.3 1364.95 1106.28 C 1361.22 1115.39 1358.48 1124.41 1355.5 1133.77 C 1349.57 1155.03 1343.24 1177.61 1336.02 1198.39 C 1327.95 1198.38 1314.57 1199.91 1307.31 1196.54 C 1301.18 1193.69 1286.88 1143.8 1283.29 1134.58 C 1287.45 1121.14 1288.67 1116.28 1290.32 1102.2 z"/><path transform="translate(0,0)" fill="rgb(254,179,0)" d="M 742.119 1100.45 C 745.53 1100.1 744.169 1099.59 746.629 1101.06 C 750.369 1130.51 777.566 1169.06 791.297 1195.29 C 781.474 1195.76 772.059 1196.24 762.205 1196.26 C 754.014 1185.4 746.536 1168.01 741.032 1155.39 C 740.416 1154.38 740.893 1155.06 739.254 1153.64 C 735.414 1158.38 729.621 1192.18 728.812 1199.73 C 719.449 1200.41 709.643 1201.56 700.178 1202.33 C 707.342 1179.71 721.198 1124.54 717.695 1102.47 C 725.796 1101.9 734.014 1101.13 742.119 1100.45 z"/><path transform="translate(0,0)" fill="rgb(254,179,0)" d="M 1591.96 1128.64 C 1610.07 1130.28 1633 1133.81 1650.81 1136.62 C 1651.36 1143.87 1651.63 1150.85 1651.9 1158.12 C 1640.63 1153.93 1632.2 1153.59 1620.2 1152.82 C 1620.04 1158.33 1620.32 1164.01 1620.48 1169.53 C 1629.04 1171.27 1637.63 1172.92 1646.22 1174.48 L 1645.92 1196.35 C 1637.67 1194.42 1628.64 1192.89 1620.26 1191.31 C 1619.9 1197.57 1620.02 1204.09 1620.03 1210.38 C 1626.57 1213.42 1648.21 1215.16 1655.88 1215.35 C 1654.41 1223.71 1653.45 1228.84 1651.02 1236.9 C 1631.4 1233.37 1610.28 1230.35 1590.95 1226.3 C 1596.43 1208.39 1596.93 1146.77 1591.96 1128.64 z"/><path transform="translate(0,0)" fill="rgb(0,120,134)" d="M 470.451 642.456 C 475.091 645.117 484.366 671.433 488.456 678.33 C 495.653 690.469 502.302 697.34 511.845 707.456 C 512.547 738.776 513.109 749.986 523.077 779.778 L 512.612 773.989 C 459.485 742 443.153 699.478 470.451 642.456 z"/><path transform="translate(0,0)" fill="rgb(254,179,0)" d="M 655.131 1106.6 C 658.922 1106.16 663.183 1106.01 667.031 1105.79 C 668.473 1113.67 669.475 1121.07 670.523 1129.02 C 658.148 1127.44 646.3 1129.24 634.219 1131.78 C 635.539 1142.19 638.563 1177.17 642.592 1183.79 C 649.998 1186.46 667.617 1182.51 675.331 1180.3 C 676.207 1188.16 679.377 1195.28 676.563 1201.96 C 672.831 1204.9 672.762 1204.03 667.239 1204.81 C 657.861 1205.91 648.473 1207.15 639.077 1208.09 C 634.422 1208.55 624.557 1209.55 621.088 1205.91 C 612.345 1196.73 607.812 1127.88 607.83 1113.03 C 622.685 1108.1 639.323 1108.08 655.131 1106.6 z"/><path transform="translate(0,0)" fill="rgb(0,120,134)" d="M 1573.46 641.491 C 1578.2 645.15 1580.01 655.679 1581.96 661.229 C 1598.56 708.594 1576.7 748.187 1535.24 772.688 C 1532.52 774.213 1527.14 776.534 1524.13 777.954 C 1535.73 746.224 1536.79 737.548 1536.56 704.459 C 1541.08 697.819 1548.57 690.443 1553.62 683.191 C 1562.53 670.384 1567.6 655.898 1573.46 641.491 z"/><path transform="translate(0,0)" fill="rgb(254,179,0)" d="M 459.647 1132.45 L 461.539 1132.14 L 462.771 1133.44 C 462.188 1145.7 463.035 1154.6 463.007 1166.23 C 462.965 1184.21 476.826 1224.47 459.021 1234.38 C 447.954 1240.53 424.768 1242.28 411.768 1243.93 C 410.569 1244.09 410.123 1241.75 409.773 1240.85 L 405.705 1223.46 C 417.134 1220.77 428.4 1220.57 439.77 1217.24 C 440.123 1197.56 436.093 1153.35 427.878 1136.38 C 437.824 1135.46 449.604 1133.71 459.647 1132.45 z"/><path transform="translate(0,0)" fill="rgb(0,120,134)" d="M 473.495 759.255 C 478.344 761.272 483.592 765.638 487.947 768.869 C 497.677 776.089 509.31 781.885 518.673 789.387 C 524.071 793.712 529.439 807.977 532.684 813.99 C 542.801 832.731 556.968 846.609 573.685 859.394 C 576.966 861.914 584.432 866.887 586.49 869.658 C 553.354 860.92 526.449 856.643 501.493 830.076 C 485.921 813.498 472.588 781.562 473.495 759.255 z"/><path transform="translate(0,0)" fill="rgb(0,120,134)" d="M 1567.98 759.818 C 1577.39 768.8 1560.47 806.237 1555.24 815.698 C 1543.42 837.071 1520.56 852.364 1497.6 859.539 C 1489.19 862.164 1480.64 863.732 1472.19 866.132 C 1470.89 866.51 1471.61 866.466 1470.05 866.048 C 1473.93 861.85 1479.4 857.537 1483.69 853.43 C 1492.63 845.015 1500.7 835.728 1507.78 825.708 C 1522.01 805.55 1522.79 788.483 1546.44 776.331 C 1552.47 773.232 1562.69 764.455 1567.98 759.818 z"/><path transform="translate(0,0)" fill="url(#Gradient6)" d="M 936.014 626.091 C 972.276 600.432 1036.41 597.305 1076.65 614.308 C 1084.98 617.829 1093.84 619.365 1102.38 623.273 C 1095.8 624.326 1088.16 622.869 1080.72 623.278 L 1078.13 625.425 C 1075.69 628.726 1070.03 645.305 1067.95 650.276 C 1064.88 657.634 1062.68 662.03 1058.73 669.227 C 1048.1 650.239 1040.8 639.467 1028.13 621.754 C 1026.86 619.569 1027 619.632 1025.01 618.124 L 1024.17 619.504 L 1020.93 623.38 C 1004.85 623.08 986.556 624.307 971.224 623.469 C 958.85 624.897 948.556 626.166 936.014 626.091 z"/><path transform="translate(0,0)" fill="rgb(254,254,253)" d="M 1028.13 621.754 C 1042.01 625.632 1064.98 622.901 1080.72 623.278 L 1078.13 625.425 C 1075.69 628.726 1070.03 645.305 1067.95 650.276 C 1064.88 657.634 1062.68 662.03 1058.73 669.227 C 1048.1 650.239 1040.8 639.467 1028.13 621.754 z"/><path transform="translate(0,0)" fill="rgb(223,124,0)" d="M 971.224 623.469 C 975.48 621.26 978.961 619.633 983.745 618.947 C 990.382 617.995 1019.53 616.178 1024.17 619.504 L 1020.93 623.38 C 1004.85 623.08 986.556 624.307 971.224 623.469 z"/><path transform="translate(0,0)" fill="rgb(254,179,0)" d="M 1432.18 1109.94 C 1443.94 1110.84 1455.69 1111.96 1467.41 1113.3 C 1459.24 1131.26 1461.65 1166.32 1462.48 1187.18 C 1471.73 1188.2 1482.28 1188.04 1491.68 1188.15 C 1491.96 1196.45 1491.91 1202.77 1491.54 1211.07 C 1487.04 1213.31 1440.4 1206.47 1431.7 1205.36 C 1439.07 1190.94 1437.05 1126.63 1432.18 1109.94 z"/><path transform="translate(0,0)" fill="rgb(254,179,0)" d="M 1511.74 1121.41 C 1522.42 1122.58 1533.9 1123.56 1544.36 1125.68 C 1538.42 1139.42 1538.44 1180.62 1539.83 1195.89 C 1549.37 1200.48 1561.71 1199.98 1572.1 1200.02 C 1572.13 1206.32 1571.76 1212.76 1571.48 1219.06 C 1570.89 1221.35 1571.51 1220.37 1569.46 1221.9 C 1561.25 1222.33 1521 1216.12 1511.71 1214.38 C 1515.4 1195.98 1515.18 1139.9 1511.74 1121.41 z"/><path transform="translate(0,0)" fill="rgb(254,228,138)" d="M 1259.74 374.608 C 1267.85 369.568 1276.94 365.523 1285.59 361.414 C 1290.54 376.718 1292.85 396.89 1288.4 412.505 C 1284.97 419.903 1283.28 423.442 1278.82 430.17 C 1258.65 451.231 1238.15 450.998 1216.09 433.627 C 1223.22 417.658 1223.93 411.185 1238.95 400.977 C 1240.54 405.84 1243.08 417.238 1247.53 419.166 C 1265.83 415.049 1264.71 398.451 1262.57 383.772 L 1259.74 374.608 z"/><path transform="translate(0,0)" fill="rgb(254,179,0)" d="M 1259.74 374.608 C 1267.85 369.568 1276.94 365.523 1285.59 361.414 C 1290.54 376.718 1292.85 396.89 1288.4 412.505 C 1284.68 410.608 1282.79 410.228 1278.78 409.39 L 1277.28 406.164 C 1276.25 395.108 1273.36 388.415 1262.57 383.772 L 1259.74 374.608 z"/><path transform="translate(0,0)" fill="rgb(248,191,49)" d="M 1277.28 406.164 L 1278.78 409.39 C 1282.79 410.228 1284.68 410.608 1288.4 412.505 C 1284.97 419.903 1283.28 423.442 1278.82 430.17 C 1273.87 421.727 1277.11 415.987 1277.28 406.164 z"/><path transform="translate(0,0)" fill="rgb(254,228,138)" d="M 762.123 363.636 L 763.482 364.266 C 771.859 368.091 778.382 372.254 786.217 377.02 C 784.855 381.639 783.845 387.331 782.068 391.679 C 782.718 401.823 784.428 419.775 798.571 418.582 C 805.98 414.032 806.247 404.534 806.202 396.542 C 825.708 414.566 820.343 412.626 829.834 433.977 C 803.767 453.285 777.595 449.927 761.068 421.215 C 753.779 406.889 756.628 378.483 762.123 363.636 z"/><path transform="translate(0,0)" fill="rgb(254,179,0)" d="M 762.123 363.636 L 763.482 364.266 C 771.859 368.091 778.382 372.254 786.217 377.02 C 784.855 381.639 783.845 387.331 782.068 391.679 C 770.312 400.135 762.249 406.623 761.068 421.215 C 753.779 406.889 756.628 378.483 762.123 363.636 z"/><path transform="translate(0,0)" fill="rgb(253,253,242)" d="M 1249.25 886.685 C 1264.13 886.058 1277.65 913.194 1279.93 926.167 C 1283.19 944.585 1272.23 965.331 1262.29 980 C 1259 984.127 1256.38 986.28 1252.48 989.722 C 1239.67 958.928 1230.99 917.2 1249.25 886.685 z"/><path transform="translate(0,0)" fill="rgb(0,120,134)" d="M 1563.4 544.802 L 1564.64 541.774 C 1568.59 542.517 1583.4 557.311 1586.53 560.746 C 1601.33 576.958 1611.53 601.241 1614.33 622.896 C 1615.97 627.038 1617.05 642.751 1617.34 647.514 C 1604.69 641.577 1586.5 627.484 1576.54 617.244 C 1566.11 606.53 1568.44 593.129 1566.71 579.499 C 1565.32 568.632 1562.52 555.651 1563.4 544.802 z"/><path transform="translate(0,0)" fill="rgb(254,254,253)" d="M 1563.4 544.802 L 1564.64 541.774 C 1568.59 542.517 1583.4 557.311 1586.53 560.746 C 1601.33 576.958 1611.53 601.241 1614.33 622.896 L 1613.72 623.254 L 1612.36 622.447 C 1602.97 597.277 1584.89 561.661 1563.4 544.802 z"/><path transform="translate(0,0)" fill="rgb(254,254,253)" d="M 971.224 623.469 C 986.556 624.307 1004.85 623.08 1020.93 623.38 C 1008.37 637.925 999.818 650.663 992.572 668.7 C 983.158 657.861 976.437 638.052 971.197 624.332 C 956.156 647.665 955.038 686.657 950.955 714.843 C 941.112 694.251 930.164 648.178 936.014 626.091 C 948.556 626.166 958.85 624.897 971.224 623.469 z"/><path transform="translate(0,0)" fill="rgb(0,120,134)" d="M 433.446 622.236 C 438.195 594.041 449.77 572.423 471.473 553.6 C 475.211 550.359 478.497 546.733 483.023 544.664 L 484.098 545.239 C 482.063 566.218 481.339 589.706 478.81 609.976 C 464.546 623.117 444.907 636.338 429.71 649.268 C 430.133 643.299 431.315 627.708 433.446 622.236 z"/><path transform="translate(0,0)" fill="rgb(254,254,253)" d="M 433.446 622.236 C 438.195 594.041 449.77 572.423 471.473 553.6 C 475.211 550.359 478.497 546.733 483.023 544.664 L 484.098 545.239 C 466.834 565.988 452.956 581.064 442.529 606.872 C 441.42 609.616 435.887 622.612 434.068 623.236 L 433.446 622.236 z"/><path transform="translate(0,0)" fill="rgb(253,253,242)" d="M 793.936 889.672 L 796.765 890.383 C 816.791 909.135 802.543 966.816 793.421 989.373 L 788.094 984.161 C 765.403 955.16 756.888 910.98 793.936 889.672 z"/><path transform="translate(0,0)" fill="rgb(254,179,0)" d="M 1380.23 1106.41 C 1392.01 1107.46 1401.85 1107.92 1413.66 1108.26 C 1407.51 1127.66 1408.18 1182.96 1411.61 1203.62 C 1409.17 1204.2 1383.73 1202.03 1379.84 1201.76 C 1384.81 1184.37 1384.78 1123.41 1380.23 1106.41 z"/><path transform="translate(0,0)" fill="rgb(254,254,253)" d="M 909.721 999.62 C 930.392 1016.01 935.338 1065.71 938.33 1090.86 C 934.322 1090.12 929.754 1088.84 925.753 1087.83 C 895.461 1079.28 887.498 1076.06 896.28 1043.62 C 900.351 1028.58 903.558 1014.22 909.721 999.62 z"/><path transform="translate(0,0)" fill="url(#Gradient5)" d="M 816.903 633.957 C 820.099 637.756 818.495 645.92 818.311 651.004 C 817.133 683.704 823.673 713.998 827.525 746.159 C 820.19 741.474 817.333 738.137 812.129 731.576 C 789.242 703.105 787.666 681.487 788.077 647.576 C 801.009 643.69 804.991 641.091 816.903 633.957 z"/><path transform="translate(0,0)" fill="url(#Gradient4)" d="M 1225.93 633.08 C 1235.03 636.452 1248.12 642.907 1256.65 647.287 C 1262.87 677.393 1251.65 705.788 1233.81 729.599 C 1228.19 735.999 1223.54 740.199 1217.19 745.973 C 1221.72 724.621 1226.25 701.639 1226.76 679.861 C 1227.12 664.722 1226.17 648.436 1225.93 633.08 z"/><path transform="translate(0,0)" fill="rgb(254,254,253)" d="M 1138.98 1000.85 C 1144.01 1006.25 1156.18 1064.89 1151.8 1073.68 C 1148.8 1079.7 1132.94 1084.51 1126.88 1086.37 C 1122.82 1087.15 1116.22 1089.04 1113 1086.88 C 1112.8 1086.22 1112.09 1083.82 1112.19 1083.12 C 1116.33 1054.33 1118.94 1023.44 1138.98 1000.85 z"/><path transform="translate(0,0)" fill="url(#Gradient3)" d="M 751.244 808.668 C 751.923 808.889 753.159 809.667 753.842 810.055 C 764.202 826.583 763.795 858.399 760.182 876.972 C 758.766 884.253 753.797 911.12 747.761 915.411 C 728.256 893.189 728.181 827.742 751.244 808.668 z"/><path transform="translate(0,0)" fill="rgb(253,253,242)" d="M 1294.54 807.204 C 1304.92 811.921 1310.14 821.733 1313.66 832.142 C 1321.79 856.137 1316.99 883.034 1305.95 905.287 L 1301.33 913.051 C 1291.57 889.458 1285.79 832.164 1294.54 807.204 z"/><path transform="translate(0,0)" fill="url(#Gradient2)" d="M 1102.38 623.273 C 1105.11 624.101 1110.71 625.383 1111.77 627.824 C 1119.48 645.613 1111.26 675.409 1106.06 693.051 C 1104.42 698.593 1101.61 708.088 1098.47 711.317 L 1096.84 711.177 C 1093.15 705.927 1091.29 677.496 1090.14 668.588 C 1088.83 658.294 1086.45 648.164 1083.05 638.361 C 1081.8 634.802 1078.82 628.471 1078.13 625.425 L 1080.72 623.278 C 1088.16 622.869 1095.8 624.326 1102.38 623.273 z"/><path transform="translate(0,0)" fill="rgb(254,254,253)" d="M 962.266 1033.66 C 973.316 1040.22 1010.06 1086.75 1004.05 1096.58 L 999.651 1097.08 C 967.232 1093.86 945.426 1093.15 956.902 1054.97 C 958.98 1048.06 959.545 1040.91 962.266 1033.66 z"/><path transform="translate(0,0)" fill="rgb(0,120,134)" d="M 1552.97 842.612 C 1558.77 831.085 1567.02 821.456 1572.01 808.813 C 1574.92 801.445 1576.38 783.943 1580.33 779.417 C 1583.06 784.355 1585.63 806.566 1584.8 812.677 C 1588.58 844.728 1579.94 869.869 1557.12 892.719 C 1557.99 888.95 1559.08 883.363 1560.22 879.831 C 1557.68 872.561 1555.57 853.065 1552.97 842.612 z"/><path transform="translate(0,0)" fill="rgb(254,254,253)" d="M 1560.22 879.831 C 1567.22 867.788 1572.75 854.945 1576.67 841.58 C 1578.91 834 1581.31 818.089 1584.8 812.677 C 1588.58 844.728 1579.94 869.869 1557.12 892.719 C 1557.99 888.95 1559.08 883.363 1560.22 879.831 z"/><path transform="translate(0,0)" fill="rgb(0,120,134)" d="M 459.991 817.742 C 460.871 801.142 460.367 795.047 467.862 780.177 C 471.703 799.686 480.029 826.089 493.144 841.128 C 491.525 850.719 488.625 870.703 486.065 879.125 C 488.199 884.145 489.483 889.02 491.014 894.243 C 468.237 870.06 461.291 850.834 459.991 817.742 z"/><path transform="translate(0,0)" fill="rgb(254,254,253)" d="M 459.991 817.742 L 461.453 816.537 C 464.526 821.859 465.062 829.274 467.118 835.035 C 472.127 849.071 477.993 866.634 486.065 879.125 C 488.199 884.145 489.483 889.02 491.014 894.243 C 468.237 870.06 461.291 850.834 459.991 817.742 z"/><path transform="translate(0,0)" fill="rgb(254,254,253)" d="M 1089.84 1033.89 C 1095.95 1040.19 1093.78 1079.36 1090.48 1089.27 C 1077.42 1094.71 1061.95 1097.07 1047.87 1097.17 C 1045.21 1096.07 1046.14 1097.02 1044.75 1094.56 C 1047.04 1079.05 1077.23 1044.32 1089.84 1033.89 z"/><path transform="translate(0,0)" fill="rgb(254,254,253)" d="M 1300.51 642.132 L 1303.03 642.097 L 1303.64 643.405 C 1300.34 670.548 1290.25 696.209 1268.39 713.328 L 1265.97 713.42 C 1263.24 705.71 1268.88 658.687 1270.75 649.024 C 1277.4 646.799 1292.57 644.061 1300.51 642.132 z"/><path transform="translate(0,0)" fill="rgb(254,254,253)" d="M 745.071 641.574 C 773.795 650.076 776.797 644.502 778.251 677.959 C 778.754 689.546 780.069 703.529 780.877 715.311 C 775.22 716.202 771.578 712.612 767.907 708.38 C 752.905 691.084 744.515 664.206 745.071 641.574 z"/><path transform="translate(0,0)" fill="rgb(0,91,104)" d="M 711.89 355.103 L 713.079 355.999 C 721.643 381.992 736.079 396.456 744.83 417.463 C 740.139 414.98 735.526 412.787 730.746 410.506 C 718.945 405.401 708.79 399.761 697.931 393.008 C 676.286 379.546 694.534 359.949 711.89 355.103 z"/><path transform="translate(0,0)" fill="rgb(254,254,253)" d="M 1189.52 308.438 C 1191.79 306.18 1194.76 303.475 1197.44 301.717 C 1233.73 277.923 1260.1 270.87 1301.66 277.193 C 1292.31 280.994 1278.51 283.343 1268.05 286.455 C 1259.71 288.4 1235.88 300.429 1230.73 306.826 C 1220.43 309.699 1200.51 308.784 1189.52 308.438 z"/><path transform="translate(0,0)" fill="rgb(0,120,134)" d="M 1586.22 742.498 C 1595.82 726.422 1598.26 721.354 1603.87 703.255 C 1607.15 710.655 1612.25 725.213 1612.9 733.109 C 1618.11 748.335 1622 773.083 1617.54 788.749 L 1616.05 790.307 C 1613.39 789.04 1614.62 789.84 1612.82 786.714 C 1608.28 780.992 1603.44 769.171 1599.58 762.279 C 1595.1 754.276 1591.75 749.802 1586.22 742.498 z"/><path transform="translate(0,0)" fill="rgb(254,254,253)" d="M 1612.82 786.714 C 1613.27 781.15 1613.19 774.209 1613.48 769.04 C 1613.87 762.266 1610.47 737.011 1612.9 733.109 C 1618.11 748.335 1622 773.083 1617.54 788.749 L 1616.05 790.307 C 1613.39 789.04 1614.62 789.84 1612.82 786.714 z"/><path transform="translate(0,0)" fill="rgb(0,91,104)" d="M 1334.77 350.281 C 1346.03 356.212 1353.54 363.661 1361.16 373.825 C 1357.25 390.685 1347.63 392.928 1333.42 400.002 C 1325.64 403.638 1322.24 404.692 1313.96 406.908 C 1321.35 385.251 1330.77 372.337 1334.77 350.281 z"/><path transform="translate(0,0)" fill="rgb(254,254,253)" d="M 980.765 410.641 C 986.952 412.592 994.151 415.941 1001.17 418.084 C 1029.51 426.739 1047.48 419.068 1073.61 409.869 C 1070.23 413.727 1066.53 417.162 1062.85 420.726 C 1058.18 424.468 1053.67 427.86 1048.88 431.404 C 1024.69 449.306 994.565 433.988 980.765 410.641 z"/><path transform="translate(0,0)" fill="rgb(0,120,134)" d="M 436.413 727.129 C 437.308 723.406 437.852 719.623 440.072 716.581 L 442.104 715.909 C 446.546 718.843 454.428 737.205 460.144 745.448 C 448.78 759.259 444.639 767.236 436.533 782.874 L 434.582 786.755 L 433.527 786.643 C 425.942 775.425 433.27 740.109 436.413 727.129 z"/><path transform="translate(0,0)" fill="url(#Gradient1)" d="M 436.413 727.129 L 437.921 727.941 C 438.272 743.865 433.935 767.146 436.533 782.874 L 434.582 786.755 L 433.527 786.643 C 425.942 775.425 433.27 740.109 436.413 727.129 z"/><path transform="translate(0,0)" fill="rgb(253,253,242)" d="M 717.57 630.57 C 723.287 632.957 727.542 634.695 731.186 639.716 C 733.729 649.105 725.38 677.265 722.737 687.779 L 722.167 690.02 L 721.021 690.259 C 716.911 679.864 712.206 652.605 712.336 641.323 C 712.406 635.175 713.42 634.535 717.57 630.57 z"/><path transform="translate(0,0)" fill="rgb(253,253,242)" d="M 715.857 787.381 C 734.089 802.878 715.782 834.609 709.424 854.727 C 708.802 856.831 709.066 856.14 707.792 857.987 L 706.675 856.764 C 703.158 834.077 708.228 808.721 715.857 787.381 z"/><path transform="translate(0,0)" fill="rgb(0,69,79)" d="M 1258.86 1180.14 C 1265.27 1179.86 1285.6 1182.26 1282.92 1191.68 C 1276.26 1198.79 1258 1199.14 1247.76 1200.28 C 1239.91 1200.78 1233.71 1201.2 1225.91 1202.28 C 1233.78 1196.43 1250.54 1183.74 1258.86 1180.14 z"/><path transform="translate(0,0)" fill="rgb(253,253,242)" d="M 1326.66 631.817 C 1329.18 632.808 1332.16 633.442 1333.06 636.055 C 1336.55 646.17 1329.58 677.644 1326.95 687.1 L 1325.76 687.275 C 1321.19 673.02 1318.07 654.801 1314.3 639.605 C 1318.54 636.422 1322.11 634.456 1326.66 631.817 z"/><path transform="translate(0,0)" fill="rgb(253,253,242)" d="M 1334.91 787.74 C 1342.53 794.005 1347.76 842.651 1343.38 852.874 L 1341.96 851.803 C 1337.77 837.079 1331.68 821.164 1328.97 806.334 C 1327.44 798.005 1329.88 793.864 1334.91 787.74 z"/><path transform="translate(0,0)" fill="rgb(251,210,77)" d="M 1387.45 761.033 L 1390.04 761.595 C 1394.46 759.259 1398.04 748.586 1401.4 742.652 C 1400.77 746.883 1400.13 750.963 1399.72 755.227 C 1389.69 776.051 1381.57 794.091 1372.08 814.881 L 1371.37 814.982 C 1371.34 807.174 1375.49 785.742 1376.51 775.632 L 1381.02 774.707 C 1384.68 771.108 1385.52 766.27 1387.45 761.033 z"/><path transform="translate(0,0)" fill="rgb(0,69,79)" d="M 801.512 1177.16 C 815.062 1178.82 814.67 1183.01 825.753 1191.2 C 828.875 1193.5 831.939 1194.9 834.789 1197.62 L 833.812 1198.67 C 826.032 1196.63 818.364 1197.25 810.517 1196.22 C 796.29 1194.35 798.924 1186.98 801.512 1177.16 z"/><path transform="translate(0,0)" fill="rgb(251,210,77)" d="M 688.607 1589.78 C 700.691 1586.22 713.137 1584.79 725.661 1583.84 C 733.629 1587.76 746.4 1584.02 750.763 1586.64 C 748.473 1586.93 742.497 1586.85 739.916 1586.89 C 739.039 1589.05 737.371 1590.44 737.019 1591.88 C 733.444 1591.96 724.846 1590.99 720.907 1590.64 C 711.562 1589.67 698.266 1589.89 688.607 1589.78 z"/><path transform="translate(0,0)" fill="rgb(253,253,242)" d="M 720.907 1590.64 L 720.15 1589.4 L 721.378 1587.99 C 727.453 1586.63 733.646 1586.94 739.916 1586.89 C 739.039 1589.05 737.371 1590.44 737.019 1591.88 C 733.444 1591.96 724.846 1590.99 720.907 1590.64 z"/><path transform="translate(0,0)" fill="rgb(248,191,49)" d="M 808.944 1068.34 C 815.486 1074.71 821.975 1081.23 829 1087.05 C 824.351 1087.81 823.262 1088.05 818.643 1087.82 C 814.349 1081.9 812.878 1080.18 807.597 1075.14 L 808.944 1068.34 z"/><path transform="translate(0,0)" fill="rgb(251,210,77)" d="M 1352.43 1584.59 C 1360.63 1585.76 1371.44 1586.98 1379.26 1589 C 1366.7 1590.19 1355.38 1589.73 1342.97 1590.22 L 1339.06 1588.22 L 1352.43 1584.59 z"/></svg>