<svg version="1.1" xmlns="http://www.w3.org/2000/svg" style="display: block;" viewBox="0 0 2048 2048" width="1024" height="1024" preserveAspectRatio="none"><defs><linearGradient id="Gradient1" gradientUnits="userSpaceOnUse" x1="728.098" y1="672.911" x2="758.902" y2="693.089"><stop class="stop0" offset="0" stop-opacity="1" stop-color="rgb(75,78,85)"/><stop class="stop1" offset="1" stop-opacity="1" stop-color="rgb(106,119,131)"/></linearGradient><linearGradient id="Gradient2" gradientUnits="userSpaceOnUse" x1="789.954" y1="921.663" x2="842.769" y2="896.751"><stop class="stop0" offset="0" stop-opacity="1" stop-color="rgb(94,102,111)"/><stop class="stop1" offset="1" stop-opacity="1" stop-color="rgb(124,132,138)"/></linearGradient><linearGradient id="Gradient3" gradientUnits="userSpaceOnUse" x1="1019.27" y1="1391.68" x2="1035.74" y2="1381.95"><stop class="stop0" offset="0" stop-opacity="1" stop-color="rgb(119,127,136)"/><stop class="stop1" offset="1" stop-opacity="1" stop-color="rgb(145,150,153)"/></linearGradient><linearGradient id="Gradient4" gradientUnits="userSpaceOnUse" x1="792.008" y1="972.071" x2="766.536" y2="946.398"><stop class="stop0" offset="0" stop-opacity="1" stop-color="rgb(202,205,207)"/><stop class="stop1" offset="1" stop-opacity="1" stop-color="rgb(248,246,246)"/></linearGradient><linearGradient id="Gradient5" gradientUnits="userSpaceOnUse" x1="809.62" y1="967.453" x2="791.511" y2="954.471"><stop class="stop0" offset="0" stop-opacity="1" stop-color="rgb(164,170,175)"/><stop class="stop1" offset="1" stop-opacity="1" stop-color="rgb(202,204,206)"/></linearGradient><linearGradient id="Gradient6" gradientUnits="userSpaceOnUse" x1="820.41" y1="885.737" x2="873.645" y2="824.793"><stop class="stop0" offset="0" stop-opacity="1" stop-color="rgb(156,162,168)"/><stop class="stop1" offset="1" stop-opacity="1" stop-color="rgb(194,200,201)"/></linearGradient><linearGradient id="Gradient7" gradientUnits="userSpaceOnUse" x1="914.654" y1="708.732" x2="889.294" y2="717.596"><stop class="stop0" offset="0" stop-opacity="1" stop-color="rgb(158,162,168)"/><stop class="stop1" offset="1" stop-opacity="1" stop-color="rgb(192,197,203)"/></linearGradient><linearGradient id="Gradient8" gradientUnits="userSpaceOnUse" x1="625.44" y1="354.41" x2="608.628" y2="332.02"><stop class="stop0" offset="0" stop-opacity="1" stop-color="rgb(153,159,165)"/><stop class="stop1" offset="1" stop-opacity="1" stop-color="rgb(224,225,224)"/></linearGradient><linearGradient id="Gradient9" gradientUnits="userSpaceOnUse" x1="1113.44" y1="1274.63" x2="1150.17" y2="1279.29"><stop class="stop0" offset="0" stop-opacity="1" stop-color="rgb(145,149,154)"/><stop class="stop1" offset="1" stop-opacity="1" stop-color="rgb(166,177,185)"/></linearGradient><linearGradient id="Gradient10" gradientUnits="userSpaceOnUse" x1="463.706" y1="531.455" x2="429.381" y2="509.31"><stop class="stop0" offset="0" stop-opacity="1" stop-color="rgb(212,213,213)"/><stop class="stop1" offset="1" stop-opacity="1" stop-color="rgb(255,255,255)"/></linearGradient><linearGradient id="Gradient11" gradientUnits="userSpaceOnUse" x1="478.773" y1="537.999" x2="437.987" y2="536.786"><stop class="stop0" offset="0" stop-opacity="1" stop-color="rgb(148,156,160)"/><stop class="stop1" offset="1" stop-opacity="1" stop-color="rgb(200,201,204)"/></linearGradient><linearGradient id="Gradient12" gradientUnits="userSpaceOnUse" x1="1068.98" y1="261.682" x2="966.489" y2="223.76"><stop class="stop0" offset="0" stop-opacity="1" stop-color="rgb(145,152,160)"/><stop class="stop1" offset="1" stop-opacity="1" stop-color="rgb(172,178,180)"/></linearGradient><linearGradient id="Gradient13" gradientUnits="userSpaceOnUse" x1="1007.18" y1="490.012" x2="1001.71" y2="431.496"><stop class="stop0" offset="0" stop-opacity="1" stop-color="rgb(168,174,179)"/><stop class="stop1" offset="1" stop-opacity="1" stop-color="rgb(210,212,212)"/></linearGradient><linearGradient id="Gradient14" gradientUnits="userSpaceOnUse" x1="350.228" y1="1298.58" x2="315.17" y2="1265.46"><stop class="stop0" offset="0" stop-opacity="1" stop-color="rgb(171,178,182)"/><stop class="stop1" offset="1" stop-opacity="1" stop-color="rgb(207,209,210)"/></linearGradient><linearGradient id="Gradient15" gradientUnits="userSpaceOnUse" x1="765.262" y1="355.542" x2="749.843" y2="308.147"><stop class="stop0" offset="0" stop-opacity="1" stop-color="rgb(138,146,154)"/><stop class="stop1" offset="1" stop-opacity="1" stop-color="rgb(179,184,186)"/></linearGradient><linearGradient id="Gradient16" gradientUnits="userSpaceOnUse" x1="1082.75" y1="556.765" x2="1058.48" y2="468.048"><stop class="stop0" offset="0" stop-opacity="1" stop-color="rgb(142,149,156)"/><stop class="stop1" offset="1" stop-opacity="1" stop-color="rgb(217,220,220)"/></linearGradient><linearGradient id="Gradient17" gradientUnits="userSpaceOnUse" x1="1716.04" y1="1435.14" x2="1654.01" y2="1362.69"><stop class="stop0" offset="0" stop-opacity="1" stop-color="rgb(148,155,162)"/><stop class="stop1" offset="1" stop-opacity="1" stop-color="rgb(183,190,192)"/></linearGradient><linearGradient id="Gradient18" gradientUnits="userSpaceOnUse" x1="1786.63" y1="1340.49" x2="1691.21" y2="1357.04"><stop class="stop0" offset="0" stop-opacity="1" stop-color="rgb(154,162,167)"/><stop class="stop1" offset="1" stop-opacity="1" stop-color="rgb(188,192,196)"/></linearGradient><linearGradient id="Gradient19" gradientUnits="userSpaceOnUse" x1="1001.3" y1="772.871" x2="976.03" y2="756.286"><stop class="stop0" offset="0" stop-opacity="1" stop-color="rgb(179,186,189)"/><stop class="stop1" offset="1" stop-opacity="1" stop-color="rgb(230,229,229)"/></linearGradient><linearGradient id="Gradient20" gradientUnits="userSpaceOnUse" x1="1019.16" y1="824.392" x2="967.842" y2="763.608"><stop class="stop0" offset="0" stop-opacity="1" stop-color="rgb(142,149,156)"/><stop class="stop1" offset="1" stop-opacity="1" stop-color="rgb(188,195,197)"/></linearGradient><linearGradient id="Gradient21" gradientUnits="userSpaceOnUse" x1="576.034" y1="574.355" x2="557.3" y2="457.842"><stop class="stop0" offset="0" stop-opacity="1" stop-color="rgb(143,150,156)"/><stop class="stop1" offset="1" stop-opacity="1" stop-color="rgb(225,227,227)"/></linearGradient><linearGradient id="Gradient22" gradientUnits="userSpaceOnUse" x1="943.843" y1="505.04" x2="929.511" y2="499.106"><stop class="stop0" offset="0" stop-opacity="1" stop-color="rgb(73,79,89)"/><stop class="stop1" offset="1" stop-opacity="1" stop-color="rgb(109,110,112)"/></linearGradient><linearGradient id="Gradient23" gradientUnits="userSpaceOnUse" x1="918.086" y1="505.729" x2="923.413" y2="515.642"><stop class="stop0" offset="0" stop-opacity="1" stop-color="rgb(160,168,170)"/><stop class="stop1" offset="1" stop-opacity="1" stop-color="rgb(137,141,150)"/></linearGradient><linearGradient id="Gradient24" gradientUnits="userSpaceOnUse" x1="952.367" y1="568.048" x2="970.573" y2="488.218"><stop class="stop0" offset="0" stop-opacity="1" stop-color="rgb(174,181,184)"/><stop class="stop1" offset="1" stop-opacity="1" stop-color="rgb(220,223,223)"/></linearGradient><linearGradient id="Gradient25" gradientUnits="userSpaceOnUse" x1="503.44" y1="420.079" x2="547.645" y2="323.667"><stop class="stop0" offset="0" stop-opacity="1" stop-color="rgb(163,169,173)"/><stop class="stop1" offset="1" stop-opacity="1" stop-color="rgb(217,219,219)"/></linearGradient><linearGradient id="Gradient26" gradientUnits="userSpaceOnUse" x1="1502.47" y1="1250.27" x2="1431.84" y2="1162.66"><stop class="stop0" offset="0" stop-opacity="1" stop-color="rgb(147,155,162)"/><stop class="stop1" offset="1" stop-opacity="1" stop-color="rgb(202,207,207)"/></linearGradient><linearGradient id="Gradient27" gradientUnits="userSpaceOnUse" x1="1594.88" y1="1487" x2="1568.26" y2="1418.41"><stop class="stop0" offset="0" stop-opacity="1" stop-color="rgb(140,148,156)"/><stop class="stop1" offset="1" stop-opacity="1" stop-color="rgb(182,187,189)"/></linearGradient><linearGradient id="Gradient28" gradientUnits="userSpaceOnUse" x1="836.217" y1="1014.53" x2="770.346" y2="917.654"><stop class="stop0" offset="0" stop-opacity="1" stop-color="rgb(156,163,168)"/><stop class="stop1" offset="1" stop-opacity="1" stop-color="rgb(213,216,216)"/></linearGradient><linearGradient id="Gradient29" gradientUnits="userSpaceOnUse" x1="399.581" y1="1447.34" x2="440.211" y2="1373.94"><stop class="stop0" offset="0" stop-opacity="1" stop-color="rgb(151,157,165)"/><stop class="stop1" offset="1" stop-opacity="1" stop-color="rgb(181,188,190)"/></linearGradient><linearGradient id="Gradient30" gradientUnits="userSpaceOnUse" x1="660.499" y1="451.855" x2="600.298" y2="395.591"><stop class="stop0" offset="0" stop-opacity="1" stop-color="rgb(150,158,163)"/><stop class="stop1" offset="1" stop-opacity="1" stop-color="rgb(225,226,226)"/></linearGradient><linearGradient id="Gradient31" gradientUnits="userSpaceOnUse" x1="1407.14" y1="1527.34" x2="1394.99" y2="1475.32"><stop class="stop0" offset="0" stop-opacity="1" stop-color="rgb(149,156,163)"/><stop class="stop1" offset="1" stop-opacity="1" stop-color="rgb(188,193,194)"/></linearGradient><linearGradient id="Gradient32" gradientUnits="userSpaceOnUse" x1="1202.58" y1="1569.88" x2="1191.04" y2="1512.78"><stop class="stop0" offset="0" stop-opacity="1" stop-color="rgb(145,152,159)"/><stop class="stop1" offset="1" stop-opacity="1" stop-color="rgb(185,190,192)"/></linearGradient><linearGradient id="Gradient33" gradientUnits="userSpaceOnUse" x1="883.484" y1="418.575" x2="797.465" y2="341.482"><stop class="stop0" offset="0" stop-opacity="1" stop-color="rgb(203,204,205)"/><stop class="stop1" offset="1" stop-opacity="1" stop-color="rgb(255,255,255)"/></linearGradient><linearGradient id="Gradient34" gradientUnits="userSpaceOnUse" x1="882.125" y1="413.62" x2="848.677" y2="344.858"><stop class="stop0" offset="0" stop-opacity="1" stop-color="rgb(143,150,156)"/><stop class="stop1" offset="1" stop-opacity="1" stop-color="rgb(192,198,199)"/></linearGradient><linearGradient id="Gradient35" gradientUnits="userSpaceOnUse" x1="554.64" y1="1527.08" x2="574.683" y2="1451.64"><stop class="stop0" offset="0" stop-opacity="1" stop-color="rgb(146,152,160)"/><stop class="stop1" offset="1" stop-opacity="1" stop-color="rgb(201,206,206)"/></linearGradient><linearGradient id="Gradient36" gradientUnits="userSpaceOnUse" x1="743.773" y1="1575.84" x2="748.902" y2="1506.87"><stop class="stop0" offset="0" stop-opacity="1" stop-color="rgb(139,147,155)"/><stop class="stop1" offset="1" stop-opacity="1" stop-color="rgb(189,194,195)"/></linearGradient><linearGradient id="Gradient37" gradientUnits="userSpaceOnUse" x1="781.04" y1="617.812" x2="754.544" y2="463.585"><stop class="stop0" offset="0" stop-opacity="1" stop-color="rgb(161,167,172)"/><stop class="stop1" offset="1" stop-opacity="1" stop-color="rgb(201,206,207)"/></linearGradient><linearGradient id="Gradient38" gradientUnits="userSpaceOnUse" x1="1125.53" y1="527.924" x2="1145.11" y2="518.267"><stop class="stop0" offset="0" stop-opacity="1" stop-color="rgb(108,113,123)"/><stop class="stop1" offset="1" stop-opacity="1" stop-color="rgb(139,146,153)"/></linearGradient><linearGradient id="Gradient39" gradientUnits="userSpaceOnUse" x1="1110.57" y1="700.601" x2="1059.66" y2="665.938"><stop class="stop0" offset="0" stop-opacity="1" stop-color="rgb(143,151,157)"/><stop class="stop1" offset="1" stop-opacity="1" stop-color="rgb(187,193,195)"/></linearGradient><linearGradient id="Gradient40" gradientUnits="userSpaceOnUse" x1="501.546" y1="1208.27" x2="423.342" y2="1194.42"><stop class="stop0" offset="0" stop-opacity="1" stop-color="rgb(159,166,170)"/><stop class="stop1" offset="1" stop-opacity="1" stop-color="rgb(209,210,212)"/></linearGradient></defs><path transform="translate(0,0)" fill="rgb(0,0,0)" d="M 879.252 204.833 C 964.581 164.426 1066.17 139.491 1161.08 146.416 C 1180 147.867 1198.84 150.145 1217.56 153.245 C 1224.41 154.392 1251.67 160.099 1255.45 159.348 C 1341.52 142.286 1419.87 149.556 1502.88 178.916 C 1591.98 210.433 1675.83 271.056 1716.22 359.359 C 1759.46 451.335 1759.41 557.07 1725.53 652.214 C 1693.41 742.405 1625.13 827.813 1556.78 893.78 C 1539.56 910.401 1515.73 929.455 1497.2 944.874 C 1511.62 944.247 1525.03 945.318 1539.31 946.798 C 1667.38 960.068 1768.28 1029.52 1773.81 1166.93 C 1774.12 1175.81 1774.1 1184.71 1773.76 1193.59 C 1781.85 1196.78 1791.88 1204.23 1799.28 1209.19 C 1894.75 1273.11 1945.35 1392.78 1902.26 1503.48 C 1866.37 1596.19 1767.39 1661.25 1678.92 1698.19 C 1521.81 1763.81 1346.79 1794.51 1177.98 1810.69 C 1133.38 1814.96 1077.38 1818.79 1032.68 1817.85 C 833.821 1813.64 628.909 1790.75 442.544 1717.83 C 273.3 1652.22 138.969 1520.23 212.182 1326.08 C 240.729 1250.81 304.312 1196.85 373.023 1158.91 C 386.064 1151.82 418.478 1138.45 426.179 1131.94 C 423.357 1127.59 418.612 1117.75 416.033 1112.78 C 413.322 1105.58 407.943 1094.41 402.288 1089.37 C 393.542 1081.56 381.06 1086.59 371.822 1079.23 L 358.188 1093.29 C 353.488 1097.19 328.441 1121.52 325.836 1122.33 C 325.427 1112.64 342.446 1075.41 347.583 1066.44 C 381.455 1007.26 440.121 963.348 505.046 943.755 C 521.955 938.652 539.07 934.156 556.084 929.366 C 547.232 919.466 543.091 903.719 541.236 890.938 C 538.277 899.28 529.108 907.438 523.556 918.177 L 523.283 917.266 C 519.61 904.634 516.799 888.384 515.888 874.908 C 514.974 861.377 521.113 836.31 518.705 825.111 C 517.613 820.034 501.221 803.882 496.247 796.053 C 473.86 760.819 459.952 723.349 449.22 683.228 C 446.361 672.539 442.131 657.065 441.815 646.24 C 409.005 615.876 395.157 589.619 392.36 543.618 C 389.86 502.499 412.591 459.198 447.271 437.291 C 422.597 375.419 441.531 333.715 500.821 304.445 C 508.466 292.48 512.367 283.438 521.625 271.534 C 556.288 226.967 603.085 202.185 657.4 190.485 C 731.46 174.532 806.837 187.655 879.252 204.833 z"/><path transform="translate(0,0)" fill="rgb(250,250,250)" d="M 541.157 664.492 C 553.5 674.616 566.947 690.368 578.361 702.087 C 593.568 717.701 609.106 736.532 620.83 755.036 C 645.312 793.673 644.341 841.9 651.554 885.52 C 652.118 888.928 651.678 891.391 650.261 894.438 C 648.85 895.403 648.164 896.377 646.927 895.763 C 633.552 889.12 621.697 875.924 615.123 862.886 C 609.749 852.228 607.18 843.135 602.563 834.075 C 604.83 849.551 608.849 869.079 615.611 883.288 C 635.024 924.08 583.105 925.145 556.084 929.366 C 547.232 919.466 543.091 903.719 541.236 890.938 C 541.16 862.55 537.488 842.244 536.482 815.954 C 550.978 840.779 567.018 853.767 581.949 878.172 C 576.338 861.366 569.397 844.998 564.13 828.401 C 547.414 775.422 539.649 720.026 541.157 664.492 z"/><path transform="translate(0,0)" fill="rgb(250,250,250)" d="M 481.018 1183.61 C 471.987 1140.81 466.068 1090.1 492.139 1052.92 C 520.005 1013.18 552.352 993.928 596.995 979.797 C 596.781 1009.2 603.252 1034.81 619.392 1059.54 C 566.254 1080.46 536.161 1091.3 480.86 1105.4 C 481.564 1116.11 482.279 1127.48 484.341 1137.99 C 482.8 1163.31 493.347 1188.15 502.223 1211.49 C 502.958 1213.42 502.684 1211.99 502.842 1214.31 C 495.834 1208.22 488.247 1201.03 478.983 1199.73 C 477.168 1201.15 478.119 1200.48 476.127 1201.73 C 466.177 1199.16 443.024 1171.72 438.119 1162.49 C 436.036 1155.84 429.034 1139.59 426.179 1131.94 C 423.357 1127.59 418.612 1117.75 416.033 1112.78 C 413.322 1105.58 407.943 1094.41 402.288 1089.37 C 393.542 1081.56 381.06 1086.59 371.822 1079.23 C 397.512 1050.41 431.606 1026.28 466.115 1009.38 C 426.433 1059.32 445.797 1136.55 481.018 1183.61 z"/><path transform="translate(0,0)" fill="rgb(172,179,182)" d="M 484.341 1137.99 C 521.172 1132.39 558.064 1124.27 594.623 1117.02 C 600.15 1115.92 606.3 1114.33 611.61 1112.43 C 603.219 1125.27 592.991 1136.93 583.812 1149.44 C 566.897 1172.51 557.927 1194.74 536.314 1213.9 C 521.204 1195.55 516.762 1180.67 514.038 1157.76 C 507.342 1190.04 514.042 1197.76 513.351 1225.04 L 503.144 1216.79 L 502.842 1214.31 C 502.684 1211.99 502.958 1213.42 502.223 1211.49 C 493.347 1188.15 482.8 1163.31 484.341 1137.99 z"/><path transform="translate(0,0)" fill="url(#Gradient40)" d="M 435.72 1165.54 L 438.119 1162.49 C 443.024 1171.72 466.177 1199.16 476.127 1201.73 C 478.119 1200.48 477.168 1201.15 478.983 1199.73 C 488.247 1201.03 495.834 1208.22 502.842 1214.31 L 503.144 1216.79 C 499.945 1224 490.096 1234.3 484.221 1239.59 C 476.764 1235.57 466.043 1226.99 457.987 1222.17 C 443.874 1213.73 432.025 1209.07 416.946 1203.02 C 418.225 1202.8 419.76 1202.53 421.553 1202.22 C 428.683 1193.79 426.146 1180.15 433.088 1171.33 L 435.144 1168.71 L 436.24 1167.34 L 435.72 1165.54 z"/><path transform="translate(0,0)" fill="rgb(250,250,250)" d="M 435.72 1165.54 L 436.24 1167.34 L 435.144 1168.71 L 433.088 1171.33 C 426.146 1180.15 428.683 1193.79 421.553 1202.22 C 419.76 1202.53 418.225 1202.8 416.946 1203.02 C 410.716 1200.89 405.477 1199.29 399.629 1196.23 C 412.482 1186.48 423.746 1176.3 435.72 1165.54 z"/><path transform="translate(0,0)" fill="rgb(172,179,182)" d="M 1251.15 203.136 C 1259.06 199.959 1267.16 197.261 1275.39 195.055 C 1347.55 175.394 1444.13 186.284 1509.19 223.291 C 1531.04 232.173 1570.1 260.028 1588.19 275.576 C 1616.03 299.51 1640.72 339.532 1655.55 373.045 C 1692.83 460.015 1684.99 567.183 1649.18 653.558 C 1609.81 748.521 1536.62 838.07 1455.28 900.74 C 1447.97 906.368 1417.63 928.095 1410.14 931.359 L 1407 929.458 C 1435.36 899.212 1460.54 866.129 1482.14 830.731 C 1492.29 814.261 1506.65 787.338 1517.61 772.715 C 1512.63 799.648 1508.22 808.61 1498.83 833.622 C 1515.86 809.931 1527.81 794.269 1542.66 768.857 C 1580.67 703.823 1597.49 606.684 1590.67 531.778 C 1611.88 564.963 1620.85 595.192 1624.82 633.843 C 1631.54 612.584 1638.12 579.431 1639.4 557.415 C 1642.49 504.113 1628.38 444.888 1600.06 399.459 C 1591.64 385.951 1581.38 373.956 1570.9 362.124 C 1607.14 383.074 1623.7 398.781 1648.58 433.009 C 1640.25 350.373 1520.43 281.166 1444.79 274.29 C 1340.89 264.846 1241.35 314.556 1165.84 382.912 C 1152.15 395.309 1098.47 386.847 1079.78 384.146 C 1039.71 382.99 1016.85 376.293 980.663 360.734 C 993.934 359.125 1025.92 346.222 1038.7 340.065 L 1042.19 339.721 C 1042.44 339.592 1042.69 339.463 1042.94 339.334 C 1080.59 333.519 1118.59 342.551 1149.76 364.356 C 1152.66 366.386 1154.63 366.577 1157.1 365.897 L 1157.89 364.2 C 1157.54 363.474 1156.66 361.688 1156.06 361.142 C 1128.94 336.43 1092.09 311.856 1055.23 307.248 C 1059.77 304.962 1064.36 302.766 1068.99 300.66 C 1111.76 279.179 1149.73 269.774 1197.05 277.333 C 1204.21 278.94 1222.8 283.55 1229.41 279.907 L 1228.73 278.191 C 1206.7 261.579 1185.4 258.365 1158.27 257.959 C 1161.84 254.384 1162.84 253.418 1167.07 250.703 C 1214.82 213.623 1253.44 210.732 1304.96 241.568 C 1310.09 243.451 1325.26 253.994 1331.75 257.378 C 1324.98 249.758 1312.39 239.634 1304.2 232.94 C 1284.55 219.67 1272.81 212.621 1251.15 203.136 z"/><path transform="translate(0,0)" fill="rgb(250,250,250)" d="M 1251.15 203.136 C 1259.06 199.959 1267.16 197.261 1275.39 195.055 C 1347.55 175.394 1444.13 186.284 1509.19 223.291 C 1511.4 226.66 1518.26 229.916 1522.1 232.099 C 1515.38 234.488 1492.91 221.929 1485.06 219.557 C 1435.7 204.65 1381.61 198.26 1330.42 206.294 L 1337.97 208.134 C 1370.13 207.808 1440.03 228.31 1460.28 253.334 C 1436.35 249.186 1410.83 243.467 1387.12 239.403 C 1376.38 237.564 1310.73 228.754 1304.2 232.94 C 1284.55 219.67 1272.81 212.621 1251.15 203.136 z"/><path transform="translate(0,0)" fill="rgb(212,214,215)" d="M 1337.97 208.134 C 1335 208.102 1330.33 207.931 1327.67 206.747 L 1330.42 206.294 L 1337.97 208.134 z"/><path transform="translate(0,0)" fill="rgb(250,250,250)" d="M 1068.99 300.66 C 1111.76 279.179 1149.73 269.774 1197.05 277.333 C 1182.45 293.9 1176.62 300.019 1153.66 301.142 C 1136.61 301.977 1119.72 300.514 1102.6 300.334 C 1095.43 300.259 1073.04 303.144 1068.99 300.66 z"/><path transform="translate(0,0)" fill="rgb(250,250,250)" d="M 1167.07 250.703 C 1214.82 213.623 1253.44 210.732 1304.96 241.568 C 1301.13 243.528 1275.57 241.91 1268.02 242.192 C 1234.74 243.435 1202.83 246.929 1169.96 251.859 L 1167.07 250.703 z"/><path transform="translate(0,0)" fill="rgb(250,250,250)" d="M 1038.7 340.065 L 1042.19 339.721 L 1044.08 340.719 C 1042.73 340.4 1043.46 340.698 1041.99 339.555 L 1043.2 341.683 C 1041.15 347.282 1039.09 349.075 1034.45 352.959 C 1045.28 360.493 1072.43 373.514 1079.92 381.578 L 1079.78 384.146 C 1039.71 382.99 1016.85 376.293 980.663 360.734 C 993.934 359.125 1025.92 346.222 1038.7 340.065 z"/><path transform="translate(0,0)" fill="rgb(172,179,182)" d="M 683.015 1211.23 C 710.898 1227.45 740.561 1240.4 771.416 1249.81 C 821.791 1262 846.075 1265.31 897.986 1263.96 C 923.717 1261.09 940.925 1258.81 966.067 1251.46 C 964.508 1256.4 962.732 1261.47 960.744 1266.25 C 949.707 1292.82 944.103 1320.59 937.704 1348.52 C 891.661 1360.43 846.98 1369.89 799.131 1371.05 C 788.097 1371.31 777.498 1369.21 766.445 1369.54 C 836.129 1389.51 856.142 1391.99 928.691 1388.69 L 931.527 1414.66 C 855.237 1417.15 779.13 1405.76 706.907 1381.06 C 689.512 1375.27 674.431 1367.52 658.516 1362.12 L 657.199 1361.68 C 656.152 1353.02 655.958 1343.07 655.58 1334.26 C 689.872 1351.63 742.121 1359.31 780.163 1353.02 C 730.533 1349.57 703.17 1346.09 658.99 1320.54 C 657.101 1281.79 664.042 1245.47 683.015 1211.23 z"/><path transform="translate(0,0)" fill="rgb(250,250,250)" d="M 771.416 1249.81 C 821.791 1262 846.075 1265.31 897.986 1263.96 C 892.267 1287.1 749.12 1391.23 753.753 1308.11 C 755.277 1280.76 758.268 1273.91 771.416 1249.81 z"/><path transform="translate(0,0)" fill="rgb(172,179,182)" d="M 697.064 1191.12 C 713.034 1162.91 753.159 1114.5 782.537 1098.79 C 802.531 1088.1 864.532 1115.83 887.129 1123.8 C 904.951 1128.91 917.679 1132.18 936.134 1135.35 C 971.828 1139.44 1001.12 1141.2 1037.37 1134.7 C 1027.07 1148.58 1017.16 1162.75 1007.65 1177.18 C 1000.92 1187.38 986.742 1212.65 978.885 1219.08 C 965.458 1230.07 930.224 1238.11 913.4 1240.51 C 890.347 1243.8 848.137 1243.97 824.793 1239.99 C 800.81 1236.83 777.322 1230.65 754.889 1221.6 C 740.857 1217.01 710.281 1199.14 697.064 1191.12 z"/><path transform="translate(0,0)" fill="rgb(172,179,182)" d="M 936.134 1135.35 C 971.828 1139.44 1001.12 1141.2 1037.37 1134.7 C 1027.07 1148.58 1017.16 1162.75 1007.65 1177.18 C 1000.92 1187.38 986.742 1212.65 978.885 1219.08 C 965.458 1230.07 930.224 1238.11 913.4 1240.51 C 890.347 1243.8 848.137 1243.97 824.793 1239.99 C 827.241 1233.16 849.399 1219.81 856.594 1214.69 C 868.181 1206.45 938.571 1145.53 936.134 1135.35 z"/><path transform="translate(0,0)" fill="rgb(250,250,250)" d="M 887.129 1123.8 C 904.951 1128.91 917.679 1132.18 936.134 1135.35 C 938.571 1145.53 868.181 1206.45 856.594 1214.69 C 849.399 1219.81 827.241 1233.16 824.793 1239.99 C 800.81 1236.83 777.322 1230.65 754.889 1221.6 C 764.857 1216.08 768.885 1214.48 778.812 1207.25 C 815.677 1180.39 853.171 1154.39 887.129 1123.8 z"/><path transform="translate(0,0)" fill="rgb(172,179,182)" d="M 1034.04 395.438 C 1094.22 368.105 1148.03 417.649 1173.65 468.756 C 1195.54 514.079 1188.39 552.947 1174.06 599.078 C 1195.2 576.763 1199.23 542.785 1208.01 517.315 C 1219.22 545.996 1214.46 582.589 1202.6 610.396 C 1194.09 630.345 1183.31 643.73 1167.86 658.62 C 1170.45 648.949 1172.72 633.98 1175.76 625.745 C 1166.57 635.763 1157.19 646.61 1147.01 655.47 C 1142.09 650.574 1138.14 646.799 1132.88 642.288 C 1128.25 641.286 1125.9 639.839 1122.03 642.069 C 1129.58 649.567 1133.44 652.939 1138.3 662.366 C 1128.79 683.685 1106.36 704.324 1090.11 720.594 C 1084.52 726.195 1074.54 736.599 1068.38 740.921 C 1062.5 728.925 1059.35 709.389 1048.86 701.628 C 1047.82 701.489 1046.31 701.223 1045.31 701.219 L 1042.64 697.562 C 1046.26 698.005 1047.33 699.013 1051.31 698.759 L 1052.11 697.49 C 1051.16 694.316 1040.82 685.59 1037.57 681.433 L 1039.18 678.719 C 1051.54 657.251 1072.15 631.961 1086.17 610.783 C 1096.98 594.463 1108.07 572.274 1120.22 557.56 C 1124.77 552.059 1166.47 532.625 1168.96 526.843 L 1163.18 528.174 C 1146.7 531.431 1141.72 534.866 1127.92 544.404 C 1131.74 528.036 1136.82 524.882 1132.92 507.338 C 1130.3 499.316 1125.28 493.676 1119.83 487.551 C 1112.99 481.842 1103.75 476.276 1096.14 471.383 C 1082.33 463.527 1076.82 461.664 1061.68 457.022 C 1059.23 447.666 1057.42 440.373 1052.03 432.033 C 1048.26 426.323 1043.54 421.307 1038.06 417.205 C 1032.38 412.968 1022.21 409.767 1020.68 404.932 C 1023.2 400.218 1029.33 397.603 1034.04 395.438 z"/><path transform="translate(0,0)" fill="url(#Gradient39)" d="M 1103.13 633.247 C 1109.2 636.767 1112.31 641 1119.58 643.77 L 1120.91 641.711 L 1122.03 642.069 C 1129.58 649.567 1133.44 652.939 1138.3 662.366 C 1128.79 683.685 1106.36 704.324 1090.11 720.594 C 1084.52 726.195 1074.54 736.599 1068.38 740.921 C 1062.5 728.925 1059.35 709.389 1048.86 701.628 C 1047.82 701.489 1046.31 701.223 1045.31 701.219 L 1042.64 697.562 C 1046.26 698.005 1047.33 699.013 1051.31 698.759 L 1052.11 697.49 C 1051.16 694.316 1040.82 685.59 1037.57 681.433 L 1039.18 678.719 C 1040.38 681.427 1040.26 681.254 1042.57 683.12 C 1056.08 678.686 1055.47 675.443 1067.03 669.148 C 1072.39 666.23 1083.43 664.161 1089.52 660.906 C 1092.55 659.291 1095.25 657.114 1097.47 654.491 C 1102.16 648.87 1103.94 640.464 1103.13 633.247 z"/><path transform="translate(0,0)" fill="rgb(250,250,250)" d="M 1034.04 395.438 C 1094.22 368.105 1148.03 417.649 1173.65 468.756 C 1173.59 471.031 1173.67 473.252 1173.88 475.518 C 1171.95 475.496 1166.49 467.416 1165.04 465.489 C 1148.95 444.114 1128.48 434.816 1104.55 425.22 C 1089.98 419.375 1074.16 408.84 1058.44 403.551 C 1051.87 401.339 1039.31 398.574 1034.04 395.438 z"/><path transform="translate(0,0)" fill="rgb(250,250,250)" d="M 1168.96 526.843 L 1169.7 525.521 L 1170.45 526.912 C 1168.63 532.913 1166.93 531.025 1165.31 533.229 C 1153.56 549.22 1154.38 569.066 1128.48 554.788 C 1118.7 558.201 1091.51 601.979 1090.09 610.245 C 1092.08 611.646 1092.24 611.846 1094.41 612.906 C 1093.66 617.886 1092.74 618.999 1090.32 623.585 C 1090.83 628.327 1093.94 628.677 1098.15 630.759 C 1099.89 631.739 1101.25 632.68 1103.13 633.247 C 1103.94 640.464 1102.16 648.87 1097.47 654.491 C 1095.25 657.114 1092.55 659.291 1089.52 660.906 C 1083.43 664.161 1072.39 666.23 1067.03 669.148 C 1055.47 675.443 1056.08 678.686 1042.57 683.12 C 1040.26 681.254 1040.38 681.427 1039.18 678.719 C 1051.54 657.251 1072.15 631.961 1086.17 610.783 C 1096.98 594.463 1108.07 572.274 1120.22 557.56 C 1124.77 552.059 1166.47 532.625 1168.96 526.843 z"/><path transform="translate(0,0)" fill="rgb(212,214,215)" d="M 1087.54 442.609 C 1121.7 447.605 1131.44 447.295 1156.09 476.078 C 1157.65 477.9 1157.44 477.692 1157.51 479.614 C 1155.08 482.053 1155.39 482.298 1152.31 483.395 L 1152.21 482.264 L 1155.61 479.776 C 1153.62 470.983 1113.81 435.956 1104.46 452.018 C 1103.91 452.962 1103.8 460.866 1103.17 462.556 C 1101.94 466.495 1098.38 465.99 1098.42 470.535 C 1103.26 473.626 1111.46 479.194 1116.35 481.413 C 1128.35 477.537 1128.98 472.667 1141.6 477.675 L 1141.36 478.659 C 1131.59 480.648 1126.92 475.946 1119.57 484.202 L 1120.51 486.4 L 1119.83 487.551 C 1112.99 481.842 1103.75 476.276 1096.14 471.383 C 1098.23 461.936 1090.91 455.295 1087.54 442.609 z"/><path transform="translate(0,0)" fill="url(#Gradient38)" d="M 1132.92 507.338 L 1136.9 506.162 C 1140.47 508.391 1159.83 521.403 1160.5 523.694 C 1154.81 523.239 1152.46 516.977 1147.93 517.386 C 1147.31 521.214 1146.01 527.333 1147.56 530.404 C 1149.52 529.574 1159.1 525.935 1160.62 525.945 L 1163.18 528.174 C 1146.7 531.431 1141.72 534.866 1127.92 544.404 C 1131.74 528.036 1136.82 524.882 1132.92 507.338 z"/><path transform="translate(0,0)" fill="rgb(115,122,128)" d="M 1098.15 630.759 C 1099.97 628.199 1099.93 628.395 1102.68 626.781 C 1108.46 625.944 1117.45 631.159 1124.9 632.855 L 1132.88 642.288 C 1128.25 641.286 1125.9 639.839 1122.03 642.069 L 1120.91 641.711 L 1119.58 643.77 C 1112.31 641 1109.2 636.767 1103.13 633.247 C 1101.25 632.68 1099.89 631.739 1098.15 630.759 z"/><path transform="translate(0,0)" fill="rgb(172,179,182)" d="M 938.604 978.99 C 962.327 987.255 982.798 993.121 1007.78 996.568 C 1026.24 998.415 1042.05 998.171 1060.63 997.941 C 1085.55 995.622 1104.98 992.594 1129.88 987.87 C 1124.6 1027.56 1107.79 1045.98 1084.04 1076.94 C 1078.48 1084.19 1072.35 1091.12 1065.19 1096.84 C 1035.28 1118.07 984.901 1120.31 949.632 1114.44 C 928.163 1111.41 913.467 1107.96 892.94 1101.67 C 877.889 1098.52 852.421 1084.89 839.035 1076.75 C 873.408 1045.66 907.738 1013.59 938.604 978.99 z"/><path transform="translate(0,0)" fill="rgb(172,179,182)" d="M 938.604 978.99 C 962.327 987.255 982.798 993.121 1007.78 996.568 C 1000.07 1001.7 970.444 1031.14 963.571 1037.92 C 948.836 1052.23 933.882 1066.32 918.715 1080.18 C 912.534 1085.89 899.87 1098.27 892.94 1101.67 C 877.889 1098.52 852.421 1084.89 839.035 1076.75 C 873.408 1045.66 907.738 1013.59 938.604 978.99 z"/><path transform="translate(0,0)" fill="rgb(250,250,250)" d="M 1007.78 996.568 C 1026.24 998.415 1042.05 998.171 1060.63 997.941 C 1045.69 1018.76 1028.66 1035.87 1011.46 1053.96 C 998.905 1067.17 956.015 1101.86 949.632 1114.44 C 928.163 1111.41 913.467 1107.96 892.94 1101.67 C 899.87 1098.27 912.534 1085.89 918.715 1080.18 C 933.882 1066.32 948.836 1052.23 963.571 1037.92 C 970.444 1031.14 1000.07 1001.7 1007.78 996.568 z"/><path transform="translate(0,0)" fill="url(#Gradient37)" d="M 657.227 479.55 C 679.249 473.332 711.706 480.888 731.072 492.118 C 745.111 500.26 751.113 506.07 760.235 519.134 C 749.679 527.148 715.703 560.621 721.985 574.681 C 725.411 575.797 723.676 575.716 727.375 574.577 C 728.969 572.917 733.853 561.518 735.1 558.115 C 749.628 518.453 839.345 504.735 839.492 559.729 C 839.508 565.61 836.26 578.393 837.475 583.216 C 846.051 584.364 850.269 569.251 850.26 562.094 C 848.393 551.825 845.232 542.088 842.227 532.103 C 860.876 531.557 879.453 529.625 896.245 538.391 C 897.093 538.864 897.935 539.345 898.773 539.836 C 922.485 553.796 923.114 576.58 909.885 598.774 C 897.992 598.898 873.165 603.39 860.11 605.444 C 798.533 615.131 749.952 614.983 690.136 594.741 C 679.394 591.106 649.907 583.119 641.083 577.989 C 635.414 569.304 652.829 552.055 659.032 546.575 C 671.015 535.988 681.294 535.761 696.362 537.215 C 695.504 535.037 694.539 532.903 693.47 530.82 C 687.547 519.208 680.708 515.094 668.996 511.294 C 662.815 512.511 658.013 514.942 651.87 516.353 C 647.96 516.501 647.297 517.471 644.222 519.889 C 635.979 521.012 626.323 517.287 620.542 521.006 C 606.307 526.333 583.13 534.808 566.612 530.797 C 564.563 530.299 563.747 527.492 563.02 525.736 C 561.382 525.48 561.928 525.34 560.291 523.469 C 560.368 513.56 562.018 518.901 563.94 513.467 L 572.946 514.087 C 583.397 513.999 589.971 513.611 600.252 512.112 C 603.605 509.698 609.991 503.315 613.634 500.186 C 625.917 489.638 641.142 481.951 657.227 479.55 z"/><path transform="translate(0,0)" fill="rgb(250,250,250)" d="M 600.252 512.112 C 603.605 509.698 609.991 503.315 613.634 500.186 C 625.917 489.638 641.142 481.951 657.227 479.55 L 658.583 480.611 C 653.896 481.561 646.49 482.647 643.252 485.767 C 642.065 489.011 642.065 488.762 642.74 492.142 C 646.033 493.239 652.536 489.004 657.041 489.005 C 654.107 490.508 651.646 491.751 648.443 492.281 C 638.142 493.985 624.835 508.951 617.955 517.489 C 619.028 520.041 618.458 519.245 620.542 521.006 C 606.307 526.333 583.13 534.808 566.612 530.797 C 564.563 530.299 563.747 527.492 563.02 525.736 C 561.382 525.48 561.928 525.34 560.291 523.469 C 560.368 513.56 562.018 518.901 563.94 513.467 L 572.946 514.087 C 583.397 513.999 589.971 513.611 600.252 512.112 z"/><path transform="translate(0,0)" fill="rgb(149,156,163)" d="M 563.94 513.467 L 572.946 514.087 C 567.596 517.458 566.013 520.147 563.02 525.736 C 561.382 525.48 561.928 525.34 560.291 523.469 C 560.368 513.56 562.018 518.901 563.94 513.467 z"/><path transform="translate(0,0)" fill="rgb(250,250,250)" d="M 842.227 532.103 C 860.876 531.557 879.453 529.625 896.245 538.391 C 889.626 546.012 880.142 542.766 875.018 546.322 C 866.097 552.513 863.315 556.297 853.053 562.264 C 851.804 562.303 851.281 562.502 850.26 562.094 C 848.393 551.825 845.232 542.088 842.227 532.103 z"/><path transform="translate(0,0)" fill="url(#Gradient36)" d="M 688.813 1470.52 C 726.401 1443.79 756.088 1429.32 803.934 1437.32 C 828.481 1441.42 871.499 1454.2 888.347 1472.57 C 884.836 1477.63 878.712 1485.24 874.078 1489.24 C 868.872 1495.97 857.775 1511 852.352 1516.29 C 844.164 1524.16 834.141 1531.52 824.244 1537.08 C 800.04 1550.65 775.243 1565.14 748.775 1573.74 C 718.198 1583.68 688.066 1568.18 667.845 1545.53 C 663.439 1540.6 660.472 1534.69 656.365 1529.55 C 654.421 1529.81 653.659 1529.89 651.704 1529.88 C 644.829 1520.96 654.166 1506.69 660.022 1499.72 C 669.175 1486.6 675.991 1479.92 688.813 1470.52 z"/><path transform="translate(0,0)" fill="rgb(172,179,182)" d="M 688.813 1470.52 C 726.401 1443.79 756.088 1429.32 803.934 1437.32 C 828.481 1441.42 871.499 1454.2 888.347 1472.57 C 884.836 1477.63 878.712 1485.24 874.078 1489.24 C 872.283 1489.18 870.971 1489.25 869.436 1489.51 C 842.118 1494.29 704.906 1483.63 688.813 1470.52 z"/><path transform="translate(0,0)" fill="rgb(250,250,250)" d="M 688.813 1470.52 C 704.906 1483.63 842.118 1494.29 869.436 1489.51 C 870.971 1489.25 872.283 1489.18 874.078 1489.24 C 868.872 1495.97 857.775 1511 852.352 1516.29 C 810.475 1513.77 771.351 1512.91 729.322 1508.18 C 713.604 1506.41 671.61 1499.07 660.022 1499.72 C 669.175 1486.6 675.991 1479.92 688.813 1470.52 z"/><path transform="translate(0,0)" fill="url(#Gradient35)" d="M 547.489 1400.27 C 599.511 1388.51 642.826 1393.02 690.796 1420.14 C 698.922 1424.73 707.654 1433.06 713.029 1440.72 C 701.699 1449.97 689.985 1457.05 679.023 1466.86 C 675.524 1470.2 671.813 1473.62 668.438 1477.06 C 663.108 1483.55 654.405 1494.81 646.358 1497.85 C 625.439 1505.74 602.786 1510.12 580.973 1514.99 C 566.58 1518.21 551.865 1522.35 537.184 1523.21 C 529.243 1523.5 521.815 1520.68 514.843 1517.24 C 480.44 1500.28 462.739 1458.95 493.204 1427.7 C 506.237 1414.21 530.07 1405.66 547.489 1400.27 z"/><path transform="translate(0,0)" fill="rgb(172,179,182)" d="M 547.489 1400.27 C 599.511 1388.51 642.826 1393.02 690.796 1420.14 C 698.922 1424.73 707.654 1433.06 713.029 1440.72 C 701.699 1449.97 689.985 1457.05 679.023 1466.86 C 637.77 1456.01 599.155 1441.23 564.016 1416.94 C 557.568 1412.48 549.029 1407.84 547.489 1400.27 z"/><path transform="translate(0,0)" fill="rgb(250,250,250)" d="M 493.204 1427.7 C 506.237 1414.21 530.07 1405.66 547.489 1400.27 C 549.029 1407.84 557.568 1412.48 564.016 1416.94 C 599.155 1441.23 637.77 1456.01 679.023 1466.86 C 675.524 1470.2 671.813 1473.62 668.438 1477.06 C 623.897 1477.45 564.817 1461.15 524.121 1442.88 C 513.772 1438.23 504.221 1432.24 494.449 1428.2 L 493.204 1427.7 z"/><path transform="translate(0,0)" fill="rgb(250,250,250)" d="M 884.386 1492.48 C 900.104 1475.9 920.049 1461.84 953.136 1462.08 C 1000.32 1462.42 1072.56 1477.06 1116.89 1498.34 C 1117.07 1498.57 1117.24 1498.81 1117.42 1499.04 C 1116.08 1501.91 1116.95 1500.6 1114.11 1502.56 C 1100.91 1513.75 1090.67 1522.54 1076.12 1532.05 C 1033.7 1559.09 978.36 1592.46 926.066 1580.46 C 901.332 1574.79 874.562 1560.51 864.392 1535.92 L 864.162 1535 L 863.802 1533.47 C 859.702 1516.67 873.799 1503.96 884.386 1492.48 z"/><path transform="translate(0,0)" fill="rgb(172,179,182)" d="M 884.386 1492.48 C 900.104 1475.9 920.049 1461.84 953.136 1462.08 C 1000.32 1462.42 1072.56 1477.06 1116.89 1498.34 C 1117.07 1498.57 1117.24 1498.81 1117.42 1499.04 C 1116.08 1501.91 1116.95 1500.6 1114.11 1502.56 C 1103.4 1499.4 1072.33 1504.24 1059.02 1505.01 C 1024.62 1506.98 910.103 1508.78 884.386 1492.48 z"/><path transform="translate(0,0)" fill="rgb(172,179,182)" d="M 864.392 1535.92 C 909.516 1537.47 944.297 1538.29 989.692 1536.69 C 1001.63 1536.26 1013.55 1535.59 1025.46 1534.7 C 1038.93 1533.57 1064.33 1529.84 1076.12 1532.05 C 1033.7 1559.09 978.36 1592.46 926.066 1580.46 C 901.332 1574.79 874.562 1560.51 864.392 1535.92 z"/><path transform="translate(0,0)" fill="url(#Gradient34)" d="M 699.672 451.669 C 711.583 429.687 797.331 364.395 821.115 348.16 C 830.782 341.564 840.833 335.55 851.215 330.15 C 885.476 312.09 936.886 297.677 974.967 309.44 C 982.363 311.072 990.971 313.611 997.888 316.673 C 1014 323.191 1024.16 331.012 1038.7 340.065 C 1025.92 346.222 993.934 359.125 980.663 360.734 C 976.67 359.302 972.938 357.93 969.008 356.33 C 954.888 362.095 941.062 368.779 926.987 374.87 C 916.217 379.53 900.646 383.866 890.898 388.813 L 896.221 402.089 C 871.736 397.594 873.704 394.168 853.691 384.511 C 856.93 389.618 859.826 394.144 862.684 399.485 C 851.185 424.95 807.962 455.387 781.523 464.413 C 750.468 475.015 743.07 473.829 713.76 461.564 C 733.03 452.118 750.588 442.839 765.675 426.81 C 766.314 424.127 766.635 425.152 765.64 423.335 C 752.177 435.382 718.205 447.365 699.672 451.669 z"/><path transform="translate(0,0)" fill="url(#Gradient33)" d="M 699.672 451.669 C 711.583 429.687 797.331 364.395 821.115 348.16 C 830.782 341.564 840.833 335.55 851.215 330.15 C 885.476 312.09 936.886 297.677 974.967 309.44 L 976.054 310.315 C 977.246 311.26 977.94 311.764 979.18 312.589 C 969.551 317.471 968.353 316.285 959.645 317.821 C 933.431 319.047 895.096 322.779 870.944 332.832 L 867.803 334.114 C 849.332 371.081 820.317 382.8 787.891 405.311 C 779.696 411 771.504 414.98 765.64 423.335 C 752.177 435.382 718.205 447.365 699.672 451.669 z"/><path transform="translate(0,0)" fill="rgb(212,214,215)" d="M 974.967 309.44 C 982.363 311.072 990.971 313.611 997.888 316.673 C 992.033 320.775 968.253 317.968 959.645 317.821 C 968.353 316.285 969.551 317.471 979.18 312.589 C 977.94 311.764 977.246 311.26 976.054 310.315 L 974.967 309.44 z"/><path transform="translate(0,0)" fill="rgb(250,250,250)" d="M 1132.62 1497.9 C 1171.01 1464.97 1205.95 1441.36 1259.24 1443.17 C 1272.75 1443.63 1295.23 1450.62 1305.69 1459.97 C 1306.98 1461.13 1306.41 1461.98 1306.26 1464.33 C 1305.94 1475.92 1304.52 1486.04 1302.48 1497.45 C 1298.14 1512.54 1293.53 1537.07 1276.9 1538.26 C 1268.57 1538.85 1258.48 1550.42 1250.45 1553.35 C 1196.39 1582.3 1149.48 1585.58 1098.36 1549.45 C 1093.52 1546.03 1088.04 1542.44 1083.74 1538.33 C 1087.44 1534.47 1088.77 1532.82 1093.29 1529.81 C 1104.89 1519.47 1120.3 1507.67 1132.62 1497.9 z"/><path transform="translate(0,0)" fill="url(#Gradient32)" d="M 1302.48 1497.45 C 1298.14 1512.54 1293.53 1537.07 1276.9 1538.26 C 1268.57 1538.85 1258.48 1550.42 1250.45 1553.35 C 1196.39 1582.3 1149.48 1585.58 1098.36 1549.45 C 1093.52 1546.03 1088.04 1542.44 1083.74 1538.33 C 1087.44 1534.47 1088.77 1532.82 1093.29 1529.81 C 1095.66 1530.85 1104.96 1530.29 1108.28 1530.16 C 1153.18 1528.32 1198.51 1521.19 1242.46 1512.07 C 1259.69 1508.49 1286.02 1499.21 1302.48 1497.45 z"/><path transform="translate(0,0)" fill="rgb(172,179,182)" d="M 1132.62 1497.9 C 1171.01 1464.97 1205.95 1441.36 1259.24 1443.17 C 1272.75 1443.63 1295.23 1450.62 1305.69 1459.97 C 1306.98 1461.13 1306.41 1461.98 1306.26 1464.33 C 1288.18 1467.81 1270.23 1474.77 1252.42 1479.59 C 1235.64 1484.13 1146.65 1506.21 1133.41 1498.43 C 1133.13 1498.27 1132.88 1498.08 1132.62 1497.9 z"/><path transform="translate(0,0)" fill="rgb(172,179,182)" d="M 1147.18 874.416 C 1170.58 869.212 1188.68 863.219 1211.41 856.232 C 1203.63 876.534 1196.34 894.898 1186.35 914.201 C 1175.28 935.58 1168.39 948.074 1145.13 957.906 C 1116.35 970.073 1083.16 975.659 1051.92 975.019 C 1038.06 975.097 1027.09 974.598 1013.38 972.649 C 994.754 969.432 976.009 964.308 959.389 955.171 C 971.468 932.793 998.446 895.021 1013.6 874.857 C 1050.11 880.34 1066.63 880.924 1103.69 880.211 C 1118.22 878.518 1132.72 876.586 1147.18 874.416 z"/><path transform="translate(0,0)" fill="rgb(172,179,182)" d="M 1013.6 874.857 C 1050.11 880.34 1066.63 880.924 1103.69 880.211 C 1098.88 884.218 1085.24 899.642 1079.82 905.26 C 1064.53 920.934 1049.15 936.519 1033.67 952.016 C 1029.61 956.148 1017.44 969.086 1013.54 971.875 L 1013.38 972.649 C 994.754 969.432 976.009 964.308 959.389 955.171 C 971.468 932.793 998.446 895.021 1013.6 874.857 z"/><path transform="translate(0,0)" fill="rgb(250,250,250)" d="M 1103.69 880.211 C 1118.22 878.518 1132.72 876.586 1147.18 874.416 L 1149.25 875.682 C 1147.38 881.196 1135.92 893.437 1132.11 898.902 C 1128.57 901.303 1127.06 903.363 1124.2 906.598 C 1100.93 926.483 1079.36 953.693 1056.01 974.043 C 1056 974.046 1052.26 974.938 1051.92 975.019 C 1038.06 975.097 1027.09 974.598 1013.38 972.649 L 1013.54 971.875 C 1017.44 969.086 1029.61 956.148 1033.67 952.016 C 1049.15 936.519 1064.53 920.934 1079.82 905.26 C 1085.24 899.642 1098.88 884.218 1103.69 880.211 z"/><path transform="translate(0,0)" fill="rgb(115,122,128)" d="M 1132.11 898.902 C 1131.05 902.962 1127.94 904.923 1124.2 906.598 C 1127.06 903.363 1128.57 901.303 1132.11 898.902 z"/><path transform="translate(0,0)" fill="url(#Gradient31)" d="M 1317.38 1471.17 C 1321.34 1459.31 1330.82 1432.79 1341.79 1426.25 C 1375.38 1406.19 1436.33 1404.76 1469.34 1426.42 C 1478.98 1434.69 1482.73 1439.87 1487.8 1451.69 C 1493.47 1465.76 1494.73 1473.38 1493.93 1488.74 C 1480 1511.07 1447.8 1520.42 1423.21 1525.99 C 1396.08 1532.13 1359.73 1538.66 1332.54 1533.03 C 1323.78 1531.22 1313.77 1526.26 1305.91 1522.12 C 1309.3 1513.32 1310.41 1509.3 1312.4 1500.07 C 1313.84 1489.8 1315.36 1481.28 1317.38 1471.17 z"/><path transform="translate(0,0)" fill="rgb(172,179,182)" d="M 1317.38 1471.17 C 1321.34 1459.31 1330.82 1432.79 1341.79 1426.25 C 1375.38 1406.19 1436.33 1404.76 1469.34 1426.42 C 1456.96 1431.81 1444.87 1437.95 1432.49 1443.07 C 1403.72 1454.91 1373.65 1463.27 1342.9 1467.96 C 1336.15 1468.97 1323.56 1471.09 1317.38 1471.17 z"/><path transform="translate(0,0)" fill="rgb(250,250,250)" d="M 1469.34 1426.42 C 1478.98 1434.69 1482.73 1439.87 1487.8 1451.69 C 1431.12 1473.7 1372.35 1489.91 1312.4 1500.07 C 1313.84 1489.8 1315.36 1481.28 1317.38 1471.17 C 1323.56 1471.09 1336.15 1468.97 1342.9 1467.96 C 1373.65 1463.27 1403.72 1454.91 1432.49 1443.07 C 1444.87 1437.95 1456.96 1431.81 1469.34 1426.42 z"/><path transform="translate(0,0)" fill="url(#Gradient30)" d="M 609.556 493.292 C 604.086 500.462 598.252 509.134 588.825 510.007 C 576.86 511.115 559.743 511.826 549.607 504.617 C 542.426 499.509 536.902 490.193 535.893 482.285 C 531.76 449.924 573.807 439.298 591.228 422.747 C 596.032 418.182 600.788 396.001 607.914 386.646 C 621.709 368.537 636.61 354.773 659.905 350.926 C 686.187 346.585 722.901 356.116 743.868 371.906 C 746.268 373.74 748.143 375.174 750.403 377.226 C 738.827 393.058 692.267 445.48 676.335 453.935 C 674.583 446.918 672.294 433.836 667.445 429.27 C 662.444 427.377 658.663 426.399 653.439 427.944 L 652.216 429.593 L 652.759 431.47 C 654.969 430.688 654.914 430.628 657.308 430.62 C 661.47 440.938 661.499 453.045 660.971 463.906 C 650.404 468.266 617.784 485.429 609.556 493.292 z"/><path transform="translate(0,0)" fill="rgb(149,156,163)" d="M 694.591 404.038 C 697.653 402.05 701.982 397.612 704.99 395.058 L 730.947 373.385 C 735.651 369.509 738.295 371.464 743.868 371.906 C 746.268 373.74 748.143 375.174 750.403 377.226 C 738.827 393.058 692.267 445.48 676.335 453.935 C 674.583 446.918 672.294 433.836 667.445 429.27 C 662.444 427.377 658.663 426.399 653.439 427.944 L 652.216 429.593 L 652.759 431.47 C 654.969 430.688 654.914 430.628 657.308 430.62 C 661.47 440.938 661.499 453.045 660.971 463.906 C 650.404 468.266 617.784 485.429 609.556 493.292 L 607.625 492.883 C 604.495 497.11 597.197 501.205 592.775 496.51 C 587.395 490.798 587.381 480.029 587.392 472.499 C 595.244 468.5 625.754 453.92 629.917 448.173 C 643.096 429.983 639.013 423.448 665.886 416.557 C 666.245 417.095 666.904 417.357 667.438 417.721 C 677.794 414.754 685.482 409.574 694.591 404.038 z"/><path transform="translate(0,0)" fill="rgb(172,179,182)" d="M 665.886 416.557 C 677.192 408.022 674.601 400.536 694.591 404.038 C 685.482 409.574 677.794 414.754 667.438 417.721 C 666.904 417.357 666.245 417.095 665.886 416.557 z"/><path transform="translate(0,0)" fill="rgb(172,179,182)" d="M 629.334 390.425 C 637.499 395.09 630.627 395.542 645.458 394.139 C 641.359 396.029 632.807 400.123 628.415 399.777 C 628.05 398.176 627.791 396.797 627.512 395.179 L 625.728 400.473 C 622.405 407.342 621.67 409.078 616.779 414.874 C 617.239 411.447 626.565 393.762 629.334 390.425 z"/><path transform="translate(0,0)" fill="rgb(250,250,250)" d="M 463.772 1339.95 C 504.248 1339.76 547.568 1351.48 579.281 1377.26 C 555.213 1383.86 532.993 1389.34 511.595 1402.64 C 499.038 1410.65 495.161 1413.32 484.955 1423.88 C 474.866 1435.37 473.523 1439.6 467.222 1453.57 C 456.726 1456.16 444.256 1459.03 434.333 1460.24 C 406.447 1463.65 388.068 1437.19 369.798 1420.93 C 367.303 1418.71 359.005 1422.2 353.947 1418.01 C 346.309 1393.86 389.434 1362.99 407.001 1353.28 C 431.11 1342.02 437.067 1339.73 463.772 1339.95 z"/><path transform="translate(0,0)" fill="url(#Gradient29)" d="M 467.222 1453.57 C 456.726 1456.16 444.256 1459.03 434.333 1460.24 C 406.447 1463.65 388.068 1437.19 369.798 1420.93 C 367.303 1418.71 359.005 1422.2 353.947 1418.01 C 346.309 1393.86 389.434 1362.99 407.001 1353.28 C 412.18 1357.4 416.551 1367.13 420.984 1372.37 C 436.318 1390.51 461.583 1417.6 484.955 1423.88 C 474.866 1435.37 473.523 1439.6 467.222 1453.57 z"/><path transform="translate(0,0)" fill="rgb(172,179,182)" d="M 463.772 1339.95 C 504.248 1339.76 547.568 1351.48 579.281 1377.26 C 555.213 1383.86 532.993 1389.34 511.595 1402.64 C 496.882 1386.45 467.888 1362.26 463.772 1339.95 z"/><path transform="translate(0,0)" fill="url(#Gradient28)" d="M 903.207 872.622 C 908.033 864.628 911.83 855.158 917.949 848.649 C 921.103 845.295 924.633 845.801 929.198 845.827 L 928.943 850.052 L 930.989 857.435 L 932.783 862.334 C 935.942 897.135 934.578 908.689 914.072 935.889 C 906.061 946.509 897.788 956.928 889.26 967.137 C 850.051 1014.09 809.906 1042.75 747.305 1046.92 C 707.419 1049.58 651.067 1047.17 630.545 1006.82 C 625.87 993.08 626.848 988.504 635.061 977.254 C 660.454 1011.74 723.234 1004.61 760.476 1002.24 C 772.216 1001.49 799.172 994.193 809.353 987.896 C 833.513 972.952 852.369 945.687 869.568 923.286 L 877.634 913.002 L 878.303 925.539 C 878.597 929.641 878.342 937.053 882.578 938.739 C 888.479 931.476 882.51 912.892 885.878 902.058 C 889.327 890.965 895.798 881.464 903.207 872.622 z"/><path transform="translate(0,0)" fill="rgb(250,250,250)" d="M 869.568 923.286 C 883.262 940.955 829.669 987.477 816.413 998.083 C 797.547 1013.18 768.893 1014.62 746.34 1018.23 C 733.468 1017.02 712.946 1020.36 697.26 1018.69 C 670.45 1015.83 656.529 1005.48 630.545 1006.82 C 625.87 993.08 626.848 988.504 635.061 977.254 C 660.454 1011.74 723.234 1004.61 760.476 1002.24 C 772.216 1001.49 799.172 994.193 809.353 987.896 C 833.513 972.952 852.369 945.687 869.568 923.286 z"/><path transform="translate(0,0)" fill="rgb(172,179,182)" d="M 877.634 913.002 L 878.303 925.539 C 875.629 942.888 865.555 960.086 852.548 971.355 C 839.404 982.743 816.65 1004.63 801.682 1011.87 L 803.725 1009.7 C 792.197 1009.81 759.185 1023 746.34 1018.23 C 768.893 1014.62 797.547 1013.18 816.413 998.083 C 829.669 987.477 883.262 940.955 869.568 923.286 L 877.634 913.002 z"/><path transform="translate(0,0)" fill="rgb(212,214,215)" d="M 903.207 872.622 C 908.033 864.628 911.83 855.158 917.949 848.649 C 921.103 845.295 924.633 845.801 929.198 845.827 L 928.943 850.052 L 930.989 857.435 C 921.679 858.141 912.059 863.805 905.962 870.838 L 904.881 872.11 L 903.207 872.622 z"/><path transform="translate(0,0)" fill="url(#Gradient27)" d="M 1473 1411.1 L 1471.83 1409.91 C 1472.43 1408.31 1472.96 1407.92 1474.57 1406.97 C 1508.25 1387.04 1544.61 1371.91 1583.76 1377.79 C 1600.91 1380.11 1613.69 1383.78 1628.93 1392.46 C 1640.35 1399.97 1649.22 1405.56 1654.72 1418.65 C 1643.51 1438.43 1626.15 1458.71 1608.42 1473.05 C 1604.24 1476.43 1595.4 1476.76 1594.64 1481.99 C 1590.93 1507.41 1548.92 1488.73 1534.87 1484.91 C 1524.41 1482.06 1512.41 1478.04 1504.23 1474.39 C 1502.05 1465.1 1500.78 1459 1497.03 1450.13 C 1494.5 1444.56 1488.51 1434.67 1485.32 1429 C 1482.1 1424.72 1474.78 1417.97 1473.15 1414.64 L 1473 1411.1 z"/><path transform="translate(0,0)" fill="rgb(250,250,250)" d="M 1473 1411.1 L 1471.83 1409.91 C 1472.43 1408.31 1472.96 1407.92 1474.57 1406.97 C 1508.25 1387.04 1544.61 1371.91 1583.76 1377.79 C 1600.91 1380.11 1613.69 1383.78 1628.93 1392.46 C 1600.35 1414.23 1567.3 1424.54 1534.02 1437.41 C 1525.99 1440.51 1503.3 1445.93 1497.03 1450.13 C 1494.5 1444.56 1488.51 1434.67 1485.32 1429 C 1482.1 1424.72 1474.78 1417.97 1473.15 1414.64 L 1473 1411.1 z"/><path transform="translate(0,0)" fill="rgb(172,179,182)" d="M 1473 1411.1 L 1471.83 1409.91 C 1472.43 1408.31 1472.96 1407.92 1474.57 1406.97 C 1508.25 1387.04 1544.61 1371.91 1583.76 1377.79 C 1586.27 1383.25 1591.19 1382.14 1582.61 1387.71 C 1563.5 1400.13 1505.92 1428.64 1485.32 1429 C 1482.1 1424.72 1474.78 1417.97 1473.15 1414.64 L 1473 1411.1 z"/><path transform="translate(0,0)" fill="rgb(36,39,47)" d="M 1473 1411.1 C 1477.12 1410.08 1479.02 1409.48 1483.2 1409.27 L 1483.25 1410.14 C 1478.89 1412.83 1478.06 1413.19 1473.15 1414.64 L 1473 1411.1 z"/><path transform="translate(0,0)" fill="rgb(172,179,182)" d="M 1405.88 1139.83 C 1458.35 1109.97 1500.3 1099.23 1560.69 1098.04 C 1571.36 1098.24 1580.68 1099.21 1591.26 1100.26 C 1608.35 1102.22 1621.51 1104.55 1637.9 1110.07 C 1629.89 1147.12 1602.29 1179.04 1566.51 1191.71 C 1596.3 1194.96 1582.19 1225.51 1569.55 1240.3 C 1565.12 1213.35 1558.9 1206.29 1537.97 1190.6 C 1543.09 1192.77 1548.69 1195.28 1553.84 1197.29 C 1537.78 1181.73 1525.1 1176.88 1505.5 1166.46 C 1493.87 1161.1 1480.12 1155.9 1468.11 1151.52 C 1448.03 1145.31 1426.93 1140.18 1405.88 1139.83 z"/><path transform="translate(0,0)" fill="rgb(172,179,182)" d="M 1405.88 1139.83 C 1458.35 1109.97 1500.3 1099.23 1560.69 1098.04 C 1547.93 1106.71 1536.57 1120.39 1521.83 1127.66 C 1508.29 1134.35 1495.01 1141.09 1480.95 1146.74 C 1476.78 1148.61 1471.05 1149.87 1468.11 1151.52 C 1448.03 1145.31 1426.93 1140.18 1405.88 1139.83 z"/><path transform="translate(0,0)" fill="rgb(250,250,250)" d="M 1560.69 1098.04 C 1571.36 1098.24 1580.68 1099.21 1591.26 1100.26 C 1590.83 1103.41 1591.08 1101.5 1590.24 1103.12 C 1577.96 1127.11 1553.36 1141.59 1530.59 1154.41 C 1524.82 1157.66 1510.53 1162.59 1505.5 1166.46 C 1493.87 1161.1 1480.12 1155.9 1468.11 1151.52 C 1471.05 1149.87 1476.78 1148.61 1480.95 1146.74 C 1495.01 1141.09 1508.29 1134.35 1521.83 1127.66 C 1536.57 1120.39 1547.93 1106.71 1560.69 1098.04 z"/><path transform="translate(0,0)" fill="rgb(172,179,182)" d="M 1034.19 851.297 C 1042.96 843.328 1051.58 835.286 1060.65 827.664 C 1112.04 784.501 1174.96 765.035 1238.58 748.145 C 1235.12 772.296 1227.6 800.818 1216.73 823.107 C 1212.56 831.648 1191.23 841.002 1181.97 843.643 C 1158.75 852.359 1137.09 857.956 1111.93 858.106 C 1095.05 862.609 1052.14 855.017 1034.19 851.297 z"/><path transform="translate(0,0)" fill="rgb(250,250,250)" d="M 1111.93 858.106 C 1114.33 856.406 1122.72 851.872 1126.81 849.133 C 1154.04 830.883 1181.78 813.123 1205.09 789.837 C 1199.77 801.712 1193.73 812.761 1187.59 824.173 C 1185.7 827.695 1178.47 839.494 1177.89 841.79 L 1181.97 843.643 C 1158.75 852.359 1137.09 857.956 1111.93 858.106 z"/><path transform="translate(0,0)" fill="rgb(172,179,182)" d="M 1245.45 1211.17 C 1277.13 1191.37 1327.97 1192.06 1362.56 1203.02 C 1382.05 1209.78 1393.12 1215.45 1410.08 1227.57 C 1417.07 1231.57 1435.35 1244.39 1437.63 1252.41 C 1434.81 1261.32 1353.89 1272.94 1340.41 1273.91 C 1333.49 1274.41 1323.31 1275.3 1316.18 1275.85 C 1323.81 1280.39 1337.23 1293.43 1331.5 1298.93 C 1319.59 1310.36 1249.58 1299.03 1238.5 1296.32 C 1258.49 1282.09 1282.57 1272.15 1307.34 1271.77 C 1299.96 1264.21 1288.59 1248.19 1279.57 1238.26 L 1259.11 1222.39 C 1255.95 1220.37 1248.67 1213.9 1245.45 1211.17 z"/><path transform="translate(0,0)" fill="rgb(250,250,250)" d="M 1245.45 1211.17 C 1277.13 1191.37 1327.97 1192.06 1362.56 1203.02 C 1382.05 1209.78 1393.12 1215.45 1410.08 1227.57 C 1404.07 1229.71 1388.89 1231.57 1382.24 1232.51 C 1347.73 1237.4 1314.36 1238.1 1279.57 1238.26 L 1259.11 1222.39 C 1255.95 1220.37 1248.67 1213.9 1245.45 1211.17 z"/><path transform="translate(0,0)" fill="rgb(172,179,182)" d="M 1245.45 1211.17 C 1277.13 1191.37 1327.97 1192.06 1362.56 1203.02 C 1361.84 1203.73 1360.53 1205.1 1359.45 1205.29 C 1329.4 1210.52 1298.21 1211.66 1268.84 1219.97 C 1266.05 1220.76 1261.31 1221.3 1259.11 1222.39 C 1255.95 1220.37 1248.67 1213.9 1245.45 1211.17 z"/><path transform="translate(0,0)" fill="url(#Gradient26)" d="M 1351.78 1184.58 C 1350.03 1184.1 1349.57 1183.79 1347.91 1183.03 L 1347.95 1181.15 C 1353.57 1174.1 1358.78 1167.73 1366.56 1162.78 C 1388.53 1148.82 1431.19 1156.05 1454.88 1161.25 C 1470.85 1165.03 1487.01 1169.51 1502.02 1176.24 C 1517.97 1182.17 1536.83 1191.31 1548.89 1203.45 C 1530.97 1216.4 1484.3 1241.09 1462.58 1247.09 C 1469.92 1251.47 1482.82 1258.36 1481.03 1268.32 C 1476.11 1276.24 1452.26 1280.03 1442.29 1282.46 C 1443.08 1279 1444.79 1272.17 1444.75 1268.88 C 1444.31 1236.77 1406.35 1211.09 1381.51 1197.03 C 1371.91 1193.29 1361.36 1188.61 1351.78 1184.58 z"/><path transform="translate(0,0)" fill="rgb(250,250,250)" d="M 1351.78 1184.58 C 1350.03 1184.1 1349.57 1183.79 1347.91 1183.03 L 1347.95 1181.15 C 1353.57 1174.1 1358.78 1167.73 1366.56 1162.78 C 1388.53 1148.82 1431.19 1156.05 1454.88 1161.25 C 1470.85 1165.03 1487.01 1169.51 1502.02 1176.24 C 1455.72 1194.68 1426.82 1192.11 1381.51 1197.03 C 1371.91 1193.29 1361.36 1188.61 1351.78 1184.58 z"/><path transform="translate(0,0)" fill="rgb(172,179,182)" d="M 1351.78 1184.58 C 1350.03 1184.1 1349.57 1183.79 1347.91 1183.03 L 1347.95 1181.15 C 1353.57 1174.1 1358.78 1167.73 1366.56 1162.78 C 1388.53 1148.82 1431.19 1156.05 1454.88 1161.25 C 1460.48 1160.22 1427.04 1171.73 1431.13 1169.89 C 1417.67 1175.95 1358.39 1180.39 1351.78 1184.58 z"/><path transform="translate(0,0)" fill="url(#Gradient25)" d="M 544.174 327.912 L 546.97 328.393 C 546.272 333.068 538.708 339.151 535.027 342.548 C 549.127 334.728 558.905 325.837 574.787 333.622 L 586.626 337.277 C 582.436 344.894 580.268 348.66 577.481 356.955 C 576.341 366.72 574.989 373.883 577.31 383.535 L 578.462 384.553 C 582.839 378.407 581.977 368.303 583.998 361.901 C 584.192 363.393 584.247 367.183 585.341 367.521 C 594.592 370.383 604.076 362.948 614.458 363.541 L 610.825 367.597 C 612.399 368.301 611.951 368.192 612.533 368.269 C 592.722 392.724 586.346 421.541 556.01 436.659 C 546.985 441.156 541.795 444.123 531.124 445.415 C 515.602 447.293 497.299 433.628 490.416 420.174 C 480.66 409.698 475.849 387.724 478.982 373.808 C 481.708 342.278 516.609 328.205 544.174 327.912 z"/><path transform="translate(0,0)" fill="rgb(149,156,163)" d="M 572.587 356.08 L 573.777 353.368 C 576.315 353.947 574.962 355.158 577.481 356.955 C 576.341 366.72 574.989 373.883 577.31 383.535 L 578.462 384.553 C 582.839 378.407 581.977 368.303 583.998 361.901 C 584.192 363.393 584.247 367.183 585.341 367.521 C 594.592 370.383 604.076 362.948 614.458 363.541 L 610.825 367.597 C 612.399 368.301 611.951 368.192 612.533 368.269 C 592.722 392.724 586.346 421.541 556.01 436.659 C 546.985 441.156 541.795 444.123 531.124 445.415 C 515.602 447.293 497.299 433.628 490.416 420.174 L 490.742 419.852 C 491.105 417.696 490.321 417.066 489.291 414.646 L 490.074 412.738 C 512.753 403.984 547.166 457.768 549.682 384.644 C 549.779 381.819 552.652 373.399 553.289 369.391 C 559.615 368.241 564.451 360.405 569.084 355.776 L 572.239 355.915 L 572.587 356.08 z"/><path transform="translate(0,0)" fill="rgb(0,0,0)" d="M 572.587 356.08 C 572.629 360.281 568.851 370.716 567.601 375.483 C 565.415 383.817 565.177 402.66 557.102 406.72 C 554.349 401.502 559.091 386.633 560.228 381.022 C 562.153 371.531 567.141 363.997 572.239 355.915 L 572.587 356.08 z"/><path transform="translate(0,0)" fill="rgb(250,250,250)" d="M 478.982 373.808 C 481.708 342.278 516.609 328.205 544.174 327.912 C 539.78 331.928 533.014 332.707 532.839 333.033 C 525.387 346.947 506.008 349.069 497.054 360.608 C 491.602 367.635 485.802 384.42 480.38 386.258 C 478.435 383.757 478.978 377.303 478.982 373.808 z"/><path transform="translate(0,0)" fill="rgb(172,179,182)" d="M 574.787 333.622 L 586.626 337.277 C 582.436 344.894 580.268 348.66 577.481 356.955 C 574.962 355.158 576.315 353.947 573.777 353.368 L 572.587 356.08 L 572.239 355.915 L 569.084 355.776 C 564.451 360.405 559.615 368.241 553.289 369.391 C 556.359 361.694 561.751 361.912 563.219 358.397 C 567.75 347.545 568.205 343.93 574.787 333.622 z"/><path transform="translate(0,0)" fill="url(#Gradient24)" d="M 949.81 490.02 C 983.56 479.06 1009.2 499.688 1021.93 529.848 C 1024.99 542.216 1027.59 557.637 1020.42 568.821 C 1003.2 595.679 952.836 595.866 924.955 597.067 C 925.888 585.205 926.788 574.819 926.145 562.843 C 923.36 545.332 914.679 538.95 901.143 529.33 L 887.258 522.083 C 903.394 512.779 933.677 496.666 949.81 490.02 z"/><path transform="translate(0,0)" fill="rgb(149,156,163)" d="M 1021.93 529.848 C 1024.99 542.216 1027.59 557.637 1020.42 568.821 C 1003.2 595.679 952.836 595.866 924.955 597.067 C 925.888 585.205 926.788 574.819 926.145 562.843 C 932.9 562.06 939.527 564.589 946.419 566.592 C 962.228 571.187 1013.07 530.235 1021.93 529.848 z"/><path transform="translate(0,0)" fill="url(#Gradient23)" d="M 887.258 522.083 C 903.394 512.779 933.677 496.666 949.81 490.02 L 951.552 492.443 C 946.743 501.189 934.873 509.029 926.069 513.694 C 921.299 517.11 916.844 519.519 912.139 522.675 C 908.563 526.415 908.718 525.995 904.041 528.041 L 901.143 529.33 L 887.258 522.083 z"/><path transform="translate(0,0)" fill="url(#Gradient22)" d="M 928.754 504.076 C 930.885 501.718 947.432 493.118 951.552 492.443 C 946.743 501.189 934.873 509.029 926.069 513.694 C 924.962 506.9 928.364 512.441 928.754 504.076 z"/><path transform="translate(0,0)" fill="rgb(115,122,128)" d="M 912.139 522.675 C 912.305 515.024 922.232 506.961 928.754 504.076 C 928.364 512.441 924.962 506.9 926.069 513.694 C 921.299 517.11 916.844 519.519 912.139 522.675 z"/><path transform="translate(0,0)" fill="url(#Gradient21)" d="M 527.91 460.486 C 525.691 475.938 526.48 485.9 536.169 498.893 C 544.784 507.076 551.5 512.301 563.94 513.467 C 562.018 518.901 560.368 513.56 560.291 523.469 C 561.928 525.34 561.382 525.48 563.02 525.736 C 563.747 527.492 564.563 530.299 566.612 530.797 C 583.13 534.808 606.307 526.333 620.542 521.006 C 626.323 517.287 635.979 521.012 644.222 519.889 C 647.297 517.471 647.96 516.501 651.87 516.353 C 648.602 519.201 647.655 518.971 647.015 522.268 C 649.848 525.465 658.758 525.531 665.669 528.366 C 645.482 542.505 640.741 544.705 630.955 568.242 C 623.949 568.099 613.545 568.192 606.933 567.106 C 602.126 567.441 595.796 567.055 590.866 566.747 C 575.302 565.773 560.084 565.856 544.481 566.066 C 531.616 566.82 514.84 565.781 502.473 561.706 C 476.092 553.013 470.694 517.04 479.875 494.034 C 485.168 480.771 496.859 471.77 509.798 466.461 C 516.572 463.065 520.61 462.297 527.91 460.486 z"/><path transform="translate(0,0)" fill="rgb(149,156,163)" d="M 554.739 547.611 C 560.614 550.769 573.533 558.028 579.974 558.184 C 590.155 558.429 614.513 553.071 621.333 563.449 L 620.907 565.346 C 617.598 567.197 611.213 566.605 606.933 567.106 C 602.126 567.441 595.796 567.055 590.866 566.747 C 575.302 565.773 560.084 565.856 544.481 566.066 L 548.849 564.706 C 543.515 564.63 537.845 565.203 533.539 562.246 C 532.433 558.704 532.511 560.493 533.644 556.687 C 539.327 550.437 546.639 549.525 554.739 547.611 z"/><path transform="translate(0,0)" fill="rgb(172,179,182)" d="M 527.91 460.486 C 525.691 475.938 526.48 485.9 536.169 498.893 C 526.053 498.036 527.667 492.237 518.181 492.146 C 515.553 492.12 516.804 492.829 514.314 491.685 L 514.481 489.697 L 516.096 488.63 C 520.912 490.028 521.51 490.684 525.726 488.775 C 528.897 479.54 518.539 473.319 521.264 464.23 C 517.029 465.405 515.138 465.91 510.765 466.367 L 509.798 466.461 C 516.572 463.065 520.61 462.297 527.91 460.486 z"/><path transform="translate(0,0)" fill="rgb(172,179,182)" d="M 1432.64 785.825 C 1434.99 788.152 1429.61 799.348 1428.23 802.447 C 1414.92 832.262 1391.44 855.725 1365.74 875.049 C 1310.94 916.236 1266.98 927.98 1199.07 918.54 C 1205.95 903.476 1215.4 887.645 1223.7 873.22 C 1234.07 854.774 1244.84 836.549 1255.98 818.558 C 1258.81 814.122 1262.23 807.552 1264.87 802.801 C 1281.57 803.709 1293.94 804.559 1310.81 803.115 C 1288.16 844.894 1275.61 863.327 1246.12 900.109 C 1261.87 898.533 1283.56 895.938 1298.32 890.093 C 1349.81 869.693 1394.16 823.541 1432.64 785.825 z"/><path transform="translate(0,0)" fill="url(#Gradient20)" d="M 934.51 834.97 C 933.499 832.582 932.52 830.182 931.572 827.769 C 938.554 802.979 998.907 724.369 1019.6 703.258 C 1026.42 696.309 1030.22 696.045 1039.55 696.139 L 1042.64 697.562 L 1045.31 701.219 C 1051.59 715.586 1054.16 725.146 1056.49 740.711 C 1052.1 749.858 1037.25 765.912 1029.96 774.769 C 1021.14 785.493 1010.11 801.83 1001.36 811.632 C 997.289 803.512 996.649 801.093 988.935 796.057 C 991.211 804.168 992.936 810.521 994.504 818.764 C 987.74 830.687 952.514 884.062 943.687 891.679 C 941.622 885.219 939.679 879.589 938.437 872.905 C 940.747 868.543 940.368 866.507 940.454 861.495 C 940.922 862.777 942.017 864.94 943.62 864.802 C 946.667 859.414 941.839 848.765 939.391 843.606 C 937.616 841.05 935.987 837.75 934.51 834.97 z"/><path transform="translate(0,0)" fill="url(#Gradient19)" d="M 934.51 834.97 C 933.499 832.582 932.52 830.182 931.572 827.769 C 938.554 802.979 998.907 724.369 1019.6 703.258 C 1026.42 696.309 1030.22 696.045 1039.55 696.139 C 1039.67 708.243 1041.85 714.622 1033.15 725.919 C 1028.47 732 1023.2 736.848 1017.71 742.196 L 1017.15 742.915 C 1010.29 751.816 1009.96 757.966 999.459 764.249 C 990.775 778.443 982.723 782.926 974.446 794.834 L 974.739 807.124 C 972.26 811.927 971.4 814.042 967.838 818.207 C 959.524 818.584 949.114 832.389 938.529 833.567 C 938.53 833.567 934.643 834.924 934.51 834.97 z"/><path transform="translate(0,0)" fill="rgb(172,179,182)" d="M 999.459 764.249 C 1002.17 757.662 1010.68 746.856 1015.91 741.959 L 1017.71 742.196 L 1017.15 742.915 C 1010.29 751.816 1009.96 757.966 999.459 764.249 z"/><path transform="translate(0,0)" fill="rgb(172,179,182)" d="M 934.51 834.97 C 934.643 834.924 938.53 833.567 938.529 833.567 C 949.114 832.389 959.524 818.584 967.838 818.207 L 968.145 819.551 C 964.843 822.454 939.862 842.805 939.391 843.606 C 937.616 841.05 935.987 837.75 934.51 834.97 z"/><path transform="translate(0,0)" fill="rgb(172,179,182)" d="M 1594.83 1037.92 C 1613.62 1039.43 1662.34 1043.33 1673.63 1058.16 C 1696.95 1088.8 1712.04 1127.59 1707.59 1166.59 C 1704.55 1195.5 1689.84 1222.55 1677.85 1248.64 C 1670.29 1265.07 1654.5 1276.03 1638.62 1283.56 C 1648 1268.77 1658.89 1256.53 1669.09 1242.22 C 1689.99 1212.93 1694.52 1175.69 1687.08 1140.96 C 1681.11 1113.05 1666.99 1094.37 1644.76 1076.89 C 1644.36 1085.12 1644.26 1090.99 1642.55 1099.02 C 1625.1 1095.15 1609.08 1092.05 1591.73 1088.59 C 1582.07 1087.16 1570.61 1086.14 1560.78 1085.09 C 1570.54 1078.3 1570.02 1049.34 1569.88 1038.72 C 1577.14 1037.84 1587.3 1038.01 1594.83 1037.92 z"/><path transform="translate(0,0)" fill="rgb(250,250,250)" d="M 1569.88 1038.72 C 1577.14 1037.84 1587.3 1038.01 1594.83 1037.92 L 1598.17 1039.53 C 1601.11 1048.97 1594.49 1078.66 1591.73 1088.59 C 1582.07 1087.16 1570.61 1086.14 1560.78 1085.09 C 1570.54 1078.3 1570.02 1049.34 1569.88 1038.72 z"/><path transform="translate(0,0)" fill="rgb(172,179,182)" d="M 1185.83 933.652 C 1197.23 934.963 1211.25 941.472 1227.9 943.433 C 1209.12 976.362 1167.42 1028.93 1141.98 1057.93 C 1202.41 1047.36 1253.81 1008.22 1295.41 964.903 C 1293.15 970.469 1290.12 975.953 1287.33 981.304 C 1274.76 1002.86 1257.98 1021.66 1237.99 1036.59 C 1212.53 1055.57 1139.65 1089.7 1109.1 1085.25 L 1108.39 1084.09 C 1111.59 1066.63 1138.22 1022.37 1146.62 1003.59 C 1151.12 993.535 1160.52 971.691 1165.57 962.637 C 1168.4 957.557 1181.28 940.719 1185.83 933.652 z"/><path transform="translate(0,0)" fill="url(#Gradient18)" d="M 1758.22 1243.63 C 1761.51 1246.65 1773.64 1270.05 1775.88 1275.58 C 1779.09 1283.54 1781.1 1292.64 1777.91 1300.9 C 1775.37 1307.49 1770.99 1301.85 1765.03 1302.02 C 1758.23 1302.21 1752.64 1304.52 1746.27 1306.76 C 1761.12 1309.13 1769.38 1315.78 1774.95 1330.14 C 1789.63 1367.96 1781.72 1413.27 1766.53 1449.57 C 1765.91 1440.5 1765.06 1434.34 1763.56 1425.34 C 1756.97 1400.24 1736.93 1376.16 1719.47 1357.2 C 1715.58 1352.98 1688.91 1332.72 1682.84 1328.05 C 1716.29 1299.71 1741.39 1288.25 1758.22 1243.63 z"/><path transform="translate(0,0)" fill="rgb(172,179,182)" d="M 314.138 1366.24 C 295.58 1334.95 327.353 1297.42 355.115 1285.71 C 363.721 1282.08 370.592 1280.64 379.741 1279.29 C 383.338 1300.37 394.271 1325.84 406.053 1343.67 C 356.491 1379.34 339.956 1396.48 339.986 1459.31 C 334.158 1444.19 316.138 1399.59 314.838 1385.28 L 315.5 1384.05 C 321.257 1385.49 327.41 1387.19 333.226 1388.18 C 327.997 1384.61 322.902 1383.19 316.935 1381.06 C 309.616 1377.8 311.18 1372.16 314.138 1366.24 z"/><path transform="translate(0,0)" fill="rgb(79,88,96)" d="M 314.138 1366.24 C 321.776 1372.23 331.308 1379.34 335.888 1388.05 L 335.597 1389.09 C 334.667 1388.8 333.929 1388.71 333.226 1388.18 C 327.997 1384.61 322.902 1383.19 316.935 1381.06 C 309.616 1377.8 311.18 1372.16 314.138 1366.24 z"/><path transform="translate(0,0)" fill="rgb(172,179,182)" d="M 1465.03 626.47 C 1468.31 633.019 1468.97 658.999 1468.87 666.766 C 1468.52 692.778 1455.62 715.277 1437.06 732.86 C 1394.81 772.895 1329.58 787.301 1272.97 785.964 C 1276.4 769.504 1295.91 726.839 1303.06 707.021 L 1310.13 685.818 C 1319.48 683.507 1332.38 681.291 1341.93 679.457 C 1345.76 714.279 1337.85 741.361 1314.15 767.011 C 1383.09 759.686 1423.07 732.818 1451.05 667.263 C 1456.65 654.132 1460.47 640.02 1465.03 626.47 z"/><path transform="translate(0,0)" fill="rgb(172,179,182)" d="M 548.277 298.461 C 572.337 260.322 610.217 232.968 653.988 222.124 C 682.507 215.061 714.278 214.135 740.073 229.625 C 743.358 231.288 743.491 231.152 745.987 234.059 L 745.945 235.87 C 739.377 239.364 729.533 242.19 721.742 245.767 C 702.835 254.447 692.937 263.751 677.386 275.85 C 642.296 277.239 640.756 278.568 615.286 301.405 C 589.114 299.065 588.504 294.982 558.691 297.134 L 548.277 298.461 z"/><path transform="translate(0,0)" fill="rgb(250,250,250)" d="M 548.277 298.461 C 572.337 260.322 610.217 232.968 653.988 222.124 C 682.507 215.061 714.278 214.135 740.073 229.625 C 739.345 230.066 738.328 230.782 737.459 230.745 C 719.873 230.005 702.334 228.558 684.747 230.524 C 650.166 234.39 616.276 247.557 588.544 268.663 C 578.379 276.404 565.113 285.62 558.691 297.134 L 548.277 298.461 z"/><path transform="translate(0,0)" fill="url(#Gradient17)" d="M 1668.16 1347.94 C 1696.57 1347.88 1716.25 1354.93 1732.66 1379.34 C 1730.32 1423.79 1710.15 1440.33 1678.36 1469.96 C 1676.03 1441.25 1669.18 1423.36 1651.54 1401.05 C 1638.61 1387.92 1621.16 1378.74 1604.75 1370.88 C 1620.1 1353.17 1645.96 1348.65 1668.16 1347.94 z"/><path transform="translate(0,0)" fill="rgb(250,250,250)" d="M 1604.75 1370.88 C 1620.1 1353.17 1645.96 1348.65 1668.16 1347.94 C 1668.18 1362.02 1669.14 1379.1 1659.93 1390.62 C 1656.76 1394.57 1653.17 1396.51 1651.54 1401.05 C 1638.61 1387.92 1621.16 1378.74 1604.75 1370.88 z"/><path transform="translate(0,0)" fill="rgb(172,179,182)" d="M 768.775 280.003 C 789.03 266.568 813.888 256.19 837.292 249.46 C 886.404 235.336 941.525 248.397 985.148 273.469 C 990.192 275.741 994.461 278.612 999.148 281.54 C 997.572 282.208 998.366 282.204 996.999 281.722 C 979.041 275.39 915.149 288.178 894.775 293.714 C 884.784 296.429 875.027 300.207 865.306 303.757 C 837.266 293.196 812.557 285.462 782.772 281.16 C 778.103 280.822 773.437 280.437 768.775 280.003 z"/><path transform="translate(0,0)" fill="rgb(250,250,250)" d="M 768.775 280.003 C 789.03 266.568 813.888 256.19 837.292 249.46 C 886.404 235.336 941.525 248.397 985.148 273.469 C 980.646 275.59 959.564 270.058 953.119 269.335 C 945.844 268.52 938.197 267.791 930.833 267.257 C 895.321 264.641 859.621 266.472 824.564 272.71 C 813.149 274.677 792.823 280.944 782.772 281.16 C 778.103 280.822 773.437 280.437 768.775 280.003 z"/><path transform="translate(0,0)" fill="url(#Gradient16)" d="M 1056.04 466.793 C 1085.28 470.122 1115.23 487.247 1123.92 516.907 C 1107.48 547.474 1084.25 557.682 1051.47 567.74 C 1050.63 567.996 1049.8 568.244 1048.96 568.484 C 1044.29 569.134 1038.17 569.42 1033.37 569.788 C 1033.7 564.709 1032.98 556.312 1032.67 550.992 C 1028.5 527.311 1023.33 519.29 1014.56 497.496 C 1031.05 490.267 1039.14 486.782 1050.45 472.478 L 1054.69 466.697 L 1056.04 466.793 z"/><path transform="translate(0,0)" fill="rgb(149,156,163)" d="M 1032.67 550.992 C 1036.81 554.2 1031.39 552.277 1036.04 555.247 C 1040.65 558.194 1044.04 566.419 1048.96 568.484 C 1044.29 569.134 1038.17 569.42 1033.37 569.788 C 1033.7 564.709 1032.98 556.312 1032.67 550.992 z"/><path transform="translate(0,0)" fill="rgb(172,179,182)" d="M 1444.52 492.226 C 1454.25 498.545 1456.23 526.397 1457.25 537.742 C 1459.64 567.138 1444.73 595.215 1425.11 616.084 C 1396 647.035 1357.58 660.904 1315.88 662.194 C 1319.7 631.868 1321.59 613.297 1317.16 582.257 C 1315.37 574.509 1313.85 566.104 1312.28 558.262 C 1321.53 557.333 1326.74 556.916 1335.97 557.155 C 1346.81 584.473 1348.26 614.619 1340.1 642.852 C 1409.43 630.233 1438.02 554.318 1444.52 492.226 z"/><path transform="translate(0,0)" fill="rgb(250,250,250)" d="M 670.004 613.451 C 688.009 618.956 704.52 628.606 723.354 634.743 C 715.486 692.702 725.694 767.675 733.71 825.451 C 733.089 825.616 732.427 825.359 731.791 825.27 C 716.9 807.232 697.371 759.099 690.655 736.077 C 680.133 700.007 670.356 651.047 670.004 613.451 z"/><path transform="translate(0,0)" fill="url(#Gradient15)" d="M 675.197 332.817 C 683.583 323.181 692.093 313.957 703.457 307.778 C 732.473 292 772.248 288.862 803.659 297.784 C 812.541 299.633 833.215 306.993 841.459 310.77 C 826.201 318.181 813.209 326.877 799.495 336.789 C 789.155 344.263 781.887 351.001 770.51 356.883 C 737.131 348.104 703.71 340.061 668.999 339.939 C 670.354 338.289 673.752 333.906 675.197 332.817 z"/><path transform="translate(0,0)" fill="rgb(250,250,250)" d="M 675.197 332.817 C 683.583 323.181 692.093 313.957 703.457 307.778 C 732.473 292 772.248 288.862 803.659 297.784 L 807.925 300.98 C 805.262 301.99 788.923 301.777 784.179 302.385 C 761.174 305.329 738.797 307.915 718.005 319.116 C 708.083 324.462 685.734 337.518 675.197 332.817 z"/><path transform="translate(0,0)" fill="url(#Gradient14)" d="M 257.321 1355.66 C 265.895 1329.36 275.769 1313.15 294.853 1292.39 C 298.639 1287.67 308.649 1281.31 311.538 1276.69 C 326.993 1251.98 344.858 1227.55 368.783 1210.35 C 378.918 1203.07 393.041 1205.43 404.73 1208.31 L 402.689 1209.03 C 396.528 1222.23 391.889 1232.38 387.688 1246.58 C 385.978 1252.36 383.892 1264.12 382.226 1268.37 C 360.409 1272.8 351.886 1279.66 332.472 1288.59 C 324.483 1287.31 316.476 1286.14 308.454 1285.08 C 315.041 1288.8 321.782 1290.07 326.427 1296.11 C 325.684 1305.59 287.161 1329.43 278.666 1335.92 C 271.273 1341.56 263.985 1349 257.321 1355.66 z"/><path transform="translate(0,0)" fill="rgb(172,179,182)" d="M 1396.18 391.39 C 1404.2 395.649 1409.94 409.27 1412.07 417.96 C 1428.64 485.379 1363.19 527.462 1306.69 542.02 C 1300.5 532.036 1294.85 519.415 1289.18 508.96 C 1283.29 498.1 1277.35 488.827 1270.6 478.533 C 1265.15 470.218 1256.27 459.183 1250.05 451.002 C 1283.25 467.05 1309.36 484.175 1324.14 520.094 C 1387.97 492.27 1392.65 453.714 1396.18 391.39 z"/><path transform="translate(0,0)" fill="rgb(172,179,182)" d="M 1122.67 1106.37 L 1125.14 1105.99 C 1125.38 1107.39 1113.86 1124.79 1111.71 1128.15 C 1090.07 1161.95 1077.66 1197.83 1062.75 1234.66 C 1048.86 1235.71 1038.61 1235.38 1024.81 1234.83 C 1022.93 1234.55 1022.52 1234.32 1020.71 1233.72 L 1020.34 1231.76 C 1033 1197.24 1061.82 1131.31 1090.38 1109.01 C 1101.89 1109.29 1111.3 1108.02 1122.67 1106.37 z"/><path transform="translate(0,0)" fill="rgb(250,250,250)" d="M 481.282 601.641 C 484.153 607.739 484.599 609.568 486.203 616.015 C 493.085 615.33 500.404 612.02 507.212 609.774 C 505.406 634 506.772 653.891 508.928 678.071 C 509.519 684.707 512.041 704.237 511.906 709.81 C 516.178 745.086 520.432 761.997 530.34 796.207 C 494.411 754.597 468.692 678.623 466.558 623.93 C 469.835 616.309 476.213 608.393 481.282 601.641 z"/><path transform="translate(0,0)" fill="rgb(172,179,182)" d="M 486.203 616.015 C 493.085 615.33 500.404 612.02 507.212 609.774 C 505.406 634 506.772 653.891 508.928 678.071 C 509.519 684.707 512.041 704.237 511.906 709.81 L 508.482 714.343 C 503.587 698.217 484.763 628.581 486.203 616.015 z"/><path transform="translate(0,0)" fill="url(#Gradient13)" d="M 971.945 419.423 C 977.085 417.598 982.447 416.475 987.887 416.084 C 1008.32 415.845 1032.35 423.046 1043.55 441.457 C 1047.49 448.694 1046.99 457.22 1046.3 464.966 C 1045.57 473.07 1038.25 481.378 1031.84 485.673 C 1005.88 503.057 992.246 479.708 972.487 467.848 C 971.072 466.999 963.227 465.849 960.984 465.516 C 967.024 453.78 966.435 446.521 965.422 433.781 C 964.799 431.839 964.588 430.935 964.139 428.965 C 963.172 427.07 963.203 426.991 962.547 424.965 L 963.878 422.586 C 967.21 420.492 968.046 420.446 971.945 419.423 z"/><path transform="translate(0,0)" fill="rgb(115,122,128)" d="M 971.945 419.423 C 977.085 417.598 982.447 416.475 987.887 416.084 L 987.533 418.233 L 988.615 418.37 C 991.722 418.789 992.841 418.688 995.41 420.514 C 996.738 421.317 998.614 422.609 1000 423.042 C 1000.7 427.339 1001.53 429.093 999.536 432.625 C 995.169 436.645 985.821 436.812 981.223 434.348 C 977.231 433.851 968.576 432.279 965.422 433.781 C 964.799 431.839 964.588 430.935 964.139 428.965 C 963.172 427.07 963.203 426.991 962.547 424.965 L 963.878 422.586 C 967.21 420.492 968.046 420.446 971.945 419.423 z"/><path transform="translate(0,0)" fill="rgb(36,39,47)" d="M 964.139 428.965 C 969.73 429.739 986.055 430.123 989.083 433.144 C 987.108 434.867 984.363 434.351 981.223 434.348 C 977.231 433.851 968.576 432.279 965.422 433.781 C 964.799 431.839 964.588 430.935 964.139 428.965 z"/><path transform="translate(0,0)" fill="rgb(250,250,250)" d="M 971.945 419.423 C 977.085 417.598 982.447 416.475 987.887 416.084 L 987.533 418.233 L 988.615 418.37 C 991.722 418.789 992.841 418.688 995.41 420.514 C 990.349 420.432 975.645 420.998 971.945 419.423 z"/><path transform="translate(0,0)" fill="rgb(250,250,250)" d="M 987.887 416.084 C 1008.32 415.845 1032.35 423.046 1043.55 441.457 L 1039.54 443.172 C 1039.89 446.497 1040.21 446.161 1039.37 449.192 C 1024.92 438.175 1013.93 432.966 1000 423.042 C 998.614 422.609 996.738 421.317 995.41 420.514 C 992.841 418.688 991.722 418.789 988.615 418.37 L 987.533 418.233 L 987.887 416.084 z"/><path transform="translate(0,0)" fill="rgb(172,179,182)" d="M 1554.94 983.209 C 1562.74 982.863 1600.47 994.345 1607.84 998.977 C 1610.51 1002.31 1609.78 1009.53 1611.41 1010.47 C 1623.83 1017.68 1636.06 1024.54 1647.6 1033.16 C 1619.24 1028.98 1590.64 1026.58 1561.98 1026 C 1536.39 1025.88 1512 1029.08 1487.07 1034.55 C 1483.26 1035.38 1476.08 1037.01 1472.44 1036.23 C 1476.31 1029.99 1482.89 1024.93 1487.43 1019.38 C 1507.45 994.899 1525.29 990.058 1554.94 983.209 z"/><path transform="translate(0,0)" fill="rgb(149,156,163)" d="M 852.239 1534.03 C 853.923 1535.34 859.891 1552.88 861.438 1556.69 C 873.25 1585.73 888.494 1612.97 900.59 1641.95 C 886.108 1632.91 869.538 1624.16 854.477 1615.85 C 828.051 1601.86 806.562 1591.57 779.665 1578.69 C 793.808 1569.06 807.627 1561.97 822.259 1553.3 C 832.265 1547.37 842.31 1540.32 852.239 1534.03 z"/><path transform="translate(0,0)" fill="rgb(250,250,250)" d="M 379.741 1279.29 C 398.077 1276.73 416.286 1277.53 434.525 1280.41 C 461.804 1287.73 489.781 1300.69 507.669 1323.4 C 487.907 1321.81 476.227 1321.76 456.111 1325.07 C 436.085 1328.76 423.217 1332.2 406.053 1343.67 C 394.271 1325.84 383.338 1300.37 379.741 1279.29 z"/><path transform="translate(0,0)" fill="rgb(172,179,182)" d="M 434.525 1280.41 C 461.804 1287.73 489.781 1300.69 507.669 1323.4 C 487.907 1321.81 476.227 1321.76 456.111 1325.07 C 447.906 1314.28 436.781 1293.94 434.525 1280.41 z"/><path transform="translate(0,0)" fill="rgb(172,179,182)" d="M 1057.11 1241.49 L 1059.36 1241.21 C 1060 1243.82 1049.12 1277.47 1047.55 1284.35 C 1041.4 1311.13 1038.86 1337.75 1036.96 1365.12 C 1028.94 1361.92 1021.35 1358.1 1013.59 1354.32 C 1009.06 1351.76 1003.69 1349.26 998.967 1346.93 C 998.75 1314.53 1008.98 1272.54 1017.33 1241.6 C 1034.5 1243.62 1040.27 1243.21 1057.11 1241.49 z"/><path transform="translate(0,0)" fill="rgb(149,156,163)" d="M 635.04 1513.14 L 636.673 1512.92 C 638.397 1514.75 640.692 1538 643.202 1545.96 C 652.6 1575.77 667.529 1593.93 682.192 1619.73 C 667.353 1609.41 651.007 1602.1 633.776 1589.84 C 614.549 1575.74 597.799 1558.95 577.713 1545.88 C 571.001 1541.51 565.738 1536.71 558.387 1533.1 C 581.414 1524.83 610.531 1520.35 635.04 1513.14 z"/><path transform="translate(0,0)" fill="url(#Gradient12)" d="M 909.721 229.464 C 949.574 211.457 1001.02 213.039 1042.27 226.271 C 1048.47 227.909 1076.56 236.896 1080.76 240.952 L 1080.77 241.686 C 1076.74 244.035 1074.77 241.191 1072.41 241.702 C 1047.22 247.154 1016.1 258.46 990.699 260.847 L 955.397 244.53 C 940.867 238.832 924.717 234.134 909.721 229.464 z"/><path transform="translate(0,0)" fill="rgb(250,250,250)" d="M 909.721 229.464 C 949.574 211.457 1001.02 213.039 1042.27 226.271 C 1037.49 228.814 1024.07 229.133 1018.05 230.074 C 1005.06 232.106 964.115 237.214 955.397 244.53 C 940.867 238.832 924.717 234.134 909.721 229.464 z"/><path transform="translate(0,0)" fill="rgb(172,179,182)" d="M 1206.8 1205 C 1210.74 1206.74 1211.07 1207.08 1215.25 1207.01 C 1219.92 1207.82 1225.99 1208.19 1228.74 1211.94 C 1227.81 1216.93 1216.16 1224 1210.14 1230.03 C 1219.35 1226.59 1226.95 1222.66 1235.52 1217.94 C 1256.02 1231.33 1281.89 1248.16 1294.39 1269.9 C 1260.67 1270.47 1212.63 1267.92 1179.39 1261.78 C 1184.44 1242.25 1196.39 1222.23 1206.8 1205 z"/><path transform="translate(0,0)" fill="rgb(172,179,182)" d="M 251.347 1395.75 C 254.454 1398.76 269.751 1432.09 273.748 1439.54 C 289.612 1469.14 308.48 1486.73 329.529 1511.64 C 329.955 1518.05 329.504 1523.92 329.159 1530.32 C 319.164 1527.47 313.142 1525.43 303.528 1521.51 C 303.088 1523.31 303.903 1525.38 304.378 1527.4 C 307.986 1536.72 311.366 1546.13 314.515 1555.62 C 270.856 1521.99 244.097 1449.89 251.347 1395.75 z"/><path transform="translate(0,0)" fill="rgb(172,179,182)" d="M 342.525 1525.49 C 347.193 1527.69 357.487 1536.08 361.877 1539.45 C 384.965 1557.18 409.298 1572.79 434.629 1587.13 C 447.692 1594.52 461.876 1600.81 474.513 1608.9 C 465.23 1607.66 447.353 1608.05 437.276 1608.04 L 416.955 1608.24 C 417.574 1617.17 420.632 1631.14 422.408 1640.26 C 414.23 1634.79 406.656 1627.56 399.531 1620.74 C 371.238 1593.64 350.585 1564.17 342.525 1525.49 z"/><path transform="translate(0,0)" fill="rgb(250,250,250)" d="M 382.226 1268.37 C 383.892 1264.12 385.978 1252.36 387.688 1246.58 C 391.889 1232.38 396.528 1222.23 402.689 1209.03 L 404.73 1208.31 C 419.997 1213.13 430.99 1219.14 444.658 1227.41 C 474.189 1247.95 479.845 1256.3 496.912 1287.54 C 477.748 1278.96 463.283 1272.82 442.105 1269.13 C 434.494 1267.8 425.438 1267.38 418.563 1266.14 C 404.274 1265.86 396.302 1266.18 382.226 1268.37 z"/><path transform="translate(0,0)" fill="rgb(172,179,182)" d="M 444.658 1227.41 C 474.189 1247.95 479.845 1256.3 496.912 1287.54 C 477.748 1278.96 463.283 1272.82 442.105 1269.13 C 434.494 1267.8 425.438 1267.38 418.563 1266.14 C 419.591 1266.13 420.619 1266.1 421.646 1266.06 C 422.413 1266.03 425.652 1265.61 425.766 1265.4 C 431.296 1255.06 437.048 1235.73 444.658 1227.41 z"/><path transform="translate(0,0)" fill="rgb(79,88,96)" d="M 836.055 709.853 C 835.003 767.192 807.231 830.389 776.578 878.135 C 775.928 879.148 772.474 880.649 771.287 881.188 L 768.821 882.971 C 760.696 867.047 759.061 870.691 753.562 849.308 C 764.121 830.984 782.548 809.499 794.369 790.877 C 810.477 765.501 824.254 737.373 836.055 709.853 z"/><path transform="translate(0,0)" fill="rgb(172,179,182)" d="M 1072.03 1550.01 C 1072.6 1550.07 1073.17 1550.12 1073.73 1550.2 C 1085.93 1552.03 1147.35 1631.28 1156.45 1643.45 C 1144.9 1636.78 1132.65 1630.91 1120.7 1624.95 C 1095.56 1612.44 1070.53 1599.52 1044.45 1589.04 C 1036.51 1585.84 1028.57 1582.67 1020.83 1579.01 C 1031.82 1570.97 1059.55 1553.38 1072.03 1550.01 z"/><path transform="translate(0,0)" fill="url(#Gradient11)" d="M 433.106 562.522 C 429.46 538.072 434.934 495.836 449.847 475.123 C 454.361 468.853 460.599 470.565 465.547 475.131 L 472.136 480.488 C 460.17 516.13 461.809 531.003 481.292 564.146 C 472.015 575 466.558 581.083 459.455 593.565 C 444.436 586.828 436.622 579.346 433.106 562.522 z"/><path transform="translate(0,0)" fill="url(#Gradient10)" d="M 433.106 562.522 C 429.46 538.072 434.934 495.836 449.847 475.123 C 454.361 468.853 460.599 470.565 465.547 475.131 C 455.273 492.162 456.127 512.539 459.422 531.387 C 460.347 536.68 461.966 542.87 461.492 548.163 L 460.792 547.709 C 460.621 543.557 461.432 545.096 459.212 542.523 C 454.252 542.018 449.653 545.86 445.751 548.667 C 443.115 555.061 448.411 558.767 447.347 563.809 L 445.895 561.675 C 442.968 564.591 442.406 567.379 439.094 568.458 C 435.374 567.604 435.575 565.93 433.106 562.522 z"/><path transform="translate(0,0)" fill="rgb(172,179,182)" d="M 483.638 1613.68 C 502.556 1618.83 528.195 1629.48 548.083 1635.8 C 574.232 1644.1 611.054 1652.16 635.355 1661.82 L 612.786 1668.1 C 598.855 1671.76 584.805 1674.95 570.659 1677.66 L 570.3 1691.39 C 539.905 1671.73 503.455 1643.64 483.638 1613.68 z"/><path transform="translate(0,0)" fill="rgb(172,179,182)" d="M 1357.54 1670.24 L 1359.44 1670.32 C 1358.5 1671.74 1359.06 1671.22 1357.46 1672.17 C 1338.02 1683.73 1252.55 1723.41 1232.8 1723.67 C 1217.77 1723.87 1189.47 1713.69 1173.75 1709.34 C 1164.52 1706.42 1158.06 1704.42 1148.46 1702.52 C 1168.04 1701.65 1189.79 1698.36 1209.28 1695.87 C 1259.08 1689.53 1308.21 1679.53 1357.54 1670.24 z"/><path transform="translate(0,0)" fill="rgb(172,179,182)" d="M 662.261 1670.01 C 718.314 1682.38 787.672 1693 844.887 1694.76 C 838.212 1697.55 830.726 1699.6 823.754 1701.67 C 812.363 1705.02 759.918 1722.25 754.235 1721.75 C 733.065 1719.88 676.081 1685.38 662.261 1670.01 z"/><path transform="translate(0,0)" fill="rgb(172,179,182)" d="M 914.948 1707.42 C 936.63 1704.46 966.901 1709.48 989.267 1709.73 C 1028.13 1710.16 1065.19 1710.97 1103.93 1707.44 C 1093.64 1711.56 1077.15 1716.43 1066.21 1720.04 C 1047.06 1727.2 1007.17 1739.31 987.419 1744.31 C 966.959 1738.66 920.307 1718.73 902.159 1708.57 C 906.192 1708.01 910.842 1707.76 914.948 1707.42 z"/><path transform="translate(0,0)" fill="rgb(172,179,182)" d="M 1462.26 968.187 C 1490.23 967.031 1520.4 971.704 1547.35 979.429 C 1514.95 986.798 1496.71 996.15 1466.86 1010.04 C 1448.51 1019.79 1415.5 1019.33 1393.74 1021.2 C 1395.84 1019.41 1402.36 1013.86 1404.59 1012.52 C 1419.28 1003.69 1447.8 972.311 1462.26 968.187 z"/><path transform="translate(0,0)" fill="rgb(149,156,163)" d="M 1303.57 1529.62 C 1308.31 1530.64 1317.17 1537.07 1322.26 1539.76 C 1355.64 1557.41 1377.62 1575.54 1394.21 1609.49 C 1387.08 1605.89 1381.02 1603.47 1373.57 1600.5 C 1341.37 1587.07 1306.27 1571.54 1273.67 1560.59 C 1285.39 1549.8 1292.88 1541.71 1303.57 1529.62 z"/><path transform="translate(0,0)" fill="rgb(172,179,182)" d="M 1467.44 1086.1 L 1468.07 1085.12 C 1488.04 1052.98 1534.91 1042.03 1569.88 1038.72 C 1570.02 1049.34 1570.54 1078.3 1560.78 1085.09 C 1532.35 1081.36 1496.95 1084.81 1467.44 1086.1 z"/><path transform="translate(0,0)" fill="rgb(250,250,250)" d="M 1019.83 208.694 C 1040.23 202.395 1059.47 196.57 1080.99 195.111 C 1100.61 193.78 1113.93 190.826 1129.19 205.698 C 1133.4 209.534 1140.56 216.037 1133.88 221.017 C 1124.1 228.315 1104.29 234.049 1092.74 237.294 C 1083.75 231.812 1073.04 223.933 1063.81 220.237 C 1048.35 215.85 1035.58 212.285 1019.83 208.694 z"/><path transform="translate(0,0)" fill="rgb(172,179,182)" d="M 1129.19 205.698 C 1133.4 209.534 1140.56 216.037 1133.88 221.017 C 1124.1 228.315 1104.29 234.049 1092.74 237.294 C 1083.75 231.812 1073.04 223.933 1063.81 220.237 C 1079.09 215.763 1093.14 211.578 1108.94 209.284 C 1113.08 208.683 1126.64 207.026 1129.19 205.698 z"/><path transform="translate(0,0)" fill="rgb(250,250,250)" d="M 701.5 865.78 C 704.171 869.885 702.135 878.75 700.468 882.982 C 689.379 911.028 659.457 925.215 633.43 935.907 C 595.222 951.602 553.455 960.867 515.926 977.574 L 515.409 976.654 C 519.99 972.019 525.913 969.172 530.945 965.362 C 560.647 942.955 596.335 936.49 629.289 921.588 C 648.357 912.965 693.715 885.825 701.5 865.78 z"/><path transform="translate(0,0)" fill="url(#Gradient9)" d="M 1160.21 1177.34 L 1164.84 1178.96 C 1127.52 1260.99 1118.88 1303.08 1122.8 1392.44 C 1117.12 1377.64 1113.35 1362.19 1111.57 1346.44 C 1104 1280.61 1118.72 1229.63 1160.21 1177.34 z"/><path transform="translate(0,0)" fill="rgb(172,179,182)" d="M 1215.57 677.774 C 1216.88 686.554 1208.97 711.345 1205.05 719.98 C 1189.08 755.185 1138.55 766.739 1104.06 779.036 C 1104.22 777.495 1120.97 764.902 1123.83 762.493 C 1152.74 738.183 1192.68 707.323 1215.57 677.774 z"/><path transform="translate(0,0)" fill="rgb(250,250,250)" d="M 814.564 480.523 C 840.569 465.088 867.114 446.223 889.257 425.649 L 890.69 425.811 C 893.039 428.284 895.776 431.027 897.885 433.64 C 898.348 449.722 897.605 457.523 886.046 470.453 C 874.695 483.151 855.3 491.21 838.271 487.599 C 829.026 486.028 823.286 483.704 814.564 480.523 z"/><path transform="translate(0,0)" fill="rgb(172,179,182)" d="M 890.69 425.811 C 893.039 428.284 895.776 431.027 897.885 433.64 C 898.348 449.722 897.605 457.523 886.046 470.453 C 874.695 483.151 855.3 491.21 838.271 487.599 C 847.115 478.541 857.538 474.901 866.734 466.363 C 879.628 454.391 891.584 444.666 890.69 425.811 z"/><path transform="translate(0,0)" fill="rgb(172,179,182)" d="M 630.352 1162.39 C 632.394 1163.71 646.367 1180.69 649.648 1184.32 C 646.16 1194.5 640.533 1206.28 636.216 1216.36 C 627.98 1235.59 622.658 1251.66 618.533 1272.13 L 615.687 1281.85 C 599.671 1236.32 612.519 1205.75 630.352 1162.39 z"/><path transform="translate(0,0)" fill="rgb(172,179,182)" d="M 1672.21 1565.9 L 1673.38 1566.34 C 1669.64 1577.04 1605.24 1642.56 1593.5 1642.63 C 1592.46 1639.55 1593.31 1637.3 1593.97 1634.05 C 1594.95 1629.83 1595.69 1624.85 1596.45 1620.54 C 1594.66 1619.79 1592.87 1619.04 1591.09 1618.27 C 1587.77 1616.84 1582.98 1615.28 1581.77 1612.25 C 1583.64 1608.5 1588.11 1605.04 1591.77 1603.2 C 1618.13 1589.86 1646.47 1580.59 1672.21 1565.9 z"/><path transform="translate(0,0)" fill="rgb(172,179,182)" d="M 1784.22 1313.02 C 1787.9 1304.72 1792.32 1285.18 1793.9 1282.26 C 1797.85 1281.88 1803.84 1286.48 1806.28 1289.19 C 1829.18 1314.52 1839.63 1354 1841.13 1387.27 C 1841.58 1394.64 1842.26 1402.57 1841.97 1409.89 C 1840.95 1405.81 1839 1397.07 1837.71 1393.45 C 1827.09 1358.15 1816.52 1332.09 1784.22 1313.02 z"/><path transform="translate(0,0)" fill="rgb(212,214,215)" d="M 1837.71 1393.45 C 1840.38 1388.22 1838.74 1388.84 1839.31 1382.86 L 1841.13 1387.27 C 1841.58 1394.64 1842.26 1402.57 1841.97 1409.89 C 1840.95 1405.81 1839 1397.07 1837.71 1393.45 z"/><path transform="translate(0,0)" fill="url(#Gradient8)" d="M 583.998 361.901 C 591.528 330.359 628.754 320.382 657.109 323.919 C 661.24 324.208 660.489 323.561 663.439 325.604 C 663.176 328.979 661.477 330.49 658.639 332.62 C 642.245 344.926 627.732 354.446 612.533 368.269 C 611.951 368.192 612.399 368.301 610.825 367.597 L 614.458 363.541 C 604.076 362.948 594.592 370.383 585.341 367.521 C 584.247 367.183 584.192 363.393 583.998 361.901 z"/><path transform="translate(0,0)" fill="rgb(172,179,182)" d="M 657.109 323.919 C 661.24 324.208 660.489 323.561 663.439 325.604 C 663.176 328.979 661.477 330.49 658.639 332.62 C 642.245 344.926 627.732 354.446 612.533 368.269 C 611.951 368.192 612.399 368.301 610.825 367.597 L 614.458 363.541 C 627.737 352.154 637.223 342.694 647.805 328.433 C 649.079 326.718 653.308 327.572 657.109 323.919 z"/><path transform="translate(0,0)" fill="rgb(172,179,182)" d="M 462.064 1463.12 L 464.404 1462.97 C 466.547 1465.3 467.84 1488.45 468.803 1493.77 C 473.649 1520.56 486.574 1538.81 500.473 1561.39 L 482.015 1544.92 C 461.83 1526.16 439.622 1498.37 432.122 1471.4 L 462.064 1463.12 z"/><path transform="translate(0,0)" fill="rgb(172,179,182)" d="M 1504.61 1484.06 C 1527.31 1491.24 1549.32 1503.92 1558.26 1526.92 C 1560.24 1532.03 1564.13 1543.59 1563.02 1548.68 L 1561.32 1548.15 C 1543.15 1533.59 1519.75 1523.42 1498.63 1513.3 C 1501.77 1503.7 1503.17 1494.01 1504.61 1484.06 z"/><path transform="translate(0,0)" fill="url(#Gradient7)" d="M 861.534 635.034 C 865.553 637.009 873.658 640.681 876.884 643.516 C 907.24 670.198 923.071 715.046 925.291 754.565 C 926.204 770.82 922.587 781.781 917.558 796.679 L 914.973 795.902 C 914.622 743.252 914.568 716.012 884.549 669.577 C 877.6 658.828 868.185 645.642 861.534 635.034 z"/><path transform="translate(0,0)" fill="rgb(172,179,182)" d="M 707.773 1092.22 L 710.129 1091.86 C 710.365 1093.68 694.48 1113.5 691.951 1116.71 C 680.325 1131.49 671.34 1146.66 662.395 1163.08 L 656.274 1156.44 C 652.06 1150.81 647.944 1143.83 644.182 1137.78 C 660.923 1104.03 674.024 1101.15 707.773 1092.22 z"/><path transform="translate(0,0)" fill="rgb(172,179,182)" d="M 1534.51 1628.07 L 1537.74 1628.36 C 1532.96 1635.58 1460.96 1673.13 1448.15 1676.08 C 1444.21 1676.99 1426.4 1673.16 1420.91 1672.2 C 1415.55 1671.4 1410.4 1670.21 1405.12 1669.06 C 1439.68 1655.28 1498.17 1638.11 1534.51 1628.07 z"/><path transform="translate(0,0)" fill="url(#Gradient6)" d="M 861.603 807.186 C 864.971 843.327 863.158 863.43 844.336 893.694 C 841.332 891.442 842.12 891.086 838.938 891.613 C 832.558 892.671 822.553 897.721 816.293 894.843 C 836.709 864.771 845.43 838.477 861.603 807.186 z"/><path transform="translate(0,0)" fill="url(#Gradient5)" d="M 768.844 964.341 C 772.225 952.066 773.018 950.402 774.236 937.654 C 774.073 937.613 786.658 945.893 788.816 947.05 C 803.036 951.651 811.802 950.687 825.532 943.776 C 826.637 943.218 827.731 942.637 828.813 942.034 C 821.977 954.088 814.279 963.246 805.315 973.694 C 803.113 976.261 804.751 979.017 806.197 981.475 C 803.01 984.266 785.781 988.075 781.563 984.399 C 778.132 981.41 774.918 976.762 772.642 972.786 C 770.87 970.366 769.922 967.197 768.844 964.341 z"/><path transform="translate(0,0)" fill="url(#Gradient4)" d="M 768.844 964.341 C 772.225 952.066 773.018 950.402 774.236 937.654 C 774.073 937.613 786.658 945.893 788.816 947.05 C 790.061 951.461 791.283 955.878 792.48 960.301 C 789.317 973.643 791.03 969.416 783.584 977.972 L 785.528 979.506 C 783.23 982.135 784.539 981.683 781.868 982.01 C 778.244 978.258 777.166 975.265 772.642 972.786 C 770.87 970.366 769.922 967.197 768.844 964.341 z"/><path transform="translate(0,0)" fill="rgb(250,250,250)" d="M 728.125 853.82 C 728.843 854.415 729.333 854.771 729.933 855.57 C 754.354 888.111 762.562 926.677 757.227 966.188 C 752.078 965.466 737.75 914.182 735.886 906.763 C 731.858 890.728 727.898 870.438 728.125 853.82 z"/><path transform="translate(0,0)" fill="rgb(172,179,182)" d="M 1159.66 1457.49 L 1161.69 1457.47 C 1160.57 1460.03 1128.97 1488.13 1124.47 1492.08 C 1115.51 1481.67 1101.38 1474.07 1088.84 1468.9 C 1078.96 1465.62 1068.95 1462.74 1058.83 1460.28 C 1095.05 1461.44 1123.58 1461.42 1159.66 1457.49 z"/><path transform="translate(0,0)" fill="rgb(172,179,182)" d="M 1292.16 1083.79 L 1294.48 1087.98 C 1286.06 1105.88 1270.65 1126.84 1259.75 1143.83 C 1253.22 1154 1244.36 1169.56 1237.62 1178.67 C 1232.76 1177.56 1228.38 1177.91 1223.38 1177.98 C 1243.33 1145.97 1266.16 1111.21 1292.16 1083.79 z"/><path transform="translate(0,0)" fill="rgb(79,88,96)" d="M 582.418 597.912 C 594.881 597.29 617.574 618.802 625.902 626.947 C 615.875 624.782 605.396 622.264 595.247 621.105 C 576.504 618.87 561.051 622.13 543.052 615.646 C 555.531 606.863 568.133 603.147 582.418 597.912 z"/><path transform="translate(0,0)" fill="url(#Gradient3)" d="M 1013.88 1376.06 C 1038.35 1373.55 1036.54 1376.39 1041.9 1399.69 C 1036.52 1400.9 1031.11 1402 1025.69 1403.01 C 1029.16 1407.39 1030.96 1412.87 1033.03 1418.08 C 1024.02 1411.92 1013.34 1403.43 1006.52 1394.96 C 1001.99 1390.18 998.047 1384.62 1001.44 1378.25 C 1006.54 1376.96 1008.68 1376.38 1013.88 1376.06 z"/><path transform="translate(0,0)" fill="rgb(79,88,96)" d="M 1001.44 1378.25 C 1006.54 1376.96 1008.68 1376.38 1013.88 1376.06 C 1014.34 1384.17 1019.31 1396.21 1024.46 1402.53 L 1025.69 1403.01 C 1029.16 1407.39 1030.96 1412.87 1033.03 1418.08 C 1024.02 1411.92 1013.34 1403.43 1006.52 1394.96 C 1001.99 1390.18 998.047 1384.62 1001.44 1378.25 z"/><path transform="translate(0,0)" fill="rgb(149,156,163)" d="M 1006.52 1394.96 C 1001.99 1390.18 998.047 1384.62 1001.44 1378.25 C 1002.94 1382.95 1005.44 1390.31 1006.52 1394.96 z"/><path transform="translate(0,0)" fill="url(#Gradient2)" d="M 816.293 894.843 C 822.553 897.721 832.558 892.671 838.938 891.613 C 842.12 891.086 841.332 891.442 844.336 893.694 C 834.248 908.249 810.697 938.781 789.997 926.917 C 790.096 926.588 813.821 898.051 816.293 894.843 z"/><path transform="translate(0,0)" fill="rgb(79,88,96)" d="M 963.355 622.414 C 970.527 627.211 965.045 702.487 961.541 706.52 L 959.496 706.588 C 951.864 686.899 946.639 637.966 963.355 622.414 z"/><path transform="translate(0,0)" fill="rgb(172,179,182)" d="M 1756.76 1518.95 L 1756.79 1520.69 C 1750.64 1532.6 1712.85 1574.26 1702.08 1584.57 C 1705.41 1576.98 1706.88 1574.43 1711.44 1567.47 C 1712.75 1565.18 1712.91 1565.29 1713.03 1562.71 C 1708.5 1561.12 1704.3 1565.39 1697.77 1564.46 C 1696.01 1561.89 1696.83 1558.19 1699.15 1556.52 C 1717.59 1543.26 1738.35 1532.35 1756.76 1518.95 z"/><path transform="translate(0,0)" fill="url(#Gradient1)" d="M 736.241 725.117 C 736.069 690.722 730.462 663.865 752.143 636.445 C 751.967 669.814 742.355 698.164 738.503 728.529 L 736.241 725.117 z"/><path transform="translate(0,0)" fill="rgb(172,179,182)" d="M 1257.76 369.932 C 1258.44 369.191 1265.2 364.543 1266.35 363.675 C 1286.77 348.288 1309.17 338.22 1332.69 328.464 L 1336.18 330.452 C 1304.91 352.616 1294.58 358.077 1259.35 373.013 L 1257.76 369.932 z"/><path transform="translate(0,0)" fill="rgb(250,250,250)" d="M 1152.54 188.227 C 1154.16 188.063 1155.78 188.039 1157.4 188.155 C 1162.85 188.53 1177.8 191.841 1181.63 196.108 L 1181.48 197.826 C 1177.63 201.02 1169.19 204.533 1164.35 206.78 C 1160.79 208.358 1157.02 210.252 1153.48 211.943 C 1147.85 203.976 1143.72 199.023 1137.26 191.665 C 1142.36 190.293 1147.38 189.298 1152.54 188.227 z"/><path transform="translate(0,0)" fill="rgb(172,179,182)" d="M 525.899 606.846 C 530.375 611.626 525.111 672.857 521.267 677.271 C 519.525 666.153 518.881 654.667 517.775 643.495 C 516.188 627.451 515.667 619.789 525.899 606.846 z"/><path transform="translate(0,0)" fill="rgb(149,156,163)" d="M 1042.14 620.643 C 1044.52 620.92 1043.52 620.494 1045.23 621.712 C 1043.72 631.47 1018.48 660.598 1010.75 670.026 L 1010.16 670.983 L 1009.25 670.787 C 1009.97 665.192 1012.28 660.862 1014.22 655.677 C 1020.49 638.865 1026.53 629.977 1042.14 620.643 z"/><path transform="translate(0,0)" fill="rgb(79,88,96)" d="M 575.191 1296.44 C 592.06 1305.82 609.058 1330.68 617.178 1347.56 C 598.235 1339.95 584.16 1313.32 575.191 1296.44 z"/><path transform="translate(0,0)" fill="rgb(79,88,96)" d="M 1223.38 1177.98 C 1228.38 1177.91 1232.76 1177.56 1237.62 1178.67 C 1233.05 1186.4 1223.88 1205.63 1215.25 1207.01 C 1211.07 1207.08 1210.74 1206.74 1206.8 1205 C 1212.39 1195.07 1217.13 1187.48 1223.38 1177.98 z"/><path transform="translate(0,0)" fill="rgb(79,88,96)" d="M 661.26 767.665 C 672.503 775.471 680.201 827.426 681.598 842.791 L 680.511 842.217 C 675.586 835.445 660.525 777.393 661.26 767.665 z"/><path transform="translate(0,0)" fill="rgb(149,156,163)" d="M 676.965 980.833 C 675.607 979.5 674.192 977.809 672.911 976.367 C 672.32 972.706 671.937 974.299 673.819 971.365 C 679.983 968.37 682.455 968.981 688.969 970.862 L 690.751 970.622 C 696.288 975.411 702.718 986.52 706.345 993.05 C 697.951 990.055 684.318 985.227 676.965 980.833 z"/><path transform="translate(0,0)" fill="rgb(79,88,96)" d="M 676.965 980.833 C 675.607 979.5 674.192 977.809 672.911 976.367 C 672.32 972.706 671.937 974.299 673.819 971.365 C 679.983 968.37 682.455 968.981 688.969 970.862 C 684.667 975.294 682.433 977.57 676.965 980.833 z"/><path transform="translate(0,0)" fill="rgb(172,179,182)" d="M 1577.44 1315.93 C 1581.89 1316.74 1586.46 1317.8 1590.89 1318.75 C 1580.54 1328.85 1570.32 1331.83 1556.81 1334.69 C 1551.18 1335.41 1545.53 1336.07 1539.88 1336.66 C 1553.3 1329.58 1562.77 1322.54 1577.44 1315.93 z"/><path transform="translate(0,0)" fill="rgb(172,179,182)" d="M 702.223 954.399 C 712.095 956.505 723.475 977.644 728.348 986.408 L 727.732 987.959 C 719.54 983.012 695.105 964.786 702.223 954.399 z"/><path transform="translate(0,0)" fill="rgb(149,156,163)" d="M 1005.87 630.956 L 1006.55 632.258 C 998.032 649.295 988.272 664.367 979.964 681.111 L 979.261 681.017 C 978.873 671.86 991.066 646.554 997.053 638.602 C 999.169 635.792 1002.97 632.975 1005.87 630.956 z"/><path transform="translate(0,0)" fill="rgb(250,250,250)" d="M 1481.68 1381.35 C 1488.54 1380.86 1495.78 1380.24 1502.56 1381.37 C 1498.18 1383.9 1484.05 1384.83 1478.8 1385.27 C 1470.75 1386.48 1462.68 1387.6 1454.6 1388.63 C 1465.96 1383.66 1469.15 1382.7 1481.68 1381.35 z"/><path transform="translate(0,0)" fill="rgb(172,179,182)" d="M 929.198 845.827 C 935.443 850.914 937.035 854.169 940.454 861.495 C 940.368 866.507 940.747 868.543 938.437 872.905 L 934.748 861.457 L 932.783 862.334 L 930.989 857.435 L 928.943 850.052 L 929.198 845.827 z"/><path transform="translate(0,0)" fill="rgb(79,88,96)" d="M 928.943 850.052 C 932.249 853.87 933.319 856.488 934.748 861.457 L 932.783 862.334 L 930.989 857.435 L 928.943 850.052 z"/><path transform="translate(0,0)" fill="rgb(149,156,163)" d="M 1048.25 469.144 L 1047.65 468.758 C 1051.35 460.366 1049.8 456.653 1052.58 450.427 L 1053.79 450.667 C 1055.68 456.767 1054.2 460.685 1056.04 466.793 L 1054.69 466.697 L 1054.08 463.533 C 1050.83 464.474 1051.95 466.456 1048.25 469.144 z"/><path transform="translate(0,0)" fill="rgb(172,179,182)" d="M 1160.21 1177.34 C 1164.35 1172.34 1168.48 1167.08 1173.07 1162.51 C 1170.57 1167.43 1166.97 1174.06 1164.84 1178.96 L 1160.21 1177.34 z"/><path transform="translate(0,0)" fill="rgb(212,214,215)" d="M 1257.76 369.932 L 1259.35 373.013 C 1253.66 375.38 1246.62 378.998 1240.95 381.731 C 1246.63 377.102 1251.6 373.937 1257.76 369.932 z"/><path transform="translate(0,0)" fill="rgb(212,214,215)" d="M 1292.16 1083.79 L 1303.61 1070.75 C 1300.47 1077.77 1298.47 1081.37 1294.48 1087.98 L 1292.16 1083.79 z"/><path transform="translate(0,0)" fill="rgb(212,214,215)" d="M 1332.69 328.464 C 1338.41 325.904 1342.65 324.05 1348.6 321.99 C 1344.53 324.805 1340.34 327.801 1336.18 330.452 L 1332.69 328.464 z"/><path transform="translate(0,0)" fill="rgb(212,214,215)" d="M 1407 929.458 L 1410.14 931.359 C 1405.6 934.352 1400.54 937.292 1395.86 940.126 C 1399.25 936.453 1403.31 932.876 1407 929.458 z"/><path transform="translate(0,0)" fill="rgb(115,122,128)" d="M 736.241 725.117 L 738.503 728.529 C 738.265 731.468 738.405 734.611 736.87 736.966 C 735.573 732.646 736.042 729.596 736.241 725.117 z"/><path transform="translate(0,0)" fill="rgb(36,39,47)" d="M 768.821 882.971 L 771.287 881.188 C 771.137 884.43 771.429 887.319 769.736 889.949 C 768.578 886.721 768.786 886.334 768.821 882.971 z"/><path transform="translate(0,0)" fill="rgb(172,179,182)" d="M 914.973 795.902 L 917.558 796.679 C 917.262 799.864 917.403 800.27 916.084 803.258 C 914.506 800.794 915.076 799.362 914.973 795.902 z"/></svg>