<svg version="1.1" xmlns="http://www.w3.org/2000/svg" style="display: block;" viewBox="0 0 2048 2048" width="1024" height="1024" preserveAspectRatio="none"><path transform="translate(0,0)" fill="rgb(0,0,0)" d="M 979.865 426.622 C 992.238 407.514 1030.38 364.416 1053.12 359.102 C 1073.39 354.366 1098.3 408.165 1105.99 424.948 C 1141.5 405.656 1153.65 383.566 1177.24 434.559 C 1184.78 450.863 1191.55 465.621 1196.27 483.313 C 1208.68 477.075 1243.16 457.312 1256.47 459.935 C 1261.95 461.013 1268.44 472.497 1270.07 478.104 C 1276.17 499.09 1285.16 529.131 1288.67 550.362 C 1300.93 547.276 1312.1 543.667 1324.76 543.992 C 1346.16 561.658 1346.4 599.571 1360.94 627.343 C 1384.57 634.994 1405.42 620.304 1409.12 657.977 C 1410.83 675.4 1412.14 695.529 1414.58 712.792 C 1431.91 721.714 1452.46 738.649 1468.89 745.637 C 1506.02 761.131 1545.52 769.743 1579.9 791.546 C 1591.77 799.074 1604.52 807.411 1614.7 817.331 C 1621.01 823.48 1626.78 835.645 1634.77 839.615 C 1659.48 851.886 1686.14 859.459 1710.26 873.158 C 1735.03 886.022 1755.8 903.578 1776.52 921.992 C 1785.55 929.55 1795.72 935.616 1804.89 942.981 C 1828.39 961.849 1846.56 983.506 1862.73 1008.84 C 1878.71 1033.88 1886.02 1056.61 1886.13 1086.39 C 1907.45 1084.27 1927.99 1081.26 1949.57 1081.22 C 1951.79 1081.22 1954.62 1080.32 1956.49 1079.07 C 1955.52 1075.97 1950.19 1073.1 1947.28 1071.66 C 1929.19 1062.73 1913.31 1059.7 1897.44 1046.69 C 1930.72 1049.78 1994.04 1050.49 2004.58 1089.43 C 1994.73 1123.32 1957.18 1125.13 1927.7 1130.23 C 1919.77 1131.6 1907.02 1130.71 1900.26 1134.55 C 1907.49 1142.2 2003.48 1136.89 2001.94 1184.37 C 2001.58 1195.28 1996.03 1204.31 1988.03 1211.43 C 1937.04 1256.86 1818.19 1236.73 1786.48 1263.63 C 1809.75 1265.46 1918.79 1267.39 1933.14 1276.58 C 1937.95 1293.26 1845.12 1304.36 1833.07 1306.93 C 1823.33 1317.07 1752.76 1326.42 1740.83 1320.85 C 1733.1 1322.02 1721.64 1323.99 1713.91 1323.04 C 1700.37 1325.23 1666.42 1331.58 1655.48 1338.89 C 1663.42 1339.46 1671.8 1340.32 1679.71 1340.9 C 1717.87 1343.72 1725.93 1359.8 1685.27 1373.56 C 1641.71 1388.29 1598.86 1392.05 1552.99 1392.42 C 1557.74 1410.08 1560.43 1424.57 1560.31 1444.15 C 1560.25 1454.28 1553.86 1478.74 1537.37 1471.47 C 1520.2 1463.91 1525.22 1429.51 1524.14 1414.71 C 1523.43 1406.52 1521.38 1399.18 1518.61 1391.98 C 1477.59 1392.2 1435.44 1393.42 1394.73 1399.35 C 1381.13 1401.33 1372.16 1404.25 1360.71 1411.89 C 1378.69 1412.46 1462.07 1415.06 1466.81 1434.45 C 1463.66 1460.77 1355.31 1470.75 1333.46 1472.08 C 1335.73 1482.29 1353.87 1557.64 1315.45 1538.58 C 1302.95 1532.38 1297.11 1491.58 1292.39 1476.13 C 1272.7 1474.87 1250.26 1476.93 1230.6 1478.05 C 1219.31 1478.7 1206.51 1478.78 1195.52 1480.53 C 1206.82 1483.54 1226.29 1488.14 1235.98 1493.97 C 1239.56 1494.55 1240.41 1494.39 1242.93 1497.03 C 1244.78 1505.03 1235.33 1510.05 1229.02 1512.63 C 1226.29 1516.97 1225.75 1517.2 1221.65 1520.48 C 1229.27 1521.66 1255.69 1528.8 1260.68 1533.76 L 1260.76 1535.82 C 1253.8 1542.45 1211 1547.32 1198.16 1551.03 C 1190.78 1551.01 1183.22 1550.84 1175.89 1551.55 C 1177.79 1553.77 1195.12 1554.71 1199.2 1555.42 L 1199.63 1556.88 C 1191.86 1561.98 1176.39 1560.27 1173.02 1567.42 C 1176.04 1566.91 1176.62 1566.89 1179.7 1566.92 L 1180.05 1567.8 C 1174.55 1571.09 1163.43 1573.18 1156.92 1574.43 C 1095.04 1586.34 1025.39 1587.83 962.435 1588.32 C 992.395 1599.74 1017.06 1606.48 1047.53 1615.84 C 976.723 1618.19 866.596 1598.36 802.302 1568.92 C 808.83 1567.83 816.647 1565.91 823.142 1564.32 C 855.091 1556.52 888.913 1557.57 920.907 1552.52 C 909.897 1549.81 894.219 1548.76 882.551 1547.56 C 866.617 1545.9 850.701 1544.06 834.809 1542.03 C 762.568 1532.98 688.358 1513.78 622.78 1481.64 C 614.573 1478.88 598.224 1462.38 606.8 1453.07 C 621.423 1437.2 663.522 1433.4 683.647 1428.91 C 666.875 1425.5 638.707 1421.97 623.53 1416.04 C 592.368 1403.86 592.47 1394.71 555.967 1393.94 C 556.119 1421.47 568.262 1450.85 566.277 1479.78 C 565.48 1491.4 560.73 1516.07 543.46 1512.12 C 514.775 1505.57 525.765 1459.44 528.618 1439.21 C 530.372 1426.77 531.316 1402.66 523.314 1392.14 C 518.544 1389.69 512.208 1389.66 506.568 1388.96 C 505.767 1407.99 505.455 1422.34 487.162 1431.38 C 469.605 1417.27 473.698 1406.96 474.129 1386.04 C 461.963 1383.88 448.6 1383.83 436.93 1382.19 C 397.498 1376.66 327.462 1370.61 294.122 1351.1 C 314.805 1341.6 345.558 1343.26 368.632 1343 C 362.823 1339.3 357.917 1336.53 353.064 1331.62 C 348.794 1330.15 341.607 1328.33 339.497 1324.46 C 342.541 1321.25 361.949 1321.3 368.384 1320.69 C 363.612 1319.46 346.632 1314.76 344.417 1311.14 C 347.972 1308.78 361.758 1306.67 366.794 1305.69 C 362.118 1303.69 358.005 1302.58 354.715 1298.82 C 352.852 1298.42 351.974 1298.24 350.274 1297.25 C 341.256 1291.98 333.395 1290.36 323.178 1288.79 C 318.932 1288.92 297.24 1286.36 291.472 1285.9 C 253.967 1282.95 217.432 1280.88 181.212 1269.64 C 167.668 1266.27 157.758 1256.92 145.079 1251.44 C 137.424 1248.13 115.22 1249.46 111.172 1242.47 L 112.268 1240.92 C 121.273 1236.92 144.801 1236.12 156.117 1235.32 C 151.38 1234.03 141.443 1232.37 138.47 1229.58 C 125.179 1231.25 83.0725 1233.26 74.897 1221.02 C 73.0202 1198.99 154.399 1187.53 165.966 1178.57 L 165.359 1177.22 C 150.684 1173.12 128.692 1179.41 113.503 1180.17 C 85.5456 1181.58 33.832 1188.47 28.8312 1150.12 C 46.9541 1115.05 98.1322 1122.63 104.342 1115.57 C 99.3491 1112.94 88.9921 1111.46 83.5924 1109.87 C 34.4828 1095.47 30.3814 1066.87 85.9223 1056.83 C 112.37 1052.05 125.178 1053.83 150.807 1056.67 C 143.086 1063.83 120.296 1073.91 109.54 1079.64 C 127.462 1082.44 145.535 1086.25 163.525 1089.11 C 175.38 1091 184.061 1093.63 196.34 1094.44 C 178.657 1078.66 174.945 1082.19 155.911 1074.42 C 174.379 1063.33 185.548 1060.83 207.331 1059.6 C 183.302 1038.36 175.022 989.143 170.252 958.724 C 165.043 925.495 202.41 899.845 224.831 881.903 C 214.372 882 211.388 882.122 200.995 884.071 C 226.836 861.731 252.361 842.45 281.832 825.261 C 289.113 821.015 290.258 813.132 295.945 807.565 C 314.2 790.887 338.589 778.829 361.459 770.521 C 387.898 760.916 421.494 760.754 447.012 750.089 C 476.242 737.872 501.572 720.612 532.693 711.11 C 570.841 699.463 610.162 697.047 645.586 677.232 C 662.083 668.004 673.655 652.982 687.354 640.216 C 694.115 633.915 701.069 629.011 708.562 623.658 C 710.387 613.492 716.257 586.848 724.547 580.775 C 732.738 574.775 756.083 584.738 765.431 588.545 C 770.524 567.395 774.879 547.727 782.592 527.209 C 797.658 487.125 801.568 488.63 833.306 512.316 C 838.49 498.521 859.255 430.105 883.516 438.645 C 888.551 440.418 904.762 456.429 908.301 461.371 C 916.839 447.025 925.469 433.168 935.133 419.58 C 964.497 378.295 965.322 392.338 979.865 426.622 z"/><path transform="translate(0,0)" fill="rgb(222,188,116)" d="M 962.813 1513.86 C 983.829 1513.59 1004.08 1519.41 1024.94 1520.92 C 1079.05 1524.83 1140.13 1529.52 1193.88 1522.7 C 1203.83 1521.44 1218.92 1515.63 1229.02 1512.63 C 1226.29 1516.97 1225.75 1517.2 1221.65 1520.48 C 1229.27 1521.66 1255.69 1528.8 1260.68 1533.76 L 1260.76 1535.82 C 1253.8 1542.45 1211 1547.32 1198.16 1551.03 C 1190.78 1551.01 1183.22 1550.84 1175.89 1551.55 C 1177.79 1553.77 1195.12 1554.71 1199.2 1555.42 L 1199.63 1556.88 C 1191.86 1561.98 1176.39 1560.27 1173.02 1567.42 C 1170.79 1568.17 1160.65 1568.46 1158.27 1568.19 C 1111.18 1562.76 994.19 1547.7 962.813 1513.86 z"/><path transform="translate(0,0)" fill="rgb(222,188,116)" d="M 138.47 1229.58 C 148.59 1227.84 194.451 1222.69 201.407 1226.52 C 201.09 1228.87 200.696 1229.84 201.795 1232.01 L 210.865 1238.97 C 200.564 1240.37 190.234 1241.55 179.883 1242.51 C 193.153 1249.79 215.417 1254.53 230.197 1258.72 C 260.815 1267.39 292.314 1273.41 322.952 1281.99 C 326.151 1282.88 338.347 1283.77 339.366 1286.63 C 333.933 1288.41 329.894 1285.81 323.678 1287.61 L 323.178 1288.79 C 318.932 1288.92 297.24 1286.36 291.472 1285.9 C 253.967 1282.95 217.432 1280.88 181.212 1269.64 C 167.668 1266.27 157.758 1256.92 145.079 1251.44 C 137.424 1248.13 115.22 1249.46 111.172 1242.47 L 112.268 1240.92 C 121.273 1236.92 144.801 1236.12 156.117 1235.32 C 151.38 1234.03 141.443 1232.37 138.47 1229.58 z"/><path transform="translate(0,0)" fill="rgb(222,188,116)" d="M 1490.72 1332.45 C 1527.28 1322.45 1534.58 1327.05 1571.65 1327.85 C 1591.68 1328.29 1620.97 1328.53 1640.87 1327.62 C 1651.73 1327.09 1662.56 1326.13 1673.33 1324.73 C 1686.71 1322.93 1709.54 1318.39 1722.02 1320.6 C 1720.59 1321.94 1716.23 1322.52 1713.91 1323.04 C 1700.37 1325.23 1666.42 1331.58 1655.48 1338.89 C 1649.65 1341.29 1640.52 1343.53 1634.24 1344.09 C 1587.23 1348.31 1534.76 1352.43 1490.72 1332.45 z"/><path transform="translate(0,0)" fill="rgb(222,188,116)" d="M 354.715 1298.82 C 365.256 1300.47 393.895 1309.4 406.451 1312.79 L 449.896 1324.44 C 455.804 1325.97 474.411 1329.02 477.332 1332.99 C 469.107 1336.46 366.498 1332.91 353.064 1331.62 C 348.794 1330.15 341.607 1328.33 339.497 1324.46 C 342.541 1321.25 361.949 1321.3 368.384 1320.69 C 363.612 1319.46 346.632 1314.76 344.417 1311.14 C 347.972 1308.78 361.758 1306.67 366.794 1305.69 C 362.118 1303.69 358.005 1302.58 354.715 1298.82 z"/><path transform="translate(0,0)" fill="rgb(222,188,116)" d="M 1128.24 1485.61 C 1147.32 1478.48 1175.52 1479.3 1195.52 1480.53 C 1206.82 1483.54 1226.29 1488.14 1235.98 1493.97 C 1204.44 1495.06 1156.66 1496.48 1128.24 1485.61 z"/><path transform="translate(0,0)" fill="rgb(222,188,116)" d="M 1740.83 1320.85 C 1774.89 1314.86 1795.58 1307.05 1833.07 1306.93 C 1823.33 1317.07 1752.76 1326.42 1740.83 1320.85 z"/><path transform="translate(0,0)" fill="rgb(222,188,116)" d="M 691.41 734.267 C 704.907 733.048 729.564 736.222 741.222 742.787 C 738.054 743.16 737.356 743.033 734.45 744.422 L 734.578 746.075 C 738.359 750.146 744.362 753.65 749.12 756.79 C 744.741 756.334 742.337 755.9 738.005 756.367 C 734.676 758.455 735.688 757.047 734.557 760.497 C 739.339 778.704 778.254 787.504 791.477 797.464 C 785.283 798.19 773.811 798.987 768.777 801.855 C 765.744 809.295 776.31 804.79 780.019 813.772 C 779.028 816.894 778.309 818.081 779.162 821.236 C 786.379 828.928 801.844 827.694 811.55 826.938 C 829.166 825.565 843.909 824.381 861.277 828.083 C 849.55 832.102 838.512 834.05 825.812 838.652 C 832.683 841.992 842.145 844.864 850.333 848.689 C 871.092 846.633 891.163 836.986 910.27 829.484 C 920.397 825.508 932.324 822.119 942.856 819.04 C 927.151 832.324 907.427 844.258 891.083 857.249 C 879.165 866.272 868.428 878.152 856.117 886.539 C 851.117 889.946 835.372 894.412 831.883 887.042 C 833.765 880.215 843.842 871.681 849.313 866.337 C 839.068 865.932 828.159 865.563 818.2 863.29 C 823.222 860.701 829.388 858.354 834.674 856.169 C 827.779 856.07 807.725 857.92 803.045 853.032 C 802.565 848.926 803.868 847.687 805.626 843.494 L 804.604 842.44 C 795.717 843.357 791.287 846.189 783.66 850.475 C 775.788 843.65 767.267 836.252 759.846 828.982 C 738.938 808.497 725.319 790.807 697.137 780.211 L 703.123 790.69 C 679.337 786.642 664.938 784.143 646.819 804.074 C 634.546 815.907 627.961 824.679 636.264 842.047 C 652.626 876.273 675.14 910.811 703.868 935.854 C 701.837 913.694 702.368 901.097 709.111 880.149 C 717.599 929.648 717.245 983.38 746.939 1026.7 C 763.896 1051.44 777.919 1065.68 793.41 1092.46 C 793.661 1075.2 791.449 1063.76 790.95 1047.37 C 796.386 1061.52 800.197 1077.48 806.564 1091.49 C 811.852 1103.14 818.705 1113.23 823.225 1125.31 C 826.573 1134.26 825.471 1145.79 828.428 1153.54 L 830.815 1154.18 L 832.303 1152.89 C 835.905 1143.22 833.686 1126.98 832.117 1117 C 839.456 1135.35 849.194 1149.05 854.534 1168.5 C 857.371 1178.84 855.584 1200.66 859.663 1206.48 L 861.979 1206.37 C 869.328 1201.17 874.309 1181.64 877.094 1172.58 C 882.235 1188.7 884.845 1204.22 889.378 1220.31 C 900.006 1258.03 925.02 1273.77 962.972 1263.17 C 950.642 1258.25 936.243 1254.39 926.392 1245.3 C 912.262 1232.26 910.828 1211.37 912.828 1193.44 C 913.537 1187.1 914.216 1174.41 918.588 1169.64 C 922.583 1170.25 924.357 1176.5 924.917 1179.76 C 930.599 1212.79 933.589 1216.16 956.188 1238.92 C 961.605 1236.24 967.471 1234.6 973.242 1232.76 C 976.747 1251.92 993.85 1259.45 1012.02 1259.59 C 1030.07 1259.72 1042.72 1249.97 1054.99 1237.91 C 1069.36 1250.46 1077.83 1239.05 1085.17 1226.21 C 1095.47 1208.18 1093.4 1187.91 1099.49 1168.89 C 1102.7 1171.89 1105.16 1174.37 1107.52 1178.13 C 1114.59 1189.58 1116.77 1203.38 1113.6 1216.45 C 1107.05 1244.15 1088.54 1251.86 1066.99 1265.2 C 1115.13 1272.07 1131.46 1240.07 1141.41 1199.47 C 1143.49 1190.99 1144.16 1182.71 1144.9 1174.05 C 1147.34 1179.52 1157.08 1203.63 1164.11 1202.05 C 1169.39 1193.64 1165.55 1170.48 1168.42 1161.25 C 1171.33 1151.88 1182.4 1139.23 1187.28 1130.29 C 1195.35 1115.51 1199.58 1099.57 1203.57 1083.45 C 1204.81 1100.65 1198.19 1133.82 1203.94 1142.62 C 1206.87 1143.27 1205.57 1143.52 1208.01 1142.05 C 1210.88 1135.6 1206.41 1124.74 1207.91 1120.99 C 1213.52 1107.47 1221.67 1095.43 1228.3 1082.34 C 1236.02 1067.11 1241.5 1051.85 1247.52 1035.92 C 1247.49 1045.13 1245.83 1059.83 1244.45 1068.82 C 1283.77 1039.19 1298.91 995.871 1307.96 949.32 C 1312.6 925.49 1312.03 902.253 1312.12 878.19 C 1324.31 897.113 1323.87 912.327 1324.29 934.3 C 1325.65 933.073 1329.88 929.261 1331.33 927.462 C 1352.64 900.986 1376.39 869.463 1391.54 839.1 C 1392.52 837.138 1391.94 825.299 1391.85 822.775 C 1370.47 787.68 1350.49 777.925 1313.79 800.676 C 1319.31 787.879 1322.85 786.038 1333.98 778.191 C 1324.02 781.077 1319.14 782.941 1310.31 788.132 C 1288.7 802.582 1267.68 829.489 1249.92 849.106 C 1238.69 845.579 1232.19 843.382 1220.56 841.269 C 1224.04 846.369 1226.84 847.949 1224.39 853.918 C 1219.1 858.02 1203.81 856.486 1196.31 856.484 L 1207.5 864.452 C 1196.98 866.738 1183.85 866.016 1172.9 865.924 C 1179.22 871.803 1187.52 878.322 1190.69 886.041 L 1189.78 887.802 C 1181.4 893.51 1171.89 888.893 1165.52 882.563 C 1152.9 870.027 1141.05 858.926 1126.76 848.203 C 1112.92 837.82 1097.08 828.545 1084.04 817.353 C 1111.22 828.365 1148.37 841.975 1176.09 849.577 C 1185.39 844.392 1192.28 841.374 1202.14 837.463 C 1185.83 834.027 1178.57 833.709 1163.94 825.524 C 1173.27 825.872 1184.03 825.59 1193.39 825.534 C 1202.81 825.477 1245.41 831.839 1248.07 819.738 C 1246.78 817.012 1244.29 815.578 1241.83 813.683 C 1244.04 810.569 1252.06 807.089 1256.46 803.73 C 1254.44 798.699 1239.19 799.377 1236.33 796.075 C 1244.01 787.746 1276.29 783.643 1287.21 767.255 C 1287.53 759.871 1278.29 760.819 1272.73 760.58 C 1284.21 754.565 1292.51 745.725 1304.59 740.357 C 1321.48 732.856 1338.03 735.039 1354.71 741.437 C 1381.17 751.585 1404.87 772.4 1416.37 798.652 C 1436.35 844.313 1400.1 862.395 1377.79 895.729 C 1363.66 916.846 1359.04 929.805 1349.93 952.989 C 1361.45 945.547 1385.46 929.078 1396.49 920.906 C 1392.31 931.39 1387.39 942.86 1384.34 953.62 C 1376.35 981.835 1369.9 1021.16 1347.01 1041.99 C 1344.57 1029.04 1339.38 1013.91 1332.93 1002.41 C 1300.03 1030.07 1303.02 1070.29 1284.54 1105.82 C 1277.91 1118.58 1263.51 1133.66 1253.02 1143.42 C 1250.23 1135.85 1250.05 1131.36 1249.65 1123.53 C 1230.45 1156.92 1217.26 1182.24 1200.54 1216.99 C 1200.08 1205.58 1200.08 1197.89 1197.05 1186.92 C 1195.06 1193.74 1178.08 1238.47 1174.59 1243.57 C 1172.59 1242.47 1173.23 1242.73 1170.94 1242.12 C 1170.18 1245.26 1172.3 1253.28 1171.83 1257.07 C 1169.2 1278.2 1170.56 1296.68 1163.48 1316.91 C 1160.37 1299.51 1151.03 1260.76 1144.91 1243.86 C 1127.21 1282.73 1136.9 1313.49 1092.57 1339.25 C 1093.69 1330.11 1097.26 1303.73 1092.75 1296.46 C 1091.12 1295.94 1090.12 1295.45 1088.51 1296.77 C 1069.61 1312.33 1063.86 1320.32 1038.56 1324.09 C 1039.99 1319.47 1041.32 1313.51 1042.53 1308.7 C 1005.25 1323.1 995.304 1331.15 959.423 1307.61 C 959.596 1313.65 959.075 1321.17 958.804 1327.32 C 947.179 1321.03 937.176 1312.22 926.407 1304.65 C 922.126 1301.64 919.805 1300.03 914.84 1302.07 C 908.539 1309.66 909.948 1330.06 909.898 1340.46 C 886.727 1320.69 877.103 1279.15 872.339 1250.15 L 862.709 1245.08 C 860.761 1259.15 858.451 1273.17 855.782 1287.12 C 854.24 1280.82 851.45 1266.11 849.86 1260.84 C 846.391 1249.36 830.666 1201.49 825.135 1193.57 L 823.907 1193.35 C 821.466 1199.27 823.74 1213.74 824.553 1220.62 C 810.063 1190.05 798.383 1153.5 780.824 1124.38 C 782.314 1135.92 782.694 1137.73 779.089 1148.69 C 770.07 1130.04 752.609 1116.02 741.645 1097.95 C 733.577 1084.65 717.05 1006.28 696.677 1011.77 C 689.657 1017.86 688.894 1031.71 687.551 1040.98 C 656.855 1012.52 654.172 991.323 643.266 952.673 C 639.347 938.786 638.664 933.178 630.546 921.142 C 641.295 929.844 665.43 950.837 677.222 956.585 L 678.408 955.348 C 681.015 940.475 649.931 897.011 640.884 884.638 C 632.186 872.744 610.106 851.282 607.057 837.239 C 603.073 818.891 609.732 796.153 620.047 780.937 C 636.759 756.588 662.404 739.818 691.41 734.267 z"/><path transform="translate(0,0)" fill="rgb(222,188,116)" d="M 1410.74 1141.05 L 1411.54 1142.38 C 1400.42 1157.81 1394.17 1176.18 1384.63 1192.45 C 1379.23 1201.66 1369.34 1208.77 1362.57 1217.35 C 1377.19 1254.63 1410.01 1257.74 1443.24 1270.87 C 1454.54 1275.33 1466.67 1278.99 1477.7 1284.01 L 1479.03 1284.62 C 1467.85 1285.35 1339.22 1304.45 1335.33 1307.05 L 1339.39 1308.35 L 1339.83 1309.28 C 1328.6 1314.6 1310.27 1319.15 1297.49 1323.62 C 1312.38 1331.4 1358.81 1342.73 1378.54 1349.87 C 1346.55 1375.25 1225.7 1372.87 1198.04 1394.05 L 1198.02 1395.58 C 1207.14 1403.78 1236.48 1411.45 1249.88 1418.75 L 1251.13 1419.43 C 1207.99 1432.54 1157.1 1435.73 1113 1426.48 C 1125.38 1423.94 1164.74 1419.25 1171.41 1412.03 L 1170.81 1410.44 C 1158.51 1401.27 1099.9 1393.86 1082.76 1391.77 C 1073.82 1391.56 1037.38 1387.09 1028.6 1385.4 C 1039.99 1383.59 1054.43 1382.9 1065.48 1381.03 C 1090.85 1376.75 1117.93 1372.88 1143.05 1369.21 C 1175.86 1364.42 1250.38 1354.54 1279.05 1340.2 C 1248.69 1336.32 1220.77 1330.79 1191.12 1326.77 C 1216.73 1320.45 1242.43 1314.51 1268.21 1308.96 C 1281.97 1306.03 1350.23 1293.44 1355.22 1283.84 C 1345.69 1278.87 1338.08 1279.84 1328.7 1277.4 C 1295.33 1268.72 1263.22 1273.35 1230.16 1270.66 L 1228.36 1270.51 C 1247.98 1260.82 1272.32 1257.26 1291.71 1246.56 C 1308.47 1237.31 1326.99 1226.53 1341.21 1213.74 C 1339.4 1184.29 1324.37 1196.73 1306.72 1206.03 C 1313.42 1196.71 1316.13 1188.81 1321.07 1178.55 C 1327.58 1165.04 1334.87 1152.2 1343.96 1140.23 C 1340.63 1150.79 1331.79 1161.6 1329.21 1172.31 C 1330.33 1175.93 1329.32 1174.49 1332.4 1176.76 C 1352.35 1180.82 1394.01 1151.1 1410.74 1141.05 z"/><path transform="translate(0,0)" fill="rgb(222,188,116)" d="M 670.929 1156.7 C 676.427 1159.39 687.174 1169.91 693.277 1173.16 C 704.863 1179.34 717.179 1184.76 728.979 1190.69 C 730.682 1194.11 732.413 1198.77 733.881 1202.39 C 721.811 1201.98 697.732 1197.19 690.288 1209.6 C 689.411 1230.82 812.143 1259.15 832.09 1263.7 C 814.575 1264.55 799.276 1262.6 782.061 1262.39 C 753.253 1262.03 724.376 1261.24 695.584 1260.42 C 689.591 1260.25 669.618 1264.48 673.794 1273.87 C 679.496 1278.55 697.867 1281.32 705.392 1282.35 C 748.342 1288.25 790.337 1298.45 833.023 1305.79 C 840.385 1307.06 847.98 1308.53 855.106 1310.77 C 828.817 1314.19 790.43 1313.32 766.032 1321.15 C 790.108 1329.24 820.846 1334.6 845.836 1340.35 C 849.683 1341.24 857.372 1341.55 860.24 1343.97 L 858.097 1344.73 C 838.256 1344.8 818.364 1346.12 798.522 1346.55 C 766.563 1347.31 734.589 1347.05 702.647 1345.77 C 676.628 1344.81 651.374 1339.99 624.584 1338.71 C 657.562 1326.87 688.94 1326.76 720.42 1311.19 C 672.22 1303.37 628.888 1304.92 580.701 1299.65 C 550.003 1296.3 525.386 1288.39 493.686 1285.16 C 525.509 1276.23 561.433 1275.15 593.494 1266.11 C 600.864 1264.04 635.098 1257.77 637.765 1251.43 C 642.591 1239.94 632.958 1214.32 629.149 1202.91 C 636.91 1204.32 645.97 1206.41 653.945 1203.76 C 663.517 1200.49 682.33 1193.79 687.225 1184.57 C 689.734 1179.84 674.078 1162.82 670.929 1156.7 z"/><path transform="translate(0,0)" fill="rgb(222,188,116)" d="M 594.586 730.553 L 595.539 730.47 C 591.624 738.391 569.184 742.497 572.125 751.616 C 575.5 754.06 578.668 753.967 582.895 754.489 C 569.505 766.896 562.322 775.532 550.995 789.643 C 544.042 798.306 530.405 815.846 521.906 821.973 C 527.984 790.873 532.168 781.893 531.287 750.106 C 522.917 757.254 514.654 764.86 506.795 772.586 C 494.798 784.382 481.357 794.125 467.899 804.128 C 470.963 834.083 485.478 847.458 494.749 874.958 C 471.429 854.566 454.058 832.714 425.001 817.563 C 428.118 823.832 431.191 830.122 434.221 836.432 C 416.201 826.475 417.384 825.385 395.895 819.936 C 394.361 824.432 393.427 828.441 390.502 832.105 C 381.592 837.643 357.65 831.273 352.725 836.119 C 353.503 841.499 369.551 850.561 373.821 854.98 C 388.69 870.366 404.668 886.588 418.694 902.609 C 403.271 893.618 390.133 883.02 372.945 875.559 C 358.879 869.453 344.078 866 330.651 859.716 L 329.108 858.983 C 341.291 874.176 354.078 881.817 364.405 898.45 L 364.525 899.151 C 362.609 900.849 354.525 896.739 351.099 895.692 C 329.152 888.988 300.763 884.08 278.261 889.37 C 290.73 896.639 302.658 902.649 315.477 909.217 C 318.268 910.647 318.031 911.061 318.392 912.946 C 313.41 916.591 286.052 919.33 276.866 921.365 C 284.126 928.602 309.229 953.534 308.662 962.217 L 307.174 963.32 C 290.846 963.794 260.935 927.546 244.255 922.127 L 243.038 921.744 C 237.946 928.56 225.416 957.221 217.644 954.504 C 212.43 937.983 234.975 911.942 245 900.575 C 267.927 874.58 294.686 853.622 321.845 832.313 C 332.091 824.274 340.656 813.122 352.039 806.438 C 379.314 791.142 412.988 797.376 441.873 788.156 C 471.286 778.767 496.907 760.216 524.816 747.573 C 533.014 743.859 546.63 740.935 555.524 738.184 C 569.668 733.809 579.82 731.358 594.586 730.553 z"/><path transform="translate(0,0)" fill="rgb(222,188,116)" d="M 1000.71 585.899 C 1009.6 588.104 1029.14 597.424 1038.83 601.303 C 1051.21 606.256 1063.97 610.55 1076.15 615.48 C 1074.96 615.615 1073.77 615.773 1072.59 615.953 C 1070.2 616.319 1064.17 616.836 1063.12 618.291 C 1071.46 622.152 1108.55 618.4 1119.23 618.141 C 1132 617.33 1144.02 620.077 1156.79 619.626 C 1194.42 618.297 1238.21 616.723 1257.37 656.406 C 1258.44 658.632 1258.12 658.845 1257.07 660.711 C 1247.42 659.943 1239.03 642.714 1224.08 642.281 C 1200.34 641.595 1165.47 671.067 1150.79 687.119 C 1132.36 707.26 1124.74 719.996 1103.46 738.353 C 1107.47 727.227 1109.16 721.72 1111.34 710.074 C 1107.56 714.749 1095.4 735.304 1094.54 735.93 C 1093.77 734.639 1093.74 734.216 1094.42 732.309 C 1103.13 707.636 1143.41 662.162 1164.36 649.838 C 1158.66 650.1 1142.07 651.852 1138.17 651.313 C 1138.97 648.981 1138.82 649.817 1138.88 647.261 C 1126.82 647.528 1089.87 677.246 1079.9 685.726 C 1092.3 667.924 1114.38 652.827 1131.35 637.818 L 1129.08 633.951 C 1127.59 631.386 1125.66 627.631 1122.35 628.354 C 1095.47 634.226 1068.06 634.872 1040.92 638.021 L 1028.27 637.816 C 1031.38 635.139 1035.47 632.4 1036.21 628.583 L 1034.91 626.816 C 1030 625.209 1018.09 625.937 1012.34 625.976 C 1007.83 623.233 1002.72 620.233 997.743 618.586 L 996.874 619.634 L 997.676 624.534 C 995.197 627.137 972.625 626.828 967.123 627.153 C 971.095 631.287 974.266 635.161 977.912 639.573 C 952.925 634.601 926.947 638.24 902.59 629.547 C 898.536 628.101 894.738 627.572 890.992 629.874 C 891.092 641.226 922.691 665.386 930.66 674.51 C 918.442 666.132 881.569 638.814 865.926 647.712 C 867.479 653.927 904.776 687.679 911.501 698.248 C 922.548 715.606 925.874 721.788 931.368 741.943 C 929.182 739.712 926.235 736.825 924.692 734.13 C 922.065 729.54 918.888 717.445 915.209 714.261 C 912.367 718.446 915.388 730.497 916.398 735.374 C 912.176 730.671 907.78 726.172 903.422 721.586 C 876.312 693.181 852.203 661.364 815.138 645.129 C 796.131 636.804 796.748 645.322 783.297 648.952 L 782.174 647.78 C 782.713 644.741 784.186 641.44 786.049 639.093 C 821.358 594.599 909.548 627.83 955.083 619.116 L 955.117 618.135 C 949.296 615.654 947.244 615.745 941.117 615.337 C 956.685 606.74 984.649 593.154 1000.71 585.899 z"/><path transform="translate(0,0)" fill="rgb(222,188,116)" d="M 930.589 890.363 C 944.454 889.468 960.834 897.181 972.588 896.571 C 999.268 895.188 1025.61 897.519 1052.11 896.807 C 1065.72 896.441 1080.67 891.436 1094.46 890.707 C 1110.6 889.934 1126.36 895.758 1138.12 906.841 C 1143.26 911.607 1153.28 922.793 1152.13 929.74 C 1147.53 957.433 1120.57 969.548 1096.71 970.142 C 1103.71 964.677 1115.08 957.833 1117.42 947.794 C 1121.1 932.014 1109.55 914.727 1092.55 924.91 C 1083.31 930.45 1073.6 939.795 1063.98 946.607 C 1055.44 944.67 1048.74 943.671 1040.04 942.467 C 1047.33 935.682 1057.61 927.39 1065.36 920.788 C 1061.09 922.063 1058.71 923.395 1054.74 925.376 C 1039.47 935.49 1034.88 939.537 1017.49 944.84 C 1006.67 938.71 997.884 928.803 988.389 920.683 C 979.223 912.845 972.467 908.559 961.954 902.996 C 977.417 916.288 994.406 929.966 1005.96 946.727 C 1001.57 945.531 991.746 943.542 987.347 943.846 C 980.064 944.419 974.025 948.42 966.674 945.877 C 950.459 940.267 934.768 908.283 916.408 928.356 C 912.546 932.578 912.246 936.225 912.475 941.684 C 913.021 954.677 922.77 962.16 931.849 969.999 C 922.378 969.995 913.857 970.009 905.165 965.441 C 891.685 958.357 881.168 944.863 876.623 930.572 C 882.863 905.485 906.739 893.19 930.589 890.363 z"/><path transform="translate(0,0)" fill="rgb(71,45,3)" d="M 838.5 698.499 C 862.655 697.919 879.342 711.996 894.357 729.474 C 900.397 736.504 896.912 739.303 899.603 745.077 C 903.699 753.869 909.219 761.449 909.513 772.017 C 910.709 784.171 899.863 803.096 886.178 802.341 C 883.653 802.201 881.964 802.526 879.645 803.661 L 879.713 804.82 C 881.721 804.768 883.622 804.698 885.575 804.209 C 878.93 814.289 872.079 814.897 860.792 815.893 C 854.985 817.27 829.141 817.007 822.937 815.49 L 823.586 814.858 C 826.357 815.147 825.381 815.143 828.16 814.525 C 827.339 811.285 808.789 801.506 806.548 796.299 C 804.972 792.636 804.31 784.227 804.101 780.52 L 805.836 779.76 C 801.13 771.997 802.834 747.453 798.847 744.099 L 797.36 746.926 C 797.542 737.107 801.399 729.637 805.986 721.386 C 809.183 715.635 819.667 701.428 825.948 700.736 C 829.507 700.344 834.596 699.272 838.5 698.499 z"/><path transform="translate(0,0)" fill="rgb(222,188,116)" d="M 820.602 728.349 C 825.367 716.996 832.75 714.885 843.966 717.542 C 852.956 718.242 863.915 722.999 869.622 730.137 C 873.517 735.009 872.73 736.991 872.382 743.261 C 880.874 756.157 890.592 773.337 889.869 789.31 C 868.364 794.059 860.459 795.917 838.273 798.949 C 827.008 800.668 829.773 798.163 820.756 793.46 L 819.565 792.853 C 810.759 777.261 806.086 741.431 820.602 728.349 z"/><path transform="translate(0,0)" fill="rgb(88,58,3)" d="M 820.602 728.349 C 816.558 747.741 810.823 794.852 838.273 798.949 C 827.008 800.668 829.773 798.163 820.756 793.46 L 819.565 792.853 C 810.759 777.261 806.086 741.431 820.602 728.349 z"/><path transform="translate(0,0)" fill="rgb(88,58,3)" d="M 843.966 717.542 C 852.956 718.242 863.915 722.999 869.622 730.137 C 873.517 735.009 872.73 736.991 872.382 743.261 C 863.016 731.116 856.839 725.56 843.966 717.542 z"/><path transform="translate(0,0)" fill="rgb(222,188,116)" d="M 1617.63 861.93 C 1623.21 863.282 1632.12 868.336 1637.82 870.674 C 1686.58 890.649 1723.88 929.997 1760.47 966.518 C 1771.82 977.846 1778.21 984.845 1792.68 991.929 L 1784.58 972.491 C 1791.02 977.282 1799.92 983.567 1805.54 988.941 C 1821.83 1004.5 1835.88 1032.35 1841.31 1053.97 C 1825.02 1038.2 1811.87 1024.17 1790.98 1014.6 C 1794.63 1024.65 1795.22 1031.96 1795.87 1042.57 C 1789.19 1025.55 1787.59 1026.16 1771.7 1015.78 C 1756.05 1023.67 1746.53 1031.62 1728.25 1039.62 C 1713.92 1046.09 1709.02 1046.24 1693.97 1045.98 C 1717.65 1032.87 1735.57 1021.26 1749.43 997.966 C 1736.9 991.279 1731.15 989.973 1718.63 981.02 C 1730.49 978.237 1738.78 978.88 1750.01 976.49 C 1751.18 976.242 1750.99 975.608 1751.33 974.197 C 1747.66 965.309 1725.13 952.452 1716.45 948.163 C 1702.03 956.602 1695.24 962.308 1682.52 972.933 C 1686.82 962.702 1694.84 951.118 1700.1 940.205 C 1686.76 915.515 1671.32 936.402 1656.13 948.136 C 1642.28 958.829 1631.55 968.84 1616.18 978.009 C 1620.66 965.561 1628.28 954.547 1631.99 941.354 C 1641.71 906.78 1642.37 889.028 1617.63 861.93 z"/><path transform="translate(0,0)" fill="rgb(88,58,3)" d="M 1177.18 702.49 C 1238.84 700.685 1237.76 802.478 1182.25 809.51 C 1101.65 813.173 1130.4 716.707 1177.18 702.49 z"/><path transform="translate(0,0)" fill="rgb(222,188,116)" d="M 1181.27 714.956 C 1213.69 722.176 1207.98 773.673 1195.15 795.599 C 1185.43 796.417 1173.95 795.444 1164.16 794.661 C 1156.79 793.629 1153.53 792.974 1146.38 790.928 L 1139.31 781.497 C 1140.13 778.617 1141.06 775.768 1142.09 772.956 C 1149.48 752.765 1160.51 724.498 1181.27 714.956 z"/><path transform="translate(0,0)" fill="rgb(222,188,116)" d="M 382.76 1132.22 C 414.088 1128.84 420.273 1154.03 427.762 1177.62 C 420.884 1173.17 420.374 1172.89 412.856 1170.21 C 416.496 1176.76 426.749 1187.21 424.079 1192.68 C 420.341 1194.77 416.307 1194.27 411.858 1194.33 C 405.265 1209.4 403.048 1220.58 402.027 1236.77 L 401.914 1252.19 C 371.008 1231.42 316.69 1146.86 382.76 1132.22 z"/><path transform="translate(0,0)" fill="rgb(222,188,116)" d="M 1599.63 1170.14 C 1629.69 1168.41 1640.14 1188.17 1626.4 1212.49 C 1616.17 1230.6 1596.85 1254.85 1582.43 1269.18 C 1578.03 1273.65 1574.47 1276.77 1569.74 1280.85 C 1563.51 1252.09 1552.26 1220.85 1568.03 1194.37 C 1575.79 1181.34 1585.29 1174.12 1599.63 1170.14 z"/><path transform="translate(0,0)" fill="rgb(222,188,116)" d="M 796.17 1396.41 C 827.615 1393.95 855.486 1399.34 886.14 1403.9 C 920.847 1408.94 955.45 1414.68 989.928 1421.1 C 977.635 1424.27 960.794 1426.37 948.236 1427.73 C 895.233 1435.26 841.88 1434.69 790.502 1417.79 C 778.227 1413.75 769.099 1407.89 757.219 1403.1 C 772.267 1399.2 780.709 1397.55 796.17 1396.41 z"/><path transform="translate(0,0)" fill="rgb(222,188,116)" d="M 546.305 1116.21 C 550.797 1115.88 554.516 1115.86 558.993 1116.69 C 570.653 1118.78 580.936 1125.58 587.413 1135.49 C 603.779 1160.04 600.544 1196.74 595.482 1224.41 L 587.547 1218.83 C 567.374 1202.94 495.052 1134.26 546.305 1116.21 z"/><path transform="translate(0,0)" fill="rgb(222,188,116)" d="M 1040.35 386.775 C 1041.12 389.49 1039.89 400.636 1039.56 404.355 C 1037.88 423.329 1039.21 441.464 1032.46 459.519 C 1031.44 453.49 1030.14 443.847 1028.07 438.477 L 1026.14 438.146 C 1013.7 445.944 989.943 498.534 985.586 514.65 C 997.6 512.749 1014.19 508.135 1026.45 505.181 C 1015.07 519.5 1005.27 532.554 993.062 546.258 C 981.743 557.815 970.272 569.222 958.651 580.475 C 958.681 579.101 958.732 577.726 958.801 576.353 C 961.677 519.905 997.251 425.423 1040.35 386.775 z"/><path transform="translate(0,0)" fill="rgb(222,188,116)" d="M 1473.76 1144.22 C 1488.72 1143.25 1494.97 1147.17 1498.33 1161.83 C 1491.05 1190.79 1469.85 1210.46 1445.51 1226.1 C 1439.59 1229.52 1436.13 1231.13 1429.85 1233.84 C 1422.74 1198.66 1433.43 1152.78 1473.76 1144.22 z"/><path transform="translate(0,0)" fill="rgb(222,188,116)" d="M 375.904 1050.18 C 423.632 1045.94 437.417 1074.41 445.499 1114.24 C 427.483 1102.24 420.578 1082.13 398.039 1076.57 C 385.066 1073.46 371.387 1075.69 360.074 1082.76 L 360.739 1083.61 C 380.285 1086.66 383.568 1088.27 398.908 1099.78 C 365.556 1096.43 356.79 1102.17 334.607 1125.56 C 328.051 1092.09 339.754 1058.21 375.904 1050.18 z"/><path transform="translate(0,0)" fill="rgb(222,188,116)" d="M 1744.41 1165.1 C 1760.09 1164.34 1773.77 1170.25 1776.6 1186.96 C 1781.55 1216.28 1761.19 1243.55 1742.2 1263.38 L 1740.94 1263.72 C 1739.79 1261.89 1739.99 1262.66 1739.69 1260.88 C 1737.31 1246.65 1730.94 1214.39 1724.31 1202.68 C 1720.25 1203.88 1719.37 1204.1 1715.18 1204.5 C 1705.59 1200.21 1720.83 1182.5 1725.19 1177.99 C 1731.45 1171.5 1735.81 1168.16 1744.41 1165.1 z"/><path transform="translate(0,0)" fill="rgb(222,188,116)" d="M 745.336 1458.27 C 781.861 1456.92 793.039 1460.52 827.61 1469 C 858.715 1476.31 889.657 1484.31 920.414 1492.97 C 912.612 1494.09 906.556 1494 898.65 1494.06 C 858.962 1494.13 749.464 1498.52 724.718 1464.79 C 732.754 1460.82 736.789 1459.53 745.336 1458.27 z"/><path transform="translate(0,0)" fill="rgb(222,188,116)" d="M 1002.54 1043.41 C 1028.38 1040.37 1062.33 1049.93 1089.26 1048.13 C 1092.16 1047.94 1100.84 1049.06 1102.27 1051.65 C 1105.67 1057.82 1101.72 1066.64 1099.95 1072.94 C 1095.8 1085.52 1088.79 1089.84 1077.72 1095.14 C 1069.08 1075.88 1071.76 1066.23 1053.99 1049.67 C 1046.08 1051.07 1036.17 1054.04 1027.94 1055.95 C 1025.46 1054.75 1021.7 1052.44 1019.19 1051.01 C 1013.32 1049.94 998.709 1051.63 991.708 1051.37 C 982.169 1051.01 972.622 1050.27 963.125 1049.92 C 953.946 1066.39 950.246 1079.66 942.583 1096.25 C 932.309 1090.87 924.42 1086.21 919.856 1074.72 C 916.854 1067.15 914.363 1058.25 917.591 1050.52 C 923.378 1045.69 990.123 1044.39 1002.54 1043.41 z"/><path transform="translate(0,0)" fill="rgb(222,188,116)" d="M 1143.93 421.724 C 1144.4 422.252 1144.88 422.78 1145.35 423.308 C 1144.5 438.406 1145.53 458.311 1146.39 472.733 C 1140.02 468.71 1138.27 467.429 1132.79 462.288 C 1127.92 471.65 1122.45 480.692 1116.42 489.358 C 1122.13 500.94 1126.3 514.712 1130.8 527.044 C 1122.32 520.408 1118.61 515.427 1112.12 506.929 C 1100.78 538.671 1090.22 550.297 1063.53 570.473 C 1061.41 572.132 1060.76 573.031 1058.15 573.422 C 1053.84 555.293 1102.66 491.191 1114 475.711 C 1103.36 477.552 1092.68 479.189 1081.98 480.622 C 1104.15 461.771 1123.89 438.353 1143.93 421.724 z"/><path transform="translate(0,0)" fill="rgb(222,188,116)" d="M 1512.56 797.424 C 1541.5 799.59 1585.14 826.202 1598.9 852.039 C 1615.4 883.044 1596.24 911.916 1568.28 925.529 C 1570.27 920.079 1573.14 913.994 1575.53 908.608 C 1589.4 877.397 1576.98 872.787 1554.65 856.043 C 1564.33 855.77 1573 856.579 1582.62 857.324 C 1568.02 842.501 1545.83 841.717 1524.41 830.016 C 1529.6 827.142 1532.7 825.066 1537.54 821.711 C 1531.91 816.591 1531.03 818.261 1524.76 810.971 L 1528.65 813.463 C 1525 809.258 1513.27 799.047 1512.56 797.424 z"/><path transform="translate(0,0)" fill="rgb(222,188,116)" d="M 239.363 1131.06 C 266.182 1128.65 275.284 1154.19 278.897 1175.72 C 271.201 1171.48 268.171 1170.6 259.935 1168.13 C 254.09 1187.6 252.861 1195.6 252.244 1215.75 L 251.928 1232.18 C 231.824 1214.89 220.365 1199.62 219.425 1172.26 C 218.749 1152.58 220.222 1140.78 239.363 1131.06 z"/><path transform="translate(0,0)" fill="rgb(222,188,116)" d="M 1662.02 1067.32 C 1682.82 1065.7 1705.56 1074.27 1709.43 1097.21 C 1710.61 1104.26 1709.38 1110.46 1708.43 1117.46 C 1706.42 1115.36 1704.35 1113.32 1702.22 1111.35 C 1682.87 1093.22 1667.94 1091.6 1642.81 1092.33 C 1648.08 1096.65 1651.78 1099.51 1656.32 1104.6 C 1658.52 1109.36 1660.64 1115.59 1658.37 1120.51 C 1636.51 1106.42 1615.39 1109.83 1591.44 1113.73 C 1607.81 1089.49 1632.98 1071.85 1662.02 1067.32 z"/><path transform="translate(0,0)" fill="rgb(222,188,116)" d="M 854.462 1023.65 C 875.486 1039.49 871.925 1047.58 903.068 1044.14 C 898.095 1056.17 888.446 1066.02 883.923 1078 C 879.469 1089.8 883.476 1105.23 885.812 1117.51 C 887.097 1125.79 886.518 1130.04 885.747 1138.27 C 858.498 1107.32 844.845 1064.42 854.462 1023.65 z"/><path transform="translate(0,0)" fill="rgb(222,188,116)" d="M 593.317 953.626 C 594.107 955.427 593.965 954.838 594.318 956.412 C 599.223 978.533 606.789 999.978 616.851 1020.28 C 620.463 1027.45 630.022 1047.17 637.576 1049.66 C 643.594 1047.77 647.154 1047.65 653.34 1047.1 C 671.927 1060.56 680.931 1095.93 683.79 1117.39 C 676.432 1108.21 673.966 1095.32 663.821 1084.56 C 640.098 1059.42 603.547 1046.74 591.575 1011.77 C 586.139 995.897 585.736 968.827 593.317 953.626 z"/><path transform="translate(0,0)" fill="rgb(222,188,116)" d="M 1164.76 1026.01 C 1166.57 1029.7 1165.15 1050.21 1165.21 1056.02 C 1165.46 1084.08 1159.19 1114.35 1138.33 1134.69 C 1137.85 1127.85 1138.08 1120.65 1138.17 1113.76 C 1139.08 1105.46 1140.77 1095.86 1142.04 1087.55 C 1134.22 1073.32 1125.09 1061.72 1117.58 1048.07 C 1138.75 1048.58 1149.22 1038.99 1164.76 1026.01 z"/><path transform="translate(0,0)" fill="rgb(222,188,116)" d="M 505.452 1059.25 C 538.758 1055.82 563.867 1083.75 575.571 1111.78 C 558.4 1106.87 545.626 1097.31 528.084 1093.93 C 521.652 1094.53 513.824 1099.41 509.838 1097.76 C 509.646 1090.24 520.097 1084.12 525.533 1080.41 C 514.167 1078.14 506.274 1077 494.624 1079.23 C 487.831 1080.53 478.828 1086.49 473.421 1085.8 L 472.104 1083.9 C 472.106 1067.8 492.258 1061.51 505.452 1059.25 z"/><path transform="translate(0,0)" fill="rgb(222,188,116)" d="M 401.047 938.213 C 439.475 935.487 457.958 960.334 480.088 986.417 C 492.691 1001.27 500.722 1006.77 511.391 1024.66 C 497.954 1014.72 494.034 1009.85 478.235 1002.04 C 452.328 989.532 437.766 994.443 415.176 984.752 C 420.757 982.709 424.1 981.686 429.655 980.234 C 435.64 978.669 451.616 979.156 454.932 976.287 C 454.305 972.558 449.488 969.837 446.215 967.687 C 435.47 960.624 423.782 955.113 411.496 951.317 C 406.721 949.8 390.175 946.437 388.02 944.418 L 388.873 942.712 C 393.656 939.796 395.689 939.571 401.047 938.213 z"/><path transform="translate(0,0)" fill="rgb(222,188,116)" d="M 878.031 462.549 C 892.034 487.475 910.689 512.181 914.711 539.994 L 913.334 539.225 C 904.308 534.292 896.753 528.353 888.468 522.27 C 890.576 540.629 895.506 557 900.669 574.596 C 901.957 577.928 903.369 582.979 904.48 586.513 C 899.098 584.311 889.915 579.481 885.563 575.593 C 868.133 560.019 881.001 539.993 884.513 521.608 C 886.303 512.243 885.973 507.286 885.573 497.929 C 879.58 502.917 877.172 505.826 872.064 511.811 C 871.535 489.142 872.157 484.298 878.031 462.549 z"/><path transform="translate(0,0)" fill="rgb(222,188,116)" d="M 278.319 1065.28 C 297.128 1064.58 315.193 1073.32 314.154 1094.64 C 311.415 1097.6 300.337 1090.66 293.931 1089.31 C 278.277 1086 267.85 1086.96 252.465 1090.05 C 258.947 1093.3 273.656 1100.75 275.274 1108.1 L 272.784 1107.88 C 247.983 1102.8 233.204 1105.1 219 1127.1 C 227.751 1094.27 243.04 1070.92 278.319 1065.28 z"/><path transform="translate(0,0)" fill="rgb(222,188,116)" d="M 1887.67 1175.41 C 1911.4 1172.01 1989.18 1186.27 1927.19 1211.26 C 1918.85 1214.63 1909.61 1215.97 1900.62 1216.26 C 1896.15 1216.09 1895.29 1216.87 1892.42 1214.7 C 1892.45 1208.59 1902.31 1199.62 1907.13 1193.75 C 1891.58 1187.2 1866.52 1185.47 1849.46 1183.7 C 1862.14 1177.28 1873.71 1176.63 1887.67 1175.41 z"/><path transform="translate(0,0)" fill="rgb(222,188,116)" d="M 1428.52 943.395 C 1430.07 944.748 1430.74 945.209 1431.49 947.208 C 1452.29 1002.37 1433.47 1039.25 1380.77 1062.79 C 1376.4 1064.57 1372.02 1066.31 1367.62 1068 C 1376.43 1061.14 1381.42 1056.97 1388.95 1048.84 C 1410.37 1025.75 1430.45 974.478 1428.52 943.395 z"/><path transform="translate(0,0)" fill="rgb(222,188,116)" d="M 1736.45 1102.28 C 1737.61 1102.16 1738.78 1102.09 1739.94 1102.06 C 1751.31 1101.98 1762.22 1106.54 1770.13 1114.71 C 1785.79 1131 1786.28 1151.45 1785.91 1172.37 C 1779.14 1162.07 1774.39 1156.28 1764.73 1148.79 C 1752.74 1142.36 1745.86 1142.33 1732.61 1141.29 C 1744.97 1133.37 1751.73 1133.39 1766.23 1130.63 C 1747.17 1121.57 1742.52 1119.51 1721.56 1122.4 C 1723.33 1108.78 1722.6 1106.1 1736.45 1102.28 z"/><path transform="translate(0,0)" fill="rgb(222,188,116)" d="M 1503.16 1096.32 C 1504.94 1096.15 1506.73 1096.05 1508.52 1096.03 C 1520.09 1095.95 1524.94 1097.36 1533.16 1105.19 C 1520.96 1107.27 1503.99 1111.93 1491.62 1114.96 C 1498.43 1118.08 1512.64 1124.32 1515.67 1131.25 L 1514.68 1132.55 C 1509.96 1133.22 1494.57 1130.06 1485.46 1129.94 C 1466.86 1130.95 1456.98 1136.2 1441.69 1146.13 C 1455.09 1119.4 1472.36 1100.67 1503.16 1096.32 z"/><path transform="translate(0,0)" fill="rgb(222,188,116)" d="M 743.45 882.777 C 748.012 887.151 758.881 930.302 771.122 937.737 L 772.802 935.501 L 774.241 935.351 L 774.703 936.126 C 781.645 947.58 783.936 938.8 788.678 939.951 C 788.967 945.248 784.084 975.106 783.066 982.5 L 781.6 996.551 C 762.791 966.326 739.856 918.843 743.45 882.777 z"/><path transform="translate(0,0)" fill="rgb(222,188,116)" d="M 810.767 953.624 C 815.121 957.108 822.36 976.735 824.221 982.5 C 826.038 988.027 827.431 993.685 828.387 999.424 C 829.237 1004.68 832.624 1045 830.859 1048.43 L 828.62 1048.28 C 800.276 1028.78 799.886 982.813 810.767 953.624 z"/><path transform="translate(0,0)" fill="rgb(222,188,116)" d="M 1213.38 957.439 C 1218.35 960.826 1221.03 973.211 1221.79 979.294 C 1225.13 1005.93 1221.78 1026.96 1205.02 1048.39 L 1203.62 1049.64 L 1202.13 1049.47 C 1190.72 1017.9 1202.87 986.339 1213.38 957.439 z"/><path transform="translate(0,0)" fill="rgb(222,188,116)" d="M 981.27 801.941 C 994.207 800.682 1000.62 816.843 1009.59 813.618 C 1010.69 809.287 1008.04 809.322 1008.61 804.42 L 1010.75 804.6 C 1014.78 807.784 1012.45 810.956 1015.97 813.7 C 1022.39 811.592 1032.76 804.904 1040.64 801.371 C 1045.75 804.268 1055.67 808.689 1057.34 813.951 L 1056.22 815.752 L 1051.25 816.837 L 1049.71 816.669 C 1048.65 820.915 1050.15 820.324 1047.51 824.467 C 1043.47 827.029 1022.6 824.945 1015.96 825.032 C 1003.03 825.201 989.926 826.409 977.105 826.422 C 977.418 823.924 977.403 824.401 977.28 822.009 C 973.771 818.136 970.005 815.489 965.88 812.296 C 971.797 807.506 974.523 805.307 981.27 801.941 z"/><path transform="translate(0,0)" fill="rgb(222,188,116)" d="M 1280.41 881.699 C 1280.49 882.027 1280.56 882.356 1280.63 882.685 C 1283.94 924.085 1268.82 955.123 1246.57 987.009 L 1245.23 975.246 C 1244.73 967.287 1239.12 940.373 1244.09 935.504 C 1244.52 936.268 1244.96 937.029 1245.41 937.786 C 1247.58 941.465 1246.35 940.776 1249.41 941.573 C 1264.7 932.239 1272.26 895.61 1280.41 881.699 z"/><path transform="translate(0,0)" fill="rgb(222,188,116)" d="M 1240.61 485.013 L 1241.31 485.544 C 1236.31 507.275 1237.68 512.564 1241.01 535.633 C 1235.41 531.386 1228.73 524.117 1223.65 518.91 C 1213.81 533.395 1205.91 535.305 1190.29 541.026 L 1175.11 547.07 C 1189.91 519.755 1215.87 502.185 1240.61 485.013 z"/><path transform="translate(0,0)" fill="rgb(222,188,116)" d="M 1612.84 1120.25 C 1631.37 1118.89 1640.29 1124.27 1649.96 1139.18 C 1636.09 1133.87 1632.2 1132.87 1617.81 1133.67 C 1626.59 1137.35 1628.53 1139.46 1635.18 1145.91 C 1625.66 1145.92 1616.84 1145.63 1607.48 1147.41 C 1592.25 1150.62 1582.77 1157.28 1571.38 1167.19 C 1578.73 1145.16 1587.36 1124.89 1612.84 1120.25 z"/><path transform="translate(0,0)" fill="rgb(222,188,116)" d="M 1278.43 663.276 C 1284.64 664.436 1298.71 670.831 1305.94 673.446 C 1319.7 678.42 1336.68 681.084 1348.74 688.505 C 1343.13 691.173 1336.66 693.054 1330.71 695.005 C 1334.05 699.146 1337.65 703.299 1341.1 707.373 L 1347.55 717.272 C 1340.72 716.91 1336.41 716.046 1330.19 714.778 C 1319.68 712.637 1281.71 670.364 1278.43 663.276 z"/><path transform="translate(0,0)" fill="rgb(222,188,116)" d="M 1316.54 558.966 L 1317.36 559.561 C 1318.06 564.273 1307.64 588.784 1304.2 593.708 C 1301.3 593.058 1303.8 589.43 1300.68 585.412 C 1296.87 587.979 1290.24 608.615 1286.76 615.8 L 1280.58 606.505 C 1274.29 597.658 1267.13 588.332 1262.16 578.791 C 1281.21 574.11 1299.23 568.362 1316.54 558.966 z"/><path transform="translate(0,0)" fill="rgb(222,188,116)" d="M 1216.62 534.756 L 1217.78 536.493 C 1217.91 543.584 1218.65 548.584 1219.55 555.565 C 1223.05 582.768 1198.58 598.904 1176.21 606.217 L 1174.81 606.422 L 1174.35 604.711 C 1177.22 593.322 1208.85 546.054 1216.62 534.756 z"/><path transform="translate(0,0)" fill="rgb(222,188,116)" d="M 744.652 666.018 C 745.857 666.162 745.237 665.935 746.381 666.981 C 729.788 685.862 714.272 714.399 686.628 716.421 L 686.191 715.171 L 688.702 710.957 C 691.755 707.554 700.118 699.289 700.404 695.41 C 696.474 691.536 691.934 693.386 686.524 689.516 L 686.329 687.656 C 687.501 686.565 739.763 667.581 744.652 666.018 z"/><path transform="translate(0,0)" fill="rgb(222,188,116)" d="M 1571.12 1054.3 C 1580.35 1053.79 1589.53 1053.06 1597.94 1057.5 L 1597.79 1059.05 C 1587.83 1065.63 1562.78 1063.44 1544.38 1072.77 L 1543.18 1073.39 C 1547.79 1076.04 1559.56 1082.03 1557.36 1088.17 C 1554.82 1089.17 1555.71 1088.85 1552.78 1088.84 C 1538.75 1086.43 1519.46 1083.68 1505.68 1084.96 C 1523.94 1074.26 1550.48 1056.98 1571.12 1054.3 z"/><path transform="translate(0,0)" fill="rgb(222,188,116)" d="M 1007.51 841.228 C 1020.37 839.2 1038.17 848.56 1048.6 855.605 C 1034.11 860.042 1024.13 860.039 1009.25 859.872 C 993.732 859.657 978.239 858.569 962.843 856.615 C 975.823 848.14 992.453 844.138 1007.51 841.228 z"/><path transform="translate(0,0)" fill="rgb(222,188,116)" d="M 1515.32 1243.38 C 1521.9 1242.62 1539.15 1242.92 1545.47 1245.13 C 1547.86 1248.44 1547.66 1246.81 1547.37 1250.01 C 1540.79 1255.92 1512.01 1256.2 1502.27 1256.79 C 1494.88 1256.67 1475.79 1257.06 1469.93 1254.32 L 1470.17 1252.92 C 1478.84 1248.03 1504.86 1244.52 1515.32 1243.38 z"/><path transform="translate(0,0)" fill="rgb(222,188,116)" d="M 481.703 1214.33 C 500.218 1212.82 526.96 1216.13 544.232 1223.46 L 526.055 1225.73 C 508.744 1228.04 479.203 1229.3 463.265 1221.26 L 463.771 1218.84 C 469.099 1216.27 475.885 1215.22 481.703 1214.33 z"/><path transform="translate(0,0)" fill="rgb(222,188,116)" d="M 957.466 415.724 C 958.852 421.973 961.084 441.052 962.235 448.451 C 954.233 460.756 951.068 467.881 938.497 475.266 L 936.673 475.938 L 935.828 474.349 C 938.51 455.416 945.807 431.196 957.466 415.724 z"/><path transform="translate(0,0)" fill="rgb(222,188,116)" d="M 1054.65 866.499 L 1056.53 866.268 L 1056.6 867.211 C 1032.24 884.857 998.368 881 971.662 872.049 C 968.229 870.75 964.303 868.376 961.034 866.554 C 990.776 870.456 1024.87 869.721 1054.65 866.499 z"/><path transform="translate(0,0)" fill="rgb(222,188,116)" d="M 1663 1277.43 C 1677.76 1276.4 1688.02 1278.17 1701.54 1283.47 C 1687.21 1289.32 1681.23 1290.7 1665.76 1290.79 C 1653.15 1289.55 1635.9 1287.83 1623.83 1285.18 C 1638.68 1279.02 1647.15 1278.19 1663 1277.43 z"/><path transform="translate(0,0)" fill="rgb(222,188,116)" d="M 471.59 1044.34 C 477.933 1043.76 486.586 1044.05 493.152 1044.08 C 482.4 1051.68 470.654 1060.41 458.687 1065.66 C 451.767 1066.56 443.209 1065.85 436.303 1065.13 C 444.83 1049.89 455.199 1046.51 471.59 1044.34 z"/><path transform="translate(0,0)" fill="rgb(222,188,116)" d="M 1458.89 774.62 C 1476.6 778.898 1504.2 792.211 1506.27 812.583 C 1505.1 812.458 1503.93 812.319 1502.77 812.168 C 1482.59 809.589 1470.93 790.068 1458.89 774.62 z"/><path transform="translate(0,0)" fill="rgb(222,188,116)" d="M 801.938 517.804 C 808.455 520.51 822.781 537.863 825.992 544.249 C 823.87 551.242 822.189 555.3 819.259 562.042 L 814.283 571.41 C 808.935 555.988 803.943 534.273 801.938 517.804 z"/><path transform="translate(0,0)" fill="rgb(222,188,116)" d="M 571.591 849.769 C 571.816 851.246 549.241 927.299 547.188 933.181 C 537.773 909.593 557.993 868.512 571.591 849.769 z"/><path transform="translate(0,0)" fill="rgb(222,188,116)" d="M 1461.12 852.786 C 1463.19 856.494 1466.76 866.521 1468.65 870.928 C 1477.28 891.002 1486.14 912.227 1482.71 934.685 C 1480.43 935.838 1480.39 935.905 1477.92 936.443 C 1478.09 936.635 1461.03 855.987 1461.12 852.786 z"/><path transform="translate(0,0)" fill="rgb(222,188,116)" d="M 311.191 1225.39 C 330.128 1225.94 337.967 1228.57 355.888 1234.65 C 348.941 1236.12 343.501 1236.79 336.436 1237.63 C 322.417 1239.79 306.172 1237.33 294.046 1229.64 C 301.038 1226.7 304.002 1226.24 311.191 1225.39 z"/><path transform="translate(0,0)" fill="rgb(222,188,116)" d="M 729.355 597.598 C 740.598 601.981 750.73 604.712 762.317 607.991 C 759.697 611.462 757.123 614.969 754.597 618.51 C 751.889 622.39 750.691 624.111 747.396 627.461 C 738.97 629.472 730.495 604.149 729.355 597.598 z"/><path transform="translate(0,0)" fill="rgb(222,188,116)" d="M 930.618 650.051 C 932.64 650.768 934.641 651.544 936.618 652.379 C 957.412 661.306 972.882 692.23 980.953 712.294 C 978.294 710.541 965.651 693.488 963.116 689.657 C 955.092 677.531 936.222 662.391 930.618 650.051 z"/><path transform="translate(0,0)" fill="rgb(222,188,116)" d="M 1353.06 653.424 C 1366.5 651.779 1374.54 653.458 1387.59 656.454 L 1375.42 665.47 C 1370.43 668.528 1365.17 671.537 1360.11 674.514 C 1357.3 670.236 1349.24 659.461 1349.87 654.64 L 1353.06 653.424 z"/><path transform="translate(0,0)" fill="rgb(222,188,116)" d="M 1089.01 644.083 L 1089.59 644.699 C 1088.07 647.646 1083.29 651.69 1080.57 653.949 C 1064.07 667.676 1051.14 682.623 1037.76 699.279 L 1036.64 697.802 C 1047.96 667.455 1061.49 657.024 1089.01 644.083 z"/><path transform="translate(0,0)" fill="rgb(222,188,116)" d="M 653.989 1394.33 C 664.713 1394.73 707.187 1396.77 713.636 1405.54 C 701.877 1406.7 660.048 1406.2 653.989 1394.33 z"/><path transform="translate(0,0)" fill="rgb(222,188,116)" d="M 770.817 656.665 C 772.411 657.89 774.58 659.507 774.86 661.667 C 776.644 675.41 777.502 689.178 781.605 702.534 C 781.35 703.046 781.095 703.558 780.84 704.07 C 766.392 690.462 766.383 674.696 770.817 656.665 z"/><path transform="translate(0,0)" fill="rgb(222,188,116)" d="M 1266.57 671.572 C 1277.33 682.046 1272.25 702.069 1265.62 713.617 L 1264.93 714.362 L 1263.83 714.177 C 1263.38 708.547 1266 678.308 1266.57 671.572 z"/><path transform="translate(0,0)" fill="rgb(222,188,116)" d="M 1685.63 1218.16 C 1690.85 1234.68 1676.1 1233.57 1665.21 1232.26 L 1664.06 1230.49 C 1666.42 1224.28 1679.53 1220.11 1685.63 1218.16 z"/><path transform="translate(0,0)" fill="rgb(222,188,116)" d="M 1393.68 737.136 C 1405.78 740.569 1419.22 749.403 1424.15 761.251 C 1412.6 758.607 1399.37 747.354 1393.68 737.136 z"/><path transform="translate(0,0)" fill="rgb(0,0,0)" d="M 1911.97 959.385 C 1926.55 957.538 1941.96 962.842 1951.97 973.794 C 1956.02 977.982 1958.86 986.609 1952.68 990.398 C 1942.39 996.709 1924.68 992.905 1913.25 991.384 L 1911.36 991.071 C 1904.41 989.883 1867.52 981.15 1864.97 977.528 C 1871.75 969.337 1900.22 960.825 1911.97 959.385 z"/><path transform="translate(0,0)" fill="rgb(0,0,0)" d="M 197.423 1292.27 C 213.118 1291.19 228.303 1292.33 243.903 1293.05 C 253.117 1293.48 316.157 1299.96 312.619 1310.76 C 309.262 1313.76 307.778 1313.8 303.277 1315.09 C 294.483 1316.79 279.872 1316.39 271.016 1316.02 C 257.686 1315.47 193.041 1308.12 190.12 1296.16 C 192.509 1293.23 193.17 1293.79 197.423 1292.27 z"/><path transform="translate(0,0)" fill="rgb(0,0,0)" d="M 95.8899 978.15 C 117.856 976.658 137.41 992.78 149.002 1010.18 L 133.978 1010.36 C 122.453 1011.69 81.4837 1008.29 83.2509 988.794 C 83.6175 984.75 92.2846 979.827 95.8899 978.15 z"/><path transform="translate(0,0)" fill="rgb(222,188,116)" d="M 1798.61 1326.35 C 1809.44 1325.26 1826.19 1329.32 1837.4 1331.29 C 1823.78 1337.35 1819.24 1338.89 1804.55 1341.11 C 1798.11 1341.11 1772.91 1339.24 1768.71 1334.73 L 1769.38 1333.02 C 1776.26 1328.87 1790.24 1327.54 1798.61 1326.35 z"/><path transform="translate(0,0)" fill="rgb(222,188,116)" d="M 1589.25 1401.35 C 1599.08 1399.39 1610.98 1402.73 1620.63 1405.01 C 1615.52 1409.56 1613.66 1411.15 1607.36 1413.69 C 1600.22 1415.16 1576.28 1414.7 1578.9 1404.02 C 1582.09 1401.59 1585.08 1401.79 1589.25 1401.35 z"/><path transform="translate(0,0)" fill="rgb(0,0,0)" fill-opacity="0.0117647" d="M 1199.2 1555.42 C 1195.12 1554.71 1177.79 1553.77 1175.89 1551.55 C 1183.22 1550.84 1190.78 1551.01 1198.16 1551.03 L 1199.75 1554.01 L 1199.2 1555.42 z"/></svg>