<svg version="1.1" xmlns="http://www.w3.org/2000/svg" style="display: block;" viewBox="0 0 2048 2048" width="1024" height="1024" preserveAspectRatio="none"><defs><linearGradient id="Gradient1" gradientUnits="userSpaceOnUse" x1="702.712" y1="350.235" x2="706.686" y2="340.822"><stop class="stop0" offset="0" stop-opacity="1" stop-color="rgb(0,57,34)"/><stop class="stop1" offset="1" stop-opacity="1" stop-color="rgb(0,85,50)"/></linearGradient><linearGradient id="Gradient2" gradientUnits="userSpaceOnUse" x1="819.693" y1="719.492" x2="836.978" y2="662.523"><stop class="stop0" offset="0" stop-opacity="1" stop-color="rgb(0,70,43)"/><stop class="stop1" offset="1" stop-opacity="1" stop-color="rgb(0,95,58)"/></linearGradient><linearGradient id="Gradient3" gradientUnits="userSpaceOnUse" x1="1011.61" y1="1107.19" x2="1056.1" y2="1051.83"><stop class="stop0" offset="0" stop-opacity="1" stop-color="rgb(0,59,33)"/><stop class="stop1" offset="1" stop-opacity="1" stop-color="rgb(0,100,63)"/></linearGradient><linearGradient id="Gradient4" gradientUnits="userSpaceOnUse" x1="977.7" y1="1139.33" x2="971.752" y2="1137.99"><stop class="stop0" offset="0" stop-opacity="1" stop-color="rgb(1,74,41)"/><stop class="stop1" offset="1" stop-opacity="1" stop-color="rgb(0,41,21)"/></linearGradient><linearGradient id="Gradient5" gradientUnits="userSpaceOnUse" x1="1143.78" y1="1248.22" x2="971.984" y2="1281.02"><stop class="stop0" offset="0" stop-opacity="1" stop-color="rgb(2,78,48)"/><stop class="stop1" offset="1" stop-opacity="1" stop-color="rgb(0,110,69)"/></linearGradient><linearGradient id="Gradient6" gradientUnits="userSpaceOnUse" x1="1730.8" y1="1376.54" x2="1573.82" y2="758.585"><stop class="stop0" offset="0" stop-opacity="1" stop-color="rgb(0,28,13)"/><stop class="stop1" offset="1" stop-opacity="1" stop-color="rgb(1,55,31)"/></linearGradient></defs><path transform="translate(0,0)" fill="rgb(0,40,20)" d="M 757.455 228.234 C 767.772 235.055 779.631 239.101 792.121 239.841 C 855.24 243.58 874.168 191.693 916.53 156.529 C 971.248 111.107 1025.98 100.621 1095.32 106.387 C 1135.41 109.722 1176.76 127.315 1207.73 152.938 C 1216.81 160.456 1226.63 172.369 1234.33 181.433 C 1230.24 191.233 1218.57 209.78 1212.8 219.885 C 1194.86 251.297 1182.29 272.564 1169.9 306.386 C 1182.57 320.427 1199.07 336.725 1207.35 353.365 C 1211.44 359.927 1215.08 376.235 1218.84 381.947 C 1232.36 402.444 1234.16 411.604 1234.83 436.153 C 1235.53 461.579 1238.02 498.303 1251.61 520.454 C 1272.98 555.262 1317.8 534.59 1349.02 538.867 C 1359.33 540.414 1380.64 554.669 1393.14 558.502 C 1409.5 563.516 1426.33 564.887 1443.31 568.617 C 1463.98 573.159 1468.95 587.201 1481.7 593.624 C 1502.16 603.929 1528.51 610.934 1547.52 625.099 C 1558.22 633.075 1565.65 652.105 1576.75 659.347 C 1598.73 673.685 1625.7 682.201 1649.56 694.429 C 1708.35 724.548 1753.68 777.834 1786.61 833.865 C 1851.82 944.822 1878.83 1076.55 1878.09 1204.31 C 1877.74 1263.83 1874.06 1314.89 1859.17 1373.31 C 1844.29 1431.68 1818.99 1495.95 1765.01 1528.58 C 1735.65 1546.32 1699.15 1548.29 1666.47 1539.47 C 1546.99 1507.24 1453.1 1363.89 1412.84 1253.58 C 1397.12 1210.51 1388.84 1155.83 1365.98 1117.72 L 1365.16 1116.38 C 1363.14 1128.64 1358.96 1140.51 1357.01 1152.6 C 1353.63 1173.61 1367.22 1197.03 1377.23 1214.89 C 1364.57 1221.59 1350.86 1228.75 1337.73 1234.3 C 1358.16 1265.19 1372.17 1283.54 1401.18 1306.55 C 1411.15 1314.45 1422.2 1327.84 1432.86 1336.77 C 1420.47 1332.46 1407.5 1330.21 1392.3 1324.73 C 1435.84 1379.28 1487.78 1441.18 1535.61 1491.1 L 1531.63 1496.81 C 1505.38 1488.23 1480.49 1475.94 1457.71 1460.32 C 1466.35 1471.87 1478.93 1485.19 1488.57 1496.72 C 1517.33 1531.11 1539.86 1566.18 1550.08 1610.46 C 1556.13 1636.72 1550.32 1660.1 1563.05 1683.42 C 1567.99 1692.48 1583.33 1702.64 1592.09 1709.41 C 1641.62 1747.71 1653.41 1792.2 1665.63 1850.15 C 1639.53 1806.96 1596.26 1766.97 1553.84 1740.29 C 1562.01 1782.86 1566.28 1841.21 1570.18 1885.37 C 1544.17 1875.03 1514.84 1857.1 1486.77 1848.44 C 1494.13 1871.71 1498.78 1890.5 1505.03 1913.88 C 1475.99 1896.6 1451.04 1877.22 1419.21 1864.24 C 1410.71 1860.77 1394.48 1853.56 1387.93 1848.52 C 1395.14 1862.14 1397.46 1869.74 1401.28 1884.78 C 1375.72 1873.9 1347.17 1864.08 1320.91 1855.04 C 1314.59 1838.71 1309.98 1809.27 1303.6 1790.89 C 1270.54 1769.74 1241.29 1751.02 1216.17 1719.46 C 1208.11 1709.32 1200.47 1696.92 1193.1 1686.08 C 1186.7 1695.07 1181.35 1705.41 1175.21 1714.51 C 1168.78 1724.05 1162.47 1733.08 1156.21 1742.78 C 1161.03 1723.21 1164.89 1703.99 1169.65 1684.86 C 1164.98 1690.58 1161.26 1696.86 1156.27 1702.32 C 1113.23 1749.45 1072.6 1779.64 1019.96 1813.5 C 1028.88 1799.45 1038.63 1773.74 1046.26 1758 C 1054.12 1741.79 1062.52 1725.47 1070.16 1709.27 C 1046.17 1729.84 1005.67 1751.68 977.614 1765.82 C 930.21 1789.71 883.129 1811.99 831.444 1824.81 C 845.223 1808.82 866.064 1770.22 873.066 1749.9 C 876.148 1740.96 877.823 1730.79 879.068 1721.45 C 848.092 1773.92 825.475 1776.35 770.52 1794.94 C 752.052 1799.34 745.983 1852.72 735.807 1856.2 C 706.419 1866.27 667.817 1878.9 640.314 1892.23 C 641.44 1879.75 645.063 1843.14 648.112 1833.04 C 636.482 1840.16 625.863 1848.82 614.074 1856.36 C 596.72 1867.33 579.155 1878.74 561.078 1888.37 C 557.626 1890.09 553.145 1880.89 551.892 1878.47 C 533.189 1842.34 512.545 1803.44 502.407 1763.85 C 482.024 1782.67 457.881 1811.04 439.497 1832.09 C 441.937 1824.13 443.236 1815.4 445.213 1807.43 C 451.985 1780.11 461.752 1753.77 482.661 1734.1 C 502.358 1715.57 513.756 1701.94 521.554 1675.53 C 524.397 1666.2 526.297 1656.61 527.225 1646.89 C 531.716 1596.09 523.468 1595.81 559.176 1554.91 C 547.699 1540.06 537.162 1529.01 524.735 1515.17 C 492.709 1537.5 490.334 1555.93 472.859 1586.82 L 472.176 1588.01 C 472.12 1576.26 469.875 1562.43 468.473 1550.56 C 465.842 1528.3 465.604 1513.4 468.449 1491.39 C 414.454 1521.05 367.65 1561.08 345.405 1620.21 C 329.693 1579.94 322.566 1535.08 335.47 1492.31 C 346.33 1456.31 375.94 1429.6 385.04 1394.07 C 385.837 1390.95 384.04 1381.94 383.406 1378.33 C 380.423 1375.98 376.745 1373.93 373.46 1371.95 C 341.372 1377.66 309.387 1383.95 277.522 1390.8 C 269.153 1378.36 259.199 1357.95 252.067 1344.31 C 243.842 1328.57 234.001 1310.99 226.869 1295.04 C 230.448 1286.63 235.922 1277.9 238.284 1268.77 C 243.658 1248.01 245.937 1226.94 250.851 1205.84 C 260.197 1165.72 270.671 1134.34 289.93 1098.04 C 233.28 1131.31 195.603 1193.69 177.707 1255.71 C 173.436 1270.51 173.001 1283.34 169.221 1296.87 C 166.642 1284.82 159.989 1268.37 155.719 1256.58 C 142.686 1220.57 134.887 1187.46 138.873 1148.84 C 147.797 1062.34 193.851 1000.32 258.209 946.493 C 241.031 939.461 221.871 933.15 204.213 927.53 C 285.562 908.664 374.026 842.786 441.261 793.901 C 456.271 782.988 479.288 766.349 491.625 753.314 C 500.271 742.602 508.114 726.701 513.871 714.443 C 541.969 654.623 594.381 624.5 652.45 599.717 C 660.79 596.158 671.543 582.023 681.541 576.967 C 709.154 563.001 737.733 549.481 765.656 536.227 C 778.701 530.448 814.037 535.075 829.76 531.876 C 841.082 529.572 851.803 526.167 863.119 525.181 C 871.79 525.236 880.417 528.036 890.302 528.266 L 891.71 528.291 C 910.387 514.491 910.234 490.239 910.238 469.075 C 895.11 475.939 883.501 475.626 867.423 483.776 C 880.413 465.128 898.046 435.562 904.287 413.825 C 906.002 407.85 907.612 394.374 908.485 387.694 C 889.94 448.722 842.354 489.81 777.521 475.904 C 740.505 467.965 690.416 445.454 668.741 413.618 C 684.22 412.788 696.293 416.267 711.652 416.125 C 661.152 366.499 611.361 387.743 561.172 423.652 C 564.592 412.477 567.562 404.097 572.231 393.256 C 597.87 333.727 667.146 292.169 730.48 289.646 C 760.921 288.433 773.72 300.7 807.699 288.179 C 779.895 272.18 767.774 258.869 757.455 228.234 z M 1576.07 850.465 C 1618.19 819.709 1657.54 843.066 1688.12 877.342 C 1713.33 900.078 1742.04 951.162 1758.16 981.203 C 1759.85 984.359 1762.77 992.769 1765.22 994.716 C 1765.25 986.418 1757.98 966.903 1754.53 958.261 C 1729.18 894.813 1688.47 822.916 1623.34 794.479 C 1575.44 784.433 1561.96 819.716 1552.85 859.166 C 1551.84 863.533 1551.87 867.57 1550.08 871.744 C 1550.16 874.335 1549.9 873.419 1551.02 875.744 C 1556.19 867.682 1568.3 856.255 1576.07 850.465 z M 674.825 1337.38 C 693.709 1342.41 725.289 1346.32 745.9 1350.42 C 807.338 1362.25 868.074 1377.48 927.829 1396.02 C 949.572 1402.91 976.382 1411.42 996.786 1421.39 C 1010.45 1427.34 1024.81 1432.89 1037.07 1441.29 C 1021.27 1435.74 1008.88 1431.54 992.569 1427.39 C 946.997 1415.18 901.177 1403.92 855.139 1393.61 C 827.475 1387.23 794 1378.61 765.741 1377.27 C 753.431 1376.69 729.226 1382.22 716.681 1384.36 C 709.193 1385.64 695.776 1387.53 688.6 1389.11 C 703.363 1389.74 719.534 1393.82 734.333 1396.47 L 808.906 1409.64 C 885.897 1423.33 962.65 1435.54 1038.7 1454.26 C 1054.55 1458.16 1073.67 1460.83 1088.96 1465.12 C 1102.73 1466.75 1116.45 1469.7 1130.15 1471.98 C 1162.28 1477.33 1194.64 1483 1226.56 1489.45 C 1255.43 1495.28 1283.9 1505.55 1311.5 1515.58 C 1300.02 1516.8 1288.72 1520.52 1277.33 1522.9 C 1240.57 1530.56 1202.1 1540.87 1164.5 1534.23 C 1131.97 1528.48 1109.49 1483.93 1083.3 1475.47 C 1080.16 1474.75 1077.46 1473.56 1075.07 1474.7 C 1091.88 1494.81 1107.51 1515.99 1124.02 1535.54 L 1122.3 1534.79 C 1109.4 1528.99 1086.84 1523.51 1072.36 1519.57 C 1044.02 1511.67 1015.55 1504.26 986.967 1497.33 C 881.208 1471.63 775.063 1449.34 669.275 1424.36 C 686.001 1432.91 744.032 1446.97 764.503 1452.28 L 930.689 1495.38 L 1052.32 1527.79 C 1078.31 1535.16 1104.42 1542.05 1130.65 1548.49 C 1137.06 1550.04 1157.92 1555.17 1163.94 1555.22 C 1180.53 1555.37 1200.61 1553.05 1217.01 1551.08 C 1250.45 1547.15 1283.76 1542.19 1316.9 1536.22 C 1337.05 1532.78 1352.16 1529.02 1372.91 1526.77 C 1341.82 1509.4 1308.88 1494.07 1281.25 1470.95 C 1263.67 1456.24 1247.73 1438.91 1230.51 1423.75 C 1221.12 1415.49 1211.25 1412.01 1199.31 1408.73 C 1169.91 1400.65 1139.68 1395.07 1109.98 1388.36 C 1045.46 1373.79 980.833 1359.73 916.093 1346.17 L 781.169 1317 C 754.225 1311.32 721.485 1302.01 694.457 1304.34 C 687.629 1315.23 680.55 1325.87 674.825 1337.38 z M 1438.05 847.827 C 1414.23 921.437 1409.42 1008.47 1423.3 1084.53 C 1426.04 1099 1429.41 1113.34 1433.38 1127.52 C 1435.07 1133.76 1439.42 1147.93 1439.99 1153.76 L 1444.05 1150.94 C 1443.69 1150.26 1443.33 1149.59 1442.97 1148.92 C 1425.17 1077.74 1418.33 991.037 1446.78 922.972 C 1449.74 914.909 1455.01 903.825 1458.4 895.213 C 1457.2 901.718 1456.48 905.794 1455.97 912.428 C 1451.03 1029.77 1477.79 1146.29 1533.43 1249.72 C 1551.49 1283.38 1572.3 1317.34 1602.2 1341.54 C 1606.52 1345.04 1612.14 1350.48 1617.79 1350.5 C 1617.72 1347.51 1617.69 1348.4 1616.43 1345.42 C 1598.9 1324.45 1578.03 1286.04 1564.62 1261.87 C 1506.47 1157.09 1472.74 1043.19 1484.92 922.455 C 1491.95 852.785 1521.08 750.275 1609.06 752.979 C 1645.97 754.631 1690.74 797.891 1713.39 826.408 C 1788.79 921.353 1819.08 1051.07 1821.61 1170.35 C 1821.87 1185.93 1821.57 1208.79 1819.99 1224.03 C 1819.84 1234.86 1817.04 1253.84 1815.79 1265.3 C 1816.55 1273.12 1822.32 1305.74 1825.98 1311.78 L 1827.12 1312.14 C 1846.14 1208.72 1841.98 1080.26 1810.48 979.817 C 1779.69 883.133 1728.68 784.095 1635.7 734.385 C 1604.56 717.738 1566.54 705.698 1531.38 716.474 C 1493.09 728.211 1473.78 766.684 1456.68 799.65 C 1449.69 815.398 1443.47 831.476 1438.05 847.827 z M 1260.37 1267.83 C 1268.66 1273.67 1277.34 1277.88 1286.33 1282.53 C 1301.79 1288.54 1318 1295.92 1333.71 1300.58 C 1323.78 1292.15 1313.25 1285.33 1303.15 1277.66 C 1283.52 1262.76 1267.45 1240.88 1240.39 1244.18 C 1227.45 1245.75 1213.59 1249.77 1201.59 1250.63 C 1213.19 1260.09 1223.07 1269.41 1235.09 1278.56 C 1265.25 1301.52 1296.57 1323.35 1327.91 1344.67 C 1315.57 1327.98 1296.85 1308.35 1282.49 1292.83 C 1276.02 1284.9 1267.33 1275.47 1260.37 1267.83 z M 562.03 1760.69 C 565.948 1746.85 570.651 1735.43 576.461 1722.25 C 578.108 1718.18 581.625 1708.72 583.458 1705.21 C 586.681 1718.56 590.326 1734.56 594.945 1747.49 C 605.591 1714.25 592.019 1686.53 586.547 1653.09 C 584.47 1640.41 583.801 1627.04 581.581 1615.23 C 560.703 1646.54 545.873 1694.98 554.894 1731.94 C 557.142 1741.15 560.259 1751.97 562.03 1760.69 z M 1010.88 143.061 C 1018.06 145.293 1029.58 148.502 1036.06 151.581 C 1027.14 153.728 1017.31 153.904 1008.09 154.413 C 1000.5 156.623 986.091 156.616 975.997 159.765 C 945.61 169.242 924.351 185.305 900.646 205.667 C 889.903 214.896 882.7 219.866 872.845 230.771 C 888.351 223.904 906.031 216.859 921.946 210.145 C 905.812 239.948 899.554 244.766 875.516 269.925 C 850.032 297.226 814.596 318.522 775.816 315.939 C 739.127 313.495 693.367 311.833 660.876 333.201 C 724.54 312.098 742.213 359.065 793.775 355.57 C 847.76 351.909 895.415 264.042 924.528 225.734 C 942.287 202.365 975.004 187.944 1003.62 185.302 C 1024.42 183.382 1031.41 183.981 1048.31 197.715 C 1049.19 193.011 1049.3 186.714 1051.93 183.647 L 1054.18 183.529 C 1058.14 186.469 1067.08 200.309 1071.49 205.642 C 1075.45 199.881 1071.68 189.325 1068.69 183.816 C 1062.11 171.664 1052.64 170.182 1040.38 166.66 C 1053.74 159.265 1060.68 158.697 1075.98 160.522 C 1115.8 165.269 1104.09 222.923 1106.55 252.418 L 1106.7 254.145 C 1114.62 228.411 1116.74 203.102 1136.71 179.909 C 1154.2 159.607 1190.35 187.155 1205.45 186.558 L 1205.17 184.961 C 1199.37 179.224 1187.21 171.818 1179.83 167.579 C 1120.61 133.53 1057.95 122.483 991.476 141.803 C 998.919 141.927 1003.55 141.999 1010.88 143.061 z M 727.509 698.846 C 739.151 696.608 744.412 700.215 755.152 705.115 C 747.606 705.749 737.21 705.582 730.691 706.477 C 721.04 710.441 713.916 713.447 705.298 719.364 C 722.735 713.715 736.357 715.938 753.359 710.357 C 743.408 719.015 732.525 727.976 723.725 737.697 C 737.582 738.615 790.56 731.142 798.083 720.847 C 797.836 718.301 797.436 718.309 795.729 716.27 C 787.86 709.606 784.226 686.141 781.506 674.897 C 767.102 674.763 759.435 675.585 746.186 680.797 C 738.354 684.076 728.868 690.233 724.111 697.275 L 724.058 698.789 C 725.062 698.823 726.557 698.932 727.509 698.846 z M 621.414 716.808 C 624.944 716.422 626.29 716.427 629.676 715.13 C 627.454 713.777 624.983 714.043 622.285 713.953 C 596.608 713.92 590.665 712.416 566.22 709.319 C 578.002 701.999 589.466 693.93 601.497 687.173 C 617.293 678.302 635.746 670.265 651.22 661.157 C 668.229 651.146 684.579 639.449 701.753 629.265 C 711.307 623.6 729.197 618.21 735.28 613.776 L 734.624 612.938 C 726.738 612.619 714.448 614.996 706.649 616.851 C 660.022 627.942 613.271 652.513 578.019 684.929 C 569.916 692.38 548.36 714.653 545.607 724.785 L 546.137 725.847 C 555.425 725.596 564.548 723.624 573.72 722.683 C 589.519 721.063 605.696 718.528 621.414 716.808 z M 1297.47 756.229 C 1309.96 775.7 1383.6 813.591 1406.93 818.652 C 1408.74 819.058 1410.58 819.353 1412.43 819.534 C 1414.88 817.81 1414.09 818.933 1414.89 816.059 C 1410.42 772.118 1390.82 766.657 1372.93 734.978 L 1372.24 733.724 C 1391.61 745.553 1424.73 763.531 1441.3 778.151 L 1442.97 777.123 C 1452.42 741.45 1444.35 709.318 1397.98 715.027 C 1381.6 717.044 1363.98 727.09 1348.66 733.343 C 1331.59 740.315 1314.74 749.343 1297.47 756.229 z M 1247.63 765.892 C 1216.79 749.229 1226.71 755.15 1197.06 771.201 C 1143.66 800.114 1097.62 799.591 1040.47 786.04 C 1074.05 803.943 1121.11 815.546 1158.64 821.213 C 1144.07 822.965 1129.64 826.28 1115.18 827.638 C 1074.6 831.445 1043.72 812.442 1007.98 799.649 C 1023.17 817.616 1030.37 823.624 1046.09 839.492 C 1116.23 897.452 1189.72 898.336 1259.93 840.515 C 1252.81 836.123 1224.52 822.872 1220.73 819.117 L 1222.46 818.275 L 1224.29 817.608 C 1244.43 808.411 1281.04 811.529 1302.51 815.397 C 1290.12 799.264 1269.78 783.978 1254.24 770.294 C 1252.58 769.358 1249.34 767.044 1247.63 765.892 z M 1544.67 663.811 C 1516.18 639.428 1492.02 627.733 1457.46 614.385 C 1446.73 609.011 1438.03 595.507 1424.47 598.106 C 1373.71 607.834 1327.09 638.146 1281.03 659.87 C 1253.63 672.794 1179.61 704.054 1151.13 701.881 C 1144.66 702.696 1142.02 703.351 1135.82 705.05 C 1140.44 705.297 1146.48 705.877 1150.95 705.295 C 1206.94 702.028 1247.99 695.107 1302.41 678.386 C 1319.43 673.155 1336.93 665.979 1353.63 661.155 C 1367.47 655.74 1396.5 644.338 1410.13 640.755 C 1395.48 649.414 1375.71 659.369 1360.19 666.98 C 1334.21 680.917 1303.63 693.9 1276.47 705.864 C 1263.22 711.7 1243.43 716.3 1231.82 722.293 C 1285.75 715.594 1325.72 704.174 1378.18 687.644 C 1412.58 676.803 1451.1 657.365 1486.09 653.408 C 1506.86 651.058 1525.67 658.298 1544.67 663.811 z M 305.729 1277.74 C 309.472 1288.57 310.41 1295.65 311.658 1307.05 C 324.665 1302.54 344.555 1292.29 356.99 1285.96 C 360.27 1279.06 360.518 1278.39 362.095 1271.02 C 347.823 1263.4 315.273 1253.48 299.298 1257.12 C 286.677 1260 270.023 1272.47 263.586 1283.89 C 260.869 1288.71 255.897 1296.97 257.138 1302.71 L 260.515 1303.42 C 274.266 1293.71 289.705 1283.22 305.729 1277.74 z M 1265.34 1203.88 C 1272.5 1205.06 1282.78 1203.53 1290.68 1203.57 C 1284.76 1182.97 1281.37 1153.65 1274.88 1129.21 C 1248.82 1135.75 1236.12 1147.09 1211.21 1155.51 C 1188.01 1163.35 1165.03 1163.98 1142 1168.73 C 1125.48 1172.15 1100.56 1190.43 1085 1199.26 C 1077.86 1203.31 1061.73 1211.39 1055.81 1215.27 C 1075.96 1213.77 1126.96 1200.45 1142.18 1189.07 C 1138.99 1194.16 1137.48 1196.75 1133.33 1201.26 C 1130.51 1206.08 1125.93 1211.93 1122.38 1216.38 C 1109.74 1232.23 1100.46 1250.39 1089.36 1267.15 C 1087.43 1269.6 1084.67 1272.21 1084.39 1274.85 C 1087.62 1273.27 1088.46 1271.79 1090.74 1269.04 C 1093.64 1267.99 1101.02 1263.61 1103.32 1261.58 C 1117.73 1248.91 1154.56 1233.03 1164.32 1218.53 C 1197.78 1168.48 1209.01 1154.8 1270.54 1147.28 C 1275.13 1169.9 1268.88 1181.72 1265.54 1202.58 L 1265.34 1203.88 z M 885.472 660.124 C 907.345 665.76 912.027 674.118 922.479 692.644 C 924.024 695.382 926.46 699.93 928.669 701.972 C 929.404 705.074 929.55 707.668 931.367 709.947 C 932.446 706.729 932.257 706.14 932.295 702.792 C 933.168 695.023 934.08 687.174 934.653 679.468 C 937.117 651.107 912.294 636.153 886.859 635.905 C 858.984 635.634 846.346 654.598 845.672 680.169 C 852.134 677.686 879.707 663.647 885.472 660.124 z M 933.514 960.775 C 935.846 962.543 938.896 964.989 941.244 966.59 C 961.857 951.184 976.465 941.666 996.616 924.728 C 989.415 918.055 982.833 911.622 978.565 902.678 C 977.816 901.108 977.937 901.465 976.644 900.017 L 976.254 899.899 C 959.248 912.22 926.346 931.332 906.905 939.758 C 914.422 944.629 926.787 954.564 933.514 960.775 z M 951.387 390.589 C 957.711 390.077 970.008 388.896 975.901 386.608 L 976.369 385.487 C 983.7 367.48 983.723 349.841 1001.6 339.168 C 1008.56 335.013 1016.04 331.246 1022.81 327.069 C 1011.83 320.368 1007.98 319.096 994.977 320.074 C 971.065 335.009 959.943 364.554 951.387 390.589 z M 1130.19 332.068 C 1106.06 330.902 1081.77 330.468 1064.57 311.158 C 1051.52 296.508 1025.86 254.213 1008.7 246.762 C 1014.32 255.367 1024.26 265.762 1031.17 274.764 C 1049.05 298.057 1064.83 333.972 1095.68 340.766 C 1113.06 344.594 1122.22 334.989 1135.25 336.807 C 1138.58 334.667 1139.65 333.074 1142.29 330.041 C 1140.64 328.27 1134.36 321.593 1132.49 320.968 C 1128.47 322.67 1129.93 328.072 1130.19 332.068 z M 543.585 1179.32 C 556.88 1170.72 551.045 1156.16 544.413 1144.98 C 535.639 1130.19 520.088 1127 504.616 1122.93 C 511.222 1139.92 515.169 1156.08 508.244 1174.34 C 505.34 1181.99 500.521 1183.67 497.714 1192.77 C 512.943 1189.91 529.392 1185.3 543.585 1179.32 z M 777.266 584.173 C 789.176 582.764 792.729 580.872 803.939 577.293 C 814.992 573.82 826.022 570.272 837.028 566.649 C 820.163 553.187 750.894 582.287 730.808 587.439 C 725.162 588.887 697.126 596.603 694.411 599.509 C 701.353 599.139 716.768 596.873 724.836 596.262 C 761.464 593.488 780.79 599.488 813.322 613.217 C 817.339 613.767 816.186 614.399 818.795 612.965 C 816.891 608.342 784.489 587.325 777.266 584.173 z M 972.74 452.556 L 973.847 453.258 C 980.704 457.523 987.039 459.897 994.072 463.674 C 1014.29 474.532 1024.73 484.575 1038.99 501.702 C 1040.71 504.465 1053.24 519.627 1056.34 523.784 C 1051.46 510.508 1048.9 503.031 1040.6 491.629 C 1029.45 470.311 994.403 457.78 972.74 452.556 z M 1075.69 1064.42 C 1087.73 1071.22 1092.13 1075.28 1099.8 1086.39 C 1095.82 1074.1 1092.81 1062.63 1089.55 1050.16 C 1072.21 1034.33 1011.87 1008.78 988.225 1004.19 C 994.563 1012.12 999.445 1016.03 1007.14 1022.65 C 1029.49 1037.68 1055.97 1050.95 1075.69 1064.42 z M 848.852 1121.88 C 853.767 1124.77 858.137 1127.63 863.485 1129.61 C 864.878 1124.58 857.034 1095.11 855.928 1086.16 C 854.935 1078.12 853.833 1047.39 852.366 1042.71 C 832.396 1065.88 816.91 1100.72 848.852 1121.88 z M 928.951 556.392 C 937.372 564.918 950.693 572.468 960.53 579.933 C 972.009 588.644 977.29 594.636 986.429 605.632 C 989.441 608.729 991.944 611.367 995.245 614.193 C 984.614 596.118 957.897 549.755 943.198 536.716 C 938.775 542.539 932.545 550.259 928.951 556.392 z M 1094.84 388.673 L 1107.51 385.358 C 1109.64 382.646 1110.2 382.475 1110.4 379.045 C 1107.99 371.536 1102.99 367.932 1095.66 365.236 C 1095.2 372.06 1094.2 382.174 1094.84 388.673 z M 1035.16 672.162 C 1046.56 632.26 1050.87 575.458 1030.12 537.699 C 1024.02 526.423 1015.23 516.827 1004.53 509.759 C 1006.73 514.102 1009.02 517.775 1011.45 521.932 C 1035.79 563.584 1036.23 612.528 1031.18 659.09 C 1030.42 666.053 1030.4 670.198 1032.45 676.99 L 1033.42 676.87 L 1035.16 672.162 z M 1018.03 1642.25 C 1018.38 1629.67 1013.69 1563.84 1000.14 1560.67 C 992.772 1565.86 981.675 1599.67 977.537 1609.88 C 976.031 1614.13 974.81 1618.08 973.502 1622.39 C 965.344 1611.21 957.399 1604.19 946.709 1595.63 C 937.095 1604.01 932.487 1624.32 926.489 1636.71 C 939.056 1650.58 962.108 1670.23 977.057 1683.52 C 989.748 1671.39 1006.23 1655.43 1018.03 1642.25 z M 1341.2 871.14 C 1366.05 882.96 1373.02 886.803 1391.99 906.378 L 1393.04 904.071 C 1392.64 898.109 1393.94 885.975 1393.98 878.498 C 1384.03 859.706 1366.99 846.49 1344.84 848.324 C 1343.51 855.91 1342.3 863.516 1341.2 871.14 z M 811.855 1209.08 C 812.863 1196.06 816.308 1175.46 816.238 1164.17 L 817.541 1162.88 C 826.996 1162.05 856.228 1165.95 859.931 1162.94 C 857.597 1155.57 840.264 1153.53 833.841 1151.43 C 818.201 1146.31 806.455 1138.73 793.21 1129.35 C 784.844 1169.56 783.257 1177.51 811.855 1209.08 z M 682.641 1236.03 C 702.85 1230.72 718.14 1229.24 709.484 1203.49 C 708.22 1199.73 708.58 1198.66 705.2 1196.59 C 688.483 1210.98 687.275 1219.89 674.363 1236.47 C 677.245 1236.38 679.768 1236.25 682.641 1236.03 z M 560.987 1489.91 C 566.192 1485.78 571.927 1481.02 577.225 1477.13 C 576.654 1487.03 576.185 1495.4 576.412 1505.35 C 576.601 1513.69 578.126 1525.61 577.258 1533.46 C 577.916 1532.95 579.226 1531.97 579.81 1531.44 C 592.997 1517.85 606.49 1504.62 620.806 1492.14 C 635.148 1479.63 641.657 1466.85 641.441 1447.62 C 641.092 1416.59 626.189 1367.41 638.456 1338.37 C 648.002 1329.8 659.07 1325.59 668.411 1316.25 C 683.478 1301.18 694.007 1282.75 709.396 1268.21 C 703.046 1262 682.085 1241.5 673.607 1240.59 C 634.666 1278.29 581.008 1299.89 579.827 1363.71 C 579.648 1372.63 579.869 1381.56 580.49 1390.46 C 581.626 1405.8 588.537 1452.25 577.836 1464.5 C 574.077 1468.8 560.322 1475.82 554.516 1478.56 C 557.529 1483.08 558.711 1485.01 560.987 1489.91 z M 956.883 516.278 C 951.945 492.115 948.46 467.48 948.953 442.612 C 949.161 432.122 952.409 431.509 961.731 429.669 L 1045.42 413.113 C 1046.01 412.679 1052.89 409.747 1053.99 409.264 C 1056.85 407.724 1061.98 404.103 1064.88 402.196 C 1060.37 402.66 1059.31 403.496 1055.11 405.549 C 1018.88 414.055 981.759 418.22 944.54 417.956 C 943.489 426.858 941.148 437.26 940.532 445.41 C 938.646 470.343 942.852 495.3 956.883 516.278 z M 387.05 1261.77 C 381.63 1274.46 378.893 1295.33 375.548 1308.94 C 373.296 1318.1 370.443 1326.6 368.149 1335.64 L 368.921 1336.62 L 369.436 1336.45 C 381.394 1313.62 391.431 1291.04 389.166 1264.25 C 389.118 1263.68 387.512 1262.19 387.05 1261.77 z M 1203.62 1315.92 C 1208.38 1331.53 1212.84 1346.01 1215.7 1362.1 C 1195.66 1332.84 1177.4 1302.17 1145.66 1282.85 C 1147.73 1291.57 1151.1 1300.73 1153.44 1308.63 C 1164.29 1345.37 1165.88 1362.3 1206.06 1373.86 C 1220.35 1377.97 1253.56 1389.13 1267.56 1396.32 C 1259.97 1384.62 1253.06 1373.91 1244.72 1362.74 C 1231.88 1346.4 1218.16 1330.77 1203.62 1315.92 z M 1158.74 1006.7 C 1175.7 1013.94 1197.46 1015.93 1214.87 1010.39 C 1228.4 1001.33 1248.33 978.74 1255.73 964.114 C 1247.39 967.592 1234.63 970.257 1225.64 972.968 C 1204.55 979.326 1174.04 990.371 1158.74 1006.7 z M 1283.72 1005.12 C 1273.13 1011.17 1229.13 1040.04 1221.41 1049.12 L 1222.06 1049.88 C 1248.55 1036.56 1262.29 1025.38 1284.04 1006.41 L 1284.06 1005.28 L 1283.72 1005.12 z M 1141.96 646.36 C 1168.32 622.669 1200.03 577.186 1213.85 545.136 C 1207.36 544.375 1202.36 543.941 1195.84 543.67 C 1202.71 520.025 1213.18 435.883 1199.3 417.965 C 1173.17 384.211 1181.6 377.581 1169.77 340.14 C 1165.58 336.506 1163.51 334.328 1157.84 333.653 C 1151.58 344.668 1148.4 361.566 1144.95 373.938 L 1145.88 375.014 C 1158.8 389.718 1176.42 386.788 1176.32 405.381 C 1176.31 407.977 1174.84 408.777 1173.22 409.977 C 1158.85 412.016 1127.26 389.953 1118.23 379.709 C 1117.53 381.201 1117.53 397.33 1116.62 402.512 C 1109.13 444.838 1088.63 535.731 1109.21 574.727 L 1110.94 575.963 C 1113.07 573.297 1111.66 552.948 1111.89 547.618 C 1112.9 523.706 1114.68 496.279 1120.7 473.112 C 1122.5 476.956 1127.07 488.309 1130.02 489.98 C 1143.25 489.279 1179.22 462.93 1189.69 453.206 C 1190.29 459.573 1190.73 462.106 1192.2 468.341 C 1193.69 475.471 1195.74 484.004 1196.25 491.135 C 1187.58 499.746 1157.72 526.105 1148.21 532.731 C 1145.48 554.801 1144.94 578.82 1143.91 601.223 C 1143.27 615.402 1141.72 632.617 1141.96 646.36 z M 1436 1536.32 C 1397.22 1547 1352.95 1560.87 1314.17 1572.68 C 1322.5 1581.61 1333.74 1589.51 1342.86 1597.24 C 1356.1 1608.46 1385.41 1637.26 1391.24 1652.54 C 1397.32 1641.6 1403.19 1620.36 1406.16 1607.7 C 1431.89 1621.85 1477.72 1641.8 1500.48 1658.01 L 1502.23 1657.79 C 1496.95 1648.41 1488.86 1643.14 1483.76 1635.52 C 1470.15 1615.17 1457.29 1585.26 1449.97 1561.61 C 1465.81 1580.93 1488.71 1598.08 1503.34 1617.61 C 1505.17 1614.57 1503.54 1608.81 1502.02 1605.82 C 1475.58 1553.54 1436.94 1496.46 1392.3 1458.7 C 1376.62 1445.44 1330.37 1424.95 1310.22 1416.96 C 1349.92 1462 1390.62 1496.97 1436 1536.32 z M 979.552 1130.97 C 977.922 1120.78 973.895 1109.42 972.749 1099.11 C 969.27 1094.03 965.231 1093.9 959.212 1092.37 L 956.761 1094.49 C 957.358 1099.76 963.176 1107.28 965.329 1113.25 C 969.334 1118 975.533 1127.56 979.552 1130.97 z M 1151.72 1062.08 C 1147.1 1071.66 1144.2 1087.25 1141.07 1097.92 C 1138.46 1106.82 1135.28 1111.71 1132.49 1119.47 C 1134.51 1119.63 1133.68 1119.8 1135.04 1119.32 C 1144.36 1110.18 1185.38 1063.38 1168.74 1051.69 C 1162.44 1055.08 1157.72 1058.14 1151.72 1062.08 z M 546.75 1113.96 L 561.369 1113.69 C 570.052 1077.81 551.874 1054.88 514.588 1058.42 C 507.273 1059.25 500.502 1059.88 493.313 1061.53 C 524.52 1073.47 523.432 1087.78 541.192 1112.87 C 541.725 1113.62 545.656 1113.95 546.75 1113.96 z M 525.3 926.039 C 520.862 932.988 512.166 948.784 509.243 956.108 C 516.424 987.808 524.711 994.092 555.285 1004.54 C 564.12 1007.56 603.531 1026.74 609.661 1022.4 C 611.197 1013.04 595.29 959.735 585.493 950.467 C 577.545 940.503 562.865 935.328 556.629 923.946 C 535.758 885.852 555.126 865.716 583.536 847.699 C 579.383 841.044 570.365 830.05 565.257 823.054 C 551.926 836.971 531.983 862.726 519.599 878.163 L 453.793 959.831 C 444.003 972.06 437.959 981.636 427.261 993.633 L 426.015 995.018 L 426.493 996.234 C 441.262 999.083 506.545 936.416 519.654 923.606 L 525.3 926.039 z M 1094.28 1028.96 C 1096.91 1023.92 1098.01 1021.38 1101.91 1017.07 C 1109.98 1007.17 1124.55 996.732 1136.02 991.228 C 1144.23 986.251 1150.03 983.083 1157.13 976.536 L 1012.46 919.921 C 1005.88 926.876 987.822 952.777 991.087 961.754 C 999.418 965.916 1007 967.45 1014.93 970.992 C 1049.78 986.574 1074.64 994.026 1094.28 1028.96 z M 511.221 785.873 C 490.985 798.389 463.734 821.089 443.867 835.768 C 411.24 859.631 377.741 882.279 343.44 903.665 C 327.182 913.77 311.816 923.659 294.784 932.442 C 311.214 929.653 323.711 927.57 339.794 923.417 C 346.567 920.995 353.554 918.383 360.346 916.09 C 355.574 919.948 350.759 923.763 346.155 927.819 C 275.165 978.947 212.048 1028.12 183.804 1115.41 C 178.047 1133.21 175.615 1151.12 172.255 1169.46 C 174.467 1165.24 176.458 1159.93 178.295 1155.47 C 191.689 1122.96 209.07 1093.24 231.255 1065.85 C 252.213 1039.98 276.729 1018.57 301.282 996.156 C 320.777 978.408 340.125 960.5 359.326 942.433 C 412.652 892.93 463.353 840.672 511.221 785.873 z M 925.341 1014.09 C 938.636 1027.35 955.327 1042.28 972.073 1050.92 C 972.929 1048.45 969.706 1038.52 968.881 1034.92 C 966.237 1023.41 966.039 1015.59 966.019 1003.81 C 956.061 1005.7 933.507 1009.23 925.341 1014.09 z M 1049.83 1131.49 C 1053.23 1133.71 1056.62 1135.94 1059.99 1138.2 L 1068.25 1143.55 L 1077.38 1148.42 C 1081.01 1136.94 1086.6 1128.15 1075.93 1119.54 C 1058.08 1112.46 1041.8 1109.42 1022.74 1107.07 C 1028.73 1117.55 1039.92 1123.91 1049.83 1131.49 z M 1314.24 1037.07 C 1300.82 1050.51 1278.25 1073.54 1263.92 1085.09 L 1263.84 1086.61 C 1280.98 1078.98 1303.33 1053.76 1314.39 1038.41 L 1314.24 1037.07 z M 830.492 957.726 C 840.209 968.429 856.466 979.61 870.212 984.383 C 860.513 972.059 852.47 965.523 837.269 960.781 C 834.256 959.842 834.32 958.064 830.492 957.726 z M 615.236 762.705 C 610.296 779.377 602.738 820.274 607.788 839.807 C 607.961 840.033 608.134 840.258 608.307 840.484 L 610.673 839.618 C 619.468 831.661 621.494 824.565 622.139 812.665 C 622.869 799.207 620.641 775.01 615.236 762.705 z M 1427.59 1648.51 C 1420.76 1664.15 1412.58 1682.57 1404.11 1697.34 L 1406.35 1699.72 C 1423.9 1704.9 1456.73 1712.35 1468.19 1727.07 C 1479.86 1736.93 1479.2 1745.59 1485.23 1757.68 C 1489.96 1770.82 1500.59 1789.83 1509.38 1800.74 C 1504.34 1767.62 1516.97 1720.38 1507.22 1692.46 C 1501.32 1675.57 1446.53 1655.32 1427.59 1648.51 z M 411.942 1221.55 C 413.743 1218.86 415.922 1215.69 417.529 1212.92 C 420.833 1207.23 422.713 1200.83 423.006 1194.27 C 423.35 1184.36 419.467 1169.66 418.065 1159.19 C 416.602 1148.27 417.902 1140.3 417.339 1130.07 C 415.983 1120.32 412.729 1109.7 410.173 1100.24 C 401.105 1066.65 404.198 1042.18 442.766 1033.29 C 475.147 1023.58 500.338 1021.76 533.375 1029.37 C 553.843 1034.09 583.604 1043.13 598.166 1059.26 C 604.176 1063.73 620.032 1080.78 623.883 1080.98 C 621.391 1068.25 604.859 1053.12 594.623 1045.94 C 561.419 1022.63 516.346 1006.71 475.547 1014.13 C 456.294 1017.64 409.253 1027.24 398.667 1043.27 C 377.488 1075.36 403.186 1182.71 411.942 1221.55 z M 1386.87 584.279 C 1348.24 582.853 1326 575.74 1289.55 563.422 C 1281.51 600.03 1267.5 629.587 1235.37 650.724 C 1226.26 656.714 1218.01 661.133 1208.84 667.636 C 1234.95 659.117 1257.15 651.743 1283.25 642.314 C 1302.67 634.795 1326.51 622.291 1344.24 611.295 C 1358.77 602.283 1371.48 592.545 1386.87 584.279 z M 814.922 952.02 C 808.847 950.905 799.184 949.408 793.543 947.764 C 794.827 956.761 797.044 970.402 800.467 978.922 C 808.714 999.45 820.127 1018.36 826.576 1039.88 C 827.005 1041.31 828.709 1043.35 829.863 1044.29 C 828.715 1012.72 824.443 982.177 814.922 952.02 z M 529.516 1434.99 C 528.291 1422.75 518.635 1367.19 522.105 1359.03 C 530.255 1339.88 547.386 1312.94 557.216 1293.23 C 566.688 1274.24 589.026 1270.16 606.738 1261.99 L 607.825 1261.48 C 582.726 1243.75 559.74 1209.59 528.147 1207.35 C 513.195 1206.29 474.915 1211.59 473.688 1230.87 C 475.304 1245.27 472.537 1273.74 469.689 1287.52 C 466.86 1306.87 462.176 1329.36 458.422 1348.78 C 472.912 1345.5 505.589 1300.41 514.98 1287.68 C 503.428 1337.35 511.283 1387.96 529.516 1434.99 z M 763.488 824.359 C 759.821 850.911 776.256 882.901 791.463 903.796 C 802.584 919.074 813.921 923.381 832.646 922.031 C 818.295 901.529 792.31 880.556 778.936 857.172 C 775.142 850.538 765.309 825.819 763.488 824.359 z M 963.157 701.755 C 977.704 712.531 988.969 723.124 1005.16 732.397 C 1055.74 761.35 1123.56 774.871 1180.68 760.229 L 1184.82 758.193 L 1184.74 757.164 C 1173.97 756.142 1163.23 756.198 1152.48 754.613 C 1097.62 746.523 1046.05 724.015 992.799 709.437 C 985.562 707.456 969.67 701.809 963.157 701.755 z M 635.001 883.086 C 636.193 915.32 631.963 925.768 641.557 960.921 C 644.773 957.575 656.683 949.092 661.062 945.063 C 697.968 911.105 708.475 902.143 718.16 853.867 C 718.742 849.858 719.359 850.093 718.005 846.971 C 706.915 848.618 663.607 870.009 651.758 875.225 C 647.123 877.266 639.864 881.638 635.001 883.086 z M 970.712 876.131 C 967.626 854.452 966.212 851.117 967.764 829.595 C 968.634 817.535 977.979 786.524 977.339 781.472 C 971.319 773.931 945.526 760.988 935.654 755.646 C 910.555 764.688 863.547 769.535 837.861 765.945 C 874.024 793.221 916.24 818.868 954.52 844.235 C 924.355 838.579 901.545 835.718 872.768 821.575 C 862.358 816.459 850.367 808.424 840.795 803.99 L 839.073 803.205 C 847.995 819.14 905.571 853.554 923.323 861.966 C 939.252 868.938 953.616 872.804 970.712 876.131 z"/><path transform="translate(0,0)" fill="url(#Gradient6)" d="M 1616.43 1345.42 C 1598.9 1324.45 1578.03 1286.04 1564.62 1261.87 C 1506.47 1157.09 1472.74 1043.19 1484.92 922.455 C 1491.95 852.785 1521.08 750.275 1609.06 752.979 C 1645.97 754.631 1690.74 797.891 1713.39 826.408 C 1788.79 921.353 1819.08 1051.07 1821.61 1170.35 C 1821.87 1185.93 1821.57 1208.79 1819.99 1224.03 C 1819.84 1234.86 1817.04 1253.84 1815.79 1265.3 C 1816.55 1273.12 1822.32 1305.74 1825.98 1311.78 L 1827.12 1312.14 C 1829.23 1321.2 1810.69 1376.46 1806.13 1387.04 C 1801.5 1397.77 1796.07 1408.12 1789.88 1418.03 C 1774.91 1442.16 1767.08 1451.05 1745.71 1468.46 L 1745.02 1466.9 C 1748.64 1450.75 1745.53 1431.9 1741.46 1416.17 C 1726.55 1413.95 1711.13 1415.52 1694.74 1410.48 C 1666.43 1401.78 1637.32 1376.49 1616.91 1355.12 C 1615.99 1354.16 1617.31 1351.86 1617.79 1350.5 C 1617.72 1347.51 1617.69 1348.4 1616.43 1345.42 z M 1576.07 850.465 C 1618.19 819.709 1657.54 843.066 1688.12 877.342 C 1713.33 900.078 1742.04 951.162 1758.16 981.203 C 1759.85 984.359 1762.77 992.769 1765.22 994.716 C 1765.25 986.418 1757.98 966.903 1754.53 958.261 C 1729.18 894.813 1688.47 822.916 1623.34 794.479 C 1575.44 784.433 1561.96 819.716 1552.85 859.166 C 1551.84 863.533 1551.87 867.57 1550.08 871.744 C 1550.16 874.335 1549.9 873.419 1551.02 875.744 C 1556.19 867.682 1568.3 856.255 1576.07 850.465 z"/><path transform="translate(0,0)" fill="rgb(0,100,62)" d="M 1804.74 1242.16 C 1807.21 1239.23 1807.25 1238.5 1807.84 1234.7 L 1808.64 1235.28 L 1808.86 1237.11 C 1809.26 1240.18 1814.57 1263.52 1815.79 1265.3 C 1816.55 1273.12 1822.32 1305.74 1825.98 1311.78 L 1827.12 1312.14 C 1829.23 1321.2 1810.69 1376.46 1806.13 1387.04 C 1801.5 1397.77 1796.07 1408.12 1789.88 1418.03 C 1774.91 1442.16 1767.08 1451.05 1745.71 1468.46 L 1745.02 1466.9 C 1748.64 1450.75 1745.53 1431.9 1741.46 1416.17 C 1726.55 1413.95 1711.13 1415.52 1694.74 1410.48 C 1666.43 1401.78 1637.32 1376.49 1616.91 1355.12 C 1615.99 1354.16 1617.31 1351.86 1617.79 1350.5 C 1617.72 1347.51 1617.69 1348.4 1616.43 1345.42 C 1616.45 1340.77 1616.36 1340.22 1614.15 1336.14 L 1615.61 1334.12 C 1627.71 1349.09 1676.93 1377.33 1697.1 1380.34 C 1773.95 1391.82 1796.84 1304.07 1804.74 1242.16 z"/><path transform="translate(0,0)" fill="rgb(0,40,20)" d="M 1819.99 1224.03 C 1819.84 1234.86 1817.04 1253.84 1815.79 1265.3 C 1814.57 1263.52 1809.26 1240.18 1808.86 1237.11 L 1808.64 1235.28 L 1807.84 1234.7 C 1807.25 1238.5 1807.21 1239.23 1804.74 1242.16 C 1804.65 1238.78 1804.98 1231.13 1806.84 1228.46 C 1810.22 1229.5 1814.23 1238.23 1816.74 1242.43 L 1817.57 1242.16 C 1816.32 1236.46 1816.88 1229.04 1819.99 1224.03 z"/><path transform="translate(0,0)" fill="rgb(0,60,34)" d="M 1614.15 1336.14 C 1611.7 1333.66 1610.09 1332.3 1609.99 1329.17 C 1613.25 1330.16 1612.95 1330.92 1615.61 1334.12 L 1614.15 1336.14 z"/><path transform="translate(0,0)" fill="rgb(0,100,62)" d="M 1576.07 850.465 C 1618.19 819.709 1657.54 843.066 1688.12 877.342 C 1689.37 884.25 1708.09 903.76 1712.42 911.624 C 1718.22 922.164 1718.24 935.212 1719.67 947.056 C 1724.11 983.904 1710.03 1029.78 1690.6 1060.86 C 1672.48 1089.86 1663.28 1095.96 1654.95 1130.48 C 1643.78 1117.01 1632.64 1108.75 1621.03 1097.05 C 1616.3 1092.29 1606.11 1069.23 1602.2 1061.54 C 1608.56 1097.67 1649.35 1183.73 1669.39 1216.97 C 1678.84 1232.64 1696.64 1249.87 1707.63 1269.01 C 1691.52 1254.72 1675.61 1240.15 1661.55 1223.8 C 1607.52 1160.99 1572.02 1067.34 1559.01 986.159 C 1556.33 969.445 1555.13 952.573 1553.99 935.697 C 1552.96 920.466 1550.39 902.603 1551.94 887.432 C 1553.72 870.094 1575.5 858.335 1576.07 850.465 z"/><path transform="translate(0,0)" fill="rgb(0,100,62)" d="M 1524.4 1051.92 C 1523.47 1045.17 1522.5 1038.34 1521.38 1031.65 C 1508.56 954.548 1505.98 867.956 1541.8 796.452 C 1543.57 792.909 1546.42 785.969 1549.43 783.694 L 1549.95 785.023 C 1548.4 790.699 1544.53 795.592 1541.97 801.231 C 1545.44 801.312 1544.27 800.873 1547.14 802.314 C 1551.57 811.769 1543.63 837.503 1551.28 845.048 C 1556.87 827.157 1566.28 803.57 1584.04 794.721 C 1594.77 789.378 1612.93 789.587 1624.29 793.379 L 1623.34 794.479 C 1575.44 784.433 1561.96 819.716 1552.85 859.166 C 1551.84 863.533 1551.87 867.57 1550.08 871.744 C 1547.15 874.895 1541.33 891.323 1539.82 896.063 C 1526.06 939.249 1523.44 981.946 1525.04 1027.05 C 1525.35 1034.15 1525.85 1041.23 1526.53 1048.3 L 1525.83 1051.46 L 1524.4 1051.92 z"/><path transform="translate(0,0)" fill="rgb(0,100,62)" d="M 1786.45 1213.32 L 1789.22 1213.62 C 1786.55 1259.35 1779.86 1301.87 1741.47 1330.57 C 1763.53 1300.85 1778.93 1249.52 1786.45 1213.32 z"/><path transform="translate(0,0)" fill="rgb(0,86,53)" d="M 1526.53 1048.3 C 1527.26 1053.04 1527.18 1053.7 1526.75 1058.56 L 1525.87 1059.64 C 1524.81 1056.33 1524.76 1055.28 1524.4 1051.92 L 1525.83 1051.46 L 1526.53 1048.3 z"/><path transform="translate(0,0)" fill="rgb(0,86,53)" d="M 1786.45 1213.32 C 1786.89 1210.63 1786.53 1209.26 1788.13 1208.1 C 1788.86 1210.59 1789.11 1211.06 1789.22 1213.62 L 1786.45 1213.32 z"/><path transform="translate(0,0)" fill="rgb(0,40,20)" d="M 1446.78 922.972 C 1453.08 919.91 1454.08 919.362 1455.97 912.428 C 1451.03 1029.77 1477.79 1146.29 1533.43 1249.72 C 1551.49 1283.38 1572.3 1317.34 1602.2 1341.54 C 1606.52 1345.04 1612.14 1350.48 1617.79 1350.5 C 1617.31 1351.86 1615.99 1354.16 1616.91 1355.12 C 1637.32 1376.49 1666.43 1401.78 1694.74 1410.48 C 1711.13 1415.52 1726.55 1413.95 1741.46 1416.17 C 1745.53 1431.9 1748.64 1450.75 1745.02 1466.9 L 1745.71 1468.46 C 1742.38 1470.91 1742.59 1470.83 1738.49 1471.39 C 1735.03 1472.98 1731.54 1474.59 1727.98 1475.95 C 1701.93 1485.9 1667.87 1480.62 1643.04 1469.67 C 1561.32 1433.65 1496.21 1331.84 1464.85 1250.97 C 1459.31 1236.68 1435.12 1164.77 1439.99 1153.76 L 1444.05 1150.94 C 1443.69 1150.26 1443.33 1149.59 1442.97 1148.92 C 1425.17 1077.74 1418.33 991.037 1446.78 922.972 z"/><path transform="translate(0,0)" fill="rgb(0,100,62)" d="M 1444.05 1150.94 C 1452.42 1161.29 1464.47 1208.53 1471.04 1224.74 C 1513.91 1330.5 1593.8 1447.93 1714.08 1468.58 C 1722.63 1469.93 1728.56 1470.47 1737.27 1470.07 L 1738.49 1471.39 C 1735.03 1472.98 1731.54 1474.59 1727.98 1475.95 C 1701.93 1485.9 1667.87 1480.62 1643.04 1469.67 C 1561.32 1433.65 1496.21 1331.84 1464.85 1250.97 C 1459.31 1236.68 1435.12 1164.77 1439.99 1153.76 L 1444.05 1150.94 z"/><path transform="translate(0,0)" fill="rgb(0,60,34)" d="M 1737.27 1470.07 C 1739.97 1469.19 1742.42 1468.04 1745.02 1466.9 L 1745.71 1468.46 C 1742.38 1470.91 1742.59 1470.83 1738.49 1471.39 L 1737.27 1470.07 z"/><path transform="translate(0,0)" fill="rgb(0,6,3)" d="M 1062.57 842.932 C 1066.68 843.229 1082.98 847.918 1088.42 849.13 C 1103.21 852.33 1118.08 855.129 1133.02 857.526 C 1136.91 858.182 1145.32 859.171 1147.92 861.512 C 1120.07 864.245 1084.92 861.74 1062.57 842.932 z"/><path transform="translate(0,0)" fill="rgb(0,40,20)" d="M 587.199 1478.05 C 589.671 1474.18 596.719 1466.56 597.497 1463.49 C 607.621 1423.43 585.277 1382.84 600.147 1342.2 C 612.057 1309.65 642.106 1300.66 671.856 1287.19 C 675.533 1288.45 677.523 1288.94 681.337 1289.77 C 666.399 1304.84 650.219 1313.15 637.012 1326.07 C 620.652 1342.07 626.235 1382.7 628.102 1404.26 L 632.227 1450.77 C 619.78 1459.53 601.014 1475.01 587.199 1478.05 z"/><path transform="translate(0,0)" fill="rgb(0,6,3)" d="M 671.856 1287.19 C 676.415 1285.01 683.233 1281.83 688.281 1282.04 L 688.555 1283.45 C 686.034 1286.76 684.833 1287.32 681.337 1289.77 C 677.523 1288.94 675.533 1288.45 671.856 1287.19 z"/><path transform="translate(0,0)" fill="rgb(0,40,20)" d="M 1188.74 527.708 C 1193.99 533.638 1185.03 568.892 1183.95 578.13 C 1182.02 594.686 1167.58 607.932 1155.68 618.652 C 1155.27 618.44 1154.85 618.227 1154.44 618.015 C 1166.32 571.459 1151.84 563.725 1188.74 527.708 z"/><path transform="translate(0,0)" fill="rgb(0,100,62)" d="M 1259.01 1579.45 C 1269.44 1578.47 1306.43 1571.12 1314.17 1572.68 C 1322.5 1581.61 1333.74 1589.51 1342.86 1597.24 C 1356.1 1608.46 1385.41 1637.26 1391.24 1652.54 C 1383.84 1667.13 1378.31 1682.15 1362.16 1688.58 C 1352.03 1692.61 1341.48 1690.82 1331.86 1686.34 C 1295.68 1669.48 1271.68 1615.34 1259.01 1579.45 z"/><path transform="translate(0,0)" fill="url(#Gradient5)" d="M 1055.81 1215.27 C 1075.96 1213.77 1126.96 1200.45 1142.18 1189.07 C 1138.99 1194.16 1137.48 1196.75 1133.33 1201.26 L 1131.5 1200.77 C 1130.44 1202.14 1122.68 1212.21 1122.71 1212.2 C 1111.55 1216.26 1105.93 1220.33 1098.16 1229.28 C 1083.83 1245.78 1073.06 1262.96 1061.25 1281.16 C 1045.37 1305.71 1011.72 1323.63 984.833 1334.91 C 981.93 1330.39 979.257 1326.75 978.588 1321.28 C 977.532 1312.63 981.994 1302.65 982.075 1294.22 C 982.203 1281 981.329 1267.11 980.616 1253.91 C 1000.91 1233.4 1024.29 1221.71 1053.46 1215.14 C 1054.21 1214.97 1055.04 1215.15 1055.81 1215.27 z"/><path transform="translate(0,0)" fill="rgb(0,100,62)" d="M 1222.46 818.275 L 1227.06 820.164 C 1230.29 821.492 1259.81 838.084 1260.97 839.359 C 1260.19 843.056 1257.42 844.865 1254.28 847.268 L 1253.89 848.526 C 1258.36 848.404 1259.99 847.28 1264.11 849.26 C 1268.72 855.228 1260.08 853.111 1270.47 856.922 C 1272.17 859.649 1271.75 858.186 1271.63 861.502 C 1286.13 857.914 1310.26 827.764 1327.4 823.094 C 1330.21 822.328 1343.83 827.712 1345.84 832.35 C 1344.25 840.617 1338.84 839.033 1342.61 846.088 L 1344.28 846.09 C 1362.76 846.248 1372.28 848.856 1385.68 862.626 C 1398.16 875.461 1396.06 888.439 1393.79 905.12 L 1393.04 904.071 C 1392.64 898.109 1393.94 885.975 1393.98 878.498 C 1384.03 859.706 1366.99 846.49 1344.84 848.324 L 1342.02 847.737 L 1340.97 846.049 C 1340.54 839.532 1342.25 835.907 1345.35 830.152 L 1326.92 824.247 C 1319.53 828.956 1309.32 835.272 1302.78 840.825 C 1278.68 861.292 1259.63 881.007 1230.86 895.947 C 1192.61 915.392 1148.29 919.166 1107.3 906.47 C 1065.68 893.229 1027.82 862.702 1007.51 823.855 C 1012.53 826.817 1016.48 831.509 1021.59 834.17 C 1023.81 835.325 1032.88 832.29 1034.83 833.566 C 1039.11 836.367 1041.14 837.555 1046.09 839.492 C 1116.23 897.452 1189.72 898.336 1259.93 840.515 C 1252.81 836.123 1224.52 822.872 1220.73 819.117 L 1222.46 818.275 z"/><path transform="translate(0,0)" fill="rgb(0,100,62)" d="M 688.861 1723.29 C 686.875 1722.86 684.218 1722.1 682.358 1721.72 C 673.042 1719.81 654.855 1701.53 655.026 1692.43 C 655.441 1670.29 652.415 1621.32 658.635 1601.57 C 661.074 1599.18 661.697 1598.23 664.964 1597.09 C 670.983 1599.81 683.708 1610.88 691.332 1615.48 C 711.369 1627.57 709.774 1629.85 732.444 1636.56 L 733.481 1639.36 C 731.096 1643.49 730.752 1645.33 729.369 1649.99 C 728.903 1658.06 721.887 1672.91 717.942 1680.19 C 715.942 1704.85 713.513 1713.62 688.861 1723.29 z"/><path transform="translate(0,0)" fill="rgb(0,60,34)" d="M 717.942 1680.19 C 713.963 1666.23 720.877 1660.58 729.369 1649.99 C 728.903 1658.06 721.887 1672.91 717.942 1680.19 z"/><path transform="translate(0,0)" fill="rgb(0,86,53)" d="M 837.028 566.649 C 839.264 568.296 839.147 568.16 840.607 570.519 C 844.863 572.877 849.658 573.651 853.707 575.916 C 864.896 582.177 873.442 594.354 879.194 605.492 C 882.005 613.534 880.755 615.043 876.451 622.348 C 872.281 622.923 869.056 622.872 865.798 625.359 C 859.665 634.34 866.049 639.969 850.893 640.841 C 834.385 656.141 804.867 643.531 784.667 644.214 C 768.032 644.776 750.368 645.687 734.017 648.879 C 726.688 650.309 718.87 654.426 712.358 655.457 C 706.152 640.563 715.891 642.936 725.465 638.723 C 747.98 628.816 759.222 626.922 783.553 629.433 C 783.513 622.962 784.153 622.239 786.244 616.161 C 789.921 614.43 793.614 612.734 797.323 611.074 C 803.743 612.844 806.848 614.327 813.322 613.217 C 817.339 613.767 816.186 614.399 818.795 612.965 C 816.891 608.342 784.489 587.325 777.266 584.173 C 789.176 582.764 792.729 580.872 803.939 577.293 C 814.992 573.82 826.022 570.272 837.028 566.649 z"/><path transform="translate(0,0)" fill="rgb(0,60,34)" d="M 879.194 605.492 C 882.005 613.534 880.755 615.043 876.451 622.348 C 872.281 622.923 869.056 622.872 865.798 625.359 C 859.665 634.34 866.049 639.969 850.893 640.841 C 854.212 636.745 860.977 638.352 861.413 631.488 C 859.444 629.004 858.197 627.863 857.425 624.771 C 862.764 613.268 874.782 620.056 879.194 605.492 z"/><path transform="translate(0,0)" fill="rgb(0,60,34)" d="M 837.028 566.649 C 839.264 568.296 839.147 568.16 840.607 570.519 C 826.559 570.289 813.738 580.848 803.939 577.293 C 814.992 573.82 826.022 570.272 837.028 566.649 z"/><path transform="translate(0,0)" fill="rgb(0,86,53)" d="M 925.453 1043.27 C 921.135 1041.16 911.471 1036.84 909.343 1032.83 L 910.549 1030.53 C 906.397 1028.38 889.688 1021.17 888.201 1018.59 C 896.447 1009.14 919.422 1016.79 925.341 1014.09 C 938.636 1027.35 955.327 1042.28 972.073 1050.92 C 977.011 1056.1 975.887 1087.09 974.414 1095.03 C 974.003 1096.18 973.41 1098.28 972.749 1099.11 C 969.27 1094.03 965.231 1093.9 959.212 1092.37 L 956.761 1094.49 C 957.358 1099.76 963.176 1107.28 965.329 1113.25 C 969.334 1118 975.533 1127.56 979.552 1130.97 C 981.07 1135.84 976.525 1146.8 976.157 1152.8 C 975.873 1157.42 975.941 1159.5 976.412 1164.14 C 977.456 1177.52 978.36 1190.91 979.125 1204.32 C 949.638 1183.62 943.147 1154.21 935.573 1120.74 C 931.752 1103.86 929.596 1087.39 928.119 1070.13 C 927.358 1061.23 924.777 1052.09 925.453 1043.27 z"/><path transform="translate(0,0)" fill="url(#Gradient4)" d="M 965.329 1113.25 C 969.334 1118 975.533 1127.56 979.552 1130.97 C 981.07 1135.84 976.525 1146.8 976.157 1152.8 C 975.873 1157.42 975.941 1159.5 976.412 1164.14 L 974.947 1164.26 C 972.804 1150.53 971.575 1146.67 973.699 1132.78 C 971.477 1126.42 968.005 1120.83 964.637 1115 L 965.329 1113.25 z"/><path transform="translate(0,0)" fill="rgb(0,86,53)" d="M 959.212 1092.37 C 965.812 1087.35 968.691 1090.48 974.414 1095.03 C 974.003 1096.18 973.41 1098.28 972.749 1099.11 C 969.27 1094.03 965.231 1093.9 959.212 1092.37 z"/><path transform="translate(0,0)" fill="url(#Gradient3)" d="M 1000.67 1049.03 C 998.938 1038.92 998.456 1031.75 996.074 1021.26 L 996.919 1020.6 C 1001.35 1022.5 1002.4 1023.43 1007.14 1022.65 C 1029.49 1037.68 1055.97 1050.95 1075.69 1064.42 C 1077.29 1067.81 1080.05 1070.84 1082.87 1073.15 C 1095.72 1083.69 1094.57 1089.1 1089.97 1103.57 C 1088.48 1108.21 1088.33 1115.53 1085.98 1119.88 C 1081.53 1119.07 1079.67 1117.99 1075.93 1119.54 C 1058.08 1112.46 1041.8 1109.42 1022.74 1107.07 C 1013.21 1096.6 1010.51 1096.52 996.839 1094.68 C 991.215 1089.39 987.852 1088.12 981.008 1084.91 C 977.174 1069.99 978.579 1068.46 979.105 1053.29 C 984.773 1056.42 1013.42 1070.68 1017.99 1070.94 L 1018.89 1069.87 C 1016.81 1062.91 1006.4 1054.64 1000.67 1049.03 z"/><path transform="translate(0,0)" fill="rgb(0,100,62)" d="M 1380.52 1712.23 C 1381.52 1707.18 1385.17 1700.41 1389.97 1697.95 C 1393 1696.4 1393.97 1697.5 1396.85 1698.63 C 1401.24 1699.8 1401.98 1700.25 1406.35 1699.72 C 1423.9 1704.9 1456.73 1712.35 1468.19 1727.07 C 1479.86 1736.93 1479.2 1745.59 1485.23 1757.68 L 1482.74 1756.91 C 1481.77 1763.18 1482.32 1768.21 1480.31 1773.75 C 1478.78 1774.72 1479.01 1774.82 1477.34 1775.22 C 1460.93 1776.46 1447.43 1776 1431.63 1770.64 C 1411.73 1763.89 1386.42 1751.08 1376.49 1731.79 C 1377.06 1726.35 1379.26 1717.8 1380.52 1712.23 z"/><path transform="translate(0,0)" fill="rgb(0,60,34)" d="M 1468.19 1727.07 C 1479.86 1736.93 1479.2 1745.59 1485.23 1757.68 L 1482.74 1756.91 C 1481.77 1763.18 1482.32 1768.21 1480.31 1773.75 C 1478.78 1774.72 1479.01 1774.82 1477.34 1775.22 C 1474.4 1765.68 1476.22 1755.34 1477.82 1745.75 C 1474.74 1740.41 1469.84 1732.7 1468.19 1727.07 z"/><path transform="translate(0,0)" fill="rgb(0,60,34)" d="M 1380.52 1712.23 C 1381.52 1707.18 1385.17 1700.41 1389.97 1697.95 C 1393 1696.4 1393.97 1697.5 1396.85 1698.63 C 1388.98 1702.3 1389.19 1708.69 1380.52 1712.23 z"/><path transform="translate(0,0)" fill="rgb(0,100,62)" d="M 1164.32 1218.53 C 1197.78 1168.48 1209.01 1154.8 1270.54 1147.28 C 1275.13 1169.9 1268.88 1181.72 1265.54 1202.58 L 1265.34 1203.88 C 1261.42 1207.57 1238.99 1213.48 1232.04 1216.07 C 1226.58 1218.1 1212.2 1224.83 1207.76 1226.05 C 1200.98 1227.91 1175.7 1226.62 1168.68 1225.23 C 1166.23 1222.49 1165.94 1221.7 1164.32 1218.53 z"/><path transform="translate(0,0)" fill="rgb(0,100,62)" d="M 473.688 1230.87 C 475.304 1245.27 472.537 1273.74 469.689 1287.52 C 466.86 1306.87 462.176 1329.36 458.422 1348.78 C 457.149 1351.8 454.18 1354.61 451.885 1357.12 C 450.126 1364.65 451.98 1367.23 455.038 1374.27 C 452.496 1372.36 442.745 1365.32 441 1363.55 C 438.167 1360.91 435.564 1358.03 433.218 1354.95 C 429.52 1350.07 424.298 1341.53 422.799 1335.9 C 420.004 1325.4 413.534 1279.84 414.599 1272.4 L 415.898 1271.87 L 418.622 1274.2 C 422.896 1275.12 433.908 1277.78 437.727 1278.18 C 438.228 1274.37 438.755 1270.57 438.496 1266.7 C 437.909 1257.91 432.556 1248.71 435.77 1240.39 C 441.42 1234.16 461.999 1231.49 470.472 1230.83 L 473.688 1230.87 z"/><path transform="translate(0,0)" fill="rgb(0,60,34)" d="M 418.622 1274.2 C 422.896 1275.12 433.908 1277.78 437.727 1278.18 L 436.859 1303.38 C 430.906 1291.54 425.621 1285.04 418.622 1274.2 z"/><path transform="translate(0,0)" fill="rgb(0,86,53)" d="M 473.688 1230.87 C 475.304 1245.27 472.537 1273.74 469.689 1287.52 C 465.837 1280.44 470.922 1259.41 470.784 1250.17 C 470.689 1243.84 470.824 1237.36 470.472 1230.83 L 473.688 1230.87 z"/><path transform="translate(0,0)" fill="rgb(0,60,34)" d="M 441 1363.55 C 446.676 1364.6 447.92 1361.16 451.885 1357.12 C 450.126 1364.65 451.98 1367.23 455.038 1374.27 C 452.496 1372.36 442.745 1365.32 441 1363.55 z"/><path transform="translate(0,0)" fill="rgb(0,100,62)" d="M 856.651 1545.45 C 868.569 1549.32 880.732 1552.48 892.829 1555.76 C 894.136 1595.84 881.075 1610.79 865.605 1644.72 L 865.181 1645.66 C 856.485 1650.01 850.9 1655.29 842.606 1652.95 C 838.85 1642.06 817.86 1633.46 816.198 1608.57 C 814.585 1584.42 805.391 1572.53 820.942 1549.53 C 826.907 1561.98 830.699 1577.54 835.162 1590.69 C 838.222 1599.71 841.535 1605.94 845.474 1614.47 C 853.449 1593.14 851.713 1568.19 856.651 1545.45 z"/><path transform="translate(0,0)" fill="rgb(0,100,62)" d="M 1385.16 1018.04 C 1356.35 997.007 1347.34 971.38 1341.68 937.011 C 1338.91 920.201 1332.29 886.288 1341.2 871.14 C 1366.05 882.96 1373.02 886.803 1391.99 906.378 C 1393.1 912.528 1384.97 950.227 1384.25 961.942 C 1382.86 984.203 1383.45 995.952 1385.16 1018.04 z"/><path transform="translate(0,0)" fill="url(#Gradient2)" d="M 744.765 664.522 C 732.008 668.903 734.54 667.254 723.591 669.664 C 725.191 668.676 726.318 668.051 727.94 667.138 L 729.713 666.127 C 734.154 663.649 779.078 648.932 784.068 648.273 C 789.84 647.454 795.723 647.955 801.274 649.739 C 827.57 658.097 826.476 684.221 846.322 699.793 C 852.547 704.677 864.961 701.154 873.903 702.788 C 893.49 706.368 914.791 718.568 928.225 732.871 C 929.444 737.949 926.575 742.67 921.583 742.275 C 911.724 741.496 903.874 732.441 895.611 727.777 C 888.43 725.004 880.185 725.32 870.296 721.28 C 876.158 720.475 882.877 724.877 890.5 724.645 C 888.695 722.684 881.215 721.987 879.485 720.806 C 856.872 705.382 832.738 703.766 806.551 710.148 C 802.606 711.11 802.335 715.088 795.729 716.27 C 787.86 709.606 784.226 686.141 781.506 674.897 C 767.102 674.763 759.435 675.585 746.186 680.797 L 744.454 680.223 C 738.808 678.392 739.471 679.673 733.013 676.22 L 732.525 674.683 C 736.517 671.323 741.143 668.019 744.765 664.522 z"/><path transform="translate(0,0)" fill="rgb(0,100,62)" d="M 720.427 1490.26 C 733.308 1489.75 741.732 1490.64 754.518 1492.6 C 733.663 1538.88 721.079 1557.13 730.49 1607.17 C 721.511 1600.57 715.764 1597.31 707.66 1589.4 C 697.086 1579.66 678.226 1569.4 669.905 1560.21 C 677.351 1540.87 685.657 1532.1 700.345 1517.21 C 704.432 1513.07 710.865 1507.25 713.764 1502.44 L 713.39 1501.11 C 709.228 1504.3 705.102 1507.54 701.015 1510.83 C 705.645 1501.67 710.135 1493.35 720.427 1490.26 z"/><path transform="translate(0,0)" fill="rgb(0,86,53)" d="M 1057.81 413.211 C 1060.69 410.628 1065.65 409.337 1069.49 405.975 C 1076.41 399.931 1085.16 399.408 1090.61 391.031 C 1099.7 390.178 1104.75 393.306 1111.43 398.843 C 1112.21 399.485 1112.98 400.133 1113.74 400.787 C 1110.99 423.005 1109.21 439.712 1089.93 454.346 C 1083.21 459.451 1077.12 462.016 1074.36 469.387 C 1073.06 464.906 1077.76 455.854 1079.76 451.178 C 1058.45 456.562 1036.8 448.957 1020.62 434.664 C 1023.36 433.061 1026.05 431.526 1028.71 429.78 C 1031.58 426.056 1039.29 422.197 1041.46 417.657 C 1042.65 415.17 1043.18 415.093 1045.42 413.113 C 1046.01 412.679 1052.89 409.747 1053.99 409.264 C 1056.85 407.724 1061.98 404.103 1064.88 402.196 C 1063.47 406.13 1060.93 407.326 1057.4 409.903 L 1056.45 412.395 L 1057.81 413.211 z"/><path transform="translate(0,0)" fill="rgb(0,60,34)" d="M 1053.99 409.264 C 1056.85 407.724 1061.98 404.103 1064.88 402.196 C 1063.47 406.13 1060.93 407.326 1057.4 409.903 L 1056.45 412.395 L 1057.81 413.211 C 1053.67 422.574 1037.45 424.932 1028.71 429.78 C 1031.58 426.056 1039.29 422.197 1041.46 417.657 C 1042.65 415.17 1043.18 415.093 1045.42 413.113 C 1046.01 412.679 1052.89 409.747 1053.99 409.264 z"/><path transform="translate(0,0)" fill="rgb(0,86,53)" d="M 305.729 1277.74 C 309.472 1288.57 310.41 1295.65 311.658 1307.05 L 311.458 1307.88 C 311.802 1308.78 320.405 1318.33 321.876 1320.37 C 337.344 1341.8 325.385 1362.6 299.953 1363.98 C 293.832 1364.31 288.576 1366.39 281.55 1364.48 C 276.212 1356.54 272.227 1325.99 270.248 1314.55 C 265.548 1310.6 263.741 1308.56 260.515 1303.42 C 274.266 1293.71 289.705 1283.22 305.729 1277.74 z"/><path transform="translate(0,0)" fill="rgb(0,100,62)" d="M 735.365 359.667 C 746.176 362.456 756.375 366.787 767.585 369.544 C 806.8 379.189 832.209 361.304 866.236 344.945 C 869.405 343.422 879.61 337.565 882.298 337.644 C 882.986 338.957 883.543 339.184 882.982 340.712 C 879.196 351.026 823.284 381.892 810.351 386.869 C 786.85 395.915 760.966 404.526 738.465 388.177 C 729.191 381.439 721.092 373.257 711.566 366.791 C 703.341 361.208 693.989 357.187 684.939 353.128 L 684.529 350.616 C 694.591 352.578 705.223 354.841 715.314 356.344 C 720.269 358.52 730.032 359.911 735.365 359.667 z"/><path transform="translate(0,0)" fill="rgb(0,86,53)" d="M 785.913 1240.17 C 787.048 1232.24 788.312 1224.13 789.336 1216.21 C 796.738 1223.54 811.403 1235.54 823.013 1237.75 C 826.607 1238.44 822.508 1234.22 828.188 1234.97 C 836.404 1241.03 835.759 1247.64 840.688 1256.39 C 848.06 1269.47 859.503 1280.12 872.836 1286.66 C 879.047 1290.41 881.653 1292.65 887.241 1297.36 C 885.443 1301.69 885.474 1301.43 885.874 1306.09 L 884.948 1307.58 C 879.402 1304.23 871.823 1301.25 866.906 1297.86 C 856.33 1290.59 843.466 1276.93 834.753 1267.34 C 830.38 1265.42 793.881 1276.12 786.371 1278.78 C 779.215 1275.17 757.541 1257.79 759.917 1249.12 C 764.851 1246.37 778.534 1243.11 785.913 1240.17 z"/><path transform="translate(0,0)" fill="rgb(0,60,34)" d="M 834.753 1267.34 C 852.959 1267.15 856.458 1291.56 872.836 1286.66 C 879.047 1290.41 881.653 1292.65 887.241 1297.36 C 885.443 1301.69 885.474 1301.43 885.874 1306.09 L 884.948 1307.58 C 879.402 1304.23 871.823 1301.25 866.906 1297.86 C 856.33 1290.59 843.466 1276.93 834.753 1267.34 z"/><path transform="translate(0,0)" fill="rgb(0,86,53)" d="M 848.005 1175.05 C 872.998 1180.16 894.521 1197.43 917.426 1208.25 C 926.128 1212.36 961.338 1222.24 964.161 1229 C 961.716 1231.18 962.24 1230.34 960.667 1233.03 C 964.502 1235.66 975.214 1234.31 979.9 1238.6 L 979.692 1240.42 C 922.51 1250.18 897.021 1244.72 863.363 1194.94 C 858.906 1188.34 852.012 1182.67 848.005 1175.05 z"/><path transform="translate(0,0)" fill="rgb(0,100,62)" d="M 521.987 1055.79 C 528.165 1058.78 540.646 1055.79 548.369 1061.79 C 562.427 1072.72 571.304 1097.4 562.893 1113.71 C 561.586 1116.24 546.82 1115.11 543.778 1115.15 C 541.368 1115.51 541.525 1115.51 539.151 1114.93 C 532.175 1105.94 525.409 1087.29 515.668 1077.11 C 509.948 1071.13 498.777 1067.03 496.033 1061.5 L 496.586 1060 C 504.978 1055.89 514.699 1058.7 521.987 1055.79 z M 493.313 1061.53 C 524.52 1073.47 523.432 1087.78 541.192 1112.87 C 541.725 1113.62 545.656 1113.95 546.75 1113.96 L 561.369 1113.69 C 570.052 1077.81 551.874 1054.88 514.588 1058.42 C 507.273 1059.25 500.502 1059.88 493.313 1061.53 z"/><path transform="translate(0,0)" fill="rgb(0,100,62)" d="M 1088.96 1465.12 C 1102.73 1466.75 1116.45 1469.7 1130.15 1471.98 C 1162.28 1477.33 1194.64 1483 1226.56 1489.45 C 1255.43 1495.28 1283.9 1505.55 1311.5 1515.58 C 1300.02 1516.8 1288.72 1520.52 1277.33 1522.9 C 1240.57 1530.56 1202.1 1540.87 1164.5 1534.23 C 1131.97 1528.48 1109.49 1483.93 1083.3 1475.47 C 1087.5 1472.17 1084.52 1470.25 1087.78 1468.08 C 1087.92 1469.27 1088.08 1470.77 1088.29 1472.59 C 1093.81 1480.7 1105.64 1486.83 1113 1492.71 C 1120.95 1499.05 1127.79 1506.52 1135.44 1513.26 C 1140.38 1517.61 1148.07 1522.43 1151.25 1527.94 C 1153.84 1528.63 1161.71 1531.6 1162.66 1531.69 C 1171.17 1532.43 1181.74 1531.91 1190.33 1531.73 L 1194.67 1526.55 C 1198.15 1525.99 1201.81 1527.89 1206.15 1528.2 L 1207.3 1524.43 C 1211 1521.91 1215.39 1521.97 1219.6 1520.93 C 1228.62 1518.68 1232.88 1523.89 1241.5 1525.56 C 1242.83 1523.33 1242.13 1523.7 1244.07 1522.61 L 1245.81 1523.78 L 1246.11 1527.23 L 1247.49 1528.05 C 1251.77 1526.36 1250.49 1525.21 1253.06 1522.44 C 1253.8 1521.64 1255.69 1522.87 1258.46 1519.8 C 1256.04 1517.89 1257.32 1518.69 1253.49 1518.42 L 1252.61 1517.18 C 1254.84 1508.66 1254.67 1510.37 1248.1 1504.97 C 1247.64 1500.85 1247.76 1502.17 1249.53 1497.91 C 1243.95 1493.11 1196.9 1485.83 1186.97 1484.22 C 1175.74 1482.4 1154.34 1477.19 1143.65 1477.42 C 1140.8 1475.47 1138.95 1473.72 1135.57 1473.42 C 1135.06 1475.29 1135.56 1474.5 1134 1475.76 C 1119.35 1471.28 1103.44 1468.74 1088.23 1466.74 L 1088.96 1465.12 z"/><path transform="translate(0,0)" fill="rgb(0,100,62)" d="M 940.985 1549.81 C 958.651 1553.64 977.098 1556.94 994.446 1560.81 C 990.091 1568.8 977.527 1598.79 976.575 1607.45 L 977.537 1609.88 C 976.031 1614.13 974.81 1618.08 973.502 1622.39 C 965.344 1611.21 957.399 1604.19 946.709 1595.63 L 945.415 1594.05 C 944.028 1594.26 942.887 1594.44 941.506 1594.72 C 939.604 1584.27 940.734 1561.09 940.985 1549.81 z"/><path transform="translate(0,0)" fill="rgb(0,86,53)" d="M 720.687 777.297 L 725.931 773.823 C 736.2 766.964 739.406 768.461 750.807 771.541 C 753.275 772.464 757.041 773.598 757.912 776.41 C 762.775 792.093 748.514 800.432 736.508 805.751 C 717.218 814.297 700.598 818.779 679.524 821.071 C 689.429 800.685 699.81 787.196 720.687 777.297 z"/><path transform="translate(0,0)" fill="rgb(0,60,34)" d="M 720.687 777.297 L 725.931 773.823 C 736.2 766.964 739.406 768.461 750.807 771.541 C 745.893 772.468 742.742 773.151 737.925 774.557 C 732.731 776.073 724.011 783.472 720.494 782.344 L 720.687 777.297 z"/><path transform="translate(0,0)" fill="rgb(0,100,62)" d="M 1228.02 1583.42 C 1231.38 1583.02 1237.61 1582.97 1241.2 1582.82 C 1242.19 1609.47 1243.22 1632.76 1242.74 1659.49 C 1237.54 1653.78 1234.92 1650.7 1230.5 1644.42 C 1213.92 1623.65 1204.41 1611.76 1199.15 1585.22 C 1208.63 1584.88 1218.52 1584.06 1228.02 1583.42 z"/><path transform="translate(0,0)" fill="rgb(0,86,53)" d="M 1049.83 1131.49 C 1053.23 1133.71 1056.62 1135.94 1059.99 1138.2 L 1068.25 1143.55 C 1068.91 1147.45 1073.41 1151.86 1075.79 1156.49 C 1064.51 1172.89 1061.48 1175.11 1044.07 1184.5 C 1039.93 1185.56 1041.5 1185.99 1038.37 1184.79 C 1036.42 1173.34 1033.25 1168.31 1024.99 1160.34 C 989.513 1126.06 1047.24 1139.56 1052.64 1135.55 C 1050.26 1134.33 1050.96 1134.77 1048.97 1132.95 L 1049.83 1131.49 z"/><path transform="translate(0,0)" fill="rgb(0,60,34)" d="M 1049.83 1131.49 C 1053.23 1133.71 1056.62 1135.94 1059.99 1138.2 C 1052.7 1139.24 1047.57 1136.84 1040.76 1137.51 C 1034.65 1149.82 1048.93 1150.54 1051.58 1159.5 C 1045.1 1167.28 1037.75 1172.23 1041.69 1183.16 L 1044.07 1184.5 C 1039.93 1185.56 1041.5 1185.99 1038.37 1184.79 C 1036.42 1173.34 1033.25 1168.31 1024.99 1160.34 C 989.513 1126.06 1047.24 1139.56 1052.64 1135.55 C 1050.26 1134.33 1050.96 1134.77 1048.97 1132.95 L 1049.83 1131.49 z"/><path transform="translate(0,0)" fill="rgb(0,86,53)" d="M 442.766 1033.29 C 475.147 1023.58 500.338 1021.76 533.375 1029.37 C 553.843 1034.09 583.604 1043.13 598.166 1059.26 C 601.791 1068.17 617.489 1079.73 623.088 1089.77 C 623.197 1112.27 620.791 1134.71 615.915 1156.67 C 608.275 1140 607.801 1125.88 606.449 1107.63 C 601.119 1126.19 591.891 1145.16 580.508 1160.81 C 571.657 1172.98 547.238 1191.71 531.946 1189.48 C 580.36 1182.35 618.44 1110.53 599.48 1066.99 C 586.768 1037.8 518.246 1028.95 489.766 1028.63 C 477.663 1028.49 461.92 1034.25 448.966 1034.18 L 454.105 1032.89 C 450.374 1032.18 447.338 1035.21 442.766 1033.29 z"/><path transform="translate(0,0)" fill="rgb(0,60,34)" d="M 1372.24 733.724 C 1391.61 745.553 1424.73 763.531 1441.3 778.151 C 1438.34 781.014 1436.66 782.592 1434.35 785.99 C 1429.13 793.669 1423.97 813.207 1414.89 816.059 C 1410.42 772.118 1390.82 766.657 1372.93 734.978 L 1372.24 733.724 z"/><path transform="translate(0,0)" fill="rgb(0,100,62)" d="M 1165.23 1050.84 C 1173.73 1050.6 1176.06 1056.39 1179.96 1063.65 L 1179.13 1064.63 L 1176.42 1064.4 C 1175.93 1067.09 1176.09 1067.28 1174.7 1069.56 L 1172.53 1068.61 C 1167.64 1075.33 1165.35 1086.08 1161.75 1091.18 C 1156.51 1098.61 1147.58 1109.02 1141.62 1116.11 C 1138.49 1118.6 1133.12 1124.37 1129.64 1120.93 C 1132 1108.29 1144.57 1073.73 1150.96 1060.65 C 1151.16 1060.24 1163.1 1052.31 1165.23 1050.84 z M 1151.72 1062.08 C 1147.1 1071.66 1144.2 1087.25 1141.07 1097.92 C 1138.46 1106.82 1135.28 1111.71 1132.49 1119.47 C 1134.51 1119.63 1133.68 1119.8 1135.04 1119.32 C 1144.36 1110.18 1185.38 1063.38 1168.74 1051.69 C 1162.44 1055.08 1157.72 1058.14 1151.72 1062.08 z"/><path transform="translate(0,0)" fill="rgb(0,60,34)" d="M 718.16 853.867 C 725.346 855.443 732.744 859.445 740.355 860.794 C 742.608 861.194 754.546 874.792 756.913 877.664 L 756.914 879.534 L 753.927 880.2 C 755.583 886.507 780.834 908.715 773.432 914.454 C 730.616 947.648 696.452 983.647 658.532 1021.5 L 661.086 1022.84 L 660.518 1023.94 C 656.839 1022.74 658.505 1022.58 655.325 1023.87 C 655.519 1018.69 706.187 970.097 713.997 962.819 C 721.768 955.577 764.191 922.443 767.013 917.821 C 767.06 917.745 767.277 915.569 767.296 915.242 C 767.608 910.04 766.943 904.728 767 899.5 L 766.05 898.557 C 759.866 892.331 753.963 883.994 747.769 878.079 C 746.052 876.438 736.379 873.154 733.513 871.893 L 733.577 870.534 C 740.146 869.233 747.801 877.492 754.977 876.794 C 749.335 865.919 739.34 872.36 734.555 865.003 C 728.908 856.32 730.324 860.361 721.892 856.273 C 718.098 859.423 713.461 881.966 710.846 888.552 C 701.693 911.6 683.124 926.654 665.932 943.643 C 663.74 945.809 642.859 962.617 641.094 963.292 C 635.845 957.502 631.564 913.47 633.022 903.472 C 633.465 900.434 634.058 889.594 633.177 887.126 C 630.341 885.619 626.47 884.364 623.45 885.457 C 613.705 888.985 590.395 894.888 594.592 909.643 C 598.168 922.213 603.938 933.999 604.4 947.735 C 604.49 950.416 607.66 952.858 606.476 956.032 C 603.592 952.716 591.047 930.331 591.723 926.171 C 593.476 915.392 596.294 918.514 590.515 907.283 C 593.008 902.491 595.042 898.291 598.142 893.835 C 607.933 889.226 624.114 881.601 635.001 883.086 C 636.193 915.32 631.963 925.768 641.557 960.921 C 644.773 957.575 656.683 949.092 661.062 945.063 C 697.968 911.105 708.475 902.143 718.16 853.867 z"/><path transform="translate(0,0)" fill="rgb(0,86,53)" d="M 851.828 1015.52 C 850.748 1012.72 850.355 1012.5 850.567 1009.59 C 855.901 1004.2 851.793 1002.63 851.231 994.47 L 852.402 993.398 L 854.822 994.417 C 871.765 1003.43 880.06 1024.1 897.238 1033.59 C 900.498 1034.92 901.774 1034.67 902.864 1037.03 C 899.029 1042.81 899.881 1042.83 901.377 1049.75 C 895.831 1046.66 889.494 1042.38 883.687 1040.81 C 881.147 1041.92 882.334 1041.2 880.766 1044.91 C 881.024 1050.24 880.235 1054.74 879.557 1060.01 C 878.493 1060.81 877.422 1061.59 876.343 1062.36 C 874.439 1049.54 873.16 1035.89 866.009 1025.01 L 865.348 1024.03 C 863.492 1026.17 863.968 1025.79 861.713 1027.5 L 858.844 1026.84 C 855.767 1024.3 853.711 1019.24 851.828 1015.52 z"/><path transform="translate(0,0)" fill="rgb(0,60,34)" d="M 851.828 1015.52 C 850.748 1012.72 850.355 1012.5 850.567 1009.59 C 855.901 1004.2 851.793 1002.63 851.231 994.47 L 852.402 993.398 L 854.822 994.417 C 850.532 1000.33 863.541 1010.74 864.011 1021.95 L 865.348 1024.03 C 863.492 1026.17 863.968 1025.79 861.713 1027.5 L 858.844 1026.84 C 855.767 1024.3 853.711 1019.24 851.828 1015.52 z"/><path transform="translate(0,0)" fill="rgb(0,60,34)" d="M 851.828 1015.52 C 857.932 1017.17 858.874 1018.31 864.011 1021.95 L 865.348 1024.03 C 863.492 1026.17 863.968 1025.79 861.713 1027.5 L 858.844 1026.84 C 855.767 1024.3 853.711 1019.24 851.828 1015.52 z"/><path transform="translate(0,0)" fill="rgb(0,60,34)" d="M 897.238 1033.59 C 900.498 1034.92 901.774 1034.67 902.864 1037.03 C 899.029 1042.81 899.881 1042.83 901.377 1049.75 C 895.831 1046.66 889.494 1042.38 883.687 1040.81 C 881.147 1041.92 882.334 1041.2 880.766 1044.91 C 880.656 1041.64 880.417 1041.71 881.973 1038.91 C 887.54 1034.59 893.743 1039.25 897.238 1033.59 z"/><path transform="translate(0,0)" fill="rgb(0,100,62)" d="M 759.559 1673.72 L 760.449 1674.64 C 760.882 1676.69 760.89 1676.8 760.686 1678.79 C 757.459 1710.23 755.139 1726.41 733.428 1750.56 C 726.585 1758.18 723.49 1763.65 714.255 1770.89 L 713.64 1770.32 C 714.633 1765.28 717.242 1753.5 719.339 1749.03 C 732.949 1720.01 750.392 1705.55 759.559 1673.72 z"/><path transform="translate(0,0)" fill="rgb(0,86,53)" d="M 1247.63 765.892 C 1247.5 762.129 1246.81 761.379 1248.42 758.711 C 1258.1 754.383 1286.49 755.073 1297.47 756.229 C 1309.96 775.7 1383.6 813.591 1406.93 818.652 C 1408.74 819.058 1410.58 819.353 1412.43 819.534 C 1414.88 817.81 1414.09 818.933 1414.89 816.059 C 1423.97 813.207 1429.13 793.669 1434.35 785.99 C 1436.66 782.592 1438.34 781.014 1441.3 778.151 L 1442.97 777.123 C 1450.34 774.757 1444.39 770.502 1452.04 770.677 C 1459.03 776.79 1448.86 792.442 1452.16 804.137 L 1452.91 804.475 L 1455.54 798.125 L 1456.68 799.65 C 1449.69 815.398 1443.47 831.476 1438.05 847.827 C 1434.9 847.83 1430.89 847.451 1427.97 848.601 C 1421.96 850.967 1409.79 894.996 1406.53 904.098 L 1405.95 903.358 L 1406.42 899.859 L 1405.57 899.372 C 1404.09 900.761 1403.55 901.05 1401.87 902.213 C 1402.24 900.671 1402.06 900.531 1403.19 899.516 C 1416.99 887.101 1413.95 853.284 1430.69 842.269 L 1431.37 845.902 L 1432.55 846.063 C 1436.32 842.904 1441.83 817.506 1448.16 811.957 C 1449.1 811.139 1450.34 808.522 1450.72 807.215 C 1445.9 797.614 1447.54 799.009 1449.61 789.412 C 1450.3 786.136 1449.7 782.72 1447.92 779.882 C 1433.29 775.574 1427.9 815.962 1414.44 820.603 C 1396.52 826.781 1321.86 779.272 1304.83 768.072 C 1300.83 765.443 1298.16 759.291 1293.81 757.702 C 1286.06 754.876 1256.28 756.931 1248.68 760.476 L 1248.54 761.785 L 1250.56 763.111 C 1251.81 766.335 1251.84 766.136 1254.26 768.684 L 1254.24 770.294 C 1252.58 769.358 1249.34 767.044 1247.63 765.892 z"/><path transform="translate(0,0)" fill="rgb(0,60,34)" d="M 923.323 861.966 L 923.045 863.036 L 921.024 863.5 C 917.687 861.436 913.243 858.573 909.605 857.491 C 888.913 851.415 872.02 836.577 854.678 824.432 C 839.644 813.902 835.121 797.133 821.256 785.975 C 819.59 784.633 812.601 783.331 809.303 781.299 C 809.118 786.467 812.916 794.66 813.806 799.976 C 817.002 819.068 818.533 837.202 827.75 854.641 C 834.349 868.292 840.614 881.511 849.072 894.114 C 860.08 910.514 877.39 912.664 895.577 913.844 C 901.65 914.238 907.638 913.445 913.831 914.479 L 913.503 915.108 C 902.067 916.958 873.643 914.022 862.558 908.885 C 844.841 900.675 828.649 859.642 820.294 841.849 C 816.009 829.468 815.345 815.623 812.692 802.78 C 811.006 794.619 804.229 780.484 807.668 773.283 C 815.395 768.121 832.886 794.956 837.905 801.634 L 839.073 803.205 C 847.995 819.14 905.571 853.554 923.323 861.966 z"/><path transform="translate(0,0)" fill="rgb(0,86,53)" d="M 799.517 441.095 C 824.147 440.268 853.088 427.434 874.813 416.285 C 856.164 436.62 803.581 468.69 779.079 443.534 C 782.864 441.913 793.459 442.241 799.517 441.095 z"/><path transform="translate(0,0)" fill="rgb(0,100,62)" d="M 1098.56 1321.92 L 1100.64 1322.66 L 1101.36 1325.02 C 1095.85 1338.08 1062.26 1355.79 1048.81 1361.23 C 1047.05 1361.95 1040.31 1362.05 1038.22 1362.07 C 1036.69 1360.91 1037.3 1361.68 1036.55 1359.67 C 1043.23 1344.76 1083.22 1329.04 1098.56 1321.92 z"/><path transform="translate(0,0)" fill="rgb(0,86,53)" d="M 865.095 329.559 C 885.961 306.417 909.269 284.997 929.98 261.563 C 931.947 259.338 938.642 254.383 941.786 254.71 C 942.117 262.239 905.235 299.606 898.887 308.438 C 893.747 315.591 871.765 326.617 866.532 333.22 C 865.936 332.241 865.502 330.709 865.095 329.559 z"/><path transform="translate(0,0)" fill="rgb(0,100,62)" d="M 1207.13 1030.39 C 1204.69 1043.26 1207.2 1050.36 1206.27 1059.23 C 1202.67 1093.72 1170.15 1134.68 1145.47 1158 C 1143.4 1159.95 1142.77 1161.18 1140.72 1161.09 C 1161.26 1139.87 1178.31 1121.74 1192.19 1095.32 C 1194.9 1090.16 1198.6 1084.7 1199.35 1078.93 L 1197.7 1078.93 C 1195.54 1073.53 1196.67 1068.52 1194.46 1065.24 C 1190.91 1064.14 1187.19 1065.42 1182.95 1065.03 C 1177.7 1058.49 1192.02 1047.65 1196.86 1044.1 C 1200.21 1041.65 1200.05 1042.51 1204.03 1043.16 C 1204.32 1037.35 1201.59 1026.39 1200.47 1019.92 L 1202.13 1019.26 C 1204.78 1022.22 1204.85 1026.85 1205.7 1031.36 L 1206.69 1029.25 L 1207.13 1030.39 z"/><path transform="translate(0,0)" fill="rgb(0,60,34)" d="M 1136.02 991.228 L 1137.95 991.982 L 1136.48 992.768 C 1126.46 998.184 1101.47 1019.35 1105.08 1035.75 C 1105.55 1037.92 1109.39 1038.39 1111.43 1043.11 C 1108.83 1048.09 1108.59 1047.36 1112.02 1052.83 C 1114.23 1050.82 1114.05 1047.91 1114.93 1044.28 C 1116.29 1052.21 1115.39 1062.97 1115.69 1071.21 C 1116.4 1090.82 1117.05 1109.13 1114.54 1128.74 C 1113.32 1138.27 1110.5 1143.62 1109.3 1152.65 C 1108.81 1156.36 1109.86 1159.18 1112.58 1161.78 C 1123.62 1166.73 1135.31 1153 1142.9 1155.7 C 1142.57 1156.38 1142.24 1157.06 1141.91 1157.74 C 1139.76 1158.9 1138.73 1159.58 1136.19 1159.76 C 1132.22 1160.03 1129.56 1164.17 1126.37 1165.92 C 1114.93 1172.22 1110.28 1167.14 1106.05 1157.43 C 1113.35 1130.02 1117.19 1106.38 1114.29 1077.63 C 1113.04 1065.2 1106.33 1054.19 1105.14 1041.55 C 1104.87 1038.74 1101.82 1035.14 1102.1 1032.16 C 1102.4 1027.11 1104.79 1020.7 1106.32 1015.79 L 1106.29 1015.75 L 1103.42 1018.23 C 1102.92 1017.84 1102.41 1017.46 1101.91 1017.07 C 1109.98 1007.17 1124.55 996.732 1136.02 991.228 z"/><path transform="translate(0,0)" fill="rgb(0,100,62)" d="M 453.747 1198.69 C 474.07 1181.91 472.148 1171.71 476.879 1146.22 C 478.318 1138.47 471.674 1118.87 467.191 1113.05 L 467.78 1112.13 C 480.062 1113.66 489.214 1112.61 501.333 1110.37 C 508.943 1108.96 511.92 1110.39 516.244 1103.13 L 515.715 1101.36 C 499.734 1095.56 493.355 1101.44 477.594 1104.93 C 473.789 1105.77 472.739 1107.44 468.069 1107.05 L 467.482 1105.7 C 472.613 1101.87 522.752 1089.72 520.553 1107.4 C 515.29 1111.8 505.517 1109.5 502.871 1111.03 C 493.837 1116.26 479.128 1112.44 471.595 1115.55 C 471.907 1119.53 478.991 1139.09 480.749 1144.34 L 480.563 1144.16 L 482.698 1150.15 L 483.402 1150.04 L 484.353 1147 L 486.429 1146.55 L 487.443 1147.46 L 486.45 1151.75 C 490.906 1153.43 488.344 1148.69 491.395 1153.5 C 491.359 1157.04 491.883 1155.47 489.685 1158.34 C 480.932 1161.66 479.002 1160.75 474.296 1171.22 C 468.717 1183.62 468.928 1189.57 456.862 1197.86 L 453.741 1199.99 L 453.747 1198.69 z"/><path transform="translate(0,0)" fill="rgb(0,100,62)" d="M 1073.68 1562.55 C 1075.14 1561.6 1076 1561.82 1078.03 1561.56 C 1079.83 1562.38 1081.58 1563.07 1082.13 1565.4 C 1083.74 1572.3 1077.13 1599.39 1074.86 1605.08 L 1074.31 1604.53 C 1070.9 1592.74 1064.35 1576.46 1059.8 1564.92 C 1065.18 1565.07 1069.68 1565.9 1073.68 1562.55 z"/><path transform="translate(0,0)" fill="rgb(0,60,34)" d="M 571.28 1359.76 C 571.565 1364.63 572.795 1369.43 573.055 1374.29 C 573.821 1388.64 571.249 1402.42 567.285 1416.14 C 565.934 1420.82 566.53 1422.55 564.489 1427.95 C 562.411 1423.44 560.897 1393.81 561.336 1387 C 561.872 1378.69 564.563 1365.6 571.28 1359.76 z"/><path transform="translate(0,0)" fill="url(#Gradient1)" d="M 715.314 356.344 C 712.899 351.582 694.061 342.36 687.985 341.322 C 684.8 340.778 674.419 339.382 672.804 338.063 C 675.396 332.507 690.111 335.36 695.302 336.374 C 708.974 339.044 722.095 348.544 734.381 354.714 C 734.594 356.336 734.654 358.332 735.365 359.667 C 730.032 359.911 720.269 358.52 715.314 356.344 z"/><path transform="translate(0,0)" fill="rgb(0,100,62)" d="M 462.681 1206.87 C 466.495 1200.57 490.681 1199.7 495.133 1193.21 C 492.319 1191.45 492.381 1191.57 490.261 1189.06 C 489.08 1183.98 491.283 1180.39 493.775 1176.02 L 495.053 1175.84 C 496.412 1179.12 496.269 1185.29 496.41 1189.09 C 498.109 1187.95 508.164 1171.12 508.871 1168.11 C 510.645 1160.57 509.454 1144.41 507.08 1136.53 C 505.438 1131.09 504.05 1127.9 504.832 1122.54 C 508.846 1120.89 511.11 1122.25 515.067 1123.39 C 535.492 1129.27 550.294 1141.43 553.038 1163.53 C 553.809 1169.74 551.892 1177.52 545.561 1180.44 L 543.585 1179.32 C 556.88 1170.72 551.045 1156.16 544.413 1144.98 C 535.639 1130.19 520.088 1127 504.616 1122.93 C 511.222 1139.92 515.169 1156.08 508.244 1174.34 C 505.34 1181.99 500.521 1183.67 497.714 1192.77 L 498.066 1194.02 C 490.231 1200.81 476.139 1200.04 464.715 1207.03 L 462.681 1206.87 z"/><path transform="translate(0,0)" fill="rgb(0,100,62)" d="M 1343.8 1753.63 C 1351.24 1757.51 1398.77 1799.44 1406.54 1807.25 C 1405.78 1807.13 1405.02 1806.99 1404.27 1806.84 C 1386.29 1802.91 1353.69 1770.42 1343.8 1753.63 z"/><path transform="translate(0,0)" fill="rgb(0,86,53)" d="M 842.606 1652.95 C 850.9 1655.29 856.485 1650.01 865.181 1645.66 C 860.751 1662.87 853.822 1672.33 840.76 1684.35 C 841.23 1676.87 841.474 1658.83 842.606 1652.95 z"/><path transform="translate(0,0)" fill="rgb(0,100,62)" d="M 1254.26 768.684 C 1258.23 768.166 1257.97 768.528 1260.27 771.556 C 1269.51 783.693 1299.29 802.898 1305.69 816.013 C 1298.21 821.163 1293.12 806.324 1280.33 822.57 C 1276.63 823.771 1271.89 823.824 1270.47 819.409 C 1273.27 818.007 1272.26 818.421 1275.5 818.001 L 1275.79 816.961 C 1264.89 810.419 1238.78 814.405 1227.03 818.253 L 1224.29 817.608 C 1244.43 808.411 1281.04 811.529 1302.51 815.397 C 1290.12 799.264 1269.78 783.978 1254.24 770.294 L 1254.26 768.684 z"/><path transform="translate(0,0)" fill="rgb(0,60,34)" d="M 1109.01 1354.64 C 1124.29 1366.99 1127.19 1364.87 1139.87 1383.53 C 1130.95 1384.01 1117.83 1377.55 1108.81 1374.24 C 1108.93 1367.71 1109 1361.18 1109.01 1354.64 z"/><path transform="translate(0,0)" fill="rgb(0,100,62)" d="M 658.712 1768.02 C 646.396 1779.79 623.936 1791.51 611.323 1802.7 C 609.39 1801.26 608.726 1799.32 607.458 1797.03 C 622.309 1782.27 638.635 1774.03 658.712 1768.02 z"/><path transform="translate(0,0)" fill="rgb(0,6,3)" fill-opacity="0.00784314" d="M 1283.72 1005.12 L 1284.06 1005.28 L 1284.04 1006.41 C 1262.29 1025.38 1248.55 1036.56 1222.06 1049.88 L 1221.41 1049.12 C 1229.13 1040.04 1273.13 1011.17 1283.72 1005.12 z"/><path transform="translate(0,0)" fill="rgb(0,60,34)" d="M 895.075 1313.5 C 896.268 1306.4 896.112 1307.13 901.251 1303.29 L 902.237 1304.06 C 910.781 1310.61 918.252 1311.44 923.699 1315.82 C 922.613 1318.58 921.483 1319.7 919.654 1321.97 C 913.429 1323.87 900.604 1316.64 895.075 1313.5 z"/><path transform="translate(0,0)" fill="rgb(0,6,3)" d="M 1410.13 640.755 C 1395.48 649.414 1375.71 659.369 1360.19 666.98 C 1356.91 662.03 1356.98 666.511 1353.63 661.155 C 1367.47 655.74 1396.5 644.338 1410.13 640.755 z"/><path transform="translate(0,0)" fill="rgb(0,60,34)" d="M 803.094 416.427 C 805.236 415.862 804.429 415.989 806.712 416.256 C 802.118 425.507 784.082 427.189 774.86 425.656 C 770.818 424.879 771.268 425.622 768.889 423.209 L 769.146 421.371 C 773.585 417.946 796.479 417.053 803.094 416.427 z"/><path transform="translate(0,0)" fill="rgb(0,60,34)" fill-opacity="0.0156863" d="M 1314.24 1037.07 L 1314.39 1038.41 C 1303.33 1053.76 1280.98 1078.98 1263.84 1086.61 L 1263.92 1085.09 C 1278.25 1073.54 1300.82 1050.51 1314.24 1037.07 z"/><path transform="translate(0,0)" fill="rgb(0,60,34)" d="M 1206.69 1029.25 C 1206.83 1022.29 1210.76 1020.94 1210.26 1016.44 C 1197.71 1019.57 1166.41 1013.29 1153.9 1007.39 L 1154.41 1006.27 L 1157 1007.43 L 1158.74 1006.7 C 1175.7 1013.94 1197.46 1015.93 1214.87 1010.39 C 1213.82 1016.93 1209.63 1023.74 1207.13 1030.39 L 1206.69 1029.25 z"/><path transform="translate(0,0)" fill="rgb(0,6,3)" d="M 1010.88 143.061 C 1018.06 145.293 1029.58 148.502 1036.06 151.581 C 1027.14 153.728 1017.31 153.904 1008.09 154.413 C 1008.04 149.488 1006.94 146.001 1010.88 143.061 z"/><path transform="translate(0,0)" fill="rgb(0,60,34)" d="M 567.283 1328.28 C 570.448 1327.61 572.11 1327.66 575.078 1328.85 C 575.007 1336.6 552.239 1368.53 549.269 1377.84 C 547.937 1382.01 547.427 1393.12 546.785 1398.23 L 546.583 1401.61 L 546.137 1401.39 C 544.974 1375.71 551.907 1368.32 564.346 1347.26 C 567.479 1341.96 571.596 1333.85 567.283 1328.28 z"/><path transform="translate(0,0)" fill="rgb(0,60,34)" d="M 866.532 333.22 C 866.526 340.038 855.39 350.062 848.389 346.902 C 848.255 338.238 859.863 335.391 865.095 329.559 C 865.502 330.709 865.936 332.241 866.532 333.22 z"/><path transform="translate(0,0)" fill="rgb(0,6,3)" d="M 996.786 1421.39 C 1010.45 1427.34 1024.81 1432.89 1037.07 1441.29 C 1021.27 1435.74 1008.88 1431.54 992.569 1427.39 C 993.997 1425.55 995.447 1423.33 996.786 1421.39 z"/><path transform="translate(0,0)" fill="rgb(0,60,34)" d="M 779.079 443.534 C 778.312 443.03 766.025 432.888 763.545 431.002 L 764.634 430.271 C 778.16 432.364 786.62 440.781 797.966 441.064 L 799.517 441.095 C 793.459 442.241 782.864 441.913 779.079 443.534 z"/><path transform="translate(0,0)" fill="rgb(0,60,34)" d="M 887.241 1297.36 C 894.348 1302.12 897.144 1299.22 901.251 1303.29 C 896.112 1307.13 896.268 1306.4 895.075 1313.5 C 891.342 1311.7 887.931 1310.41 884.948 1307.58 L 885.874 1306.09 C 885.474 1301.43 885.443 1301.69 887.241 1297.36 z"/><path transform="translate(0,0)" fill="rgb(0,6,3)" d="M 727.509 698.846 C 739.151 696.608 744.412 700.215 755.152 705.115 C 747.606 705.749 737.21 705.582 730.691 706.477 L 729.755 705.77 C 729.233 702.233 728.959 702.004 727.509 698.846 z"/><path transform="translate(0,0)" fill="rgb(0,6,3)" fill-opacity="0.0196078" d="M 1040.6 491.629 C 1048.9 503.031 1051.46 510.508 1056.34 523.784 C 1053.24 519.627 1040.71 504.465 1038.99 501.702 C 1040 498.55 1040.21 494.985 1040.6 491.629 z"/><path transform="translate(0,0)" fill="rgb(0,6,3)" d="M 1282.49 1292.83 C 1276.02 1284.9 1267.33 1275.47 1260.37 1267.83 C 1268.66 1273.67 1277.34 1277.88 1286.33 1282.53 L 1285.69 1284.19 C 1282.88 1283.06 1282.62 1282.58 1280.37 1280.63 L 1279.73 1281.66 C 1280.77 1285.68 1281.84 1288.68 1282.49 1292.83 z"/><path transform="translate(0,0)" fill="rgb(0,60,34)" d="M 844.361 417.201 C 846.896 417.041 845.63 416.946 848.17 418.242 L 847.239 417.249 L 847.909 418.979 C 843.321 425.329 833.851 425.231 826.767 425.407 L 823.881 424.636 L 823.658 423.571 C 828.144 420.717 838.871 418.46 844.361 417.201 z"/><path transform="translate(0,0)" fill="rgb(0,60,34)" d="M 924.339 1247.28 C 934.698 1248.43 941.794 1249.55 952.007 1251.57 L 952.311 1252.86 C 946.92 1254.63 928.525 1253.77 924.284 1249.95 L 924.339 1247.28 z"/><path transform="translate(0,0)" fill="rgb(0,60,34)" d="M 464.715 1207.03 C 458.95 1209.74 451.612 1213.73 445.759 1209.56 L 445.856 1207.14 C 447.974 1203.43 450.567 1201.54 453.747 1198.69 L 453.741 1199.99 L 452.429 1203.01 C 454.794 1206.89 458.06 1209.06 462.681 1206.87 L 464.715 1207.03 z"/><path transform="translate(0,0)" fill="rgb(0,6,3)" d="M 1446.78 922.972 C 1449.74 914.909 1455.01 903.825 1458.4 895.213 C 1457.2 901.718 1456.48 905.794 1455.97 912.428 C 1454.08 919.362 1453.08 919.91 1446.78 922.972 z"/><path transform="translate(0,0)" fill="rgb(0,60,34)" d="M 611.323 1802.7 C 609.16 1806.64 606.329 1808.65 601.994 1807.2 L 601.187 1804.94 C 601.981 1801.35 604.64 1799.64 607.458 1797.03 C 608.726 1799.32 609.39 1801.26 611.323 1802.7 z"/><path transform="translate(0,0)" fill="rgb(0,6,3)" d="M 339.794 923.417 C 346.567 920.995 353.554 918.383 360.346 916.09 C 355.574 919.948 350.759 923.763 346.155 927.819 L 339.794 923.417 z"/><path transform="translate(0,0)" fill="rgb(0,6,3)" fill-opacity="0.952941" d="M 519.654 923.606 L 534.254 909.714 C 531.369 915.21 528.384 920.652 525.3 926.039 L 519.654 923.606 z"/><path transform="translate(0,0)" fill="rgb(0,86,53)" fill-opacity="0.0196078" d="M 1135.82 705.05 C 1142.02 703.351 1144.66 702.696 1151.13 701.881 L 1150.95 705.295 C 1146.48 705.877 1140.44 705.297 1135.82 705.05 z"/><path transform="translate(0,0)" fill="rgb(0,60,34)" d="M 684.939 353.128 C 680.958 352.198 677.208 351.726 674.576 348.919 L 675.841 348.196 C 680.126 348.781 680.503 348.923 684.529 350.616 L 684.939 353.128 z"/><path transform="translate(0,0)" fill="rgb(0,86,53)" fill-opacity="0.0392157" d="M 1055.11 405.549 C 1059.31 403.496 1060.37 402.66 1064.88 402.196 C 1061.98 404.103 1056.85 407.724 1053.99 409.264 L 1055.11 405.549 z"/><path transform="translate(0,0)" fill="rgb(0,60,34)" fill-opacity="0.0705882" d="M 1090.74 1269.04 C 1088.46 1271.79 1087.62 1273.27 1084.39 1274.85 C 1084.67 1272.21 1087.43 1269.6 1089.36 1267.15 L 1090.74 1269.04 z"/><path transform="translate(0,0)" fill="rgb(0,100,62)" fill-opacity="0.0196078" d="M 928.669 701.972 L 932.295 702.792 C 932.257 706.14 932.446 706.729 931.367 709.947 C 929.55 707.668 929.404 705.074 928.669 701.972 z"/><path transform="translate(0,0)" fill="rgb(0,60,34)" d="M 1153.42 260.187 C 1156.7 264.27 1155.24 264.539 1153.32 269.189 L 1152.71 269.403 C 1151.69 266.434 1152.78 263.664 1153.42 260.187 z"/><path transform="translate(0,0)" fill="rgb(0,100,62)" fill-opacity="0.0509804" d="M 622.285 713.953 C 624.983 714.043 627.454 713.777 629.676 715.13 C 626.29 716.427 624.944 716.422 621.414 716.808 L 622.285 713.953 z"/><path transform="translate(0,0)" fill="rgb(0,60,34)" d="M 1502.23 1657.79 C 1504.54 1659.34 1504.49 1659.51 1506.24 1661.75 L 1505.69 1662.68 C 1502.75 1661.74 1502.3 1660.55 1500.48 1658.01 L 1502.23 1657.79 z"/><path transform="translate(0,0)" fill="rgb(0,6,3)" d="M 1535.61 1491.1 C 1540.86 1496.29 1544.53 1498.65 1550.6 1502.84 C 1543.85 1501.04 1538.02 1499.7 1531.63 1496.81 L 1535.61 1491.1 z"/></svg>