<?xml version="1.0" encoding="UTF-8"?><svg id="Layer_2" xmlns="http://www.w3.org/2000/svg" viewBox="0 0 4998.75 4777.08"><defs><style>.cls-1{fill:#030303;}.cls-2{fill:#982440;}.cls-3{fill:#fefefe;}</style></defs><g id="Layer_1-2"><g id="NLaIpZ"><path d="M4469.28,2679.05c-75.96-35.54-150.67-75.15-241.49-94.09l121.33-89.73,153.8,82.98c-119.83-203.85-353.01-321.16-587.46-289.49-86.81,11.73-157.98,60.36-229.69,104.99l120.61,27.86c86.72,20.03,160.01,72.9,215.03,142.78l-127.19,30.99c-88.04-81.11-239.28-117.74-358.69-109.67,9.61,41.64,7.46,91.94,36.08,122.01l74.9,78.72c-28.63,17.29-60.02,27.41-81.02,57.61,38.96,64.39,78.91,114.02,137.69,160.44-22.89,31.27-35.24,64.54-32.81,99.76,69.98-7.17,136.47-10.75,208.87,3.58l-65.32,131.44c70.63-37.48,140.94-66.98,214.75-93.14,14.38-17.88-1.8-47.86-10.63-65.77-51.92-105.26-131.92-186.15-244.19-232.72,88.82-84.19,203.72-115.85,324.03-113.12,116.72,2.64,221.7,41.42,327.23,89.11,184.03,83.18,336.55,224.73,444.58,399.16,75.9,122.56,124.61,254.59,128.7,401.27,6.8,243.74-82.3,475.92-242.39,658.36-164.34,187.28-425.78,359.46-689.77,336.28l93.92-85.57c-219.41-57.11-372.93-182.92-535.23-326.82l77.68-11.5c-69.78-75.16-125.67-152.04-160.3-254.07-31.02,20.39-76.88,31.41-98.86,62.14-62.95,88.02-122.37,171.71-192.39,255.83-201.48,242.05-478.56,483.73-768.29,618.4-329.26-131.49-662.27-407.23-851.17-707.35-45.4-72.13-82.97-142.73-101.97-224.53l-73.92-40.47c-33.26,110.88-88.77,204.15-172.25,286.86l77.43,13.38c-154.48,146.35-329.34,274.28-534.78,328.55l92.63,85.78c-313.63,23.31-623.81-217.44-789.02-459.81-76.35-112.01-121.93-234.9-128.64-371.17-20.52-416.48,253.24-771.5,611.69-950.4,201.16-100.39,448.49-122.09,628.1,43.14-101.84,62.44-194.48,123.83-272.76,208.6-14,15.16-29.25,49.27-6.43,58.95l123.16,52.24c46.79,19.85,83.65,59.7,135.96,83.2-10.65-50.2-48.8-80.3-69.22-131.46,51.4-13.17,105.72-5.84,160.52-1.47.27-37.81-13.34-71.8-27.76-107.16,18.78-18.62,42.08-28.3,60.78-43.07,15.16-11.98,3.28-25.1,1.61-38.62-14.05-113.82-17.09-228.76,6.72-344.03,5.98-35.3,27.39-59.95,67.38-68.75,14.91-138.17,51.48-267.41,88.52-404.57-209.61,21.8-405.96-9.23-585.44-91.89,97.4-25.95,180.45-48.32,257.7-97.24,84.41-53.45,155.64-124.68,181.94-223.42,7.97-29.92,33.46-45.67,9.84-87.36-14.43-25.48-19.18-102.13-67.35-150.74-102.99-209.31-39.04-465.71,179.27-586.36-7.02,52.8-21.58,101.48-10.74,152.62,38.97-125.59,108.23-228.37,214.98-300.53,61.86-117.2,145.38-213.24,246.38-300.12,111.28-95.72,368.9-256.63,514.07-242.23,240.38-124.55,506.79-143.42,767.83-88.38,73.8,15.56,137.98,57.96,208.13,72.55,54.12,11.25,111.39-8.69,172.32,9.69,303.55,91.54,598.92,302.65,726.61,601.78,286.5,170.32,457.71,553.67,507.47,869.47,5.28,33.54-56.77,71.69-38.98,110.88,107.12,235.93,127.75,489.83,127.85,746.14.03,77.91-67.13,86.1-132.32,119.79,34.77,111.99,21.77,224.05-24.38,326.57-92.43-84.8-184.65-155.34-295.24-207.09ZM3428.69,436.06c4.37,35.72,19.38,76.15-.39,112.02-76.68,139.08-273.78,142.06-413.57,89.56l-122.75-46.1-4.83,85.19c69.12,29.96,137.09,52.3,211.24,66.3,124.49,23.51,253.73-9.56,344.33-96.68,74.23-71.38,88.23-179.62,42.84-268.18-32.71-63.83-62.96-153.58-130.08-193.41-190.59-113.1-555.93-125.04-761.24-21.87,129.99,56.73,216.18,145.16,268.25,271.6,2.74-89.87-37.63-164.39-90.69-238.21,176-51.66,368.65-35.68,539.18,29.97,54.82,61.4,84.83,135.59,117.72,209.82ZM4119.95,774.78c5.46,37.75,8.94,76.65-22.4,111.19-33.87,37.33-82.83,88.24-137.81,90.87-105.14,5.04-310.57-189.15-383.68-266.17l-61.65,59.83c68.83,83.36,257.86,262.12,355.66,282.31,88.84,18.34,184.16-15.52,248.22-78.11,68.11-66.55,92.56-158.88,81.84-251.33-3.53-30.48-24.45-51.38-37.65-73.33-127.05-211.27-347.13-368.38-583.1-442.83-14.6-4.61-30.77-.32-36.2,6.31-6.02,7.36-7.16,26.73-1.04,36.84,32.08,52.96,61.65,104.02,81.12,163.22,54.41,165.5-33.92,240.65-9.4,257.46,5.73,3.93,13.27,1,19.62-5.81,74.21-79.59,68.28-194.08,47.34-297.27,199.44,65.27,364.98,186.67,426.8,392.1,2.32,7.7,7.11,13.11,12.33,14.7ZM2658.82,417.6c80.86,116.36,68.98,270.88-35.07,373.26-47.25,46.48-108.31,71.12-170.38,89.64l53.27,103.32c171.05-92.39,290.66-263.83,259.72-463.43-14.03-90.5-62.94-155.76-130.48-203.7-68.74-48.79-144.15-87.8-233.51-106.18-214.87,67.73-409.18,195.52-550.81,378.74,101.93-13.57,195.04-10.09,283.91,32.12,64.43,22.03,112.75,64.99,176.32,99.08-55.94-84.19-136.01-141.57-219.39-195.41,92.91-95.03,198.06-166.27,318.05-225.21,91.71,25.56,162.79,93.06,199.7,180.39,9.88,16.89,11.33,36.07,26.84,52.74,15.01-49.49-4.86-93.51-22.49-145.07,19.91,3.11,27.35,23.9,44.3,29.71ZM2062.65,1552.71c-51.83,34.67-104.45,56.75-163.99,61.47-6.51.52-6.63-11.85-6.06-15.25.6-3.58,10.37-3.18,14.23-7.22,162.49-169.75,268.15-390.5,180.53-625.39-9.35-25.05-19.1-47.54-25.61-76.27,85.48,38.43,156.12,93.78,210.55,166.96,97.29,130.83,96.65,305.71-8.21,430.59,13.82,31.3,12.82,59.73,17.96,91.81,139.45-132.65,181.27-331.11,122.95-508.88-48.96-149.25-146.32-277.91-286.3-347.95-145.74-72.92-307.18-45.59-427.33,62.16-117.27,105.16-160.75,299.52-130.43,462.86-81.53-31.14-135.53-98.46-167.37-181.28-73.75,228.87,65.91,353.72,83.21,472.74,17.25,118.69-36.99,232.01-125.45,309.44-39.51,34.59-82.03,54.75-124.96,84.1,297.46,60.14,624.69-68.32,819.34-282.22,54.65-60.05,94.06-127.64,111.82-206.27-33.9,35.29-53.31,80.79-94.89,108.61ZM3007.62,2164.59c57.16-111.37,94.23-216.05,118.67-333.31,79.2,64.94,142.19,135.37,196.06,217.88,58.98,95.96,103.71,194.46,138.75,307.69,134.84-80.2,266.9-149.89,412.54-205.03,8.74-151.06,58.05-289.35,127.84-422.04-76.19-89.83-130.67-184.88-164.83-293.51-34.05-90.99-49.16-182.48-49.36-282.25-152.06-94.65-255.93-199.15-384.04-331.68-195.67,70.92-357.81,30.61-546.43-41.18-71.23,151.93-172.05,243.74-317.07,323.02,28.31,246.49-7.45,452.72-201.79,616.41-103.21,86.93-221.27,147.12-351.75,191.29,13.14-32.1,34.18-55.21,38.59-91.65-64.08,43.78-117.79,89.4-187.21,126.33-11.43,94.47-8.36,191.43,17.71,283.61,60.64-37.11,104.32-74.67,161.5-101.32,238.88-134.33,518.39-153.63,775.71-60.21,75.28,27.33,141.86,59.37,215.09,95.95ZM4607.08,1624c37.75-23.79,95.69-64.17,86.39-109.59-49.31-240.85-169.42-504.12-365.79-669.2-15.42,35.6-20.7,71.7-34.17,108.08-43.07,116.26-124.67,158.5-118.62,178.64,1,3.33,4.27,12.98,10.59,10.91,75.59-24.74,122.77-80.3,164.09-152.09,175.42,191.65,251.19,373.28,257.51,633.25ZM4236.29,1554.19l-55.78-218.23c-18.28-63.72-33.44-123.84-63.39-187.67-65.53,31.53-129.42,42.63-199.92,47.11,17.7,171.67,81.92,326.01,190.77,453.02,67.85,32.67,136.31,57.02,212.61,57.46-42.85-46.89-69.16-92.48-84.29-151.7ZM4718.48,2321.23c-1.35,34.56-5.01,64.63-.7,99.58,22.9,2.94,74.31-3.58,80.95-33.24,15.32-220.41-22.55-439.91-101.05-647.16-86.59,60.73-176.76,93.18-277.39,103.57-10.95,1.13-9.11,24.93-3.1,30.77,80.87,12.3,158.15-.79,238.45-34.79,50.38,156.21,69.25,317.58,62.84,481.26ZM4265.21,2206.52c55.92-117.81,80.5-234.43,79.57-357.98-82.44-1.31-155.26-17.66-231.59-36.84-48.48,89.62-78.7,181.68-91.93,281.76,2.22,16.95.27,50.37,19.77,57.36,72.94,26.17,147.78,41.55,224.18,55.7ZM1533.21,2641.57c-2.18,12.49,8.29,26.87-6.97,40.46-19.42-29.58-37.31-54.7-56.99-78.51-11.95-14.45-13.12-40.22-36.64-49.63-21.18,123.67-12.5,248.06,43.65,359.23,8.43,16.68,25.33,12.49,36.93,19.08,22.21,12.62,38.66,23.37,77.45,26.76-22.4-60.75,22.61-126.97,12.03-182.64-4.98-26.21-82.46-100.9-7.61-206.85,12.83,8.74,27.71,21.53,38.03,35.17,25.96,34.31,54.07,61.63,82.47,94.72,140.26,163.45,410.19,449.41,591.63,553.66,24.81,14.25,45.49,17.4,71.79,6.98,219.43-86.98,488.94-300.32,671.99-453.67,58.31-48.85,110.17-95.22,170.75-140.84,9.07-6.83,36.91-19.96,45.35-7.51,33.3,49.09,21.12,113.38-20.9,152.2-8.54,7.89-14.51,19.77-11.53,31.18l24.93,95.42c51.05-38.63,114.78-63.08,156.52-108.45,59.75-111.21,47.23-247.9,3.5-364.47-31.48,50.73-53.99,97.69-102.76,134.61,3.21-211.81-14.22-411.08-140.6-596.07-29.08,231.45-190.81,489.99-367.89,634.96-74.46,56.61-148.54,113.97-245.45,136.82,145.85-163.85,276.4-324.76,391.98-512.72-286.43-186.44-589.99-201.46-887.67-30.5-21.2,121.4-70.23,256.52-21.46,367.15l71.38,161.93c-52.91-30.37-98.13-76.51-142.16-119.07-7.22-6.98-10.45-21.5-19.29-31.97-145.23-171.92-234.24-375.49-269.46-599.49-26.04,4.15-48.38,9.5-73.27,19.89-82.26,217.74-92.63,384.49-79.73,612.17ZM1964.45,2483.08l12.51-191.06c-34.62,19.4-57.13,42.69-85.21,68.41,19.04,45.22,41.63,86.51,72.7,122.65ZM4690.59,3934.08c-18.88-24.41-22.23-56.74-35.68-87.46-42.39-96.8-91.29-187.76-144.9-278.2l-96.03,45.07c-28.72-83.04-36-163.55-43.02-246.87-35.81,38.23-68.41,70.39-112.19,101.41l-14.35-147.24-93.67,20.71c-14.94-46.23-13.91-94.38-21.56-145.72-53,14.37-99.75,34.91-148.82,57.81-13.02,142.45,45.51,294.59,174.26,364.79l74.7-32.05c16.89,58.03,30.42,111.95,55.81,168.93,24.65-22.64,40.09-45.97,65.61-62.93,55.98,21.18,101.23,55.56,148.13,91.38,91.02,69.5,146.32,165.41,164.09,282.71,17.55-27.07,16.06-54.03,27.86-83.96,120.47-90.68,169.78-316.65,158.5-463.79-12.94-168.9-79.19-324.54-182.88-457.26-52.65-67.39-109.89-129.06-180.43-177.72-119.43-82.4-340.84-155.51-485.4-139.35l325.53,199.85c-15.93,50.27-63,64.07-116.92,70.83,102.4,48.75,152.37-3.8,241.13-23.06,218.4,199.47,337.24,438.27,311.29,739.62-6.51,75.61-24.86,146.16-71.06,202.52ZM297.03,3988.43c9.87,24,11.15,50.64,26.02,78.22,25.8-84.35,33.35-150.85,99.88-223.36,60.11-65.5,132.01-117.18,213.32-152.5l63.08,61.92c26.32-51.65,40.16-107.07,55.4-164.68,24.11,10.8,44.85,24.5,74.2,33.09,134.13-81.96,184.86-212.01,174.09-366.48-47.37-25.88-93.63-41.82-145.99-58.56-8.47,48.07-9.5,95.52-23.63,144.49l-89.29-19.2-18.6,145.09c-43.81-26.53-76.41-61.87-114.67-99.62-2.42,83.88-13.3,165.82-39.36,246.77l-98-44.51c-52.75,88.56-99.88,178.11-139.91,273.86-13.6,32.54-14.49,67.42-35.99,96.01-27.6-36.75-53.31-82.47-62.44-131.71-59.55-321.08,88.11-597.74,319.15-807.68,76.08,28.88,148.64,57.28,213.71,18.15-46.5-7.83-86.24-23.69-98.66-67.7,108.46-81.86,227.75-140.16,352.6-190.67-171.5-27.39-395.77,41.78-527.25,148.3-170.87,138.44-294.62,323.13-339.26,540.63-37.93,184.8-.6,414.9,141.59,540.15ZM1872.5,3146.72l-12.03-142.94c-3.87-46.02-58.31-73.94-90.56-110.34-33.48,99.18-24.97,209.85,31.23,298.67,56.7,89.61,163.53,141.88,264.68,106.26-100.13-4.84-185.38-57.24-193.32-151.66ZM1500.4,3012.62c-9.27-9.41-41.65-31.98-52.41-16.43-23.36,34.4-21.55,82.26-26.99,123.9-15.42,118.07,14.19,232.46,85.42,327.11,3.3,4.39,5.06,11.57,13.28,13.11-.11-36.62-15.06-135.87,12.69-155.65,87.58-62.45,386.94,184.46,453.4,257.71,22.53,66.66,33.52,122.82,104.72,148.32,1.32-31.95-15.2-67.38.13-95.32,12.45-22.69,46.41-7.28,60.7,7.53,76.95,79.78,137.15,248.65,214.84,177.89,49.71-45.28,92.98-93.87,139.85-142.21,27.36-28.22,76.29-73.12,112.26-45.39,9.2,7.09,12.39,21.75,9.56,35.81l-11.97,59.48c82.17-10.17,105.33-131.93,130.13-151.31,144.13-112.64,385.05-250.3,569.87-268.09,31.68-3.05,53.58,11.73,60.98,41.7,7.97,32.25,3.87,62.7,4.15,98.75,61.07-49.7,112.48-109.16,134.18-185.64,30.2-106.44,15.98-218.26-27.46-318.64-5.34-12.33-19.9-15.97-30.86-9.83-77.82,43.62-150.51,89.07-223.69,141.65-44.38,191.07-250.85,327.5-432.84,359.35-84.67,14.82-161.05-5.59-232.95-54.23-1.24,50.49-5.98,94.67-30.23,129.53-14.55-32.15-24.92-80.05-59.89-90.95-34.57-10.77-73.34-5.78-109.01-11.49-52.17-8.35-105.31,5.17-157.29,9.67l-45.24,100.24c-22.69-41.41-23.69-82.66-27.23-130.69-78.21,48.19-161.81,55.75-239.05,15.32-136.94-71.69-242.62-174.9-291.41-326.02-33.39-19.02-67.67-35.64-107.64-45.18ZM2673.95,3269.93c55.12,52.09,138.22,60.62,209.6,35.37,157.38-55.67,219.15-220.66,161.07-377.94-51.76,38.37-99.17,74.31-145.29,115.65-14.71,13.19-17.15,34.35-11.51,49.18,12.56,33.03,48.76,31.16,82.87,24.89-8.64,87.16-69.52,161.27-156.74,176.51-48.74,8.52-87.17-13.55-140-23.67ZM3666.19,3755.2c-22.3-83.59-30.35-167.79-17.59-250.92,7.8-50.82,41.33-90.61,70.1-133.64,16.29,28.35,15.97,55.69,38.65,80.93l147.39-303.77c-114.27,19.49-252.13,208.96-302.52,302.04-14.94,27.59-4.88,68.48-6.81,98.96-8.23,129.81,32.93,253.08,109.8,352.66l-39.02-146.25ZM1223.59,3340.7c36.75-10.98,102.36,116.68,108.71,157.55,16.34,105.14.72,210.16-28.26,311l-28.43,98.9c56.84-71.46,95.38-151.69,107-245.05,30.25-242.96-6.14-230.44-138.13-398.13-24.69-31.36-52.6-50.97-83.06-68.97-26.66-15.76-51.97-35.43-87.72-41.73l153.89,302.72c9.68-2.37,14.23-20.27,12.02-31.89l-16.03-84.4ZM2729.78,4023.14c93.83-32.72,167.59-79.27,237.93-136.1,141.52-119.62,219.96-295.95,204.02-484.47-122.77,47.78-231.31,112.88-337.01,189.48,5.9,101.41-7.53,195.94-45.23,286.96l-59.7,144.13ZM1929.04,3824.9c-22.39-73.9-30.08-144.22-19.69-219.37-75.38-74.82-156.51-139.72-253.03-197.83-18.16,133.25,14.67,262.59,80.93,378.6,62.52,109.46,159.8,189.81,274.64,238.83-32.52-69.32-62.88-128.97-82.85-200.23ZM4079.09,3762.65c-41.17,1.59-81.47,10.21-127.56,22.06,52.3,184.75,151.27,347.58,299.79,478.56-154.45-.45-341.89-156.47-420.92-283.91-7.49,6.51-22.78,21.72-21.97,35.37,76.45,151.37,208.25,263.6,369.45,315.18,26.41,8.45,51.7,13.87,76.3,13.3,107.96-2.53,207.09-53.27,281.47-124.47-46.68,3.17-82.29-.66-124.67-8.99,11.93-30.51,27.93-55.18,34.39-89.54l-122.9,3.03-3.73-158.78-141.02-4.47-33.67-196.54c-20.9-6.15-40.88-2.21-64.95-.79ZM725.86,4343.01c18.36,2.91,36-2.07,56.15-7.35,165.36-43.32,301.04-149.4,382.45-298.75,12.01-22.04,14.49-44.89-7.74-59.97-74.54,126.13-271.63,290.73-420.38,285.81,152.97-135.08,237.59-284.69,296.34-476.53-42.87-13.87-83.24-20.19-129.44-22.07-19.28-.79-39.17-3.42-62.17.56l-34.3,193.03-141.05,7.24-3.22,157.19-120.92-1.66c2.8,31.79,17.76,55.07,30.84,87.04-37.32,13.39-75.46,10.69-117.62,16.03,74.04,71.62,167.91,111.46,271.06,119.43ZM2624.23,3979.61l-198.14,96.19c-8.8,120.05,1.98,232.83,42.02,353.18,235.33-132.18,468.05-259.05,693.05-406.09,24.14-15.78,182.9-188.32,147.71-211.61-6.62-4.38-24.46-6.5-32.83,1.36-84.22,79.16-167.27,155.61-265.89,218.09-95.55,60.53-194.44,106.28-302.27,138.91-28.89,8.74-116.82,30.54-132.38,9.11-22.98-31.66,41.69-157.07,48.72-199.14ZM2318.37,4078.39l-205.14-101.04c10.5,31.12,80.98,184.16,51.03,202.17-22.82,13.73-59.14,5.65-85.8-3.85-156.87-55.87-291.53-155.9-395.46-284.51-5.04-6.24-17.54.79-20.02,5.08-2.48,4.29-6.82,15.53-1.3,22.85,33.97,45.05,60.64,97.09,103.65,134.55,40.49,35.26,86.42,59.11,131.51,90,150.58,103.16,301.05,200.34,468.28,286.33-18.29-141.92-47.25-210.03-46.75-351.59ZM2519.76,4620.24c189.88-109.77,358.03-242.7,501.93-400.34,18.33-20.08,28.86-44.41,20.32-70.09-17.13-1.26-31.77,7.85-46.51,17.28l-448.63,286.93c-24.3,15.54-45.64,29.69-60.77,53.25,9.46,38.14,14.18,74.7,33.67,112.98ZM2317.93,4465.66c-97.15-59.33-189.17-119.09-282.92-183.32-48.83-33.45-94.53-64.72-146.96-93.7-2.03,21.35,7.46,36.59,20.4,51.01,139.97,155.97,307.33,284.51,497.19,374.06-22.57-114.02-4.51-97.24-87.71-148.06Z"/><path class="cls-2" d="M1084.84,3100.85c-6.05-24.89-27.4-40.83-37.95-69.22,83.35-85.1,191.9-134.91,299.82-169.36,1.67,13.52,13.55,26.64-1.61,38.62-18.7,14.77-42,24.46-60.78,43.07,14.42,35.36,28.03,69.34,27.76,107.16-54.79-4.37-109.11-11.7-160.52,1.47,20.42,51.16,58.58,81.26,69.22,131.46-52.31-23.49-89.17-63.35-135.96-83.2Z"/><path class="cls-2" d="M1513.18,2932.2l-29.01-105.47c-20.4-74.15-26.61-149.86-14.93-223.22,19.68,23.81,37.57,48.93,56.99,78.51,15.26-13.59,4.79-27.97,6.97-40.46,29.91-171.4,47.94-344.75,112.5-515.31,40.28,194.45,113.11,386.63,270.15,502.74,18.33,13.55,40.58,18.57,59.1,11.97,44.03,42.55,89.25,88.7,142.16,119.07l-71.38-161.93c-48.76-110.63.26-245.75,21.46-367.15,297.68-170.96,601.24-155.93,887.67,30.5-115.58,187.95-246.13,348.87-391.98,512.72,96.92-22.85,170.99-80.21,245.45-136.82,177.09-144.96,338.81-403.51,367.89-634.96,126.38,184.99,143.81,384.26,140.6,596.07,48.77-36.92,71.28-83.88,102.76-134.61,43.73,116.57,56.24,253.26-3.5,364.47-41.74,45.37-105.47,69.82-156.52,108.45l-24.93-95.42c-2.98-11.41,2.99-23.29,11.53-31.18,42.01-38.82,54.19-103.1,20.9-152.2-8.44-12.44-36.29.69-45.35,7.51-60.58,45.62-112.43,91.99-170.75,140.84-183.05,153.35-452.56,366.69-671.99,453.67-26.29,10.42-46.98,7.27-71.79-6.98-181.45-104.24-451.37-390.2-591.63-553.66-28.4-33.1-56.52-60.41-82.47-94.72-10.31-13.64-25.2-26.43-38.03-35.17-74.85,105.95,2.63,180.63,7.61,206.85,10.58,55.67-34.43,121.89-12.03,182.64-38.8-3.39-55.24-14.14-77.45-26.76ZM2281.16,3091.85c17.29-37.56,21.29-73.98,29.27-113.91l109.97-550.08c16.26-81.33,28.34-155.8,37.61-241.21-125.5,250.57-241.86,625.65-176.85,905.2Z"/><path class="cls-2" d="M2062.65,1552.71c41.58-27.82,60.99-73.32,94.89-108.61-17.76,78.63-57.18,146.22-111.82,206.27-194.65,213.9-521.88,342.37-819.34,282.22,42.93-29.36,85.45-49.52,124.96-84.1,88.45-77.43,142.69-190.75,125.45-309.44-17.3-119.02-156.96-243.87-83.21-472.74,31.84,82.82,85.84,150.14,167.37,181.28-30.32-163.34,13.16-357.7,130.43-462.86,120.15-107.75,281.58-135.08,427.33-62.16,139.98,70.04,237.34,198.71,286.3,347.95,58.32,177.78,16.5,376.23-122.95,508.88-5.14-32.08-4.15-60.51-17.96-91.81,104.86-124.88,105.5-299.77,8.21-430.59-54.42-73.18-125.06-128.52-210.55-166.96,6.51,28.73,16.27,51.22,25.61,76.27,87.62,234.89-18.04,455.64-180.53,625.39-3.87,4.04-13.63,3.64-14.23,7.22-.57,3.4-.45,15.77,6.06,15.25,59.54-4.72,112.16-26.79,163.99-61.47ZM1761.63,1680.19c36.09-52.4,47.53-118.1,22.11-176.44-35.52-81.51-113.9-120.75-163.43-201.03-25.68,42.94-20.51,88.16-15.43,134.5,45.17,194.53-66.38,344.67-223.33,441.42,139.65-22.93,300.09-82.3,380.08-198.44Z"/><path class="cls-2" d="M1506.42,3447.2c-.56-23.61-8.67-46.65-14.5-72.19-25.84-113.1-36.02-258.59,8.48-362.39,39.97,9.54,74.24,26.16,107.64,45.18,48.79,151.13,154.46,254.33,291.41,326.02,77.24,40.44,160.84,32.87,239.05-15.32,3.55,48.03,4.54,89.28,27.23,130.69l45.24-100.24c51.97-4.5,105.11-18.01,157.29-9.67,35.67,5.71,74.44.72,109.01,11.49,34.97,10.89,45.34,58.8,59.89,90.95,24.25-34.86,28.99-79.04,30.23-129.53,71.91,48.64,148.28,69.05,232.95,54.23,181.99-31.85,388.46-168.29,432.84-359.35,73.18-52.58,145.87-98.03,223.69-141.65,10.96-6.14,25.52-2.5,30.86,9.83,43.44,100.38,57.67,212.2,27.46,318.64-21.7,76.47-73.12,135.94-134.18,185.64-.28-36.05,3.82-66.49-4.15-98.75-7.41-29.97-29.3-44.75-60.98-41.7-184.82,17.79-425.74,155.45-569.87,268.09-24.8,19.38-47.95,141.13-130.13,151.31l11.97-59.48c2.83-14.06-.36-28.72-9.56-35.81-35.97-27.73-84.9,17.17-112.26,45.39-46.87,48.34-90.14,96.93-139.85,142.21-77.69,70.76-137.89-98.11-214.84-177.89-14.29-14.81-48.25-30.22-60.7-7.53-15.33,27.94,1.19,63.36-.13,95.32-71.2-25.5-82.19-81.66-104.72-148.32-66.47-73.25-365.82-320.16-453.4-257.71-27.75,19.79-12.8,119.03-12.69,155.65-8.22-1.54-9.98-8.72-13.28-13.11Z"/><path class="cls-2" d="M4690.59,3934.08c-1.54,17.65,5.31,35.47.23,48.37-11.8,29.92-10.31,56.89-27.86,83.96-17.77-117.3-73.08-213.21-164.09-282.71-46.9-35.81-92.15-70.2-148.13-91.38-25.52,16.96-40.96,40.29-65.61,62.93-25.39-56.98-38.92-110.9-55.81-168.93l-74.7,32.05c-128.74-70.2-187.28-222.34-174.26-364.79,49.06-22.9,95.82-43.44,148.82-57.81,7.65,51.34,6.62,99.5,21.56,145.72l93.67-20.71,14.35,147.24c43.78-31.02,76.39-63.18,112.19-101.41,7.02,83.32,14.3,163.83,43.02,246.87l96.03-45.07c53.62,90.45,102.52,181.4,144.9,278.2,13.45,30.72,16.8,63.05,35.68,87.46Z"/><path class="cls-2" d="M297.03,3988.43c1.29-17.77-5.3-36.83.56-49.46,21.5-28.59,22.39-63.47,35.99-96.01,40.02-95.75,87.16-185.29,139.91-273.86l98,44.51c26.07-80.95,36.94-162.89,39.36-246.77,38.25,37.75,70.85,73.1,114.67,99.62l18.6-145.09,89.29,19.2c14.14-48.97,15.16-96.42,23.63-144.49,52.36,16.75,98.61,32.69,145.99,58.56,10.77,154.47-39.96,284.53-174.09,366.48-29.35-8.59-50.09-22.3-74.2-33.09-15.24,57.61-29.08,113.03-55.4,164.68l-63.08-61.92c-81.31,35.32-153.22,87-213.32,152.5-66.54,72.51-74.09,139.01-99.88,223.36-14.87-27.58-16.15-54.21-26.02-78.22Z"/><path class="cls-3" d="M4690.82,3982.45c5.08-12.89-1.77-30.72-.23-48.37,46.2-56.36,64.55-126.91,71.06-202.52,25.95-301.35-92.89-540.15-311.29-739.62-88.76,19.26-138.73,71.81-241.13,23.06,53.92-6.75,100.99-20.55,116.92-70.83l-325.53-199.85c144.56-16.16,365.97,56.95,485.4,139.35,70.54,48.67,127.78,110.33,180.43,177.72,103.69,132.72,169.93,288.36,182.88,457.26,11.28,147.14-38.03,373.11-158.5,463.79Z"/><path class="cls-3" d="M297.6,3938.97c-5.86,12.63.73,31.69-.56,49.46-142.19-125.24-179.52-355.35-141.59-540.15,44.64-217.5,168.39-402.19,339.26-540.63,131.48-106.52,355.75-175.69,527.25-148.3-124.85,50.51-244.14,108.81-352.6,190.67,12.42,44.01,52.16,59.87,98.66,67.7-65.07,39.13-137.64,10.73-213.71-18.15-231.04,209.94-378.69,486.6-319.15,807.68,9.13,49.24,34.85,94.96,62.44,131.71Z"/><path class="cls-3" d="M2624.23,3979.61c-7.03,42.07-71.7,167.48-48.72,199.14,15.55,21.43,103.48-.37,132.38-9.11,107.83-32.63,206.71-78.38,302.27-138.91,98.62-62.48,181.67-138.93,265.89-218.09,8.36-7.86,26.21-5.74,32.83-1.36,35.19,23.29-123.57,195.83-147.71,211.61-225,147.04-457.72,273.91-693.05,406.09-40.04-120.35-50.82-233.12-42.02-353.18l198.14-96.19Z"/><path class="cls-2" d="M2729.78,4023.14l59.7-144.13c37.7-91.02,51.13-185.55,45.23-286.96,105.7-76.6,214.24-141.7,337.01-189.48,15.95,188.52-62.5,364.85-204.02,484.47-70.34,56.83-144.1,103.38-237.93,136.1Z"/><path class="cls-3" d="M2635.89,316.7l22.94,100.9c-16.95-5.81-24.39-26.6-44.3-29.71,17.63,51.56,37.49,95.58,22.49,145.07-15.51-16.67-16.97-35.84-26.84-52.74-36.91-87.33-107.99-154.83-199.7-180.39-119.99,58.94-225.14,130.19-318.05,225.21,83.39,53.85,163.45,111.23,219.39,195.41-63.57-34.08-111.89-77.05-176.32-99.08-88.87-42.21-181.99-45.68-283.91-32.12,141.63-183.23,335.94-311.02,550.81-378.74,89.35,18.37,164.77,57.38,233.51,106.18Z"/><path class="cls-2" d="M4236.29,1554.19c15.14,59.22,41.44,104.81,84.29,151.7-76.3-.44-144.76-24.79-212.61-57.46-108.85-127.01-173.08-281.35-190.77-453.02,70.5-4.49,134.39-15.59,199.92-47.11,29.95,63.83,45.11,123.95,63.39,187.67l55.78,218.23Z"/><path class="cls-2" d="M4079.09,3762.65c33.34,129.68,51.75,223.16,127.01,341.73,39.99,63,108.59,98.88,172.93,143.63-38.7,39.98-84.81,65.3-124.85,95.21-24.6.58-49.89-4.85-76.3-13.3-161.2-51.58-293-163.81-369.45-315.18-.81-13.65,14.48-28.87,21.97-35.37,79.03,127.44,266.48,283.46,420.92,283.91-148.53-130.98-247.49-293.81-299.79-478.56,46.1-11.86,86.4-20.47,127.56-22.06Z"/><path class="cls-2" d="M4265.21,2206.52c-76.4-14.15-151.23-29.53-224.18-55.7-19.5-7-17.55-40.41-19.77-57.36,13.23-100.09,43.45-192.14,91.93-281.76,76.34,19.18,149.15,35.53,231.59,36.84.93,123.56-23.65,240.17-79.57,357.98Z"/><path class="cls-2" d="M725.86,4343.01c-33.49-31.22-81.26-52.06-120.8-93.97,69.05-40.85,128.45-86.06,178.34-145.52,12.52-14.92,14.65-37.49,29.66-52.15,40.65-93.88,71.55-189.31,90.18-287.22,46.2,1.88,86.58,8.2,129.44,22.07-58.75,191.84-143.38,341.45-296.34,476.53,148.74,4.93,345.84-159.68,420.38-285.81,22.23,15.08,19.75,37.93,7.74,59.97-81.41,149.35-217.09,255.42-382.45,298.75-20.15,5.28-37.78,10.25-56.15,7.35Z"/><path class="cls-3" d="M2318.37,4078.39c-.5,141.56,28.46,209.67,46.75,351.59-167.22-86-317.7-183.17-468.28-286.33-45.09-30.89-91.03-54.74-131.51-90-43.01-37.46-69.68-89.5-103.65-134.55-5.52-7.32-1.18-18.56,1.3-22.85,2.48-4.29,14.98-11.32,20.02-5.08,103.93,128.61,238.59,228.64,395.46,284.51,26.66,9.5,62.98,17.57,85.8,3.85,29.95-18.02-40.53-171.05-51.03-202.17l205.14,101.04Z"/><path class="cls-2" d="M1929.04,3824.9c19.97,71.26,50.33,130.91,82.85,200.23-114.84-49.02-212.12-129.36-274.64-238.83-66.26-116.01-99.09-245.35-80.93-378.6,96.52,58.11,177.65,123.01,253.03,197.83-10.39,75.15-2.7,145.48,19.69,219.37Z"/><path class="cls-3" d="M4162.48,650.05c-13.23,10.77-46.09,22.5-46.13,44.88-.05,27.17.11,55.72,3.6,79.85-5.22-1.6-10.02-7-12.33-14.7-61.82-205.43-227.36-326.83-426.8-392.1,20.93,103.19,26.87,217.68-47.34,297.27-6.35,6.81-13.89,9.74-19.62,5.81-24.52-16.81,63.81-91.95,9.4-257.46-19.47-59.21-49.04-110.26-81.12-163.22-6.12-10.11-4.98-29.48,1.04-36.84,5.43-6.63,21.6-10.92,36.2-6.31,235.96,74.45,456.04,231.56,583.1,442.83Z"/><path class="cls-3" d="M3485.55,378.16c-29.21,3.71-46.4,31.66-56.87,57.89-32.89-74.23-62.9-148.42-117.72-209.82-170.53-65.65-363.18-81.62-539.18-29.97,53.06,73.82,93.43,148.34,90.69,238.21-52.07-126.44-138.26-214.87-268.25-271.6,205.31-103.17,570.65-91.24,761.24,21.87,67.13,39.83,97.37,129.58,130.08,193.41Z"/><path class="cls-2" d="M4119.95,774.78c-3.49-24.14-3.65-52.69-3.6-79.85.04-22.38,32.9-34.11,46.13-44.88,13.2,21.95,34.12,42.85,37.65,73.33,10.72,92.45-13.73,184.77-81.84,251.33-64.06,62.59-159.38,96.46-248.22,78.11-97.8-20.19-286.84-198.95-355.66-282.31l61.65-59.83c73.11,77.02,278.54,271.21,383.68,266.17,54.98-2.63,103.94-53.54,137.81-90.87,31.34-34.53,27.85-73.44,22.4-111.19Z"/><path class="cls-3" d="M4607.08,1624c-6.33-259.97-82.09-441.6-257.51-633.25-41.32,71.78-88.5,127.35-164.09,152.09-6.31,2.07-9.59-7.58-10.59-10.91-6.05-20.14,75.56-62.38,118.62-178.64,13.47-36.37,18.75-72.48,34.17-108.08,196.37,165.08,316.48,428.35,365.79,669.2,9.3,45.42-48.64,85.8-86.39,109.59Z"/><path class="cls-3" d="M1974.97,2640.97c-18.52,6.6-40.77,1.58-59.1-11.97-157.04-116.11-229.87-308.29-270.15-502.74-64.56,170.56-82.59,343.91-112.5,515.31-12.9-227.67-2.53-394.43,79.73-612.17,24.89-10.39,47.23-15.74,73.27-19.89,35.22,224.01,124.22,427.58,269.46,599.49,8.85,10.47,12.07,25,19.29,31.97Z"/><path class="cls-2" d="M2519.76,4620.24c-19.49-38.28-24.21-74.84-33.67-112.98,15.12-23.56,36.46-37.7,60.77-53.25l448.63-286.93c14.74-9.43,29.39-18.54,46.51-17.28,8.54,25.68-1.99,50.01-20.32,70.09-143.89,157.64-312.04,290.56-501.93,400.34Z"/><path class="cls-3" d="M4718.48,2321.23c6.41-163.68-12.46-325.05-62.84-481.26-80.3,34-157.58,47.09-238.45,34.79-6.01-5.84-7.85-29.64,3.1-30.77,100.63-10.39,190.8-42.84,277.39-103.57,78.5,207.25,116.37,426.75,101.05,647.16-6.64,29.66-58.05,36.18-80.95,33.24-4.32-34.95-.66-65.02.7-99.58Z"/><path class="cls-2" d="M3485.55,378.16c45.39,88.56,31.39,196.8-42.84,268.18-90.6,87.11-219.84,120.19-344.33,96.68-74.15-14-142.12-36.34-211.24-66.3l4.83-85.19,122.75,46.1c139.79,52.5,336.89,49.52,413.57-89.56,19.78-35.87,4.77-76.3.39-112.02,10.47-26.23,27.66-54.19,56.87-57.89Z"/><path class="cls-3" d="M4254.18,4343.21c40.04-29.9,86.16-55.23,124.85-95.21-64.34-44.74-132.94-80.62-172.93-143.63-75.26-118.56-93.67-212.05-127.01-341.73,24.07-1.42,44.04-5.37,64.95.79l33.67,196.54,141.02,4.47,3.73,158.78,122.9-3.03c-6.46,34.36-22.46,59.04-34.39,89.54,42.38,8.33,77.98,12.15,124.67,8.99-74.38,71.2-173.51,121.94-281.47,124.47ZM4264.36,4107.73l-35.68-96.76c-18.97-1.15-34.17-.58-50.26,7.39l37.57,71.88c7.76,14.84,34.68,12.89,48.36,17.49Z"/><path class="cls-3" d="M903.24,3764.16c-18.63,97.91-49.53,193.34-90.18,287.22-15.01,14.66-17.14,37.23-29.66,52.15-49.89,59.46-109.29,104.67-178.34,145.52,39.53,41.91,87.3,62.75,120.8,93.97-103.14-7.96-197.02-47.81-271.06-119.43,42.17-5.34,80.3-2.64,117.62-16.03-13.09-31.97-28.04-55.25-30.84-87.04l120.92,1.66,3.22-157.19,141.05-7.24,34.3-193.03c23-3.97,42.89-1.34,62.17-.56ZM813.87,4016.43c-23.65-5.59-43.66-5.92-67.52-4.35l-25.51,95.75c73.35-9.77,54.26-51.74,93.03-91.39Z"/><path class="cls-2" d="M3666.19,3755.2l39.02,146.25c-76.87-99.58-118.03-222.85-109.8-352.66,1.93-30.48-8.13-71.37,6.81-98.96,50.39-93.07,188.25-282.54,302.52-302.04l-147.39,303.77c-22.68-25.24-22.36-52.57-38.65-80.93-28.76,43.02-62.3,82.82-70.1,133.64-12.76,83.14-4.71,167.33,17.59,250.92Z"/><path class="cls-2" d="M2658.82,417.6l-22.94-100.9c67.54,47.94,116.45,113.2,130.48,203.7,30.94,199.6-88.67,371.03-259.72,463.43l-53.27-103.32c62.06-18.52,123.13-43.16,170.38-89.64,104.06-102.38,115.93-256.89,35.07-373.26Z"/><path class="cls-2" d="M2317.93,4465.66c83.2,50.81,65.14,34.03,87.71,148.06-189.87-89.55-357.23-218.09-497.19-374.06-12.94-14.42-22.43-29.66-20.4-51.01,52.44,28.98,98.13,60.25,146.96,93.7,93.76,64.23,185.77,123.99,282.92,183.32Z"/><path class="cls-3" d="M2673.95,3269.93c52.83,10.11,91.26,32.19,140,23.67,87.22-15.24,148.09-89.36,156.74-176.51-34.12,6.27-70.31,8.14-82.87-24.89-5.64-14.83-3.2-35.99,11.51-49.18,46.12-41.35,93.52-77.29,145.29-115.65,58.09,157.28-3.69,322.27-161.07,377.94-71.38,25.25-154.48,16.71-209.6-35.37Z"/><path class="cls-3" d="M1872.5,3146.72c7.95,94.42,93.2,146.81,193.32,151.66-101.15,35.62-207.98-16.65-264.68-106.26-56.2-88.82-64.72-199.49-31.23-298.67,32.26,36.4,86.69,64.32,90.56,110.34l12.03,142.94Z"/><path class="cls-2" d="M1223.59,3340.7l-62.18-144.71c30.46,18.01,58.37,37.61,83.06,68.97,131.99,167.69,168.39,155.18,138.13,398.13-11.63,93.36-50.17,173.59-107,245.05l28.43-98.9c28.98-100.84,44.6-205.86,28.26-311-6.35-40.87-71.95-168.53-108.71-157.55Z"/><path class="cls-3" d="M1500.4,3012.62c-44.51,103.79-34.33,249.28-8.48,362.39,5.84,25.54,13.94,48.58,14.5,72.19-71.22-94.65-100.84-209.04-85.42-327.11,5.44-41.64,3.63-89.5,26.99-123.9,10.76-15.55,43.15,7.02,52.41,16.43Z"/><path class="cls-3" d="M1469.25,2603.52c-11.68,73.35-5.47,149.06,14.93,223.22l29.01,105.47c-11.59-6.59-28.5-2.4-36.93-19.08-56.15-111.18-64.83-235.57-43.65-359.23,23.53,9.41,24.69,35.17,36.64,49.63Z"/><path class="cls-3" d="M1161.41,3196l62.18,144.71,16.03,84.4c2.2,11.61-2.35,29.52-12.02,31.89l-153.89-302.72c35.75,6.3,61.06,25.97,87.72,41.73Z"/><path class="cls-2" d="M1964.45,2483.08c-31.06-36.14-53.66-77.43-72.7-122.65,28.08-25.72,50.59-49.01,85.21-68.41l-12.51,191.06Z"/><path class="cls-2" d="M4469.28,2679.05c-8.67,21.01-46.31,25.67-44.17,44.55-105.53-47.7-210.51-86.47-327.23-89.11-120.31-2.72-235.22,28.93-324.03,113.12,112.27,46.57,192.27,127.45,244.19,232.72,8.83,17.91,25.02,47.89,10.63,65.77-73.8,26.16-144.12,55.66-214.75,93.14l65.32-131.44c-72.41-14.33-138.89-10.74-208.87-3.58-2.43-35.22,9.92-68.49,32.81-99.76-58.78-46.42-98.73-96.05-137.69-160.44,21-30.2,52.39-40.32,81.02-57.61l-74.9-78.72c-28.62-30.08-26.47-80.37-36.08-122.01,119.41-8.07,270.66,28.56,358.69,109.67l127.19-30.99c-55.02-69.89-128.31-122.75-215.03-142.78l-120.61-27.86c71.72-44.62,142.89-93.26,229.69-104.99,234.45-31.67,467.63,85.64,587.46,289.49l-153.8-82.98-121.33,89.73c90.82,18.93,165.53,58.55,241.49,94.09Z"/><path class="cls-1" d="M2281.16,3091.85c-65.01-279.54,51.35-654.62,176.85-905.2-9.27,85.41-21.35,159.88-37.61,241.21l-109.97,550.08c-7.98,39.93-11.98,76.35-29.27,113.91Z"/><path class="cls-3" d="M1761.63,1680.19c-79.98,116.15-240.42,175.51-380.08,198.44,156.95-96.75,268.5-246.89,223.33-441.42-5.08-46.34-10.26-91.56,15.43-134.5,49.53,80.28,127.91,119.52,163.43,201.03,25.42,58.34,13.98,124.04-22.11,176.44Z"/><path class="cls-2" d="M4264.36,4107.73c-13.69-4.6-40.6-2.65-48.36-17.49l-37.57-71.88c16.09-7.97,31.3-8.54,50.26-7.39l35.68,96.76Z"/><path class="cls-2" d="M813.87,4016.43c-38.77,39.65-19.68,81.63-93.03,91.39l25.51-95.75c23.86-1.57,43.87-1.24,67.52,4.35Z"/></g></g></svg>